v -1.965308 0.613432 1.446289
v -1.962722 0.614175 1.448614
v -1.964669 0.611407 1.449046
v -1.967144 0.610822 1.446930
v -1.969485 0.611232 1.446191
v -1.968700 0.612949 1.445132
v -1.968547 0.615169 1.445992
v -1.965854 0.616360 1.446960
v -1.963246 0.617385 1.449605
v -1.961013 0.614869 1.450850
v -1.961551 0.618164 1.452076
v -1.960550 0.618861 1.454587
v -1.960019 0.615643 1.453272
v -1.961816 0.613022 1.453743
v -1.962941 0.612119 1.451233
v -1.959577 0.616629 1.456156
v -1.960029 0.619641 1.457351
v -1.960722 0.619665 1.459718
v -1.960275 0.617686 1.459438
v -1.961341 0.615690 1.459406
v -1.961153 0.614176 1.456824
v -1.976885 0.619600 1.469358
v -1.974605 0.619670 1.470788
v -1.974378 0.621557 1.470136
v -1.976015 0.622103 1.468904
v -1.978256 0.622018 1.466486
v -1.978900 0.619455 1.467285
v -1.978475 0.616762 1.467307
v -1.976580 0.617042 1.469140
v -1.974748 0.617728 1.470013
v -1.980531 0.619200 1.465744
v -1.980063 0.621738 1.464506
v -1.981736 0.621199 1.462345
v -1.982134 0.618721 1.464049
v -1.981786 0.615907 1.464411
v -1.980098 0.616427 1.465940
v -1.984061 0.617905 1.461517
v -1.983576 0.620338 1.459384
v -1.984460 0.618975 1.457334
v -1.985308 0.616946 1.458440
v -1.984831 0.614974 1.459424
v -1.983874 0.615074 1.462093
v -1.962699 0.618674 1.463055
v -1.962719 0.621172 1.462573
v -1.966160 0.622134 1.465944
v -1.965626 0.619400 1.466176
v -1.965897 0.616291 1.464851
v -1.963147 0.615712 1.461952
v -1.967828 0.619673 1.467969
v -1.968628 0.622583 1.467899
v -1.970621 0.622626 1.469075
v -1.969835 0.619704 1.469141
v -1.970235 0.616603 1.467946
v -1.968081 0.616489 1.466624
v -1.972174 0.619704 1.470398
v -1.972635 0.622372 1.470107
v -1.972893 0.616930 1.469495
v -1.972828 0.613038 1.446401
v -1.972763 0.610641 1.447228
v -1.976998 0.611032 1.449608
v -1.976984 0.613536 1.448609
v -1.975709 0.616647 1.448981
v -1.971516 0.615950 1.446831
v -1.980457 0.614281 1.450268
v -1.980424 0.611607 1.451720
v -1.982992 0.612405 1.454112
v -1.983126 0.615153 1.452170
v -1.982143 0.618479 1.451943
v -1.979315 0.617568 1.450388
v -1.984870 0.616035 1.455109
v -1.984658 0.613465 1.457330
v -1.984006 0.619141 1.454535
v -1.970928 0.610095 1.448753
v -1.975242 0.610452 1.451241
v -1.976998 0.611032 1.449608
v -1.972763 0.610641 1.447228
v -1.968479 0.610618 1.450717
v -1.972761 0.611007 1.453252
v -1.978668 0.611095 1.453875
v -1.976125 0.611770 1.456272
v -1.978699 0.612820 1.459469
v -1.981228 0.612021 1.456760
v -1.982992 0.612405 1.454112
v -1.980424 0.611607 1.451720
v -1.982947 0.613230 1.460003
v -1.980614 0.614070 1.462533
v -1.981786 0.615907 1.464411
v -1.983874 0.615074 1.462093
v -1.984831 0.614974 1.459424
v -1.984658 0.613465 1.457330
v -1.966569 0.611428 1.452861
v -1.965095 0.612495 1.455509
v -1.968705 0.613048 1.458054
v -1.970599 0.611905 1.455384
v -1.973728 0.612658 1.458454
v -1.971500 0.613670 1.460856
v -1.973958 0.614392 1.463584
v -1.976270 0.613620 1.461593
v -1.978536 0.614721 1.464322
v -1.976555 0.615249 1.465904
v -1.978475 0.616762 1.467307
v -1.980098 0.616427 1.465940
v -1.963949 0.613788 1.458988
v -1.967031 0.614342 1.461676
v -1.969462 0.614717 1.463916
v -1.971778 0.615109 1.465898
v -1.974514 0.615715 1.467813
v -1.976580 0.617042 1.469140
v -1.982487 0.620985 1.456802
v -1.980673 0.622029 1.460195
v -1.978715 0.621911 1.458139
v -1.980556 0.620596 1.454437
v -1.977544 0.619922 1.452953
v -1.975634 0.621548 1.456711
v -1.971617 0.620793 1.455027
v -1.973687 0.619044 1.451461
v -1.969219 0.618044 1.449074
v -1.966849 0.619498 1.452200
v -1.978921 0.622737 1.463001
v -1.976969 0.623140 1.465559
v -1.975038 0.623380 1.464607
v -1.976969 0.622831 1.461534
v -1.974071 0.622654 1.460413
v -1.972461 0.623295 1.463736
v -1.968961 0.622643 1.461931
v -1.970197 0.621957 1.458654
v -1.965317 0.620494 1.455276
v -1.964261 0.621180 1.458177
v -1.974553 0.623268 1.468211
v -1.972638 0.623582 1.467342
v -1.970410 0.623531 1.466359
v -1.967444 0.622959 1.464444
v -1.963317 0.621706 1.460778
v -1.926490 0.615723 1.433386
v -1.931184 0.617562 1.435016
v -1.931990 0.616120 1.437239
v -1.927565 0.614707 1.435298
v -1.925013 0.613209 1.433355
v -1.923209 0.613322 1.431780
v -1.922305 0.613451 1.429186
v -1.925549 0.616193 1.430317
v -1.930403 0.618395 1.431498
v -1.935401 0.618125 1.436565
v -1.939203 0.618096 1.437697
v -1.939032 0.616472 1.439528
v -1.935709 0.616506 1.438657
v -1.935112 0.619170 1.432977
v -1.939509 0.619240 1.434297
v -1.942651 0.618162 1.438076
v -1.945591 0.617771 1.437706
v -1.944664 0.616640 1.438959
v -1.942269 0.616626 1.439827
v -1.943424 0.619329 1.435001
v -1.946658 0.618903 1.434983
v -1.924779 0.616534 1.427110
v -1.929606 0.618862 1.427862
v -1.921734 0.613727 1.426373
v -1.921954 0.614226 1.423170
v -1.924874 0.616822 1.423638
v -1.929655 0.619039 1.424042
v -1.934627 0.619830 1.429100
v -1.939512 0.620080 1.430537
v -1.934743 0.620181 1.424891
v -1.939765 0.620681 1.426262
v -1.943930 0.620256 1.431884
v -1.947514 0.619806 1.432611
v -1.944349 0.620975 1.428232
v -1.948042 0.620516 1.429750
v -1.926529 0.617137 1.419774
v -1.931412 0.619002 1.419973
v -1.923423 0.615025 1.419408
v -1.926083 0.615481 1.417007
v -1.928946 0.616971 1.416427
v -1.933960 0.618511 1.416456
v -1.936258 0.620298 1.420308
v -1.940823 0.621109 1.421321
v -1.938475 0.619897 1.416385
v -1.942431 0.620913 1.417102
v -1.944864 0.621520 1.423554
v -1.948125 0.621066 1.425564
v -1.945766 0.621341 1.419494
v -1.947867 0.620853 1.422148
v -1.945531 0.613579 1.434709
v -1.941273 0.612892 1.434133
v -1.940237 0.612557 1.436306
v -1.944178 0.613198 1.436829
v -1.946376 0.614272 1.436965
v -1.948255 0.614725 1.435376
v -1.949404 0.615756 1.433097
v -1.946754 0.614729 1.432477
v -1.942331 0.614143 1.431690
v -1.937060 0.612620 1.433191
v -1.932920 0.612116 1.431949
v -1.933326 0.612035 1.434981
v -1.936781 0.612361 1.435850
v -1.937400 0.613791 1.430146
v -1.932513 0.613024 1.428480
v -1.928886 0.610731 1.430478
v -1.925481 0.609905 1.429641
v -1.926567 0.610599 1.431804
v -1.929389 0.611005 1.433220
v -1.928221 0.611193 1.427324
v -1.924774 0.609977 1.427007
v -1.947607 0.615644 1.429995
v -1.943197 0.615262 1.428598
v -1.950218 0.616442 1.431139
v -1.950690 0.616968 1.428639
v -1.948233 0.616412 1.426744
v -1.944076 0.616242 1.424631
v -1.938114 0.614766 1.426794
v -1.932973 0.613716 1.425160
v -1.939279 0.615606 1.422851
v -1.934253 0.614342 1.421588
v -1.928385 0.611670 1.424273
v -1.924649 0.610311 1.424244
v -1.929410 0.612285 1.421026
v -1.925295 0.610975 1.421196
v -1.948772 0.617123 1.422208
v -1.945174 0.617078 1.419562
v -1.950815 0.617520 1.424734
v -1.949916 0.618350 1.421483
v -1.948664 0.618156 1.418490
v -1.945567 0.618102 1.415610
v -1.940971 0.616371 1.418034
v -1.936307 0.615050 1.417361
v -1.941880 0.617316 1.414438
v -1.937547 0.615994 1.414317
v -1.931329 0.613164 1.417280
v -1.932511 0.614333 1.414588
v -1.928682 0.613421 1.415712
v -1.926906 0.612036 1.417710
v -1.947347 0.619891 1.417696
v -1.944332 0.619646 1.414995
v -1.948664 0.618156 1.418490
v -1.949916 0.618350 1.421483
v -1.949451 0.619685 1.421565
v -1.940699 0.618698 1.414159
v -1.936385 0.617328 1.414293
v -1.931328 0.615819 1.414501
v -1.926760 0.614323 1.415641
v -1.942934 0.614593 1.438973
v -1.939433 0.614188 1.438584
v -1.945997 0.615325 1.438534
v -1.946376 0.614272 1.436965
v -1.944178 0.613198 1.436829
v -1.936249 0.614120 1.438045
v -1.932860 0.613824 1.436985
v -1.928740 0.612732 1.435034
v -1.925121 0.611573 1.432653
v -1.950354 0.619283 1.425905
v -1.950391 0.618758 1.429763
v -1.950815 0.617520 1.424734
v -1.950690 0.616968 1.428639
v -1.949898 0.618182 1.432187
v -1.949012 0.617430 1.434141
v -1.950218 0.616442 1.431139
v -1.949404 0.615756 1.433097
v -1.947867 0.616374 1.436590
v -1.948255 0.614725 1.435376
v -1.923230 0.611075 1.430303
v -1.922425 0.611054 1.427855
v -1.922061 0.611325 1.425181
v -1.922452 0.611949 1.422134
v -1.923910 0.612991 1.418570
v -1.942126 0.621714 1.515574
v -1.945946 0.624169 1.514262
v -1.946947 0.623493 1.517274
v -1.943566 0.621385 1.517814
v -1.941595 0.619209 1.517512
v -1.939650 0.618759 1.516418
v -1.938126 0.617971 1.513999
v -1.940861 0.621137 1.512452
v -1.945129 0.623816 1.510385
v -1.949612 0.625603 1.513305
v -1.953171 0.626359 1.512628
v -1.953097 0.625173 1.515939
v -1.950030 0.624623 1.516635
v -1.949447 0.625501 1.509118
v -1.953616 0.626501 1.508501
v -1.956673 0.626781 1.512157
v -1.959756 0.626181 1.511948
v -1.958954 0.625237 1.514122
v -1.956432 0.625545 1.515229
v -1.957443 0.627126 1.508383
v -1.960616 0.626612 1.508647
v -1.939852 0.620657 1.509589
v -1.944426 0.623358 1.507243
v -1.936968 0.617460 1.511395
v -1.936192 0.617068 1.508354
v -1.939174 0.620177 1.506668
v -1.943941 0.622789 1.504476
v -1.949283 0.625151 1.505810
v -1.953980 0.626324 1.505237
v -1.949097 0.624599 1.503062
v -1.954082 0.625884 1.502529
v -1.958075 0.627169 1.505470
v -1.961327 0.626824 1.506161
v -1.958338 0.626919 1.502980
v -1.961672 0.626765 1.503910
v -1.938898 0.619603 1.503375
v -1.943779 0.622104 1.501721
v -1.935813 0.616638 1.504623
v -1.937136 0.616295 1.502091
v -1.939421 0.618323 1.500655
v -1.944349 0.620699 1.499545
v -1.948864 0.623892 1.500551
v -1.953742 0.625233 1.500067
v -1.949207 0.622443 1.498692
v -1.953826 0.623816 1.498326
v -1.957999 0.626389 1.500471
v -1.961433 0.626387 1.501317
v -1.958039 0.625077 1.498679
v -1.960781 0.625247 1.499779
v -1.959334 0.619176 1.512615
v -1.955108 0.617861 1.512894
v -1.954743 0.619206 1.515568
v -1.958651 0.620191 1.515018
v -1.960791 0.621452 1.514148
v -1.962337 0.621116 1.512331
v -1.962939 0.621233 1.509653
v -1.959829 0.619095 1.509768
v -1.955390 0.617530 1.509728
v -1.951713 0.616977 1.513157
v -1.948613 0.616052 1.513532
v -1.948999 0.617861 1.516404
v -1.951731 0.618609 1.516034
v -1.951520 0.616290 1.509743
v -1.947864 0.615040 1.510112
v -1.945270 0.614609 1.514146
v -1.942224 0.614063 1.514969
v -1.943440 0.615705 1.516517
v -1.945928 0.616422 1.516667
v -1.944070 0.613450 1.511135
v -1.940723 0.612914 1.512451
v -1.960524 0.619255 1.507417
v -1.956038 0.617565 1.507064
v -1.963565 0.621426 1.507500
v -1.964039 0.621544 1.505317
v -1.961147 0.619429 1.505018
v -1.956707 0.617715 1.504402
v -1.951771 0.616006 1.506794
v -1.947569 0.614428 1.507056
v -1.952208 0.615981 1.503952
v -1.947624 0.614189 1.504135
v -1.943277 0.612685 1.508296
v -1.939584 0.612145 1.509890
v -1.942931 0.612302 1.505415
v -1.938922 0.611701 1.507038
v -1.961422 0.619389 1.502023
v -1.957049 0.617730 1.501240
v -1.964188 0.621434 1.502549
v -1.962931 0.621606 1.500499
v -1.960978 0.620088 1.499457
v -1.956678 0.618540 1.498669
v -1.952569 0.616071 1.500858
v -1.947927 0.614297 1.501122
v -1.952276 0.617042 1.498508
v -1.947676 0.615355 1.498942
v -1.943072 0.612293 1.502276
v -1.942781 0.613240 1.499935
v -1.939516 0.612576 1.501461
v -1.938852 0.611526 1.503650
v -1.959442 0.622480 1.498342
v -1.955204 0.621077 1.497778
v -1.960978 0.620088 1.499457
v -1.962931 0.621606 1.500499
v -1.962606 0.623622 1.499749
v -1.950750 0.619663 1.497898
v -1.946066 0.617969 1.498518
v -1.941140 0.615726 1.499452
v -1.937360 0.613900 1.501278
v -1.957387 0.622831 1.516036
v -1.953847 0.622216 1.516750
v -1.960488 0.623430 1.514660
v -1.960791 0.621452 1.514148
v -1.958651 0.620191 1.515018
v -1.950953 0.621724 1.517369
v -1.948204 0.620866 1.517820
v -1.945097 0.619151 1.518034
v -1.942183 0.617249 1.517566
v -1.963844 0.624251 1.502162
v -1.963893 0.624481 1.504819
v -1.964188 0.621434 1.502549
v -1.964039 0.621544 1.505317
v -1.963494 0.624429 1.506959
v -1.962825 0.624193 1.509175
v -1.963565 0.621426 1.507500
v -1.962939 0.621233 1.509653
v -1.962061 0.623872 1.512058
v -1.962337 0.621116 1.512331
v -1.940017 0.615828 1.515972
v -1.938411 0.614825 1.513702
v -1.937180 0.614180 1.511209
v -1.936392 0.613766 1.508247
v -1.936114 0.613460 1.504573
vn 0.525600 -0.136100 -0.839700
vn 0.756200 -0.141000 -0.638900
vn 0.502000 -0.832300 -0.235000
vn 0.316700 -0.819900 -0.476900
vn -0.022700 -0.668400 -0.743500
vn 0.038300 -0.096000 -0.994600
vn -0.000900 0.475400 -0.879800
vn 0.292200 0.584700 -0.756700
vn 0.468400 0.639300 -0.609800
vn 0.879500 -0.147000 -0.452600
vn 0.582100 0.652200 -0.485500
vn 0.678000 0.646600 -0.349500
vn 0.960100 -0.153500 -0.233600
vn 0.604600 -0.792300 0.081800
vn 0.568900 -0.818700 -0.077900
vn 0.987900 -0.150200 0.037400
vn 0.788400 0.609600 -0.081700
vn 0.853800 0.419900 0.307700
vn 0.902500 -0.141100 0.407000
vn 0.696900 -0.561500 0.446100
vn 0.645600 -0.720800 0.252100
vn -0.616000 0.094500 0.782100
vn -0.199300 -0.009100 0.979900
vn -0.253300 0.445100 0.858900
vn -0.505900 0.589600 0.629600
vn -0.599000 0.634600 0.488200
vn -0.702600 0.149700 0.695600
vn -0.523700 -0.505100 0.686000
vn -0.430000 -0.529300 0.731400
vn -0.148900 -0.466300 0.872000
vn -0.718100 0.192800 0.668700
vn -0.630500 0.665100 0.400100
vn -0.670600 0.683100 0.289200
vn -0.774300 0.231500 0.588900
vn -0.579300 -0.422300 0.697100
vn -0.525600 -0.453000 0.720100
vn -0.875400 0.229300 0.425400
vn -0.746500 0.651400 0.135600
vn -0.879000 0.474500 -0.045600
vn -0.988900 0.118800 0.089000
vn -0.911400 -0.323600 0.254100
vn -0.721100 -0.414700 0.555000
vn 0.760900 -0.104600 0.640400
vn 0.711500 0.569600 0.411400
vn 0.591900 0.622300 0.512300
vn 0.667100 -0.086100 0.739900
vn 0.473900 -0.631800 0.613400
vn 0.547900 -0.623300 0.557900
vn 0.567700 -0.091600 0.818100
vn 0.473000 0.631600 0.614300
vn 0.347500 0.628500 0.695800
vn 0.483400 -0.111200 0.868300
vn 0.343800 -0.655200 0.672700
vn 0.413200 -0.642400 0.645300
vn 0.300200 -0.094100 0.949200
vn 0.115800 0.580600 0.805900
vn 0.183400 -0.626600 0.757400
vn -0.373800 -0.032000 -0.926900
vn -0.275600 -0.735100 -0.619400
vn -0.397700 -0.756900 -0.518500
vn -0.456200 -0.059700 -0.887800
vn -0.262600 0.536200 -0.802100
vn -0.222600 0.551200 -0.804100
vn -0.527600 -0.121500 -0.840700
vn -0.483600 -0.766700 -0.422300
vn -0.635900 -0.728800 -0.253900
vn -0.742300 -0.118400 -0.659500
vn -0.489900 0.508800 -0.707800
vn -0.279300 0.495500 -0.822400
vn -0.945000 -0.036400 -0.325000
vn -0.788400 -0.615000 0.011400
vn -0.741500 0.537200 -0.402000
vn 0.018900 -0.995800 -0.089100
vn -0.091300 -0.994400 0.054000
vn -0.397700 -0.756900 -0.518500
vn -0.275600 -0.735100 -0.619400
vn 0.148600 -0.976100 0.158400
vn 0.051700 -0.962100 0.267600
vn -0.140100 -0.982600 0.121900
vn 0.024300 -0.954400 0.297400
vn -0.012600 -0.943100 0.332300
vn -0.197100 -0.960100 0.198100
vn -0.635900 -0.728800 -0.253900
vn -0.483600 -0.766700 -0.422300
vn -0.379000 -0.854500 0.355100
vn -0.169100 -0.866600 0.469400
vn -0.579300 -0.422300 0.697100
vn -0.721100 -0.414700 0.555000
vn -0.911400 -0.323600 0.254100
vn -0.788400 -0.615000 0.011400
vn 0.180700 -0.954100 0.238700
vn 0.196600 -0.939600 0.280200
vn 0.092500 -0.945100 0.313300
vn 0.086700 -0.944900 0.315700
vn 0.067100 -0.944500 0.321500
vn 0.075900 -0.950400 0.301400
vn 0.018600 -0.950200 0.311000
vn 0.017200 -0.939300 0.342600
vn -0.142200 -0.871300 0.469600
vn -0.144700 -0.896200 0.419300
vn -0.523700 -0.505100 0.686000
vn -0.525600 -0.453000 0.720100
vn 0.288300 -0.885700 0.363800
vn 0.179600 -0.910700 0.371900
vn 0.163100 -0.917500 0.362800
vn 0.109500 -0.917700 0.381700
vn -0.055400 -0.874000 0.482700
vn -0.430000 -0.529300 0.731400
vn -0.449500 0.869300 -0.205400
vn -0.339800 0.938200 -0.065200
vn -0.085100 0.960700 -0.264200
vn -0.171400 0.882300 -0.438300
vn -0.046200 0.850700 -0.523600
vn 0.004700 0.939800 -0.341500
vn 0.026400 0.928300 -0.370900
vn -0.057600 0.847700 -0.527300
vn -0.013600 0.833100 -0.552900
vn 0.104800 0.903700 -0.415100
vn -0.327100 0.944200 0.036700
vn -0.306800 0.938400 0.158700
vn -0.071400 0.995000 -0.069000
vn -0.083100 0.981100 -0.174400
vn 0.016300 0.970100 -0.242300
vn 0.032200 0.987100 -0.156700
vn 0.094600 0.972400 -0.213300
vn 0.069700 0.958200 -0.277500
vn 0.163900 0.929000 -0.331600
vn 0.190600 0.942300 -0.275100
vn -0.208400 0.904000 0.373100
vn 0.028600 0.984300 0.173800
vn 0.152300 0.984400 0.087300
vn 0.242600 0.970100 0.003600
vn 0.377500 0.923900 -0.061300
vn 0.575300 0.663600 0.478100
vn 0.367200 0.816600 0.445300
vn 0.398900 0.283200 0.872100
vn 0.517500 0.158500 0.840800
vn 0.622200 -0.061600 0.780400
vn 0.830900 0.158900 0.533200
vn 0.921200 0.268600 0.281500
vn 0.565500 0.785200 0.252100
vn 0.337400 0.911100 0.236500
vn 0.206700 0.862400 0.462000
vn 0.109700 0.862100 0.494600
vn 0.160900 0.220100 0.962100
vn 0.284600 0.280600 0.916700
vn 0.160600 0.957400 0.240000
vn 0.086300 0.959400 0.268300
vn -0.049900 0.840700 0.539100
vn -0.400000 0.675600 0.619300
vn -0.350400 0.287500 0.891300
vn -0.057900 0.232800 0.970800
vn -0.022000 0.943400 0.330900
vn -0.364100 0.814000 0.452500
vn 0.575100 0.806800 0.135700
vn 0.339500 0.932400 0.123800
vn 0.948100 0.302900 0.096700
vn 0.920500 0.361200 -0.149200
vn 0.540800 0.840300 -0.038100
vn 0.325700 0.945000 -0.029500
vn 0.162900 0.977100 0.136400
vn 0.099200 0.979600 0.174800
vn 0.178000 0.983800 0.022000
vn 0.118500 0.989100 0.087400
vn 0.013700 0.970600 0.240200
vn -0.342200 0.869300 0.356700
vn 0.026100 0.989000 0.145400
vn -0.347500 0.915800 0.201300
vn 0.451900 0.857800 -0.244900
vn 0.289800 0.936200 -0.198600
vn 0.792200 0.453400 -0.408400
vn 0.579700 0.544600 -0.606000
vn 0.361300 0.754100 -0.548400
vn 0.257700 0.835800 -0.484800
vn 0.205100 0.969900 -0.131300
vn 0.127800 0.991000 -0.039200
vn 0.205000 0.878400 -0.431600
vn 0.030300 0.940800 -0.337700
vn -0.021100 0.999500 0.024100
vn -0.373200 0.926600 0.044600
vn -0.211700 0.955600 -0.204600
vn -0.423400 0.899200 -0.110000
vn -0.298900 -0.944800 -0.133800
vn -0.153800 -0.962600 -0.222900
vn -0.060100 -0.963000 0.262500
vn -0.226900 -0.921500 0.315000
vn -0.507600 -0.734900 0.449800
vn -0.738100 -0.632300 0.235500
vn -0.810100 -0.571300 0.131700
vn -0.297200 -0.918200 -0.261800
vn -0.175500 -0.929000 -0.325700
vn -0.148800 -0.967100 -0.206300
vn -0.270400 -0.949800 -0.157100
vn -0.033300 -0.937100 0.347500
vn -0.006800 -0.954700 0.297300
vn -0.199900 -0.938600 -0.281000
vn -0.334100 -0.917800 -0.214200
vn -0.293500 -0.953600 -0.067500
vn 0.071500 -0.990300 0.118700
vn 0.095500 -0.912700 0.397200
vn -0.053700 -0.929600 0.364600
vn -0.367800 -0.916200 -0.159000
vn 0.069400 -0.995600 -0.062300
vn -0.264500 -0.942300 -0.205300
vn -0.166200 -0.957500 -0.235400
vn -0.839700 -0.536500 0.083900
vn -0.867200 -0.497500 -0.018500
vn -0.230800 -0.960900 -0.152500
vn -0.153300 -0.975800 -0.155700
vn -0.209000 -0.960100 -0.185600
vn -0.334000 -0.936100 -0.110400
vn -0.220100 -0.969500 -0.107700
vn -0.323700 -0.945100 -0.045000
vn -0.367400 -0.924700 -0.098900
vn 0.071700 -0.984100 -0.162600
vn -0.335500 -0.939300 -0.072100
vn 0.079200 -0.961000 -0.264700
vn -0.357500 -0.908700 -0.215200
vn -0.196500 -0.963800 -0.180200
vn -0.894400 -0.417800 -0.159300
vn -0.925000 -0.167500 -0.341000
vn -0.755200 -0.381500 -0.533100
vn -0.526400 -0.470400 -0.708200
vn -0.248900 -0.958700 -0.137600
vn -0.309700 -0.943900 -0.114400
vn -0.280100 -0.596200 -0.752300
vn -0.191600 -0.630000 -0.752600
vn -0.276000 -0.941300 -0.194400
vn -0.111700 -0.638000 -0.761900
vn 0.083700 -0.674000 -0.734000
vn 0.090500 -0.889600 -0.447700
vn -0.592100 0.599600 -0.538300
vn -0.291800 0.502400 -0.813900
vn -0.755200 -0.381500 -0.533100
vn -0.925000 -0.167500 -0.341000
vn -0.758400 0.607000 -0.237500
vn 0.014800 0.403600 -0.914800
vn 0.135700 0.358500 -0.923600
vn 0.218100 0.258600 -0.941000
vn 0.479000 -0.062800 -0.875500
vn -0.131100 -0.569000 0.811800
vn 0.071100 -0.618900 0.782200
vn -0.525800 -0.251400 0.812600
vn -0.507600 -0.734900 0.449800
vn -0.226900 -0.921500 0.315000
vn 0.173500 -0.563600 0.807600
vn 0.226300 -0.521500 0.822700
vn 0.269100 -0.548100 0.791900
vn 0.438600 -0.616900 0.653500
vn -0.838800 0.544300 -0.001400
vn -0.858300 0.477200 0.188800
vn -0.894400 -0.417800 -0.159300
vn -0.867200 -0.497500 -0.018500
vn -0.835700 0.397000 0.379400
vn -0.810400 0.324700 0.487700
vn -0.839700 -0.536500 0.083900
vn -0.810100 -0.571300 0.131700
vn -0.776500 0.143600 0.613500
vn -0.738100 -0.632300 0.235500
vn 0.680100 -0.628100 0.378000
vn 0.775600 -0.616700 0.134300
vn 0.806100 -0.585300 -0.086400
vn 0.785100 -0.523100 -0.331600
vn 0.703900 -0.378600 -0.600900
vn 0.580500 0.756800 0.300500
vn 0.406600 0.897200 0.172400
vn 0.180300 0.642600 0.744600
vn 0.326000 0.476900 0.816200
vn 0.451900 0.195700 0.870300
vn 0.739400 0.269400 0.617000
vn 0.868300 0.294500 0.399200
vn 0.619800 0.778200 0.101200
vn 0.444400 0.895800 -0.005600
vn 0.251200 0.956300 0.149600
vn 0.136200 0.975100 0.174700
vn -0.033100 0.704200 0.709200
vn 0.052500 0.701200 0.711100
vn 0.301600 0.952500 -0.041500
vn 0.197800 0.979900 -0.025900
vn -0.048100 0.971000 0.234000
vn -0.435800 0.838500 0.327000
vn -0.401700 0.684700 0.608100
vn -0.161000 0.702400 0.693300
vn 0.008100 0.998600 0.051400
vn -0.429700 0.881700 0.194500
vn 0.618900 0.784000 0.047500
vn 0.444700 0.893400 -0.063400
vn 0.907300 0.324700 0.267200
vn 0.934300 0.336600 0.117500
vn 0.621600 0.782400 -0.037400
vn 0.443900 0.885400 -0.137600
vn 0.312400 0.942700 -0.117400
vn 0.223900 0.967900 -0.113800
vn 0.318500 0.929000 -0.188200
vn 0.240600 0.953000 -0.183900
vn 0.040400 0.998200 -0.043500
vn -0.430000 0.896400 0.106900
vn 0.058000 0.987300 -0.147900
vn -0.439000 0.896200 -0.063100
vn 0.630200 0.725000 -0.277700
vn 0.448500 0.814200 -0.368600
vn 0.936800 0.304600 -0.172100
vn 0.773900 0.246100 -0.583500
vn 0.543400 0.433400 -0.719000
vn 0.367000 0.489700 -0.790800
vn 0.330800 0.841900 -0.426300
vn 0.237700 0.869100 -0.433700
vn 0.259400 0.484800 -0.835300
vn 0.137000 0.495500 -0.857700
vn 0.044700 0.907700 -0.417100
vn -0.413700 0.830700 -0.372400
vn -0.066700 0.549600 -0.832800
vn -0.360200 0.579500 -0.731000
vn -0.433900 -0.850500 0.297300
vn -0.287500 -0.910100 0.298300
vn -0.262200 -0.617200 0.741800
vn -0.391900 -0.542600 0.742900
vn -0.648500 -0.304700 0.697500
vn -0.834900 -0.397800 0.380300
vn -0.877400 -0.430600 0.211500
vn -0.444700 -0.891000 0.090800
vn -0.315000 -0.943600 0.101900
vn -0.291800 -0.900100 0.323400
vn -0.368700 -0.870900 0.324800
vn -0.312100 -0.604800 0.732600
vn -0.268300 -0.615300 0.741200
vn -0.318600 -0.937100 0.142100
vn -0.376000 -0.913200 0.157000
vn -0.340300 -0.868300 0.360900
vn 0.002500 -0.837800 0.546000
vn -0.081900 -0.654500 0.751600
vn -0.282100 -0.629500 0.723900
vn -0.323300 -0.926300 0.193400
vn 0.092000 -0.919100 0.383000
vn -0.466200 -0.881900 0.069600
vn -0.341000 -0.938400 0.056200
vn -0.887800 -0.414400 0.200300
vn -0.910500 -0.398300 0.111000
vn -0.478200 -0.876400 0.057200
vn -0.351200 -0.935600 0.035100
vn -0.344300 -0.934800 0.087100
vn -0.377900 -0.919900 0.104100
vn -0.355200 -0.934000 0.037200
vn -0.373500 -0.926700 0.041300
vn -0.299400 -0.945500 0.127700
vn 0.172400 -0.949700 0.261300
vn -0.279200 -0.958600 0.055900
vn 0.228100 -0.965500 0.125400
vn -0.507900 -0.848700 -0.147200
vn -0.361000 -0.918700 -0.160000
vn -0.902300 -0.391400 -0.180500
vn -0.729500 -0.325300 -0.601600
vn -0.479200 -0.554600 -0.680300
vn -0.289600 -0.614200 -0.734000
vn -0.340000 -0.919000 -0.199600
vn -0.331100 -0.917500 -0.220400
vn -0.188100 -0.603500 -0.774800
vn -0.120800 -0.598400 -0.792000
vn -0.218800 -0.953900 -0.205100
vn -0.002800 -0.666100 -0.745800
vn 0.253900 -0.744700 -0.617200
vn 0.261100 -0.949800 -0.172300
vn -0.274100 0.025600 -0.961300
vn -0.063600 -0.027700 -0.997600
vn -0.479200 -0.554600 -0.680300
vn -0.729500 -0.325300 -0.601600
vn -0.636600 0.208500 -0.742500
vn 0.071900 -0.017100 -0.997300
vn 0.162300 -0.008200 -0.986700
vn 0.302300 -0.081100 -0.949700
vn 0.657900 -0.322900 -0.680300
vn -0.293400 0.076400 0.952900
vn -0.197700 0.001100 0.980300
vn -0.603100 0.261300 0.753600
vn -0.648500 -0.304700 0.697500
vn -0.391900 -0.542600 0.742900
vn -0.185700 -0.016200 0.982500
vn -0.151200 -0.055300 0.986900
vn -0.065400 -0.157300 0.985400
vn 0.191900 -0.329100 0.924600
vn -0.881500 0.374200 -0.287900
vn -0.906000 0.418900 0.060100
vn -0.902300 -0.391400 -0.180500
vn -0.910500 -0.398300 0.111000
vn -0.881100 0.412200 0.231800
vn -0.866300 0.411500 0.282900
vn -0.887800 -0.414400 0.200300
vn -0.877400 -0.430600 0.211500
vn -0.827200 0.391700 0.402700
vn -0.834900 -0.397800 0.380300
vn 0.503500 -0.459500 0.731600
vn 0.674800 -0.495100 0.547300
vn 0.783800 -0.488700 0.383100
vn 0.852900 -0.483400 0.197000
vn 0.870000 -0.471900 -0.143000
vt 2.222700 -0.303100
vt 2.181400 -0.333800
vt 2.205200 -0.395300
vt 2.250100 -0.367100
vt 2.301500 -0.298200
vt 2.249700 -0.243400
vt 2.212100 -0.220000
vt 2.183100 -0.253800
vt 2.143100 -0.281700
vt 2.144900 -0.351500
vt 2.107600 -0.301400
vt 2.074700 -0.317600
vt 2.109600 -0.363200
vt 2.121400 -0.416200
vt 2.163300 -0.409600
vt 2.072000 -0.376000
vt 2.042400 -0.335100
vt 2.017400 -0.353100
vt 2.029700 -0.386400
vt 2.036900 -0.416900
vt 2.076400 -0.421600
vt 1.763300 -0.228900
vt 1.777300 -0.296000
vt 1.804400 -0.267800
vt 1.806000 -0.217900
vt 1.812300 -0.150000
vt 1.763100 -0.159100
vt 1.709600 -0.174600
vt 1.716900 -0.246300
vt 1.722800 -0.329600
vt 1.768200 -0.105500
vt 1.825300 -0.095900
vt 1.850300 -0.047300
vt 1.786200 -0.053400
vt 1.719500 -0.064700
vt 1.707400 -0.121700
vt 1.825100 0.012100
vt 1.893100 0.004200
vt 1.923800 0.039800
vt 1.886500 0.068100
vt 1.822900 0.098800
vt 1.754700 0.019200
vt 1.980200 -0.391200
vt 1.978700 -0.340400
vt 1.931900 -0.327900
vt 1.932100 -0.390500
vt 1.951600 -0.452800
vt 2.002300 -0.439000
vt 1.894300 -0.384600
vt 1.896000 -0.314100
vt 1.864600 -0.300000
vt 1.857900 -0.369500
vt 1.856200 -0.439700
vt 1.905100 -0.455400
vt 1.813900 -0.341400
vt 1.831100 -0.286200
vt 1.798000 -0.398600
vt 2.243000 -0.139100
vt 2.285800 -0.131200
vt 2.239800 0.008400
vt 2.206700 -0.030200
vt 2.166800 -0.069600
vt 2.198100 -0.154000
vt 2.144800 0.043500
vt 2.161100 0.100800
vt 2.056700 0.145800
vt 2.064300 0.083600
vt 2.055700 0.025700
vt 2.117400 -0.010600
vt 1.972200 0.091900
vt 1.933800 0.143100
vt 1.987500 0.042000
vt 2.247400 -0.482300
vt 2.207500 -0.607500
vt 2.249400 -0.628500
vt 2.289200 -0.472800
vt 2.203800 -0.489000
vt 2.162800 -0.587400
vt 2.123400 -0.701400
vt 2.067800 -0.662900
vt 1.948800 -0.697700
vt 2.012300 -0.752300
vt 2.086300 -0.805100
vt 2.182200 -0.739100
vt 1.891300 -0.748300
vt 1.835900 -0.674300
vt 1.726100 -0.621600
vt 1.765400 -0.716800
vt 1.818000 -0.827100
vt 1.959700 -0.827100
vt 2.156600 -0.490200
vt 2.105200 -0.484000
vt 2.057300 -0.544800
vt 2.112400 -0.569300
vt 2.018600 -0.622600
vt 1.974500 -0.576400
vt 1.879500 -0.577200
vt 1.906300 -0.639600
vt 1.806700 -0.609900
vt 1.795000 -0.545300
vt 1.715800 -0.497100
vt 1.713600 -0.556800
vt 2.048900 -0.468400
vt 1.998500 -0.505100
vt 1.934300 -0.520100
vt 1.863100 -0.509800
vt 1.791900 -0.470700
vt 1.720600 -0.417300
vt 1.956600 -0.005100
vt 1.909200 -0.051600
vt 1.962800 -0.069000
vt 2.015000 -0.023400
vt 2.068000 -0.058000
vt 2.011200 -0.102300
vt 2.056600 -0.151300
vt 2.113400 -0.110600
vt 2.149200 -0.182700
vt 2.101000 -0.216000
vt 1.875100 -0.099500
vt 1.852900 -0.153900
vt 1.889000 -0.169400
vt 1.919900 -0.116400
vt 1.961900 -0.146700
vt 1.924700 -0.195000
vt 1.966700 -0.229600
vt 2.006100 -0.189600
vt 2.058100 -0.244300
vt 2.021900 -0.271700
vt 1.841200 -0.219900
vt 1.872800 -0.231900
vt 1.904500 -0.250900
vt 1.942700 -0.275000
vt 1.994000 -0.302200
vt -0.424400 -1.020600
vt -0.362300 -1.025500
vt -0.381800 -0.972100
vt -0.433700 -0.981100
vt -0.476800 -0.986100
vt -0.485300 -1.008600
vt -0.501700 -1.036400
vt -0.438400 -1.057800
vt -0.371400 -1.075200
vt -0.307200 -1.018000
vt -0.255700 -1.004400
vt -0.290100 -0.942600
vt -0.336500 -0.958100
vt -0.307100 -1.077800
vt -0.244700 -1.071000
vt -0.204800 -0.990900
vt -0.155200 -0.977400
vt -0.186300 -0.931000
vt -0.235300 -0.928800
vt -0.183600 -1.059800
vt -0.124600 -1.050500
vt -0.459800 -1.090300
vt -0.394600 -1.118300
vt -0.520000 -1.063700
vt -0.536900 -1.094400
vt -0.484500 -1.124000
vt -0.427900 -1.160600
vt -0.327500 -1.136300
vt -0.257900 -1.141400
vt -0.366400 -1.193000
vt -0.296800 -1.211000
vt -0.185600 -1.130600
vt -0.116000 -1.119100
vt -0.216200 -1.204300
vt -0.138100 -1.193700
vt -0.508700 -1.164800
vt -0.466900 -1.207800
vt -0.548900 -1.132900
vt -0.556900 -1.169600
vt -0.537300 -1.203100
vt -0.511800 -1.251200
vt -0.421800 -1.247700
vt -0.363100 -1.275300
vt -0.485800 -1.294900
vt -0.438100 -1.329400
vt -0.280400 -1.281700
vt -0.199100 -1.284700
vt -0.347600 -1.349800
vt -0.264400 -1.343300
vt -0.662100 -0.694900
vt -0.598700 -0.765500
vt -0.429500 -0.796100
vt -0.542900 -0.693400
vt -0.640600 -0.558000
vt -0.754500 -0.619800
vt -0.851500 -0.677000
vt -0.769900 -0.724000
vt -0.708500 -0.778800
vt -0.593400 -0.827000
vt -0.607100 -0.881600
vt -0.526800 -0.881600
vt -0.494400 -0.852500
vt -0.687400 -0.849200
vt -0.676200 -0.918200
vt -0.600900 -0.931700
vt -0.576900 -0.971400
vt -0.548000 -0.952200
vt -0.546400 -0.919700
vt -0.644600 -0.968600
vt -0.601200 -1.002400
vt -0.855000 -0.808000
vt -0.801900 -0.883700
vt -0.914900 -0.725200
vt -0.949800 -0.807500
vt -0.892500 -0.937300
vt -0.837200 -1.038000
vt -0.762800 -0.945400
vt -0.724900 -0.991600
vt -0.785600 -1.080100
vt -0.735500 -1.088400
vt -0.675900 -1.021000
vt -0.622800 -1.038700
vt -0.684400 -1.087200
vt -0.634000 -1.083200
vt -0.857900 -1.102500
vt -0.772200 -1.199000
vt -0.961500 -0.967400
vt -0.961500 -1.166100
vt -0.787200 -1.285700
vt -0.606500 -1.381400
vt -0.722000 -1.218100
vt -0.690200 -1.195100
vt -0.625600 -1.315800
vt -0.621700 -1.272800
vt -0.659600 -1.165200
vt -0.617800 -1.223200
vt -0.610500 -1.181100
vt -0.627000 -1.138800
vt -0.387200 -1.395400
vt -0.503200 -1.368200
vt -0.413100 -1.429800
vt -0.235900 -1.416600
vt -0.251400 -1.382800
vt -0.550300 -1.329500
vt -0.562800 -1.282200
vt -0.575300 -1.229200
vt -0.585000 -1.175600
vt -0.261200 -0.878300
vt -0.347500 -0.886500
vt -0.172100 -0.896900
vt -0.148700 -0.865500
vt -0.284700 -0.833700
vt -0.403900 -0.899600
vt -0.444200 -0.917900
vt -0.482500 -0.941800
vt -0.514900 -0.968300
vt -0.144900 -1.302500
vt -0.076300 -1.200200
vt -0.104100 -1.327600
vt -0.022800 -1.215200
vt -0.054500 -1.121800
vt -0.068600 -1.049200
vt 0.003000 -1.131700
vt -0.014200 -1.051900
vt -0.107900 -0.964000
vt -0.061700 -0.950700
vt -0.537200 -0.994600
vt -0.554800 -1.021400
vt -0.572600 -1.049700
vt -0.585800 -1.083300
vt -0.589200 -1.126100
vt 1.485000 -0.369700
vt 1.486600 -0.430500
vt 1.536800 -0.406000
vt 1.522400 -0.357800
vt 1.511300 -0.317300
vt 1.487400 -0.309900
vt 1.456000 -0.297100
vt 1.445600 -0.365900
vt 1.435900 -0.437000
vt 1.494400 -0.487300
vt 1.507200 -0.543000
vt 1.570200 -0.501400
vt 1.552700 -0.451200
vt 1.435300 -0.503800
vt 1.442800 -0.567900
vt 1.523600 -0.600500
vt 1.549600 -0.655000
vt 1.594700 -0.618600
vt 1.588800 -0.564600
vt 1.457100 -0.630600
vt 1.482700 -0.691100
vt 1.409800 -0.358200
vt 1.392300 -0.432000
vt 1.424700 -0.287700
vt 1.391900 -0.281200
vt 1.375300 -0.347800
vt 1.352800 -0.419000
vt 1.383800 -0.504700
vt 1.385800 -0.575600
vt 1.338000 -0.492700
vt 1.334800 -0.567200
vt 1.399900 -0.644000
vt 1.425500 -0.709800
vt 1.347300 -0.640700
vt 1.369400 -0.710800
vt 1.339500 -0.336200
vt 1.314600 -0.401100
vt 1.356000 -0.277300
vt 1.324000 -0.278800
vt 1.303800 -0.316300
vt 1.275700 -0.373100
vt 1.296300 -0.470600
vt 1.288400 -0.544000
vt 1.253700 -0.435400
vt 1.242000 -0.508400
vt 1.294700 -0.620500
vt 1.305700 -0.693700
vt 1.244700 -0.597300
vt 1.260700 -0.666600
vt 1.610400 -0.021000
vt 1.621700 -0.127700
vt 1.681600 -0.328900
vt 1.690100 -0.127700
vt 1.707000 0.085400
vt 1.585200 0.117800
vt 1.473000 0.144500
vt 1.511600 0.059500
vt 1.534900 -0.012800
vt 1.605400 -0.170300
vt 1.573000 -0.181100
vt 1.595900 -0.282000
vt 1.625100 -0.300100
vt 1.527800 -0.059500
vt 1.505100 -0.096000
vt 1.536200 -0.192600
vt 1.505600 -0.214300
vt 1.530800 -0.251100
vt 1.560900 -0.260100
vt 1.481800 -0.137500
vt 1.464300 -0.184400
vt 1.374600 0.087600
vt 1.372500 0.023100
vt 1.380200 0.159900
vt 1.284300 0.155300
vt 1.239500 0.059200
vt 1.215400 -0.020200
vt 1.377300 -0.025800
vt 1.387600 -0.069100
vt 1.232600 -0.066200
vt 1.274100 -0.096700
vt 1.401800 -0.116900
vt 1.415700 -0.169000
vt 1.323100 -0.129900
vt 1.365800 -0.170000
vt 1.146500 -0.030000
vt 1.144800 -0.142900
vt 1.162800 0.122100
vt 1.028500 0.074600
vt 1.074500 -0.149500
vt 1.118100 -0.368500
vt 1.172300 -0.177600
vt 1.218500 -0.174900
vt 1.171600 -0.302700
vt 1.209100 -0.265300
vt 1.272600 -0.175800
vt 1.253600 -0.233300
vt 1.293500 -0.220700
vt 1.320800 -0.189700
vt 1.199700 -0.584700
vt 1.191100 -0.462800
vt 1.157200 -0.577300
vt 1.215100 -0.738600
vt 1.237700 -0.699400
vt 1.205400 -0.384000
vt 1.234300 -0.329600
vt 1.269600 -0.281000
vt 1.308700 -0.244400
vt 1.642400 -0.534200
vt 1.623000 -0.443300
vt 1.638800 -0.631400
vt 1.686100 -0.649000
vt 1.690100 -0.506500
vt 1.601900 -0.391300
vt 1.578500 -0.356700
vt 1.552000 -0.318200
vt 1.522900 -0.282300
vt 1.311700 -0.757000
vt 1.395300 -0.775300
vt 1.315100 -0.815300
vt 1.423100 -0.837000
vt 1.462300 -0.772500
vt 1.523800 -0.748200
vt 1.504700 -0.833700
vt 1.572800 -0.803500
vt 1.591000 -0.701900
vt 1.640100 -0.745000
vt 1.491800 -0.255700
vt 1.459000 -0.237100
vt 1.425000 -0.225200
vt 1.388700 -0.221200
vt 1.349200 -0.226000
f 1/1/1 2/2/2 3/3/3
f 1/1/1 3/3/3 4/4/4
f 1/1/1 4/4/4 5/5/5
f 1/1/1 5/5/5 6/6/6
f 1/1/1 6/6/6 7/7/7
f 1/1/1 7/7/7 8/8/8
f 1/1/1 8/8/8 9/9/9
f 1/1/1 9/9/9 2/2/2
f 10/10/10 2/2/2 9/9/9
f 10/10/10 9/9/9 11/11/11
f 10/10/10 11/11/11 12/12/12
f 10/10/10 12/12/12 13/13/13
f 10/10/10 13/13/13 14/14/14
f 10/10/10 14/14/14 15/15/15
f 10/10/10 15/15/15 3/3/3
f 10/10/10 3/3/3 2/2/2
f 16/16/16 13/13/13 12/12/12
f 16/16/16 12/12/12 17/17/17
f 16/16/16 17/17/17 18/18/18
f 16/16/16 18/18/18 19/19/19
f 16/16/16 19/19/19 20/20/20
f 16/16/16 20/20/20 21/21/21
f 16/16/16 21/21/21 14/14/14
f 16/16/16 14/14/14 13/13/13
f 22/22/22 23/23/23 24/24/24
f 22/22/22 24/24/24 25/25/25
f 22/22/22 25/25/25 26/26/26
f 22/22/22 26/26/26 27/27/27
f 22/22/22 27/27/27 28/28/28
f 22/22/22 28/28/28 29/29/29
f 22/22/22 29/29/29 30/30/30
f 22/22/22 30/30/30 23/23/23
f 31/31/31 27/27/27 26/26/26
f 31/31/31 26/26/26 32/32/32
f 31/31/31 32/32/32 33/33/33
f 31/31/31 33/33/33 34/34/34
f 31/31/31 34/34/34 35/35/35
f 31/31/31 35/35/35 36/36/36
f 31/31/31 36/36/36 28/28/28
f 31/31/31 28/28/28 27/27/27
f 37/37/37 34/34/34 33/33/33
f 37/37/37 33/33/33 38/38/38
f 37/37/37 38/38/38 39/39/39
f 37/37/37 39/39/39 40/40/40
f 37/37/37 40/40/40 41/41/41
f 37/37/37 41/41/41 42/42/42
f 37/37/37 42/42/42 35/35/35
f 37/37/37 35/35/35 34/34/34
f 43/43/43 19/19/19 18/18/18
f 43/43/43 18/18/18 44/44/44
f 43/43/43 44/44/44 45/45/45
f 43/43/43 45/45/45 46/46/46
f 43/43/43 46/46/46 47/47/47
f 43/43/43 47/47/47 48/48/48
f 43/43/43 48/48/48 20/20/20
f 43/43/43 20/20/20 19/19/19
f 49/49/49 46/46/46 45/45/45
f 49/49/49 45/45/45 50/50/50
f 49/49/49 50/50/50 51/51/51
f 49/49/49 51/51/51 52/52/52
f 49/49/49 52/52/52 53/53/53
f 49/49/49 53/53/53 54/54/54
f 49/49/49 54/54/54 47/47/47
f 49/49/49 47/47/47 46/46/46
f 55/55/55 52/52/52 51/51/51
f 55/55/55 51/51/51 56/56/56
f 55/55/55 56/56/56 24/24/24
f 55/55/55 24/24/24 23/23/23
f 55/55/55 23/23/23 30/30/30
f 55/55/55 30/30/30 57/57/57
f 55/55/55 57/57/57 53/53/53
f 55/55/55 53/53/53 52/52/52
f 58/58/58 6/6/6 5/5/5
f 58/58/58 5/5/5 59/59/59
f 58/58/58 59/59/59 60/60/60
f 58/58/58 60/60/60 61/61/61
f 58/58/58 61/61/61 62/62/62
f 58/58/58 62/62/62 63/63/63
f 58/58/58 63/63/63 7/7/7
f 58/58/58 7/7/7 6/6/6
f 64/64/64 61/61/61 60/60/60
f 64/64/64 60/60/60 65/65/65
f 64/64/64 65/65/65 66/66/66
f 64/64/64 66/66/66 67/67/67
f 64/64/64 67/67/67 68/68/68
f 64/64/64 68/68/68 69/69/69
f 64/64/64 69/69/69 62/62/62
f 64/64/64 62/62/62 61/61/61
f 70/70/70 67/67/67 66/66/66
f 70/70/70 66/66/66 71/71/71
f 70/70/70 71/71/71 41/41/41
f 70/70/70 41/41/41 40/40/40
f 70/70/70 40/40/40 39/39/39
f 70/70/70 39/39/39 72/72/72
f 70/70/70 72/72/72 68/68/68
f 70/70/70 68/68/68 67/67/67
f 73/73/73 74/74/74 75/75/75
f 73/73/73 75/75/75 76/76/76
f 73/73/73 76/76/76 5/5/5
f 73/73/73 5/5/5 4/4/4
f 73/73/73 4/4/4 3/3/3
f 73/73/73 3/3/3 77/77/77
f 73/73/73 77/77/77 78/78/78
f 73/73/73 78/78/78 74/74/74
f 79/79/79 74/74/74 78/78/78
f 79/79/79 78/78/78 80/80/80
f 79/79/79 80/80/80 81/81/81
f 79/79/79 81/81/81 82/82/82
f 79/79/79 82/82/82 83/83/83
f 79/79/79 83/83/83 84/84/84
f 79/79/79 84/84/84 75/75/75
f 79/79/79 75/75/75 74/74/74
f 85/85/85 82/82/82 81/81/81
f 85/85/85 81/81/81 86/86/86
f 85/85/85 86/86/86 87/87/87
f 85/85/85 87/87/87 88/88/88
f 85/85/85 88/88/88 89/89/89
f 85/85/85 89/89/89 90/90/90
f 85/85/85 90/90/90 83/83/83
f 85/85/85 83/83/83 82/82/82
f 91/91/91 15/15/15 14/14/14
f 91/91/91 14/14/14 92/92/92
f 91/91/91 92/92/92 93/93/93
f 91/91/91 93/93/93 94/94/94
f 91/91/91 94/94/94 78/78/78
f 91/91/91 78/78/78 77/77/77
f 91/91/91 77/77/77 3/3/3
f 91/91/91 3/3/3 15/15/15
f 95/95/95 94/94/94 93/93/93
f 95/95/95 93/93/93 96/96/96
f 95/95/95 96/96/96 97/97/97
f 95/95/95 97/97/97 98/98/98
f 95/95/95 98/98/98 81/81/81
f 95/95/95 81/81/81 80/80/80
f 95/95/95 80/80/80 78/78/78
f 95/95/95 78/78/78 94/94/94
f 99/99/99 98/98/98 97/97/97
f 99/99/99 97/97/97 100/100/100
f 99/99/99 100/100/100 101/101/101
f 99/99/99 101/101/101 102/102/102
f 99/99/99 102/102/102 87/87/87
f 99/99/99 87/87/87 86/86/86
f 99/99/99 86/86/86 81/81/81
f 99/99/99 81/81/81 98/98/98
f 103/103/103 21/21/21 20/20/20
f 103/103/103 20/20/20 48/48/48
f 103/103/103 48/48/48 47/47/47
f 103/103/103 47/47/47 104/104/104
f 103/103/103 104/104/104 93/93/93
f 103/103/103 93/93/93 92/92/92
f 103/103/103 92/92/92 14/14/14
f 103/103/103 14/14/14 21/21/21
f 105/105/105 104/104/104 47/47/47
f 105/105/105 47/47/47 54/54/54
f 105/105/105 54/54/54 53/53/53
f 105/105/105 53/53/53 106/106/106
f 105/105/105 106/106/106 97/97/97
f 105/105/105 97/97/97 96/96/96
f 105/105/105 96/96/96 93/93/93
f 105/105/105 93/93/93 104/104/104
f 107/107/107 106/106/106 53/53/53
f 107/107/107 53/53/53 57/57/57
f 107/107/107 57/57/57 30/30/30
f 107/107/107 30/30/30 108/108/108
f 107/107/107 108/108/108 101/101/101
f 107/107/107 101/101/101 100/100/100
f 107/107/107 100/100/100 97/97/97
f 107/107/107 97/97/97 106/106/106
f 109/109/109 38/38/38 33/33/33
f 109/109/109 33/33/33 110/110/110
f 109/109/109 110/110/110 111/111/111
f 109/109/109 111/111/111 112/112/112
f 109/109/109 112/112/112 68/68/68
f 109/109/109 68/68/68 72/72/72
f 109/109/109 72/72/72 39/39/39
f 109/109/109 39/39/39 38/38/38
f 113/113/113 112/112/112 111/111/111
f 113/113/113 111/111/111 114/114/114
f 113/113/113 114/114/114 115/115/115
f 113/113/113 115/115/115 116/116/116
f 113/113/113 116/116/116 62/62/62
f 113/113/113 62/62/62 69/69/69
f 113/113/113 69/69/69 68/68/68
f 113/113/113 68/68/68 112/112/112
f 117/117/117 116/116/116 115/115/115
f 117/117/117 115/115/115 118/118/118
f 117/117/117 118/118/118 9/9/9
f 117/117/117 9/9/9 8/8/8
f 117/117/117 8/8/8 7/7/7
f 117/117/117 7/7/7 63/63/63
f 117/117/117 63/63/63 62/62/62
f 117/117/117 62/62/62 116/116/116
f 119/119/119 32/32/32 26/26/26
f 119/119/119 26/26/26 120/120/120
f 119/119/119 120/120/120 121/121/121
f 119/119/119 121/121/121 122/122/122
f 119/119/119 122/122/122 111/111/111
f 119/119/119 111/111/111 110/110/110
f 119/119/119 110/110/110 33/33/33
f 119/119/119 33/33/33 32/32/32
f 123/123/123 122/122/122 121/121/121
f 123/123/123 121/121/121 124/124/124
f 123/123/123 124/124/124 125/125/125
f 123/123/123 125/125/125 126/126/126
f 123/123/123 126/126/126 115/115/115
f 123/123/123 115/115/115 114/114/114
f 123/123/123 114/114/114 111/111/111
f 123/123/123 111/111/111 122/122/122
f 127/127/127 126/126/126 125/125/125
f 127/127/127 125/125/125 128/128/128
f 127/127/127 128/128/128 12/12/12
f 127/127/127 12/12/12 11/11/11
f 127/127/127 11/11/11 9/9/9
f 127/127/127 9/9/9 118/118/118
f 127/127/127 118/118/118 115/115/115
f 127/127/127 115/115/115 126/126/126
f 129/129/129 25/25/25 24/24/24
f 129/129/129 24/24/24 56/56/56
f 129/129/129 56/56/56 51/51/51
f 129/129/129 51/51/51 130/130/130
f 129/129/129 130/130/130 121/121/121
f 129/129/129 121/121/121 120/120/120
f 129/129/129 120/120/120 26/26/26
f 129/129/129 26/26/26 25/25/25
f 131/131/131 130/130/130 51/51/51
f 131/131/131 51/51/51 50/50/50
f 131/131/131 50/50/50 45/45/45
f 131/131/131 45/45/45 132/132/132
f 131/131/131 132/132/132 125/125/125
f 131/131/131 125/125/125 124/124/124
f 131/131/131 124/124/124 121/121/121
f 131/131/131 121/121/121 130/130/130
f 133/133/133 132/132/132 45/45/45
f 133/133/133 45/45/45 44/44/44
f 133/133/133 44/44/44 18/18/18
f 133/133/133 18/18/18 17/17/17
f 133/133/133 17/17/17 12/12/12
f 133/133/133 12/12/12 128/128/128
f 133/133/133 128/128/128 125/125/125
f 133/133/133 125/125/125 132/132/132
f 134/134/134 135/135/135 136/136/136
f 134/134/134 136/136/136 137/137/137
f 134/134/134 137/137/137 138/138/138
f 134/134/134 138/138/138 139/139/139
f 134/134/134 139/139/139 140/140/140
f 134/134/134 140/140/140 141/141/141
f 134/134/134 141/141/141 142/142/142
f 134/134/134 142/142/142 135/135/135
f 143/143/143 144/144/144 145/145/145
f 143/143/143 145/145/145 146/146/146
f 143/143/143 146/146/146 136/136/136
f 143/143/143 136/136/136 135/135/135
f 143/143/143 135/135/135 142/142/142
f 143/143/143 142/142/142 147/147/147
f 143/143/143 147/147/147 148/148/148
f 143/143/143 148/148/148 144/144/144
f 149/149/149 150/150/150 151/151/151
f 149/149/149 151/151/151 152/152/152
f 149/149/149 152/152/152 145/145/145
f 149/149/149 145/145/145 144/144/144
f 149/149/149 144/144/144 148/148/148
f 149/149/149 148/148/148 153/153/153
f 149/149/149 153/153/153 154/154/154
f 149/149/149 154/154/154 150/150/150
f 155/155/155 156/156/156 142/142/142
f 155/155/155 142/142/142 141/141/141
f 155/155/155 141/141/141 140/140/140
f 155/155/155 140/140/140 157/157/157
f 155/155/155 157/157/157 158/158/158
f 155/155/155 158/158/158 159/159/159
f 155/155/155 159/159/159 160/160/160
f 155/155/155 160/160/160 156/156/156
f 161/161/161 162/162/162 148/148/148
f 161/161/161 148/148/148 147/147/147
f 161/161/161 147/147/147 142/142/142
f 161/161/161 142/142/142 156/156/156
f 161/161/161 156/156/156 160/160/160
f 161/161/161 160/160/160 163/163/163
f 161/161/161 163/163/163 164/164/164
f 161/161/161 164/164/164 162/162/162
f 165/165/165 166/166/166 154/154/154
f 165/165/165 154/154/154 153/153/153
f 165/165/165 153/153/153 148/148/148
f 165/165/165 148/148/148 162/162/162
f 165/165/165 162/162/162 164/164/164
f 165/165/165 164/164/164 167/167/167
f 165/165/165 167/167/167 168/168/168
f 165/165/165 168/168/168 166/166/166
f 169/169/169 170/170/170 160/160/160
f 169/169/169 160/160/160 159/159/159
f 169/169/169 159/159/159 158/158/158
f 169/169/169 158/158/158 171/171/171
f 169/169/169 171/171/171 172/172/172
f 169/169/169 172/172/172 173/173/173
f 169/169/169 173/173/173 174/174/174
f 169/169/169 174/174/174 170/170/170
f 175/175/175 176/176/176 164/164/164
f 175/175/175 164/164/164 163/163/163
f 175/175/175 163/163/163 160/160/160
f 175/175/175 160/160/160 170/170/170
f 175/175/175 170/170/170 174/174/174
f 175/175/175 174/174/174 177/177/177
f 175/175/175 177/177/177 178/178/178
f 175/175/175 178/178/178 176/176/176
f 179/179/179 180/180/180 168/168/168
f 179/179/179 168/168/168 167/167/167
f 179/179/179 167/167/167 164/164/164
f 179/179/179 164/164/164 176/176/176
f 179/179/179 176/176/176 178/178/178
f 179/179/179 178/178/178 181/181/181
f 179/179/179 181/181/181 182/182/182
f 179/179/179 182/182/182 180/180/180
f 183/183/183 184/184/184 185/185/185
f 183/183/183 185/185/185 186/186/186
f 183/183/183 186/186/186 187/187/187
f 183/183/183 187/187/187 188/188/188
f 183/183/183 188/188/188 189/189/189
f 183/183/183 189/189/189 190/190/190
f 183/183/183 190/190/190 191/191/191
f 183/183/183 191/191/191 184/184/184
f 192/192/192 193/193/193 194/194/194
f 192/192/192 194/194/194 195/195/195
f 192/192/192 195/195/195 185/185/185
f 192/192/192 185/185/185 184/184/184
f 192/192/192 184/184/184 191/191/191
f 192/192/192 191/191/191 196/196/196
f 192/192/192 196/196/196 197/197/197
f 192/192/192 197/197/197 193/193/193
f 198/198/198 199/199/199 200/200/200
f 198/198/198 200/200/200 201/201/201
f 198/198/198 201/201/201 194/194/194
f 198/198/198 194/194/194 193/193/193
f 198/198/198 193/193/193 197/197/197
f 198/198/198 197/197/197 202/202/202
f 198/198/198 202/202/202 203/203/203
f 198/198/198 203/203/203 199/199/199
f 204/204/204 205/205/205 191/191/191
f 204/204/204 191/191/191 190/190/190
f 204/204/204 190/190/190 189/189/189
f 204/204/204 189/189/189 206/206/206
f 204/204/204 206/206/206 207/207/207
f 204/204/204 207/207/207 208/208/208
f 204/204/204 208/208/208 209/209/209
f 204/204/204 209/209/209 205/205/205
f 210/210/210 211/211/211 197/197/197
f 210/210/210 197/197/197 196/196/196
f 210/210/210 196/196/196 191/191/191
f 210/210/210 191/191/191 205/205/205
f 210/210/210 205/205/205 209/209/209
f 210/210/210 209/209/209 212/212/212
f 210/210/210 212/212/212 213/213/213
f 210/210/210 213/213/213 211/211/211
f 214/214/214 215/215/215 203/203/203
f 214/214/214 203/203/203 202/202/202
f 214/214/214 202/202/202 197/197/197
f 214/214/214 197/197/197 211/211/211
f 214/214/214 211/211/211 213/213/213
f 214/214/214 213/213/213 216/216/216
f 214/214/214 216/216/216 217/217/217
f 214/214/214 217/217/217 215/215/215
f 218/218/218 219/219/219 209/209/209
f 218/218/218 209/209/209 208/208/208
f 218/218/218 208/208/208 207/207/207
f 218/218/218 207/207/207 220/220/220
f 218/218/218 220/220/220 221/221/221
f 218/218/218 221/221/221 222/222/222
f 218/218/218 222/222/222 223/223/223
f 218/218/218 223/223/223 219/219/219
f 224/224/224 225/225/225 213/213/213
f 224/224/224 213/213/213 212/212/212
f 224/224/224 212/212/212 209/209/209
f 224/224/224 209/209/209 219/219/219
f 224/224/224 219/219/219 223/223/223
f 224/224/224 223/223/223 226/226/226
f 224/224/224 226/226/226 227/227/227
f 224/224/224 227/227/227 225/225/225
f 228/228/228 225/225/225 227/227/227
f 228/228/228 227/227/227 229/229/229
f 228/228/228 229/229/229 230/230/230
f 228/228/228 230/230/230 231/231/231
f 228/228/228 231/231/231 217/217/217
f 228/228/228 217/217/217 216/216/216
f 228/228/228 216/216/216 213/213/213
f 228/228/228 213/213/213 225/225/225
f 232/232/232 233/233/233 223/223/223
f 232/232/232 223/223/223 234/234/234
f 232/232/232 234/234/234 235/235/235
f 232/232/232 235/235/235 236/236/236
f 232/232/232 236/236/236 182/182/182
f 232/232/232 182/182/182 181/181/181
f 232/232/232 181/181/181 178/178/178
f 232/232/232 178/178/178 233/233/233
f 237/237/237 238/238/238 227/227/227
f 237/237/237 227/227/227 226/226/226
f 237/237/237 226/226/226 223/223/223
f 237/237/237 223/223/223 233/233/233
f 237/237/237 233/233/233 178/178/178
f 237/237/237 178/178/178 177/177/177
f 237/237/237 177/177/177 174/174/174
f 237/237/237 174/174/174 238/238/238
f 239/239/239 240/240/240 230/230/230
f 239/239/239 230/230/230 229/229/229
f 239/239/239 229/229/229 227/227/227
f 239/239/239 227/227/227 238/238/238
f 239/239/239 238/238/238 174/174/174
f 239/239/239 174/174/174 173/173/173
f 239/239/239 173/173/173 172/172/172
f 239/239/239 172/172/172 240/240/240
f 241/241/241 242/242/242 145/145/145
f 241/241/241 145/145/145 152/152/152
f 241/241/241 152/152/152 151/151/151
f 241/241/241 151/151/151 243/243/243
f 241/241/241 243/243/243 244/244/244
f 241/241/241 244/244/244 245/245/245
f 241/241/241 245/245/245 185/185/185
f 241/241/241 185/185/185 242/242/242
f 246/246/246 247/247/247 136/136/136
f 246/246/246 136/136/136 146/146/146
f 246/246/246 146/146/146 145/145/145
f 246/246/246 145/145/145 242/242/242
f 246/246/246 242/242/242 185/185/185
f 246/246/246 185/185/185 195/195/195
f 246/246/246 195/195/195 194/194/194
f 246/246/246 194/194/194 247/247/247
f 248/248/248 249/249/249 138/138/138
f 248/248/248 138/138/138 137/137/137
f 248/248/248 137/137/137 136/136/136
f 248/248/248 136/136/136 247/247/247
f 248/248/248 247/247/247 194/194/194
f 248/248/248 194/194/194 201/201/201
f 248/248/248 201/201/201 200/200/200
f 248/248/248 200/200/200 249/249/249
f 250/250/250 251/251/251 168/168/168
f 250/250/250 168/168/168 180/180/180
f 250/250/250 180/180/180 182/182/182
f 250/250/250 182/182/182 236/236/236
f 250/250/250 236/236/236 235/235/235
f 250/250/250 235/235/235 252/252/252
f 250/250/250 252/252/252 253/253/253
f 250/250/250 253/253/253 251/251/251
f 254/254/254 255/255/255 154/154/154
f 254/254/254 154/154/154 166/166/166
f 254/254/254 166/166/166 168/168/168
f 254/254/254 168/168/168 251/251/251
f 254/254/254 251/251/251 253/253/253
f 254/254/254 253/253/253 256/256/256
f 254/254/254 256/256/256 257/257/257
f 254/254/254 257/257/257 255/255/255
f 258/258/258 243/243/243 151/151/151
f 258/258/258 151/151/151 150/150/150
f 258/258/258 150/150/150 154/154/154
f 258/258/258 154/154/154 255/255/255
f 258/258/258 255/255/255 257/257/257
f 258/258/258 257/257/257 259/259/259
f 258/258/258 259/259/259 244/244/244
f 258/258/258 244/244/244 243/243/243
f 260/260/260 261/261/261 140/140/140
f 260/260/260 140/140/140 139/139/139
f 260/260/260 139/139/139 138/138/138
f 260/260/260 138/138/138 249/249/249
f 260/260/260 249/249/249 200/200/200
f 260/260/260 200/200/200 199/199/199
f 260/260/260 199/199/199 203/203/203
f 260/260/260 203/203/203 261/261/261
f 262/262/262 263/263/263 158/158/158
f 262/262/262 158/158/158 157/157/157
f 262/262/262 157/157/157 140/140/140
f 262/262/262 140/140/140 261/261/261
f 262/262/262 261/261/261 203/203/203
f 262/262/262 203/203/203 215/215/215
f 262/262/262 215/215/215 217/217/217
f 262/262/262 217/217/217 263/263/263
f 264/264/264 263/263/263 217/217/217
f 264/264/264 217/217/217 231/231/231
f 264/264/264 231/231/231 230/230/230
f 264/264/264 230/230/230 240/240/240
f 264/264/264 240/240/240 172/172/172
f 264/264/264 172/172/172 171/171/171
f 264/264/264 171/171/171 158/158/158
f 264/264/264 158/158/158 263/263/263
f 265/265/265 266/266/266 267/267/267
f 265/265/265 267/267/267 268/268/268
f 265/265/265 268/268/268 269/269/269
f 265/265/265 269/269/269 270/270/270
f 265/265/265 270/270/270 271/271/271
f 265/265/265 271/271/271 272/272/272
f 265/265/265 272/272/272 273/273/273
f 265/265/265 273/273/273 266/266/266
f 274/274/274 275/275/275 276/276/276
f 274/274/274 276/276/276 277/277/277
f 274/274/274 277/277/277 267/267/267
f 274/274/274 267/267/267 266/266/266
f 274/274/274 266/266/266 273/273/273
f 274/274/274 273/273/273 278/278/278
f 274/274/274 278/278/278 279/279/279
f 274/274/274 279/279/279 275/275/275
f 280/280/280 281/281/281 282/282/282
f 280/280/280 282/282/282 283/283/283
f 280/280/280 283/283/283 276/276/276
f 280/280/280 276/276/276 275/275/275
f 280/280/280 275/275/275 279/279/279
f 280/280/280 279/279/279 284/284/284
f 280/280/280 284/284/284 285/285/285
f 280/280/280 285/285/285 281/281/281
f 286/286/286 287/287/287 273/273/273
f 286/286/286 273/273/273 272/272/272
f 286/286/286 272/272/272 271/271/271
f 286/286/286 271/271/271 288/288/288
f 286/286/286 288/288/288 289/289/289
f 286/286/286 289/289/289 290/290/290
f 286/286/286 290/290/290 291/291/291
f 286/286/286 291/291/291 287/287/287
f 292/292/292 293/293/293 279/279/279
f 292/292/292 279/279/279 278/278/278
f 292/292/292 278/278/278 273/273/273
f 292/292/292 273/273/273 287/287/287
f 292/292/292 287/287/287 291/291/291
f 292/292/292 291/291/291 294/294/294
f 292/292/292 294/294/294 295/295/295
f 292/292/292 295/295/295 293/293/293
f 296/296/296 297/297/297 285/285/285
f 296/296/296 285/285/285 284/284/284
f 296/296/296 284/284/284 279/279/279
f 296/296/296 279/279/279 293/293/293
f 296/296/296 293/293/293 295/295/295
f 296/296/296 295/295/295 298/298/298
f 296/296/296 298/298/298 299/299/299
f 296/296/296 299/299/299 297/297/297
f 300/300/300 301/301/301 291/291/291
f 300/300/300 291/291/291 290/290/290
f 300/300/300 290/290/290 289/289/289
f 300/300/300 289/289/289 302/302/302
f 300/300/300 302/302/302 303/303/303
f 300/300/300 303/303/303 304/304/304
f 300/300/300 304/304/304 305/305/305
f 300/300/300 305/305/305 301/301/301
f 306/306/306 307/307/307 295/295/295
f 306/306/306 295/295/295 294/294/294
f 306/306/306 294/294/294 291/291/291
f 306/306/306 291/291/291 301/301/301
f 306/306/306 301/301/301 305/305/305
f 306/306/306 305/305/305 308/308/308
f 306/306/306 308/308/308 309/309/309
f 306/306/306 309/309/309 307/307/307
f 310/310/310 311/311/311 299/299/299
f 310/310/310 299/299/299 298/298/298
f 310/310/310 298/298/298 295/295/295
f 310/310/310 295/295/295 307/307/307
f 310/310/310 307/307/307 309/309/309
f 310/310/310 309/309/309 312/312/312
f 310/310/310 312/312/312 313/313/313
f 310/310/310 313/313/313 311/311/311
f 314/314/314 315/315/315 316/316/316
f 314/314/314 316/316/316 317/317/317
f 314/314/314 317/317/317 318/318/318
f 314/314/314 318/318/318 319/319/319
f 314/314/314 319/319/319 320/320/320
f 314/314/314 320/320/320 321/321/321
f 314/314/314 321/321/321 322/322/322
f 314/314/314 322/322/322 315/315/315
f 323/323/323 324/324/324 325/325/325
f 323/323/323 325/325/325 326/326/326
f 323/323/323 326/326/326 316/316/316
f 323/323/323 316/316/316 315/315/315
f 323/323/323 315/315/315 322/322/322
f 323/323/323 322/322/322 327/327/327
f 323/323/323 327/327/327 328/328/328
f 323/323/323 328/328/328 324/324/324
f 329/329/329 330/330/330 331/331/331
f 329/329/329 331/331/331 332/332/332
f 329/329/329 332/332/332 325/325/325
f 329/329/329 325/325/325 324/324/324
f 329/329/329 324/324/324 328/328/328
f 329/329/329 328/328/328 333/333/333
f 329/329/329 333/333/333 334/334/334
f 329/329/329 334/334/334 330/330/330
f 335/335/335 336/336/336 322/322/322
f 335/335/335 322/322/322 321/321/321
f 335/335/335 321/321/321 320/320/320
f 335/335/335 320/320/320 337/337/337
f 335/335/335 337/337/337 338/338/338
f 335/335/335 338/338/338 339/339/339
f 335/335/335 339/339/339 340/340/340
f 335/335/335 340/340/340 336/336/336
f 341/341/341 342/342/342 328/328/328
f 341/341/341 328/328/328 327/327/327
f 341/341/341 327/327/327 322/322/322
f 341/341/341 322/322/322 336/336/336
f 341/341/341 336/336/336 340/340/340
f 341/341/341 340/340/340 343/343/343
f 341/341/341 343/343/343 344/344/344
f 341/341/341 344/344/344 342/342/342
f 345/345/345 346/346/346 334/334/334
f 345/345/345 334/334/334 333/333/333
f 345/345/345 333/333/333 328/328/328
f 345/345/345 328/328/328 342/342/342
f 345/345/345 342/342/342 344/344/344
f 345/345/345 344/344/344 347/347/347
f 345/345/345 347/347/347 348/348/348
f 345/345/345 348/348/348 346/346/346
f 349/349/349 350/350/350 340/340/340
f 349/349/349 340/340/340 339/339/339
f 349/349/349 339/339/339 338/338/338
f 349/349/349 338/338/338 351/351/351
f 349/349/349 351/351/351 352/352/352
f 349/349/349 352/352/352 353/353/353
f 349/349/349 353/353/353 354/354/354
f 349/349/349 354/354/354 350/350/350
f 355/355/355 356/356/356 344/344/344
f 355/355/355 344/344/344 343/343/343
f 355/355/355 343/343/343 340/340/340
f 355/355/355 340/340/340 350/350/350
f 355/355/355 350/350/350 354/354/354
f 355/355/355 354/354/354 357/357/357
f 355/355/355 357/357/357 358/358/358
f 355/355/355 358/358/358 356/356/356
f 359/359/359 356/356/356 358/358/358
f 359/359/359 358/358/358 360/360/360
f 359/359/359 360/360/360 361/361/361
f 359/359/359 361/361/361 362/362/362
f 359/359/359 362/362/362 348/348/348
f 359/359/359 348/348/348 347/347/347
f 359/359/359 347/347/347 344/344/344
f 359/359/359 344/344/344 356/356/356
f 363/363/363 364/364/364 354/354/354
f 363/363/363 354/354/354 365/365/365
f 363/363/363 365/365/365 366/366/366
f 363/363/363 366/366/366 367/367/367
f 363/363/363 367/367/367 313/313/313
f 363/363/363 313/313/313 312/312/312
f 363/363/363 312/312/312 309/309/309
f 363/363/363 309/309/309 364/364/364
f 368/368/368 369/369/369 358/358/358
f 368/368/368 358/358/358 357/357/357
f 368/368/368 357/357/357 354/354/354
f 368/368/368 354/354/354 364/364/364
f 368/368/368 364/364/364 309/309/309
f 368/368/368 309/309/309 308/308/308
f 368/368/368 308/308/308 305/305/305
f 368/368/368 305/305/305 369/369/369
f 370/370/370 371/371/371 361/361/361
f 370/370/370 361/361/361 360/360/360
f 370/370/370 360/360/360 358/358/358
f 370/370/370 358/358/358 369/369/369
f 370/370/370 369/369/369 305/305/305
f 370/370/370 305/305/305 304/304/304
f 370/370/370 304/304/304 303/303/303
f 370/370/370 303/303/303 371/371/371
f 372/372/372 373/373/373 276/276/276
f 372/372/372 276/276/276 283/283/283
f 372/372/372 283/283/283 282/282/282
f 372/372/372 282/282/282 374/374/374
f 372/372/372 374/374/374 375/375/375
f 372/372/372 375/375/375 376/376/376
f 372/372/372 376/376/376 316/316/316
f 372/372/372 316/316/316 373/373/373
f 377/377/377 378/378/378 267/267/267
f 377/377/377 267/267/267 277/277/277
f 377/377/377 277/277/277 276/276/276
f 377/377/377 276/276/276 373/373/373
f 377/377/377 373/373/373 316/316/316
f 377/377/377 316/316/316 326/326/326
f 377/377/377 326/326/326 325/325/325
f 377/377/377 325/325/325 378/378/378
f 379/379/379 380/380/380 269/269/269
f 379/379/379 269/269/269 268/268/268
f 379/379/379 268/268/268 267/267/267
f 379/379/379 267/267/267 378/378/378
f 379/379/379 378/378/378 325/325/325
f 379/379/379 325/325/325 332/332/332
f 379/379/379 332/332/332 331/331/331
f 379/379/379 331/331/331 380/380/380
f 381/381/381 382/382/382 299/299/299
f 381/381/381 299/299/299 311/311/311
f 381/381/381 311/311/311 313/313/313
f 381/381/381 313/313/313 367/367/367
f 381/381/381 367/367/367 366/366/366
f 381/381/381 366/366/366 383/383/383
f 381/381/381 383/383/383 384/384/384
f 381/381/381 384/384/384 382/382/382
f 385/385/385 386/386/386 285/285/285
f 385/385/385 285/285/285 297/297/297
f 385/385/385 297/297/297 299/299/299
f 385/385/385 299/299/299 382/382/382
f 385/385/385 382/382/382 384/384/384
f 385/385/385 384/384/384 387/387/387
f 385/385/385 387/387/387 388/388/388
f 385/385/385 388/388/388 386/386/386
f 389/389/389 374/374/374 282/282/282
f 389/389/389 282/282/282 281/281/281
f 389/389/389 281/281/281 285/285/285
f 389/389/389 285/285/285 386/386/386
f 389/389/389 386/386/386 388/388/388
f 389/389/389 388/388/388 390/390/390
f 389/389/389 390/390/390 375/375/375
f 389/389/389 375/375/375 374/374/374
f 391/391/391 392/392/392 271/271/271
f 391/391/391 271/271/271 270/270/270
f 391/391/391 270/270/270 269/269/269
f 391/391/391 269/269/269 380/380/380
f 391/391/391 380/380/380 331/331/331
f 391/391/391 331/331/331 330/330/330
f 391/391/391 330/330/330 334/334/334
f 391/391/391 334/334/334 392/392/392
f 393/393/393 394/394/394 289/289/289
f 393/393/393 289/289/289 288/288/288
f 393/393/393 288/288/288 271/271/271
f 393/393/393 271/271/271 392/392/392
f 393/393/393 392/392/392 334/334/334
f 393/393/393 334/334/334 346/346/346
f 393/393/393 346/346/346 348/348/348
f 393/393/393 348/348/348 394/394/394
f 395/395/395 394/394/394 348/348/348
f 395/395/395 348/348/348 362/362/362
f 395/395/395 362/362/362 361/361/361
f 395/395/395 361/361/361 371/371/371
f 395/395/395 371/371/371 303/303/303
f 395/395/395 303/303/303 302/302/302
f 395/395/395 302/302/302 289/289/289
f 395/395/395 289/289/289 394/394/394
