v -1.530398 0.440447 -0.740147
v -1.530928 0.439828 -0.739921
v -1.532116 0.440306 -0.739570
v -1.532144 0.441149 -0.739632
v -1.529463 0.438753 -0.739896
v -1.530292 0.438676 -0.739750
v -1.529887 0.437059 -0.739025
v -1.530580 0.437524 -0.739158
v -1.531421 0.436357 -0.738045
v -1.531624 0.437046 -0.738491
v -1.533167 0.437059 -0.737529
v -1.532812 0.437524 -0.738140
v -1.534102 0.438753 -0.737781
v -1.533448 0.438676 -0.738311
v -1.533679 0.440447 -0.738651
v -1.533160 0.439828 -0.738904
v -1.532022 0.439340 -0.739364
v -1.532473 0.439133 -0.739076
v -1.532597 0.438636 -0.738820
v -1.532323 0.438138 -0.738747
v -1.531810 0.437932 -0.738898
v -1.531359 0.438138 -0.739186
v -1.531235 0.438636 -0.739442
v -1.531509 0.439133 -0.739515
v -1.523896 0.379164 -0.718998
v -1.523445 0.379370 -0.719286
v -1.522782 0.378169 -0.719108
v -1.523233 0.377963 -0.718820
v -1.523746 0.378169 -0.718668
v -1.524020 0.378666 -0.718742
v -1.522932 0.379164 -0.719437
v -1.522658 0.378666 -0.719363
v -1.522352 0.379859 -0.719843
v -1.523539 0.380336 -0.719492
v -1.521715 0.378707 -0.719672
v -1.522003 0.377554 -0.719080
v -1.523047 0.377077 -0.718413
v -1.524235 0.377554 -0.718062
v -1.524871 0.378707 -0.718233
v -1.524583 0.379859 -0.718825
v -1.523567 0.381179 -0.719553
v -1.525102 0.380477 -0.718573
v -1.525525 0.378784 -0.717703
v -1.524590 0.377090 -0.717451
v -1.522844 0.376388 -0.717967
v -1.521310 0.377090 -0.718947
v -1.520886 0.378784 -0.719818
v -1.521821 0.380477 -0.720069
v -1.490686 0.523270 -0.790424
v -1.487880 0.523270 -0.791703
v -1.487383 0.523855 -0.792164
v -1.490215 0.523855 -0.790873
v -1.484210 0.527938 -0.797001
v -1.487239 0.527938 -0.795619
v -1.487004 0.528145 -0.795103
v -1.483975 0.528145 -0.796484
v -1.482625 0.529330 -0.793523
v -1.485654 0.529330 -0.792142
v -1.485326 0.529617 -0.791423
v -1.482297 0.529617 -0.792804
v -1.485467 0.529393 -0.790967
v -1.482451 0.529393 -0.792342
v -1.487027 0.526919 -0.785936
v -1.484159 0.526919 -0.787244
v -1.487119 0.526774 -0.785641
v -1.484260 0.526774 -0.786944
v -1.487880 0.523270 -0.791703
v -1.487660 0.521813 -0.791221
v -1.487161 0.522389 -0.791679
v -1.487383 0.523855 -0.792164
v -1.483977 0.526396 -0.796490
v -1.484210 0.527938 -0.797001
v -1.483975 0.528145 -0.796484
v -1.483742 0.526603 -0.795974
v -1.482392 0.527787 -0.793012
v -1.482625 0.529330 -0.793523
v -1.482297 0.529617 -0.792804
v -1.482064 0.528075 -0.792293
v -1.482451 0.529393 -0.792342
v -1.482219 0.527856 -0.791833
v -1.484159 0.526919 -0.787244
v -1.483936 0.525439 -0.786753
v -1.484260 0.526774 -0.786944
v -1.484037 0.525297 -0.786455
v -1.614289 0.523270 -0.734071
v -1.612780 0.523270 -0.734759
v -1.613440 0.523855 -0.734692
v -1.614963 0.523855 -0.733998
v -1.619065 0.527938 -0.735517
v -1.618830 0.528145 -0.735001
v -1.620694 0.527938 -0.734774
v -1.620459 0.528145 -0.734258
v -1.617480 0.529330 -0.732040
v -1.617152 0.529617 -0.731320
v -1.619109 0.529330 -0.731297
v -1.618781 0.529617 -0.730578
v -1.618331 0.529393 -0.730392
v -1.616709 0.529393 -0.731131
v -1.613362 0.526919 -0.728337
v -1.611820 0.526919 -0.729040
v -1.613070 0.526774 -0.728217
v -1.611533 0.526774 -0.728918
v -1.614178 0.522534 -0.733827
v -1.614289 0.523270 -0.734071
v -1.614963 0.523855 -0.733998
v -1.614851 0.523115 -0.733752
v -1.620694 0.527938 -0.734774
v -1.620577 0.527160 -0.734516
v -1.620341 0.527366 -0.734000
v -1.620459 0.528145 -0.734258
v -1.619109 0.529330 -0.731297
v -1.618991 0.528551 -0.731039
v -1.618663 0.528838 -0.730320
v -1.618781 0.529617 -0.730578
v -1.618214 0.528617 -0.730134
v -1.618331 0.529393 -0.730392
v -1.613362 0.526919 -0.728337
v -1.613249 0.526172 -0.728090
v -1.612957 0.526028 -0.727970
v -1.613070 0.526774 -0.728217
v -1.491271 0.522756 -0.791708
v -1.491016 0.523084 -0.791956
v -1.488196 0.523084 -0.793241
v -1.488465 0.522756 -0.792988
v -1.488465 0.522756 -0.792988
v -1.488196 0.523084 -0.793241
v -1.487976 0.521621 -0.792757
v -1.488245 0.521299 -0.792505
v -1.613365 0.522756 -0.736043
v -1.613726 0.523084 -0.736009
v -1.614874 0.522756 -0.735355
v -1.615242 0.523084 -0.735318
v -1.615242 0.523084 -0.735318
v -1.615131 0.522345 -0.735074
v -1.614874 0.522756 -0.735355
v -1.614763 0.522020 -0.735111
v -1.488396 0.522817 -0.792834
v -1.491201 0.522817 -0.791555
v -1.488176 0.521360 -0.792352
v -1.488396 0.522817 -0.792834
v -1.613296 0.522817 -0.735890
v -1.614804 0.522817 -0.735202
v -1.614804 0.522817 -0.735202
v -1.614693 0.522082 -0.734958
v -1.487954 0.523205 -0.791866
v -1.490760 0.523205 -0.790587
v -1.487734 0.521748 -0.791383
v -1.487954 0.523205 -0.791866
v -1.612854 0.523205 -0.734921
v -1.614363 0.523205 -0.734233
v -1.614363 0.523205 -0.734233
v -1.614252 0.522469 -0.733989
v -1.586762 0.345696 -0.675589
v -1.587477 0.345696 -0.675263
v -1.587974 0.345110 -0.674802
v -1.587252 0.345110 -0.675131
v -1.592317 0.340000 -0.672534
v -1.591545 0.340000 -0.672886
v -1.591310 0.340206 -0.672370
v -1.592082 0.340206 -0.672018
v -1.590732 0.341391 -0.669056
v -1.589960 0.341391 -0.669408
v -1.589632 0.341679 -0.668689
v -1.590404 0.341679 -0.668337
v -1.589280 0.342079 -0.668708
v -1.590048 0.342079 -0.668358
v -1.586120 0.346501 -0.668587
v -1.585389 0.346501 -0.668921
v -1.585161 0.346760 -0.668933
v -1.585890 0.346760 -0.668601
v -1.588331 0.344855 -0.676293
v -1.587613 0.344855 -0.676621
v -1.588062 0.345182 -0.676547
v -1.587347 0.345182 -0.676873
v -1.587992 0.345244 -0.676394
v -1.587277 0.345244 -0.676720
v -1.587551 0.345631 -0.675425
v -1.586836 0.345631 -0.675751
v -1.461068 0.345696 -0.732896
v -1.462926 0.345696 -0.732049
v -1.462269 0.345110 -0.732114
v -1.460394 0.345110 -0.732969
v -1.457839 0.340000 -0.733846
v -1.457604 0.340206 -0.733330
v -1.455833 0.340000 -0.734760
v -1.455598 0.340206 -0.734244
v -1.456254 0.341391 -0.730368
v -1.455926 0.341679 -0.729649
v -1.454248 0.341391 -0.731283
v -1.453920 0.341679 -0.730563
v -1.456166 0.342079 -0.729398
v -1.454169 0.342079 -0.730309
v -1.458817 0.346501 -0.726628
v -1.458972 0.346760 -0.726466
v -1.456918 0.346501 -0.727494
v -1.457079 0.346760 -0.727329
v -1.463153 0.344855 -0.733365
v -1.461285 0.344855 -0.734216
v -1.463511 0.345182 -0.733333
v -1.461654 0.345182 -0.734180
v -1.463441 0.345244 -0.733180
v -1.461584 0.345244 -0.734026
v -1.463000 0.345631 -0.732211
v -1.461142 0.345631 -0.733058
v -1.461264 0.346994 -0.733325
v -1.460591 0.346417 -0.733401
v -1.461068 0.345696 -0.732896
v -1.460394 0.345110 -0.732969
v -1.455833 0.340000 -0.734760
v -1.456041 0.341374 -0.735215
v -1.455805 0.341580 -0.734699
v -1.455598 0.340206 -0.734244
v -1.454248 0.341391 -0.731283
v -1.454455 0.342765 -0.731738
v -1.454127 0.343053 -0.731018
v -1.453920 0.341679 -0.730563
v -1.454376 0.343449 -0.730762
v -1.454169 0.342079 -0.730309
v -1.457117 0.347820 -0.727931
v -1.456918 0.346501 -0.727494
v -1.457278 0.348076 -0.727764
v -1.457079 0.346760 -0.727329
v -1.461482 0.346158 -0.734648
v -1.461850 0.346480 -0.734610
v -1.461285 0.344855 -0.734216
v -1.461654 0.345182 -0.734180
v -1.461584 0.345244 -0.734026
v -1.461780 0.346542 -0.734456
v -1.461142 0.345631 -0.733058
v -1.461338 0.346929 -0.733488
v -1.587477 0.345696 -0.675263
v -1.587584 0.346408 -0.675499
v -1.588082 0.345827 -0.675039
v -1.587974 0.345110 -0.674802
v -1.592431 0.340754 -0.672783
v -1.592196 0.340960 -0.672267
v -1.592317 0.340000 -0.672534
v -1.592082 0.340206 -0.672018
v -1.590846 0.342145 -0.669306
v -1.590518 0.342433 -0.668587
v -1.590732 0.341391 -0.669056
v -1.590404 0.341679 -0.668337
v -1.590162 0.342830 -0.668607
v -1.590048 0.342079 -0.668358
v -1.586230 0.347225 -0.668827
v -1.585999 0.347482 -0.668840
v -1.586120 0.346501 -0.668587
v -1.585890 0.346760 -0.668601
v -1.588439 0.345569 -0.676530
v -1.588331 0.344855 -0.676293
v -1.588170 0.345894 -0.676783
v -1.588062 0.345182 -0.676547
v -1.588100 0.345956 -0.676630
v -1.587992 0.345244 -0.676394
v -1.587658 0.346343 -0.675661
v -1.587551 0.345631 -0.675425
v -1.494918 0.517349 -0.783063
v -1.495045 0.517237 -0.783344
v -1.492531 0.517237 -0.784490
v -1.492404 0.517349 -0.784210
v -1.495668 0.516691 -0.784709
v -1.493154 0.516691 -0.785855
v -1.492328 0.515891 -0.784044
v -1.492200 0.516004 -0.783764
v -1.492951 0.515345 -0.785410
v -1.604313 0.517349 -0.733187
v -1.604441 0.517237 -0.733468
v -1.605063 0.516691 -0.734833
v -1.605665 0.517349 -0.732571
v -1.605792 0.517237 -0.732851
v -1.606415 0.516691 -0.734217
v -1.605562 0.516670 -0.732346
v -1.605690 0.516557 -0.732626
v -1.606312 0.516011 -0.733992
v -1.580271 0.353408 -0.678570
v -1.580398 0.353296 -0.678851
v -1.581039 0.353296 -0.678559
v -1.580911 0.353408 -0.678278
v -1.581021 0.352750 -0.680216
v -1.581661 0.352750 -0.679924
v -1.469315 0.353408 -0.729158
v -1.469442 0.353296 -0.729438
v -1.470065 0.352750 -0.730803
v -1.467650 0.353408 -0.729917
v -1.467778 0.353296 -0.730197
v -1.468400 0.352750 -0.731562
v -1.467831 0.354607 -0.730314
v -1.467959 0.354495 -0.730594
v -1.468581 0.353949 -0.731959
v -1.581011 0.354066 -0.678496
v -1.581138 0.353954 -0.678776
v -1.581761 0.353408 -0.680142
v -1.496547 0.515252 -0.781482
v -1.496335 0.515526 -0.781688
v -1.493900 0.515526 -0.782798
v -1.494124 0.515252 -0.782587
v -1.493701 0.514210 -0.782362
v -1.493926 0.513942 -0.782152
v -1.602008 0.515252 -0.733400
v -1.602308 0.515526 -0.733372
v -1.603311 0.515252 -0.732806
v -1.603618 0.515526 -0.732775
v -1.603211 0.514590 -0.732586
v -1.603518 0.514861 -0.732555
v -1.578573 0.355505 -0.680183
v -1.578794 0.355232 -0.679973
v -1.579415 0.355232 -0.679690
v -1.579191 0.355505 -0.679901
v -1.471608 0.355505 -0.728951
v -1.471310 0.355232 -0.728978
v -1.470004 0.355505 -0.729682
v -1.469697 0.355232 -0.729713
v -1.470180 0.356673 -0.730069
v -1.469874 0.356403 -0.730101
v -1.579288 0.356145 -0.680113
v -1.579512 0.355875 -0.679903
v -1.496465 0.515325 -0.781301
v -1.496547 0.515252 -0.781482
v -1.494124 0.515252 -0.782587
v -1.494042 0.515325 -0.782406
v -1.493926 0.513942 -0.782152
v -1.493844 0.514014 -0.781972
v -1.601926 0.515325 -0.733219
v -1.602008 0.515252 -0.733400
v -1.603229 0.515325 -0.732625
v -1.603311 0.515252 -0.732806
v -1.603129 0.514663 -0.732406
v -1.603211 0.514590 -0.732586
v -1.578491 0.355577 -0.680002
v -1.578573 0.355505 -0.680183
v -1.579191 0.355505 -0.679901
v -1.579108 0.355577 -0.679720
v -1.471526 0.355577 -0.728770
v -1.471608 0.355505 -0.728951
v -1.469921 0.355577 -0.729501
v -1.470004 0.355505 -0.729682
v -1.470098 0.356745 -0.729888
v -1.470180 0.356673 -0.730069
v -1.579205 0.356218 -0.679933
v -1.579288 0.356145 -0.680113
v -1.486100 0.524596 -0.785875
v -1.485937 0.524783 -0.785914
v -1.488717 0.524783 -0.784647
v -1.488873 0.524596 -0.784611
v -1.485882 0.523152 -0.785397
v -1.485719 0.523336 -0.785435
v -1.609565 0.524596 -0.729585
v -1.609697 0.524783 -0.729489
v -1.611192 0.524783 -0.728807
v -1.611056 0.524596 -0.728905
v -1.611082 0.524052 -0.728565
v -1.610946 0.523867 -0.728663
v -1.583858 0.348441 -0.670731
v -1.583770 0.348563 -0.670929
v -1.584477 0.348563 -0.670607
v -1.584567 0.348441 -0.670407
v -1.461152 0.348441 -0.726675
v -1.461357 0.348563 -0.726740
v -1.459311 0.348441 -0.727514
v -1.459521 0.348563 -0.727578
v -1.459715 0.349850 -0.728004
v -1.459506 0.349730 -0.727941
v -1.584673 0.349148 -0.670642
v -1.584583 0.349269 -0.670841
v -1.485335 0.525473 -0.786059
v -1.488140 0.525473 -0.784781
v -1.485149 0.525686 -0.786104
v -1.487961 0.525686 -0.784822
v -1.485115 0.524016 -0.785577
v -1.484928 0.524227 -0.785621
v -1.610188 0.525473 -0.729136
v -1.611697 0.525473 -0.728448
v -1.610340 0.525686 -0.729026
v -1.611853 0.525686 -0.728337
v -1.611741 0.524949 -0.728093
v -1.611585 0.524737 -0.728204
v -1.584284 0.347848 -0.669768
v -1.584183 0.347988 -0.669996
v -1.584898 0.347988 -0.669670
v -1.585001 0.347848 -0.669441
v -1.460159 0.347848 -0.726360
v -1.460394 0.347988 -0.726434
v -1.458297 0.347848 -0.727209
v -1.458537 0.347988 -0.727281
v -1.458733 0.349286 -0.727711
v -1.458493 0.349148 -0.727639
v -1.585109 0.348561 -0.669677
v -1.585006 0.348700 -0.669905
v -1.485000 0.525868 -0.786244
v -1.487821 0.525868 -0.784958
v -1.484780 0.524405 -0.785760
v -1.610539 0.525868 -0.729008
v -1.612056 0.525868 -0.728317
v -1.611944 0.525129 -0.728072
v -1.584430 0.347667 -0.669629
v -1.585149 0.347667 -0.669301
v -1.459961 0.347667 -0.726377
v -1.458094 0.347667 -0.727229
v -1.458291 0.348970 -0.727660
v -1.585257 0.348382 -0.669538
v -1.488353 0.521766 -0.783075
v -1.488182 0.521981 -0.783287
v -1.490835 0.521981 -0.782078
v -1.490996 0.521766 -0.781870
v -1.488142 0.520371 -0.782613
v -1.487971 0.520582 -0.782824
v -1.606043 0.521766 -0.729417
v -1.606310 0.521981 -0.729430
v -1.607737 0.521981 -0.728779
v -1.607465 0.521766 -0.728769
v -1.607630 0.521274 -0.728545
v -1.607359 0.521062 -0.728536
v -1.581324 0.351525 -0.672637
v -1.582000 0.351525 -0.672329
v -1.581123 0.351768 -0.672777
v -1.581797 0.351768 -0.672470
v -1.464202 0.351525 -0.726036
v -1.464435 0.351768 -0.725978
v -1.462445 0.351525 -0.726837
v -1.462685 0.351768 -0.726776
v -1.462872 0.353011 -0.727188
v -1.462633 0.352771 -0.727250
v -1.582103 0.352209 -0.672555
v -1.581900 0.352450 -0.672696
v -1.488546 0.521529 -0.782892
v -1.491180 0.521529 -0.781691
v -1.488336 0.520138 -0.782431
v -1.605784 0.521529 -0.729441
v -1.607200 0.521529 -0.728795
v -1.607094 0.520827 -0.728563
v -1.580932 0.352005 -0.672959
v -1.581603 0.352005 -0.672653
v -1.464694 0.352005 -0.725955
v -1.462950 0.352005 -0.726750
v -1.463137 0.353244 -0.727161
v -1.581706 0.352685 -0.672878
v -1.489843 0.519942 -0.781666
v -1.489650 0.520179 -0.781849
v -1.492226 0.520179 -0.780674
v -1.492409 0.519942 -0.780496
v -1.489637 0.518577 -0.781214
v -1.489443 0.518810 -0.781395
v -1.604044 0.519942 -0.729599
v -1.604303 0.520179 -0.729576
v -1.605688 0.520179 -0.728944
v -1.605424 0.519942 -0.728970
v -1.605584 0.519487 -0.728715
v -1.605319 0.519253 -0.728742
v -1.579843 0.353356 -0.673996
v -1.580500 0.353356 -0.673697
v -1.579653 0.353592 -0.674177
v -1.580306 0.353592 -0.673879
v -1.466167 0.353356 -0.725824
v -1.466425 0.353592 -0.725801
v -1.464461 0.353356 -0.726601
v -1.464726 0.353592 -0.726575
v -1.464910 0.354808 -0.726978
v -1.464646 0.354575 -0.727005
v -1.580601 0.354025 -0.673918
v -1.580407 0.354259 -0.674100
v -1.489956 0.519816 -0.781673
v -1.492518 0.519816 -0.780505
v -1.489751 0.518453 -0.781221
v -1.603977 0.519816 -0.729688
v -1.605355 0.519816 -0.729060
v -1.605251 0.519128 -0.728832
v -1.579613 0.353654 -0.674329
v -1.580266 0.353654 -0.674032
v -1.466563 0.353654 -0.725871
v -1.464867 0.353654 -0.726644
v -1.465051 0.354869 -0.727047
v -1.580366 0.354321 -0.674252
v -1.493817 0.515522 -0.781913
v -1.493627 0.515733 -0.781901
v -1.496057 0.515733 -0.780793
v -1.496240 0.515522 -0.780808
v -1.493619 0.514211 -0.781479
v -1.493429 0.514420 -0.781466
v -1.601701 0.515522 -0.732726
v -1.601813 0.515733 -0.732577
v -1.603120 0.515733 -0.731981
v -1.603004 0.515522 -0.732132
v -1.603020 0.515070 -0.731761
v -1.602904 0.514860 -0.731913
v -1.578333 0.355670 -0.679254
v -1.578952 0.355670 -0.678972
v -1.578266 0.355774 -0.679509
v -1.578884 0.355774 -0.679228
v -1.471068 0.355670 -0.728159
v -1.471301 0.355774 -0.728277
v -1.469459 0.355670 -0.728892
v -1.469697 0.355774 -0.729009
v -1.469873 0.356942 -0.729396
v -1.469635 0.356840 -0.729280
v -1.579049 0.356312 -0.679184
v -1.578981 0.356415 -0.679440
v -1.496341 0.515433 -0.781030
v -1.493918 0.515433 -0.782135
v -1.493720 0.514122 -0.781701
v -1.601802 0.515433 -0.732948
v -1.603105 0.515433 -0.732354
v -1.603005 0.514771 -0.732135
v -1.578367 0.355685 -0.679731
v -1.578985 0.355685 -0.679450
v -1.471402 0.355685 -0.728499
v -1.469798 0.355685 -0.729231
v -1.469974 0.356853 -0.729617
v -1.579082 0.356326 -0.679662
v -1.484383 0.526623 -0.786828
v -1.487236 0.526623 -0.785527
v -1.484260 0.526774 -0.786944
v -1.487119 0.526774 -0.785641
v -1.484160 0.525148 -0.786339
v -1.484037 0.525297 -0.786455
v -1.611367 0.526623 -0.728933
v -1.612901 0.526623 -0.728233
v -1.611533 0.526774 -0.728918
v -1.613070 0.526774 -0.728217
v -1.612957 0.526028 -0.727970
v -1.612789 0.525878 -0.727987
v -1.585161 0.346760 -0.668933
v -1.585039 0.346911 -0.669049
v -1.585766 0.346911 -0.668718
v -1.585890 0.346760 -0.668601
v -1.458972 0.346760 -0.726466
v -1.459137 0.346911 -0.726451
v -1.457079 0.346760 -0.727329
v -1.457248 0.346911 -0.727312
v -1.457447 0.348225 -0.727747
v -1.457278 0.348076 -0.727764
v -1.585999 0.347482 -0.668840
v -1.585875 0.347632 -0.668956
v -1.585890 0.346760 -0.668601
v -1.532061 0.441222 -0.739449
v -1.532082 0.441203 -0.739495
v -1.533616 0.440502 -0.738515
v -1.533595 0.440520 -0.738469
v -1.534040 0.438808 -0.737644
v -1.534019 0.438826 -0.737598
v -1.533105 0.437114 -0.737393
v -1.533084 0.437132 -0.737347
v -1.531359 0.436412 -0.737908
v -1.531338 0.436430 -0.737862
v -1.529824 0.437114 -0.738888
v -1.529803 0.437132 -0.738843
v -1.529401 0.438808 -0.739759
v -1.529380 0.438826 -0.739713
v -1.530336 0.440502 -0.740010
v -1.530315 0.440520 -0.739965
v -1.533507 0.440441 -0.738478
v -1.532044 0.441110 -0.739412
v -1.533911 0.438826 -0.737647
v -1.533020 0.437211 -0.737408
v -1.531355 0.436542 -0.737899
v -1.529892 0.437211 -0.738834
v -1.529488 0.438826 -0.739664
v -1.530379 0.440441 -0.739904
v -1.532871 0.439873 -0.738540
v -1.531923 0.440306 -0.739146
v -1.532783 0.439794 -0.738549
v -1.531906 0.440195 -0.739109
v -1.533133 0.438826 -0.738002
v -1.533025 0.438826 -0.738051
v -1.532555 0.437779 -0.737847
v -1.532491 0.437858 -0.737908
v -1.531476 0.437346 -0.738166
v -1.531493 0.437457 -0.738202
v -1.530528 0.437779 -0.738771
v -1.530616 0.437858 -0.738763
v -1.530266 0.438826 -0.739309
v -1.530374 0.438826 -0.739260
v -1.530844 0.439873 -0.739464
v -1.530908 0.439794 -0.739404
v -1.521738 0.380550 -0.719886
v -1.521766 0.380526 -0.719948
v -1.523512 0.381228 -0.719432
v -1.523484 0.381252 -0.719371
v -1.520803 0.378857 -0.719635
v -1.520831 0.378832 -0.719696
v -1.521227 0.377163 -0.718764
v -1.521254 0.377138 -0.718826
v -1.522761 0.376461 -0.717784
v -1.522789 0.376436 -0.717845
v -1.524507 0.377163 -0.717269
v -1.524535 0.377138 -0.717330
v -1.525442 0.378857 -0.717520
v -1.525470 0.378832 -0.717581
v -1.525018 0.380550 -0.718391
v -1.525046 0.380526 -0.718452
v -1.523448 0.381009 -0.719291
v -1.521878 0.380379 -0.719754
v -1.521038 0.378857 -0.719528
v -1.521419 0.377334 -0.718746
v -1.522797 0.376704 -0.717865
v -1.524367 0.377334 -0.717401
v -1.525207 0.378857 -0.717627
v -1.524826 0.380379 -0.718410
v -1.523355 0.380398 -0.719088
v -1.522232 0.379947 -0.719420
v -1.523329 0.380226 -0.719031
v -1.522331 0.379825 -0.719326
v -1.521630 0.378857 -0.719258
v -1.521797 0.378857 -0.719182
v -1.521902 0.377767 -0.718698
v -1.522039 0.377888 -0.718684
v -1.522890 0.377315 -0.718067
v -1.522916 0.377487 -0.718124
v -1.524013 0.377767 -0.717735
v -1.523914 0.377888 -0.717830
v -1.524615 0.378857 -0.717897
v -1.524448 0.378857 -0.717973
v -1.524342 0.379947 -0.718457
v -1.524206 0.379825 -0.718471
v -1.524172 0.379855 -0.718396
v -1.523295 0.380256 -0.718956
v -1.523493 0.380450 -0.716908
v -1.522617 0.380851 -0.717468
v -1.524414 0.378887 -0.717898
v -1.523736 0.379482 -0.716410
v -1.523880 0.377918 -0.717755
v -1.523201 0.378514 -0.716267
v -1.522882 0.377517 -0.718049
v -1.522203 0.378113 -0.716561
v -1.522005 0.377918 -0.718609
v -1.521326 0.378514 -0.717121
v -1.521763 0.378887 -0.719107
v -1.521084 0.379482 -0.717619
v -1.522297 0.379855 -0.719251
v -1.521619 0.380450 -0.717763
v -1.531869 0.440228 -0.739028
v -1.530871 0.439826 -0.739323
v -1.531194 0.440820 -0.737546
v -1.530196 0.440419 -0.737841
v -1.530337 0.438858 -0.739179
v -1.529661 0.439451 -0.737697
v -1.530579 0.437890 -0.738681
v -1.529903 0.438483 -0.737200
v -1.531456 0.437489 -0.738121
v -1.530780 0.438082 -0.736639
v -1.532454 0.437890 -0.737827
v -1.531778 0.438483 -0.736345
v -1.532988 0.438858 -0.737970
v -1.532313 0.439451 -0.736488
v -1.532746 0.439826 -0.738468
v -1.532070 0.440419 -0.736986
vn 0.244100 0.372100 -0.895500
vn -0.266600 -0.194300 -0.944000
vn -0.411000 -0.136300 -0.901400
vn -0.330800 0.603200 -0.725700
vn 0.552100 -0.185700 -0.812800
vn -0.189300 -0.334400 -0.923200
vn 0.412700 -0.743600 -0.526000
vn -0.224300 -0.474400 -0.851300
vn -0.092700 -0.974800 -0.203100
vn -0.351100 -0.532400 -0.770200
vn -0.667800 -0.743500 -0.033400
vn -0.495500 -0.474300 -0.727600
vn -0.975700 -0.185700 -0.116200
vn -0.572800 -0.334300 -0.748400
vn -0.836200 0.372100 -0.402900
vn -0.537800 -0.194300 -0.820400
vn -0.399200 -0.271600 -0.875700
vn -0.443700 -0.291900 -0.847300
vn -0.456000 -0.341000 -0.822000
vn -0.428800 -0.390200 -0.814800
vn -0.378200 -0.410500 -0.829700
vn -0.333800 -0.390200 -0.858100
vn -0.321500 -0.341100 -0.883300
vn -0.348600 -0.292000 -0.890600
vn -0.443800 -0.291900 -0.847200
vn -0.399300 -0.271600 -0.875600
vn -0.333800 -0.390200 -0.858100
vn -0.378300 -0.410500 -0.829600
vn -0.428800 -0.390200 -0.814700
vn -0.456000 -0.341100 -0.822000
vn -0.348600 -0.291900 -0.890700
vn -0.321400 -0.341000 -0.883400
vn -0.266600 -0.194300 -0.944000
vn -0.411000 -0.136300 -0.901400
vn -0.189300 -0.334300 -0.923200
vn -0.224300 -0.474300 -0.851300
vn -0.351200 -0.532300 -0.770200
vn -0.495500 -0.474300 -0.727600
vn -0.572800 -0.334300 -0.748400
vn -0.537800 -0.194300 -0.820400
vn -0.330700 0.603300 -0.725700
vn -0.836100 0.372100 -0.403000
vn -0.975600 -0.185900 -0.116200
vn -0.667700 -0.743700 -0.033400
vn -0.092600 -0.974800 -0.203100
vn 0.412600 -0.743700 -0.526000
vn 0.552200 -0.185700 -0.812700
vn 0.244300 0.372100 -0.895400
vn 0.376000 -0.422600 0.824600
vn 0.121100 0.026100 0.992300
vn 0.389800 0.342100 0.855000
vn 0.389800 0.342000 0.855000
vn 0.218300 0.345100 -0.912800
vn -0.376000 0.422600 -0.824600
vn -0.141900 0.939700 -0.311200
vn 0.543000 0.664400 -0.513400
vn 0.543000 0.664500 -0.513400
vn -0.141900 0.939700 -0.311200
vn 0.044000 0.994300 0.096600
vn 0.657800 0.746900 -0.097200
vn 0.221000 0.846300 0.484700
vn 0.603000 0.619500 0.502600
vn 0.221000 0.846300 0.484700
vn 0.602900 0.619600 0.502600
vn 0.322800 0.628000 0.708100
vn 0.557300 0.555800 0.616900
vn 0.121100 0.026100 0.992300
vn -0.367500 0.241900 0.898000
vn 0.389800 0.342100 0.855000
vn 0.389800 0.342100 0.855000
vn 0.367700 -0.241800 -0.897900
vn 0.218300 0.345100 -0.912800
vn 0.543000 0.664400 -0.513400
vn 0.909900 0.000000 -0.414800
vn 0.909900 0.000000 -0.414800
vn 0.543000 0.664500 -0.513400
vn 0.657800 0.746900 -0.097200
vn 0.988600 0.150400 0.003500
vn 0.603000 0.619500 0.502600
vn 0.865800 0.270200 0.421200
vn 0.602900 0.619600 0.502600
vn 0.865800 0.270200 0.421100
vn 0.557300 0.555800 0.616900
vn 0.663600 0.323600 0.674400
vn 0.669700 0.026100 0.742100
vn 0.376000 -0.422700 0.824600
vn 0.389800 0.342100 0.855000
vn 0.389800 0.342100 0.855000
vn -0.376000 0.422600 -0.824600
vn -0.141900 0.939700 -0.311200
vn -0.832300 0.345000 -0.433800
vn -0.743700 0.664400 0.073300
vn -0.141900 0.939700 -0.311200
vn 0.044000 0.994300 0.096600
vn -0.743800 0.664400 0.073300
vn -0.504800 0.746900 0.432800
vn -0.016000 0.619400 0.784800
vn 0.221000 0.846300 0.484700
vn -0.016000 0.619600 0.784800
vn 0.221000 0.846300 0.484700
vn 0.100300 0.555800 0.825200
vn 0.322900 0.627900 0.708100
vn 0.919000 0.241900 0.311200
vn 0.669700 0.026100 0.742100
vn 0.389800 0.342100 0.855000
vn 0.389800 0.342100 0.855000
vn -0.832300 0.345000 -0.433800
vn -0.919000 -0.241900 -0.311300
vn -0.909900 -0.000100 0.414800
vn -0.743700 0.664400 0.073300
vn -0.743800 0.664400 0.073300
vn -0.909800 -0.000100 0.414900
vn -0.645600 0.150300 0.748600
vn -0.504800 0.746900 0.432800
vn -0.249900 0.270200 0.929800
vn -0.016000 0.619400 0.784800
vn -0.016000 0.619600 0.784800
vn -0.249800 0.270300 0.929800
vn 0.074300 0.323600 0.943300
vn 0.100300 0.555800 0.825200
vn -0.175300 -0.906300 -0.384400
vn -0.389800 -0.342100 -0.855000
vn -0.389800 -0.342000 -0.855000
vn -0.584000 -0.592800 -0.554500
vn -0.584000 -0.592800 -0.554500
vn -0.389800 -0.342000 -0.855000
vn -0.389700 -0.342100 -0.855000
vn -0.919000 -0.241900 -0.311300
vn -0.175300 -0.906300 -0.384400
vn -0.389800 -0.342000 -0.855000
vn -0.035400 -0.592600 -0.804700
vn -0.389800 -0.342000 -0.855000
vn -0.389800 -0.342000 -0.855000
vn -0.389800 -0.342000 -0.855000
vn -0.035400 -0.592600 -0.804700
vn 0.367700 -0.241800 -0.897900
vn -0.543100 -0.664500 0.513300
vn 0.141900 -0.939700 0.311200
vn -0.909900 -0.000000 0.414700
vn -0.543100 -0.664500 0.513300
vn 0.141900 -0.939600 0.311300
vn 0.743700 -0.664500 -0.073200
vn 0.743700 -0.664500 -0.073200
vn 0.909800 0.000000 -0.414900
vn -0.543000 -0.664400 0.513400
vn 0.141900 -0.939700 0.311200
vn -0.909800 0.000000 0.415000
vn -0.543000 -0.664400 0.513400
vn 0.141900 -0.939700 0.311100
vn 0.743700 -0.664500 -0.073300
vn 0.743700 -0.664500 -0.073300
vn 0.909900 0.000000 -0.414800
vn 0.175300 0.906300 0.384500
vn 0.584200 0.592800 0.554400
vn 0.389800 0.342000 0.855000
vn 0.389800 0.341900 0.855000
vn -0.668400 -0.740000 -0.074500
vn -0.175300 -0.906300 -0.384500
vn 0.141900 -0.939700 0.311200
vn -0.543100 -0.664400 0.513400
vn -0.543100 -0.664400 0.513400
vn 0.141900 -0.939700 0.311200
vn 0.298900 -0.693400 0.655500
vn -0.323500 -0.453600 0.830400
vn 0.395000 -0.305800 0.866300
vn 0.080500 -0.019800 0.996600
vn 0.080500 -0.019800 0.996600
vn 0.395000 -0.305800 0.866300
vn 0.414700 0.019200 0.909700
vn 0.171400 0.083700 0.981600
vn -0.389800 -0.342100 -0.855000
vn -0.389800 -0.342000 -0.855000
vn -0.121000 -0.026100 -0.992300
vn -0.376000 0.422700 -0.824600
vn 0.543000 0.664400 -0.513400
vn -0.141900 0.939700 -0.311200
vn 0.543000 0.664400 -0.513400
vn -0.141900 0.939700 -0.311200
vn 0.035400 0.592700 0.804600
vn 0.175300 0.906300 0.384400
vn 0.389800 0.342100 0.855000
vn 0.389800 0.342100 0.855000
vn -0.175300 -0.906300 -0.384500
vn 0.141900 -0.939700 0.311200
vn 0.382200 -0.740000 -0.553500
vn 0.743700 -0.664400 -0.073300
vn 0.141900 -0.939700 0.311200
vn 0.298900 -0.693500 0.655500
vn 0.743700 -0.664400 -0.073300
vn 0.839000 -0.453700 0.300300
vn 0.394900 -0.305900 0.866300
vn 0.699500 -0.019800 0.714300
vn 0.394900 -0.305900 0.866300
vn 0.414700 0.019300 0.909700
vn 0.699500 -0.019800 0.714300
vn 0.628600 0.083700 0.773200
vn -0.389800 -0.342000 -0.855000
vn -0.389800 -0.342000 -0.855000
vn -0.376000 0.422600 -0.824600
vn -0.669700 -0.026100 -0.742200
vn -0.141900 0.939700 -0.311200
vn -0.743700 0.664500 0.073300
vn -0.141900 0.939700 -0.311300
vn -0.743700 0.664400 0.073200
vn -0.367600 0.241800 0.898000
vn 0.389800 0.342000 0.855000
vn 0.035400 0.592700 0.804600
vn 0.389800 0.342100 0.855000
vn 0.382200 -0.740000 -0.553500
vn 0.367700 -0.241800 -0.897900
vn 0.909900 0.000000 -0.414800
vn 0.743700 -0.664400 -0.073300
vn 0.743700 -0.664400 -0.073300
vn 0.909900 0.000000 -0.414800
vn 0.988600 0.150500 0.003500
vn 0.839000 -0.453700 0.300300
vn 0.865800 0.270200 0.421100
vn 0.699500 -0.019800 0.714300
vn 0.865800 0.270200 0.421200
vn 0.699500 -0.019800 0.714300
vn 0.663600 0.323600 0.674400
vn 0.628600 0.083700 0.773200
vn -0.389700 -0.342100 -0.855000
vn -0.919000 -0.241900 -0.311300
vn -0.389800 -0.342000 -0.855000
vn -0.669700 -0.026100 -0.742200
vn -0.743700 0.664500 0.073300
vn -0.909900 -0.000000 0.414800
vn -0.743700 0.664400 0.073200
vn -0.909800 0.000000 0.414900
vn 0.584200 0.592800 0.554400
vn 0.919000 0.241900 0.311100
vn 0.389900 0.342000 0.855000
vn 0.389800 0.342000 0.855000
vn -0.919000 -0.241800 -0.311200
vn -0.909900 0.000100 0.414800
vn -0.668400 -0.740000 -0.074500
vn -0.543100 -0.664400 0.513400
vn -0.909900 0.000100 0.414800
vn -0.645700 0.150500 0.748600
vn -0.543100 -0.664400 0.513400
vn -0.323500 -0.453600 0.830400
vn -0.249900 0.270100 0.929800
vn 0.080500 -0.019800 0.996600
vn -0.249900 0.270200 0.929800
vn 0.074100 0.323500 0.943300
vn 0.080500 -0.019800 0.996600
vn 0.171400 0.083700 0.981600
vn -0.389800 -0.342000 -0.855000
vn -0.389800 -0.342100 -0.855000
vn 0.367600 -0.241900 -0.897900
vn -0.121000 -0.026100 -0.992300
vn 0.909800 0.000000 -0.414900
vn 0.543000 0.664400 -0.513400
vn 0.909800 0.000100 -0.414900
vn 0.543000 0.664400 -0.513400
vn -0.175300 -0.906300 -0.384600
vn 0.141900 -0.939700 0.311200
vn -0.543000 -0.664400 0.513400
vn -0.668500 -0.739900 -0.074300
vn 0.141900 -0.939700 0.311200
vn -0.543000 -0.664400 0.513400
vn -0.909800 0.000000 0.414900
vn -0.919100 -0.241800 -0.311200
vn -0.909900 -0.000000 0.414800
vn -0.175300 -0.906300 -0.384600
vn 0.141900 -0.939700 0.311200
vn 0.141900 -0.939700 0.311200
vn 0.382200 -0.740000 -0.553500
vn 0.743700 -0.664400 -0.073300
vn 0.743700 -0.664400 -0.073200
vn 0.367800 -0.241800 -0.897900
vn 0.909900 0.000000 -0.414800
vn 0.909900 0.000000 -0.414800
vn -0.376000 0.422600 -0.824600
vn -0.141900 0.939700 -0.311200
vn 0.543000 0.664600 -0.513300
vn 0.218400 0.345200 -0.912700
vn -0.141900 0.939700 -0.311200
vn 0.543000 0.664500 -0.513400
vn -0.376000 0.422700 -0.824600
vn -0.141900 0.939700 -0.311100
vn -0.141900 0.939700 -0.311200
vn -0.832300 0.345100 -0.433800
vn -0.743700 0.664400 0.073300
vn -0.743700 0.664500 0.073200
vn -0.919000 -0.241900 -0.311300
vn -0.909900 -0.000000 0.414800
vn -0.909900 0.000100 0.414800
vn 0.367900 -0.241600 -0.897900
vn 0.909900 0.000200 -0.414700
vn 0.909900 0.000100 -0.414800
vn -0.175300 -0.906300 -0.384600
vn -0.389800 -0.341900 -0.855100
vn -0.389800 -0.342000 -0.855000
vn -0.584100 -0.592600 -0.554600
vn -0.389700 -0.342000 -0.855000
vn -0.919000 -0.242000 -0.311300
vn -0.175300 -0.906300 -0.384600
vn -0.389800 -0.341900 -0.855100
vn -0.035500 -0.592500 -0.804700
vn -0.389800 -0.342000 -0.855000
vn 0.367600 -0.241900 -0.897900
vn -0.389800 -0.342100 -0.855000
vn -0.376000 0.422600 -0.824600
vn -0.389800 -0.341900 -0.855000
vn -0.389800 -0.342000 -0.855000
vn -0.121100 -0.025900 -0.992300
vn -0.376000 0.422600 -0.824600
vn -0.389800 -0.342000 -0.855000
vn -0.669800 -0.026100 -0.742100
vn -0.389800 -0.342000 -0.855000
vn -0.919000 -0.241900 -0.311200
vn -0.389800 -0.342000 -0.855000
vn 0.367600 -0.241900 -0.897900
vn -0.389800 -0.342100 -0.855000
vn 0.141900 -0.939700 0.311300
vn -0.175300 -0.906300 -0.384600
vn -0.584100 -0.592600 -0.554600
vn -0.543000 -0.664400 0.513400
vn -0.919000 -0.242000 -0.311300
vn -0.909900 -0.000000 0.414800
vn 0.141900 -0.939700 0.311300
vn -0.175300 -0.906300 -0.384600
vn 0.743700 -0.664400 -0.073200
vn -0.035500 -0.592500 -0.804700
vn 0.909800 0.000000 -0.414900
vn 0.367600 -0.241900 -0.897900
vn -0.141900 0.939600 -0.311300
vn -0.376000 0.422600 -0.824600
vn -0.121100 -0.025900 -0.992300
vn 0.543100 0.664400 -0.513400
vn -0.141900 0.939700 -0.311200
vn -0.376000 0.422600 -0.824600
vn -0.743700 0.664500 0.073400
vn -0.669800 -0.026100 -0.742100
vn -0.909800 0.000000 0.414900
vn -0.919000 -0.241900 -0.311200
vn 0.909900 0.000000 -0.414800
vn 0.367600 -0.241900 -0.897900
vn 0.243200 0.167000 0.955500
vn 0.158400 0.068600 0.985000
vn 0.408900 -0.168400 0.896900
vn 0.408500 0.173500 0.896100
vn 0.225800 0.336800 0.914100
vn -0.112200 0.297100 0.948200
vn 0.408600 0.173500 0.896100
vn 0.408900 -0.168400 0.896900
vn 0.639700 0.068700 0.765500
vn 0.561600 0.167100 0.810300
vn 0.789400 0.297100 0.537200
vn 0.542000 0.336800 0.769900
vn 0.268300 0.762700 0.588400
vn 0.359300 0.500100 0.787900
vn 0.512200 0.495800 0.701300
vn 0.564700 0.565700 0.600800
vn 0.268300 0.762700 0.588500
vn 0.359200 0.500100 0.787900
vn 0.083300 0.565700 0.820400
vn 0.193700 0.495800 0.846500
vn 0.225800 0.336800 0.914100
vn -0.112200 0.297100 0.948200
vn 0.789600 0.296900 0.537000
vn 0.542100 0.336800 0.769800
vn 0.158300 0.068500 0.985000
vn 0.408900 -0.168600 0.896800
vn 0.335700 0.276500 0.900400
vn 0.413100 0.089700 0.906200
vn -0.112200 0.297100 0.948200
vn 0.143500 0.330500 0.932800
vn 0.408900 -0.168600 0.896800
vn 0.639700 0.068600 0.765500
vn 0.413100 0.089700 0.906200
vn 0.459600 0.276400 0.844000
vn 0.610100 0.330600 0.720000
vn 0.789400 0.297100 0.537200
vn 0.340400 0.571400 0.746700
vn 0.268300 0.762700 0.588500
vn 0.564700 0.565700 0.600900
vn 0.440300 0.404600 0.801500
vn 0.340400 0.571400 0.746700
vn 0.268300 0.762700 0.588500
vn 0.316400 0.404200 0.858100
vn 0.083300 0.565800 0.820300
vn -0.112100 0.297100 0.948200
vn 0.143600 0.330500 0.932800
vn 0.610000 0.330600 0.720100
vn 0.789400 0.297000 0.537200
vn 0.389800 0.342000 0.855000
vn 0.389800 0.342100 0.854900
vn 0.389800 0.342000 0.855000
vn 0.389800 0.342000 0.855000
vn 0.389800 0.342000 0.855000
vn 0.389800 0.342000 0.855000
vn 0.389800 0.342100 0.855000
vn 0.389800 0.342100 0.855000
vn 0.389800 0.341900 0.855000
vn 0.389800 0.342000 0.855000
vn 0.389800 0.341900 0.855000
vn 0.389800 0.342000 0.855000
vn 0.436900 0.400200 0.805500
vn 0.452000 0.419100 0.787400
vn 0.360400 0.495100 0.790500
vn 0.376500 0.420100 0.825600
vn 0.465100 0.340800 0.817000
vn 0.537200 0.337100 0.773100
vn 0.376500 0.420000 0.825700
vn 0.360400 0.495100 0.790500
vn 0.297900 0.419100 0.857600
vn 0.321500 0.400200 0.858200
vn 0.231100 0.337100 0.912600
vn 0.311600 0.340800 0.887000
vn 0.408200 0.179100 0.895200
vn 0.321900 0.260000 0.910300
vn 0.400400 0.261400 0.878200
vn 0.339500 0.281100 0.897600
vn 0.408100 0.179100 0.895200
vn 0.400400 0.261400 0.878200
vn 0.476100 0.259900 0.840100
vn 0.454900 0.281000 0.845000
vn 0.465200 0.340800 0.817000
vn 0.537200 0.337100 0.773100
vn 0.231200 0.337200 0.912600
vn 0.311500 0.340900 0.887000
vn 0.389800 0.342100 0.854900
vn 0.389800 0.342100 0.855000
vn 0.390000 0.342000 0.854900
vn 0.389800 0.342000 0.855000
vn 0.389800 0.342000 0.855000
vn 0.389800 0.342000 0.855000
vn 0.389900 0.341900 0.855000
vn 0.389800 0.342100 0.855000
vn 0.389800 0.341900 0.855000
vn 0.389900 0.341900 0.855000
vn 0.390000 0.342000 0.854900
vn 0.389700 0.342100 0.855000
vn 0.305600 0.240500 0.921200
vn 0.389800 0.342000 0.855000
vn 0.389800 0.342000 0.855000
vn 0.414700 -0.025700 0.909600
vn 0.029500 0.318100 0.947600
vn 0.389700 0.342000 0.855100
vn 0.414700 -0.025900 0.909600
vn 0.389800 0.342100 0.855000
vn 0.389800 0.342100 0.855000
vn 0.495000 0.240600 0.834900
vn 0.389900 0.342000 0.854900
vn 0.695900 0.318100 0.643800
vn 0.389900 0.341900 0.855000
vn 0.389800 0.342100 0.855000
vn 0.310800 0.662400 0.681600
vn 0.465400 0.436100 0.770200
vn 0.389800 0.341900 0.855100
vn 0.310800 0.662400 0.681600
vn 0.389800 0.342000 0.855000
vn 0.276200 0.435800 0.856600
vn 0.029600 0.318200 0.947600
vn 0.389800 0.342000 0.855000
vn 0.389700 0.342100 0.855000
vn 0.695900 0.318400 0.643700
vn 0.026900 -0.079800 0.996400
vn 0.381900 -0.390100 0.837800
vn -0.334800 0.250200 0.908400
vn 0.381900 -0.390200 0.837800
vn 0.734500 -0.080100 0.673800
vn 0.905300 0.250300 0.343000
vn 0.188500 0.890700 0.413500
vn 0.624300 0.651100 0.431600
vn 0.188500 0.890700 0.413500
vn -0.083300 0.651100 0.754400
vn -0.334800 0.250200 0.908400
vn 0.905400 0.250300 0.342900
vn -0.203900 -0.330000 0.921700
vn 0.026800 -0.079900 0.996400
vn 0.381900 -0.390300 0.837700
vn 0.285600 -0.725200 0.626400
vn -0.678800 0.136400 0.721500
vn -0.334800 0.250300 0.908400
vn 0.285600 -0.725200 0.626500
vn 0.381900 -0.390200 0.837800
vn 0.734600 -0.079800 0.673700
vn 0.829600 -0.329800 0.450500
vn 0.905400 0.250300 0.342900
vn 0.989800 0.136400 -0.039300
vn 0.188500 0.890700 0.413600
vn 0.624300 0.651100 0.431700
vn 0.025500 0.998100 0.055900
vn 0.668400 0.737400 0.097300
vn 0.188500 0.890700 0.413600
vn 0.025500 0.998100 0.055900
vn -0.083500 0.651100 0.754400
vn -0.364800 0.737400 0.568300
vn -0.678700 0.136400 0.721600
vn -0.334800 0.250300 0.908400
vn 0.905400 0.250300 0.343000
vn 0.989800 0.136500 -0.039300
vn 0.141900 -0.939700 0.311200
vn -0.543100 -0.664500 0.513300
vn -0.909900 -0.000100 0.414800
vn 0.141900 -0.939700 0.311100
vn 0.743600 -0.664500 -0.073200
vn 0.909900 -0.000100 -0.414800
vn -0.141900 0.939700 -0.311200
vn 0.543000 0.664500 -0.513300
vn -0.141900 0.939700 -0.311200
vn -0.743800 0.664400 0.073300
vn -0.909900 -0.000100 0.414800
vn 0.909900 0.000000 -0.414800
vn 0.389800 0.342100 0.855000
vn 0.389800 0.342000 0.855000
vn 0.557300 0.555800 0.616900
vn 0.322800 0.628000 0.708100
vn 0.389900 0.342000 0.855000
vn 0.663600 0.323600 0.674400
vn 0.389800 0.342000 0.855000
vn 0.390000 0.341900 0.855000
vn 0.322900 0.627900 0.708100
vn 0.100300 0.555800 0.825200
vn 0.074300 0.323600 0.943300
vn 0.390000 0.342000 0.854900
vn 0.414700 0.019200 0.909700
vn 0.389800 0.342100 0.855000
vn 0.389900 0.342000 0.855000
vn 0.171400 0.083700 0.981600
vn 0.414700 0.019300 0.909700
vn 0.389800 0.342100 0.855000
vn 0.628600 0.083700 0.773200
vn 0.389800 0.342100 0.855000
vn 0.389900 0.342000 0.855000
vn 0.663600 0.323600 0.674400
vn 0.074100 0.323500 0.943300
vn 0.390000 0.342000 0.854900
vn 0.171400 0.083700 0.981600
vn 0.136000 0.945000 0.297400
vn -0.141900 0.939800 -0.310900
vn -0.743600 0.664600 0.073100
vn -0.331700 0.731400 0.595800
vn -0.910000 -0.000100 0.414500
vn -0.460800 0.215400 0.860900
vn -0.543100 -0.664500 0.513300
vn -0.176000 -0.300300 0.937400
vn 0.141900 -0.939700 0.311100
vn 0.355600 -0.514100 0.780500
vn 0.743500 -0.664700 -0.073200
vn 0.823100 -0.300200 0.482000
vn 0.909900 -0.000200 -0.414700
vn 0.952100 0.215400 0.217100
vn 0.543200 0.664500 -0.513100
vn 0.667300 0.731300 0.140600
vn 0.389800 0.342000 0.855000
vn 0.389800 0.342000 0.855000
vn 0.390000 0.341900 0.854900
vn 0.390000 0.341900 0.854900
vn 0.389800 0.342100 0.855000
vn 0.389700 0.342200 0.855000
vn 0.389700 0.342100 0.855000
vn 0.389900 0.342000 0.855000
vn 0.389800 0.342000 0.855000
vn 0.389800 0.342000 0.855000
vn -0.128600 0.670100 0.731000
vn 0.229200 0.833600 0.502500
vn 0.389800 0.342000 0.855000
vn -0.227200 0.275300 0.934100
vn 0.389800 0.342000 0.855000
vn -0.009300 -0.119600 0.992800
vn 0.389800 0.342000 0.855000
vn 0.398000 -0.283400 0.872500
vn 0.389800 0.342000 0.855000
vn 0.755400 -0.119700 0.644200
vn 0.389800 0.342000 0.855000
vn 0.854200 0.275000 0.441300
vn 0.389800 0.342000 0.855000
vn 0.636300 0.670000 0.382300
vn 0.667200 0.731500 0.140500
vn 0.543300 0.664400 -0.513100
vn -0.141700 0.939700 -0.311100
vn 0.135700 0.945000 0.297400
vn 0.952000 0.215700 0.217200
vn 0.910000 0.000100 -0.414500
vn 0.823100 -0.300300 0.481900
vn 0.743800 -0.664400 -0.073300
vn 0.356000 -0.514000 0.780400
vn 0.141900 -0.939700 0.311100
vn -0.175800 -0.300200 0.937500
vn -0.542900 -0.664500 0.513500
vn -0.460600 0.215500 0.861000
vn -0.909800 -0.000200 0.415000
vn -0.331800 0.731300 0.595900
vn -0.743700 0.664400 0.073200
vn 0.389800 0.341900 0.855000
vn 0.389800 0.342100 0.855000
vn 0.389800 0.342100 0.855000
vn 0.389800 0.342100 0.855000
vn 0.389800 0.342100 0.855000
vn 0.389700 0.342100 0.855000
vn 0.389800 0.342100 0.855000
vn 0.389800 0.342000 0.855000
vn 0.389800 0.341900 0.855000
vn 0.389800 0.342000 0.855000
vn 0.229200 0.833500 0.502700
vn 0.636100 0.670000 0.382500
vn 0.389900 0.342000 0.855000
vn 0.854200 0.274900 0.441300
vn 0.389800 0.342000 0.855000
vn 0.755400 -0.119800 0.644200
vn 0.389800 0.342000 0.855000
vn 0.397800 -0.283300 0.872600
vn 0.389800 0.342100 0.855000
vn -0.009100 -0.119800 0.992700
vn 0.389800 0.342000 0.855000
vn -0.227100 0.274700 0.934300
vn 0.389800 0.342000 0.855000
vn -0.128500 0.669700 0.731400
vn -0.743800 0.664300 0.073400
vn -0.142100 0.939700 -0.311000
vn -0.743700 0.664500 0.073300
vn -0.141900 0.939700 -0.311200
vn -0.909800 -0.000200 0.415000
vn -0.909900 -0.000000 0.414800
vn -0.542800 -0.664500 0.513500
vn -0.543000 -0.664500 0.513400
vn 0.142000 -0.939600 0.311300
vn 0.141900 -0.939700 0.311200
vn 0.743700 -0.664500 -0.072900
vn 0.743700 -0.664400 -0.073300
vn 0.910000 0.000000 -0.414600
vn 0.909900 0.000000 -0.414800
vn 0.543000 0.664600 -0.513300
vn 0.543000 0.664400 -0.513400
vn -0.141900 0.939700 -0.311200
vn 0.543100 0.664400 -0.513400
vn -0.141900 0.939700 -0.311200
vn 0.543100 0.664400 -0.513400
vn 0.909900 0.000100 -0.414700
vn 0.909900 0.000000 -0.414800
vn 0.743800 -0.664400 -0.072900
vn 0.743700 -0.664400 -0.073300
vn 0.141900 -0.939600 0.311300
vn 0.141900 -0.939700 0.311100
vn -0.543000 -0.664400 0.513500
vn -0.543100 -0.664400 0.513400
vn -0.909800 0.000200 0.414900
vn -0.909900 -0.000000 0.414800
vn -0.743700 0.664500 0.073200
vn -0.743700 0.664400 0.073300
vt 0.135700 0.470600
vt 0.132700 0.471500
vt 0.128900 0.469300
vt 0.130000 0.467200
vt 0.136200 0.475600
vt 0.133000 0.474800
vt 0.131100 0.479300
vt 0.129600 0.477300
vt 0.123800 0.479300
vt 0.124800 0.477400
vt 0.118100 0.476400
vt 0.121100 0.475300
vt 0.117400 0.471500
vt 0.120600 0.472100
vt 0.122400 0.467600
vt 0.123900 0.469500
vt 0.127700 0.471700
vt 0.125600 0.471800
vt 0.124200 0.472800
vt 0.124300 0.474200
vt 0.125900 0.475200
vt 0.128000 0.475100
vt 0.129500 0.474000
vt 0.129300 0.472600
vt 0.386900 0.453300
vt 0.388200 0.452200
vt 0.392200 0.454300
vt 0.390900 0.455400
vt 0.388800 0.455600
vt 0.387100 0.454700
vt 0.390300 0.452000
vt 0.391900 0.452900
vt 0.391200 0.449700
vt 0.386400 0.450100
vt 0.395200 0.451700
vt 0.395700 0.455000
vt 0.392600 0.457500
vt 0.387800 0.457900
vt 0.383900 0.455900
vt 0.383300 0.452600
vt 0.384900 0.448400
vt 0.380200 0.452000
vt 0.381000 0.457000
vt 0.386900 0.460000
vt 0.394100 0.459300
vt 0.398900 0.455600
vt 0.398200 0.450600
vt 0.392100 0.447600
vt 1.789700 -0.921700
vt 1.789700 -0.969400
vt 1.795500 -0.979400
vt 1.795500 -0.931200
vt 1.723400 -1.055400
vt 1.723400 -1.003700
vt 1.717700 -1.003700
vt 1.717700 -1.055400
vt 1.684900 -1.055400
vt 1.684900 -1.003700
vt 1.677000 -1.003700
vt 1.677000 -1.055400
vt 1.673000 -0.998800
vt 1.673000 -1.050200
vt 1.629100 -0.944300
vt 1.629100 -0.993200
vt 1.626500 -0.941100
vt 1.626500 -0.989900
vt 1.620000 1.962500
vt 1.620100 1.938300
vt 1.626200 1.947900
vt 1.626100 1.972200
vt 1.553400 2.022500
vt 1.553400 2.048000
vt 1.547700 2.048000
vt 1.547700 2.022500
vt 1.514900 2.022500
vt 1.514900 2.047900
vt 1.506900 2.047900
vt 1.507000 2.022400
vt 1.503000 2.042800
vt 1.503000 2.017300
vt 1.459000 1.985800
vt 1.459000 1.961300
vt 1.456400 1.982500
vt 1.456400 1.958000
vt 1.789500 1.187800
vt 1.789500 1.162100
vt 1.795400 1.171800
vt 1.795400 1.197800
vt 1.723100 1.246000
vt 1.717400 1.246000
vt 1.723100 1.273800
vt 1.717400 1.273800
vt 1.684700 1.246000
vt 1.676700 1.245900
vt 1.684600 1.273800
vt 1.676700 1.273700
vt 1.672700 1.268600
vt 1.672700 1.240900
vt 1.628800 1.211600
vt 1.628800 1.185300
vt 1.626200 1.208200
vt 1.626200 1.182000
vt 1.450500 -0.957900
vt 1.450400 -0.969900
vt 1.456300 -0.979600
vt 1.456400 -0.967600
vt 1.384100 -1.055400
vt 1.384100 -1.042600
vt 1.378500 -1.042500
vt 1.378500 -1.055300
vt 1.345800 -1.055200
vt 1.345800 -1.042400
vt 1.337900 -1.042300
vt 1.337900 -1.055100
vt 1.334000 -1.037100
vt 1.334000 -1.050000
vt 1.290100 -0.992800
vt 1.290100 -0.980500
vt 1.287700 -0.977200
vt 1.287500 -0.989400
vt 1.775500 -0.921600
vt 1.772200 -0.926800
vt 1.772200 -0.974900
vt 1.775500 -0.969400
vt 1.605800 1.962400
vt 1.602500 1.967800
vt 1.602500 1.943600
vt 1.605800 1.938300
vt 1.775300 1.162100
vt 1.772000 1.167400
vt 1.775300 1.187800
vt 1.772000 1.193300
vt 1.433100 -0.975200
vt 1.433200 -0.963000
vt 1.436400 -0.969800
vt 1.436400 -0.957700
vt 1.777200 -0.969400
vt 1.777200 -0.921600
vt 1.607500 1.938300
vt 1.607500 1.962400
vt 1.777000 1.162100
vt 1.777000 1.187800
vt 1.438100 -0.969800
vt 1.438100 -0.957700
vt 1.787900 -0.969400
vt 1.787900 -0.921700
vt 1.618300 1.938300
vt 1.618200 1.962500
vt 1.787700 1.162100
vt 1.787700 1.187800
vt 1.448600 -0.969900
vt 1.448700 -0.957900
vt 1.166900 0.212300
vt 1.170900 0.164600
vt 1.195400 0.131800
vt 1.192100 0.177400
vt 1.067100 -0.018800
vt 1.062100 0.015500
vt 1.044300 0.008600
vt 1.051200 -0.026200
vt 0.969200 -0.060200
vt 0.963800 -0.022200
vt 0.935600 -0.033700
vt 0.943300 -0.073300
vt 0.920200 -0.025600
vt 0.928100 -0.062600
vt 0.833700 0.037400
vt 0.829300 0.068500
vt 0.819500 0.075000
vt 0.826400 0.042100
vt 1.116600 0.146200
vt 1.112000 0.182800
vt 1.124800 0.163400
vt 1.123600 0.209000
vt 1.131000 0.163800
vt 1.131100 0.210000
vt 1.164100 0.163000
vt 1.158200 0.210900
vt 1.157900 0.605900
vt 1.152800 0.465100
vt 1.177100 0.503300
vt 1.187200 0.645200
vt 0.965000 0.839800
vt 0.932300 0.834200
vt 0.969700 1.005800
vt 0.940200 1.010000
vt 0.847600 0.812500
vt 0.795700 0.767400
vt 0.771300 1.008800
vt 0.719800 0.965900
vt 0.777500 0.717800
vt 0.707400 0.914300
vt 0.802200 0.224500
vt 0.794700 0.196300
vt 0.709900 0.379300
vt 0.707400 0.345600
vt 1.077600 0.482000
vt 1.078700 0.636000
vt 1.098800 0.458200
vt 1.092500 0.613400
vt 1.113400 0.462400
vt 1.104100 0.614800
vt 1.139300 0.464700
vt 1.147100 0.607100
vt 1.619900 -0.948400
vt 1.626000 -0.958000
vt 1.619900 -0.969900
vt 1.626000 -0.979600
vt 1.553300 -1.055400
vt 1.553300 -1.032700
vt 1.547600 -1.032700
vt 1.547600 -1.055400
vt 1.514900 -1.055400
vt 1.514900 -1.032700
vt 1.506900 -1.032700
vt 1.506900 -1.055400
vt 1.502900 -1.027600
vt 1.502900 -1.050200
vt 1.459000 -0.971500
vt 1.459000 -0.993300
vt 1.456500 -0.968200
vt 1.456500 -0.990000
vt 1.602400 -0.953700
vt 1.605600 -0.948400
vt 1.602400 -0.975200
vt 1.605700 -0.969800
vt 1.607400 -0.969800
vt 1.607400 -0.948400
vt 1.618100 -0.969900
vt 1.618100 -0.948400
vt 1.450300 1.969600
vt 1.450300 1.957900
vt 1.456400 1.967400
vt 1.456400 1.979200
vt 1.383700 2.042900
vt 1.378000 2.042900
vt 1.383700 2.055400
vt 1.378000 2.055400
vt 1.345100 2.042900
vt 1.337200 2.042900
vt 1.345100 2.055400
vt 1.337200 2.055400
vt 1.333200 2.037800
vt 1.333200 2.050200
vt 1.289200 1.981200
vt 1.286600 1.977800
vt 1.289200 1.993100
vt 1.286600 1.989800
vt 1.432900 1.963200
vt 1.432800 1.975000
vt 1.436200 1.957900
vt 1.436200 1.969600
vt 1.437800 1.957900
vt 1.437800 1.969600
vt 1.448600 1.957900
vt 1.448600 1.969600
vt 0.833600 -0.167300
vt 0.832600 -0.151500
vt 0.772800 -0.183200
vt 0.778400 -0.193100
vt 0.823200 -0.074200
vt 0.739200 -0.126200
vt 0.760400 -0.236300
vt 0.769200 -0.238300
vt 0.707400 -0.202300
vt 1.186800 -0.181100
vt 1.189300 -0.159300
vt 1.221000 -0.073300
vt 1.219400 -0.203900
vt 1.226500 -0.195700
vt 1.271900 -0.144200
vt 1.222700 -0.230300
vt 1.233400 -0.228500
vt 1.286600 -0.186600
vt 1.184300 -0.950100
vt 1.186600 -0.968700
vt 1.206300 -0.951800
vt 1.199700 -0.941000
vt 1.222900 -1.055400
vt 1.250000 -1.022200
vt 0.826200 -0.949400
vt 0.824600 -0.969300
vt 0.803400 -1.055400
vt 0.786700 -0.928900
vt 0.780800 -0.937600
vt 0.744600 -0.989700
vt 0.778800 -0.886700
vt 0.769900 -0.889200
vt 0.717800 -0.920800
vt 1.204800 -0.915800
vt 1.215900 -0.920000
vt 1.270300 -0.977600
vt 0.886600 -0.259400
vt 0.879100 -0.245400
vt 0.816000 -0.251300
vt 0.823500 -0.261800
vt 0.819300 -0.306100
vt 0.828300 -0.317600
vt 1.111000 -0.276000
vt 1.122600 -0.259000
vt 1.158100 -0.282900
vt 1.167800 -0.271200
vt 1.153400 -0.319900
vt 1.165300 -0.305500
vt 1.111200 -0.845000
vt 1.124200 -0.865100
vt 1.147800 -0.861500
vt 1.137700 -0.846100
vt 0.896800 -0.843700
vt 0.885800 -0.863600
vt 0.838300 -0.847300
vt 0.829900 -0.860600
vt 0.840600 -0.783000
vt 0.829800 -0.800300
vt 1.135100 -0.800100
vt 1.148200 -0.822900
vt 0.588500 0.670000
vt 0.589500 0.674600
vt 0.583200 0.642700
vt 0.584100 0.640400
vt 0.559700 0.612000
vt 0.565600 0.611700
vt -0.063400 1.427800
vt -0.070700 1.413200
vt -0.069200 1.460600
vt -0.070700 1.452900
vt -0.080200 1.458400
vt -0.080900 1.444200
vt -0.494900 -0.546100
vt -0.427400 -0.534800
vt -0.659300 -0.259300
vt -0.644100 -0.338900
vt -0.140900 -0.862600
vt -0.145700 -0.850700
vt -0.106300 -0.879100
vt -0.107200 -0.874200
vt -0.077500 -0.896200
vt -0.070400 -0.895000
vt -0.705400 -0.309400
vt -0.700800 -0.252200
vt 0.686700 0.636000
vt 0.688400 0.636100
vt 0.673800 0.660000
vt 0.672000 0.659800
vt 0.679300 0.623900
vt 0.681100 0.623500
vt -0.021200 1.786400
vt -0.015000 1.802700
vt -0.039900 1.842900
vt -0.041000 1.828000
vt -0.055600 1.823400
vt -0.056600 1.806700
vt -0.793600 -0.746700
vt -0.789500 -0.729300
vt -0.808900 -0.734500
vt -0.814200 -0.747800
vt -0.090900 -1.022500
vt -0.091100 -1.019900
vt -0.081500 -1.032200
vt -0.081900 -1.030100
vt -0.078800 -1.020800
vt -0.078100 -1.022400
vt -0.819400 -0.718400
vt -0.811800 -0.705700
vt 0.694600 0.636200
vt 0.680200 0.660900
vt 0.696600 0.636200
vt 0.682200 0.661000
vt 0.687500 0.623400
vt 0.689400 0.623300
vt -0.008000 1.838100
vt -0.038900 1.888400
vt -0.002500 1.861700
vt -0.038300 1.904800
vt -0.055800 1.875500
vt -0.056200 1.858800
vt -0.809500 -0.803300
vt -0.804400 -0.781300
vt -0.832800 -0.793700
vt -0.839700 -0.810900
vt -0.089200 -1.033200
vt -0.089500 -1.030600
vt -0.080100 -1.042400
vt -0.080500 -1.039900
vt -0.076500 -1.030400
vt -0.076000 -1.032600
vt -0.847000 -0.764000
vt -0.837100 -0.746400
vt 0.698500 0.636300
vt 0.684100 0.661000
vt 0.691400 0.623400
vt 0.001800 1.886600
vt -0.038600 1.918100
vt -0.054300 1.891600
vt -0.816300 -0.825200
vt -0.844900 -0.822900
vt -0.088700 -1.035600
vt -0.079700 -1.044800
vt -0.075600 -1.034800
vt -0.855800 -0.784100
vt 0.654800 0.633300
vt 0.657300 0.633700
vt 0.642300 0.658100
vt 0.640000 0.658700
vt 0.647300 0.619800
vt 0.650200 0.619700
vt -0.030100 1.679200
vt -0.027900 1.701500
vt -0.044500 1.724700
vt -0.045600 1.716200
vt -0.053600 1.719900
vt -0.059600 1.701400
vt -0.757300 -0.680500
vt -0.767700 -0.673100
vt -0.746700 -0.663900
vt -0.763800 -0.666800
vt -0.100600 -0.984700
vt -0.101500 -0.980300
vt -0.089200 -0.991100
vt -0.089900 -0.988100
vt -0.085800 -0.975600
vt -0.084700 -0.978100
vt -0.769900 -0.657800
vt -0.764700 -0.638000
vt 0.652200 0.633000
vt 0.637600 0.659300
vt 0.644300 0.619900
vt -0.033300 1.657800
vt -0.048400 1.702200
vt -0.063500 1.680900
vt -0.738200 -0.645500
vt -0.757300 -0.652800
vt -0.102400 -0.975700
vt -0.090700 -0.984900
vt -0.086800 -0.973000
vt -0.757500 -0.619800
vt 0.633600 0.632900
vt 0.636500 0.633100
vt 0.623400 0.660400
vt 0.621300 0.662200
vt 0.625900 0.616600
vt 0.629200 0.617500
vt -0.040500 1.588100
vt -0.037900 1.606100
vt -0.056100 1.634300
vt -0.057700 1.619600
vt -0.067400 1.626000
vt -0.072800 1.606300
vt -0.714400 -0.610300
vt -0.729200 -0.600100
vt -0.701700 -0.597100
vt -0.722900 -0.588300
vt -0.107900 -0.956000
vt -0.109800 -0.950800
vt -0.095000 -0.963700
vt -0.095800 -0.960100
vt -0.088800 -0.950300
vt -0.089100 -0.952700
vt -0.735100 -0.578600
vt -0.731400 -0.555000
vt 0.632100 0.632700
vt 0.620400 0.663600
vt 0.624000 0.616500
vt -0.043700 1.575100
vt -0.060100 1.607000
vt -0.075500 1.591200
vt -0.693300 -0.585600
vt -0.717700 -0.576200
vt -0.110900 -0.947200
vt -0.096400 -0.958500
vt -0.088500 -0.949800
vt -0.728100 -0.537700
vt 0.588800 0.635300
vt 0.591700 0.634000
vt 0.585500 0.657600
vt 0.586600 0.662400
vt 0.577100 0.611100
vt 0.582800 0.614800
vt -0.052000 1.460800
vt -0.050000 1.479900
vt -0.062800 1.494400
vt -0.064100 1.484400
vt -0.068500 1.498000
vt -0.075000 1.486400
vt -0.638900 -0.551900
vt -0.668100 -0.501400
vt -0.596600 -0.569700
vt -0.659600 -0.470500
vt -0.123800 -0.893700
vt -0.130900 -0.884900
vt -0.106100 -0.899200
vt -0.106300 -0.893500
vt -0.088700 -0.897700
vt -0.094700 -0.895800
vt -0.690800 -0.471600
vt -0.704100 -0.422700
vt 0.587800 0.666100
vt 0.586500 0.637400
vt 0.571900 0.610700
vt -0.056700 1.444200
vt -0.066500 1.472300
vt -0.078400 1.473600
vt -0.554200 -0.564500
vt -0.650300 -0.419300
vt -0.136100 -0.875000
vt -0.106400 -0.887200
vt -0.083700 -0.898200
vt -0.707200 -0.372100
vt 0.705900 0.636200
vt 0.692100 0.660700
vt 0.707400 0.636100
vt 0.693600 0.660600
vt 0.698900 0.624400
vt 0.700400 0.624600
vt 0.003700 1.941100
vt -0.054700 1.973700
vt 0.009700 1.973900
vt -0.060700 1.985300
vt -0.062400 1.933400
vt -0.059600 1.926300
vt -0.825900 -0.892800
vt -0.828500 -0.875500
vt -0.895200 -0.939300
vt -0.922000 -1.055400
vt -0.086000 -1.045700
vt -0.086400 -1.044100
vt -0.079100 -1.055400
vt -0.079100 -1.053700
vt -0.074500 -1.045600
vt -0.074400 -1.047700
vt -0.892600 -0.834400
vt -0.882900 -0.824000
vt -0.915700 -0.957000
vt 0.130700 0.465700
vt 0.130300 0.466500
vt 0.121800 0.466800
vt 0.121200 0.466100
vt 0.116200 0.471300
vt 0.114900 0.471000
vt 0.117200 0.476700
vt 0.116100 0.477100
vt 0.123400 0.480100
vt 0.123000 0.480900
vt 0.131500 0.479900
vt 0.132000 0.480600
vt 0.137200 0.475900
vt 0.138500 0.476300
vt 0.136900 0.470200
vt 0.138100 0.469800
vt 0.120500 0.465100
vt 0.131200 0.464900
vt 0.113500 0.470700
vt 0.114800 0.477500
vt 0.122500 0.481800
vt 0.132500 0.481400
vt 0.140100 0.476600
vt 0.139500 0.469300
vt 0.115000 0.457500
vt 0.134500 0.458300
vt 0.113900 0.455800
vt 0.135300 0.456800
vt 0.102900 0.467800
vt 0.099800 0.467300
vt 0.105600 0.480000
vt 0.103600 0.480800
vt 0.119700 0.487200
vt 0.118800 0.489000
vt 0.137600 0.487200
vt 0.138500 0.488600
vt 0.151100 0.478700
vt 0.154000 0.479400
vt 0.150800 0.465500
vt 0.153300 0.464600
vt 0.392700 0.446100
vt 0.392400 0.446900
vt 0.384300 0.447700
vt 0.383700 0.446900
vt 0.400300 0.449700
vt 0.399200 0.450200
vt 0.401300 0.456000
vt 0.400100 0.455800
vt 0.395400 0.460800
vt 0.394700 0.460000
vt 0.386200 0.461500
vt 0.386500 0.460700
vt 0.378800 0.457800
vt 0.379900 0.457300
vt 0.378000 0.451600
vt 0.379100 0.451800
vt 0.383100 0.446100
vt 0.393000 0.445200
vt 0.401700 0.449200
vt 0.402800 0.456300
vt 0.396200 0.461700
vt 0.385800 0.462500
vt 0.377500 0.458300
vt 0.376500 0.451300
vt 0.380300 0.442800
vt 0.395100 0.440900
vt 0.379300 0.441500
vt 0.395700 0.439200
vt 0.408700 0.446600
vt 0.411300 0.445600
vt 0.409500 0.457400
vt 0.412000 0.458000
vt 0.398800 0.465000
vt 0.399800 0.466200
vt 0.383700 0.466600
vt 0.383000 0.468200
vt 0.371200 0.460200
vt 0.368600 0.461100
vt 0.369400 0.449800
vt 0.367100 0.449300
vt 0.364700 0.448700
vt 0.378100 0.440100
vt 0.262800 0.432900
vt 0.319200 0.369200
vt 0.366400 0.461900
vt 0.289500 0.494400
vt 0.382400 0.469800
vt 0.361800 0.521500
vt 0.401000 0.467700
vt 0.445000 0.521500
vt 0.414300 0.458500
vt 0.491600 0.475400
vt 0.413600 0.444700
vt 0.496700 0.419400
vt 0.396200 0.437600
vt 0.430200 0.371300
vt 0.136300 0.454800
vt 0.156100 0.463600
vt 0.179900 0.369200
vt 0.262800 0.433000
vt 0.156900 0.480200
vt 0.251400 0.504100
vt 0.139500 0.490300
vt 0.187300 0.559300
vt 0.117900 0.490800
vt 0.085600 0.553800
vt 0.101300 0.481700
vt 0.000000 0.517200
vt 0.096900 0.466700
vt 0.000000 0.447700
vt 0.112600 0.453900
vt 0.055800 0.386800
f 1/1/1 2/2/2 3/3/3
f 1/1/1 3/3/3 4/4/4
f 5/5/5 6/6/6 2/2/2
f 5/5/5 2/2/2 1/1/1
f 7/7/7 8/8/8 6/6/6
f 7/7/7 6/6/6 5/5/5
f 9/9/9 10/10/10 8/8/8
f 9/9/9 8/8/8 7/7/7
f 11/11/11 12/12/12 10/10/10
f 11/11/11 10/10/10 9/9/9
f 13/13/13 14/14/14 12/12/12
f 13/13/13 12/12/12 11/11/11
f 15/15/15 16/16/16 14/14/14
f 15/15/15 14/14/14 13/13/13
f 4/4/4 3/3/3 16/16/16
f 4/4/4 16/16/16 15/15/15
f 3/3/3 17/17/17 18/18/18
f 3/3/3 18/18/18 16/16/16
f 16/16/16 18/18/18 19/19/19
f 16/16/16 19/19/19 14/14/14
f 14/14/14 19/19/19 20/20/20
f 14/14/14 20/20/20 12/12/12
f 12/12/12 20/20/20 21/21/21
f 12/12/12 21/21/21 10/10/10
f 10/10/10 21/21/21 22/22/22
f 10/10/10 22/22/22 8/8/8
f 8/8/8 22/22/22 23/23/23
f 8/8/8 23/23/23 6/6/6
f 6/6/6 23/23/23 24/24/24
f 6/6/6 24/24/24 2/2/2
f 2/2/2 24/24/24 17/17/17
f 2/2/2 17/17/17 3/3/3
f 22/22/22 17/17/17 24/24/24
f 22/22/22 24/24/24 23/23/23
f 18/18/18 21/21/21 20/20/20
f 18/18/18 20/20/20 19/19/19
f 18/18/18 17/17/17 22/22/22
f 18/18/18 22/22/22 21/21/21
f 25/25/25 26/26/26 27/27/27
f 25/25/25 27/27/27 28/28/28
f 25/25/25 28/28/28 29/29/29
f 25/25/25 29/29/29 30/30/30
f 27/27/27 26/26/26 31/31/31
f 27/27/27 31/31/31 32/32/32
f 33/33/33 31/31/31 26/26/26
f 33/33/33 26/26/26 34/34/34
f 35/35/35 32/32/32 31/31/31
f 35/35/35 31/31/31 33/33/33
f 36/36/36 27/27/27 32/32/32
f 36/36/36 32/32/32 35/35/35
f 37/37/37 28/28/28 27/27/27
f 37/37/37 27/27/27 36/36/36
f 38/38/38 29/29/29 28/28/28
f 38/38/38 28/28/28 37/37/37
f 39/39/39 30/30/30 29/29/29
f 39/39/39 29/29/29 38/38/38
f 40/40/40 25/25/25 30/30/30
f 40/40/40 30/30/30 39/39/39
f 34/34/34 26/26/26 25/25/25
f 34/34/34 25/25/25 40/40/40
f 41/41/41 34/34/34 40/40/40
f 41/41/41 40/40/40 42/42/42
f 42/42/42 40/40/40 39/39/39
f 42/42/42 39/39/39 43/43/43
f 43/43/43 39/39/39 38/38/38
f 43/43/43 38/38/38 44/44/44
f 44/44/44 38/38/38 37/37/37
f 44/44/44 37/37/37 45/45/45
f 45/45/45 37/37/37 36/36/36
f 45/45/45 36/36/36 46/46/46
f 46/46/46 36/36/36 35/35/35
f 46/46/46 35/35/35 47/47/47
f 47/47/47 35/35/35 33/33/33
f 47/47/47 33/33/33 48/48/48
f 48/48/48 33/33/33 34/34/34
f 48/48/48 34/34/34 41/41/41
f 49/49/49 50/50/50 51/51/51
f 49/49/49 51/51/51 52/52/52
f 53/53/53 54/54/54 55/55/55
f 53/53/53 55/55/55 56/56/56
f 57/57/57 58/58/58 59/59/59
f 57/57/57 59/59/59 60/60/60
f 56/56/56 55/55/55 58/58/58
f 56/56/56 58/58/58 57/57/57
f 61/61/61 62/62/62 60/60/60
f 61/61/61 60/60/60 59/59/59
f 63/63/63 64/64/64 62/62/62
f 63/63/63 62/62/62 61/61/61
f 65/65/65 66/66/66 64/64/64
f 65/65/65 64/64/64 63/63/63
f 67/67/67 68/68/68 69/69/69
f 67/67/67 69/69/69 70/70/70
f 71/71/71 72/72/72 73/73/73
f 71/71/71 73/73/73 74/74/74
f 75/75/75 76/76/76 77/77/77
f 75/75/75 77/77/77 78/78/78
f 74/74/74 73/73/73 76/76/76
f 74/74/74 76/76/76 75/75/75
f 79/79/79 80/80/80 78/78/78
f 79/79/79 78/78/78 77/77/77
f 81/81/81 82/82/82 80/80/80
f 81/81/81 80/80/80 79/79/79
f 83/83/83 84/84/84 82/82/82
f 83/83/83 82/82/82 81/81/81
f 85/85/85 86/86/86 87/87/87
f 85/85/85 87/87/87 88/88/88
f 86/86/86 49/49/49 52/52/52
f 86/86/86 52/52/52 87/87/87
f 54/54/54 89/89/89 90/90/90
f 54/54/54 90/90/90 55/55/55
f 89/89/89 91/91/91 92/92/92
f 89/89/89 92/92/92 90/90/90
f 58/58/58 93/93/93 94/94/94
f 58/58/58 94/94/94 59/59/59
f 93/93/93 95/95/95 96/96/96
f 93/93/93 96/96/96 94/94/94
f 55/55/55 90/90/90 93/93/93
f 55/55/55 93/93/93 58/58/58
f 90/90/90 92/92/92 95/95/95
f 90/90/90 95/95/95 93/93/93
f 97/97/97 98/98/98 94/94/94
f 97/97/97 94/94/94 96/96/96
f 98/98/98 61/61/61 59/59/59
f 98/98/98 59/59/59 94/94/94
f 99/99/99 100/100/100 98/98/98
f 99/99/99 98/98/98 97/97/97
f 100/100/100 63/63/63 61/61/61
f 100/100/100 61/61/61 98/98/98
f 101/101/101 102/102/102 100/100/100
f 101/101/101 100/100/100 99/99/99
f 102/102/102 65/65/65 63/63/63
f 102/102/102 63/63/63 100/100/100
f 103/103/103 104/104/104 105/105/105
f 103/103/103 105/105/105 106/106/106
f 107/107/107 108/108/108 109/109/109
f 107/107/107 109/109/109 110/110/110
f 111/111/111 112/112/112 113/113/113
f 111/111/111 113/113/113 114/114/114
f 110/110/110 109/109/109 112/112/112
f 110/110/110 112/112/112 111/111/111
f 114/114/114 113/113/113 115/115/115
f 114/114/114 115/115/115 116/116/116
f 117/117/117 118/118/118 119/119/119
f 117/117/117 119/119/119 120/120/120
f 116/116/116 115/115/115 118/118/118
f 116/116/116 118/118/118 117/117/117
f 121/121/121 122/122/122 123/123/123
f 121/121/121 123/123/123 124/124/124
f 122/122/122 54/54/54 53/53/53
f 122/122/122 53/53/53 123/123/123
f 125/125/125 126/126/126 127/127/127
f 125/125/125 127/127/127 128/128/128
f 126/126/126 72/72/72 71/71/71
f 126/126/126 71/71/71 127/127/127
f 129/129/129 130/130/130 122/122/122
f 129/129/129 122/122/122 121/121/121
f 130/130/130 89/89/89 54/54/54
f 130/130/130 54/54/54 122/122/122
f 131/131/131 132/132/132 130/130/130
f 131/131/131 130/130/130 129/129/129
f 132/132/132 91/91/91 89/89/89
f 132/132/132 89/89/89 130/130/130
f 107/107/107 133/133/133 134/134/134
f 107/107/107 134/134/134 108/108/108
f 133/133/133 135/135/135 136/136/136
f 133/133/133 136/136/136 134/134/134
f 124/124/124 137/137/137 138/138/138
f 124/124/124 138/138/138 121/121/121
f 128/128/128 139/139/139 140/140/140
f 128/128/128 140/140/140 125/125/125
f 129/129/129 141/141/141 142/142/142
f 129/129/129 142/142/142 131/131/131
f 121/121/121 138/138/138 141/141/141
f 121/121/121 141/141/141 129/129/129
f 135/135/135 143/143/143 144/144/144
f 135/135/135 144/144/144 136/136/136
f 137/137/137 145/145/145 146/146/146
f 137/137/137 146/146/146 138/138/138
f 145/145/145 50/50/50 49/49/49
f 145/145/145 49/49/49 146/146/146
f 139/139/139 147/147/147 148/148/148
f 139/139/139 148/148/148 140/140/140
f 147/147/147 68/68/68 67/67/67
f 147/147/147 67/67/67 148/148/148
f 141/141/141 149/149/149 150/150/150
f 141/141/141 150/150/150 142/142/142
f 149/149/149 86/86/86 85/85/85
f 149/149/149 85/85/85 150/150/150
f 138/138/138 146/146/146 149/149/149
f 138/138/138 149/149/149 141/141/141
f 146/146/146 49/49/49 86/86/86
f 146/146/146 86/86/86 149/149/149
f 143/143/143 151/151/151 152/152/152
f 143/143/143 152/152/152 144/144/144
f 151/151/151 104/104/104 103/103/103
f 151/151/151 103/103/103 152/152/152
f 153/153/153 154/154/154 155/155/155
f 153/153/153 155/155/155 156/156/156
f 157/157/157 158/158/158 159/159/159
f 157/157/157 159/159/159 160/160/160
f 161/161/161 162/162/162 163/163/163
f 161/161/161 163/163/163 164/164/164
f 160/160/160 159/159/159 162/162/162
f 160/160/160 162/162/162 161/161/161
f 164/164/164 163/163/163 165/165/165
f 164/164/164 165/165/165 166/166/166
f 167/167/167 168/168/168 169/169/169
f 167/167/167 169/169/169 170/170/170
f 166/166/166 165/165/165 168/168/168
f 166/166/166 168/168/168 167/167/167
f 171/171/171 172/172/172 158/158/158
f 171/171/171 158/158/158 157/157/157
f 173/173/173 174/174/174 172/172/172
f 173/173/173 172/172/172 171/171/171
f 175/175/175 176/176/176 174/174/174
f 175/175/175 174/174/174 173/173/173
f 177/177/177 178/178/178 176/176/176
f 177/177/177 176/176/176 175/175/175
f 154/154/154 153/153/153 178/178/178
f 154/154/154 178/178/178 177/177/177
f 179/179/179 180/180/180 181/181/181
f 179/179/179 181/181/181 182/182/182
f 180/180/180 153/153/153 156/156/156
f 180/180/180 156/156/156 181/181/181
f 158/158/158 183/183/183 184/184/184
f 158/158/158 184/184/184 159/159/159
f 183/183/183 185/185/185 186/186/186
f 183/183/183 186/186/186 184/184/184
f 162/162/162 187/187/187 188/188/188
f 162/162/162 188/188/188 163/163/163
f 187/187/187 189/189/189 190/190/190
f 187/187/187 190/190/190 188/188/188
f 159/159/159 184/184/184 187/187/187
f 159/159/159 187/187/187 162/162/162
f 184/184/184 186/186/186 189/189/189
f 184/184/184 189/189/189 187/187/187
f 163/163/163 188/188/188 191/191/191
f 163/163/163 191/191/191 165/165/165
f 188/188/188 190/190/190 192/192/192
f 188/188/188 192/192/192 191/191/191
f 168/168/168 193/193/193 194/194/194
f 168/168/168 194/194/194 169/169/169
f 193/193/193 195/195/195 196/196/196
f 193/193/193 196/196/196 194/194/194
f 165/165/165 191/191/191 193/193/193
f 165/165/165 193/193/193 168/168/168
f 191/191/191 192/192/192 195/195/195
f 191/191/191 195/195/195 193/193/193
f 172/172/172 197/197/197 183/183/183
f 172/172/172 183/183/183 158/158/158
f 197/197/197 198/198/198 185/185/185
f 197/197/197 185/185/185 183/183/183
f 174/174/174 199/199/199 197/197/197
f 174/174/174 197/197/197 172/172/172
f 199/199/199 200/200/200 198/198/198
f 199/199/199 198/198/198 197/197/197
f 176/176/176 201/201/201 199/199/199
f 176/176/176 199/199/199 174/174/174
f 201/201/201 202/202/202 200/200/200
f 201/201/201 200/200/200 199/199/199
f 178/178/178 203/203/203 201/201/201
f 178/178/178 201/201/201 176/176/176
f 203/203/203 204/204/204 202/202/202
f 203/203/203 202/202/202 201/201/201
f 153/153/153 180/180/180 203/203/203
f 153/153/153 203/203/203 178/178/178
f 180/180/180 179/179/179 204/204/204
f 180/180/180 204/204/204 203/203/203
f 68/68/68 205/205/205 206/206/206
f 68/68/68 206/206/206 69/69/69
f 205/205/205 207/207/207 208/208/208
f 205/205/205 208/208/208 206/206/206
f 209/209/209 210/210/210 211/211/211
f 209/209/209 211/211/211 212/212/212
f 210/210/210 71/71/71 74/74/74
f 210/210/210 74/74/74 211/211/211
f 213/213/213 214/214/214 215/215/215
f 213/213/213 215/215/215 216/216/216
f 214/214/214 75/75/75 78/78/78
f 214/214/214 78/78/78 215/215/215
f 212/212/212 211/211/211 214/214/214
f 212/212/212 214/214/214 213/213/213
f 211/211/211 74/74/74 75/75/75
f 211/211/211 75/75/75 214/214/214
f 80/80/80 217/217/217 215/215/215
f 80/80/80 215/215/215 78/78/78
f 217/217/217 218/218/218 216/216/216
f 217/217/217 216/216/216 215/215/215
f 82/82/82 219/219/219 217/217/217
f 82/82/82 217/217/217 80/80/80
f 219/219/219 220/220/220 218/218/218
f 219/219/219 218/218/218 217/217/217
f 84/84/84 221/221/221 219/219/219
f 84/84/84 219/219/219 82/82/82
f 221/221/221 222/222/222 220/220/220
f 221/221/221 220/220/220 219/219/219
f 127/127/127 223/223/223 224/224/224
f 127/127/127 224/224/224 128/128/128
f 223/223/223 225/225/225 226/226/226
f 223/223/223 226/226/226 224/224/224
f 71/71/71 210/210/210 223/223/223
f 71/71/71 223/223/223 127/127/127
f 210/210/210 209/209/209 225/225/225
f 210/210/210 225/225/225 223/223/223
f 227/227/227 228/228/228 224/224/224
f 227/227/227 224/224/224 226/226/226
f 228/228/228 139/139/139 128/128/128
f 228/228/228 128/128/128 224/224/224
f 229/229/229 230/230/230 228/228/228
f 229/229/229 228/228/228 227/227/227
f 230/230/230 147/147/147 139/139/139
f 230/230/230 139/139/139 228/228/228
f 207/207/207 205/205/205 230/230/230
f 207/207/207 230/230/230 229/229/229
f 205/205/205 68/68/68 147/147/147
f 205/205/205 147/147/147 230/230/230
f 231/231/231 232/232/232 233/233/233
f 231/231/231 233/233/233 234/234/234
f 232/232/232 103/103/103 106/106/106
f 232/232/232 106/106/106 233/233/233
f 108/108/108 235/235/235 236/236/236
f 108/108/108 236/236/236 109/109/109
f 235/235/235 237/237/237 238/238/238
f 235/235/235 238/238/238 236/236/236
f 112/112/112 239/239/239 240/240/240
f 112/112/112 240/240/240 113/113/113
f 239/239/239 241/241/241 242/242/242
f 239/239/239 242/242/242 240/240/240
f 109/109/109 236/236/236 239/239/239
f 109/109/109 239/239/239 112/112/112
f 236/236/236 238/238/238 241/241/241
f 236/236/236 241/241/241 239/239/239
f 113/113/113 240/240/240 243/243/243
f 113/113/113 243/243/243 115/115/115
f 240/240/240 242/242/242 244/244/244
f 240/240/240 244/244/244 243/243/243
f 118/118/118 245/245/245 246/246/246
f 118/118/118 246/246/246 119/119/119
f 245/245/245 247/247/247 248/248/248
f 245/245/245 248/248/248 246/246/246
f 115/115/115 243/243/243 245/245/245
f 115/115/115 245/245/245 118/118/118
f 243/243/243 244/244/244 247/247/247
f 243/243/243 247/247/247 245/245/245
f 134/134/134 249/249/249 235/235/235
f 134/134/134 235/235/235 108/108/108
f 249/249/249 250/250/250 237/237/237
f 249/249/249 237/237/237 235/235/235
f 136/136/136 251/251/251 249/249/249
f 136/136/136 249/249/249 134/134/134
f 251/251/251 252/252/252 250/250/250
f 251/251/251 250/250/250 249/249/249
f 144/144/144 253/253/253 251/251/251
f 144/144/144 251/251/251 136/136/136
f 253/253/253 254/254/254 252/252/252
f 253/253/253 252/252/252 251/251/251
f 152/152/152 255/255/255 253/253/253
f 152/152/152 253/253/253 144/144/144
f 255/255/255 256/256/256 254/254/254
f 255/255/255 254/254/254 253/253/253
f 103/103/103 232/232/232 255/255/255
f 103/103/103 255/255/255 152/152/152
f 232/232/232 231/231/231 256/256/256
f 232/232/232 256/256/256 255/255/255
f 257/257/257 258/258/258 259/259/259
f 257/257/257 259/259/259 260/260/260
f 258/258/258 261/261/261 262/262/262
f 258/258/258 262/262/262 259/259/259
f 260/260/260 259/259/259 263/263/263
f 260/260/260 263/263/263 264/264/264
f 259/259/259 262/262/262 265/265/265
f 259/259/259 265/265/265 263/263/263
f 266/266/266 267/267/267 258/258/258
f 266/266/266 258/258/258 257/257/257
f 267/267/267 268/268/268 261/261/261
f 267/267/267 261/261/261 258/258/258
f 269/269/269 270/270/270 267/267/267
f 269/269/269 267/267/267 266/266/266
f 270/270/270 271/271/271 268/268/268
f 270/270/270 268/268/268 267/267/267
f 272/272/272 273/273/273 270/270/270
f 272/272/272 270/270/270 269/269/269
f 273/273/273 274/274/274 271/271/271
f 273/273/273 271/271/271 270/270/270
f 275/275/275 276/276/276 277/277/277
f 275/275/275 277/277/277 278/278/278
f 276/276/276 279/279/279 280/280/280
f 276/276/276 280/280/280 277/277/277
f 281/281/281 282/282/282 276/276/276
f 281/281/281 276/276/276 275/275/275
f 282/282/282 283/283/283 279/279/279
f 282/282/282 279/279/279 276/276/276
f 284/284/284 285/285/285 282/282/282
f 284/284/284 282/282/282 281/281/281
f 285/285/285 286/286/286 283/283/283
f 285/285/285 283/283/283 282/282/282
f 287/287/287 288/288/288 285/285/285
f 287/287/287 285/285/285 284/284/284
f 288/288/288 289/289/289 286/286/286
f 288/288/288 286/286/286 285/285/285
f 264/264/264 263/263/263 288/288/288
f 264/264/264 288/288/288 287/287/287
f 263/263/263 265/265/265 289/289/289
f 263/263/263 289/289/289 288/288/288
f 290/290/290 291/291/291 273/273/273
f 290/290/290 273/273/273 272/272/272
f 291/291/291 292/292/292 274/274/274
f 291/291/291 274/274/274 273/273/273
f 278/278/278 277/277/277 291/291/291
f 278/278/278 291/291/291 290/290/290
f 277/277/277 280/280/280 292/292/292
f 277/277/277 292/292/292 291/291/291
f 293/293/293 294/294/294 295/295/295
f 293/293/293 295/295/295 296/296/296
f 294/294/294 257/257/257 260/260/260
f 294/294/294 260/260/260 295/295/295
f 296/296/296 295/295/295 297/297/297
f 296/296/296 297/297/297 298/298/298
f 295/295/295 260/260/260 264/264/264
f 295/295/295 264/264/264 297/297/297
f 299/299/299 300/300/300 294/294/294
f 299/299/299 294/294/294 293/293/293
f 300/300/300 266/266/266 257/257/257
f 300/300/300 257/257/257 294/294/294
f 301/301/301 302/302/302 300/300/300
f 301/301/301 300/300/300 299/299/299
f 302/302/302 269/269/269 266/266/266
f 302/302/302 266/266/266 300/300/300
f 303/303/303 304/304/304 302/302/302
f 303/303/303 302/302/302 301/301/301
f 304/304/304 272/272/272 269/269/269
f 304/304/304 269/269/269 302/302/302
f 305/305/305 306/306/306 307/307/307
f 305/305/305 307/307/307 308/308/308
f 306/306/306 275/275/275 278/278/278
f 306/306/306 278/278/278 307/307/307
f 309/309/309 310/310/310 306/306/306
f 309/309/309 306/306/306 305/305/305
f 310/310/310 281/281/281 275/275/275
f 310/310/310 275/275/275 306/306/306
f 311/311/311 312/312/312 310/310/310
f 311/311/311 310/310/310 309/309/309
f 312/312/312 284/284/284 281/281/281
f 312/312/312 281/281/281 310/310/310
f 313/313/313 314/314/314 312/312/312
f 313/313/313 312/312/312 311/311/311
f 314/314/314 287/287/287 284/284/284
f 314/314/314 284/284/284 312/312/312
f 298/298/298 297/297/297 314/314/314
f 298/298/298 314/314/314 313/313/313
f 297/297/297 264/264/264 287/287/287
f 297/297/297 287/287/287 314/314/314
f 315/315/315 316/316/316 304/304/304
f 315/315/315 304/304/304 303/303/303
f 316/316/316 290/290/290 272/272/272
f 316/316/316 272/272/272 304/304/304
f 308/308/308 307/307/307 316/316/316
f 308/308/308 316/316/316 315/315/315
f 307/307/307 278/278/278 290/290/290
f 307/307/307 290/290/290 316/316/316
f 317/317/317 318/318/318 319/319/319
f 317/317/317 319/319/319 320/320/320
f 320/320/320 319/319/319 321/321/321
f 320/320/320 321/321/321 322/322/322
f 323/323/323 324/324/324 318/318/318
f 323/323/323 318/318/318 317/317/317
f 325/325/325 326/326/326 324/324/324
f 325/325/325 324/324/324 323/323/323
f 327/327/327 328/328/328 326/326/326
f 327/327/327 326/326/326 325/325/325
f 329/329/329 330/330/330 331/331/331
f 329/329/329 331/331/331 332/332/332
f 333/333/333 334/334/334 330/330/330
f 333/333/333 330/330/330 329/329/329
f 335/335/335 336/336/336 334/334/334
f 335/335/335 334/334/334 333/333/333
f 337/337/337 338/338/338 336/336/336
f 337/337/337 336/336/336 335/335/335
f 322/322/322 321/321/321 338/338/338
f 322/322/322 338/338/338 337/337/337
f 339/339/339 340/340/340 328/328/328
f 339/339/339 328/328/328 327/327/327
f 332/332/332 331/331/331 340/340/340
f 332/332/332 340/340/340 339/339/339
f 341/341/341 342/342/342 343/343/343
f 341/341/341 343/343/343 344/344/344
f 345/345/345 346/346/346 342/342/342
f 345/345/345 342/342/342 341/341/341
f 347/347/347 348/348/348 349/349/349
f 347/347/347 349/349/349 350/350/350
f 344/344/344 343/343/343 348/348/348
f 344/344/344 348/348/348 347/347/347
f 351/351/351 352/352/352 350/350/350
f 351/351/351 350/350/350 349/349/349
f 353/353/353 354/354/354 355/355/355
f 353/353/353 355/355/355 356/356/356
f 357/357/357 358/358/358 354/354/354
f 357/357/357 354/354/354 353/353/353
f 359/359/359 360/360/360 358/358/358
f 359/359/359 358/358/358 357/357/357
f 361/361/361 362/362/362 346/346/346
f 361/361/361 346/346/346 345/345/345
f 360/360/360 359/359/359 362/362/362
f 360/360/360 362/362/362 361/361/361
f 363/363/363 364/364/364 352/352/352
f 363/363/363 352/352/352 351/351/351
f 356/356/356 355/355/355 364/364/364
f 356/356/356 364/364/364 363/363/363
f 342/342/342 365/365/365 366/366/366
f 342/342/342 366/366/366 343/343/343
f 365/365/365 367/367/367 368/368/368
f 365/365/365 368/368/368 366/366/366
f 346/346/346 369/369/369 365/365/365
f 346/346/346 365/365/365 342/342/342
f 369/369/369 370/370/370 367/367/367
f 369/369/369 367/367/367 365/365/365
f 348/348/348 371/371/371 372/372/372
f 348/348/348 372/372/372 349/349/349
f 371/371/371 373/373/373 374/374/374
f 371/371/371 374/374/374 372/372/372
f 343/343/343 366/366/366 371/371/371
f 343/343/343 371/371/371 348/348/348
f 366/366/366 368/368/368 373/373/373
f 366/366/366 373/373/373 371/371/371
f 375/375/375 376/376/376 372/372/372
f 375/375/375 372/372/372 374/374/374
f 376/376/376 351/351/351 349/349/349
f 376/376/376 349/349/349 372/372/372
f 377/377/377 378/378/378 379/379/379
f 377/377/377 379/379/379 380/380/380
f 378/378/378 353/353/353 356/356/356
f 378/378/378 356/356/356 379/379/379
f 381/381/381 382/382/382 378/378/378
f 381/381/381 378/378/378 377/377/377
f 382/382/382 357/357/357 353/353/353
f 382/382/382 353/353/353 378/378/378
f 383/383/383 384/384/384 382/382/382
f 383/383/383 382/382/382 381/381/381
f 384/384/384 359/359/359 357/357/357
f 384/384/384 357/357/357 382/382/382
f 362/362/362 385/385/385 369/369/369
f 362/362/362 369/369/369 346/346/346
f 385/385/385 386/386/386 370/370/370
f 385/385/385 370/370/370 369/369/369
f 359/359/359 384/384/384 385/385/385
f 359/359/359 385/385/385 362/362/362
f 384/384/384 383/383/383 386/386/386
f 384/384/384 386/386/386 385/385/385
f 387/387/387 388/388/388 376/376/376
f 387/387/387 376/376/376 375/375/375
f 388/388/388 363/363/363 351/351/351
f 388/388/388 351/351/351 376/376/376
f 380/380/380 379/379/379 388/388/388
f 380/380/380 388/388/388 387/387/387
f 379/379/379 356/356/356 363/363/363
f 379/379/379 363/363/363 388/388/388
f 367/367/367 389/389/389 390/390/390
f 367/367/367 390/390/390 368/368/368
f 370/370/370 391/391/391 389/389/389
f 370/370/370 389/389/389 367/367/367
f 373/373/373 392/392/392 393/393/393
f 373/373/373 393/393/393 374/374/374
f 368/368/368 390/390/390 392/392/392
f 368/368/368 392/392/392 373/373/373
f 394/394/394 375/375/375 374/374/374
f 394/394/394 374/374/374 393/393/393
f 395/395/395 377/377/377 380/380/380
f 395/395/395 380/380/380 396/396/396
f 397/397/397 381/381/381 377/377/377
f 397/397/397 377/377/377 395/395/395
f 398/398/398 383/383/383 381/381/381
f 398/398/398 381/381/381 397/397/397
f 386/386/386 399/399/399 391/391/391
f 386/386/386 391/391/391 370/370/370
f 383/383/383 398/398/398 399/399/399
f 383/383/383 399/399/399 386/386/386
f 400/400/400 387/387/387 375/375/375
f 400/400/400 375/375/375 394/394/394
f 396/396/396 380/380/380 387/387/387
f 396/396/396 387/387/387 400/400/400
f 401/401/401 402/402/402 403/403/403
f 401/401/401 403/403/403 404/404/404
f 402/402/402 341/341/341 344/344/344
f 402/402/402 344/344/344 403/403/403
f 405/405/405 406/406/406 402/402/402
f 405/405/405 402/402/402 401/401/401
f 406/406/406 345/345/345 341/341/341
f 406/406/406 341/341/341 402/402/402
f 407/407/407 408/408/408 409/409/409
f 407/407/407 409/409/409 410/410/410
f 408/408/408 347/347/347 350/350/350
f 408/408/408 350/350/350 409/409/409
f 404/404/404 403/403/403 408/408/408
f 404/404/404 408/408/408 407/407/407
f 403/403/403 344/344/344 347/347/347
f 403/403/403 347/347/347 408/408/408
f 352/352/352 411/411/411 409/409/409
f 352/352/352 409/409/409 350/350/350
f 411/411/411 412/412/412 410/410/410
f 411/411/411 410/410/410 409/409/409
f 354/354/354 413/413/413 414/414/414
f 354/354/354 414/414/414 355/355/355
f 413/413/413 415/415/415 416/416/416
f 413/413/413 416/416/416 414/414/414
f 358/358/358 417/417/417 413/413/413
f 358/358/358 413/413/413 354/354/354
f 417/417/417 418/418/418 415/415/415
f 417/417/417 415/415/415 413/413/413
f 360/360/360 419/419/419 417/417/417
f 360/360/360 417/417/417 358/358/358
f 419/419/419 420/420/420 418/418/418
f 419/419/419 418/418/418 417/417/417
f 421/421/421 422/422/422 406/406/406
f 421/421/421 406/406/406 405/405/405
f 422/422/422 361/361/361 345/345/345
f 422/422/422 345/345/345 406/406/406
f 420/420/420 419/419/419 422/422/422
f 420/420/420 422/422/422 421/421/421
f 419/419/419 360/360/360 361/361/361
f 419/419/419 361/361/361 422/422/422
f 364/364/364 423/423/423 411/411/411
f 364/364/364 411/411/411 352/352/352
f 423/423/423 424/424/424 412/412/412
f 423/423/423 412/412/412 411/411/411
f 355/355/355 414/414/414 423/423/423
f 355/355/355 423/423/423 364/364/364
f 414/414/414 416/416/416 424/424/424
f 414/414/414 424/424/424 423/423/423
f 425/425/425 401/401/401 404/404/404
f 425/425/425 404/404/404 426/426/426
f 427/427/427 405/405/405 401/401/401
f 427/427/427 401/401/401 425/425/425
f 428/428/428 407/407/407 410/410/410
f 428/428/428 410/410/410 429/429/429
f 426/426/426 404/404/404 407/407/407
f 426/426/426 407/407/407 428/428/428
f 412/412/412 430/430/430 429/429/429
f 412/412/412 429/429/429 410/410/410
f 415/415/415 431/431/431 432/432/432
f 415/415/415 432/432/432 416/416/416
f 418/418/418 433/433/433 431/431/431
f 418/418/418 431/431/431 415/415/415
f 420/420/420 434/434/434 433/433/433
f 420/420/420 433/433/433 418/418/418
f 435/435/435 421/421/421 405/405/405
f 435/435/435 405/405/405 427/427/427
f 434/434/434 420/420/420 421/421/421
f 434/434/434 421/421/421 435/435/435
f 424/424/424 436/436/436 430/430/430
f 424/424/424 430/430/430 412/412/412
f 416/416/416 432/432/432 436/436/436
f 416/416/416 436/436/436 424/424/424
f 437/437/437 438/438/438 439/439/439
f 437/437/437 439/439/439 440/440/440
f 438/438/438 425/425/425 426/426/426
f 438/438/438 426/426/426 439/439/439
f 441/441/441 442/442/442 438/438/438
f 441/441/441 438/438/438 437/437/437
f 442/442/442 427/427/427 425/425/425
f 442/442/442 425/425/425 438/438/438
f 443/443/443 444/444/444 445/445/445
f 443/443/443 445/445/445 446/446/446
f 444/444/444 428/428/428 429/429/429
f 444/444/444 429/429/429 445/445/445
f 440/440/440 439/439/439 444/444/444
f 440/440/440 444/444/444 443/443/443
f 439/439/439 426/426/426 428/428/428
f 439/439/439 428/428/428 444/444/444
f 430/430/430 447/447/447 445/445/445
f 430/430/430 445/445/445 429/429/429
f 447/447/447 448/448/448 446/446/446
f 447/447/447 446/446/446 445/445/445
f 431/431/431 449/449/449 450/450/450
f 431/431/431 450/450/450 432/432/432
f 449/449/449 451/451/451 452/452/452
f 449/449/449 452/452/452 450/450/450
f 433/433/433 453/453/453 449/449/449
f 433/433/433 449/449/449 431/431/431
f 453/453/453 454/454/454 451/451/451
f 453/453/453 451/451/451 449/449/449
f 434/434/434 455/455/455 453/453/453
f 434/434/434 453/453/453 433/433/433
f 455/455/455 456/456/456 454/454/454
f 455/455/455 454/454/454 453/453/453
f 457/457/457 458/458/458 442/442/442
f 457/457/457 442/442/442 441/441/441
f 458/458/458 435/435/435 427/427/427
f 458/458/458 427/427/427 442/442/442
f 456/456/456 455/455/455 458/458/458
f 456/456/456 458/458/458 457/457/457
f 455/455/455 434/434/434 435/435/435
f 455/455/455 435/435/435 458/458/458
f 436/436/436 459/459/459 447/447/447
f 436/436/436 447/447/447 430/430/430
f 459/459/459 460/460/460 448/448/448
f 459/459/459 448/448/448 447/447/447
f 432/432/432 450/450/450 459/459/459
f 432/432/432 459/459/459 436/436/436
f 450/450/450 452/452/452 460/460/460
f 450/450/450 460/460/460 459/459/459
f 461/461/461 437/437/437 440/440/440
f 461/461/461 440/440/440 462/462/462
f 463/463/463 441/441/441 437/437/437
f 463/463/463 437/437/437 461/461/461
f 464/464/464 443/443/443 446/446/446
f 464/464/464 446/446/446 465/465/465
f 462/462/462 440/440/440 443/443/443
f 462/462/462 443/443/443 464/464/464
f 448/448/448 466/466/466 465/465/465
f 448/448/448 465/465/465 446/446/446
f 451/451/451 467/467/467 468/468/468
f 451/451/451 468/468/468 452/452/452
f 454/454/454 469/469/469 467/467/467
f 454/454/454 467/467/467 451/451/451
f 456/456/456 470/470/470 469/469/469
f 456/456/456 469/469/469 454/454/454
f 471/471/471 457/457/457 441/441/441
f 471/471/471 441/441/441 463/463/463
f 470/470/470 456/456/456 457/457/457
f 470/470/470 457/457/457 471/471/471
f 460/460/460 472/472/472 466/466/466
f 460/460/460 466/466/466 448/448/448
f 452/452/452 468/468/468 472/472/472
f 452/452/452 472/472/472 460/460/460
f 473/473/473 474/474/474 475/475/475
f 473/473/473 475/475/475 476/476/476
f 474/474/474 461/461/461 462/462/462
f 474/474/474 462/462/462 475/475/475
f 477/477/477 478/478/478 474/474/474
f 477/477/477 474/474/474 473/473/473
f 478/478/478 463/463/463 461/461/461
f 478/478/478 461/461/461 474/474/474
f 479/479/479 480/480/480 481/481/481
f 479/479/479 481/481/481 482/482/482
f 480/480/480 464/464/464 465/465/465
f 480/480/480 465/465/465 481/481/481
f 476/476/476 475/475/475 480/480/480
f 476/476/476 480/480/480 479/479/479
f 475/475/475 462/462/462 464/464/464
f 475/475/475 464/464/464 480/480/480
f 466/466/466 483/483/483 481/481/481
f 466/466/466 481/481/481 465/465/465
f 483/483/483 484/484/484 482/482/482
f 483/483/483 482/482/482 481/481/481
f 467/467/467 485/485/485 486/486/486
f 467/467/467 486/486/486 468/468/468
f 485/485/485 487/487/487 488/488/488
f 485/485/485 488/488/488 486/486/486
f 469/469/469 489/489/489 485/485/485
f 469/469/469 485/485/485 467/467/467
f 489/489/489 490/490/490 487/487/487
f 489/489/489 487/487/487 485/485/485
f 470/470/470 491/491/491 489/489/489
f 470/470/470 489/489/489 469/469/469
f 491/491/491 492/492/492 490/490/490
f 491/491/491 490/490/490 489/489/489
f 493/493/493 494/494/494 478/478/478
f 493/493/493 478/478/478 477/477/477
f 494/494/494 471/471/471 463/463/463
f 494/494/494 463/463/463 478/478/478
f 492/492/492 491/491/491 494/494/494
f 492/492/492 494/494/494 493/493/493
f 491/491/491 470/470/470 471/471/471
f 491/491/491 471/471/471 494/494/494
f 472/472/472 495/495/495 483/483/483
f 472/472/472 483/483/483 466/466/466
f 495/495/495 496/496/496 484/484/484
f 495/495/495 484/484/484 483/483/483
f 468/468/468 486/486/486 495/495/495
f 468/468/468 495/495/495 472/472/472
f 486/486/486 488/488/488 496/496/496
f 486/486/486 496/496/496 495/495/495
f 476/476/476 497/497/497 498/498/498
f 476/476/476 498/498/498 473/473/473
f 497/497/497 317/317/317 320/320/320
f 497/497/497 320/320/320 498/498/498
f 473/473/473 498/498/498 499/499/499
f 473/473/473 499/499/499 477/477/477
f 498/498/498 320/320/320 322/322/322
f 498/498/498 322/322/322 499/499/499
f 479/479/479 500/500/500 497/497/497
f 479/479/479 497/497/497 476/476/476
f 500/500/500 323/323/323 317/317/317
f 500/500/500 317/317/317 497/497/497
f 482/482/482 501/501/501 500/500/500
f 482/482/482 500/500/500 479/479/479
f 501/501/501 325/325/325 323/323/323
f 501/501/501 323/323/323 500/500/500
f 484/484/484 502/502/502 501/501/501
f 484/484/484 501/501/501 482/482/482
f 502/502/502 327/327/327 325/325/325
f 502/502/502 325/325/325 501/501/501
f 487/487/487 503/503/503 504/504/504
f 487/487/487 504/504/504 488/488/488
f 503/503/503 329/329/329 332/332/332
f 503/503/503 332/332/332 504/504/504
f 490/490/490 505/505/505 503/503/503
f 490/490/490 503/503/503 487/487/487
f 505/505/505 333/333/333 329/329/329
f 505/505/505 329/329/329 503/503/503
f 492/492/492 506/506/506 505/505/505
f 492/492/492 505/505/505 490/490/490
f 506/506/506 335/335/335 333/333/333
f 506/506/506 333/333/333 505/505/505
f 493/493/493 507/507/507 506/506/506
f 493/493/493 506/506/506 492/492/492
f 507/507/507 337/337/337 335/335/335
f 507/507/507 335/335/335 506/506/506
f 477/477/477 499/499/499 507/507/507
f 477/477/477 507/507/507 493/493/493
f 499/499/499 322/322/322 337/337/337
f 499/499/499 337/337/337 507/507/507
f 496/496/496 508/508/508 502/502/502
f 496/496/496 502/502/502 484/484/484
f 508/508/508 339/339/339 327/327/327
f 508/508/508 327/327/327 502/502/502
f 488/488/488 504/504/504 508/508/508
f 488/488/488 508/508/508 496/496/496
f 504/504/504 332/332/332 339/339/339
f 504/504/504 339/339/339 508/508/508
f 389/389/389 509/509/509 510/510/510
f 389/389/389 510/510/510 390/390/390
f 509/509/509 511/511/511 512/512/512
f 509/509/509 512/512/512 510/510/510
f 391/391/391 513/513/513 509/509/509
f 391/391/391 509/509/509 389/389/389
f 513/513/513 514/514/514 511/511/511
f 513/513/513 511/511/511 509/509/509
f 392/392/392 515/515/515 516/516/516
f 392/392/392 516/516/516 393/393/393
f 515/515/515 517/517/517 518/518/518
f 515/515/515 518/518/518 516/516/516
f 390/390/390 510/510/510 515/515/515
f 390/390/390 515/515/515 392/392/392
f 510/510/510 512/512/512 517/517/517
f 510/510/510 517/517/517 515/515/515
f 519/519/519 520/520/520 516/516/516
f 519/519/519 516/516/516 518/518/518
f 520/520/520 394/394/394 393/393/393
f 520/520/520 393/393/393 516/516/516
f 521/521/521 522/522/522 523/523/523
f 521/521/521 523/523/523 524/524/524
f 522/522/522 395/395/395 396/396/396
f 522/522/522 396/396/396 523/523/523
f 525/525/525 526/526/526 522/522/522
f 525/525/525 522/522/522 521/521/521
f 526/526/526 397/397/397 395/395/395
f 526/526/526 395/395/395 522/522/522
f 527/527/527 528/528/528 526/526/526
f 527/527/527 526/526/526 525/525/525
f 528/528/528 398/398/398 397/397/397
f 528/528/528 397/397/397 526/526/526
f 399/399/399 529/529/529 513/513/513
f 399/399/399 513/513/513 391/391/391
f 529/529/529 530/530/530 514/514/514
f 529/529/529 514/514/514 513/513/513
f 398/398/398 528/528/528 529/529/529
f 398/398/398 529/529/529 399/399/399
f 528/528/528 527/527/527 530/530/530
f 528/528/528 530/530/530 529/529/529
f 531/531/531 532/532/532 520/520/520
f 531/531/531 520/520/520 519/519/519
f 532/532/532 400/400/400 394/394/394
f 532/532/532 394/394/394 520/520/520
f 533/533/533 523/523/523 532/532/532
f 533/533/533 532/532/532 531/531/531
f 523/523/523 396/396/396 400/400/400
f 523/523/523 400/400/400 532/532/532
f 534/534/534 535/535/535 536/536/536
f 534/534/534 536/536/536 537/537/537
f 535/535/535 4/4/4 15/15/15
f 535/535/535 15/15/15 536/536/536
f 537/537/537 536/536/536 538/538/538
f 537/537/537 538/538/538 539/539/539
f 536/536/536 15/15/15 13/13/13
f 536/536/536 13/13/13 538/538/538
f 539/539/539 538/538/538 540/540/540
f 539/539/539 540/540/540 541/541/541
f 538/538/538 13/13/13 11/11/11
f 538/538/538 11/11/11 540/540/540
f 541/541/541 540/540/540 542/542/542
f 541/541/541 542/542/542 543/543/543
f 540/540/540 11/11/11 9/9/9
f 540/540/540 9/9/9 542/542/542
f 543/543/543 542/542/542 544/544/544
f 543/543/543 544/544/544 545/545/545
f 542/542/542 9/9/9 7/7/7
f 542/542/542 7/7/7 544/544/544
f 545/545/545 544/544/544 546/546/546
f 545/545/545 546/546/546 547/547/547
f 544/544/544 7/7/7 5/5/5
f 544/544/544 5/5/5 546/546/546
f 547/547/547 546/546/546 548/548/548
f 547/547/547 548/548/548 549/549/549
f 546/546/546 5/5/5 1/1/1
f 546/546/546 1/1/1 548/548/548
f 549/549/549 548/548/548 535/535/535
f 549/549/549 535/535/535 534/534/534
f 548/548/548 1/1/1 4/4/4
f 548/548/548 4/4/4 535/535/535
f 537/537/537 550/550/550 551/551/551
f 537/537/537 551/551/551 534/534/534
f 539/539/539 552/552/552 550/550/550
f 539/539/539 550/550/550 537/537/537
f 541/541/541 553/553/553 552/552/552
f 541/541/541 552/552/552 539/539/539
f 543/543/543 554/554/554 553/553/553
f 543/543/543 553/553/553 541/541/541
f 545/545/545 555/555/555 554/554/554
f 545/545/545 554/554/554 543/543/543
f 547/547/547 556/556/556 555/555/555
f 547/547/547 555/555/555 545/545/545
f 549/549/549 557/557/557 556/556/556
f 549/549/549 556/556/556 547/547/547
f 534/534/534 551/551/551 557/557/557
f 534/534/534 557/557/557 549/549/549
f 550/550/550 558/558/558 559/559/559
f 550/550/550 559/559/559 551/551/551
f 558/558/558 560/560/560 561/561/561
f 558/558/558 561/561/561 559/559/559
f 552/552/552 562/562/562 558/558/558
f 552/552/552 558/558/558 550/550/550
f 562/562/562 563/563/563 560/560/560
f 562/562/562 560/560/560 558/558/558
f 553/553/553 564/564/564 562/562/562
f 553/553/553 562/562/562 552/552/552
f 564/564/564 565/565/565 563/563/563
f 564/564/564 563/563/563 562/562/562
f 554/554/554 566/566/566 564/564/564
f 554/554/554 564/564/564 553/553/553
f 566/566/566 567/567/567 565/565/565
f 566/566/566 565/565/565 564/564/564
f 555/555/555 568/568/568 566/566/566
f 555/555/555 566/566/566 554/554/554
f 568/568/568 569/569/569 567/567/567
f 568/568/568 567/567/567 566/566/566
f 556/556/556 570/570/570 568/568/568
f 556/556/556 568/568/568 555/555/555
f 570/570/570 571/571/571 569/569/569
f 570/570/570 569/569/569 568/568/568
f 557/557/557 572/572/572 570/570/570
f 557/557/557 570/570/570 556/556/556
f 572/572/572 573/573/573 571/571/571
f 572/572/572 571/571/571 570/570/570
f 551/551/551 559/559/559 572/572/572
f 551/551/551 572/572/572 557/557/557
f 559/559/559 561/561/561 573/573/573
f 559/559/559 573/573/573 572/572/572
f 574/574/574 575/575/575 576/576/576
f 574/574/574 576/576/576 577/577/577
f 575/575/575 48/48/48 41/41/41
f 575/575/575 41/41/41 576/576/576
f 578/578/578 579/579/579 575/575/575
f 578/578/578 575/575/575 574/574/574
f 579/579/579 47/47/47 48/48/48
f 579/579/579 48/48/48 575/575/575
f 580/580/580 581/581/581 579/579/579
f 580/580/580 579/579/579 578/578/578
f 581/581/581 46/46/46 47/47/47
f 581/581/581 47/47/47 579/579/579
f 582/582/582 583/583/583 581/581/581
f 582/582/582 581/581/581 580/580/580
f 583/583/583 45/45/45 46/46/46
f 583/583/583 46/46/46 581/581/581
f 584/584/584 585/585/585 583/583/583
f 584/584/584 583/583/583 582/582/582
f 585/585/585 44/44/44 45/45/45
f 585/585/585 45/45/45 583/583/583
f 586/586/586 587/587/587 585/585/585
f 586/586/586 585/585/585 584/584/584
f 587/587/587 43/43/43 44/44/44
f 587/587/587 44/44/44 585/585/585
f 588/588/588 589/589/589 587/587/587
f 588/588/588 587/587/587 586/586/586
f 589/589/589 42/42/42 43/43/43
f 589/589/589 43/43/43 587/587/587
f 577/577/577 576/576/576 589/589/589
f 577/577/577 589/589/589 588/588/588
f 576/576/576 41/41/41 42/42/42
f 576/576/576 42/42/42 589/589/589
f 577/577/577 590/590/590 591/591/591
f 577/577/577 591/591/591 574/574/574
f 574/574/574 591/591/591 592/592/592
f 574/574/574 592/592/592 578/578/578
f 578/578/578 592/592/592 593/593/593
f 578/578/578 593/593/593 580/580/580
f 580/580/580 593/593/593 594/594/594
f 580/580/580 594/594/594 582/582/582
f 582/582/582 594/594/594 595/595/595
f 582/582/582 595/595/595 584/584/584
f 584/584/584 595/595/595 596/596/596
f 584/584/584 596/596/596 586/586/586
f 586/586/586 596/596/596 597/597/597
f 586/586/586 597/597/597 588/588/588
f 588/588/588 597/597/597 590/590/590
f 588/588/588 590/590/590 577/577/577
f 590/590/590 598/598/598 599/599/599
f 590/590/590 599/599/599 591/591/591
f 598/598/598 600/600/600 601/601/601
f 598/598/598 601/601/601 599/599/599
f 591/591/591 599/599/599 602/602/602
f 591/591/591 602/602/602 592/592/592
f 599/599/599 601/601/601 603/603/603
f 599/599/599 603/603/603 602/602/602
f 592/592/592 602/602/602 604/604/604
f 592/592/592 604/604/604 593/593/593
f 602/602/602 603/603/603 605/605/605
f 602/602/602 605/605/605 604/604/604
f 593/593/593 604/604/604 606/606/606
f 593/593/593 606/606/606 594/594/594
f 604/604/604 605/605/605 607/607/607
f 604/604/604 607/607/607 606/606/606
f 594/594/594 606/606/606 608/608/608
f 594/594/594 608/608/608 595/595/595
f 606/606/606 607/607/607 609/609/609
f 606/606/606 609/609/609 608/608/608
f 595/595/595 608/608/608 610/610/610
f 595/595/595 610/610/610 596/596/596
f 608/608/608 609/609/609 611/611/611
f 608/608/608 611/611/611 610/610/610
f 596/596/596 610/610/610 612/612/612
f 596/596/596 612/612/612 597/597/597
f 610/610/610 611/611/611 613/613/613
f 610/610/610 613/613/613 612/612/612
f 597/597/597 612/612/612 598/598/598
f 597/597/597 598/598/598 590/590/590
f 612/612/612 613/613/613 600/600/600
f 612/612/612 600/600/600 598/598/598
f 613/613/613 614/614/614 615/615/615
f 613/613/613 615/615/615 600/600/600
f 614/614/614 616/616/616 617/617/617
f 614/614/614 617/617/617 615/615/615
f 611/611/611 618/618/618 614/614/614
f 611/611/611 614/614/614 613/613/613
f 618/618/618 619/619/619 616/616/616
f 618/618/618 616/616/616 614/614/614
f 609/609/609 620/620/620 618/618/618
f 609/609/609 618/618/618 611/611/611
f 620/620/620 621/621/621 619/619/619
f 620/620/620 619/619/619 618/618/618
f 607/607/607 622/622/622 620/620/620
f 607/607/607 620/620/620 609/609/609
f 622/622/622 623/623/623 621/621/621
f 622/622/622 621/621/621 620/620/620
f 605/605/605 624/624/624 622/622/622
f 605/605/605 622/622/622 607/607/607
f 624/624/624 625/625/625 623/623/623
f 624/624/624 623/623/623 622/622/622
f 603/603/603 626/626/626 624/624/624
f 603/603/603 624/624/624 605/605/605
f 626/626/626 627/627/627 625/625/625
f 626/626/626 625/625/625 624/624/624
f 601/601/601 628/628/628 626/626/626
f 601/601/601 626/626/626 603/603/603
f 628/628/628 629/629/629 627/627/627
f 628/628/628 627/627/627 626/626/626
f 600/600/600 615/615/615 628/628/628
f 600/600/600 628/628/628 601/601/601
f 615/615/615 617/617/617 629/629/629
f 615/615/615 629/629/629 628/628/628
f 561/561/561 630/630/630 631/631/631
f 561/561/561 631/631/631 573/573/573
f 630/630/630 632/632/632 633/633/633
f 630/630/630 633/633/633 631/631/631
f 573/573/573 631/631/631 634/634/634
f 573/573/573 634/634/634 571/571/571
f 631/631/631 633/633/633 635/635/635
f 631/631/631 635/635/635 634/634/634
f 571/571/571 634/634/634 636/636/636
f 571/571/571 636/636/636 569/569/569
f 634/634/634 635/635/635 637/637/637
f 634/634/634 637/637/637 636/636/636
f 569/569/569 636/636/636 638/638/638
f 569/569/569 638/638/638 567/567/567
f 636/636/636 637/637/637 639/639/639
f 636/636/636 639/639/639 638/638/638
f 567/567/567 638/638/638 640/640/640
f 567/567/567 640/640/640 565/565/565
f 638/638/638 639/639/639 641/641/641
f 638/638/638 641/641/641 640/640/640
f 565/565/565 640/640/640 642/642/642
f 565/565/565 642/642/642 563/563/563
f 640/640/640 641/641/641 643/643/643
f 640/640/640 643/643/643 642/642/642
f 563/563/563 642/642/642 644/644/644
f 563/563/563 644/644/644 560/560/560
f 642/642/642 643/643/643 645/645/645
f 642/642/642 645/645/645 644/644/644
f 560/560/560 644/644/644 630/630/630
f 560/560/560 630/630/630 561/561/561
f 644/644/644 645/645/645 632/632/632
f 644/644/644 632/632/632 630/630/630
