v -1.926634 0.613817 1.444796
v -1.926777 0.613853 1.448046
v -1.928359 0.611013 1.447141
v -1.928501 0.610959 1.443918
v -1.929647 0.611595 1.441908
v -1.928136 0.613697 1.441901
v -1.928795 0.615800 1.442788
v -1.927634 0.616635 1.445047
v -1.928074 0.616701 1.448310
v -1.927443 0.613735 1.450818
v -1.928847 0.616542 1.451145
v -1.929903 0.616305 1.453957
v -1.928550 0.613589 1.453570
v -1.929906 0.611039 1.452780
v -1.928865 0.611017 1.449951
v -1.930021 0.613537 1.456762
v -1.931192 0.616135 1.457148
v -1.933010 0.615586 1.458768
v -1.932403 0.613652 1.459194
v -1.933035 0.611892 1.458067
v -1.931365 0.611149 1.456059
v -1.954131 0.613001 1.455943
v -1.952474 0.612822 1.458575
v -1.951863 0.615041 1.458101
v -1.952978 0.615897 1.456066
v -1.954101 0.616345 1.452511
v -1.955092 0.613343 1.452810
v -1.954147 0.610483 1.452891
v -1.953433 0.610297 1.455705
v -1.952086 0.610928 1.457602
v -1.955883 0.613564 1.450501
v -1.954916 0.616557 1.449904
v -1.955281 0.616605 1.447586
v -1.956372 0.613680 1.448341
v -1.955445 0.610822 1.448511
v -1.954868 0.610672 1.450697
v -1.956427 0.613707 1.445655
v -1.955051 0.616564 1.444899
v -1.954117 0.615817 1.443147
v -1.955232 0.613702 1.443066
v -1.954772 0.611617 1.443573
v -1.955727 0.610891 1.445722
v -1.936249 0.614006 1.459666
v -1.936118 0.616538 1.459159
v -1.940736 0.616977 1.458649
v -1.940340 0.614249 1.459301
v -1.939603 0.611495 1.458128
v -1.935781 0.611450 1.458405
v -1.943462 0.614033 1.459217
v -1.944182 0.616932 1.458572
v -1.947033 0.616549 1.458726
v -1.946313 0.613574 1.459286
v -1.945847 0.610687 1.457973
v -1.942713 0.611154 1.457997
v -1.949593 0.613092 1.459381
v -1.949866 0.615974 1.458907
v -1.949736 0.610356 1.458019
v -1.932406 0.613561 1.440196
v -1.933035 0.610733 1.440383
v -1.938424 0.610603 1.439579
v -1.937850 0.613495 1.439438
v -1.937313 0.616491 1.440916
v -1.931760 0.616476 1.441682
v -1.942870 0.613587 1.439384
v -1.943371 0.610668 1.439755
v -1.948017 0.610802 1.440686
v -1.947550 0.613706 1.439986
v -1.947263 0.616668 1.440876
v -1.942492 0.616593 1.440617
v -1.951972 0.613723 1.441195
v -1.952506 0.610879 1.442143
v -1.951590 0.616600 1.441787
v -1.932820 0.609823 1.442649
v -1.938186 0.609651 1.441800
v -1.932456 0.609899 1.445886
v -1.937688 0.609722 1.445080
v -1.943198 0.609686 1.442178
v -1.942672 0.609694 1.445523
v -1.947459 0.609749 1.446621
v -1.947943 0.609808 1.443308
v -1.952509 0.609900 1.444714
v -1.952095 0.609818 1.447777
v -1.955445 0.610822 1.448511
v -1.955727 0.610891 1.445722
v -1.954772 0.611617 1.443573
v -1.952506 0.610879 1.442143
v -1.932638 0.610028 1.448985
v -1.933359 0.610207 1.452153
v -1.937727 0.610134 1.451798
v -1.937482 0.609896 1.448396
v -1.942116 0.609750 1.448662
v -1.941826 0.609864 1.451822
v -1.946006 0.609592 1.452115
v -1.946697 0.609651 1.449393
v -1.951377 0.609663 1.450199
v -1.950615 0.609516 1.452565
v -1.954147 0.610483 1.452891
v -1.954868 0.610672 1.450697
v -1.934612 0.610432 1.455597
v -1.938583 0.610395 1.455335
v -1.942096 0.610048 1.455233
v -1.945733 0.609649 1.455279
v -1.950073 0.609455 1.455460
v -1.949736 0.610356 1.458019
v -1.952086 0.610928 1.457602
v -1.953433 0.610297 1.455705
v -1.952040 0.617675 1.443838
v -1.952580 0.617810 1.446568
v -1.948661 0.618064 1.445841
v -1.947875 0.617835 1.443023
v -1.943031 0.617839 1.443006
v -1.943920 0.618137 1.445963
v -1.938516 0.618054 1.446656
v -1.937663 0.617754 1.443555
v -1.931920 0.617650 1.444434
v -1.932610 0.617838 1.447643
v -1.952464 0.617866 1.449200
v -1.951822 0.617737 1.452182
v -1.948630 0.618171 1.451982
v -1.948897 0.618209 1.448745
v -1.944589 0.618303 1.448897
v -1.944900 0.618302 1.452070
v -1.940319 0.618126 1.452511
v -1.939491 0.618161 1.449524
v -1.933553 0.617795 1.450494
v -1.934573 0.617639 1.453372
v -1.950783 0.617314 1.455963
v -1.947907 0.617850 1.455800
v -1.944713 0.618100 1.455742
v -1.940732 0.618000 1.455969
v -1.935493 0.617484 1.456661
v -1.931469 0.623071 1.464960
v -1.929834 0.621779 1.469859
v -1.927980 0.620094 1.468157
v -1.929524 0.621513 1.464177
v -1.931617 0.622046 1.461345
v -1.933536 0.623344 1.460518
v -1.936764 0.624093 1.460251
v -1.934708 0.624232 1.465279
v -1.933171 0.623181 1.470904
v -1.929268 0.620465 1.473232
v -1.929278 0.619097 1.475533
v -1.927129 0.617797 1.472831
v -1.927292 0.618939 1.470858
v -1.932825 0.621671 1.474943
v -1.932976 0.619967 1.477716
v -1.929376 0.617640 1.477212
v -1.929826 0.615831 1.477924
v -1.928249 0.615236 1.475914
v -1.927158 0.616414 1.474630
v -1.932932 0.618335 1.479545
v -1.933043 0.616397 1.480142
v -1.938142 0.625166 1.465084
v -1.937074 0.624499 1.470818
v -1.939712 0.624500 1.460065
v -1.942735 0.624499 1.460025
v -1.941824 0.625380 1.464658
v -1.941345 0.624919 1.470099
v -1.936870 0.622804 1.475320
v -1.936823 0.620684 1.478631
v -1.941218 0.623246 1.474802
v -1.940840 0.621036 1.478549
v -1.936227 0.618740 1.480790
v -1.935693 0.616588 1.481513
v -1.939611 0.618968 1.481119
v -1.938417 0.616697 1.482162
v -1.945809 0.624380 1.464289
v -1.945786 0.623630 1.469243
v -1.946185 0.624026 1.460193
v -1.948643 0.622784 1.461086
v -1.949332 0.622475 1.463907
v -1.949616 0.621279 1.468443
v -1.945681 0.622376 1.473825
v -1.945047 0.620813 1.477743
v -1.949425 0.620425 1.472766
v -1.948493 0.619568 1.476655
v -1.943436 0.619133 1.480703
v -1.941857 0.617018 1.482220
v -1.946557 0.618360 1.479891
v -1.944454 0.616829 1.481331
v -1.932769 0.612045 1.472573
v -1.933309 0.613379 1.469408
v -1.930410 0.614009 1.468945
v -1.930197 0.612637 1.471771
v -1.930212 0.612343 1.474083
v -1.932053 0.611701 1.475503
v -1.934519 0.611858 1.477105
v -1.935365 0.612044 1.474118
v -1.936380 0.613343 1.470803
v -1.933939 0.614640 1.466886
v -1.934766 0.615931 1.464366
v -1.930959 0.616228 1.464811
v -1.930500 0.615106 1.466903
v -1.937750 0.614765 1.467701
v -1.939060 0.616224 1.464508
v -1.935893 0.617356 1.461207
v -1.936409 0.619163 1.458794
v -1.933628 0.619116 1.459954
v -1.932282 0.617673 1.461834
v -1.939895 0.617632 1.460921
v -1.939887 0.619424 1.458298
v -1.937754 0.612034 1.475484
v -1.939379 0.613343 1.472182
v -1.936552 0.611869 1.478325
v -1.938825 0.611879 1.479266
v -1.940486 0.612057 1.476615
v -1.942697 0.613364 1.473377
v -1.941368 0.614802 1.468610
v -1.942955 0.616294 1.464804
v -1.945027 0.614747 1.469556
v -1.946622 0.616175 1.465370
v -1.943374 0.617700 1.460798
v -1.942805 0.619505 1.457973
v -1.946628 0.617613 1.461040
v -1.945617 0.619467 1.458014
v -1.944111 0.612155 1.477455
v -1.946725 0.613389 1.474221
v -1.942012 0.612031 1.480033
v -1.944679 0.613063 1.479967
v -1.947077 0.613129 1.478197
v -1.949791 0.614270 1.474933
v -1.948957 0.614596 1.470477
v -1.950227 0.615900 1.466321
v -1.951654 0.615254 1.471313
v -1.952472 0.616378 1.467285
v -1.949952 0.617421 1.461849
v -1.952051 0.617938 1.462795
v -1.950544 0.619472 1.460163
v -1.948777 0.619372 1.458619
v -1.947832 0.615778 1.479032
v -1.950228 0.616858 1.475731
v -1.949791 0.614270 1.474933
v -1.947077 0.613129 1.478197
v -1.944679 0.613063 1.479967
v -1.944754 0.614753 1.481270
v -1.951613 0.617624 1.472002
v -1.952057 0.618516 1.467891
v -1.952472 0.616378 1.467285
v -1.951654 0.615254 1.471313
v -1.951629 0.619975 1.463445
v -1.950127 0.621343 1.459823
v -1.950544 0.619472 1.460163
v -1.952051 0.617938 1.462795
v -1.927879 0.614420 1.472636
v -1.927928 0.615791 1.470360
v -1.928613 0.613403 1.475046
v -1.927994 0.616846 1.468488
v -1.928527 0.617930 1.466275
v -1.929978 0.619386 1.462979
v -1.932289 0.620761 1.459944
v -1.941322 0.614152 1.481809
v -1.938145 0.613880 1.481330
v -1.942012 0.612031 1.480033
v -1.935833 0.613842 1.480513
v -1.933659 0.613773 1.479221
v -1.930896 0.613407 1.477320
v -1.935404 0.621600 1.458513
v -1.938667 0.622034 1.457999
v -1.941425 0.622192 1.457712
v -1.944159 0.622145 1.457743
v -1.947348 0.621965 1.458185
v -1.948777 0.619372 1.458619
v -1.923212 0.621610 1.385485
v -1.921650 0.622558 1.390350
v -1.919348 0.620483 1.389382
v -1.920904 0.620002 1.385278
v -1.922945 0.619074 1.382520
v -1.925068 0.619861 1.381361
v -1.928508 0.620186 1.380884
v -1.926769 0.622201 1.385403
v -1.925377 0.623405 1.390832
v -1.920984 0.622870 1.393861
v -1.920792 0.622603 1.396454
v -1.918291 0.620267 1.394514
v -1.918585 0.620579 1.392268
v -1.924870 0.623839 1.394974
v -1.924712 0.623639 1.398081
v -1.920653 0.621814 1.398567
v -1.920802 0.620041 1.399945
v -1.919074 0.618603 1.398329
v -1.918144 0.619521 1.396698
v -1.924367 0.622942 1.400409
v -1.924141 0.621174 1.401768
v -1.930470 0.622064 1.384951
v -1.929573 0.623044 1.390379
v -1.931655 0.620252 1.380581
v -1.934801 0.619995 1.380573
v -1.934254 0.621270 1.384571
v -1.933899 0.621735 1.389717
v -1.929095 0.623413 1.394984
v -1.928600 0.623292 1.398692
v -1.933400 0.622010 1.394515
v -1.932488 0.622069 1.398643
v -1.927653 0.622802 1.401427
v -1.926786 0.621253 1.402984
v -1.930898 0.621890 1.401776
v -1.929406 0.620682 1.403643
v -1.938057 0.619889 1.384707
v -1.938013 0.619739 1.389574
v -1.938241 0.619348 1.380979
v -1.940579 0.618037 1.382324
v -1.941260 0.617939 1.385131
v -1.941361 0.617328 1.389827
v -1.937523 0.620046 1.394189
v -1.936408 0.620477 1.398290
v -1.940805 0.617654 1.394149
v -1.939493 0.618355 1.398030
v -1.934488 0.620700 1.401610
v -1.932666 0.619866 1.403792
v -1.937323 0.618869 1.401404
v -1.935119 0.618578 1.403203
v -1.923002 0.612878 1.396462
v -1.923648 0.612974 1.393009
v -1.920806 0.613698 1.392295
v -1.920473 0.613395 1.395456
v -1.920523 0.614127 1.397730
v -1.922320 0.613860 1.399313
v -1.924880 0.614545 1.400777
v -1.925680 0.613356 1.397963
v -1.926805 0.613302 1.394410
v -1.924387 0.613255 1.390181
v -1.925331 0.613573 1.387361
v -1.921539 0.614291 1.387609
v -1.920990 0.614014 1.389966
v -1.928322 0.613490 1.391005
v -1.929791 0.613750 1.387500
v -1.926590 0.613783 1.383933
v -1.927304 0.614700 1.381103
v -1.924480 0.615194 1.382173
v -1.922965 0.614475 1.384366
v -1.930774 0.613911 1.383649
v -1.930965 0.614818 1.380593
v -1.928132 0.613575 1.399304
v -1.929899 0.613441 1.395805
v -1.926957 0.614773 1.401937
v -1.929217 0.614652 1.402871
v -1.930872 0.613522 1.400439
v -1.933252 0.613336 1.397041
v -1.932103 0.613448 1.391984
v -1.933905 0.613565 1.387897
v -1.935857 0.613170 1.393039
v -1.937725 0.613160 1.388617
v -1.934470 0.613762 1.383600
v -1.934074 0.614786 1.380288
v -1.937896 0.613444 1.383960
v -1.937054 0.614622 1.380387
v -1.934417 0.613180 1.401321
v -1.937187 0.612933 1.397967
v -1.932327 0.614292 1.403657
v -1.934994 0.614617 1.403341
v -1.937362 0.613650 1.401777
v -1.940223 0.613309 1.398426
v -1.939710 0.612698 1.394090
v -1.941301 0.612675 1.389724
v -1.942381 0.612980 1.394727
v -1.943549 0.612939 1.390532
v -1.941272 0.613070 1.384900
v -1.943441 0.613461 1.385694
v -1.942117 0.614580 1.382604
v -1.940325 0.614346 1.381094
v -1.938306 0.616033 1.401632
v -1.940878 0.615541 1.398261
v -1.940223 0.613309 1.398426
v -1.937362 0.613650 1.401777
v -1.934994 0.614617 1.403341
v -1.935189 0.616530 1.403941
v -1.942585 0.614965 1.394537
v -1.943388 0.614775 1.390357
v -1.943549 0.612939 1.390532
v -1.942381 0.612980 1.394727
v -1.943246 0.615440 1.385615
v -1.941916 0.616369 1.381645
v -1.942117 0.614580 1.382604
v -1.943441 0.613461 1.385694
v -1.918469 0.616162 1.395598
v -1.918658 0.616714 1.392962
v -1.919119 0.615994 1.398222
v -1.918822 0.617042 1.390816
v -1.919428 0.617160 1.388376
v -1.920945 0.617085 1.384860
v -1.923349 0.617014 1.381636
v -1.931844 0.617125 1.404477
v -1.928787 0.617654 1.403973
v -1.932327 0.614292 1.403657
v -1.926531 0.617954 1.403159
v -1.924339 0.617763 1.401968
v -1.921472 0.616819 1.400334
v -1.926615 0.617142 1.380073
v -1.930058 0.617317 1.379477
v -1.932996 0.617388 1.379154
v -1.935878 0.617292 1.379218
v -1.939156 0.616970 1.379781
v -1.940325 0.614346 1.381094
v -1.958749 0.616021 1.508004
v -1.956082 0.616274 1.510974
v -1.958530 0.613791 1.510721
v -1.961044 0.613570 1.508019
v -1.963446 0.614092 1.506832
v -1.962429 0.615842 1.506131
v -1.962011 0.617746 1.507384
v -1.958865 0.618552 1.508879
v -1.955984 0.618868 1.512085
v -1.954664 0.616494 1.513569
v -1.954478 0.619035 1.514811
v -1.953975 0.619171 1.517450
v -1.954207 0.616749 1.516181
v -1.956423 0.614479 1.516035
v -1.957047 0.614087 1.513288
v -1.954426 0.617108 1.519202
v -1.954105 0.619394 1.520396
v -1.955235 0.619063 1.522471
v -1.955585 0.617499 1.522326
v -1.956988 0.615902 1.521960
v -1.956488 0.614983 1.519277
v -1.971270 0.618914 1.529396
v -1.970098 0.618849 1.531606
v -1.968678 0.620232 1.530435
v -1.969345 0.620792 1.528523
v -1.970480 0.621021 1.525332
v -1.971980 0.618973 1.526578
v -1.972183 0.616670 1.527158
v -1.971753 0.616819 1.529658
v -1.970546 0.617300 1.530973
v -1.973091 0.619214 1.524883
v -1.972143 0.621488 1.523475
v -1.974268 0.622046 1.521992
v -1.974736 0.619564 1.523469
v -1.974227 0.616756 1.523733
v -1.972903 0.616650 1.525385
v -1.977049 0.619952 1.521495
v -1.976792 0.622549 1.519923
v -1.977948 0.621931 1.518272
v -1.978680 0.620047 1.518952
v -1.977774 0.617700 1.519287
v -1.976468 0.616984 1.521595
v -1.957950 0.617851 1.525247
v -1.956758 0.619816 1.524529
v -1.959550 0.620062 1.526574
v -1.960616 0.618107 1.527626
v -1.961890 0.615953 1.526854
v -1.959122 0.615675 1.524213
v -1.962675 0.618213 1.529120
v -1.961740 0.620252 1.528024
v -1.963881 0.620416 1.529202
v -1.964784 0.618323 1.530234
v -1.966149 0.616128 1.529609
v -1.963995 0.616016 1.528463
v -1.967597 0.618594 1.531474
v -1.966527 0.620581 1.530431
v -1.969061 0.616550 1.530866
v -1.966886 0.615841 1.506826
v -1.966948 0.613434 1.507164
v -1.971103 0.613687 1.508945
v -1.971161 0.616251 1.508763
v -1.969562 0.618971 1.510012
v -1.965165 0.618416 1.507967
v -1.974298 0.617304 1.510615
v -1.973945 0.614440 1.511022
v -1.975921 0.615448 1.513634
v -1.976577 0.618545 1.512824
v -1.975671 0.621564 1.513520
v -1.973023 0.620218 1.511693
v -1.978280 0.619519 1.515832
v -1.977475 0.616462 1.517021
v -1.977632 0.622421 1.516003
v -1.965034 0.612697 1.508943
v -1.969125 0.612809 1.510681
v -1.962531 0.612915 1.511528
v -1.966534 0.612975 1.513344
v -1.971724 0.613313 1.513139
v -1.968989 0.613301 1.516116
v -1.970757 0.613954 1.519222
v -1.973518 0.614135 1.516103
v -1.975921 0.615448 1.513634
v -1.973945 0.614440 1.511022
v -1.975196 0.615202 1.519360
v -1.972702 0.614996 1.522039
v -1.974227 0.616756 1.523733
v -1.976468 0.616984 1.521595
v -1.977774 0.617700 1.519287
v -1.977475 0.616462 1.517021
v -1.960827 0.613373 1.514282
v -1.959848 0.613957 1.517423
v -1.963351 0.614256 1.519712
v -1.964633 0.613542 1.516303
v -1.967090 0.613783 1.519103
v -1.965805 0.614445 1.522270
v -1.967928 0.614744 1.524647
v -1.969023 0.614251 1.521984
v -1.971254 0.615101 1.524248
v -1.970444 0.615373 1.526395
v -1.972183 0.616670 1.527158
v -1.972903 0.616650 1.525385
v -1.959517 0.614551 1.521169
v -1.962620 0.614864 1.523723
v -1.964906 0.614975 1.525784
v -1.967083 0.615152 1.527467
v -1.969861 0.615666 1.528887
v -1.969061 0.616550 1.530866
v -1.970546 0.617300 1.530973
v -1.971753 0.616819 1.529658
v -1.975550 0.623218 1.517744
v -1.972860 0.622828 1.520044
v -1.970536 0.622505 1.518167
v -1.973387 0.622640 1.515575
v -1.970361 0.621492 1.514035
v -1.967321 0.621673 1.516904
v -1.963419 0.620730 1.515662
v -1.966569 0.620319 1.512570
v -1.962104 0.619661 1.510626
v -1.959035 0.620074 1.513852
v -1.970384 0.622169 1.521893
v -1.968330 0.621553 1.524095
v -1.965793 0.621267 1.523033
v -1.967934 0.621894 1.520476
v -1.964911 0.621304 1.519564
v -1.963132 0.620862 1.522312
v -1.960112 0.620450 1.521316
v -1.961352 0.620642 1.518518
v -1.957291 0.620152 1.516697
v -1.956502 0.620146 1.519428
v -1.966908 0.621296 1.527456
v -1.964330 0.621086 1.526371
v -1.961983 0.620823 1.525443
v -1.959447 0.620550 1.524236
v -1.956300 0.620307 1.522314
vn 0.974600 -0.057400 -0.216400
vn 0.987700 -0.065000 0.142300
vn 0.613000 -0.788000 0.057400
vn 0.616400 -0.754400 -0.225600
vn 0.519000 -0.544300 -0.659000
vn 0.686700 0.012500 -0.726800
vn 0.517300 0.603400 -0.606800
vn 0.668300 0.719400 -0.189400
vn 0.644700 0.754000 0.125800
vn 0.952000 -0.067300 0.298700
vn 0.620300 0.745300 0.244100
vn 0.619700 0.729100 0.290300
vn 0.917100 -0.091300 0.388000
vn 0.545400 -0.803900 0.237200
vn 0.586600 -0.792700 0.165800
vn 0.820000 -0.123500 0.558800
vn 0.579100 0.666700 0.469200
vn 0.367200 0.518500 0.772100
vn 0.443500 -0.146300 0.884200
vn 0.294000 -0.690400 0.660900
vn 0.470200 -0.791200 0.391000
vn -0.905100 0.004400 0.425100
vn -0.591600 -0.087300 0.801500
vn -0.568000 0.432900 0.699900
vn -0.697300 0.584700 0.414600
vn -0.722500 0.632900 0.278100
vn -0.952100 0.024600 0.304900
vn -0.671900 -0.724700 0.152700
vn -0.631900 -0.708700 0.313700
vn -0.451200 -0.619200 0.642600
vn -0.963900 0.029200 0.264700
vn -0.726600 0.659400 0.192500
vn -0.732700 0.679900 0.029900
vn -0.991900 0.049100 0.116600
vn -0.714000 -0.694400 0.089400
vn -0.685800 -0.711600 0.153000
vn -0.976200 0.055100 -0.209600
vn -0.700700 0.659300 -0.272700
vn -0.603000 0.474200 -0.641400
vn -0.743500 0.033500 -0.667900
vn -0.646700 -0.499700 -0.576200
vn -0.733200 -0.657700 -0.172600
vn 0.020500 -0.121600 0.992400
vn 0.095500 0.626300 0.773700
vn -0.017400 0.665300 0.746300
vn -0.050800 -0.090200 0.994600
vn -0.006500 -0.718400 0.695600
vn 0.035100 -0.737300 0.674600
vn 0.012000 -0.085600 0.996200
vn -0.029800 0.652800 0.756900
vn -0.056700 0.617100 0.784800
vn 0.040900 -0.115400 0.992500
vn 0.087000 -0.726300 0.681800
vn 0.072800 -0.706700 0.703800
vn -0.123100 -0.135000 0.983200
vn -0.238700 0.550100 0.800200
vn -0.079500 -0.738500 0.669500
vn 0.267700 0.131400 -0.954500
vn 0.254400 -0.583500 -0.771200
vn 0.045500 -0.579300 -0.813800
vn 0.077800 0.165800 -0.983100
vn 0.078000 0.698600 -0.711200
vn 0.229600 0.695400 -0.681000
vn -0.054000 0.131000 -0.989900
vn -0.095200 -0.597800 -0.796000
vn -0.197900 -0.627000 -0.753400
vn -0.191500 0.063700 -0.979400
vn -0.110200 0.629400 -0.769200
vn 0.004900 0.671200 -0.741300
vn -0.388700 0.020100 -0.921100
vn -0.366600 -0.627800 -0.686600
vn -0.320900 0.582800 -0.746600
vn 0.191200 -0.958900 -0.209400
vn 0.023800 -0.978700 -0.203800
vn 0.146700 -0.988800 0.026900
vn 0.019300 -0.999500 0.026700
vn -0.041400 -0.979800 -0.195700
vn 0.000600 -0.999900 0.007900
vn -0.014500 -0.999700 -0.019000
vn -0.071600 -0.979300 -0.189300
vn -0.227000 -0.955100 -0.190400
vn -0.160100 -0.987000 -0.008500
vn -0.714000 -0.694400 0.089400
vn -0.733200 -0.657700 -0.172600
vn -0.646700 -0.499700 -0.576200
vn -0.366600 -0.627800 -0.686600
vn 0.133400 -0.988900 0.065100
vn 0.116800 -0.988800 0.093100
vn 0.035900 -0.997100 0.066400
vn 0.026900 -0.998400 0.049500
vn 0.028600 -0.999400 0.020500
vn 0.064300 -0.997000 0.043000
vn 0.041100 -0.999100 -0.000800
vn 0.007000 -0.999700 -0.022500
vn -0.143700 -0.989500 -0.013100
vn -0.118400 -0.992900 -0.005600
vn -0.671900 -0.724700 0.152700
vn -0.685800 -0.711600 0.153000
vn 0.089400 -0.966200 0.241800
vn 0.034200 -0.974700 0.220800
vn 0.092200 -0.971000 0.220600
vn 0.078000 -0.978800 0.189200
vn -0.095500 -0.977700 0.187100
vn -0.079500 -0.738500 0.669500
vn -0.451200 -0.619200 0.642600
vn -0.631900 -0.708700 0.313700
vn -0.272400 0.910700 -0.310300
vn -0.260400 0.964400 -0.047000
vn -0.045000 0.996600 -0.068100
vn -0.055400 0.951300 -0.303400
vn 0.016100 0.958500 -0.284700
vn 0.007100 0.997500 -0.070200
vn 0.035000 0.998200 -0.047800
vn 0.047200 0.965300 -0.256900
vn 0.167600 0.960900 -0.220300
vn 0.143200 0.989600 0.013600
vn -0.283100 0.957500 0.054800
vn -0.311700 0.938300 0.149900
vn -0.086900 0.994100 0.063800
vn -0.061600 0.998000 -0.012600
vn 0.002500 0.999800 -0.020600
vn -0.007400 0.999400 0.035000
vn 0.051000 0.997800 0.041000
vn 0.042600 0.999100 0.006700
vn 0.148900 0.985600 0.080400
vn 0.164000 0.981300 0.100300
vn -0.324400 0.884300 0.335600
vn -0.109000 0.958000 0.265300
vn -0.030100 0.973900 0.225000
vn 0.037200 0.977600 0.207300
vn 0.164600 0.952200 0.257200
vn 0.487000 0.871300 -0.060500
vn 0.560500 0.817700 0.131500
vn 0.905300 0.404500 -0.129900
vn 0.827100 0.475300 -0.299800
vn 0.698000 0.501600 -0.511000
vn 0.421900 0.759400 -0.495300
vn 0.221100 0.856500 -0.466300
vn 0.294000 0.955600 -0.016600
vn 0.352900 0.913400 0.202700
vn 0.613200 0.727800 0.307000
vn 0.635300 0.623800 0.455200
vn 0.971900 0.203000 0.119400
vn 0.953800 0.300200 0.009200
vn 0.372400 0.834000 0.407100
vn 0.385400 0.739500 0.551900
vn 0.678200 0.362500 0.639200
vn 0.639800 -0.143100 0.755100
vn 0.806700 -0.269100 0.526100
vn 0.957300 0.009700 0.288800
vn 0.457400 0.490100 0.742000
vn 0.498600 -0.052200 0.865200
vn 0.154800 0.987300 -0.034700
vn 0.177800 0.960300 0.214700
vn 0.100800 0.878300 -0.467400
vn -0.073000 0.895900 -0.438200
vn -0.089700 0.995800 -0.018700
vn -0.108600 0.971000 0.212700
vn 0.165300 0.886200 0.432800
vn 0.169600 0.799800 0.575700
vn -0.100300 0.908000 0.406800
vn -0.048500 0.831600 0.553300
vn 0.243000 0.578600 0.778500
vn 0.343600 0.023900 0.938800
vn 0.035200 0.639400 0.768100
vn 0.136200 0.100500 0.985600
vn -0.360500 0.932100 0.034400
vn -0.401500 0.894400 0.196900
vn -0.306500 0.881800 -0.358300
vn -0.558500 0.808600 -0.184900
vn -0.621700 0.781500 0.053000
vn -0.653600 0.736700 0.173000
vn -0.376800 0.866400 0.327500
vn -0.305500 0.812500 0.496500
vn -0.670000 0.688800 0.276800
vn -0.654200 0.585800 0.478300
vn -0.215900 0.627500 0.748000
vn -0.110300 0.177900 0.977800
vn -0.549500 0.410800 0.727400
vn -0.388300 0.134900 0.911600
vn 0.009100 -0.967100 -0.254200
vn -0.016900 -0.912100 -0.409600
vn 0.406300 -0.803600 -0.434800
vn 0.407100 -0.862400 -0.300900
vn 0.433100 -0.900800 0.030300
vn 0.214500 -0.957100 0.194800
vn 0.144000 -0.949900 0.277200
vn -0.108900 -0.975300 -0.192000
vn -0.145900 -0.927700 -0.343500
vn 0.004500 -0.897200 -0.441500
vn 0.028000 -0.899800 -0.435300
vn 0.439200 -0.733800 -0.518300
vn 0.432600 -0.768400 -0.471600
vn -0.106200 -0.921600 -0.373200
vn -0.061500 -0.927400 -0.368900
vn 0.070900 -0.850400 -0.521300
vn 0.162100 -0.524600 -0.835700
vn 0.380000 -0.505700 -0.774500
vn 0.418100 -0.675700 -0.607100
vn -0.013800 -0.884600 -0.466100
vn 0.067500 -0.530200 -0.845100
vn -0.082400 -0.981200 -0.174500
vn -0.123900 -0.940500 -0.316400
vn 0.143400 -0.940500 0.307800
vn 0.074600 -0.931000 0.357200
vn -0.070700 -0.983600 -0.166100
vn -0.087600 -0.947800 -0.306400
vn -0.081800 -0.938600 -0.335000
vn -0.036100 -0.940700 -0.337200
vn -0.050700 -0.949600 -0.309400
vn -0.022700 -0.947900 -0.317700
vn -0.006000 -0.896500 -0.442900
vn 0.019600 -0.516700 -0.855900
vn -0.034400 -0.898700 -0.437200
vn -0.083000 -0.495700 -0.864500
vn -0.190800 -0.980900 -0.036600
vn -0.190300 -0.961100 -0.199700
vn -0.105600 -0.885100 0.453200
vn -0.387800 -0.717300 0.578800
vn -0.559300 -0.751300 0.350300
vn -0.690500 -0.693100 0.206800
vn -0.172200 -0.958400 -0.227400
vn -0.188600 -0.936900 -0.294300
vn -0.791600 -0.606800 0.071000
vn -0.858700 -0.499300 -0.115100
vn -0.259600 -0.843500 -0.470200
vn -0.852800 -0.371600 -0.366800
vn -0.760300 -0.178400 -0.624500
vn -0.369400 -0.407000 -0.835400
vn -0.733600 -0.118300 0.669200
vn -0.880600 0.069600 0.468800
vn -0.690500 -0.693100 0.206800
vn -0.559300 -0.751300 0.350300
vn -0.387800 -0.717300 0.578800
vn -0.422600 -0.290800 0.858400
vn -0.928800 0.244100 0.278800
vn -0.918000 0.378700 0.117600
vn -0.858700 -0.499300 -0.115100
vn -0.791600 -0.606800 0.071000
vn -0.887900 0.453700 -0.076000
vn -0.727000 0.468600 -0.501800
vn -0.760300 -0.178400 -0.624500
vn -0.852800 -0.371600 -0.366800
vn 0.839900 -0.525300 -0.136400
vn 0.859200 -0.430400 -0.276600
vn 0.707100 -0.650700 0.276700
vn 0.876200 -0.355500 -0.325300
vn 0.863200 -0.276100 -0.422500
vn 0.805300 -0.191400 -0.561000
vn 0.608800 -0.002400 -0.793300
vn -0.059600 -0.423700 0.903800
vn 0.175600 -0.508000 0.843200
vn -0.105600 -0.885100 0.453200
vn 0.327800 -0.553100 0.765900
vn 0.399200 -0.581900 0.708500
vn 0.478700 -0.625000 0.616600
vn 0.304100 0.200600 -0.931200
vn 0.149200 0.280900 -0.948000
vn 0.055700 0.317300 -0.946700
vn -0.080600 0.356400 -0.930800
vn -0.349400 0.419400 -0.837900
vn -0.369400 -0.407000 -0.835400
vn 0.350000 0.851200 -0.391100
vn 0.401200 0.889400 -0.219200
vn 0.836300 0.456900 -0.302900
vn 0.756800 0.445500 -0.478300
vn 0.630500 0.369500 -0.682600
vn 0.333200 0.583800 -0.740300
vn 0.119800 0.685500 -0.718100
vn 0.077000 0.944100 -0.320500
vn 0.065700 0.985000 -0.159200
vn 0.465100 0.883600 -0.053300
vn 0.526300 0.839300 0.136300
vn 0.929400 0.368900 -0.001700
vn 0.894600 0.422600 -0.145200
vn 0.080100 0.996600 -0.015200
vn 0.133100 0.977900 0.161000
vn 0.614800 0.655800 0.438100
vn 0.626500 0.233900 0.743400
vn 0.816900 0.059000 0.573700
vn 0.941500 0.238300 0.238100
vn 0.287700 0.824600 0.487000
vn 0.445500 0.362300 0.818600
vn -0.092400 0.961500 -0.258900
vn -0.165200 0.980700 -0.104600
vn -0.003700 0.731700 -0.681600
vn -0.162900 0.769800 -0.617100
vn -0.256400 0.952100 -0.166600
vn -0.340000 0.939400 -0.043200
vn -0.197900 0.980200 0.001600
vn -0.178600 0.972700 0.148400
vn -0.362100 0.932000 0.014000
vn -0.337600 0.932300 0.129300
vn -0.029000 0.878600 0.476700
vn 0.240900 0.447600 0.861200
vn -0.240800 0.870600 0.429100
vn 0.020800 0.488800 0.872100
vn -0.437700 0.896800 -0.064800
vn -0.495000 0.868800 0.013800
vn -0.389700 0.769500 -0.505900
vn -0.635700 0.715000 -0.290700
vn -0.671400 0.740500 -0.029400
vn -0.693500 0.718000 0.059100
vn -0.508700 0.860500 0.026700
vn -0.485400 0.862900 0.140400
vn -0.720900 0.684400 0.108900
vn -0.721700 0.636000 0.273200
vn -0.415100 0.805700 0.422400
vn -0.214600 0.508700 0.833700
vn -0.635100 0.563100 0.528700
vn -0.451000 0.409700 0.792900
vn 0.094200 -0.986100 0.136300
vn 0.052000 -0.996400 -0.067100
vn 0.545500 -0.825300 -0.145800
vn 0.553700 -0.832300 0.027500
vn 0.578300 -0.713100 0.396200
vn 0.311600 -0.745700 0.588900
vn 0.252500 -0.705500 0.662200
vn -0.017000 -0.978900 0.203400
vn -0.071300 -0.997400 0.002400
vn 0.067300 -0.991700 -0.109600
vn 0.076900 -0.991500 -0.104600
vn 0.556900 -0.790600 -0.254600
vn 0.564800 -0.802300 -0.193000
vn -0.037100 -0.998200 -0.046200
vn -0.006100 -0.998500 -0.053500
vn 0.102400 -0.969800 -0.221100
vn 0.175100 -0.740900 -0.648400
vn 0.433900 -0.663000 -0.610000
vn 0.506700 -0.777600 -0.372200
vn 0.014700 -0.984600 -0.173800
vn 0.069600 -0.752300 -0.655000
vn 0.071600 -0.976900 0.201100
vn 0.005100 -0.999900 0.010600
vn 0.297300 -0.689900 0.660000
vn 0.260900 -0.691400 0.673700
vn 0.120900 -0.977400 0.173000
vn 0.072700 -0.997300 -0.004600
vn 0.033600 -0.998900 -0.033100
vn 0.060000 -0.996700 -0.053700
vn 0.090000 -0.995500 -0.029900
vn 0.097700 -0.993600 -0.056100
vn 0.056400 -0.981900 -0.180500
vn 0.040800 -0.738600 -0.672800
vn 0.060600 -0.979100 -0.193900
vn -0.036300 -0.722300 -0.690600
vn 0.009600 -0.961700 0.273900
vn -0.003700 -0.997000 0.076600
vn 0.075400 -0.669500 0.738900
vn -0.260300 -0.519900 0.813600
vn -0.428200 -0.677000 0.598500
vn -0.566100 -0.697200 0.439800
vn 0.001800 -0.999400 0.033700
vn -0.031500 -0.998500 -0.044300
vn -0.680600 -0.672600 0.290500
vn -0.776200 -0.626500 0.070200
vn -0.130700 -0.962300 -0.238500
vn -0.792700 -0.565400 -0.228000
vn -0.720300 -0.442400 -0.534200
vn -0.303900 -0.662900 -0.684200
vn -0.715800 0.057200 0.695900
vn -0.866500 0.146000 0.477300
vn -0.566100 -0.697200 0.439800
vn -0.428200 -0.677000 0.598500
vn -0.260300 -0.519900 0.813600
vn -0.386500 -0.002200 0.922200
vn -0.928900 0.246800 0.276200
vn -0.940400 0.326900 0.093700
vn -0.776200 -0.626500 0.070200
vn -0.680600 -0.672600 0.290500
vn -0.933100 0.338500 -0.120800
vn -0.787700 0.239700 -0.567500
vn -0.720300 -0.442400 -0.534200
vn -0.792700 -0.565400 -0.228000
vn 0.933400 -0.355600 0.048400
vn 0.941600 -0.310800 -0.129200
vn 0.792200 -0.343100 0.504700
vn 0.944200 -0.264300 -0.196600
vn 0.918900 -0.233000 -0.318200
vn 0.845500 -0.219200 -0.486800
vn 0.616900 -0.168000 -0.768900
vn 0.004700 -0.053200 0.998600
vn 0.246500 -0.102200 0.963700
vn 0.075400 -0.669500 0.738900
vn 0.386000 -0.133300 0.912800
vn 0.445600 -0.164400 0.880000
vn 0.527800 -0.225000 0.819000
vn 0.285200 -0.076000 -0.955400
vn 0.128200 -0.022200 -0.991500
vn 0.037300 0.018100 -0.999100
vn -0.105100 0.062000 -0.992500
vn -0.397000 0.133200 -0.908000
vn -0.303900 -0.662900 -0.684200
vn 0.607700 -0.114700 -0.785900
vn 0.804300 -0.217100 -0.553100
vn 0.469200 -0.840100 -0.272100
vn 0.352300 -0.779000 -0.518600
vn 0.095100 -0.573800 -0.813400
vn 0.171300 0.043700 -0.984200
vn 0.128900 0.633800 -0.762700
vn 0.406600 0.666000 -0.625300
vn 0.606400 0.648500 -0.460200
vn 0.902500 -0.301800 -0.307200
vn 0.762400 0.587900 -0.270300
vn 0.852100 0.519800 -0.060700
vn 0.920300 -0.389600 -0.033000
vn 0.498900 -0.863700 0.071500
vn 0.499800 -0.860700 -0.096500
vn 0.868600 -0.448000 0.211500
vn 0.875800 0.441300 0.195300
vn 0.848600 0.145000 0.508700
vn 0.752400 -0.447300 0.483500
vn 0.540800 -0.739900 0.400000
vn 0.500000 -0.837200 0.221700
vn -0.803700 0.476500 0.356300
vn -0.415100 0.297300 0.859800
vn -0.218200 0.800500 0.558100
vn -0.377800 0.889300 0.257600
vn -0.351300 0.876800 0.328300
vn -0.808400 0.442700 0.388000
vn -0.847700 -0.423600 0.319300
vn -0.808600 -0.395300 0.435700
vn -0.508400 -0.355200 0.784400
vn -0.671600 0.352300 0.651800
vn -0.258100 0.818500 0.513300
vn -0.277000 0.781700 0.558700
vn -0.600600 0.260200 0.756000
vn -0.653100 -0.466000 0.596800
vn -0.747800 -0.442900 0.494500
vn -0.740100 0.174100 0.649500
vn -0.491300 0.764900 0.416600
vn -0.800200 0.586100 0.127300
vn -0.972400 0.064300 0.224100
vn -0.868900 -0.427300 0.249900
vn -0.707800 -0.481300 0.517000
vn 0.642800 -0.340800 0.686000
vn 0.649500 0.475800 0.593000
vn 0.507600 0.604200 0.614200
vn 0.586400 -0.231600 0.776200
vn 0.376800 -0.771800 0.512100
vn 0.411700 -0.785100 0.462700
vn 0.514300 -0.158900 0.842700
vn 0.433900 0.664600 0.608300
vn 0.364800 0.692200 0.622700
vn 0.425800 -0.123900 0.896300
vn 0.233600 -0.738600 0.632400
vn 0.329600 -0.751000 0.572200
vn 0.196000 0.019400 0.980400
vn 0.183100 0.729300 0.659300
vn -0.011500 -0.671900 0.740500
vn -0.260200 0.185200 -0.947600
vn -0.202800 -0.629000 -0.750400
vn -0.449100 -0.631900 -0.631600
vn -0.424700 0.189000 -0.885300
vn -0.150700 0.720600 -0.676700
vn -0.107500 0.735900 -0.668500
vn -0.579000 0.120400 -0.806400
vn -0.623800 -0.625400 -0.468700
vn -0.730200 -0.626800 -0.271800
vn -0.766700 0.044800 -0.640400
vn -0.366600 0.677200 -0.637900
vn -0.174300 0.674300 -0.717600
vn -0.947400 -0.008800 -0.319800
vn -0.799900 -0.598300 -0.046000
vn -0.640200 0.696200 -0.324500
vn 0.037100 -0.974700 -0.220300
vn -0.144000 -0.986200 -0.081500
vn 0.119000 -0.992600 0.022100
vn 0.004400 -0.994200 0.107500
vn -0.269600 -0.962900 0.011400
vn -0.062600 -0.989400 0.130900
vn -0.160100 -0.973000 0.166100
vn -0.353500 -0.932200 0.077900
vn -0.730200 -0.626800 -0.271800
vn -0.623800 -0.625400 -0.468700
vn -0.478300 -0.853500 0.206400
vn -0.349000 -0.894100 0.280600
vn -0.653100 -0.466000 0.596800
vn -0.707800 -0.481300 0.517000
vn -0.868900 -0.427300 0.249900
vn -0.799900 -0.598300 -0.046000
vn 0.130400 -0.985700 0.106500
vn 0.128300 -0.980700 0.147100
vn 0.056700 -0.985500 0.160000
vn 0.054300 -0.985800 0.159000
vn 0.035000 -0.986200 0.161700
vn 0.058600 -0.986100 0.155300
vn -0.044600 -0.984400 0.170100
vn -0.071700 -0.979800 0.186700
vn -0.327900 -0.907600 0.262200
vn -0.318000 -0.925400 0.206200
vn -0.847700 -0.423600 0.319300
vn -0.747800 -0.442900 0.494500
vn 0.189900 -0.954600 0.229300
vn 0.118100 -0.968500 0.219300
vn 0.113600 -0.967900 0.224200
vn 0.025300 -0.964000 0.264600
vn -0.235300 -0.916700 0.323000
vn -0.011500 -0.671900 0.740500
vn -0.508400 -0.355200 0.784400
vn -0.808600 -0.395300 0.435700
vn -0.136800 0.990200 -0.027600
vn 0.054200 0.984100 0.168900
vn 0.186000 0.980200 -0.067800
vn 0.075600 0.947800 -0.309500
vn 0.123300 0.911600 -0.392100
vn 0.193000 0.969700 -0.149900
vn 0.129100 0.981100 -0.143700
vn 0.059400 0.936600 -0.345300
vn 0.067000 0.936200 -0.345100
vn 0.159300 0.969900 -0.183900
vn 0.071400 0.974500 0.212700
vn 0.026900 0.989800 0.140000
vn 0.148800 0.987900 0.042000
vn 0.189100 0.980700 0.049600
vn 0.189200 0.981900 -0.005800
vn 0.145900 0.989300 0.003100
vn 0.103500 0.994400 -0.020500
vn 0.137900 0.990000 -0.028100
vn 0.201100 0.975200 -0.091900
vn 0.208400 0.976700 -0.051600
vn 0.011200 0.987600 0.156400
vn 0.145500 0.984200 0.101000
vn 0.159100 0.983300 0.088100
vn 0.157800 0.983100 0.093100
vn 0.382600 0.910600 0.156500
vt -0.545000 1.272100
vt -0.550100 1.310100
vt -0.599300 1.287900
vt -0.578200 1.243300
vt -0.544600 1.217300
vt -0.524700 1.233400
vt -0.492400 1.249400
vt -0.494500 1.280600
vt -0.489800 1.314700
vt -0.545300 1.345600
vt -0.481100 1.346800
vt -0.470400 1.379500
vt -0.532900 1.380800
vt -0.585400 1.388800
vt -0.600600 1.338500
vt -0.515300 1.417400
vt -0.459900 1.415700
vt -0.453500 1.443600
vt -0.490600 1.453500
vt -0.523000 1.460000
vt -0.556900 1.432200
vt -0.088400 1.545600
vt -0.154200 1.599400
vt -0.167400 1.553300
vt -0.133800 1.505500
vt -0.095500 1.432700
vt -0.045000 1.470500
vt 0.005400 1.515200
vt -0.043000 1.592300
vt -0.129200 1.646400
vt -0.020200 1.408000
vt -0.075300 1.372100
vt -0.072400 1.314300
vt -0.013400 1.343100
vt 0.043500 1.374000
vt 0.034200 1.449100
vt -0.023800 1.261200
vt -0.085700 1.250000
vt -0.110000 1.203400
vt -0.074900 1.183900
vt -0.033000 1.165000
vt 0.033700 1.269900
vt -0.456900 1.487000
vt -0.411500 1.460300
vt -0.360200 1.480600
vt -0.419900 1.517500
vt -0.500400 1.530300
vt -0.517700 1.492000
vt -0.385100 1.544300
vt -0.315900 1.500600
vt -0.270800 1.521800
vt -0.333700 1.570200
vt -0.449100 1.627200
vt -0.481500 1.563000
vt -0.246400 1.598100
vt -0.217100 1.545700
vt -0.271300 1.643200
vt -0.483600 1.195400
vt -0.526300 1.177600
vt -0.490300 1.132100
vt -0.433100 1.159400
vt -0.397600 1.204000
vt -0.454300 1.231200
vt -0.384700 1.126500
vt -0.460600 1.090200
vt -0.407500 1.035500
vt -0.312300 1.112400
vt -0.268400 1.170800
vt -0.338400 1.181200
vt -0.190100 1.132900
vt -0.194400 1.087600
vt -0.179400 1.180800
vt -0.586800 1.194200
vt -0.585300 1.140100
vt -0.637600 1.244200
vt -0.670300 1.197000
vt -0.588200 1.096100
vt -0.703100 1.164500
vt -0.750800 1.158300
vt -0.629600 1.075000
vt -0.743700 1.089300
vt -0.828000 1.190100
vt -0.920100 1.240800
vt -0.894100 1.121300
vt -0.856200 0.988900
vt -0.629600 1.006500
vt -0.651100 1.326300
vt -0.631100 1.410300
vt -0.671200 1.439100
vt -0.697700 1.316200
vt -0.741300 1.315400
vt -0.707100 1.468800
vt -0.753100 1.482500
vt -0.790300 1.320300
vt -0.853000 1.326900
vt -0.823800 1.463200
vt -0.906800 1.427200
vt -0.922500 1.334300
vt -0.581200 1.466000
vt -0.594800 1.507300
vt -0.604600 1.544600
vt -0.643700 1.566700
vt -0.745500 1.562400
vt -0.642700 1.643200
vt -0.844000 1.675000
vt -0.878600 1.544900
vt -0.156200 1.233700
vt -0.135400 1.289700
vt -0.202000 1.275600
vt -0.229600 1.223500
vt -0.299800 1.230600
vt -0.271300 1.278600
vt -0.343400 1.291100
vt -0.367600 1.247900
vt -0.433900 1.268600
vt -0.418600 1.305800
vt -0.131900 1.346600
vt -0.146400 1.408400
vt -0.199000 1.393500
vt -0.191400 1.332200
vt -0.255200 1.329300
vt -0.255000 1.384000
vt -0.318800 1.379200
vt -0.325500 1.333700
vt -0.404300 1.341200
vt -0.394900 1.378400
vt -0.179300 1.478600
vt -0.225700 1.459800
vt -0.273900 1.444200
vt -0.328500 1.431300
vt -0.394000 1.421100
vt 0.445800 0.586300
vt 0.439000 0.531600
vt 0.497600 0.540400
vt 0.493500 0.583000
vt 0.492400 0.619500
vt 0.464100 0.638200
vt 0.432900 0.664100
vt 0.400600 0.600600
vt 0.382800 0.532200
vt 0.436600 0.487300
vt 0.439600 0.450800
vt 0.496600 0.476800
vt 0.497500 0.506400
vt 0.378300 0.474400
vt 0.385600 0.426300
vt 0.449100 0.419400
vt 0.473500 0.395700
vt 0.503000 0.422000
vt 0.498400 0.447800
vt 0.403200 0.387200
vt 0.438000 0.359500
vt 0.358800 0.622400
vt 0.330200 0.547300
vt 0.404500 0.690100
vt 0.371300 0.716900
vt 0.315400 0.648500
vt 0.275700 0.570400
vt 0.322400 0.477800
vt 0.333000 0.416400
vt 0.264700 0.491400
vt 0.278100 0.418200
vt 0.359300 0.366000
vt 0.404800 0.330600
vt 0.311300 0.357500
vt 0.363300 0.312800
vt 0.265500 0.675800
vt 0.214200 0.594900
vt 0.326000 0.745100
vt 0.275300 0.751900
vt 0.217000 0.702700
vt 0.153100 0.615100
vt 0.201200 0.509200
vt 0.217300 0.428700
vt 0.138100 0.520000
vt 0.159400 0.430400
vt 0.253000 0.363200
vt 0.303300 0.309800
vt 0.204300 0.358900
vt 0.259100 0.311300
vt 0.629600 0.421700
vt 0.667900 0.474600
vt 0.617900 0.491400
vt 0.599500 0.448600
vt 0.574000 0.418700
vt 0.577300 0.388000
vt 0.570600 0.352300
vt 0.649300 0.386600
vt 0.711400 0.448900
vt 0.682100 0.538100
vt 0.666700 0.601500
vt 0.614900 0.573700
vt 0.624200 0.532200
vt 0.735200 0.539900
vt 0.713200 0.630800
vt 0.616000 0.654100
vt 0.553100 0.682600
vt 0.554300 0.647500
vt 0.586400 0.618400
vt 0.637900 0.692900
vt 0.547700 0.720400
vt 0.665500 0.353100
vt 0.751700 0.422200
vt 0.560600 0.320600
vt 0.533800 0.251700
vt 0.699100 0.324100
vt 0.800700 0.403000
vt 0.783700 0.538100
vt 0.754900 0.654900
vt 0.837100 0.535500
vt 0.803600 0.669800
vt 0.658500 0.726400
vt 0.544500 0.753700
vt 0.695300 0.753900
vt 0.516600 0.828600
vt 0.771600 0.302700
vt 0.870400 0.400000
vt 0.640600 0.224100
vt 0.747300 0.169700
vt 0.863500 0.284900
vt 0.950600 0.405100
vt 0.904800 0.534800
vt 0.871200 0.671600
vt 0.979600 0.535100
vt 0.948200 0.666800
vt 0.766000 0.774500
vt 0.853800 0.791700
vt 0.728000 0.913300
vt 0.625100 0.860600
vt 0.184900 0.320200
vt 0.113000 0.406000
vt 0.072200 0.368400
vt 0.180200 0.264300
vt 0.311900 0.208500
vt 0.275500 0.268900
vt 0.081500 0.512800
vt 0.100000 0.625300
vt 0.051000 0.630500
vt 0.028100 0.496500
vt 0.178000 0.727900
vt 0.278900 0.793800
vt 0.270700 0.831400
vt 0.143600 0.752200
vt 0.552100 0.457400
vt 0.558400 0.491200
vt 0.540300 0.420800
vt 0.561300 0.521500
vt 0.557400 0.553900
vt 0.543000 0.594200
vt 0.522700 0.636300
vt 0.362800 0.265400
vt 0.433100 0.287800
vt 0.427000 0.225400
vt 0.472800 0.314300
vt 0.497000 0.345600
vt 0.520700 0.382300
vt 0.501200 0.673800
vt 0.480600 0.707400
vt 0.463100 0.737800
vt 0.430900 0.766700
vt 0.366400 0.796100
vt 0.396700 0.837900
vt -0.427100 -0.197200
vt -0.419400 -0.146200
vt -0.482200 -0.153000
vt -0.478600 -0.193900
vt -0.477400 -0.229600
vt -0.446100 -0.247100
vt -0.409300 -0.271600
vt -0.377700 -0.211000
vt -0.359300 -0.148000
vt -0.418600 -0.105800
vt -0.424200 -0.073100
vt -0.484800 -0.091600
vt -0.483200 -0.120100
vt -0.357300 -0.096000
vt -0.367900 -0.054100
vt -0.436200 -0.044900
vt -0.462000 -0.020700
vt -0.495300 -0.040300
vt -0.490200 -0.063600
vt -0.387100 -0.021500
vt -0.421600 0.006200
vt -0.329700 -0.229300
vt -0.301000 -0.159000
vt -0.373900 -0.294700
vt -0.332400 -0.315900
vt -0.279400 -0.248000
vt -0.241600 -0.172100
vt -0.297900 -0.093700
vt -0.314500 -0.038800
vt -0.237800 -0.094000
vt -0.260700 -0.025700
vt -0.344800 0.000400
vt -0.390000 0.031500
vt -0.303200 0.021100
vt -0.357300 0.056600
vt -0.223400 -0.263300
vt -0.178000 -0.180300
vt -0.277100 -0.334700
vt -0.220900 -0.332400
vt -0.169200 -0.277500
vt -0.116900 -0.183800
vt -0.174400 -0.092200
vt -0.203400 -0.013600
vt -0.114100 -0.085800
vt -0.150100 0.002000
vt -0.256100 0.040900
vt -0.313500 0.083000
vt -0.214400 0.065000
vt -0.269900 0.096700
vt -0.621400 -0.030500
vt -0.662300 -0.087200
vt -0.613500 -0.106900
vt -0.595100 -0.062200
vt -0.567600 -0.031200
vt -0.566100 0.002000
vt -0.551000 0.040700
vt -0.635400 0.009900
vt -0.702800 -0.057800
vt -0.675800 -0.158000
vt -0.656600 -0.226100
vt -0.609200 -0.192200
vt -0.619700 -0.149900
vt -0.724800 -0.161200
vt -0.696000 -0.261100
vt -0.599700 -0.275000
vt -0.532000 -0.296900
vt -0.540500 -0.261200
vt -0.577700 -0.234800
vt -0.610700 -0.318100
vt -0.514000 -0.335500
vt -0.646100 0.045400
vt -0.740000 -0.029800
vt -0.534600 0.073300
vt -0.496800 0.147400
vt -0.676100 0.074800
vt -0.786200 -0.010800
vt -0.770400 -0.160600
vt -0.732800 -0.288300
vt -0.821700 -0.158900
vt -0.779100 -0.304900
vt -0.622700 -0.354100
vt -0.499700 -0.369400
vt -0.654900 -0.384500
vt -0.451100 -0.441700
vt -0.747500 0.097200
vt -0.853300 -0.008600
vt -0.606100 0.181000
vt -0.718100 0.240200
vt -0.839800 0.116000
vt -0.931100 -0.014800
vt -0.887900 -0.158600
vt -0.847000 -0.307500
vt -0.961500 -0.159100
vt -0.925700 -0.303300
vt -0.726700 -0.410400
vt -0.818400 -0.434000
vt -0.675300 -0.558000
vt -0.566600 -0.490100
vt -0.188700 0.098600
vt -0.108200 0.025300
vt -0.072100 0.052500
vt -0.171100 0.136900
vt -0.287000 0.180100
vt -0.279800 0.135500
vt -0.063200 -0.072700
vt -0.064900 -0.183000
vt -0.017500 -0.180100
vt -0.017100 -0.056200
vt -0.124600 -0.293200
vt -0.214200 -0.371900
vt -0.194400 -0.406300
vt -0.084800 -0.309500
vt -0.547300 -0.071300
vt -0.551100 -0.105600
vt -0.535300 -0.035400
vt -0.552900 -0.136000
vt -0.548300 -0.168100
vt -0.533100 -0.207100
vt -0.509800 -0.247600
vt -0.356800 0.124400
vt -0.415400 0.091300
vt -0.393000 0.165400
vt -0.451300 0.062200
vt -0.478000 0.033200
vt -0.509100 0.000100
vt -0.480900 -0.284000
vt -0.450800 -0.316500
vt -0.423700 -0.345500
vt -0.381400 -0.369700
vt -0.305700 -0.387900
vt -0.321800 -0.432000
vt 0.696600 1.390300
vt 0.674900 1.353200
vt 0.721400 1.328000
vt 0.740600 1.374700
vt 0.744900 1.416400
vt 0.715600 1.435500
vt 0.684000 1.453400
vt 0.658700 1.422900
vt 0.631400 1.387100
vt 0.649200 1.329000
vt 0.605300 1.362600
vt 0.578700 1.343600
vt 0.619500 1.311200
vt 0.652000 1.272300
vt 0.691200 1.295300
vt 0.585800 1.293400
vt 0.549600 1.324500
vt 0.528800 1.303600
vt 0.546400 1.276500
vt 0.562300 1.250600
vt 0.605700 1.254300
vt 0.244700 1.403800
vt 0.254300 1.326600
vt 0.289500 1.352100
vt 0.297400 1.407000
vt 0.318300 1.482500
vt 0.258700 1.483300
vt 0.194100 1.477600
vt 0.189200 1.393900
vt 0.215500 1.305000
vt 0.275900 1.541300
vt 0.338500 1.541400
vt 0.367200 1.591000
vt 0.307300 1.594200
vt 0.245700 1.592800
vt 0.208700 1.534500
vt 0.364400 1.658300
vt 0.413700 1.638500
vt 0.456300 1.672300
vt 0.444000 1.705100
vt 0.424900 1.748200
vt 0.317800 1.680600
vt 0.499900 1.261800
vt 0.491700 1.306400
vt 0.448800 1.304200
vt 0.454000 1.250300
vt 0.491500 1.203400
vt 0.534600 1.225100
vt 0.416700 1.243100
vt 0.411500 1.305500
vt 0.372300 1.312700
vt 0.372900 1.248700
vt 0.371900 1.152100
vt 0.453500 1.187400
vt 0.307900 1.275700
vt 0.323900 1.327800
vt 0.294200 1.232300
vt 0.732800 1.483700
vt 0.773800 1.438900
vt 0.827900 1.487800
vt 0.733000 1.539800
vt 0.667400 1.556200
vt 0.679900 1.498700
vt 0.700900 1.609000
vt 0.772800 1.594700
vt 0.697900 1.689100
vt 0.637400 1.671200
vt 0.578300 1.645800
vt 0.631700 1.607200
vt 0.543400 1.706300
vt 0.566800 1.745600
vt 0.513000 1.666100
vt 0.786200 1.374600
vt 0.828000 1.356700
vt 0.771800 1.308200
vt 0.807300 1.272600
vt 0.860800 1.287800
vt 0.809100 1.199600
vt 0.783400 1.114100
vt 0.868800 1.189700
vt 0.950500 1.287300
vt 0.899600 1.394000
vt 0.836200 1.084200
vt 0.736600 1.040700
vt 0.679200 0.973300
vt 0.783400 0.974900
vt 0.906400 0.976400
vt 0.943000 1.141600
vt 0.732500 1.256900
vt 0.673600 1.224100
vt 0.672700 1.174200
vt 0.752800 1.209200
vt 0.731800 1.147500
vt 0.637800 1.130300
vt 0.595100 1.083800
vt 0.690900 1.082600
vt 0.651500 1.025200
vt 0.570700 1.026100
vt 0.555300 0.962900
vt 0.612800 0.971400
vt 0.600100 1.213000
vt 0.574900 1.175200
vt 0.536100 1.146600
vt 0.500300 1.106100
vt 0.484100 1.032100
vt 0.394700 1.040500
vt 0.390200 0.913300
vt 0.477800 0.941400
vt 0.468500 1.623900
vt 0.423700 1.578400
vt 0.473700 1.555900
vt 0.522200 1.605100
vt 0.567800 1.572800
vt 0.514200 1.523000
vt 0.551100 1.481400
vt 0.604600 1.528500
vt 0.631400 1.473700
vt 0.590100 1.433000
vt 0.392200 1.527900
vt 0.367800 1.468700
vt 0.410000 1.447300
vt 0.437700 1.504400
vt 0.475800 1.474400
vt 0.447400 1.423500
vt 0.486100 1.398200
vt 0.513700 1.439500
vt 0.558500 1.400800
vt 0.532100 1.372100
vt 0.344500 1.397100
vt 0.386400 1.381100
vt 0.423800 1.366500
vt 0.462000 1.353300
vt 0.506100 1.341900
f 1/1/1 2/2/2 3/3/3
f 1/1/1 3/3/3 4/4/4
f 1/1/1 4/4/4 5/5/5
f 1/1/1 5/5/5 6/6/6
f 1/1/1 6/6/6 7/7/7
f 1/1/1 7/7/7 8/8/8
f 1/1/1 8/8/8 9/9/9
f 1/1/1 9/9/9 2/2/2
f 10/10/10 2/2/2 9/9/9
f 10/10/10 9/9/9 11/11/11
f 10/10/10 11/11/11 12/12/12
f 10/10/10 12/12/12 13/13/13
f 10/10/10 13/13/13 14/14/14
f 10/10/10 14/14/14 15/15/15
f 10/10/10 15/15/15 3/3/3
f 10/10/10 3/3/3 2/2/2
f 16/16/16 13/13/13 12/12/12
f 16/16/16 12/12/12 17/17/17
f 16/16/16 17/17/17 18/18/18
f 16/16/16 18/18/18 19/19/19
f 16/16/16 19/19/19 20/20/20
f 16/16/16 20/20/20 21/21/21
f 16/16/16 21/21/21 14/14/14
f 16/16/16 14/14/14 13/13/13
f 22/22/22 23/23/23 24/24/24
f 22/22/22 24/24/24 25/25/25
f 22/22/22 25/25/25 26/26/26
f 22/22/22 26/26/26 27/27/27
f 22/22/22 27/27/27 28/28/28
f 22/22/22 28/28/28 29/29/29
f 22/22/22 29/29/29 30/30/30
f 22/22/22 30/30/30 23/23/23
f 31/31/31 27/27/27 26/26/26
f 31/31/31 26/26/26 32/32/32
f 31/31/31 32/32/32 33/33/33
f 31/31/31 33/33/33 34/34/34
f 31/31/31 34/34/34 35/35/35
f 31/31/31 35/35/35 36/36/36
f 31/31/31 36/36/36 28/28/28
f 31/31/31 28/28/28 27/27/27
f 37/37/37 34/34/34 33/33/33
f 37/37/37 33/33/33 38/38/38
f 37/37/37 38/38/38 39/39/39
f 37/37/37 39/39/39 40/40/40
f 37/37/37 40/40/40 41/41/41
f 37/37/37 41/41/41 42/42/42
f 37/37/37 42/42/42 35/35/35
f 37/37/37 35/35/35 34/34/34
f 43/43/43 19/19/19 18/18/18
f 43/43/43 18/18/18 44/44/44
f 43/43/43 44/44/44 45/45/45
f 43/43/43 45/45/45 46/46/46
f 43/43/43 46/46/46 47/47/47
f 43/43/43 47/47/47 48/48/48
f 43/43/43 48/48/48 20/20/20
f 43/43/43 20/20/20 19/19/19
f 49/49/49 46/46/46 45/45/45
f 49/49/49 45/45/45 50/50/50
f 49/49/49 50/50/50 51/51/51
f 49/49/49 51/51/51 52/52/52
f 49/49/49 52/52/52 53/53/53
f 49/49/49 53/53/53 54/54/54
f 49/49/49 54/54/54 47/47/47
f 49/49/49 47/47/47 46/46/46
f 55/55/55 52/52/52 51/51/51
f 55/55/55 51/51/51 56/56/56
f 55/55/55 56/56/56 24/24/24
f 55/55/55 24/24/24 23/23/23
f 55/55/55 23/23/23 30/30/30
f 55/55/55 30/30/30 57/57/57
f 55/55/55 57/57/57 53/53/53
f 55/55/55 53/53/53 52/52/52
f 58/58/58 6/6/6 5/5/5
f 58/58/58 5/5/5 59/59/59
f 58/58/58 59/59/59 60/60/60
f 58/58/58 60/60/60 61/61/61
f 58/58/58 61/61/61 62/62/62
f 58/58/58 62/62/62 63/63/63
f 58/58/58 63/63/63 7/7/7
f 58/58/58 7/7/7 6/6/6
f 64/64/64 61/61/61 60/60/60
f 64/64/64 60/60/60 65/65/65
f 64/64/64 65/65/65 66/66/66
f 64/64/64 66/66/66 67/67/67
f 64/64/64 67/67/67 68/68/68
f 64/64/64 68/68/68 69/69/69
f 64/64/64 69/69/69 62/62/62
f 64/64/64 62/62/62 61/61/61
f 70/70/70 67/67/67 66/66/66
f 70/70/70 66/66/66 71/71/71
f 70/70/70 71/71/71 41/41/41
f 70/70/70 41/41/41 40/40/40
f 70/70/70 40/40/40 39/39/39
f 70/70/70 39/39/39 72/72/72
f 70/70/70 72/72/72 68/68/68
f 70/70/70 68/68/68 67/67/67
f 73/73/73 74/74/74 60/60/60
f 73/73/73 60/60/60 59/59/59
f 73/73/73 59/59/59 5/5/5
f 73/73/73 5/5/5 4/4/4
f 73/73/73 4/4/4 3/3/3
f 73/73/73 3/3/3 75/75/75
f 73/73/73 75/75/75 76/76/76
f 73/73/73 76/76/76 74/74/74
f 77/77/77 74/74/74 76/76/76
f 77/77/77 76/76/76 78/78/78
f 77/77/77 78/78/78 79/79/79
f 77/77/77 79/79/79 80/80/80
f 77/77/77 80/80/80 66/66/66
f 77/77/77 66/66/66 65/65/65
f 77/77/77 65/65/65 60/60/60
f 77/77/77 60/60/60 74/74/74
f 81/81/81 80/80/80 79/79/79
f 81/81/81 79/79/79 82/82/82
f 81/81/81 82/82/82 83/83/83
f 81/81/81 83/83/83 84/84/84
f 81/81/81 84/84/84 85/85/85
f 81/81/81 85/85/85 86/86/86
f 81/81/81 86/86/86 66/66/66
f 81/81/81 66/66/66 80/80/80
f 87/87/87 15/15/15 14/14/14
f 87/87/87 14/14/14 88/88/88
f 87/87/87 88/88/88 89/89/89
f 87/87/87 89/89/89 90/90/90
f 87/87/87 90/90/90 76/76/76
f 87/87/87 76/76/76 75/75/75
f 87/87/87 75/75/75 3/3/3
f 87/87/87 3/3/3 15/15/15
f 91/91/91 90/90/90 89/89/89
f 91/91/91 89/89/89 92/92/92
f 91/91/91 92/92/92 93/93/93
f 91/91/91 93/93/93 94/94/94
f 91/91/91 94/94/94 79/79/79
f 91/91/91 79/79/79 78/78/78
f 91/91/91 78/78/78 76/76/76
f 91/91/91 76/76/76 90/90/90
f 95/95/95 94/94/94 93/93/93
f 95/95/95 93/93/93 96/96/96
f 95/95/95 96/96/96 97/97/97
f 95/95/95 97/97/97 98/98/98
f 95/95/95 98/98/98 83/83/83
f 95/95/95 83/83/83 82/82/82
f 95/95/95 82/82/82 79/79/79
f 95/95/95 79/79/79 94/94/94
f 99/99/99 21/21/21 20/20/20
f 99/99/99 20/20/20 48/48/48
f 99/99/99 48/48/48 47/47/47
f 99/99/99 47/47/47 100/100/100
f 99/99/99 100/100/100 89/89/89
f 99/99/99 89/89/89 88/88/88
f 99/99/99 88/88/88 14/14/14
f 99/99/99 14/14/14 21/21/21
f 101/101/101 100/100/100 47/47/47
f 101/101/101 47/47/47 54/54/54
f 101/101/101 54/54/54 53/53/53
f 101/101/101 53/53/53 102/102/102
f 101/101/101 102/102/102 93/93/93
f 101/101/101 93/93/93 92/92/92
f 101/101/101 92/92/92 89/89/89
f 101/101/101 89/89/89 100/100/100
f 103/103/103 102/102/102 53/53/53
f 103/103/103 53/53/53 104/104/104
f 103/103/103 104/104/104 105/105/105
f 103/103/103 105/105/105 106/106/106
f 103/103/103 106/106/106 97/97/97
f 103/103/103 97/97/97 96/96/96
f 103/103/103 96/96/96 93/93/93
f 103/103/103 93/93/93 102/102/102
f 107/107/107 38/38/38 33/33/33
f 107/107/107 33/33/33 108/108/108
f 107/107/107 108/108/108 109/109/109
f 107/107/107 109/109/109 110/110/110
f 107/107/107 110/110/110 68/68/68
f 107/107/107 68/68/68 72/72/72
f 107/107/107 72/72/72 39/39/39
f 107/107/107 39/39/39 38/38/38
f 111/111/111 110/110/110 109/109/109
f 111/111/111 109/109/109 112/112/112
f 111/111/111 112/112/112 113/113/113
f 111/111/111 113/113/113 114/114/114
f 111/111/111 114/114/114 62/62/62
f 111/111/111 62/62/62 69/69/69
f 111/111/111 69/69/69 68/68/68
f 111/111/111 68/68/68 110/110/110
f 115/115/115 114/114/114 113/113/113
f 115/115/115 113/113/113 116/116/116
f 115/115/115 116/116/116 9/9/9
f 115/115/115 9/9/9 8/8/8
f 115/115/115 8/8/8 7/7/7
f 115/115/115 7/7/7 63/63/63
f 115/115/115 63/63/63 62/62/62
f 115/115/115 62/62/62 114/114/114
f 117/117/117 32/32/32 26/26/26
f 117/117/117 26/26/26 118/118/118
f 117/117/117 118/118/118 119/119/119
f 117/117/117 119/119/119 120/120/120
f 117/117/117 120/120/120 109/109/109
f 117/117/117 109/109/109 108/108/108
f 117/117/117 108/108/108 33/33/33
f 117/117/117 33/33/33 32/32/32
f 121/121/121 120/120/120 119/119/119
f 121/121/121 119/119/119 122/122/122
f 121/121/121 122/122/122 123/123/123
f 121/121/121 123/123/123 124/124/124
f 121/121/121 124/124/124 113/113/113
f 121/121/121 113/113/113 112/112/112
f 121/121/121 112/112/112 109/109/109
f 121/121/121 109/109/109 120/120/120
f 125/125/125 124/124/124 123/123/123
f 125/125/125 123/123/123 126/126/126
f 125/125/125 126/126/126 12/12/12
f 125/125/125 12/12/12 11/11/11
f 125/125/125 11/11/11 9/9/9
f 125/125/125 9/9/9 116/116/116
f 125/125/125 116/116/116 113/113/113
f 125/125/125 113/113/113 124/124/124
f 127/127/127 25/25/25 24/24/24
f 127/127/127 24/24/24 56/56/56
f 127/127/127 56/56/56 51/51/51
f 127/127/127 51/51/51 128/128/128
f 127/127/127 128/128/128 119/119/119
f 127/127/127 119/119/119 118/118/118
f 127/127/127 118/118/118 26/26/26
f 127/127/127 26/26/26 25/25/25
f 129/129/129 128/128/128 51/51/51
f 129/129/129 51/51/51 50/50/50
f 129/129/129 50/50/50 45/45/45
f 129/129/129 45/45/45 130/130/130
f 129/129/129 130/130/130 123/123/123
f 129/129/129 123/123/123 122/122/122
f 129/129/129 122/122/122 119/119/119
f 129/129/129 119/119/119 128/128/128
f 131/131/131 130/130/130 45/45/45
f 131/131/131 45/45/45 44/44/44
f 131/131/131 44/44/44 18/18/18
f 131/131/131 18/18/18 17/17/17
f 131/131/131 17/17/17 12/12/12
f 131/131/131 12/12/12 126/126/126
f 131/131/131 126/126/126 123/123/123
f 131/131/131 123/123/123 130/130/130
f 132/132/132 133/133/133 134/134/134
f 132/132/132 134/134/134 135/135/135
f 132/132/132 135/135/135 136/136/136
f 132/132/132 136/136/136 137/137/137
f 132/132/132 137/137/137 138/138/138
f 132/132/132 138/138/138 139/139/139
f 132/132/132 139/139/139 140/140/140
f 132/132/132 140/140/140 133/133/133
f 141/141/141 142/142/142 143/143/143
f 141/141/141 143/143/143 144/144/144
f 141/141/141 144/144/144 134/134/134
f 141/141/141 134/134/134 133/133/133
f 141/141/141 133/133/133 140/140/140
f 141/141/141 140/140/140 145/145/145
f 141/141/141 145/145/145 146/146/146
f 141/141/141 146/146/146 142/142/142
f 147/147/147 148/148/148 149/149/149
f 147/147/147 149/149/149 150/150/150
f 147/147/147 150/150/150 143/143/143
f 147/147/147 143/143/143 142/142/142
f 147/147/147 142/142/142 146/146/146
f 147/147/147 146/146/146 151/151/151
f 147/147/147 151/151/151 152/152/152
f 147/147/147 152/152/152 148/148/148
f 153/153/153 154/154/154 140/140/140
f 153/153/153 140/140/140 139/139/139
f 153/153/153 139/139/139 138/138/138
f 153/153/153 138/138/138 155/155/155
f 153/153/153 155/155/155 156/156/156
f 153/153/153 156/156/156 157/157/157
f 153/153/153 157/157/157 158/158/158
f 153/153/153 158/158/158 154/154/154
f 159/159/159 160/160/160 146/146/146
f 159/159/159 146/146/146 145/145/145
f 159/159/159 145/145/145 140/140/140
f 159/159/159 140/140/140 154/154/154
f 159/159/159 154/154/154 158/158/158
f 159/159/159 158/158/158 161/161/161
f 159/159/159 161/161/161 162/162/162
f 159/159/159 162/162/162 160/160/160
f 163/163/163 164/164/164 152/152/152
f 163/163/163 152/152/152 151/151/151
f 163/163/163 151/151/151 146/146/146
f 163/163/163 146/146/146 160/160/160
f 163/163/163 160/160/160 162/162/162
f 163/163/163 162/162/162 165/165/165
f 163/163/163 165/165/165 166/166/166
f 163/163/163 166/166/166 164/164/164
f 167/167/167 168/168/168 158/158/158
f 167/167/167 158/158/158 157/157/157
f 167/167/167 157/157/157 156/156/156
f 167/167/167 156/156/156 169/169/169
f 167/167/167 169/169/169 170/170/170
f 167/167/167 170/170/170 171/171/171
f 167/167/167 171/171/171 172/172/172
f 167/167/167 172/172/172 168/168/168
f 173/173/173 174/174/174 162/162/162
f 173/173/173 162/162/162 161/161/161
f 173/173/173 161/161/161 158/158/158
f 173/173/173 158/158/158 168/168/168
f 173/173/173 168/168/168 172/172/172
f 173/173/173 172/172/172 175/175/175
f 173/173/173 175/175/175 176/176/176
f 173/173/173 176/176/176 174/174/174
f 177/177/177 178/178/178 166/166/166
f 177/177/177 166/166/166 165/165/165
f 177/177/177 165/165/165 162/162/162
f 177/177/177 162/162/162 174/174/174
f 177/177/177 174/174/174 176/176/176
f 177/177/177 176/176/176 179/179/179
f 177/177/177 179/179/179 180/180/180
f 177/177/177 180/180/180 178/178/178
f 181/181/181 182/182/182 183/183/183
f 181/181/181 183/183/183 184/184/184
f 181/181/181 184/184/184 185/185/185
f 181/181/181 185/185/185 186/186/186
f 181/181/181 186/186/186 187/187/187
f 181/181/181 187/187/187 188/188/188
f 181/181/181 188/188/188 189/189/189
f 181/181/181 189/189/189 182/182/182
f 190/190/190 191/191/191 192/192/192
f 190/190/190 192/192/192 193/193/193
f 190/190/190 193/193/193 183/183/183
f 190/190/190 183/183/183 182/182/182
f 190/190/190 182/182/182 189/189/189
f 190/190/190 189/189/189 194/194/194
f 190/190/190 194/194/194 195/195/195
f 190/190/190 195/195/195 191/191/191
f 196/196/196 197/197/197 198/198/198
f 196/196/196 198/198/198 199/199/199
f 196/196/196 199/199/199 192/192/192
f 196/196/196 192/192/192 191/191/191
f 196/196/196 191/191/191 195/195/195
f 196/196/196 195/195/195 200/200/200
f 196/196/196 200/200/200 201/201/201
f 196/196/196 201/201/201 197/197/197
f 202/202/202 203/203/203 189/189/189
f 202/202/202 189/189/189 188/188/188
f 202/202/202 188/188/188 187/187/187
f 202/202/202 187/187/187 204/204/204
f 202/202/202 204/204/204 205/205/205
f 202/202/202 205/205/205 206/206/206
f 202/202/202 206/206/206 207/207/207
f 202/202/202 207/207/207 203/203/203
f 208/208/208 209/209/209 195/195/195
f 208/208/208 195/195/195 194/194/194
f 208/208/208 194/194/194 189/189/189
f 208/208/208 189/189/189 203/203/203
f 208/208/208 203/203/203 207/207/207
f 208/208/208 207/207/207 210/210/210
f 208/208/208 210/210/210 211/211/211
f 208/208/208 211/211/211 209/209/209
f 212/212/212 213/213/213 201/201/201
f 212/212/212 201/201/201 200/200/200
f 212/212/212 200/200/200 195/195/195
f 212/212/212 195/195/195 209/209/209
f 212/212/212 209/209/209 211/211/211
f 212/212/212 211/211/211 214/214/214
f 212/212/212 214/214/214 215/215/215
f 212/212/212 215/215/215 213/213/213
f 216/216/216 217/217/217 207/207/207
f 216/216/216 207/207/207 206/206/206
f 216/216/216 206/206/206 205/205/205
f 216/216/216 205/205/205 218/218/218
f 216/216/216 218/218/218 219/219/219
f 216/216/216 219/219/219 220/220/220
f 216/216/216 220/220/220 221/221/221
f 216/216/216 221/221/221 217/217/217
f 222/222/222 223/223/223 211/211/211
f 222/222/222 211/211/211 210/210/210
f 222/222/222 210/210/210 207/207/207
f 222/222/222 207/207/207 217/217/217
f 222/222/222 217/217/217 221/221/221
f 222/222/222 221/221/221 224/224/224
f 222/222/222 224/224/224 225/225/225
f 222/222/222 225/225/225 223/223/223
f 226/226/226 223/223/223 225/225/225
f 226/226/226 225/225/225 227/227/227
f 226/226/226 227/227/227 228/228/228
f 226/226/226 228/228/228 229/229/229
f 226/226/226 229/229/229 215/215/215
f 226/226/226 215/215/215 214/214/214
f 226/226/226 214/214/214 211/211/211
f 226/226/226 211/211/211 223/223/223
f 230/230/230 231/231/231 232/232/232
f 230/230/230 232/232/232 233/233/233
f 230/230/230 233/233/233 234/234/234
f 230/230/230 234/234/234 235/235/235
f 230/230/230 235/235/235 180/180/180
f 230/230/230 180/180/180 179/179/179
f 230/230/230 179/179/179 176/176/176
f 230/230/230 176/176/176 231/231/231
f 236/236/236 237/237/237 238/238/238
f 236/236/236 238/238/238 239/239/239
f 236/236/236 239/239/239 232/232/232
f 236/236/236 232/232/232 231/231/231
f 236/236/236 231/231/231 176/176/176
f 236/236/236 176/176/176 175/175/175
f 236/236/236 175/175/175 172/172/172
f 236/236/236 172/172/172 237/237/237
f 240/240/240 241/241/241 242/242/242
f 240/240/240 242/242/242 243/243/243
f 240/240/240 243/243/243 238/238/238
f 240/240/240 238/238/238 237/237/237
f 240/240/240 237/237/237 172/172/172
f 240/240/240 172/172/172 171/171/171
f 240/240/240 171/171/171 170/170/170
f 240/240/240 170/170/170 241/241/241
f 244/244/244 245/245/245 143/143/143
f 244/244/244 143/143/143 150/150/150
f 244/244/244 150/150/150 149/149/149
f 244/244/244 149/149/149 246/246/246
f 244/244/244 246/246/246 185/185/185
f 244/244/244 185/185/185 184/184/184
f 244/244/244 184/184/184 183/183/183
f 244/244/244 183/183/183 245/245/245
f 247/247/247 248/248/248 134/134/134
f 247/247/247 134/134/134 144/144/144
f 247/247/247 144/144/144 143/143/143
f 247/247/247 143/143/143 245/245/245
f 247/247/247 245/245/245 183/183/183
f 247/247/247 183/183/183 193/193/193
f 247/247/247 193/193/193 192/192/192
f 247/247/247 192/192/192 248/248/248
f 249/249/249 250/250/250 136/136/136
f 249/249/249 136/136/136 135/135/135
f 249/249/249 135/135/135 134/134/134
f 249/249/249 134/134/134 248/248/248
f 249/249/249 248/248/248 192/192/192
f 249/249/249 192/192/192 199/199/199
f 249/249/249 199/199/199 198/198/198
f 249/249/249 198/198/198 250/250/250
f 251/251/251 252/252/252 166/166/166
f 251/251/251 166/166/166 178/178/178
f 251/251/251 178/178/178 180/180/180
f 251/251/251 180/180/180 235/235/235
f 251/251/251 235/235/235 234/234/234
f 251/251/251 234/234/234 253/253/253
f 251/251/251 253/253/253 205/205/205
f 251/251/251 205/205/205 252/252/252
f 254/254/254 255/255/255 152/152/152
f 254/254/254 152/152/152 164/164/164
f 254/254/254 164/164/164 166/166/166
f 254/254/254 166/166/166 252/252/252
f 254/254/254 252/252/252 205/205/205
f 254/254/254 205/205/205 204/204/204
f 254/254/254 204/204/204 187/187/187
f 254/254/254 187/187/187 255/255/255
f 256/256/256 246/246/246 149/149/149
f 256/256/256 149/149/149 148/148/148
f 256/256/256 148/148/148 152/152/152
f 256/256/256 152/152/152 255/255/255
f 256/256/256 255/255/255 187/187/187
f 256/256/256 187/187/187 186/186/186
f 256/256/256 186/186/186 185/185/185
f 256/256/256 185/185/185 246/246/246
f 257/257/257 258/258/258 138/138/138
f 257/257/257 138/138/138 137/137/137
f 257/257/257 137/137/137 136/136/136
f 257/257/257 136/136/136 250/250/250
f 257/257/257 250/250/250 198/198/198
f 257/257/257 198/198/198 197/197/197
f 257/257/257 197/197/197 201/201/201
f 257/257/257 201/201/201 258/258/258
f 259/259/259 260/260/260 156/156/156
f 259/259/259 156/156/156 155/155/155
f 259/259/259 155/155/155 138/138/138
f 259/259/259 138/138/138 258/258/258
f 259/259/259 258/258/258 201/201/201
f 259/259/259 201/201/201 213/213/213
f 259/259/259 213/213/213 215/215/215
f 259/259/259 215/215/215 260/260/260
f 261/261/261 260/260/260 215/215/215
f 261/261/261 215/215/215 262/262/262
f 261/261/261 262/262/262 242/242/242
f 261/261/261 242/242/242 241/241/241
f 261/261/261 241/241/241 170/170/170
f 261/261/261 170/170/170 169/169/169
f 261/261/261 169/169/169 156/156/156
f 261/261/261 156/156/156 260/260/260
f 263/263/263 264/264/264 265/265/265
f 263/263/263 265/265/265 266/266/266
f 263/263/263 266/266/266 267/267/267
f 263/263/263 267/267/267 268/268/268
f 263/263/263 268/268/268 269/269/269
f 263/263/263 269/269/269 270/270/270
f 263/263/263 270/270/270 271/271/271
f 263/263/263 271/271/271 264/264/264
f 272/272/272 273/273/273 274/274/274
f 272/272/272 274/274/274 275/275/275
f 272/272/272 275/275/275 265/265/265
f 272/272/272 265/265/265 264/264/264
f 272/272/272 264/264/264 271/271/271
f 272/272/272 271/271/271 276/276/276
f 272/272/272 276/276/276 277/277/277
f 272/272/272 277/277/277 273/273/273
f 278/278/278 279/279/279 280/280/280
f 278/278/278 280/280/280 281/281/281
f 278/278/278 281/281/281 274/274/274
f 278/278/278 274/274/274 273/273/273
f 278/278/278 273/273/273 277/277/277
f 278/278/278 277/277/277 282/282/282
f 278/278/278 282/282/282 283/283/283
f 278/278/278 283/283/283 279/279/279
f 284/284/284 285/285/285 271/271/271
f 284/284/284 271/271/271 270/270/270
f 284/284/284 270/270/270 269/269/269
f 284/284/284 269/269/269 286/286/286
f 284/284/284 286/286/286 287/287/287
f 284/284/284 287/287/287 288/288/288
f 284/284/284 288/288/288 289/289/289
f 284/284/284 289/289/289 285/285/285
f 290/290/290 291/291/291 277/277/277
f 290/290/290 277/277/277 276/276/276
f 290/290/290 276/276/276 271/271/271
f 290/290/290 271/271/271 285/285/285
f 290/290/290 285/285/285 289/289/289
f 290/290/290 289/289/289 292/292/292
f 290/290/290 292/292/292 293/293/293
f 290/290/290 293/293/293 291/291/291
f 294/294/294 295/295/295 283/283/283
f 294/294/294 283/283/283 282/282/282
f 294/294/294 282/282/282 277/277/277
f 294/294/294 277/277/277 291/291/291
f 294/294/294 291/291/291 293/293/293
f 294/294/294 293/293/293 296/296/296
f 294/294/294 296/296/296 297/297/297
f 294/294/294 297/297/297 295/295/295
f 298/298/298 299/299/299 289/289/289
f 298/298/298 289/289/289 288/288/288
f 298/298/298 288/288/288 287/287/287
f 298/298/298 287/287/287 300/300/300
f 298/298/298 300/300/300 301/301/301
f 298/298/298 301/301/301 302/302/302
f 298/298/298 302/302/302 303/303/303
f 298/298/298 303/303/303 299/299/299
f 304/304/304 305/305/305 293/293/293
f 304/304/304 293/293/293 292/292/292
f 304/304/304 292/292/292 289/289/289
f 304/304/304 289/289/289 299/299/299
f 304/304/304 299/299/299 303/303/303
f 304/304/304 303/303/303 306/306/306
f 304/304/304 306/306/306 307/307/307
f 304/304/304 307/307/307 305/305/305
f 308/308/308 309/309/309 297/297/297
f 308/308/308 297/297/297 296/296/296
f 308/308/308 296/296/296 293/293/293
f 308/308/308 293/293/293 305/305/305
f 308/308/308 305/305/305 307/307/307
f 308/308/308 307/307/307 310/310/310
f 308/308/308 310/310/310 311/311/311
f 308/308/308 311/311/311 309/309/309
f 312/312/312 313/313/313 314/314/314
f 312/312/312 314/314/314 315/315/315
f 312/312/312 315/315/315 316/316/316
f 312/312/312 316/316/316 317/317/317
f 312/312/312 317/317/317 318/318/318
f 312/312/312 318/318/318 319/319/319
f 312/312/312 319/319/319 320/320/320
f 312/312/312 320/320/320 313/313/313
f 321/321/321 322/322/322 323/323/323
f 321/321/321 323/323/323 324/324/324
f 321/321/321 324/324/324 314/314/314
f 321/321/321 314/314/314 313/313/313
f 321/321/321 313/313/313 320/320/320
f 321/321/321 320/320/320 325/325/325
f 321/321/321 325/325/325 326/326/326
f 321/321/321 326/326/326 322/322/322
f 327/327/327 328/328/328 329/329/329
f 327/327/327 329/329/329 330/330/330
f 327/327/327 330/330/330 323/323/323
f 327/327/327 323/323/323 322/322/322
f 327/327/327 322/322/322 326/326/326
f 327/327/327 326/326/326 331/331/331
f 327/327/327 331/331/331 332/332/332
f 327/327/327 332/332/332 328/328/328
f 333/333/333 334/334/334 320/320/320
f 333/333/333 320/320/320 319/319/319
f 333/333/333 319/319/319 318/318/318
f 333/333/333 318/318/318 335/335/335
f 333/333/333 335/335/335 336/336/336
f 333/333/333 336/336/336 337/337/337
f 333/333/333 337/337/337 338/338/338
f 333/333/333 338/338/338 334/334/334
f 339/339/339 340/340/340 326/326/326
f 339/339/339 326/326/326 325/325/325
f 339/339/339 325/325/325 320/320/320
f 339/339/339 320/320/320 334/334/334
f 339/339/339 334/334/334 338/338/338
f 339/339/339 338/338/338 341/341/341
f 339/339/339 341/341/341 342/342/342
f 339/339/339 342/342/342 340/340/340
f 343/343/343 344/344/344 332/332/332
f 343/343/343 332/332/332 331/331/331
f 343/343/343 331/331/331 326/326/326
f 343/343/343 326/326/326 340/340/340
f 343/343/343 340/340/340 342/342/342
f 343/343/343 342/342/342 345/345/345
f 343/343/343 345/345/345 346/346/346
f 343/343/343 346/346/346 344/344/344
f 347/347/347 348/348/348 338/338/338
f 347/347/347 338/338/338 337/337/337
f 347/347/347 337/337/337 336/336/336
f 347/347/347 336/336/336 349/349/349
f 347/347/347 349/349/349 350/350/350
f 347/347/347 350/350/350 351/351/351
f 347/347/347 351/351/351 352/352/352
f 347/347/347 352/352/352 348/348/348
f 353/353/353 354/354/354 342/342/342
f 353/353/353 342/342/342 341/341/341
f 353/353/353 341/341/341 338/338/338
f 353/353/353 338/338/338 348/348/348
f 353/353/353 348/348/348 352/352/352
f 353/353/353 352/352/352 355/355/355
f 353/353/353 355/355/355 356/356/356
f 353/353/353 356/356/356 354/354/354
f 357/357/357 354/354/354 356/356/356
f 357/357/357 356/356/356 358/358/358
f 357/357/357 358/358/358 359/359/359
f 357/357/357 359/359/359 360/360/360
f 357/357/357 360/360/360 346/346/346
f 357/357/357 346/346/346 345/345/345
f 357/357/357 345/345/345 342/342/342
f 357/357/357 342/342/342 354/354/354
f 361/361/361 362/362/362 363/363/363
f 361/361/361 363/363/363 364/364/364
f 361/361/361 364/364/364 365/365/365
f 361/361/361 365/365/365 366/366/366
f 361/361/361 366/366/366 311/311/311
f 361/361/361 311/311/311 310/310/310
f 361/361/361 310/310/310 307/307/307
f 361/361/361 307/307/307 362/362/362
f 367/367/367 368/368/368 369/369/369
f 367/367/367 369/369/369 370/370/370
f 367/367/367 370/370/370 363/363/363
f 367/367/367 363/363/363 362/362/362
f 367/367/367 362/362/362 307/307/307
f 367/367/367 307/307/307 306/306/306
f 367/367/367 306/306/306 303/303/303
f 367/367/367 303/303/303 368/368/368
f 371/371/371 372/372/372 373/373/373
f 371/371/371 373/373/373 374/374/374
f 371/371/371 374/374/374 369/369/369
f 371/371/371 369/369/369 368/368/368
f 371/371/371 368/368/368 303/303/303
f 371/371/371 303/303/303 302/302/302
f 371/371/371 302/302/302 301/301/301
f 371/371/371 301/301/301 372/372/372
f 375/375/375 376/376/376 274/274/274
f 375/375/375 274/274/274 281/281/281
f 375/375/375 281/281/281 280/280/280
f 375/375/375 280/280/280 377/377/377
f 375/375/375 377/377/377 316/316/316
f 375/375/375 316/316/316 315/315/315
f 375/375/375 315/315/315 314/314/314
f 375/375/375 314/314/314 376/376/376
f 378/378/378 379/379/379 265/265/265
f 378/378/378 265/265/265 275/275/275
f 378/378/378 275/275/275 274/274/274
f 378/378/378 274/274/274 376/376/376
f 378/378/378 376/376/376 314/314/314
f 378/378/378 314/314/314 324/324/324
f 378/378/378 324/324/324 323/323/323
f 378/378/378 323/323/323 379/379/379
f 380/380/380 381/381/381 267/267/267
f 380/380/380 267/267/267 266/266/266
f 380/380/380 266/266/266 265/265/265
f 380/380/380 265/265/265 379/379/379
f 380/380/380 379/379/379 323/323/323
f 380/380/380 323/323/323 330/330/330
f 380/380/380 330/330/330 329/329/329
f 380/380/380 329/329/329 381/381/381
f 382/382/382 383/383/383 297/297/297
f 382/382/382 297/297/297 309/309/309
f 382/382/382 309/309/309 311/311/311
f 382/382/382 311/311/311 366/366/366
f 382/382/382 366/366/366 365/365/365
f 382/382/382 365/365/365 384/384/384
f 382/382/382 384/384/384 336/336/336
f 382/382/382 336/336/336 383/383/383
f 385/385/385 386/386/386 283/283/283
f 385/385/385 283/283/283 295/295/295
f 385/385/385 295/295/295 297/297/297
f 385/385/385 297/297/297 383/383/383
f 385/385/385 383/383/383 336/336/336
f 385/385/385 336/336/336 335/335/335
f 385/385/385 335/335/335 318/318/318
f 385/385/385 318/318/318 386/386/386
f 387/387/387 377/377/377 280/280/280
f 387/387/387 280/280/280 279/279/279
f 387/387/387 279/279/279 283/283/283
f 387/387/387 283/283/283 386/386/386
f 387/387/387 386/386/386 318/318/318
f 387/387/387 318/318/318 317/317/317
f 387/387/387 317/317/317 316/316/316
f 387/387/387 316/316/316 377/377/377
f 388/388/388 389/389/389 269/269/269
f 388/388/388 269/269/269 268/268/268
f 388/388/388 268/268/268 267/267/267
f 388/388/388 267/267/267 381/381/381
f 388/388/388 381/381/381 329/329/329
f 388/388/388 329/329/329 328/328/328
f 388/388/388 328/328/328 332/332/332
f 388/388/388 332/332/332 389/389/389
f 390/390/390 391/391/391 287/287/287
f 390/390/390 287/287/287 286/286/286
f 390/390/390 286/286/286 269/269/269
f 390/390/390 269/269/269 389/389/389
f 390/390/390 389/389/389 332/332/332
f 390/390/390 332/332/332 344/344/344
f 390/390/390 344/344/344 346/346/346
f 390/390/390 346/346/346 391/391/391
f 392/392/392 391/391/391 346/346/346
f 392/392/392 346/346/346 393/393/393
f 392/392/392 393/393/393 373/373/373
f 392/392/392 373/373/373 372/372/372
f 392/392/392 372/372/372 301/301/301
f 392/392/392 301/301/301 300/300/300
f 392/392/392 300/300/300 287/287/287
f 392/392/392 287/287/287 391/391/391
f 394/394/394 395/395/395 396/396/396
f 394/394/394 396/396/396 397/397/397
f 394/394/394 397/397/397 398/398/398
f 394/394/394 398/398/398 399/399/399
f 394/394/394 399/399/399 400/400/400
f 394/394/394 400/400/400 401/401/401
f 394/394/394 401/401/401 402/402/402
f 394/394/394 402/402/402 395/395/395
f 403/403/403 395/395/395 402/402/402
f 403/403/403 402/402/402 404/404/404
f 403/403/403 404/404/404 405/405/405
f 403/403/403 405/405/405 406/406/406
f 403/403/403 406/406/406 407/407/407
f 403/403/403 407/407/407 408/408/408
f 403/403/403 408/408/408 396/396/396
f 403/403/403 396/396/396 395/395/395
f 409/409/409 406/406/406 405/405/405
f 409/409/409 405/405/405 410/410/410
f 409/409/409 410/410/410 411/411/411
f 409/409/409 411/411/411 412/412/412
f 409/409/409 412/412/412 413/413/413
f 409/409/409 413/413/413 414/414/414
f 409/409/409 414/414/414 407/407/407
f 409/409/409 407/407/407 406/406/406
f 415/415/415 416/416/416 417/417/417
f 415/415/415 417/417/417 418/418/418
f 415/415/415 418/418/418 419/419/419
f 415/415/415 419/419/419 420/420/420
f 415/415/415 420/420/420 421/421/421
f 415/415/415 421/421/421 422/422/422
f 415/415/415 422/422/422 423/423/423
f 415/415/415 423/423/423 416/416/416
f 424/424/424 420/420/420 419/419/419
f 424/424/424 419/419/419 425/425/425
f 424/424/424 425/425/425 426/426/426
f 424/424/424 426/426/426 427/427/427
f 424/424/424 427/427/427 428/428/428
f 424/424/424 428/428/428 429/429/429
f 424/424/424 429/429/429 421/421/421
f 424/424/424 421/421/421 420/420/420
f 430/430/430 427/427/427 426/426/426
f 430/430/430 426/426/426 431/431/431
f 430/430/430 431/431/431 432/432/432
f 430/430/430 432/432/432 433/433/433
f 430/430/430 433/433/433 434/434/434
f 430/430/430 434/434/434 435/435/435
f 430/430/430 435/435/435 428/428/428
f 430/430/430 428/428/428 427/427/427
f 436/436/436 412/412/412 411/411/411
f 436/436/436 411/411/411 437/437/437
f 436/436/436 437/437/437 438/438/438
f 436/436/436 438/438/438 439/439/439
f 436/436/436 439/439/439 440/440/440
f 436/436/436 440/440/440 441/441/441
f 436/436/436 441/441/441 413/413/413
f 436/436/436 413/413/413 412/412/412
f 442/442/442 439/439/439 438/438/438
f 442/442/442 438/438/438 443/443/443
f 442/442/442 443/443/443 444/444/444
f 442/442/442 444/444/444 445/445/445
f 442/442/442 445/445/445 446/446/446
f 442/442/442 446/446/446 447/447/447
f 442/442/442 447/447/447 440/440/440
f 442/442/442 440/440/440 439/439/439
f 448/448/448 445/445/445 444/444/444
f 448/448/448 444/444/444 449/449/449
f 448/448/448 449/449/449 417/417/417
f 448/448/448 417/417/417 416/416/416
f 448/448/448 416/416/416 423/423/423
f 448/448/448 423/423/423 450/450/450
f 448/448/448 450/450/450 446/446/446
f 448/448/448 446/446/446 445/445/445
f 451/451/451 399/399/399 398/398/398
f 451/451/451 398/398/398 452/452/452
f 451/451/451 452/452/452 453/453/453
f 451/451/451 453/453/453 454/454/454
f 451/451/451 454/454/454 455/455/455
f 451/451/451 455/455/455 456/456/456
f 451/451/451 456/456/456 400/400/400
f 451/451/451 400/400/400 399/399/399
f 457/457/457 454/454/454 453/453/453
f 457/457/457 453/453/453 458/458/458
f 457/457/457 458/458/458 459/459/459
f 457/457/457 459/459/459 460/460/460
f 457/457/457 460/460/460 461/461/461
f 457/457/457 461/461/461 462/462/462
f 457/457/457 462/462/462 455/455/455
f 457/457/457 455/455/455 454/454/454
f 463/463/463 460/460/460 459/459/459
f 463/463/463 459/459/459 464/464/464
f 463/463/463 464/464/464 434/434/434
f 463/463/463 434/434/434 433/433/433
f 463/463/463 433/433/433 432/432/432
f 463/463/463 432/432/432 465/465/465
f 463/463/463 465/465/465 461/461/461
f 463/463/463 461/461/461 460/460/460
f 466/466/466 467/467/467 453/453/453
f 466/466/466 453/453/453 452/452/452
f 466/466/466 452/452/452 398/398/398
f 466/466/466 398/398/398 397/397/397
f 466/466/466 397/397/397 396/396/396
f 466/466/466 396/396/396 468/468/468
f 466/466/466 468/468/468 469/469/469
f 466/466/466 469/469/469 467/467/467
f 470/470/470 467/467/467 469/469/469
f 470/470/470 469/469/469 471/471/471
f 470/470/470 471/471/471 472/472/472
f 470/470/470 472/472/472 473/473/473
f 470/470/470 473/473/473 474/474/474
f 470/470/470 474/474/474 475/475/475
f 470/470/470 475/475/475 453/453/453
f 470/470/470 453/453/453 467/467/467
f 476/476/476 473/473/473 472/472/472
f 476/476/476 472/472/472 477/477/477
f 476/476/476 477/477/477 478/478/478
f 476/476/476 478/478/478 479/479/479
f 476/476/476 479/479/479 480/480/480
f 476/476/476 480/480/480 481/481/481
f 476/476/476 481/481/481 474/474/474
f 476/476/476 474/474/474 473/473/473
f 482/482/482 408/408/408 407/407/407
f 482/482/482 407/407/407 483/483/483
f 482/482/482 483/483/483 484/484/484
f 482/482/482 484/484/484 485/485/485
f 482/482/482 485/485/485 469/469/469
f 482/482/482 469/469/469 468/468/468
f 482/482/482 468/468/468 396/396/396
f 482/482/482 396/396/396 408/408/408
f 486/486/486 485/485/485 484/484/484
f 486/486/486 484/484/484 487/487/487
f 486/486/486 487/487/487 488/488/488
f 486/486/486 488/488/488 489/489/489
f 486/486/486 489/489/489 472/472/472
f 486/486/486 472/472/472 471/471/471
f 486/486/486 471/471/471 469/469/469
f 486/486/486 469/469/469 485/485/485
f 490/490/490 489/489/489 488/488/488
f 490/490/490 488/488/488 491/491/491
f 490/490/490 491/491/491 492/492/492
f 490/490/490 492/492/492 493/493/493
f 490/490/490 493/493/493 478/478/478
f 490/490/490 478/478/478 477/477/477
f 490/490/490 477/477/477 472/472/472
f 490/490/490 472/472/472 489/489/489
f 494/494/494 414/414/414 413/413/413
f 494/494/494 413/413/413 441/441/441
f 494/494/494 441/441/441 440/440/440
f 494/494/494 440/440/440 495/495/495
f 494/494/494 495/495/495 484/484/484
f 494/494/494 484/484/484 483/483/483
f 494/494/494 483/483/483 407/407/407
f 494/494/494 407/407/407 414/414/414
f 496/496/496 495/495/495 440/440/440
f 496/496/496 440/440/440 447/447/447
f 496/496/496 447/447/447 446/446/446
f 496/496/496 446/446/446 497/497/497
f 496/496/496 497/497/497 488/488/488
f 496/496/496 488/488/488 487/487/487
f 496/496/496 487/487/487 484/484/484
f 496/496/496 484/484/484 495/495/495
f 498/498/498 497/497/497 446/446/446
f 498/498/498 446/446/446 499/499/499
f 498/498/498 499/499/499 500/500/500
f 498/498/498 500/500/500 501/501/501
f 498/498/498 501/501/501 492/492/492
f 498/498/498 492/492/492 491/491/491
f 498/498/498 491/491/491 488/488/488
f 498/498/498 488/488/488 497/497/497
f 502/502/502 431/431/431 426/426/426
f 502/502/502 426/426/426 503/503/503
f 502/502/502 503/503/503 504/504/504
f 502/502/502 504/504/504 505/505/505
f 502/502/502 505/505/505 461/461/461
f 502/502/502 461/461/461 465/465/465
f 502/502/502 465/465/465 432/432/432
f 502/502/502 432/432/432 431/431/431
f 506/506/506 505/505/505 504/504/504
f 506/506/506 504/504/504 507/507/507
f 506/506/506 507/507/507 508/508/508
f 506/506/506 508/508/508 509/509/509
f 506/506/506 509/509/509 455/455/455
f 506/506/506 455/455/455 462/462/462
f 506/506/506 462/462/462 461/461/461
f 506/506/506 461/461/461 505/505/505
f 510/510/510 509/509/509 508/508/508
f 510/510/510 508/508/508 511/511/511
f 510/510/510 511/511/511 402/402/402
f 510/510/510 402/402/402 401/401/401
f 510/510/510 401/401/401 400/400/400
f 510/510/510 400/400/400 456/456/456
f 510/510/510 456/456/456 455/455/455
f 510/510/510 455/455/455 509/509/509
f 512/512/512 425/425/425 419/419/419
f 512/512/512 419/419/419 513/513/513
f 512/512/512 513/513/513 514/514/514
f 512/512/512 514/514/514 515/515/515
f 512/512/512 515/515/515 504/504/504
f 512/512/512 504/504/504 503/503/503
f 512/512/512 503/503/503 426/426/426
f 512/512/512 426/426/426 425/425/425
f 516/516/516 515/515/515 514/514/514
f 516/516/516 514/514/514 517/517/517
f 516/516/516 517/517/517 518/518/518
f 516/516/516 518/518/518 519/519/519
f 516/516/516 519/519/519 508/508/508
f 516/516/516 508/508/508 507/507/507
f 516/516/516 507/507/507 504/504/504
f 516/516/516 504/504/504 515/515/515
f 520/520/520 519/519/519 518/518/518
f 520/520/520 518/518/518 521/521/521
f 520/520/520 521/521/521 405/405/405
f 520/520/520 405/405/405 404/404/404
f 520/520/520 404/404/404 402/402/402
f 520/520/520 402/402/402 511/511/511
f 520/520/520 511/511/511 508/508/508
f 520/520/520 508/508/508 519/519/519
f 522/522/522 418/418/418 417/417/417
f 522/522/522 417/417/417 449/449/449
f 522/522/522 449/449/449 444/444/444
f 522/522/522 444/444/444 523/523/523
f 522/522/522 523/523/523 514/514/514
f 522/522/522 514/514/514 513/513/513
f 522/522/522 513/513/513 419/419/419
f 522/522/522 419/419/419 418/418/418
f 524/524/524 523/523/523 444/444/444
f 524/524/524 444/444/444 443/443/443
f 524/524/524 443/443/443 438/438/438
f 524/524/524 438/438/438 525/525/525
f 524/524/524 525/525/525 518/518/518
f 524/524/524 518/518/518 517/517/517
f 524/524/524 517/517/517 514/514/514
f 524/524/524 514/514/514 523/523/523
f 526/526/526 525/525/525 438/438/438
f 526/526/526 438/438/438 437/437/437
f 526/526/526 437/437/437 411/411/411
f 526/526/526 411/411/411 410/410/410
f 526/526/526 410/410/410 405/405/405
f 526/526/526 405/405/405 521/521/521
f 526/526/526 521/521/521 518/518/518
f 526/526/526 518/518/518 525/525/525
