v -1.461044 0.346499 -0.731999
v -1.460904 0.345571 -0.731692
v -1.460097 0.345571 -0.732060
v -1.460237 0.346499 -0.732367
v -1.460647 0.346139 -0.733265
v -1.460507 0.345212 -0.732958
v -1.461313 0.345212 -0.732590
v -1.461453 0.346139 -0.732897
v -1.587482 0.345571 -0.673982
v -1.586722 0.345571 -0.674329
v -1.586862 0.346499 -0.674636
v -1.587622 0.346499 -0.674289
v -1.587131 0.345212 -0.675227
v -1.587271 0.346139 -0.675534
v -1.587892 0.345212 -0.674880
v -1.588032 0.346139 -0.675187
v -1.486881 0.522960 -0.790806
v -1.487055 0.524113 -0.791188
v -1.487862 0.524113 -0.790820
v -1.487688 0.522960 -0.790438
v -1.487465 0.523754 -0.792086
v -1.487291 0.522601 -0.791704
v -1.488097 0.522601 -0.791336
v -1.488271 0.523754 -0.791718
v -1.613505 0.522960 -0.733075
v -1.614266 0.522960 -0.732728
v -1.613680 0.524113 -0.733457
v -1.614440 0.524113 -0.733110
v -1.613915 0.522601 -0.733973
v -1.614089 0.523754 -0.734355
v -1.614676 0.522601 -0.733626
v -1.614850 0.523754 -0.734008
v -1.487260 0.523933 -0.791637
v -1.488067 0.523933 -0.791269
v -1.461109 0.345392 -0.732141
v -1.460302 0.345392 -0.732509
v -1.587827 0.346319 -0.674738
v -1.587687 0.345392 -0.674431
v -1.460442 0.346319 -0.732816
v -1.613884 0.523933 -0.733906
v -1.614645 0.523933 -0.733559
v -1.586926 0.345392 -0.674778
v -1.614471 0.522780 -0.733177
v -1.487086 0.522780 -0.791255
v -1.526629 0.340751 -0.715274
v -1.526395 0.340750 -0.714761
v -1.526270 0.340000 -0.714488
v -1.526505 0.340000 -0.715003
v -1.531055 0.340000 -0.712929
v -1.530820 0.340000 -0.712414
v -1.530944 0.340750 -0.712687
v -1.531178 0.340751 -0.713199
v -1.554527 0.340858 -0.776464
v -1.554323 0.340857 -0.776017
v -1.554322 0.340000 -0.776015
v -1.554527 0.340000 -0.776464
v -1.559076 0.340000 -0.774389
v -1.558871 0.340000 -0.773940
v -1.558872 0.340857 -0.773942
v -1.559076 0.340858 -0.774389
v -1.530618 0.363767 -0.711971
v -1.530725 0.364472 -0.712205
v -1.530614 0.364222 -0.711963
v -1.530721 0.364927 -0.712196
v -1.526175 0.364472 -0.714279
v -1.526069 0.363767 -0.714045
v -1.526171 0.364927 -0.714270
v -1.526065 0.364222 -0.714037
v -1.526028 0.365052 -0.713956
v -1.525922 0.364347 -0.713723
v -1.530471 0.364347 -0.711649
v -1.530578 0.365052 -0.711882
v -1.515924 0.364998 -0.716316
v -1.516460 0.364998 -0.716072
v -1.516566 0.365703 -0.716305
v -1.516031 0.365703 -0.716549
v -1.515524 0.366148 -0.715437
v -1.516059 0.366148 -0.715193
v -1.515953 0.365443 -0.714960
v -1.515417 0.365443 -0.715204
v -1.541822 0.433663 -0.748598
v -1.541178 0.429785 -0.747186
v -1.541289 0.429155 -0.747429
v -1.541928 0.433005 -0.748830
v -1.545728 0.429785 -0.745112
v -1.545838 0.429155 -0.745355
v -1.546371 0.433663 -0.746524
v -1.546477 0.433005 -0.746755
v -1.554384 0.355394 -0.776151
v -1.554381 0.354787 -0.776145
v -1.554527 0.353936 -0.776464
v -1.554527 0.354506 -0.776464
v -1.558931 0.354787 -0.774071
v -1.559076 0.353936 -0.774389
v -1.558933 0.355394 -0.774077
v -1.559076 0.354506 -0.774389
v -1.543399 0.448248 -0.740005
v -1.543951 0.451897 -0.741216
v -1.543355 0.448601 -0.739907
v -1.543905 0.452246 -0.741114
v -1.539402 0.451897 -0.743290
v -1.538850 0.448248 -0.742079
v -1.539356 0.452246 -0.743188
v -1.538805 0.448601 -0.741981
v -1.539212 0.452372 -0.742874
v -1.538662 0.448727 -0.741667
v -1.543212 0.448727 -0.739593
v -1.543762 0.452372 -0.740800
v -1.529200 0.449378 -0.744016
v -1.528665 0.449378 -0.744260
v -1.529751 0.453022 -0.745223
v -1.529215 0.453022 -0.745467
v -1.529243 0.453467 -0.744111
v -1.528693 0.449823 -0.742904
v -1.528158 0.449823 -0.743148
v -1.528708 0.453467 -0.744355
v -1.525170 0.365443 -0.710757
v -1.524673 0.365443 -0.710984
v -1.524779 0.366148 -0.711217
v -1.525277 0.366148 -0.710990
v -1.555024 0.340858 -0.776237
v -1.554527 0.340858 -0.776464
v -1.554527 0.340000 -0.776464
v -1.555024 0.340000 -0.776237
v -1.527003 0.340000 -0.714776
v -1.526505 0.340000 -0.715003
v -1.526270 0.340000 -0.714488
v -1.526768 0.340000 -0.714261
v -1.541928 0.433005 -0.748830
v -1.542425 0.433005 -0.748603
v -1.542319 0.433663 -0.748371
v -1.541822 0.433663 -0.748598
v -1.554819 0.340000 -0.775788
v -1.554322 0.340000 -0.776015
v -1.555024 0.340000 -0.776237
v -1.554527 0.340000 -0.776464
v -1.554384 0.355394 -0.776151
v -1.554881 0.355394 -0.775924
v -1.554527 0.354506 -0.776464
v -1.555024 0.354506 -0.776237
v -1.539402 0.451897 -0.743290
v -1.539899 0.451897 -0.743063
v -1.539853 0.452246 -0.742961
v -1.539356 0.452246 -0.743188
v -1.526566 0.363767 -0.713818
v -1.526069 0.363767 -0.714045
v -1.526065 0.364222 -0.714037
v -1.526562 0.364222 -0.713810
v -1.526768 0.340000 -0.714261
v -1.526270 0.340000 -0.714488
v -1.526562 0.364222 -0.713810
v -1.526065 0.364222 -0.714037
v -1.525922 0.364347 -0.713723
v -1.526419 0.364347 -0.713496
v -1.539356 0.452246 -0.743188
v -1.539853 0.452246 -0.742961
v -1.539710 0.452372 -0.742647
v -1.539212 0.452372 -0.742874
v -1.537911 0.449823 -0.738701
v -1.537413 0.449823 -0.738928
v -1.537964 0.453467 -0.740135
v -1.538461 0.453467 -0.739908
v -1.555024 0.353936 -0.776237
v -1.554527 0.353936 -0.776464
v -1.529222 0.365443 -0.708910
v -1.528692 0.365443 -0.709152
v -1.528798 0.366148 -0.709385
v -1.529329 0.366148 -0.709143
v -1.559076 0.340858 -0.774389
v -1.558545 0.340858 -0.774631
v -1.558545 0.340000 -0.774631
v -1.559076 0.340000 -0.774389
v -1.531055 0.340000 -0.712929
v -1.530524 0.340000 -0.713171
v -1.530289 0.340000 -0.712656
v -1.530820 0.340000 -0.712414
v -1.545946 0.433005 -0.746997
v -1.545841 0.433663 -0.746766
v -1.546477 0.433005 -0.746755
v -1.546371 0.433663 -0.746524
v -1.558871 0.340000 -0.773940
v -1.558341 0.340000 -0.774182
v -1.559076 0.340000 -0.774389
v -1.558545 0.340000 -0.774631
v -1.558403 0.355394 -0.774319
v -1.558933 0.355394 -0.774077
v -1.558545 0.354506 -0.774631
v -1.559076 0.354506 -0.774389
v -1.543421 0.451897 -0.741458
v -1.543374 0.452246 -0.741356
v -1.543951 0.451897 -0.741216
v -1.543905 0.452246 -0.741114
v -1.530618 0.363767 -0.711971
v -1.530087 0.363767 -0.712213
v -1.530084 0.364222 -0.712205
v -1.530614 0.364222 -0.711963
v -1.530820 0.340000 -0.712414
v -1.530289 0.340000 -0.712656
v -1.530614 0.364222 -0.711963
v -1.530084 0.364222 -0.712205
v -1.529940 0.364347 -0.711891
v -1.530471 0.364347 -0.711649
v -1.543374 0.452246 -0.741356
v -1.543231 0.452372 -0.741042
v -1.543905 0.452246 -0.741114
v -1.543762 0.452372 -0.740800
v -1.541963 0.449823 -0.736854
v -1.541432 0.449823 -0.737096
v -1.541982 0.453467 -0.738303
v -1.542513 0.453467 -0.738061
v -1.559076 0.353936 -0.774389
v -1.558545 0.353936 -0.774631
v -1.525392 0.365610 -0.712561
v -1.525285 0.364906 -0.712327
v -1.525286 0.365703 -0.712329
v -1.525180 0.364998 -0.712096
v -1.529835 0.364906 -0.710253
v -1.529941 0.365610 -0.710486
v -1.529729 0.364998 -0.710022
v -1.529836 0.365703 -0.710255
v -1.537920 0.449378 -0.740040
v -1.538026 0.449285 -0.740272
v -1.538576 0.452930 -0.741479
v -1.538471 0.453022 -0.741247
v -1.542470 0.449378 -0.737966
v -1.542575 0.449285 -0.738197
v -1.543020 0.453022 -0.739173
v -1.543126 0.452930 -0.739404
v -1.525285 0.364906 -0.712327
v -1.525783 0.364906 -0.712101
v -1.525180 0.364998 -0.712096
v -1.525677 0.364998 -0.711869
v -1.539074 0.452930 -0.741252
v -1.538576 0.452930 -0.741479
v -1.538968 0.453022 -0.741021
v -1.538471 0.453022 -0.741247
v -1.529304 0.364906 -0.710495
v -1.529835 0.364906 -0.710253
v -1.529199 0.364998 -0.710264
v -1.529729 0.364998 -0.710022
v -1.542595 0.452930 -0.739646
v -1.542490 0.453022 -0.739415
v -1.543126 0.452930 -0.739404
v -1.543020 0.453022 -0.739173
v -1.524865 0.364998 -0.712240
v -1.524971 0.365703 -0.712473
v -1.525180 0.364998 -0.712096
v -1.525286 0.365703 -0.712329
v -1.524464 0.366148 -0.711361
v -1.524358 0.365443 -0.711127
v -1.537920 0.449378 -0.740040
v -1.537605 0.449378 -0.740184
v -1.538471 0.453022 -0.741247
v -1.538156 0.453022 -0.741391
v -1.537098 0.449823 -0.739072
v -1.537648 0.453467 -0.740279
v -1.529285 0.365388 -0.709047
v -1.529222 0.365443 -0.708910
v -1.529329 0.366148 -0.709143
v -1.529391 0.366093 -0.709280
v -1.515586 0.366093 -0.715574
v -1.515524 0.366148 -0.715437
v -1.515417 0.365443 -0.715204
v -1.515480 0.365388 -0.715341
v -1.515480 0.365388 -0.715341
v -1.515417 0.365443 -0.715204
v -1.515953 0.365443 -0.714960
v -1.516015 0.365388 -0.715096
v -1.528708 0.453467 -0.744355
v -1.528770 0.453413 -0.744492
v -1.529306 0.453413 -0.744248
v -1.529243 0.453467 -0.744111
v -1.542025 0.449768 -0.736991
v -1.541963 0.449823 -0.736854
v -1.542513 0.453467 -0.738061
v -1.542575 0.453413 -0.738198
v -1.528220 0.449768 -0.743285
v -1.528158 0.449823 -0.743148
v -1.528770 0.453413 -0.744492
v -1.528708 0.453467 -0.744355
v -1.538523 0.453413 -0.740045
v -1.538461 0.453467 -0.739908
v -1.537964 0.453467 -0.740135
v -1.538026 0.453413 -0.740272
v -1.524735 0.365388 -0.711121
v -1.524673 0.365443 -0.710984
v -1.525170 0.365443 -0.710757
v -1.525233 0.365388 -0.710894
v -1.542045 0.453413 -0.738440
v -1.541982 0.453467 -0.738303
v -1.542575 0.453413 -0.738198
v -1.542513 0.453467 -0.738061
v -1.528754 0.365388 -0.709288
v -1.528692 0.365443 -0.709152
v -1.529222 0.365443 -0.708910
v -1.529285 0.365388 -0.709047
v -1.524420 0.365388 -0.711264
v -1.524358 0.365443 -0.711127
v -1.537648 0.453467 -0.740279
v -1.537711 0.453413 -0.740416
v -1.529635 0.365081 -0.709815
v -1.529742 0.365786 -0.710049
v -1.516031 0.365703 -0.716549
v -1.515937 0.365786 -0.716343
v -1.515830 0.365081 -0.716109
v -1.515924 0.364998 -0.716316
v -1.515924 0.364998 -0.716316
v -1.515830 0.365081 -0.716109
v -1.516366 0.365081 -0.715865
v -1.516460 0.364998 -0.716072
v -1.529121 0.453105 -0.745261
v -1.529656 0.453105 -0.745017
v -1.529215 0.453022 -0.745467
v -1.529751 0.453022 -0.745223
v -1.542376 0.449460 -0.737760
v -1.542926 0.453105 -0.738967
v -1.528665 0.449378 -0.744260
v -1.528571 0.449460 -0.744054
v -1.529215 0.453022 -0.745467
v -1.529121 0.453105 -0.745261
v -1.538874 0.453105 -0.740814
v -1.538377 0.453105 -0.741041
v -1.525086 0.365081 -0.711890
v -1.525583 0.365081 -0.711663
v -1.542395 0.453105 -0.739209
v -1.542926 0.453105 -0.738967
v -1.529105 0.365081 -0.710057
v -1.529635 0.365081 -0.709815
v -1.524865 0.364998 -0.712240
v -1.524771 0.365081 -0.712033
v -1.538061 0.453105 -0.741185
v -1.538156 0.453022 -0.741391
vn 0.389800 0.342000 0.855000
vn 0.376000 -0.422600 0.824600
vn 0.832300 -0.345000 0.433800
vn 0.919000 0.241900 0.311200
vn 0.367700 -0.241900 -0.897900
vn 0.382200 -0.740000 -0.553400
vn -0.175300 -0.906300 -0.384500
vn -0.389800 -0.342000 -0.855000
vn -0.218400 -0.345000 0.912800
vn 0.376000 -0.422600 0.824600
vn 0.389800 0.342000 0.855000
vn -0.367700 0.241900 0.897900
vn -0.175300 -0.906300 -0.384500
vn -0.389800 -0.342000 -0.855000
vn -0.668400 -0.740000 -0.074400
vn -0.919000 -0.241900 -0.311200
vn 0.919000 0.241800 0.311300
vn 0.668500 0.740000 0.074400
vn 0.175300 0.906300 0.384600
vn 0.389800 0.342000 0.855000
vn 0.218400 0.345000 -0.912800
vn 0.367700 -0.241900 -0.897900
vn -0.389800 -0.342000 -0.855000
vn -0.376000 0.422600 -0.824600
vn 0.389800 0.342000 0.855000
vn -0.367700 0.241900 0.897900
vn 0.175300 0.906300 0.384500
vn -0.382200 0.740000 0.553400
vn -0.389800 -0.342000 -0.855000
vn -0.375900 0.422600 -0.824600
vn -0.919000 -0.241800 -0.311200
vn -0.832300 0.345100 -0.433800
vn 0.543100 0.664400 -0.513400
vn -0.141900 0.939700 -0.311200
vn 0.141900 -0.939700 0.311200
vn 0.743700 -0.664500 -0.073200
vn -0.909900 -0.000000 0.414800
vn -0.543000 -0.664400 0.513400
vn 0.909900 0.000000 -0.414800
vn -0.141900 0.939700 -0.311200
vn -0.743700 0.664400 0.073200
vn 0.141900 -0.939700 0.311200
vn -0.909900 -0.000000 0.414800
vn 0.909900 0.000000 -0.414800
vn 0.909900 0.000000 -0.414800
vn 0.909800 0.000000 -0.414900
vn 0.763100 -0.582700 0.279400
vn 0.643300 -0.707100 -0.293300
vn -0.643400 -0.707100 0.293300
vn -0.289500 -0.582600 0.759400
vn -0.909800 0.000000 0.414900
vn -0.909900 -0.000000 0.414800
vn 0.350100 0.000000 -0.936700
vn 0.909900 0.000000 -0.414800
vn 0.643400 -0.707100 -0.293300
vn 0.285800 -0.577300 -0.764800
vn -0.764800 -0.577300 -0.285800
vn -0.643400 -0.707000 0.293300
vn -0.909800 0.000100 0.414900
vn -0.936700 0.000000 -0.350000
vn -0.350000 -0.014500 0.936600
vn -0.909800 0.000000 0.414900
vn -0.608400 -0.298100 0.735500
vn -0.909800 0.000100 0.414900
vn 0.909900 0.000100 -0.414700
vn 0.936700 -0.014400 0.349800
vn 0.909900 -0.000100 -0.414800
vn 0.954300 -0.298100 0.023100
vn 0.909900 0.000000 -0.414800
vn 0.743700 -0.664500 -0.073200
vn -0.543000 -0.664400 0.513400
vn -0.909900 -0.000000 0.414800
vn 0.382200 -0.740000 -0.553500
vn -0.175300 -0.906300 -0.384500
vn -0.389800 -0.342000 -0.855000
vn 0.367700 -0.241900 -0.897900
vn 0.919000 0.241800 0.311200
vn 0.389800 0.342000 0.855000
vn 0.375900 -0.422700 0.824600
vn 0.832300 -0.345000 0.433900
vn 0.375500 0.233100 -0.897000
vn 0.909900 0.000000 -0.414800
vn 0.909900 0.000000 -0.414800
vn 0.369800 0.255100 -0.893400
vn -0.909900 -0.000000 0.414800
vn -0.909900 -0.000000 0.414800
vn -0.923500 0.233200 -0.304700
vn -0.917000 0.255200 -0.306600
vn 0.369800 0.255100 -0.893400
vn 0.909900 -0.000100 -0.414800
vn 0.350100 0.000000 -0.936700
vn 0.304500 0.136400 -0.942700
vn -0.909800 -0.000100 0.414900
vn -0.936700 0.000000 -0.350000
vn -0.917000 0.255100 -0.306700
vn -0.911300 0.136500 -0.388400
vn -0.909800 0.000100 0.414900
vn -0.922800 0.215400 -0.319400
vn -0.909800 0.000000 0.414900
vn -0.798800 0.543700 -0.257300
vn 0.364000 0.215400 -0.906100
vn 0.909900 -0.000100 -0.414800
vn 0.329700 0.543700 -0.771800
vn 0.909800 0.000000 -0.414900
vn 0.543000 0.664500 -0.513300
vn 0.909900 0.000000 -0.414800
vn -0.909800 0.000000 0.414900
vn -0.743600 0.664500 0.073300
vn -0.389800 -0.342000 -0.855000
vn 0.367700 -0.241900 -0.897900
vn -0.375900 0.422600 -0.824600
vn 0.218500 0.344900 -0.912800
vn 0.175300 0.906300 0.384500
vn 0.389800 0.342000 0.855000
vn 0.919000 0.241800 0.311300
vn 0.668300 0.740100 0.074500
vn 0.376000 -0.422500 0.824700
vn 0.375900 -0.422600 0.824600
vn 0.389800 0.342000 0.855000
vn 0.389800 0.342100 0.855000
vn -0.414800 0.000000 -0.909900
vn 0.350100 0.000000 -0.936700
vn 0.285800 -0.577300 -0.764800
vn -0.293300 -0.707100 -0.643400
vn 0.000000 -1.000000 0.000000
vn 0.643300 -0.707100 -0.293300
vn 0.763100 -0.582700 0.279400
vn 0.290300 -0.714300 0.636800
vn 0.369800 0.255100 -0.893400
vn -0.386900 0.360800 -0.848600
vn -0.391200 0.332900 -0.858000
vn 0.375500 0.233100 -0.897000
vn 0.000000 -1.000000 0.000000
vn 0.643400 -0.707100 -0.293300
vn -0.293300 -0.707100 -0.643400
vn 0.285800 -0.577300 -0.764800
vn 0.369800 0.255100 -0.893400
vn -0.386900 0.360800 -0.848600
vn 0.304500 0.136400 -0.942700
vn -0.407800 0.183500 -0.894400
vn 0.364000 0.215400 -0.906100
vn -0.395100 0.304800 -0.866600
vn -0.299000 0.693100 -0.655900
vn 0.329700 0.543700 -0.771800
vn 0.414700 -0.020400 0.909700
vn 0.936700 -0.014400 0.349800
vn 0.954300 -0.298100 0.023100
vn 0.337300 -0.581900 0.740000
vn 0.290300 -0.714300 0.636800
vn 0.763100 -0.582700 0.279400
vn 0.337300 -0.581900 0.740000
vn 0.954300 -0.298100 0.023100
vn 0.743700 -0.664500 -0.073200
vn 0.141900 -0.939700 0.311200
vn 0.329700 0.543700 -0.771800
vn -0.299000 0.693100 -0.655900
vn -0.141900 0.939700 -0.311200
vn 0.543000 0.664500 -0.513300
vn 0.389800 0.342000 0.855000
vn 0.389800 0.342000 0.855000
vn 0.175300 0.906300 0.384600
vn 0.175300 0.906300 0.384500
vn -0.414800 0.000000 -0.909900
vn 0.350100 0.000000 -0.936700
vn -0.218300 -0.345300 0.912700
vn 0.376000 -0.422600 0.824600
vn 0.389800 0.342100 0.855000
vn -0.367700 0.241700 0.897900
vn -0.936700 0.000000 -0.350000
vn -0.414800 0.000000 -0.909900
vn -0.293300 -0.707100 -0.643400
vn -0.764800 -0.577300 -0.285800
vn -0.643400 -0.707100 0.293300
vn 0.000000 -1.000000 0.000000
vn 0.290300 -0.714300 0.636800
vn -0.289500 -0.582600 0.759400
vn -0.386900 0.360800 -0.848600
vn -0.391200 0.332900 -0.858000
vn -0.917000 0.255200 -0.306600
vn -0.923500 0.233200 -0.304700
vn -0.643400 -0.707000 0.293300
vn 0.000000 -1.000000 0.000000
vn -0.764800 -0.577300 -0.285800
vn -0.293300 -0.707100 -0.643400
vn -0.386900 0.360800 -0.848600
vn -0.917000 0.255100 -0.306700
vn -0.407800 0.183500 -0.894400
vn -0.911300 0.136500 -0.388400
vn -0.395100 0.304700 -0.866600
vn -0.299000 0.693000 -0.655900
vn -0.922800 0.215400 -0.319400
vn -0.798800 0.543700 -0.257300
vn -0.350000 -0.014500 0.936600
vn 0.414700 -0.020400 0.909700
vn 0.337400 -0.581900 0.740000
vn -0.608400 -0.298100 0.735500
vn -0.289500 -0.582600 0.759400
vn 0.290300 -0.714300 0.636800
vn -0.608400 -0.298100 0.735500
vn 0.337400 -0.581900 0.740000
vn 0.141900 -0.939700 0.311200
vn -0.543000 -0.664400 0.513400
vn -0.299000 0.693000 -0.655900
vn -0.141900 0.939700 -0.311200
vn -0.798800 0.543700 -0.257300
vn -0.743600 0.664500 0.073300
vn -0.367700 0.241900 0.897900
vn 0.389800 0.342000 0.855000
vn 0.175300 0.906300 0.384600
vn -0.382100 0.740000 0.553500
vn -0.936700 0.000000 -0.350000
vn -0.414800 0.000000 -0.909900
vn 0.909800 0.000000 -0.414900
vn 0.743700 -0.664400 -0.073300
vn 0.367600 -0.241800 -0.897900
vn 0.285100 -0.953100 -0.101400
vn -0.543200 -0.664400 0.513400
vn -0.909900 0.000100 0.414800
vn -0.543000 -0.664500 0.513400
vn -0.909900 -0.000000 0.414800
vn 0.367700 -0.241800 -0.897900
vn 0.909800 0.000000 -0.414900
vn 0.543000 0.664400 -0.513400
vn 0.028500 0.746800 -0.664400
vn -0.909900 -0.000000 0.414800
vn -0.909900 -0.000000 0.414800
vn -0.743600 0.664500 0.073200
vn -0.743700 0.664500 0.073300
vn 0.743700 -0.664400 -0.073300
vn 0.141900 -0.939700 0.311100
vn 0.285100 -0.953100 -0.101400
vn 0.141900 -0.939700 0.311100
vn -0.141900 0.939700 -0.311200
vn 0.543000 0.664400 -0.513400
vn -0.141900 0.939700 -0.311200
vn 0.028500 0.746800 -0.664400
vn 0.141900 -0.939700 0.311100
vn -0.543200 -0.664400 0.513400
vn 0.141900 -0.939700 0.311100
vn -0.543000 -0.664500 0.513400
vn -0.141900 0.939700 -0.311200
vn -0.141900 0.939700 -0.311200
vn -0.743700 0.664500 0.073300
vn -0.743600 0.664500 0.073200
vn -0.175400 -0.906300 -0.384600
vn -0.389800 -0.342000 -0.855000
vn 0.285100 -0.953100 -0.101400
vn 0.367600 -0.241800 -0.897900
vn 0.389900 0.342000 0.855000
vn 0.376000 -0.422700 0.824600
vn 0.367700 -0.241800 -0.897900
vn -0.389800 -0.342000 -0.855000
vn 0.028500 0.746800 -0.664400
vn -0.375900 0.422600 -0.824700
vn 0.389800 0.342000 0.855000
vn 0.175300 0.906300 0.384600
vn -0.543100 -0.664500 0.513300
vn -0.218300 -0.345300 0.912700
vn -0.367700 0.241700 0.897900
vn -0.909900 -0.000000 0.414900
vn 0.909900 0.000000 -0.414800
vn 0.919000 0.241800 0.311200
vn 0.832300 -0.345000 0.433900
vn 0.743700 -0.664400 -0.073300
vn 0.743700 -0.664400 -0.073300
vn 0.832300 -0.345000 0.433900
vn 0.375900 -0.422700 0.824600
vn 0.141900 -0.939700 0.311100
vn 0.668300 0.740100 0.074500
vn 0.543200 0.664400 -0.513300
vn -0.141900 0.939700 -0.311200
vn 0.175300 0.906300 0.384500
vn -0.909800 0.000100 0.414900
vn -0.367700 0.241900 0.897900
vn -0.382100 0.740000 0.553500
vn -0.743600 0.664500 0.073300
vn 0.909900 0.000000 -0.414800
vn 0.919000 0.241800 0.311300
vn 0.543200 0.664400 -0.513300
vn 0.668300 0.740100 0.074500
vn -0.141900 0.939700 -0.311200
vn 0.175300 0.906300 0.384500
vn 0.175300 0.906300 0.384600
vn -0.141900 0.939700 -0.311200
vn 0.141900 -0.939700 0.311200
vn 0.375900 -0.422600 0.824600
vn 0.376000 -0.422500 0.824700
vn 0.141900 -0.939700 0.311200
vn -0.141900 0.939700 -0.311100
vn 0.175300 0.906300 0.384600
vn -0.743600 0.664500 0.073300
vn -0.382100 0.740000 0.553500
vn 0.141900 -0.939700 0.311200
vn 0.376000 -0.422600 0.824600
vn -0.218300 -0.345300 0.912700
vn -0.543100 -0.664500 0.513300
vn 0.141900 -0.939700 0.311100
vn 0.376000 -0.422700 0.824600
vn 0.175300 0.906300 0.384600
vn -0.141900 0.939700 -0.311100
vn -0.543000 -0.664500 0.513400
vn -0.909800 0.000000 0.414900
vn 0.367700 -0.241900 -0.897900
vn 0.909800 0.000000 -0.414900
vn 0.743700 -0.664500 -0.073200
vn 0.382200 -0.740000 -0.553500
vn 0.382200 -0.740000 -0.553500
vn 0.743700 -0.664500 -0.073200
vn 0.141900 -0.939700 0.311200
vn -0.175300 -0.906300 -0.384500
vn 0.543000 0.664500 -0.513300
vn -0.141900 0.939700 -0.311200
vn 0.218500 0.344900 -0.912800
vn -0.375900 0.422600 -0.824600
vn -0.909900 -0.000000 0.414800
vn -0.743700 0.664400 0.073300
vn 0.367700 -0.241900 -0.897900
vn 0.909900 0.000000 -0.414800
vn 0.218500 0.344900 -0.912800
vn 0.543000 0.664500 -0.513300
vn -0.141900 0.939700 -0.311200
vn -0.141900 0.939700 -0.311200
vn 0.141900 -0.939700 0.311100
vn 0.141900 -0.939700 0.311200
vn -0.141900 0.939700 -0.311200
vn -0.743700 0.664400 0.073300
vn 0.141900 -0.939700 0.311200
vn -0.543000 -0.664500 0.513400
vn -0.175400 -0.906300 -0.384600
vn 0.141900 -0.939700 0.311200
vn -0.141900 0.939700 -0.311200
vn -0.375900 0.422600 -0.824700
vt 1.402300 -0.318000
vt 1.401800 -0.326600
vt 1.413400 -0.326600
vt 1.413800 -0.318000
vt 1.415000 -0.321300
vt 1.414600 -0.330000
vt 1.403100 -0.330000
vt 1.403500 -0.321300
vt -0.409200 -0.326600
vt -0.398300 -0.326600
vt -0.397800 -0.318000
vt -0.408700 -0.318000
vt -0.397000 -0.330000
vt -0.396600 -0.321300
vt -0.407900 -0.330000
vt -0.407500 -0.321300
vt 1.407800 1.330500
vt 1.408300 1.341200
vt 1.396800 1.341200
vt 1.396300 1.330500
vt 1.409600 1.337900
vt 1.409000 1.327100
vt 1.397500 1.327100
vt 1.398000 1.337900
vt -0.403800 1.330500
vt -0.414700 1.330500
vt -0.403300 1.341200
vt -0.414200 1.341200
vt -0.402600 1.327100
vt -0.402100 1.337900
vt -0.413500 1.327100
vt -0.413000 1.337900
vt 1.408900 1.339600
vt 1.397400 1.339600
vt 1.402500 -0.328300
vt 1.414000 -0.328300
vt -0.408100 -0.319600
vt -0.408500 -0.328300
vt 1.414400 -0.319600
vt -0.402700 1.339600
vt -0.413600 1.339600
vt -0.397600 -0.328300
vt -0.414100 1.328800
vt 1.408400 1.328800
vt 0.631300 -0.225300
vt 0.627100 -0.227900
vt 0.626900 -0.238400
vt 0.631100 -0.235800
vt 0.631500 -0.235800
vt 0.627300 -0.238400
vt 0.627500 -0.227900
vt 0.631700 -0.225300
vt 1.131600 0.075000
vt 1.128000 0.072800
vt 1.130300 0.062300
vt 1.134000 0.064500
vt 1.134400 0.064500
vt 1.130700 0.062300
vt 1.128400 0.072800
vt 1.132100 0.075000
vt 0.559300 0.049800
vt 0.559300 0.059600
vt 0.558000 0.055400
vt 0.558000 0.065100
vt 0.558900 0.059600
vt 0.558800 0.049800
vt 0.557500 0.065100
vt 0.557500 0.055400
vt 0.554600 0.065100
vt 0.554600 0.055400
vt 0.555100 0.055400
vt 0.555100 0.065100
vt 0.376700 0.142600
vt 0.371900 0.142600
vt 0.372100 0.152100
vt 0.376900 0.152100
vt 0.371800 0.159200
vt 0.367000 0.159200
vt 0.366800 0.149800
vt 0.371600 0.149800
vt 0.652200 1.072700
vt 0.651100 1.018400
vt 0.654800 1.011900
vt 0.655800 1.065700
vt 0.651500 1.018400
vt 0.655200 1.011900
vt 0.652600 1.072700
vt 0.656300 1.065700
vt 1.089700 0.251100
vt 1.091300 0.243600
vt 1.096200 0.234800
vt 1.094700 0.241800
vt 1.091700 0.243600
vt 1.096600 0.234800
vt 1.090100 0.251100
vt 1.095100 0.241800
vt 0.559700 1.219000
vt 0.559700 1.269500
vt 0.558000 1.222800
vt 0.558000 1.273200
vt 0.559300 1.269500
vt 0.559300 1.219000
vt 0.557500 1.273200
vt 0.557500 1.222800
vt 0.554600 1.273200
vt 0.554600 1.222800
vt 0.555100 1.222800
vt 0.555100 1.273200
vt 0.396000 1.276900
vt 0.400800 1.276900
vt 0.397000 1.325900
vt 0.401800 1.325900
vt 0.391900 1.333100
vt 0.390900 1.284100
vt 0.395700 1.284100
vt 0.396700 1.333100
vt 0.284200 0.149800
vt 0.288700 0.149800
vt 0.288900 0.159200
vt 0.284400 0.159200
vt 0.338300 -0.213400
vt 0.342700 -0.213400
vt 0.342700 -0.224900
vt 0.338300 -0.224900
vt 0.126000 0.192400
vt 0.121700 0.192400
vt 0.121700 0.185100
vt 0.126000 0.185100
vt 0.319000 1.022400
vt 0.314500 1.022400
vt 0.314300 1.031200
vt 0.318800 1.031200
vt 0.125100 1.064200
vt 0.120800 1.064200
vt 0.125100 1.070600
vt 0.120800 1.070600
vt 0.342400 -0.018500
vt 0.338000 -0.018500
vt 0.342700 -0.030400
vt 0.338300 -0.030400
vt 0.314200 1.275800
vt 0.309800 1.275800
vt 0.309700 1.280500
vt 0.314100 1.280500
vt 0.276500 -0.025600
vt 0.280900 -0.025600
vt 0.280900 -0.019700
vt 0.276500 -0.019700
vt 0.276900 -0.335400
vt 0.281200 -0.335400
vt 0.118400 0.068600
vt 0.113900 0.068600
vt 0.113900 0.064000
vt 0.118400 0.064000
vt 0.113400 0.582000
vt 0.117900 0.582000
vt 0.117900 0.577400
vt 0.113400 0.577400
vt 0.308300 1.284100
vt 0.312800 1.284100
vt 0.313800 1.333100
vt 0.309300 1.333100
vt 0.338300 -0.038000
vt 0.342700 -0.038000
vt 0.247900 0.149800
vt 0.252700 0.149800
vt 0.252900 0.159200
vt 0.248100 0.159200
vt 0.302000 -0.213400
vt 0.306800 -0.213400
vt 0.306800 -0.224900
vt 0.302000 -0.224900
vt 0.161300 0.192500
vt 0.156700 0.192500
vt 0.156700 0.185200
vt 0.161300 0.185200
vt 0.283000 1.022400
vt 0.282800 1.031200
vt 0.278300 1.022400
vt 0.278100 1.031200
vt 0.160400 1.064300
vt 0.155800 1.064300
vt 0.160400 1.070700
vt 0.155800 1.070700
vt 0.306500 -0.018500
vt 0.301800 -0.018500
vt 0.306800 -0.030400
vt 0.302000 -0.030400
vt 0.278300 1.275800
vt 0.278200 1.280500
vt 0.273500 1.275800
vt 0.273400 1.280500
vt 0.241300 -0.025600
vt 0.245900 -0.025600
vt 0.245900 -0.019700
vt 0.241300 -0.019700
vt 0.241700 -0.335400
vt 0.246300 -0.335400
vt 0.154800 0.068700
vt 0.150000 0.068700
vt 0.150000 0.064100
vt 0.154800 0.064100
vt 0.149500 0.582100
vt 0.149500 0.577500
vt 0.154300 0.582100
vt 0.154300 0.577500
vt 0.272000 1.284100
vt 0.276700 1.284100
vt 0.277800 1.333100
vt 0.273000 1.333100
vt 0.302000 -0.038000
vt 0.306800 -0.038000
vt 0.541700 0.065100
vt 0.541700 0.055400
vt 0.539600 0.065100
vt 0.539600 0.055400
vt 0.542100 0.055400
vt 0.542100 0.065100
vt 0.540000 0.055400
vt 0.540000 0.065100
vt 0.539600 1.222800
vt 0.541700 1.222800
vt 0.541700 1.273200
vt 0.539600 1.273200
vt 0.540000 1.222800
vt 0.542100 1.222800
vt 0.540000 1.273200
vt 0.542100 1.273200
vt 0.114000 0.043400
vt 0.118400 0.043400
vt 0.114000 0.040000
vt 0.118400 0.040000
vt 0.117900 0.556800
vt 0.113400 0.556800
vt 0.117900 0.553400
vt 0.113400 0.553400
vt 0.150100 0.043500
vt 0.154800 0.043500
vt 0.150100 0.040100
vt 0.154800 0.040100
vt 0.149500 0.556900
vt 0.149500 0.553500
vt 0.154300 0.556900
vt 0.154300 0.553500
vt 0.296600 0.142600
vt 0.296800 0.152100
vt 0.293700 0.142600
vt 0.293900 0.152100
vt 0.291700 0.159200
vt 0.291500 0.149800
vt 0.317800 1.276900
vt 0.320600 1.276900
vt 0.318800 1.325900
vt 0.321700 1.325900
vt 0.315600 1.284100
vt 0.316600 1.333100
vt 0.531000 0.055400
vt 0.529700 0.055400
vt 0.529700 0.065100
vt 0.531000 0.065100
vt 0.555600 0.053000
vt 0.554300 0.053000
vt 0.554300 0.043200
vt 0.555600 0.043200
vt 0.030800 0.025400
vt 0.030800 0.023400
vt 0.035700 0.023400
vt 0.035700 0.025400
vt 0.030300 0.536800
vt 0.030300 0.538800
vt 0.035100 0.538800
vt 0.035100 0.536800
vt 0.531000 1.222800
vt 0.529700 1.222800
vt 0.529700 1.273200
vt 0.530900 1.273200
vt 0.555600 1.210600
vt 0.554300 1.210600
vt 0.555600 1.261100
vt 0.554300 1.261100
vt 0.117900 0.539000
vt 0.117900 0.537000
vt 0.113400 0.537000
vt 0.113400 0.539000
vt 0.114000 0.025600
vt 0.114000 0.023600
vt 0.118500 0.023600
vt 0.118500 0.025600
vt 0.149500 0.539100
vt 0.149500 0.537100
vt 0.154300 0.539100
vt 0.154300 0.537100
vt 0.150100 0.025700
vt 0.150100 0.023700
vt 0.154800 0.023700
vt 0.154800 0.025700
vt 0.111200 0.025600
vt 0.111200 0.023600
vt 0.110600 0.537000
vt 0.110600 0.539000
vt 0.538100 0.055400
vt 0.538100 0.065100
vt 0.564600 0.053000
vt 0.562700 0.053000
vt 0.562700 0.043200
vt 0.564600 0.043200
vt 0.030800 0.039800
vt 0.030800 0.036700
vt 0.035600 0.036700
vt 0.035600 0.039800
vt 0.030300 0.550100
vt 0.035100 0.550100
vt 0.030300 0.553200
vt 0.035100 0.553200
vt 0.538100 1.222800
vt 0.538100 1.273200
vt 0.564600 1.210600
vt 0.562700 1.210600
vt 0.564600 1.261100
vt 0.562700 1.261100
vt 0.117900 0.550400
vt 0.113400 0.550300
vt 0.114000 0.036900
vt 0.118400 0.037000
vt 0.149500 0.550500
vt 0.154300 0.550500
vt 0.150100 0.037100
vt 0.154800 0.037100
vt 0.111100 0.040000
vt 0.111100 0.036900
vt 0.110600 0.550300
vt 0.110600 0.553400
f 1/1/1 2/2/2 3/3/3
f 1/1/1 3/3/3 4/4/4
f 5/5/5 6/6/6 7/7/7
f 5/5/5 7/7/7 8/8/8
f 9/9/9 10/10/10 11/11/11
f 9/9/9 11/11/11 12/12/12
f 10/10/10 2/2/2 1/1/1
f 10/10/10 1/1/1 11/11/11
f 7/7/7 13/13/13 14/14/14
f 7/7/7 14/14/14 8/8/8
f 13/13/13 15/15/15 16/16/16
f 13/13/13 16/16/16 14/14/14
f 17/17/17 18/18/18 19/19/19
f 17/17/17 19/19/19 20/20/20
f 20/20/20 1/1/1 4/4/4
f 20/20/20 4/4/4 17/17/17
f 21/21/21 22/22/22 23/23/23
f 21/21/21 23/23/23 24/24/24
f 22/22/22 5/5/5 8/8/8
f 22/22/22 8/8/8 23/23/23
f 11/11/11 25/25/25 26/26/26
f 11/11/11 26/26/26 12/12/12
f 25/25/25 27/27/27 28/28/28
f 25/25/25 28/28/28 26/26/26
f 1/1/1 20/20/20 25/25/25
f 1/1/1 25/25/25 11/11/11
f 20/20/20 19/19/19 27/27/27
f 20/20/20 27/27/27 25/25/25
f 14/14/14 29/29/29 23/23/23
f 14/14/14 23/23/23 8/8/8
f 29/29/29 30/30/30 24/24/24
f 29/29/29 24/24/24 23/23/23
f 16/16/16 31/31/31 29/29/29
f 16/16/16 29/29/29 14/14/14
f 31/31/31 32/32/32 30/30/30
f 31/31/31 30/30/30 29/29/29
f 18/18/18 33/33/33 34/34/34
f 18/18/18 34/34/34 19/19/19
f 33/33/33 21/21/21 24/24/24
f 33/33/33 24/24/24 34/34/34
f 2/2/2 35/35/35 36/36/36
f 2/2/2 36/36/36 3/3/3
f 35/35/35 7/7/7 6/6/6
f 35/35/35 6/6/6 36/36/36
f 12/12/12 37/37/37 38/38/38
f 12/12/12 38/38/38 9/9/9
f 37/37/37 16/16/16 15/15/15
f 37/37/37 15/15/15 38/38/38
f 3/3/3 36/36/36 39/39/39
f 3/3/3 39/39/39 4/4/4
f 36/36/36 6/6/6 5/5/5
f 36/36/36 5/5/5 39/39/39
f 27/27/27 40/40/40 41/41/41
f 27/27/27 41/41/41 28/28/28
f 40/40/40 30/30/30 32/32/32
f 40/40/40 32/32/32 41/41/41
f 19/19/19 34/34/34 40/40/40
f 19/19/19 40/40/40 27/27/27
f 34/34/34 24/24/24 30/30/30
f 34/34/34 30/30/30 40/40/40
f 10/10/10 42/42/42 35/35/35
f 10/10/10 35/35/35 2/2/2
f 42/42/42 13/13/13 7/7/7
f 42/42/42 7/7/7 35/35/35
f 9/9/9 38/38/38 42/42/42
f 9/9/9 42/42/42 10/10/10
f 38/38/38 15/15/15 13/13/13
f 38/38/38 13/13/13 42/42/42
f 26/26/26 43/43/43 37/37/37
f 26/26/26 37/37/37 12/12/12
f 43/43/43 31/31/31 16/16/16
f 43/43/43 16/16/16 37/37/37
f 28/28/28 41/41/41 43/43/43
f 28/28/28 43/43/43 26/26/26
f 41/41/41 32/32/32 31/31/31
f 41/41/41 31/31/31 43/43/43
f 33/33/33 18/18/18 17/17/17
f 33/33/33 17/17/17 44/44/44
f 44/44/44 22/22/22 21/21/21
f 44/44/44 21/21/21 33/33/33
f 4/4/4 39/39/39 44/44/44
f 4/4/4 44/44/44 17/17/17
f 39/39/39 5/5/5 22/22/22
f 39/39/39 22/22/22 44/44/44
f 45/45/45 46/46/46 47/47/47
f 45/45/45 47/47/47 48/48/48
f 49/49/49 50/50/50 51/51/51
f 49/49/49 51/51/51 52/52/52
f 53/53/53 54/54/54 55/55/55
f 53/53/53 55/55/55 56/56/56
f 54/54/54 45/45/45 48/48/48
f 54/54/54 48/48/48 55/55/55
f 57/57/57 58/58/58 59/59/59
f 57/57/57 59/59/59 60/60/60
f 58/58/58 49/49/49 52/52/52
f 58/58/58 52/52/52 59/59/59
f 50/50/50 61/61/61 62/62/62
f 50/50/50 62/62/62 51/51/51
f 61/61/61 63/63/63 64/64/64
f 61/61/61 64/64/64 62/62/62
f 46/46/46 65/65/65 66/66/66
f 46/46/46 66/66/66 47/47/47
f 65/65/65 67/67/67 68/68/68
f 65/65/65 68/68/68 66/66/66
f 67/67/67 69/69/69 70/70/70
f 67/67/67 70/70/70 68/68/68
f 63/63/63 71/71/71 72/72/72
f 63/63/63 72/72/72 64/64/64
f 73/73/73 74/74/74 75/75/75
f 73/73/73 75/75/75 76/76/76
f 77/77/77 78/78/78 79/79/79
f 77/77/77 79/79/79 80/80/80
f 81/81/81 82/82/82 83/83/83
f 81/81/81 83/83/83 84/84/84
f 82/82/82 46/46/46 45/45/45
f 82/82/82 45/45/45 83/83/83
f 51/51/51 85/85/85 86/86/86
f 51/51/51 86/86/86 52/52/52
f 85/85/85 87/87/87 88/88/88
f 85/85/85 88/88/88 86/86/86
f 89/89/89 90/90/90 91/91/91
f 89/89/89 91/91/91 92/92/92
f 90/90/90 54/54/54 53/53/53
f 90/90/90 53/53/53 91/91/91
f 84/84/84 83/83/83 90/90/90
f 84/84/84 90/90/90 89/89/89
f 83/83/83 45/45/45 54/54/54
f 83/83/83 54/54/54 90/90/90
f 59/59/59 93/93/93 94/94/94
f 59/59/59 94/94/94 60/60/60
f 93/93/93 95/95/95 96/96/96
f 93/93/93 96/96/96 94/94/94
f 52/52/52 86/86/86 93/93/93
f 52/52/52 93/93/93 59/59/59
f 86/86/86 88/88/88 95/95/95
f 86/86/86 95/95/95 93/93/93
f 62/62/62 97/97/97 85/85/85
f 62/62/62 85/85/85 51/51/51
f 97/97/97 98/98/98 87/87/87
f 97/97/97 87/87/87 85/85/85
f 64/64/64 99/99/99 97/97/97
f 64/64/64 97/97/97 62/62/62
f 99/99/99 100/100/100 98/98/98
f 99/99/99 98/98/98 97/97/97
f 101/101/101 102/102/102 82/82/82
f 101/101/101 82/82/82 81/81/81
f 102/102/102 65/65/65 46/46/46
f 102/102/102 46/46/46 82/82/82
f 103/103/103 104/104/104 102/102/102
f 103/103/103 102/102/102 101/101/101
f 104/104/104 67/67/67 65/65/65
f 104/104/104 65/65/65 102/102/102
f 105/105/105 106/106/106 104/104/104
f 105/105/105 104/104/104 103/103/103
f 106/106/106 69/69/69 67/67/67
f 106/106/106 67/67/67 104/104/104
f 72/72/72 107/107/107 99/99/99
f 72/72/72 99/99/99 64/64/64
f 107/107/107 108/108/108 100/100/100
f 107/107/107 100/100/100 99/99/99
f 75/75/75 109/109/109 110/110/110
f 75/75/75 110/110/110 76/76/76
f 109/109/109 111/111/111 112/112/112
f 109/109/109 112/112/112 110/110/110
f 113/113/113 114/114/114 115/115/115
f 113/113/113 115/115/115 116/116/116
f 114/114/114 78/78/78 77/77/77
f 114/114/114 77/77/77 115/115/115
f 117/117/117 118/118/118 119/119/119
f 117/117/117 119/119/119 120/120/120
f 121/121/121 122/122/122 123/123/123
f 121/121/121 123/123/123 124/124/124
f 125/125/125 126/126/126 127/127/127
f 125/125/125 127/127/127 128/128/128
f 129/129/129 130/130/130 131/131/131
f 129/129/129 131/131/131 132/132/132
f 133/133/133 134/134/134 126/126/126
f 133/133/133 126/126/126 125/125/125
f 135/135/135 136/136/136 134/134/134
f 135/135/135 134/134/134 133/133/133
f 137/137/137 138/138/138 130/130/130
f 137/137/137 130/130/130 129/129/129
f 139/139/139 140/140/140 138/138/138
f 139/139/139 138/138/138 137/137/137
f 141/141/141 142/142/142 143/143/143
f 141/141/141 143/143/143 144/144/144
f 132/132/132 131/131/131 142/142/142
f 132/132/132 142/142/142 141/141/141
f 145/145/145 146/146/146 147/147/147
f 145/145/145 147/147/147 148/148/148
f 149/149/149 150/150/150 146/146/146
f 149/149/149 146/146/146 145/145/145
f 151/151/151 152/152/152 153/153/153
f 151/151/151 153/153/153 154/154/154
f 155/155/155 156/156/156 157/157/157
f 155/155/155 157/157/157 158/158/158
f 159/159/159 160/160/160 161/161/161
f 159/159/159 161/161/161 162/162/162
f 120/120/120 119/119/119 160/160/160
f 120/120/120 160/160/160 159/159/159
f 163/163/163 164/164/164 122/122/122
f 163/163/163 122/122/122 121/121/121
f 140/140/140 139/139/139 164/164/164
f 140/140/140 164/164/164 163/163/163
f 165/165/165 166/166/166 167/167/167
f 165/165/165 167/167/167 168/168/168
f 166/166/166 117/117/117 120/120/120
f 166/166/166 120/120/120 167/167/167
f 169/169/169 170/170/170 171/171/171
f 169/169/169 171/171/171 172/172/172
f 170/170/170 121/121/121 124/124/124
f 170/170/170 124/124/124 171/171/171
f 173/173/173 174/174/174 175/175/175
f 173/173/173 175/175/175 176/176/176
f 174/174/174 125/125/125 128/128/128
f 174/174/174 128/128/128 175/175/175
f 130/130/130 177/177/177 178/178/178
f 130/130/130 178/178/178 131/131/131
f 177/177/177 179/179/179 180/180/180
f 177/177/177 180/180/180 178/178/178
f 181/181/181 182/182/182 174/174/174
f 181/181/181 174/174/174 173/173/173
f 182/182/182 133/133/133 125/125/125
f 182/182/182 125/125/125 174/174/174
f 183/183/183 184/184/184 182/182/182
f 183/183/183 182/182/182 181/181/181
f 184/184/184 135/135/135 133/133/133
f 184/184/184 133/133/133 182/182/182
f 138/138/138 185/185/185 177/177/177
f 138/138/138 177/177/177 130/130/130
f 185/185/185 186/186/186 179/179/179
f 185/185/185 179/179/179 177/177/177
f 140/140/140 187/187/187 185/185/185
f 140/140/140 185/185/185 138/138/138
f 187/187/187 188/188/188 186/186/186
f 187/187/187 186/186/186 185/185/185
f 142/142/142 189/189/189 190/190/190
f 142/142/142 190/190/190 143/143/143
f 189/189/189 191/191/191 192/192/192
f 189/189/189 192/192/192 190/190/190
f 131/131/131 178/178/178 189/189/189
f 131/131/131 189/189/189 142/142/142
f 178/178/178 180/180/180 191/191/191
f 178/178/178 191/191/191 189/189/189
f 193/193/193 194/194/194 195/195/195
f 193/193/193 195/195/195 196/196/196
f 194/194/194 145/145/145 148/148/148
f 194/194/194 148/148/148 195/195/195
f 197/197/197 198/198/198 194/194/194
f 197/197/197 194/194/194 193/193/193
f 198/198/198 149/149/149 145/145/145
f 198/198/198 145/145/145 194/194/194
f 199/199/199 200/200/200 201/201/201
f 199/199/199 201/201/201 202/202/202
f 200/200/200 151/151/151 154/154/154
f 200/200/200 154/154/154 201/201/201
f 156/156/156 203/203/203 204/204/204
f 156/156/156 204/204/204 157/157/157
f 203/203/203 205/205/205 206/206/206
f 203/203/203 206/206/206 204/204/204
f 207/207/207 208/208/208 209/209/209
f 207/207/207 209/209/209 210/210/210
f 208/208/208 159/159/159 162/162/162
f 208/208/208 162/162/162 209/209/209
f 168/168/168 167/167/167 208/208/208
f 168/168/168 208/208/208 207/207/207
f 167/167/167 120/120/120 159/159/159
f 167/167/167 159/159/159 208/208/208
f 211/211/211 212/212/212 170/170/170
f 211/211/211 170/170/170 169/169/169
f 212/212/212 163/163/163 121/121/121
f 212/212/212 121/121/121 170/170/170
f 188/188/188 187/187/187 212/212/212
f 188/188/188 212/212/212 211/211/211
f 187/187/187 140/140/140 163/163/163
f 187/187/187 163/163/163 212/212/212
f 69/69/69 213/213/213 214/214/214
f 69/69/69 214/214/214 70/70/70
f 213/213/213 215/215/215 216/216/216
f 213/213/213 216/216/216 214/214/214
f 71/71/71 217/217/217 218/218/218
f 71/71/71 218/218/218 72/72/72
f 217/217/217 219/219/219 220/220/220
f 217/217/217 220/220/220 218/218/218
f 221/221/221 222/222/222 223/223/223
f 221/221/221 223/223/223 224/224/224
f 222/222/222 106/106/106 105/105/105
f 222/222/222 105/105/105 223/223/223
f 215/215/215 213/213/213 222/222/222
f 215/215/215 222/222/222 221/221/221
f 213/213/213 69/69/69 106/106/106
f 213/213/213 106/106/106 222/222/222
f 225/225/225 226/226/226 218/218/218
f 225/225/225 218/218/218 220/220/220
f 226/226/226 107/107/107 72/72/72
f 226/226/226 72/72/72 218/218/218
f 227/227/227 228/228/228 226/226/226
f 227/227/227 226/226/226 225/225/225
f 228/228/228 108/108/108 107/107/107
f 228/228/228 107/107/107 226/226/226
f 153/153/153 229/229/229 230/230/230
f 153/153/153 230/230/230 154/154/154
f 229/229/229 231/231/231 232/232/232
f 229/229/229 232/232/232 230/230/230
f 157/157/157 233/233/233 234/234/234
f 157/157/157 234/234/234 158/158/158
f 233/233/233 235/235/235 236/236/236
f 233/233/233 236/236/236 234/234/234
f 201/201/201 237/237/237 238/238/238
f 201/201/201 238/238/238 202/202/202
f 237/237/237 239/239/239 240/240/240
f 237/237/237 240/240/240 238/238/238
f 154/154/154 230/230/230 237/237/237
f 154/154/154 237/237/237 201/201/201
f 230/230/230 232/232/232 239/239/239
f 230/230/230 239/239/239 237/237/237
f 204/204/204 241/241/241 233/233/233
f 204/204/204 233/233/233 157/157/157
f 241/241/241 242/242/242 235/235/235
f 241/241/241 235/235/235 233/233/233
f 206/206/206 243/243/243 241/241/241
f 206/206/206 241/241/241 204/204/204
f 243/243/243 244/244/244 242/242/242
f 243/243/243 242/242/242 241/241/241
f 74/74/74 245/245/245 246/246/246
f 74/74/74 246/246/246 75/75/75
f 245/245/245 247/247/247 248/248/248
f 245/245/245 248/248/248 246/246/246
f 78/78/78 249/249/249 250/250/250
f 78/78/78 250/250/250 79/79/79
f 249/249/249 119/119/119 118/118/118
f 249/249/249 118/118/118 250/250/250
f 251/251/251 252/252/252 246/246/246
f 251/251/251 246/246/246 248/248/248
f 252/252/252 109/109/109 75/75/75
f 252/252/252 75/75/75 246/246/246
f 253/253/253 254/254/254 252/252/252
f 253/253/253 252/252/252 251/251/251
f 254/254/254 111/111/111 109/109/109
f 254/254/254 109/109/109 252/252/252
f 160/160/160 255/255/255 256/256/256
f 160/160/160 256/256/256 161/161/161
f 255/255/255 114/114/114 113/113/113
f 255/255/255 113/113/113 256/256/256
f 119/119/119 249/249/249 255/255/255
f 119/119/119 255/255/255 160/160/160
f 249/249/249 78/78/78 114/114/114
f 249/249/249 114/114/114 255/255/255
f 257/257/257 258/258/258 259/259/259
f 257/257/257 259/259/259 260/260/260
f 261/261/261 262/262/262 263/263/263
f 261/261/261 263/263/263 264/264/264
f 265/265/265 266/266/266 267/267/267
f 265/265/265 267/267/267 268/268/268
f 269/269/269 270/270/270 271/271/271
f 269/269/269 271/271/271 272/272/272
f 273/273/273 274/274/274 275/275/275
f 273/273/273 275/275/275 276/276/276
f 260/260/260 259/259/259 274/274/274
f 260/260/260 274/274/274 273/273/273
f 277/277/277 278/278/278 262/262/262
f 277/277/277 262/262/262 261/261/261
f 279/279/279 280/280/280 278/278/278
f 279/279/279 278/278/278 277/277/277
f 281/281/281 282/282/282 283/283/283
f 281/281/281 283/283/283 284/284/284
f 285/285/285 286/286/286 287/287/287
f 285/285/285 287/287/287 288/288/288
f 289/289/289 290/290/290 282/282/282
f 289/289/289 282/282/282 281/281/281
f 291/291/291 292/292/292 290/290/290
f 291/291/291 290/290/290 289/289/289
f 293/293/293 294/294/294 295/295/295
f 293/293/293 295/295/295 296/296/296
f 288/288/288 287/287/287 294/294/294
f 288/288/288 294/294/294 293/293/293
f 297/297/297 298/298/298 286/286/286
f 297/297/297 286/286/286 285/285/285
f 268/268/268 267/267/267 298/298/298
f 268/268/268 298/298/298 297/297/297
f 299/299/299 300/300/300 284/284/284
f 299/299/299 284/284/284 283/283/283
f 272/272/272 271/271/271 300/300/300
f 272/272/272 300/300/300 299/299/299
f 219/219/219 301/301/301 302/302/302
f 219/219/219 302/302/302 220/220/220
f 301/301/301 257/257/257 260/260/260
f 301/301/301 260/260/260 302/302/302
f 303/303/303 304/304/304 305/305/305
f 303/303/303 305/305/305 306/306/306
f 304/304/304 261/261/261 264/264/264
f 304/304/304 264/264/264 305/305/305
f 307/307/307 308/308/308 309/309/309
f 307/307/307 309/309/309 310/310/310
f 308/308/308 265/265/265 268/268/268
f 308/308/308 268/268/268 309/309/309
f 270/270/270 311/311/311 312/312/312
f 270/270/270 312/312/312 271/271/271
f 311/311/311 313/313/313 314/314/314
f 311/311/311 314/314/314 312/312/312
f 225/225/225 315/315/315 316/316/316
f 225/225/225 316/316/316 227/227/227
f 315/315/315 273/273/273 276/276/276
f 315/315/315 276/276/276 316/316/316
f 220/220/220 302/302/302 315/315/315
f 220/220/220 315/315/315 225/225/225
f 302/302/302 260/260/260 273/273/273
f 302/302/302 273/273/273 315/315/315
f 317/317/317 318/318/318 304/304/304
f 317/317/317 304/304/304 303/303/303
f 318/318/318 277/277/277 261/261/261
f 318/318/318 261/261/261 304/304/304
f 319/319/319 320/320/320 318/318/318
f 319/319/319 318/318/318 317/317/317
f 320/320/320 279/279/279 277/277/277
f 320/320/320 277/277/277 318/318/318
f 235/235/235 321/321/321 322/322/322
f 235/235/235 322/322/322 236/236/236
f 321/321/321 281/281/281 284/284/284
f 321/321/321 284/284/284 322/322/322
f 231/231/231 323/323/323 324/324/324
f 231/231/231 324/324/324 232/232/232
f 323/323/323 285/285/285 288/288/288
f 323/323/323 288/288/288 324/324/324
f 242/242/242 325/325/325 321/321/321
f 242/242/242 321/321/321 235/235/235
f 325/325/325 289/289/289 281/281/281
f 325/325/325 281/281/281 321/321/321
f 244/244/244 326/326/326 325/325/325
f 244/244/244 325/325/325 242/242/242
f 326/326/326 291/291/291 289/289/289
f 326/326/326 289/289/289 325/325/325
f 239/239/239 327/327/327 328/328/328
f 239/239/239 328/328/328 240/240/240
f 327/327/327 293/293/293 296/296/296
f 327/327/327 296/296/296 328/328/328
f 232/232/232 324/324/324 327/327/327
f 232/232/232 327/327/327 239/239/239
f 324/324/324 288/288/288 293/293/293
f 324/324/324 293/293/293 327/327/327
f 329/329/329 330/330/330 323/323/323
f 329/329/329 323/323/323 231/231/231
f 330/330/330 297/297/297 285/285/285
f 330/330/330 285/285/285 323/323/323
f 310/310/310 309/309/309 330/330/330
f 310/310/310 330/330/330 329/329/329
f 309/309/309 268/268/268 297/297/297
f 309/309/309 297/297/297 330/330/330
f 300/300/300 331/331/331 322/322/322
f 300/300/300 322/322/322 284/284/284
f 331/331/331 332/332/332 236/236/236
f 331/331/331 236/236/236 322/322/322
f 271/271/271 312/312/312 331/331/331
f 271/271/271 331/331/331 300/300/300
f 312/312/312 314/314/314 332/332/332
f 312/312/312 332/332/332 331/331/331
