v 1.450522 0.241931 -0.566693
v 1.450408 0.241931 -0.566693
v 1.457499 0.243246 -0.566693
v 1.457964 0.243246 -0.566693
v 1.450408 0.226034 -0.566693
v 1.450522 0.226034 -0.566693
v 1.457964 0.224719 -0.566693
v 1.457499 0.224719 -0.566693
v 1.445833 0.241931 -0.566693
v 1.438880 0.243246 -0.566693
v 1.445674 0.241931 -0.566693
v 1.438232 0.243246 -0.566693
v 1.445674 0.226034 -0.566693
v 1.445833 0.226034 -0.566693
v 1.438880 0.224719 -0.566693
v 1.438232 0.224719 -0.566693
v 1.457964 0.243246 -0.559999
v 1.457964 0.243246 -0.559457
v 1.458717 0.243246 -0.559457
v 1.458717 0.243246 -0.559999
v 1.458717 0.224719 -0.559999
v 1.458717 0.224719 -0.559457
v 1.457964 0.224719 -0.559457
v 1.457964 0.224719 -0.559999
v 1.457964 0.243246 -0.558555
v 1.458717 0.243246 -0.558555
v 1.457964 0.243246 -0.558001
v 1.458717 0.243246 -0.558001
v 1.458717 0.224719 -0.558555
v 1.457964 0.224719 -0.558555
v 1.458717 0.224719 -0.558001
v 1.457964 0.224719 -0.558001
v 1.458717 0.243246 -0.559999
v 1.458717 0.243246 -0.560602
v 1.457964 0.243246 -0.560602
v 1.457964 0.243246 -0.559999
v 1.457964 0.224719 -0.559999
v 1.457964 0.224719 -0.560602
v 1.458717 0.224719 -0.560602
v 1.458717 0.224719 -0.559999
v 1.457499 0.243246 -0.560602
v 1.457499 0.243246 -0.559999
v 1.457499 0.224719 -0.559999
v 1.457499 0.224719 -0.560602
v 1.438880 0.243246 -0.559999
v 1.438880 0.243246 -0.560602
v 1.438232 0.243246 -0.560602
v 1.438232 0.243246 -0.559999
v 1.438880 0.224719 -0.559999
v 1.438880 0.224719 -0.560602
v 1.438232 0.224719 -0.559999
v 1.438232 0.224719 -0.560602
v 1.458717 0.243246 -0.566154
v 1.457964 0.243246 -0.566154
v 1.458717 0.243246 -0.566693
v 1.457964 0.243246 -0.566693
v 1.457964 0.224719 -0.566154
v 1.458717 0.224719 -0.566154
v 1.457964 0.224719 -0.566693
v 1.458717 0.224719 -0.566693
v 1.457499 0.243246 -0.566154
v 1.457499 0.243246 -0.566693
v 1.457499 0.224719 -0.566154
v 1.457499 0.224719 -0.566693
v 1.438880 0.243246 -0.566154
v 1.438232 0.243246 -0.566154
v 1.438880 0.243246 -0.566693
v 1.438232 0.243246 -0.566693
v 1.438880 0.224719 -0.566154
v 1.438880 0.224719 -0.566693
v 1.438232 0.224719 -0.566154
v 1.438232 0.224719 -0.566693
v 1.450522 0.226034 -0.583485
v 1.450522 0.226034 -0.583005
v 1.450408 0.226034 -0.583005
v 1.450408 0.226034 -0.583485
v 1.450408 0.241931 -0.583485
v 1.450408 0.241931 -0.583005
v 1.450522 0.241931 -0.583005
v 1.450522 0.241931 -0.583485
v 1.445833 0.226034 -0.583485
v 1.445833 0.226034 -0.583005
v 1.445674 0.226034 -0.583005
v 1.445674 0.226034 -0.583485
v 1.445833 0.241931 -0.583485
v 1.445833 0.241931 -0.583005
v 1.445674 0.241931 -0.583485
v 1.445674 0.241931 -0.583005
v 1.450522 0.226034 -0.567200
v 1.450408 0.226034 -0.567200
v 1.450522 0.226034 -0.566693
v 1.450408 0.226034 -0.566693
v 1.450408 0.241931 -0.567200
v 1.450522 0.241931 -0.567200
v 1.450408 0.241931 -0.566693
v 1.450522 0.241931 -0.566693
v 1.445833 0.226034 -0.567200
v 1.445674 0.226034 -0.567200
v 1.445833 0.226034 -0.566693
v 1.445674 0.226034 -0.566693
v 1.445833 0.241931 -0.567200
v 1.445833 0.241931 -0.566693
v 1.445674 0.241931 -0.567200
v 1.445674 0.241931 -0.566693
v 1.450408 0.241931 -0.586607
v 1.450408 0.241931 -0.586210
v 1.450522 0.241931 -0.586210
v 1.450522 0.241931 -0.586607
v 1.450522 0.226034 -0.586607
v 1.450522 0.226034 -0.586210
v 1.450408 0.226034 -0.586210
v 1.450408 0.226034 -0.586607
v 1.445833 0.241931 -0.586607
v 1.445833 0.241931 -0.586210
v 1.445674 0.241931 -0.586607
v 1.445674 0.241931 -0.586210
v 1.445833 0.226034 -0.586607
v 1.445833 0.226034 -0.586210
v 1.445674 0.226034 -0.586210
v 1.445674 0.226034 -0.586607
v 1.463100 0.241931 -0.586210
v 1.463100 0.241931 -0.586607
v 1.450522 0.241931 -0.586607
v 1.450522 0.241931 -0.586210
v 1.463640 0.241931 -0.586210
v 1.463640 0.241931 -0.586607
v 1.463100 0.226034 -0.586607
v 1.463100 0.226034 -0.586210
v 1.450522 0.226034 -0.586210
v 1.450522 0.226034 -0.586607
v 1.463640 0.226034 -0.586607
v 1.463640 0.226034 -0.586210
v 1.443549 0.226034 -0.586210
v 1.443549 0.226034 -0.586607
v 1.444017 0.226034 -0.586607
v 1.444017 0.226034 -0.586210
v 1.443549 0.241931 -0.586607
v 1.443549 0.241931 -0.586210
v 1.444017 0.241931 -0.586210
v 1.444017 0.241931 -0.586607
v 1.445140 0.226034 -0.586210
v 1.445140 0.226034 -0.586607
v 1.445674 0.226034 -0.586607
v 1.445674 0.226034 -0.586210
v 1.445140 0.241931 -0.586607
v 1.445140 0.241931 -0.586210
v 1.445674 0.241931 -0.586210
v 1.445674 0.241931 -0.586607
v 1.450408 0.241931 -0.583982
v 1.450522 0.241931 -0.583982
v 1.450522 0.226034 -0.583982
v 1.450408 0.226034 -0.583982
v 1.445833 0.241931 -0.583982
v 1.445674 0.241931 -0.583982
v 1.445833 0.226034 -0.583982
v 1.445674 0.226034 -0.583982
v 1.463100 0.241931 -0.583485
v 1.463100 0.241931 -0.583982
v 1.450522 0.241931 -0.583982
v 1.450522 0.241931 -0.583485
v 1.463640 0.241931 -0.583485
v 1.463640 0.241931 -0.583982
v 1.463100 0.226034 -0.583982
v 1.450522 0.226034 -0.583982
v 1.463100 0.226034 -0.583485
v 1.450522 0.226034 -0.583485
v 1.463640 0.226034 -0.583982
v 1.463640 0.226034 -0.583485
v 1.443549 0.226034 -0.583485
v 1.443549 0.226034 -0.583982
v 1.444017 0.226034 -0.583982
v 1.444017 0.226034 -0.583485
v 1.443549 0.241931 -0.583982
v 1.444017 0.241931 -0.583982
v 1.443549 0.241931 -0.583485
v 1.444017 0.241931 -0.583485
v 1.445140 0.226034 -0.583485
v 1.445140 0.226034 -0.583982
v 1.445674 0.226034 -0.583982
v 1.445674 0.226034 -0.583485
v 1.445140 0.241931 -0.583982
v 1.445674 0.241931 -0.583982
v 1.445140 0.241931 -0.583485
v 1.445674 0.241931 -0.583485
v 1.538793 0.242692 -0.566693
v 1.538793 0.243246 -0.566693
v 1.546235 0.241931 -0.566693
v 1.546235 0.241455 -0.566693
v 1.558526 0.243246 -0.566693
v 1.558526 0.242692 -0.566693
v 1.551084 0.241455 -0.566693
v 1.551084 0.241931 -0.566693
v 1.445674 0.241931 -0.566693
v 1.445674 0.241455 -0.566693
v 1.438232 0.242692 -0.566693
v 1.438232 0.243246 -0.566693
v 1.450522 0.241455 -0.566693
v 1.450522 0.241931 -0.566693
v 1.457964 0.243246 -0.566693
v 1.457964 0.242692 -0.566693
v 1.458717 0.243246 -0.566693
v 1.458717 0.242692 -0.566693
v 1.457964 0.242692 -0.566693
v 1.457964 0.243246 -0.566693
v 1.457964 0.243246 -0.558001
v 1.457964 0.242692 -0.558001
v 1.458717 0.242692 -0.558001
v 1.458717 0.243246 -0.558001
v 1.457499 0.243246 -0.559999
v 1.457499 0.242692 -0.559999
v 1.457964 0.242692 -0.559999
v 1.457964 0.243246 -0.559999
v 1.450408 0.241455 -0.586607
v 1.450408 0.241931 -0.586607
v 1.450522 0.241931 -0.586607
v 1.450522 0.241455 -0.586607
v 1.438880 0.243246 -0.559999
v 1.438880 0.242692 -0.559999
v 1.438232 0.243246 -0.559999
v 1.438232 0.242692 -0.559999
v 1.445833 0.241455 -0.586607
v 1.445833 0.241931 -0.586607
v 1.445674 0.241455 -0.586607
v 1.445674 0.241931 -0.586607
v 1.457964 0.242692 -0.559457
v 1.457964 0.243246 -0.559457
v 1.457964 0.243246 -0.559999
v 1.457964 0.242692 -0.559999
v 1.538793 0.243246 -0.559457
v 1.538793 0.242692 -0.559457
v 1.538793 0.242692 -0.559999
v 1.538793 0.243246 -0.559999
v 1.457964 0.242692 -0.558555
v 1.457964 0.243246 -0.558555
v 1.457964 0.242692 -0.558001
v 1.457964 0.243246 -0.558001
v 1.538793 0.243246 -0.558555
v 1.538793 0.242692 -0.558555
v 1.538793 0.243246 -0.558001
v 1.538793 0.242692 -0.558001
v 1.438232 0.243246 -0.560602
v 1.438232 0.242692 -0.560602
v 1.438232 0.242692 -0.559999
v 1.438232 0.243246 -0.559999
v 1.558526 0.242692 -0.560602
v 1.558526 0.243246 -0.560602
v 1.558526 0.243246 -0.559999
v 1.558526 0.242692 -0.559999
v 1.438232 0.243246 -0.566154
v 1.438232 0.242692 -0.566154
v 1.438232 0.243246 -0.566693
v 1.438232 0.242692 -0.566693
v 1.558526 0.242692 -0.566154
v 1.558526 0.243246 -0.566154
v 1.558526 0.242692 -0.566693
v 1.558526 0.243246 -0.566693
v 1.450522 0.241455 -0.583485
v 1.450522 0.241931 -0.583485
v 1.450522 0.241931 -0.583005
v 1.450522 0.241455 -0.583005
v 1.445674 0.241931 -0.583485
v 1.445674 0.241455 -0.583485
v 1.445674 0.241455 -0.583005
v 1.445674 0.241931 -0.583005
v 1.450522 0.241455 -0.567200
v 1.450522 0.241931 -0.567200
v 1.450522 0.241931 -0.566693
v 1.450522 0.241455 -0.566693
v 1.445674 0.241931 -0.567200
v 1.445674 0.241455 -0.567200
v 1.445674 0.241455 -0.566693
v 1.445674 0.241931 -0.566693
v 1.463100 0.241455 -0.583485
v 1.463100 0.241931 -0.583485
v 1.450522 0.241931 -0.583485
v 1.450522 0.241455 -0.583485
v 1.463640 0.241455 -0.583485
v 1.463640 0.241931 -0.583485
v 1.463100 0.241931 -0.586607
v 1.463100 0.241455 -0.586607
v 1.463640 0.241931 -0.586607
v 1.463640 0.241455 -0.586607
v 1.443549 0.241931 -0.583485
v 1.443549 0.241455 -0.583485
v 1.444017 0.241455 -0.583485
v 1.444017 0.241931 -0.583485
v 1.443549 0.241455 -0.586607
v 1.443549 0.241931 -0.586607
v 1.444017 0.241931 -0.586607
v 1.444017 0.241455 -0.586607
v 1.445140 0.241931 -0.583485
v 1.445140 0.241455 -0.583485
v 1.445674 0.241455 -0.583485
v 1.445674 0.241931 -0.583485
v 1.445140 0.241455 -0.586607
v 1.445140 0.241931 -0.586607
v 1.463640 0.241455 -0.586607
v 1.463640 0.241931 -0.586607
v 1.463640 0.241931 -0.586210
v 1.463640 0.241455 -0.586210
v 1.443549 0.241931 -0.586607
v 1.443549 0.241455 -0.586607
v 1.443549 0.241455 -0.586210
v 1.443549 0.241931 -0.586210
v 1.463640 0.241455 -0.583982
v 1.463640 0.241931 -0.583982
v 1.463640 0.241931 -0.583485
v 1.463640 0.241455 -0.583485
v 1.443549 0.241931 -0.583982
v 1.443549 0.241455 -0.583982
v 1.443549 0.241455 -0.583485
v 1.443549 0.241931 -0.583485
v 1.538793 0.224719 -0.566693
v 1.538793 0.225187 -0.566693
v 1.546235 0.226436 -0.566693
v 1.546235 0.226034 -0.566693
v 1.558526 0.225187 -0.566693
v 1.551084 0.226436 -0.566693
v 1.558526 0.224719 -0.566693
v 1.551084 0.226034 -0.566693
v 1.445674 0.226436 -0.566693
v 1.438232 0.225187 -0.566693
v 1.445674 0.226034 -0.566693
v 1.438232 0.224719 -0.566693
v 1.450522 0.226034 -0.566693
v 1.450522 0.226436 -0.566693
v 1.457964 0.225187 -0.566693
v 1.457964 0.224719 -0.566693
v 1.458717 0.225187 -0.566693
v 1.457964 0.225187 -0.566693
v 1.458717 0.224719 -0.566693
v 1.457964 0.224719 -0.566693
v 1.457964 0.225187 -0.558001
v 1.458717 0.225187 -0.558001
v 1.457964 0.224719 -0.558001
v 1.458717 0.224719 -0.558001
v 1.457499 0.225187 -0.559999
v 1.457964 0.225187 -0.559999
v 1.457499 0.224719 -0.559999
v 1.457964 0.224719 -0.559999
v 1.450408 0.226034 -0.586607
v 1.450408 0.226436 -0.586607
v 1.450522 0.226436 -0.586607
v 1.450522 0.226034 -0.586607
v 1.438880 0.225187 -0.559999
v 1.438880 0.224719 -0.559999
v 1.438232 0.225187 -0.559999
v 1.438232 0.224719 -0.559999
v 1.445833 0.226034 -0.586607
v 1.445833 0.226436 -0.586607
v 1.445674 0.226034 -0.586607
v 1.445674 0.226436 -0.586607
v 1.457964 0.224719 -0.559457
v 1.457964 0.225187 -0.559457
v 1.457964 0.225187 -0.559999
v 1.457964 0.224719 -0.559999
v 1.538793 0.225187 -0.559457
v 1.538793 0.225187 -0.559999
v 1.538793 0.224719 -0.559457
v 1.538793 0.224719 -0.559999
v 1.457964 0.224719 -0.558555
v 1.457964 0.225187 -0.558555
v 1.457964 0.224719 -0.558001
v 1.457964 0.225187 -0.558001
v 1.538793 0.225187 -0.558555
v 1.538793 0.224719 -0.558555
v 1.538793 0.225187 -0.558001
v 1.538793 0.224719 -0.558001
v 1.438232 0.225187 -0.560602
v 1.438232 0.225187 -0.559999
v 1.438232 0.224719 -0.560602
v 1.438232 0.224719 -0.559999
v 1.558526 0.224719 -0.560602
v 1.558526 0.225187 -0.560602
v 1.558526 0.225187 -0.559999
v 1.558526 0.224719 -0.559999
v 1.438232 0.225187 -0.566154
v 1.438232 0.224719 -0.566154
v 1.438232 0.225187 -0.566693
v 1.438232 0.224719 -0.566693
v 1.558526 0.224719 -0.566154
v 1.558526 0.225187 -0.566154
v 1.558526 0.224719 -0.566693
v 1.558526 0.225187 -0.566693
v 1.450522 0.226034 -0.583485
v 1.450522 0.226436 -0.583485
v 1.450522 0.226436 -0.583005
v 1.450522 0.226034 -0.583005
v 1.445674 0.226436 -0.583485
v 1.445674 0.226436 -0.583005
v 1.445674 0.226034 -0.583485
v 1.445674 0.226034 -0.583005
v 1.450522 0.226034 -0.567200
v 1.450522 0.226436 -0.567200
v 1.450522 0.226436 -0.566693
v 1.450522 0.226034 -0.566693
v 1.445674 0.226436 -0.567200
v 1.445674 0.226436 -0.566693
v 1.445674 0.226034 -0.567200
v 1.445674 0.226034 -0.566693
v 1.463100 0.226034 -0.583485
v 1.463100 0.226436 -0.583485
v 1.450522 0.226436 -0.583485
v 1.450522 0.226034 -0.583485
v 1.463640 0.226034 -0.583485
v 1.463640 0.226436 -0.583485
v 1.463100 0.226436 -0.586607
v 1.463100 0.226034 -0.586607
v 1.463640 0.226436 -0.586607
v 1.463640 0.226034 -0.586607
v 1.443549 0.226436 -0.583485
v 1.444017 0.226436 -0.583485
v 1.443549 0.226034 -0.583485
v 1.444017 0.226034 -0.583485
v 1.443549 0.226034 -0.586607
v 1.443549 0.226436 -0.586607
v 1.444017 0.226436 -0.586607
v 1.444017 0.226034 -0.586607
v 1.445140 0.226436 -0.583485
v 1.445674 0.226436 -0.583485
v 1.445140 0.226034 -0.583485
v 1.445674 0.226034 -0.583485
v 1.445140 0.226034 -0.586607
v 1.445140 0.226436 -0.586607
v 1.463640 0.226034 -0.586607
v 1.463640 0.226436 -0.586607
v 1.463640 0.226436 -0.586210
v 1.463640 0.226034 -0.586210
v 1.443549 0.226436 -0.586607
v 1.443549 0.226436 -0.586210
v 1.443549 0.226034 -0.586607
v 1.443549 0.226034 -0.586210
v 1.463640 0.226034 -0.583982
v 1.463640 0.226436 -0.583982
v 1.463640 0.226436 -0.583485
v 1.463640 0.226034 -0.583485
v 1.443549 0.226436 -0.583982
v 1.443549 0.226436 -0.583485
v 1.443549 0.226034 -0.583982
v 1.443549 0.226034 -0.583485
v 1.538250 0.243246 -0.559457
v 1.538250 0.243246 -0.559999
v 1.538793 0.243246 -0.559457
v 1.538793 0.243246 -0.559999
v 1.538793 0.224719 -0.559457
v 1.538250 0.224719 -0.559457
v 1.538250 0.224719 -0.559999
v 1.538793 0.224719 -0.559999
v 1.538250 0.243246 -0.558555
v 1.538793 0.243246 -0.558555
v 1.538250 0.243246 -0.558001
v 1.538793 0.243246 -0.558001
v 1.538793 0.224719 -0.558555
v 1.538250 0.224719 -0.558555
v 1.538793 0.224719 -0.558001
v 1.538250 0.224719 -0.558001
v 1.538793 0.243246 -0.560602
v 1.538250 0.243246 -0.560602
v 1.538250 0.243246 -0.559999
v 1.538793 0.243246 -0.559999
v 1.538250 0.224719 -0.560602
v 1.538250 0.224719 -0.559999
v 1.538793 0.224719 -0.560602
v 1.538793 0.224719 -0.559999
v 1.538793 0.243246 -0.566154
v 1.538250 0.243246 -0.566154
v 1.538793 0.243246 -0.566693
v 1.538250 0.243246 -0.566693
v 1.538250 0.224719 -0.566154
v 1.538793 0.224719 -0.566154
v 1.538250 0.224719 -0.566693
v 1.538793 0.224719 -0.566693
v 1.538793 0.242692 -0.566693
v 1.538250 0.242692 -0.566693
v 1.538250 0.243246 -0.566693
v 1.538793 0.243246 -0.566693
v 1.538250 0.242692 -0.558001
v 1.538250 0.243246 -0.558001
v 1.538793 0.242692 -0.558001
v 1.538793 0.243246 -0.558001
v 1.538793 0.225187 -0.566693
v 1.538250 0.225187 -0.566693
v 1.538793 0.224719 -0.566693
v 1.538250 0.224719 -0.566693
v 1.538250 0.225187 -0.558001
v 1.538793 0.225187 -0.558001
v 1.538250 0.224719 -0.558001
v 1.538793 0.224719 -0.558001
v 1.539256 0.224719 -0.566693
v 1.538793 0.224719 -0.566693
v 1.546235 0.226034 -0.566693
v 1.546349 0.226034 -0.566693
v 1.538793 0.243246 -0.566693
v 1.539256 0.243246 -0.566693
v 1.546349 0.241931 -0.566693
v 1.546235 0.241931 -0.566693
v 1.539256 0.243246 -0.560602
v 1.539256 0.243246 -0.559999
v 1.539256 0.224719 -0.560602
v 1.539256 0.224719 -0.559999
v 1.539256 0.243246 -0.566154
v 1.539256 0.243246 -0.566693
v 1.539256 0.224719 -0.566154
v 1.539256 0.224719 -0.566693
v 1.538793 0.242692 -0.559999
v 1.539256 0.242692 -0.559999
v 1.539256 0.243246 -0.559999
v 1.538793 0.243246 -0.559999
v 1.546349 0.241455 -0.586607
v 1.546235 0.241455 -0.586607
v 1.546235 0.241931 -0.586607
v 1.546349 0.241931 -0.586607
v 1.538793 0.225187 -0.559999
v 1.539256 0.225187 -0.559999
v 1.538793 0.224719 -0.559999
v 1.539256 0.224719 -0.559999
v 1.546349 0.226436 -0.586607
v 1.546235 0.226436 -0.586607
v 1.546349 0.226034 -0.586607
v 1.546235 0.226034 -0.586607
v 1.558526 0.224719 -0.566693
v 1.558106 0.224719 -0.566693
v 1.550981 0.226034 -0.566693
v 1.551084 0.226034 -0.566693
v 1.558106 0.243246 -0.566693
v 1.550981 0.241931 -0.566693
v 1.558526 0.243246 -0.566693
v 1.551084 0.241931 -0.566693
v 1.558526 0.243246 -0.560602
v 1.558106 0.243246 -0.560602
v 1.558106 0.243246 -0.559999
v 1.558526 0.243246 -0.559999
v 1.558106 0.224719 -0.560602
v 1.558106 0.224719 -0.559999
v 1.558526 0.224719 -0.560602
v 1.558526 0.224719 -0.559999
v 1.558526 0.243246 -0.566154
v 1.558106 0.243246 -0.566154
v 1.558526 0.243246 -0.566693
v 1.558106 0.243246 -0.566693
v 1.558106 0.224719 -0.566154
v 1.558526 0.224719 -0.566154
v 1.558106 0.224719 -0.566693
v 1.558526 0.224719 -0.566693
v 1.558106 0.242692 -0.559999
v 1.558106 0.243246 -0.559999
v 1.558526 0.242692 -0.559999
v 1.558526 0.243246 -0.559999
v 1.551084 0.241455 -0.586607
v 1.550981 0.241455 -0.586607
v 1.550981 0.241931 -0.586607
v 1.551084 0.241931 -0.586607
v 1.558106 0.225187 -0.559999
v 1.558526 0.225187 -0.559999
v 1.558106 0.224719 -0.559999
v 1.558526 0.224719 -0.559999
v 1.551084 0.226436 -0.586607
v 1.550981 0.226436 -0.586607
v 1.551084 0.226034 -0.586607
v 1.550981 0.226034 -0.586607
v 1.551084 0.241455 -0.583119
v 1.551084 0.241455 -0.583485
v 1.551084 0.241931 -0.583485
v 1.551084 0.241931 -0.583119
v 1.546235 0.241931 -0.583119
v 1.546235 0.241931 -0.583485
v 1.546235 0.241455 -0.583485
v 1.546235 0.241455 -0.583119
v 1.551084 0.226436 -0.583119
v 1.551084 0.226436 -0.583485
v 1.551084 0.226034 -0.583119
v 1.551084 0.226034 -0.583485
v 1.546235 0.226436 -0.583119
v 1.546235 0.226436 -0.583485
v 1.546235 0.226034 -0.583485
v 1.546235 0.226034 -0.583119
v 1.546349 0.241931 -0.583119
v 1.546349 0.241931 -0.583485
v 1.546235 0.241931 -0.583485
v 1.546235 0.241931 -0.583119
v 1.546235 0.226034 -0.583119
v 1.546235 0.226034 -0.583485
v 1.546349 0.226034 -0.583485
v 1.546349 0.226034 -0.583119
v 1.550981 0.241931 -0.583119
v 1.550981 0.241931 -0.583485
v 1.551084 0.241931 -0.583119
v 1.551084 0.241931 -0.583485
v 1.550981 0.226034 -0.583119
v 1.550981 0.226034 -0.583485
v 1.551084 0.226034 -0.583485
v 1.551084 0.226034 -0.583119
v 1.551084 0.241455 -0.566693
v 1.551084 0.241455 -0.567498
v 1.551084 0.241931 -0.567498
v 1.551084 0.241931 -0.566693
v 1.546235 0.241931 -0.566693
v 1.546235 0.241931 -0.567498
v 1.546235 0.241455 -0.567498
v 1.546235 0.241455 -0.566693
v 1.551084 0.226436 -0.566693
v 1.551084 0.226436 -0.567498
v 1.551084 0.226034 -0.566693
v 1.551084 0.226034 -0.567498
v 1.546235 0.226436 -0.566693
v 1.546235 0.226436 -0.567498
v 1.546235 0.226034 -0.567498
v 1.546235 0.226034 -0.566693
v 1.546349 0.241931 -0.566693
v 1.546349 0.241931 -0.567498
v 1.546235 0.241931 -0.567498
v 1.546235 0.241931 -0.566693
v 1.546235 0.226034 -0.566693
v 1.546235 0.226034 -0.567498
v 1.546349 0.226034 -0.567498
v 1.546349 0.226034 -0.566693
v 1.550981 0.241931 -0.566693
v 1.550981 0.241931 -0.567498
v 1.551084 0.241931 -0.566693
v 1.551084 0.241931 -0.567498
v 1.550981 0.226034 -0.566693
v 1.550981 0.226034 -0.567498
v 1.551084 0.226034 -0.567498
v 1.551084 0.226034 -0.566693
v 1.545875 0.241455 -0.586607
v 1.545875 0.241931 -0.586607
v 1.546235 0.241931 -0.583485
v 1.545875 0.241931 -0.583485
v 1.545875 0.241455 -0.583485
v 1.546235 0.241455 -0.583485
v 1.545875 0.226436 -0.586607
v 1.545875 0.226034 -0.586607
v 1.546235 0.226436 -0.583485
v 1.545875 0.226436 -0.583485
v 1.545875 0.226034 -0.583485
v 1.546235 0.226034 -0.583485
v 1.533477 0.241455 -0.586607
v 1.533477 0.241931 -0.586607
v 1.533117 0.241455 -0.586607
v 1.533117 0.241931 -0.586607
v 1.533477 0.241931 -0.583485
v 1.533477 0.241455 -0.583485
v 1.533117 0.241931 -0.583485
v 1.533117 0.241455 -0.583485
v 1.533477 0.226436 -0.586607
v 1.533117 0.226436 -0.586607
v 1.533477 0.226034 -0.586607
v 1.533117 0.226034 -0.586607
v 1.533477 0.226436 -0.583485
v 1.533477 0.226034 -0.583485
v 1.533117 0.226436 -0.583485
v 1.533117 0.226034 -0.583485
v 1.553209 0.241455 -0.586326
v 1.553209 0.241455 -0.586607
v 1.553209 0.241931 -0.586607
v 1.553209 0.241931 -0.586326
v 1.533117 0.241931 -0.586326
v 1.533117 0.241931 -0.586607
v 1.533117 0.241455 -0.586607
v 1.533117 0.241455 -0.586326
v 1.553209 0.226436 -0.586326
v 1.553209 0.226436 -0.586607
v 1.553209 0.226034 -0.586326
v 1.553209 0.226034 -0.586607
v 1.533117 0.226436 -0.586326
v 1.533117 0.226436 -0.586607
v 1.533117 0.226034 -0.586607
v 1.533117 0.226034 -0.586326
v 1.546235 0.226034 -0.586326
v 1.546235 0.226034 -0.586607
v 1.546349 0.226034 -0.586607
v 1.546349 0.226034 -0.586326
v 1.546349 0.241931 -0.586326
v 1.546349 0.241931 -0.586607
v 1.546235 0.241931 -0.586607
v 1.546235 0.241931 -0.586326
v 1.550981 0.226034 -0.586326
v 1.550981 0.226034 -0.586607
v 1.551084 0.226034 -0.586607
v 1.551084 0.226034 -0.586326
v 1.550981 0.241931 -0.586326
v 1.550981 0.241931 -0.586607
v 1.551084 0.241931 -0.586326
v 1.551084 0.241931 -0.586607
v 1.545875 0.226034 -0.586326
v 1.545875 0.226034 -0.586607
v 1.546235 0.226034 -0.586607
v 1.546235 0.226034 -0.586326
v 1.545875 0.241931 -0.586607
v 1.545875 0.241931 -0.586326
v 1.546235 0.241931 -0.586326
v 1.546235 0.241931 -0.586607
v 1.533477 0.226034 -0.586326
v 1.533477 0.226034 -0.586607
v 1.533117 0.226034 -0.586326
v 1.533117 0.226034 -0.586607
v 1.533477 0.241931 -0.586607
v 1.533477 0.241931 -0.586326
v 1.533117 0.241931 -0.586607
v 1.533117 0.241931 -0.586326
v 1.553209 0.241455 -0.583485
v 1.553209 0.241455 -0.583795
v 1.553209 0.241931 -0.583795
v 1.553209 0.241931 -0.583485
v 1.533117 0.241931 -0.583485
v 1.533117 0.241931 -0.583795
v 1.533117 0.241455 -0.583795
v 1.533117 0.241455 -0.583485
v 1.553209 0.226436 -0.583485
v 1.553209 0.226436 -0.583795
v 1.553209 0.226034 -0.583485
v 1.553209 0.226034 -0.583795
v 1.533117 0.226436 -0.583485
v 1.533117 0.226436 -0.583795
v 1.533117 0.226034 -0.583795
v 1.533117 0.226034 -0.583485
v 1.546235 0.226034 -0.583795
v 1.546349 0.226034 -0.583795
v 1.546349 0.241931 -0.583795
v 1.546235 0.241931 -0.583795
v 1.550981 0.226034 -0.583795
v 1.551084 0.226034 -0.583795
v 1.550981 0.241931 -0.583795
v 1.551084 0.241931 -0.583795
v 1.545875 0.226034 -0.583485
v 1.545875 0.226034 -0.583795
v 1.546235 0.226034 -0.583795
v 1.546235 0.226034 -0.583485
v 1.545875 0.241931 -0.583795
v 1.546235 0.241931 -0.583795
v 1.545875 0.241931 -0.583485
v 1.546235 0.241931 -0.583485
v 1.533477 0.226034 -0.583485
v 1.533477 0.226034 -0.583795
v 1.533117 0.226034 -0.583485
v 1.533117 0.226034 -0.583795
v 1.533477 0.241931 -0.583795
v 1.533477 0.241931 -0.583485
v 1.533117 0.241931 -0.583795
v 1.533117 0.241931 -0.583485
v 1.551352 0.241931 -0.586607
v 1.551352 0.241455 -0.586607
v 1.551084 0.241455 -0.583485
v 1.551352 0.241455 -0.583485
v 1.551352 0.241931 -0.583485
v 1.551084 0.241931 -0.583485
v 1.551352 0.226436 -0.586607
v 1.551352 0.226034 -0.586607
v 1.551084 0.226436 -0.583485
v 1.551352 0.226436 -0.583485
v 1.551084 0.226034 -0.583485
v 1.551352 0.226034 -0.583485
v 1.551084 0.241931 -0.586326
v 1.551352 0.241931 -0.586326
v 1.551352 0.241931 -0.586607
v 1.551084 0.241931 -0.586607
v 1.551084 0.226034 -0.586607
v 1.551352 0.226034 -0.586607
v 1.551352 0.226034 -0.586326
v 1.551084 0.226034 -0.586326
v 1.551084 0.241931 -0.583795
v 1.551352 0.241931 -0.583795
v 1.551084 0.241931 -0.583485
v 1.551352 0.241931 -0.583485
v 1.551084 0.226034 -0.583795
v 1.551352 0.226034 -0.583795
v 1.551352 0.226034 -0.583485
v 1.551084 0.226034 -0.583485
v 1.552924 0.241931 -0.586607
v 1.552924 0.241455 -0.586607
v 1.553209 0.241931 -0.586607
v 1.553209 0.241455 -0.586607
v 1.552924 0.241455 -0.583485
v 1.552924 0.241931 -0.583485
v 1.553209 0.241455 -0.583485
v 1.553209 0.241931 -0.583485
v 1.552924 0.226436 -0.586607
v 1.552924 0.226034 -0.586607
v 1.553209 0.226436 -0.586607
v 1.553209 0.226034 -0.586607
v 1.552924 0.226436 -0.583485
v 1.553209 0.226436 -0.583485
v 1.552924 0.226034 -0.583485
v 1.553209 0.226034 -0.583485
v 1.552924 0.241931 -0.586326
v 1.552924 0.241931 -0.586607
v 1.553209 0.241931 -0.586326
v 1.553209 0.241931 -0.586607
v 1.552924 0.226034 -0.586607
v 1.552924 0.226034 -0.586326
v 1.553209 0.226034 -0.586607
v 1.553209 0.226034 -0.586326
v 1.552924 0.241931 -0.583795
v 1.553209 0.241931 -0.583795
v 1.552924 0.241931 -0.583485
v 1.553209 0.241931 -0.583485
v 1.552924 0.226034 -0.583795
v 1.552924 0.226034 -0.583485
v 1.553209 0.226034 -0.583795
v 1.553209 0.226034 -0.583485
vn 0.000000 0.000000 -1.000000
vn 0.000000 0.000000 -1.000000
vn 0.000000 0.000000 -1.000000
vn 0.000000 0.000000 -1.000000
vn 0.000000 0.000000 -1.000000
vn 0.000000 0.000000 -1.000000
vn 0.000000 0.000000 -1.000000
vn 0.000000 0.000000 -1.000000
vn 0.000000 0.000000 -1.000000
vn 0.000000 0.000000 -1.000000
vn 0.000000 0.000000 -1.000000
vn 0.000000 0.000000 -1.000000
vn 0.000000 0.000000 -1.000000
vn 0.000000 0.000000 -1.000000
vn 0.000000 0.000000 -1.000000
vn 0.000000 0.000000 -1.000000
vn 0.000000 1.000000 0.000000
vn 0.000000 1.000000 0.000000
vn 0.000000 1.000000 0.000000
vn 0.000000 1.000000 0.000000
vn 0.000000 -1.000000 0.000000
vn 0.000000 -1.000000 0.000000
vn 0.000000 -1.000000 0.000000
vn 0.000000 -1.000000 0.000000
vn 0.000000 1.000000 0.000000
vn 0.000000 1.000000 0.000000
vn 0.000000 1.000000 0.000000
vn 0.000000 1.000000 0.000000
vn 0.000000 -1.000000 0.000000
vn 0.000000 -1.000000 0.000000
vn 0.000000 -1.000000 0.000000
vn 0.000000 -1.000000 0.000000
vn 0.000000 1.000000 0.000000
vn 0.000000 1.000000 0.000000
vn 0.000000 1.000000 0.000000
vn 0.000000 1.000000 0.000000
vn 0.000000 -1.000000 0.000000
vn 0.000000 -1.000000 0.000000
vn 0.000000 -1.000000 0.000000
vn 0.000000 -1.000000 0.000000
vn 0.000000 1.000000 0.000000
vn 0.000000 1.000000 0.000000
vn 0.000000 -1.000000 0.000000
vn 0.000000 -1.000000 0.000000
vn 0.000000 1.000000 0.000000
vn 0.000000 1.000000 0.000000
vn 0.000000 1.000000 0.000000
vn 0.000000 1.000000 0.000000
vn 0.000000 -1.000000 0.000000
vn 0.000000 -1.000000 0.000000
vn 0.000000 -1.000000 0.000000
vn 0.000000 -1.000000 0.000000
vn 0.000000 1.000000 0.000000
vn 0.000000 1.000000 0.000000
vn 0.000000 1.000000 0.000000
vn 0.000000 1.000000 0.000000
vn 0.000000 -1.000000 0.000000
vn 0.000000 -1.000000 0.000000
vn 0.000000 -1.000000 0.000000
vn 0.000000 -1.000000 0.000000
vn 0.000000 1.000000 0.000000
vn 0.000000 1.000000 0.000000
vn 0.000000 -1.000000 0.000000
vn 0.000000 -1.000000 0.000000
vn 0.000000 1.000000 0.000000
vn 0.000000 1.000000 0.000000
vn 0.000000 1.000000 0.000000
vn 0.000000 1.000000 0.000000
vn 0.000000 -1.000000 0.000000
vn 0.000000 -1.000000 0.000000
vn 0.000000 -1.000000 0.000000
vn 0.000000 -1.000000 0.000000
vn 0.000000 -1.000000 0.000000
vn 0.000000 -1.000000 0.000000
vn 0.000000 -1.000000 0.000000
vn 0.000000 -1.000000 0.000000
vn 0.000000 1.000000 0.000000
vn 0.000000 1.000000 0.000000
vn 0.000000 1.000000 0.000000
vn 0.000000 1.000000 0.000000
vn 0.000000 -1.000000 0.000000
vn 0.000000 -1.000000 0.000000
vn 0.000000 -1.000000 0.000000
vn 0.000000 -1.000000 0.000000
vn 0.000000 1.000000 0.000000
vn 0.000000 1.000000 0.000000
vn 0.000000 1.000000 0.000000
vn 0.000000 1.000000 0.000000
vn 0.000000 -1.000000 0.000000
vn 0.000000 -1.000000 0.000000
vn 0.000000 -1.000000 0.000000
vn 0.000000 -1.000000 0.000000
vn 0.000000 1.000000 0.000000
vn 0.000000 1.000000 0.000000
vn 0.000000 1.000000 0.000000
vn 0.000000 1.000000 0.000000
vn 0.000000 -1.000000 0.000000
vn 0.000000 -1.000000 0.000000
vn 0.000000 -1.000000 0.000000
vn 0.000000 -1.000000 0.000000
vn 0.000000 1.000000 0.000000
vn 0.000000 1.000000 0.000000
vn 0.000000 1.000000 0.000000
vn 0.000000 1.000000 0.000000
vn 0.000000 1.000000 0.000000
vn 0.000000 1.000000 0.000000
vn 0.000000 1.000000 0.000000
vn 0.000000 1.000000 0.000000
vn 0.000000 -1.000000 0.000000
vn 0.000000 -1.000000 0.000000
vn 0.000000 -1.000000 0.000000
vn 0.000000 -1.000000 0.000000
vn 0.000000 1.000000 0.000000
vn 0.000000 1.000000 0.000000
vn 0.000000 1.000000 0.000000
vn 0.000000 1.000000 0.000000
vn 0.000000 -1.000000 0.000000
vn 0.000000 -1.000000 0.000000
vn 0.000000 -1.000000 0.000000
vn 0.000000 -1.000000 0.000000
vn 0.000000 1.000000 0.000000
vn 0.000000 1.000000 0.000000
vn 0.000000 1.000000 0.000000
vn 0.000000 1.000000 0.000000
vn 0.000000 1.000000 0.000000
vn 0.000000 1.000000 0.000000
vn 0.000000 -1.000000 0.000000
vn 0.000000 -1.000000 0.000000
vn 0.000000 -1.000000 0.000000
vn 0.000000 -1.000000 0.000000
vn 0.000000 -1.000000 0.000000
vn 0.000000 -1.000000 0.000000
vn 0.000000 -1.000000 0.000000
vn 0.000000 -1.000000 0.000000
vn 0.000000 -1.000000 0.000000
vn 0.000000 -1.000000 0.000000
vn 0.000000 1.000000 0.000000
vn 0.000000 1.000000 0.000000
vn 0.000000 1.000000 0.000000
vn 0.000000 1.000000 0.000000
vn 0.000000 -1.000000 0.000000
vn 0.000000 -1.000000 0.000000
vn 0.000000 -1.000000 0.000000
vn 0.000000 -1.000000 0.000000
vn 0.000000 1.000000 0.000000
vn 0.000000 1.000000 0.000000
vn 0.000000 1.000000 0.000000
vn 0.000000 1.000000 0.000000
vn 0.000000 1.000000 0.000000
vn 0.000000 1.000000 0.000000
vn 0.000000 -1.000000 0.000000
vn 0.000000 -1.000000 0.000000
vn 0.000000 1.000000 0.000000
vn 0.000000 1.000000 0.000000
vn 0.000000 -1.000000 0.000000
vn 0.000000 -1.000000 0.000000
vn 0.000000 1.000000 0.000000
vn 0.000000 1.000000 0.000000
vn 0.000000 1.000000 0.000000
vn 0.000000 1.000000 0.000000
vn 0.000000 1.000000 0.000000
vn 0.000000 1.000000 0.000000
vn 0.000000 -1.000000 0.000000
vn 0.000000 -1.000000 0.000000
vn 0.000000 -1.000000 0.000000
vn 0.000000 -1.000000 0.000000
vn 0.000000 -1.000000 0.000000
vn 0.000000 -1.000000 0.000000
vn 0.000000 -1.000000 0.000000
vn 0.000000 -1.000000 0.000000
vn 0.000000 -1.000000 0.000000
vn 0.000000 -1.000000 0.000000
vn 0.000000 1.000000 0.000000
vn 0.000000 1.000000 0.000000
vn 0.000000 1.000000 0.000000
vn 0.000000 1.000000 0.000000
vn 0.000000 -1.000000 0.000000
vn 0.000000 -1.000000 0.000000
vn 0.000000 -1.000000 0.000000
vn 0.000000 -1.000000 0.000000
vn 0.000000 1.000000 0.000000
vn 0.000000 1.000000 0.000000
vn 0.000000 1.000000 0.000000
vn 0.000000 1.000000 0.000000
vn 0.000000 0.000000 -1.000000
vn 0.000000 0.000000 -1.000000
vn 0.000000 0.000000 -1.000000
vn 0.000000 0.000000 -1.000000
vn 0.000000 0.000000 -1.000000
vn 0.000000 0.000000 -1.000000
vn 0.000000 0.000000 -1.000000
vn 0.000000 0.000000 -1.000000
vn 0.000000 0.000000 -1.000000
vn 0.000000 0.000000 -1.000000
vn 0.000000 0.000000 -1.000000
vn 0.000000 0.000000 -1.000000
vn 0.000000 0.000000 -1.000000
vn 0.000000 0.000000 -1.000000
vn 0.000000 0.000000 -1.000000
vn 0.000000 0.000000 -1.000000
vn 0.000000 0.000000 -1.000000
vn 0.000000 0.000000 -1.000000
vn 0.000000 0.000000 -1.000000
vn 0.000000 0.000000 -1.000000
vn 0.000000 0.000000 1.000000
vn 0.000000 0.000000 1.000000
vn 0.000000 0.000000 1.000000
vn 0.000000 0.000000 1.000000
vn 0.000000 0.000000 1.000000
vn 0.000000 0.000000 1.000000
vn 0.000000 0.000000 1.000000
vn 0.000000 0.000000 1.000000
vn 0.000000 0.000000 -1.000000
vn 0.000000 0.000000 -1.000000
vn 0.000000 0.000000 -1.000000
vn 0.000000 0.000000 -1.000000
vn 0.000000 0.000000 1.000000
vn 0.000000 0.000000 1.000000
vn 0.000000 0.000000 1.000000
vn 0.000000 0.000000 1.000000
vn 0.000000 0.000000 -1.000000
vn 0.000000 0.000000 -1.000000
vn 0.000000 0.000000 -1.000000
vn 0.000000 0.000000 -1.000000
vn -1.000000 0.000000 0.000000
vn -1.000000 0.000000 0.000000
vn -1.000000 0.000000 0.000000
vn -1.000000 0.000000 0.000000
vn 1.000000 0.000000 0.000000
vn 1.000000 0.000000 0.000000
vn 1.000000 0.000000 0.000000
vn 1.000000 0.000000 0.000000
vn -1.000000 0.000000 0.000000
vn -1.000000 0.000000 0.000000
vn -1.000000 0.000000 0.000000
vn -1.000000 0.000000 0.000000
vn 1.000000 0.000000 0.000000
vn 1.000000 0.000000 0.000000
vn 1.000000 0.000000 0.000000
vn 1.000000 0.000000 0.000000
vn -1.000000 0.000000 0.000000
vn -1.000000 0.000000 0.000000
vn -1.000000 0.000000 0.000000
vn -1.000000 0.000000 0.000000
vn 1.000000 0.000000 0.000000
vn 1.000000 0.000000 0.000000
vn 1.000000 0.000000 0.000000
vn 1.000000 0.000000 0.000000
vn -1.000000 0.000000 0.000000
vn -1.000000 0.000000 0.000000
vn -1.000000 0.000000 0.000000
vn -1.000000 0.000000 0.000000
vn 1.000000 0.000000 0.000000
vn 1.000000 0.000000 0.000000
vn 1.000000 0.000000 0.000000
vn 1.000000 0.000000 0.000000
vn 1.000000 0.000000 0.000000
vn 1.000000 0.000000 0.000000
vn 1.000000 0.000000 0.000000
vn 1.000000 0.000000 0.000000
vn -1.000000 0.000000 0.000000
vn -1.000000 0.000000 0.000000
vn -1.000000 0.000000 0.000000
vn -1.000000 0.000000 0.000000
vn 1.000000 0.000000 0.000000
vn 1.000000 0.000000 0.000000
vn 1.000000 0.000000 0.000000
vn 1.000000 0.000000 0.000000
vn -1.000000 0.000000 0.000000
vn -1.000000 0.000000 0.000000
vn -1.000000 0.000000 0.000000
vn -1.000000 0.000000 0.000000
vn 0.000000 0.000000 1.000000
vn 0.000000 0.000000 1.000000
vn 0.000000 0.000000 1.000000
vn 0.000000 0.000000 1.000000
vn 0.000000 0.000000 1.000000
vn 0.000000 0.000000 1.000000
vn 0.000000 0.000000 -1.000000
vn 0.000000 0.000000 -1.000000
vn 0.000000 0.000000 -1.000000
vn 0.000000 0.000000 -1.000000
vn 0.000000 0.000000 1.000000
vn 0.000000 0.000000 1.000000
vn 0.000000 0.000000 1.000000
vn 0.000000 0.000000 1.000000
vn 0.000000 0.000000 -1.000000
vn 0.000000 0.000000 -1.000000
vn 0.000000 0.000000 -1.000000
vn 0.000000 0.000000 -1.000000
vn 0.000000 0.000000 1.000000
vn 0.000000 0.000000 1.000000
vn 0.000000 0.000000 1.000000
vn 0.000000 0.000000 1.000000
vn 0.000000 0.000000 -1.000000
vn 0.000000 0.000000 -1.000000
vn 1.000000 0.000000 0.000000
vn 1.000000 0.000000 0.000000
vn 1.000000 0.000000 0.000000
vn 1.000000 0.000000 0.000000
vn -1.000000 0.000000 0.000000
vn -1.000000 0.000000 0.000000
vn -1.000000 0.000000 0.000000
vn -1.000000 0.000000 0.000000
vn 1.000000 0.000000 0.000000
vn 1.000000 0.000000 0.000000
vn 1.000000 0.000000 0.000000
vn 1.000000 0.000000 0.000000
vn -1.000000 0.000000 0.000000
vn -1.000000 0.000000 0.000000
vn -1.000000 0.000000 0.000000
vn -1.000000 0.000000 0.000000
vn 0.000000 0.000000 -1.000000
vn 0.000000 0.000000 -1.000000
vn 0.000000 0.000000 -1.000000
vn 0.000000 0.000000 -1.000000
vn 0.000000 0.000000 -1.000000
vn 0.000000 0.000000 -1.000000
vn 0.000000 0.000000 -1.000000
vn 0.000000 0.000000 -1.000000
vn 0.000000 0.000000 -1.000000
vn 0.000000 0.000000 -1.000000
vn 0.000000 0.000000 -1.000000
vn 0.000000 0.000000 -1.000000
vn 0.000000 0.000000 -1.000000
vn 0.000000 0.000000 -1.000000
vn 0.000000 0.000000 -1.000000
vn 0.000000 0.000000 -1.000000
vn 0.000000 0.000000 -1.000000
vn 0.000000 0.000000 -1.000000
vn 0.000000 0.000000 -1.000000
vn 0.000000 0.000000 -1.000000
vn 0.000000 0.000000 1.000000
vn 0.000000 0.000000 1.000000
vn 0.000000 0.000000 1.000000
vn 0.000000 0.000000 1.000000
vn 0.000000 0.000000 1.000000
vn 0.000000 0.000000 1.000000
vn 0.000000 0.000000 1.000000
vn 0.000000 0.000000 1.000000
vn 0.000000 0.000000 -1.000000
vn 0.000000 0.000000 -1.000000
vn 0.000000 0.000000 -1.000000
vn 0.000000 0.000000 -1.000000
vn 0.000000 0.000000 1.000000
vn 0.000000 0.000000 1.000000
vn 0.000000 0.000000 1.000000
vn 0.000000 0.000000 1.000000
vn 0.000000 0.000000 -1.000000
vn 0.000000 0.000000 -1.000000
vn 0.000000 0.000000 -1.000000
vn 0.000000 0.000000 -1.000000
vn -1.000000 0.000000 0.000000
vn -1.000000 0.000000 0.000000
vn -1.000000 0.000000 0.000000
vn -1.000000 0.000000 0.000000
vn 1.000000 0.000000 0.000000
vn 1.000000 0.000000 0.000000
vn 1.000000 0.000000 0.000000
vn 1.000000 0.000000 0.000000
vn -1.000000 0.000000 0.000000
vn -1.000000 0.000000 0.000000
vn -1.000000 0.000000 0.000000
vn -1.000000 0.000000 0.000000
vn 1.000000 0.000000 0.000000
vn 1.000000 0.000000 0.000000
vn 1.000000 0.000000 0.000000
vn 1.000000 0.000000 0.000000
vn -1.000000 0.000000 0.000000
vn -1.000000 0.000000 0.000000
vn -1.000000 0.000000 0.000000
vn -1.000000 0.000000 0.000000
vn 1.000000 0.000000 0.000000
vn 1.000000 0.000000 0.000000
vn 1.000000 0.000000 0.000000
vn 1.000000 0.000000 0.000000
vn -1.000000 0.000000 0.000000
vn -1.000000 0.000000 0.000000
vn -1.000000 0.000000 0.000000
vn -1.000000 0.000000 0.000000
vn 1.000000 0.000000 0.000000
vn 1.000000 0.000000 0.000000
vn 1.000000 0.000000 0.000000
vn 1.000000 0.000000 0.000000
vn 1.000000 0.000000 0.000000
vn 1.000000 0.000000 0.000000
vn 1.000000 0.000000 0.000000
vn 1.000000 0.000000 0.000000
vn -1.000000 0.000000 0.000000
vn -1.000000 0.000000 0.000000
vn -1.000000 0.000000 0.000000
vn -1.000000 0.000000 0.000000
vn 1.000000 0.000000 0.000000
vn 1.000000 0.000000 0.000000
vn 1.000000 0.000000 0.000000
vn 1.000000 0.000000 0.000000
vn -1.000000 0.000000 0.000000
vn -1.000000 0.000000 0.000000
vn -1.000000 0.000000 0.000000
vn -1.000000 0.000000 0.000000
vn 0.000000 0.000000 1.000000
vn 0.000000 0.000000 1.000000
vn 0.000000 0.000000 1.000000
vn 0.000000 0.000000 1.000000
vn 0.000000 0.000000 1.000000
vn 0.000000 0.000000 1.000000
vn 0.000000 0.000000 -1.000000
vn 0.000000 0.000000 -1.000000
vn 0.000000 0.000000 -1.000000
vn 0.000000 0.000000 -1.000000
vn 0.000000 0.000000 1.000000
vn 0.000000 0.000000 1.000000
vn 0.000000 0.000000 1.000000
vn 0.000000 0.000000 1.000000
vn 0.000000 0.000000 -1.000000
vn 0.000000 0.000000 -1.000000
vn 0.000000 0.000000 -1.000000
vn 0.000000 0.000000 -1.000000
vn 0.000000 0.000000 1.000000
vn 0.000000 0.000000 1.000000
vn 0.000000 0.000000 1.000000
vn 0.000000 0.000000 1.000000
vn 0.000000 0.000000 -1.000000
vn 0.000000 0.000000 -1.000000
vn 1.000000 0.000000 0.000000
vn 1.000000 0.000000 0.000000
vn 1.000000 0.000000 0.000000
vn 1.000000 0.000000 0.000000
vn -1.000000 0.000000 0.000000
vn -1.000000 0.000000 0.000000
vn -1.000000 0.000000 0.000000
vn -1.000000 0.000000 0.000000
vn 1.000000 0.000000 0.000000
vn 1.000000 0.000000 0.000000
vn 1.000000 0.000000 0.000000
vn 1.000000 0.000000 0.000000
vn -1.000000 0.000000 0.000000
vn -1.000000 0.000000 0.000000
vn -1.000000 0.000000 0.000000
vn -1.000000 0.000000 0.000000
vn 0.000000 1.000000 0.000000
vn 0.000000 1.000000 0.000000
vn 0.000000 1.000000 0.000000
vn 0.000000 1.000000 0.000000
vn 0.000000 -1.000000 0.000000
vn 0.000000 -1.000000 0.000000
vn 0.000000 -1.000000 0.000000
vn 0.000000 -1.000000 0.000000
vn 0.000000 1.000000 0.000000
vn 0.000000 1.000000 0.000000
vn 0.000000 1.000000 0.000000
vn 0.000000 1.000000 0.000000
vn 0.000000 -1.000000 0.000000
vn 0.000000 -1.000000 0.000000
vn 0.000000 -1.000000 0.000000
vn 0.000000 -1.000000 0.000000
vn 0.000000 1.000000 0.000000
vn 0.000000 1.000000 0.000000
vn 0.000000 1.000000 0.000000
vn 0.000000 1.000000 0.000000
vn 0.000000 -1.000000 0.000000
vn 0.000000 -1.000000 0.000000
vn 0.000000 -1.000000 0.000000
vn 0.000000 -1.000000 0.000000
vn 0.000000 1.000000 0.000000
vn 0.000000 1.000000 0.000000
vn 0.000000 1.000000 0.000000
vn 0.000000 1.000000 0.000000
vn 0.000000 -1.000000 0.000000
vn 0.000000 -1.000000 0.000000
vn 0.000000 -1.000000 0.000000
vn 0.000000 -1.000000 0.000000
vn 0.000000 0.000000 -1.000000
vn 0.000000 0.000000 -1.000000
vn 0.000000 0.000000 -1.000000
vn 0.000000 0.000000 -1.000000
vn 0.000000 0.000000 1.000000
vn 0.000000 0.000000 1.000000
vn 0.000000 0.000000 1.000000
vn 0.000000 0.000000 1.000000
vn 0.000000 0.000000 -1.000000
vn 0.000000 0.000000 -1.000000
vn 0.000000 0.000000 -1.000000
vn 0.000000 0.000000 -1.000000
vn 0.000000 0.000000 1.000000
vn 0.000000 0.000000 1.000000
vn 0.000000 0.000000 1.000000
vn 0.000000 0.000000 1.000000
vn 0.000000 0.000000 -1.000000
vn 0.000000 0.000000 -1.000000
vn 0.000000 0.000000 -1.000000
vn 0.000000 0.000000 -1.000000
vn 0.000000 0.000000 -1.000000
vn 0.000000 0.000000 -1.000000
vn 0.000000 0.000000 -1.000000
vn 0.000000 0.000000 -1.000000
vn 0.000000 1.000000 0.000000
vn 0.000000 1.000000 0.000000
vn 0.000000 -1.000000 0.000000
vn 0.000000 -1.000000 0.000000
vn 0.000000 1.000000 0.000000
vn 0.000000 1.000000 0.000000
vn 0.000000 -1.000000 0.000000
vn 0.000000 -1.000000 0.000000
vn 0.000000 0.000000 1.000000
vn 0.000000 0.000000 1.000000
vn 0.000000 0.000000 1.000000
vn 0.000000 0.000000 1.000000
vn 0.000000 0.000000 -1.000000
vn 0.000000 0.000000 -1.000000
vn 0.000000 0.000000 -1.000000
vn 0.000000 0.000000 -1.000000
vn 0.000000 0.000000 1.000000
vn 0.000000 0.000000 1.000000
vn 0.000000 0.000000 1.000000
vn 0.000000 0.000000 1.000000
vn 0.000000 0.000000 -1.000000
vn 0.000000 0.000000 -1.000000
vn 0.000000 0.000000 -1.000000
vn 0.000000 0.000000 -1.000000
vn 0.000000 0.000000 -1.000000
vn 0.000000 0.000000 -1.000000
vn 0.000000 0.000000 -1.000000
vn 0.000000 0.000000 -1.000000
vn 0.000000 0.000000 -1.000000
vn 0.000000 0.000000 -1.000000
vn 0.000000 0.000000 -1.000000
vn 0.000000 0.000000 -1.000000
vn 0.000000 1.000000 0.000000
vn 0.000000 1.000000 0.000000
vn 0.000000 1.000000 0.000000
vn 0.000000 1.000000 0.000000
vn 0.000000 -1.000000 0.000000
vn 0.000000 -1.000000 0.000000
vn 0.000000 -1.000000 0.000000
vn 0.000000 -1.000000 0.000000
vn 0.000000 1.000000 0.000000
vn 0.000000 1.000000 0.000000
vn 0.000000 1.000000 0.000000
vn 0.000000 1.000000 0.000000
vn 0.000000 -1.000000 0.000000
vn 0.000000 -1.000000 0.000000
vn 0.000000 -1.000000 0.000000
vn 0.000000 -1.000000 0.000000
vn 0.000000 0.000000 1.000000
vn 0.000000 0.000000 1.000000
vn 0.000000 0.000000 1.000000
vn 0.000000 0.000000 1.000000
vn 0.000000 0.000000 -1.000000
vn 0.000000 0.000000 -1.000000
vn 0.000000 0.000000 -1.000000
vn 0.000000 0.000000 -1.000000
vn 0.000000 0.000000 1.000000
vn 0.000000 0.000000 1.000000
vn 0.000000 0.000000 1.000000
vn 0.000000 0.000000 1.000000
vn 0.000000 0.000000 -1.000000
vn 0.000000 0.000000 -1.000000
vn 0.000000 0.000000 -1.000000
vn 0.000000 0.000000 -1.000000
vn 1.000000 0.000000 0.000000
vn 1.000000 0.000000 0.000000
vn 1.000000 0.000000 0.000000
vn 1.000000 0.000000 0.000000
vn -1.000000 0.000000 0.000000
vn -1.000000 0.000000 0.000000
vn -1.000000 0.000000 0.000000
vn -1.000000 0.000000 0.000000
vn 1.000000 0.000000 0.000000
vn 1.000000 0.000000 0.000000
vn 1.000000 0.000000 0.000000
vn 1.000000 0.000000 0.000000
vn -1.000000 0.000000 0.000000
vn -1.000000 0.000000 0.000000
vn -1.000000 0.000000 0.000000
vn -1.000000 0.000000 0.000000
vn 0.000000 1.000000 0.000000
vn 0.000000 1.000000 0.000000
vn 0.000000 1.000000 0.000000
vn 0.000000 1.000000 0.000000
vn 0.000000 -1.000000 0.000000
vn 0.000000 -1.000000 0.000000
vn 0.000000 -1.000000 0.000000
vn 0.000000 -1.000000 0.000000
vn 0.000000 1.000000 0.000000
vn 0.000000 1.000000 0.000000
vn 0.000000 1.000000 0.000000
vn 0.000000 1.000000 0.000000
vn 0.000000 -1.000000 0.000000
vn 0.000000 -1.000000 0.000000
vn 0.000000 -1.000000 0.000000
vn 0.000000 -1.000000 0.000000
vn 1.000000 0.000000 0.000000
vn 1.000000 0.000000 0.000000
vn 1.000000 0.000000 0.000000
vn 1.000000 0.000000 0.000000
vn -1.000000 0.000000 0.000000
vn -1.000000 0.000000 0.000000
vn -1.000000 0.000000 0.000000
vn -1.000000 0.000000 0.000000
vn 1.000000 0.000000 0.000000
vn 1.000000 0.000000 0.000000
vn 1.000000 0.000000 0.000000
vn 1.000000 0.000000 0.000000
vn -1.000000 0.000000 0.000000
vn -1.000000 0.000000 0.000000
vn -1.000000 0.000000 0.000000
vn -1.000000 0.000000 0.000000
vn 0.000000 1.000000 0.000000
vn 0.000000 1.000000 0.000000
vn 0.000000 1.000000 0.000000
vn 0.000000 1.000000 0.000000
vn 0.000000 -1.000000 0.000000
vn 0.000000 -1.000000 0.000000
vn 0.000000 -1.000000 0.000000
vn 0.000000 -1.000000 0.000000
vn 0.000000 1.000000 0.000000
vn 0.000000 1.000000 0.000000
vn 0.000000 1.000000 0.000000
vn 0.000000 1.000000 0.000000
vn 0.000000 -1.000000 0.000000
vn 0.000000 -1.000000 0.000000
vn 0.000000 -1.000000 0.000000
vn 0.000000 -1.000000 0.000000
vn 0.000000 0.000000 -1.000000
vn 0.000000 0.000000 -1.000000
vn 0.000000 0.000000 1.000000
vn 0.000000 0.000000 1.000000
vn 0.000000 0.000000 1.000000
vn 0.000000 0.000000 1.000000
vn 0.000000 0.000000 -1.000000
vn 0.000000 0.000000 -1.000000
vn 0.000000 0.000000 1.000000
vn 0.000000 0.000000 1.000000
vn 0.000000 0.000000 1.000000
vn 0.000000 0.000000 1.000000
vn 0.000000 0.000000 -1.000000
vn 0.000000 0.000000 -1.000000
vn 0.000000 0.000000 -1.000000
vn 0.000000 0.000000 -1.000000
vn 0.000000 0.000000 1.000000
vn 0.000000 0.000000 1.000000
vn 0.000000 0.000000 1.000000
vn 0.000000 0.000000 1.000000
vn 0.000000 0.000000 -1.000000
vn 0.000000 0.000000 -1.000000
vn 0.000000 0.000000 -1.000000
vn 0.000000 0.000000 -1.000000
vn 0.000000 0.000000 1.000000
vn 0.000000 0.000000 1.000000
vn 0.000000 0.000000 1.000000
vn 0.000000 0.000000 1.000000
vn 1.000000 0.000000 0.000000
vn 1.000000 0.000000 0.000000
vn 1.000000 0.000000 0.000000
vn 1.000000 0.000000 0.000000
vn -1.000000 0.000000 0.000000
vn -1.000000 0.000000 0.000000
vn -1.000000 0.000000 0.000000
vn -1.000000 0.000000 0.000000
vn 1.000000 0.000000 0.000000
vn 1.000000 0.000000 0.000000
vn 1.000000 0.000000 0.000000
vn 1.000000 0.000000 0.000000
vn -1.000000 0.000000 0.000000
vn -1.000000 0.000000 0.000000
vn -1.000000 0.000000 0.000000
vn -1.000000 0.000000 0.000000
vn 0.000000 -1.000000 0.000000
vn 0.000000 -1.000000 0.000000
vn 0.000000 -1.000000 0.000000
vn 0.000000 -1.000000 0.000000
vn 0.000000 1.000000 0.000000
vn 0.000000 1.000000 0.000000
vn 0.000000 1.000000 0.000000
vn 0.000000 1.000000 0.000000
vn 0.000000 -1.000000 0.000000
vn 0.000000 -1.000000 0.000000
vn 0.000000 -1.000000 0.000000
vn 0.000000 -1.000000 0.000000
vn 0.000000 1.000000 0.000000
vn 0.000000 1.000000 0.000000
vn 0.000000 1.000000 0.000000
vn 0.000000 1.000000 0.000000
vn 0.000000 -1.000000 0.000000
vn 0.000000 -1.000000 0.000000
vn 0.000000 -1.000000 0.000000
vn 0.000000 -1.000000 0.000000
vn 0.000000 1.000000 0.000000
vn 0.000000 1.000000 0.000000
vn 0.000000 1.000000 0.000000
vn 0.000000 1.000000 0.000000
vn 0.000000 -1.000000 0.000000
vn 0.000000 -1.000000 0.000000
vn 0.000000 -1.000000 0.000000
vn 0.000000 -1.000000 0.000000
vn 0.000000 1.000000 0.000000
vn 0.000000 1.000000 0.000000
vn 0.000000 1.000000 0.000000
vn 0.000000 1.000000 0.000000
vn 1.000000 0.000000 0.000000
vn 1.000000 0.000000 0.000000
vn 1.000000 0.000000 0.000000
vn 1.000000 0.000000 0.000000
vn -1.000000 0.000000 0.000000
vn -1.000000 0.000000 0.000000
vn -1.000000 0.000000 0.000000
vn -1.000000 0.000000 0.000000
vn 1.000000 0.000000 0.000000
vn 1.000000 0.000000 0.000000
vn 1.000000 0.000000 0.000000
vn 1.000000 0.000000 0.000000
vn -1.000000 0.000000 0.000000
vn -1.000000 0.000000 0.000000
vn -1.000000 0.000000 0.000000
vn -1.000000 0.000000 0.000000
vn 0.000000 -1.000000 0.000000
vn 0.000000 -1.000000 0.000000
vn 0.000000 1.000000 0.000000
vn 0.000000 1.000000 0.000000
vn 0.000000 -1.000000 0.000000
vn 0.000000 -1.000000 0.000000
vn 0.000000 1.000000 0.000000
vn 0.000000 1.000000 0.000000
vn 0.000000 -1.000000 0.000000
vn 0.000000 -1.000000 0.000000
vn 0.000000 -1.000000 0.000000
vn 0.000000 -1.000000 0.000000
vn 0.000000 1.000000 0.000000
vn 0.000000 1.000000 0.000000
vn 0.000000 1.000000 0.000000
vn 0.000000 1.000000 0.000000
vn 0.000000 -1.000000 0.000000
vn 0.000000 -1.000000 0.000000
vn 0.000000 -1.000000 0.000000
vn 0.000000 -1.000000 0.000000
vn 0.000000 1.000000 0.000000
vn 0.000000 1.000000 0.000000
vn 0.000000 1.000000 0.000000
vn 0.000000 1.000000 0.000000
vn 0.000000 0.000000 -1.000000
vn 0.000000 0.000000 -1.000000
vn 0.000000 0.000000 1.000000
vn 0.000000 0.000000 1.000000
vn 0.000000 0.000000 1.000000
vn 0.000000 0.000000 1.000000
vn 0.000000 0.000000 -1.000000
vn 0.000000 0.000000 -1.000000
vn 0.000000 0.000000 1.000000
vn 0.000000 0.000000 1.000000
vn 0.000000 0.000000 1.000000
vn 0.000000 0.000000 1.000000
vn 0.000000 1.000000 0.000000
vn 0.000000 1.000000 0.000000
vn 0.000000 1.000000 0.000000
vn 0.000000 1.000000 0.000000
vn 0.000000 -1.000000 0.000000
vn 0.000000 -1.000000 0.000000
vn 0.000000 -1.000000 0.000000
vn 0.000000 -1.000000 0.000000
vn 0.000000 1.000000 0.000000
vn 0.000000 1.000000 0.000000
vn 0.000000 1.000000 0.000000
vn 0.000000 1.000000 0.000000
vn 0.000000 -1.000000 0.000000
vn 0.000000 -1.000000 0.000000
vn 0.000000 -1.000000 0.000000
vn 0.000000 -1.000000 0.000000
vn 0.000000 0.000000 -1.000000
vn 0.000000 0.000000 -1.000000
vn 0.000000 0.000000 -1.000000
vn 0.000000 0.000000 -1.000000
vn 0.000000 0.000000 1.000000
vn 0.000000 0.000000 1.000000
vn 0.000000 0.000000 1.000000
vn 0.000000 0.000000 1.000000
vn 0.000000 0.000000 -1.000000
vn 0.000000 0.000000 -1.000000
vn 0.000000 0.000000 -1.000000
vn 0.000000 0.000000 -1.000000
vn 0.000000 0.000000 1.000000
vn 0.000000 0.000000 1.000000
vn 0.000000 0.000000 1.000000
vn 0.000000 0.000000 1.000000
vn 0.000000 1.000000 0.000000
vn 0.000000 1.000000 0.000000
vn 0.000000 1.000000 0.000000
vn 0.000000 1.000000 0.000000
vn 0.000000 -1.000000 0.000000
vn 0.000000 -1.000000 0.000000
vn 0.000000 -1.000000 0.000000
vn 0.000000 -1.000000 0.000000
vn 0.000000 1.000000 0.000000
vn 0.000000 1.000000 0.000000
vn 0.000000 1.000000 0.000000
vn 0.000000 1.000000 0.000000
vn 0.000000 -1.000000 0.000000
vn 0.000000 -1.000000 0.000000
vn 0.000000 -1.000000 0.000000
vn 0.000000 -1.000000 0.000000
vt -2.329100 0.576700
vt -2.329000 0.580400
vt -2.331400 0.575200
vt -2.331700 0.571500
vt -1.399400 0.579600
vt -1.401100 0.579200
vt -1.396100 0.572600
vt -1.394600 0.573300
vt -2.328100 0.583100
vt -2.331700 0.588800
vt -2.326500 0.583500
vt -2.330400 0.589600
vt -1.400700 0.587300
vt -1.401100 0.585500
vt -1.399400 0.588100
vt -1.398800 0.589900
vt -1.377000 0.632400
vt -1.382100 0.632300
vt -1.382100 0.629400
vt -1.376700 0.629500
vt -2.320300 0.632300
vt -2.314900 0.632500
vt -2.315400 0.635300
vt -2.320500 0.635300
vt -1.389500 0.632100
vt -1.389000 0.629300
vt -1.394600 0.632000
vt -1.394400 0.629100
vt -2.308000 0.632700
vt -2.308000 0.635500
vt -2.302600 0.632700
vt -2.302900 0.635600
vt -0.099500 -0.338400
vt -0.096200 -0.338100
vt -0.096500 -0.336800
vt -0.099800 -0.336900
vt -1.377700 0.730200
vt -1.381000 0.730200
vt -1.381100 0.728900
vt -1.378000 0.728800
vt -0.096600 -0.335700
vt -0.100100 -0.335800
vt -1.377600 0.731300
vt -1.381200 0.731300
vt -0.104200 -0.319000
vt -0.100700 -0.318800
vt -0.101100 -0.317600
vt -0.104200 -0.317600
vt -1.376700 0.748300
vt -1.380000 0.748400
vt -1.376800 0.749700
vt -1.379900 0.749600
vt -0.078900 -0.336700
vt -0.079100 -0.335400
vt -0.076000 -0.336600
vt -0.076300 -0.335200
vt -1.398500 0.730000
vt -1.398700 0.728700
vt -1.401400 0.730100
vt -1.401600 0.728700
vt -0.079700 -0.334400
vt -0.076500 -0.334100
vt -1.398200 0.731100
vt -1.401400 0.731200
vt -0.083900 -0.317400
vt -0.084200 -0.316200
vt -0.080900 -0.317300
vt -0.081400 -0.315900
vt -1.397100 0.747900
vt -1.400300 0.747900
vt -1.397100 0.749100
vt -1.399900 0.749300
vt -1.394600 0.593500
vt -1.394600 0.594200
vt -1.395000 0.594200
vt -1.395000 0.593500
vt -2.315000 0.592000
vt -2.315100 0.592700
vt -2.315500 0.592700
vt -2.315400 0.592000
vt -1.407000 0.593600
vt -1.406900 0.594300
vt -1.407500 0.594300
vt -1.407500 0.593600
vt -2.303200 0.592200
vt -2.303300 0.593000
vt -2.302600 0.592200
vt -2.302700 0.593000
vt -1.394800 0.610300
vt -1.395200 0.610300
vt -1.394800 0.611000
vt -1.395200 0.611000
vt -2.317000 0.608800
vt -2.317400 0.608800
vt -2.317100 0.609500
vt -2.317400 0.609500
vt -1.406900 0.610400
vt -1.407500 0.610400
vt -1.406900 0.611100
vt -1.407400 0.611100
vt -2.305200 0.609000
vt -2.305300 0.609700
vt -2.304600 0.609000
vt -2.304700 0.609700
vt -2.314900 0.588600
vt -2.314800 0.589400
vt -2.315300 0.589400
vt -2.315300 0.588600
vt -1.394700 0.590200
vt -1.394700 0.590900
vt -1.395200 0.590900
vt -1.395100 0.590200
vt -2.303200 0.588600
vt -2.303200 0.589300
vt -2.302500 0.588600
vt -2.302500 0.589300
vt -1.406700 0.589900
vt -1.406800 0.590600
vt -1.407400 0.590600
vt -1.407300 0.589900
vt 0.279200 1.824700
vt 0.279300 1.823900
vt 0.303000 1.823700
vt 0.303200 1.825100
vt 0.277400 1.824700
vt 0.277400 1.824000
vt 0.244300 1.824000
vt 0.244500 1.824700
vt 0.220900 1.825100
vt 0.220800 1.823700
vt 0.246200 1.823900
vt 0.246300 1.824600
vt 0.479600 1.830100
vt 0.479500 1.830700
vt 0.478200 1.830700
vt 0.478200 1.830200
vt 0.510400 1.830800
vt 0.510400 1.830200
vt 0.511700 1.830200
vt 0.511700 1.830700
vt 0.475100 1.830200
vt 0.475100 1.830700
vt 0.473600 1.830700
vt 0.473600 1.830200
vt 0.514900 1.830700
vt 0.514900 1.830200
vt 0.516300 1.830100
vt 0.516400 1.830600
vt -2.314900 0.591200
vt -2.315300 0.591200
vt -1.394600 0.592700
vt -1.395100 0.592700
vt -2.303100 0.591500
vt -2.302500 0.591500
vt -1.406900 0.592800
vt -1.407500 0.592800
vt 0.279500 1.828300
vt 0.279200 1.827400
vt 0.303100 1.827000
vt 0.303300 1.828400
vt 0.277600 1.828400
vt 0.277500 1.827500
vt 0.244600 1.827400
vt 0.220900 1.827000
vt 0.244500 1.828300
vt 0.221000 1.828400
vt 0.246400 1.827400
vt 0.246400 1.828300
vt 0.479400 1.826700
vt 0.479400 1.827400
vt 0.478000 1.827400
vt 0.478000 1.826700
vt 0.510100 1.827400
vt 0.511500 1.827400
vt 0.510100 1.826700
vt 0.511500 1.826700
vt 0.474800 1.826800
vt 0.474900 1.827400
vt 0.473400 1.827400
vt 0.473400 1.826800
vt 0.514700 1.827300
vt 0.516200 1.827300
vt 0.514600 1.826700
vt 0.516100 1.826700
vt 0.433500 1.818700
vt 0.435800 1.818700
vt 0.432800 1.826600
vt 0.430500 1.826500
vt 0.620900 1.826500
vt 0.618500 1.826500
vt 0.615600 1.818700
vt 0.617900 1.818700
vt 0.386400 1.826600
vt 0.384000 1.826500
vt 0.387000 1.818700
vt 0.389400 1.818700
vt 0.569200 1.818700
vt 0.571500 1.818700
vt 0.574400 1.826500
vt 0.572100 1.826500
vt -0.057500 -0.322000
vt -0.051200 -0.321700
vt -0.051800 -0.318900
vt -0.057300 -0.318800
vt 1.279500 -0.254000
vt 1.275000 -0.254000
vt 1.274600 -0.256600
vt 1.279800 -0.256600
vt 1.280000 -0.245000
vt 1.275000 -0.244900
vt 1.274800 -0.246900
vt 1.279700 -0.246900
vt 1.629000 1.786000
vt 1.629200 1.784900
vt 1.629800 1.784900
vt 1.629700 1.786000
vt 1.279600 -0.227800
vt 1.274800 -0.227700
vt 1.279800 -0.225400
vt 1.275100 -0.225300
vt 1.614400 1.785400
vt 1.614300 1.784400
vt 1.613500 1.785400
vt 1.613500 1.784300
vt 1.275200 -0.249100
vt 1.279500 -0.249000
vt 1.279700 -0.246900
vt 1.274800 -0.246900
vt 1.286200 -0.322900
vt 1.281500 -0.322900
vt 1.281300 -0.325100
vt 1.286400 -0.325100
vt 1.275100 -0.251900
vt 1.279300 -0.251900
vt 1.275000 -0.254000
vt 1.279500 -0.254000
vt 1.286300 -0.319800
vt 1.281600 -0.319900
vt 1.286400 -0.317400
vt 1.281000 -0.317500
vt 0.342600 1.820300
vt 0.340400 1.820300
vt 0.340300 1.818900
vt 0.342900 1.819000
vt 0.789000 1.826600
vt 0.791300 1.826600
vt 0.791400 1.827900
vt 0.788900 1.828000
vt 0.341200 1.826900
vt 0.338900 1.826800
vt 0.341200 1.828100
vt 0.338700 1.828100
vt 0.788200 1.820000
vt 0.790500 1.820000
vt 0.788100 1.818700
vt 0.790800 1.818800
vt 1.686400 1.196400
vt 1.690600 1.196400
vt 1.690600 1.198400
vt 1.686400 1.198400
vt 2.190900 0.061200
vt 2.194200 0.061200
vt 2.194300 0.062900
vt 2.190700 0.062900
vt 1.685500 1.213000
vt 1.689500 1.213000
vt 1.689400 1.214900
vt 1.685400 1.214900
vt 2.190700 0.076200
vt 2.194500 0.076100
vt 2.194600 0.077900
vt 2.190900 0.078000
vt 1.733200 1.783400
vt 1.736900 1.783500
vt 1.735900 1.795700
vt 1.732400 1.795700
vt 1.733300 1.781600
vt 1.737000 1.781600
vt 1.652500 1.785400
vt 1.652500 1.786800
vt 1.656000 1.785400
vt 1.656100 1.786700
vt 2.190800 0.055800
vt 2.193800 0.055800
vt 2.193700 0.057200
vt 2.190900 0.057100
vt 1.602000 1.785700
vt 1.602100 1.784400
vt 1.605100 1.784400
vt 1.605200 1.785500
vt 2.191100 0.059600
vt 2.193900 0.059600
vt 2.194200 0.061200
vt 2.190900 0.061200
vt 1.610300 1.785400
vt 1.610500 1.784300
vt 0.275700 1.824000
vt 0.277400 1.824000
vt 0.277400 1.824700
vt 0.275900 1.824700
vt 0.510400 1.830800
vt 0.508900 1.830800
vt 0.508900 1.830100
vt 0.510400 1.830200
vt 0.276000 1.827400
vt 0.277500 1.827500
vt 0.277600 1.828400
vt 0.275800 1.828300
vt 0.510100 1.827400
vt 0.508700 1.827500
vt 0.508600 1.826600
vt 0.510100 1.826700
vt 0.389400 1.818700
vt 0.391700 1.818700
vt 0.394700 1.826500
vt 0.392300 1.826600
vt 0.576800 1.826500
vt 0.579800 1.818700
vt 0.574400 1.826500
vt 0.577400 1.818700
vt 0.348200 1.826500
vt 0.345300 1.818700
vt 0.345900 1.826600
vt 0.342900 1.818700
vt 0.531000 1.818700
vt 0.533300 1.818700
vt 0.530300 1.826500
vt 0.528000 1.826500
vt -0.008500 -0.319100
vt -0.008900 -0.316200
vt -0.003600 -0.319000
vt -0.004500 -0.315900
vt 1.234800 -0.253400
vt 1.235000 -0.256000
vt 1.231000 -0.253400
vt 1.230700 -0.256100
vt 1.235700 -0.244400
vt 1.235300 -0.246400
vt 1.231100 -0.244400
vt 1.231200 -0.246300
vt 1.630300 1.800900
vt 1.630300 1.799900
vt 1.631000 1.799800
vt 1.631000 1.800900
vt 1.234600 -0.227900
vt 1.230100 -0.227900
vt 1.234700 -0.225500
vt 1.230500 -0.225400
vt 1.615700 1.800400
vt 1.615800 1.799400
vt 1.614800 1.800500
vt 1.614800 1.799400
vt 1.231300 -0.248500
vt 1.235000 -0.248500
vt 1.235300 -0.246400
vt 1.231200 -0.246300
vt 1.239800 -0.323000
vt 1.240400 -0.325300
vt 1.235900 -0.323100
vt 1.235900 -0.325400
vt 1.231100 -0.251300
vt 1.234700 -0.251300
vt 1.231000 -0.253400
vt 1.234800 -0.253400
vt 1.239800 -0.320000
vt 1.235900 -0.320100
vt 1.239900 -0.317700
vt 1.235400 -0.317800
vt 0.307700 1.820200
vt 0.307800 1.818700
vt 0.305500 1.820100
vt 0.305400 1.818700
vt 0.754000 1.826400
vt 0.756100 1.826400
vt 0.756200 1.828000
vt 0.753700 1.827900
vt 0.306400 1.826600
vt 0.304200 1.826600
vt 0.306300 1.828100
vt 0.303800 1.827900
vt 0.753500 1.820100
vt 0.755600 1.820100
vt 0.753300 1.818700
vt 0.755800 1.818700
vt 1.650100 1.196500
vt 1.653800 1.196600
vt 1.653800 1.198500
vt 1.650000 1.198500
vt 2.225600 0.060900
vt 2.225400 0.062700
vt 2.228500 0.060900
vt 2.228800 0.062700
vt 1.648600 1.212500
vt 1.652400 1.212500
vt 1.652200 1.214600
vt 1.648600 1.214600
vt 2.225200 0.075500
vt 2.225300 0.077300
vt 2.228600 0.075400
vt 2.228600 0.077300
vt 1.697000 1.783500
vt 1.700300 1.783500
vt 1.699500 1.795200
vt 1.696100 1.795300
vt 1.697100 1.781600
vt 1.700400 1.781600
vt 1.652100 1.799700
vt 1.652200 1.800900
vt 1.655900 1.799600
vt 1.656000 1.800800
vt 2.225600 0.055400
vt 2.225700 0.056900
vt 2.228200 0.055500
vt 2.228000 0.056800
vt 1.603300 1.800800
vt 1.603100 1.799700
vt 1.606300 1.799700
vt 1.606300 1.800700
vt 2.226000 0.059200
vt 2.225600 0.060900
vt 2.228300 0.059300
vt 2.228500 0.060900
vt 1.611700 1.800500
vt 1.611500 1.799600
vt 0.246200 1.823900
vt 0.247700 1.823900
vt 0.247500 1.824700
vt 0.246300 1.824600
vt 0.480800 1.830700
vt 0.480800 1.830100
vt 0.479500 1.830700
vt 0.479600 1.830100
vt 0.246400 1.827400
vt 0.247700 1.827400
vt 0.247800 1.828300
vt 0.246400 1.828300
vt 0.480600 1.827400
vt 0.480600 1.826600
vt 0.479400 1.827400
vt 0.479400 1.826700
vt -1.382200 0.608800
vt -1.377000 0.609000
vt -1.381800 0.606800
vt -1.376700 0.606900
vt -2.315000 0.609900
vt -2.315100 0.611900
vt -2.320500 0.611900
vt -2.320000 0.609700
vt -1.389200 0.608700
vt -1.389100 0.606700
vt -1.394600 0.608600
vt -1.394200 0.606500
vt -2.307700 0.610100
vt -2.308100 0.612100
vt -2.302500 0.610200
vt -2.302800 0.612300
vt -0.083300 -0.385400
vt -0.083600 -0.384100
vt -0.088100 -0.384300
vt -0.087400 -0.385700
vt -1.381500 0.682500
vt -1.377300 0.682700
vt -1.381300 0.681200
vt -1.377200 0.681200
vt -0.065200 -0.384100
vt -0.065800 -0.382800
vt -0.061600 -0.383900
vt -0.062100 -0.382500
vt -1.399700 0.682600
vt -1.399800 0.681300
vt -1.403600 0.682700
vt -1.403500 0.681200
vt -0.046200 -0.387600
vt -0.047000 -0.384600
vt -0.057500 -0.384700
vt -0.055300 -0.388600
vt 1.280400 -0.315100
vt 1.286700 -0.314900
vt 1.281000 -0.317500
vt 1.286400 -0.317400
vt -0.002400 -0.384800
vt -0.003400 -0.381800
vt 0.004600 -0.384700
vt 0.004100 -0.381300
vt 1.240300 -0.315200
vt 1.239900 -0.317700
vt 1.234700 -0.315200
vt 1.235400 -0.317800
vt -0.541800 0.597800
vt -0.541100 0.599600
vt -0.543000 0.597200
vt -0.543500 0.595400
vt -2.321300 0.589600
vt -2.322700 0.589000
vt -2.319000 0.583200
vt -2.317400 0.583500
vt -0.082700 -0.386600
vt -0.086900 -0.387000
vt -1.381500 0.680000
vt -1.377200 0.680000
vt -0.065000 -0.385300
vt -0.061100 -0.385200
vt -1.399600 0.680100
vt -1.403400 0.679900
vt 1.281300 -0.325100
vt 1.281100 -0.327200
vt 1.286600 -0.327200
vt 1.286400 -0.325100
vt 1.516900 1.213200
vt 1.517600 1.213200
vt 1.517700 1.214400
vt 1.517100 1.214400
vt 1.240400 -0.325300
vt 1.240600 -0.327500
vt 1.235900 -0.325400
vt 1.235800 -0.327500
vt 1.517600 1.200500
vt 1.518400 1.200500
vt 1.517800 1.199400
vt 1.518500 1.199400
vt -0.538500 0.582400
vt -0.537000 0.583100
vt -0.541800 0.589400
vt -0.543500 0.589000
vt -2.322400 0.575500
vt -2.320000 0.580600
vt -2.322700 0.571700
vt -2.320200 0.576900
vt -0.078700 -0.406600
vt -0.079000 -0.405500
vt -0.083700 -0.405800
vt -0.083100 -0.407000
vt -1.381200 0.660800
vt -1.376700 0.660900
vt -1.381200 0.659700
vt -1.376700 0.659600
vt -0.061500 -0.405200
vt -0.061900 -0.404100
vt -0.057500 -0.405100
vt -0.057800 -0.403800
vt -1.398500 0.661000
vt -1.398500 0.659900
vt -1.402900 0.661000
vt -1.402600 0.659700
vt 1.278900 -0.346000
vt 1.284600 -0.346000
vt 1.278700 -0.348000
vt 1.284600 -0.348000
vt 1.501100 1.214900
vt 1.501600 1.214900
vt 1.501700 1.215900
vt 1.501200 1.215900
vt 1.240500 -0.345800
vt 1.240400 -0.348000
vt 1.235000 -0.345800
vt 1.234900 -0.348000
vt 1.502700 1.200400
vt 1.503300 1.200400
vt 1.502700 1.199500
vt 1.503200 1.199500
vt 2.185500 0.062800
vt 2.185500 0.061400
vt 2.188900 0.061300
vt 2.189200 0.062700
vt 1.607300 1.198100
vt 1.607400 1.196400
vt 1.611900 1.196500
vt 1.611800 1.198200
vt 2.154200 0.062800
vt 2.154000 0.061300
vt 2.150600 0.062800
vt 2.150900 0.061300
vt 1.642900 1.198700
vt 1.642900 1.197000
vt 1.646900 1.197000
vt 1.646900 1.198700
vt -2.321000 0.646200
vt -2.321000 0.645400
vt -2.320400 0.645400
vt -2.320500 0.646200
vt -1.407500 0.643000
vt -1.407500 0.642200
vt -1.406900 0.642200
vt -1.406900 0.643000
vt -2.333000 0.646200
vt -2.333000 0.645400
vt -2.333600 0.646200
vt -2.333500 0.645400
vt -1.394900 0.642900
vt -1.394900 0.642200
vt -1.394400 0.642200
vt -1.394400 0.643000
vt 2.187500 0.078000
vt 2.187400 0.075700
vt 2.190700 0.075700
vt 2.190500 0.078000
vt 1.606400 1.215000
vt 1.606400 1.212600
vt 1.609700 1.212700
vt 1.609500 1.215000
vt 2.153000 0.077800
vt 2.153300 0.075600
vt 2.150400 0.077900
vt 2.150400 0.075500
vt 1.645700 1.214700
vt 1.645500 1.212300
vt 1.648600 1.212200
vt 1.648400 1.214800
vt -2.322000 0.662900
vt -2.322000 0.661900
vt -2.321600 0.661900
vt -2.321700 0.662900
vt -1.407500 0.659600
vt -1.407500 0.658700
vt -1.407200 0.658700
vt -1.407200 0.659600
vt -2.333400 0.662900
vt -2.333400 0.661900
vt -2.333700 0.662900
vt -2.333700 0.661900
vt -1.395800 0.659600
vt -1.395800 0.658700
vt -1.395500 0.658700
vt -1.395500 0.659600
vt 1.520200 1.213200
vt 1.520200 1.214500
vt 1.773600 1.781600
vt 1.773600 1.783000
vt 1.769700 1.783000
vt 1.769500 1.781600
vt 1.521300 1.200600
vt 1.521200 1.199300
vt 1.740900 1.781600
vt 1.740900 1.783100
vt 1.737200 1.783100
vt 1.737000 1.781600
vt 1.545000 1.212500
vt 1.544900 1.214100
vt 1.547900 1.212600
vt 1.547700 1.214200
vt 1.774000 1.795400
vt 1.770000 1.795400
vt 1.774200 1.796800
vt 1.770000 1.796900
vt 1.544700 1.200900
vt 1.547900 1.201000
vt 1.544900 1.199400
vt 1.547900 1.199500
vt 1.741400 1.795200
vt 1.737700 1.795200
vt 1.741400 1.796700
vt 1.737700 1.796700
vt 0.422600 1.827000
vt 0.422600 1.826600
vt 0.424100 1.826600
vt 0.424100 1.827000
vt 0.193100 1.830400
vt 0.192900 1.830900
vt 0.191300 1.830800
vt 0.191500 1.830300
vt 0.393800 1.827500
vt 0.393800 1.827000
vt 0.392600 1.827500
vt 0.392500 1.827100
vt 0.162000 1.828700
vt 0.162000 1.829200
vt 0.160600 1.829100
vt 0.160700 1.828600
vt -1.407500 0.639000
vt -1.407500 0.638300
vt -1.406900 0.638300
vt -1.406900 0.639000
vt -2.321200 0.642300
vt -2.321300 0.641600
vt -2.320600 0.641600
vt -2.320600 0.642300
vt -1.395100 0.639100
vt -1.395100 0.638400
vt -1.394500 0.638400
vt -1.394500 0.639200
vt -2.333100 0.642400
vt -2.333100 0.641700
vt -2.333700 0.642400
vt -2.333700 0.641700
vt 0.136200 1.827500
vt 0.136100 1.828000
vt 0.134800 1.827900
vt 0.135000 1.827400
vt 0.217600 1.832300
vt 0.217800 1.831700
vt 0.219000 1.831800
vt 0.219000 1.832300
vt 0.159500 1.828500
vt 0.159300 1.829100
vt 0.160700 1.828600
vt 0.160600 1.829100
vt 0.194200 1.831000
vt 0.194300 1.830400
vt 0.192900 1.830900
vt 0.193100 1.830400
vt 0.422600 1.830600
vt 0.422600 1.830000
vt 0.424000 1.830000
vt 0.424100 1.830500
vt 0.194700 1.826700
vt 0.194600 1.827200
vt 0.192900 1.827200
vt 0.193000 1.826600
vt 0.393900 1.831000
vt 0.393800 1.830500
vt 0.392600 1.831000
vt 0.392600 1.830600
vt 0.163700 1.824900
vt 0.163500 1.825500
vt 0.162100 1.825400
vt 0.162300 1.824900
vt -1.407500 0.641400
vt -1.406900 0.641500
vt -2.321100 0.644700
vt -2.320400 0.644700
vt -1.395000 0.641400
vt -1.394400 0.641400
vt -2.333000 0.644700
vt -2.333600 0.644700
vt 0.137800 1.823700
vt 0.137600 1.824400
vt 0.136400 1.824300
vt 0.136400 1.823700
vt 0.219400 1.828600
vt 0.220600 1.828600
vt 0.219500 1.828000
vt 0.220800 1.828100
vt 0.161000 1.824800
vt 0.160900 1.825400
vt 0.162300 1.824900
vt 0.162100 1.825400
vt 0.195800 1.827300
vt 0.196000 1.826700
vt 0.194600 1.827200
vt 0.194700 1.826700
vt 1.499800 1.215900
vt 1.499500 1.214900
vt 2.185500 0.061400
vt 2.185900 0.060400
vt 2.188800 0.060500
vt 2.188900 0.061300
vt 1.501100 1.200300
vt 1.501300 1.199500
vt 2.154000 0.061300
vt 2.153700 0.060200
vt 2.150900 0.061300
vt 2.151200 0.060300
vt 0.430400 1.827000
vt 0.429500 1.827000
vt 0.429500 1.826600
vt 0.430400 1.826600
vt 0.386300 1.827100
vt 0.387100 1.827100
vt 0.387200 1.827500
vt 0.386300 1.827500
vt 0.430400 1.830000
vt 0.429500 1.830000
vt 0.430400 1.830500
vt 0.429600 1.830500
vt 0.386300 1.830600
vt 0.387100 1.830600
vt 0.387100 1.831000
vt 0.386300 1.831000
vt 1.493600 1.215900
vt 1.493600 1.214900
vt 1.492000 1.216000
vt 1.491800 1.214800
vt 2.187200 0.057600
vt 2.190000 0.057500
vt 2.187100 0.056600
vt 2.190100 0.056600
vt 1.495200 1.200200
vt 1.495100 1.199400
vt 1.493500 1.200200
vt 1.493600 1.199300
vt 2.154800 0.057400
vt 2.155000 0.056500
vt 2.152600 0.057300
vt 2.152500 0.056500
vt 0.425000 1.827000
vt 0.425000 1.826600
vt 0.424100 1.827000
vt 0.424100 1.826600
vt 0.391700 1.827100
vt 0.391700 1.827500
vt 0.392500 1.827100
vt 0.392600 1.827500
vt 0.425000 1.830000
vt 0.424000 1.830000
vt 0.425000 1.830500
vt 0.424100 1.830500
vt 0.391700 1.830600
vt 0.391700 1.831000
vt 0.392600 1.830600
vt 0.392600 1.831000
f 1/1/1 2/2/2 3/3/3
f 1/1/1 3/3/3 4/4/4
f 5/5/5 6/6/6 7/7/7
f 5/5/5 7/7/7 8/8/8
f 2/2/2 9/9/9 10/10/10
f 2/2/2 10/10/10 3/3/3
f 9/9/9 11/11/11 12/12/12
f 9/9/9 12/12/12 10/10/10
f 13/13/13 14/14/14 15/15/15
f 13/13/13 15/15/15 16/16/16
f 14/14/14 5/5/5 8/8/8
f 14/14/14 8/8/8 15/15/15
f 17/17/17 18/18/18 19/19/19
f 17/17/17 19/19/19 20/20/20
f 21/21/21 22/22/22 23/23/23
f 21/21/21 23/23/23 24/24/24
f 18/18/18 25/25/25 26/26/26
f 18/18/18 26/26/26 19/19/19
f 25/25/25 27/27/27 28/28/28
f 25/25/25 28/28/28 26/26/26
f 22/22/22 29/29/29 30/30/30
f 22/22/22 30/30/30 23/23/23
f 29/29/29 31/31/31 32/32/32
f 29/29/29 32/32/32 30/30/30
f 33/33/33 34/34/34 35/35/35
f 33/33/33 35/35/35 36/36/36
f 37/37/37 38/38/38 39/39/39
f 37/37/37 39/39/39 40/40/40
f 36/36/36 35/35/35 41/41/41
f 36/36/36 41/41/41 42/42/42
f 43/43/43 44/44/44 38/38/38
f 43/43/43 38/38/38 37/37/37
f 45/45/45 46/46/46 47/47/47
f 45/45/45 47/47/47 48/48/48
f 42/42/42 41/41/41 46/46/46
f 42/42/42 46/46/46 45/45/45
f 49/49/49 50/50/50 44/44/44
f 49/49/49 44/44/44 43/43/43
f 51/51/51 52/52/52 50/50/50
f 51/51/51 50/50/50 49/49/49
f 34/34/34 53/53/53 54/54/54
f 34/34/34 54/54/54 35/35/35
f 53/53/53 55/55/55 56/56/56
f 53/53/53 56/56/56 54/54/54
f 38/38/38 57/57/57 58/58/58
f 38/38/38 58/58/58 39/39/39
f 57/57/57 59/59/59 60/60/60
f 57/57/57 60/60/60 58/58/58
f 35/35/35 54/54/54 61/61/61
f 35/35/35 61/61/61 41/41/41
f 54/54/54 56/56/56 62/62/62
f 54/54/54 62/62/62 61/61/61
f 44/44/44 63/63/63 57/57/57
f 44/44/44 57/57/57 38/38/38
f 63/63/63 64/64/64 59/59/59
f 63/63/63 59/59/59 57/57/57
f 46/46/46 65/65/65 66/66/66
f 46/46/46 66/66/66 47/47/47
f 65/65/65 67/67/67 68/68/68
f 65/65/65 68/68/68 66/66/66
f 41/41/41 61/61/61 65/65/65
f 41/41/41 65/65/65 46/46/46
f 61/61/61 62/62/62 67/67/67
f 61/61/61 67/67/67 65/65/65
f 50/50/50 69/69/69 63/63/63
f 50/50/50 63/63/63 44/44/44
f 69/69/69 70/70/70 64/64/64
f 69/69/69 64/64/64 63/63/63
f 52/52/52 71/71/71 69/69/69
f 52/52/52 69/69/69 50/50/50
f 71/71/71 72/72/72 70/70/70
f 71/71/71 70/70/70 69/69/69
f 73/73/73 74/74/74 75/75/75
f 73/73/73 75/75/75 76/76/76
f 77/77/77 78/78/78 79/79/79
f 77/77/77 79/79/79 80/80/80
f 81/81/81 82/82/82 83/83/83
f 81/81/81 83/83/83 84/84/84
f 76/76/76 75/75/75 82/82/82
f 76/76/76 82/82/82 81/81/81
f 85/85/85 86/86/86 78/78/78
f 85/85/85 78/78/78 77/77/77
f 87/87/87 88/88/88 86/86/86
f 87/87/87 86/86/86 85/85/85
f 74/74/74 89/89/89 90/90/90
f 74/74/74 90/90/90 75/75/75
f 89/89/89 91/91/91 92/92/92
f 89/89/89 92/92/92 90/90/90
f 78/78/78 93/93/93 94/94/94
f 78/78/78 94/94/94 79/79/79
f 93/93/93 95/95/95 96/96/96
f 93/93/93 96/96/96 94/94/94
f 82/82/82 97/97/97 98/98/98
f 82/82/82 98/98/98 83/83/83
f 97/97/97 99/99/99 100/100/100
f 97/97/97 100/100/100 98/98/98
f 75/75/75 90/90/90 97/97/97
f 75/75/75 97/97/97 82/82/82
f 90/90/90 92/92/92 99/99/99
f 90/90/90 99/99/99 97/97/97
f 86/86/86 101/101/101 93/93/93
f 86/86/86 93/93/93 78/78/78
f 101/101/101 102/102/102 95/95/95
f 101/101/101 95/95/95 93/93/93
f 88/88/88 103/103/103 101/101/101
f 88/88/88 101/101/101 86/86/86
f 103/103/103 104/104/104 102/102/102
f 103/103/103 102/102/102 101/101/101
f 105/105/105 106/106/106 107/107/107
f 105/105/105 107/107/107 108/108/108
f 109/109/109 110/110/110 111/111/111
f 109/109/109 111/111/111 112/112/112
f 113/113/113 114/114/114 106/106/106
f 113/113/113 106/106/106 105/105/105
f 115/115/115 116/116/116 114/114/114
f 115/115/115 114/114/114 113/113/113
f 117/117/117 118/118/118 119/119/119
f 117/117/117 119/119/119 120/120/120
f 112/112/112 111/111/111 118/118/118
f 112/112/112 118/118/118 117/117/117
f 121/121/121 122/122/122 123/123/123
f 121/121/121 123/123/123 124/124/124
f 125/125/125 126/126/126 122/122/122
f 125/125/125 122/122/122 121/121/121
f 127/127/127 128/128/128 129/129/129
f 127/127/127 129/129/129 130/130/130
f 131/131/131 132/132/132 128/128/128
f 131/131/131 128/128/128 127/127/127
f 133/133/133 134/134/134 135/135/135
f 133/133/133 135/135/135 136/136/136
f 137/137/137 138/138/138 139/139/139
f 137/137/137 139/139/139 140/140/140
f 141/141/141 142/142/142 143/143/143
f 141/141/141 143/143/143 144/144/144
f 136/136/136 135/135/135 142/142/142
f 136/136/136 142/142/142 141/141/141
f 145/145/145 146/146/146 147/147/147
f 145/145/145 147/147/147 148/148/148
f 140/140/140 139/139/139 146/146/146
f 140/140/140 146/146/146 145/145/145
f 106/106/106 149/149/149 150/150/150
f 106/106/106 150/150/150 107/107/107
f 149/149/149 77/77/77 80/80/80
f 149/149/149 80/80/80 150/150/150
f 110/110/110 151/151/151 152/152/152
f 110/110/110 152/152/152 111/111/111
f 151/151/151 73/73/73 76/76/76
f 151/151/151 76/76/76 152/152/152
f 114/114/114 153/153/153 149/149/149
f 114/114/114 149/149/149 106/106/106
f 153/153/153 85/85/85 77/77/77
f 153/153/153 77/77/77 149/149/149
f 116/116/116 154/154/154 153/153/153
f 116/116/116 153/153/153 114/114/114
f 154/154/154 87/87/87 85/85/85
f 154/154/154 85/85/85 153/153/153
f 118/118/118 155/155/155 156/156/156
f 118/118/118 156/156/156 119/119/119
f 155/155/155 81/81/81 84/84/84
f 155/155/155 84/84/84 156/156/156
f 111/111/111 152/152/152 155/155/155
f 111/111/111 155/155/155 118/118/118
f 152/152/152 76/76/76 81/81/81
f 152/152/152 81/81/81 155/155/155
f 157/157/157 158/158/158 159/159/159
f 157/157/157 159/159/159 160/160/160
f 158/158/158 121/121/121 124/124/124
f 158/158/158 124/124/124 159/159/159
f 161/161/161 162/162/162 158/158/158
f 161/161/161 158/158/158 157/157/157
f 162/162/162 125/125/125 121/121/121
f 162/162/162 121/121/121 158/158/158
f 128/128/128 163/163/163 164/164/164
f 128/128/128 164/164/164 129/129/129
f 163/163/163 165/165/165 166/166/166
f 163/163/163 166/166/166 164/164/164
f 132/132/132 167/167/167 163/163/163
f 132/132/132 163/163/163 128/128/128
f 167/167/167 168/168/168 165/165/165
f 167/167/167 165/165/165 163/163/163
f 169/169/169 170/170/170 171/171/171
f 169/169/169 171/171/171 172/172/172
f 170/170/170 133/133/133 136/136/136
f 170/170/170 136/136/136 171/171/171
f 138/138/138 173/173/173 174/174/174
f 138/138/138 174/174/174 139/139/139
f 173/173/173 175/175/175 176/176/176
f 173/173/173 176/176/176 174/174/174
f 177/177/177 178/178/178 179/179/179
f 177/177/177 179/179/179 180/180/180
f 178/178/178 141/141/141 144/144/144
f 178/178/178 144/144/144 179/179/179
f 172/172/172 171/171/171 178/178/178
f 172/172/172 178/178/178 177/177/177
f 171/171/171 136/136/136 141/141/141
f 171/171/171 141/141/141 178/178/178
f 146/146/146 181/181/181 182/182/182
f 146/146/146 182/182/182 147/147/147
f 181/181/181 183/183/183 184/184/184
f 181/181/181 184/184/184 182/182/182
f 139/139/139 174/174/174 181/181/181
f 139/139/139 181/181/181 146/146/146
f 174/174/174 176/176/176 183/183/183
f 174/174/174 183/183/183 181/181/181
f 185/185/185 186/186/186 187/187/187
f 185/185/185 187/187/187 188/188/188
f 189/189/189 190/190/190 191/191/191
f 189/189/189 191/191/191 192/192/192
f 193/193/193 194/194/194 195/195/195
f 193/193/193 195/195/195 196/196/196
f 197/197/197 198/198/198 199/199/199
f 197/197/197 199/199/199 200/200/200
f 201/201/201 202/202/202 203/203/203
f 201/201/201 203/203/203 204/204/204
f 205/205/205 206/206/206 207/207/207
f 205/205/205 207/207/207 208/208/208
f 209/209/209 210/210/210 211/211/211
f 209/209/209 211/211/211 212/212/212
f 213/213/213 214/214/214 215/215/215
f 213/213/213 215/215/215 216/216/216
f 217/217/217 218/218/218 210/210/210
f 217/217/217 210/210/210 209/209/209
f 219/219/219 220/220/220 218/218/218
f 219/219/219 218/218/218 217/217/217
f 221/221/221 222/222/222 214/214/214
f 221/221/221 214/214/214 213/213/213
f 223/223/223 224/224/224 222/222/222
f 223/223/223 222/222/222 221/221/221
f 225/225/225 226/226/226 227/227/227
f 225/225/225 227/227/227 228/228/228
f 229/229/229 230/230/230 231/231/231
f 229/229/229 231/231/231 232/232/232
f 233/233/233 234/234/234 226/226/226
f 233/233/233 226/226/226 225/225/225
f 235/235/235 236/236/236 234/234/234
f 235/235/235 234/234/234 233/233/233
f 237/237/237 238/238/238 230/230/230
f 237/237/237 230/230/230 229/229/229
f 239/239/239 240/240/240 238/238/238
f 239/239/239 238/238/238 237/237/237
f 241/241/241 242/242/242 243/243/243
f 241/241/241 243/243/243 244/244/244
f 245/245/245 246/246/246 247/247/247
f 245/245/245 247/247/247 248/248/248
f 249/249/249 250/250/250 242/242/242
f 249/249/249 242/242/242 241/241/241
f 251/251/251 252/252/252 250/250/250
f 251/251/251 250/250/250 249/249/249
f 253/253/253 254/254/254 246/246/246
f 253/253/253 246/246/246 245/245/245
f 255/255/255 256/256/256 254/254/254
f 255/255/255 254/254/254 253/253/253
f 257/257/257 258/258/258 259/259/259
f 257/257/257 259/259/259 260/260/260
f 261/261/261 262/262/262 263/263/263
f 261/261/261 263/263/263 264/264/264
f 265/265/265 266/266/266 267/267/267
f 265/265/265 267/267/267 268/268/268
f 260/260/260 259/259/259 266/266/266
f 260/260/260 266/266/266 265/265/265
f 269/269/269 270/270/270 271/271/271
f 269/269/269 271/271/271 272/272/272
f 264/264/264 263/263/263 270/270/270
f 264/264/264 270/270/270 269/269/269
f 273/273/273 274/274/274 275/275/275
f 273/273/273 275/275/275 276/276/276
f 277/277/277 278/278/278 274/274/274
f 277/277/277 274/274/274 273/273/273
f 279/279/279 280/280/280 216/216/216
f 279/279/279 216/216/216 215/215/215
f 281/281/281 282/282/282 280/280/280
f 281/281/281 280/280/280 279/279/279
f 283/283/283 284/284/284 285/285/285
f 283/283/283 285/285/285 286/286/286
f 287/287/287 288/288/288 289/289/289
f 287/287/287 289/289/289 290/290/290
f 291/291/291 292/292/292 293/293/293
f 291/291/291 293/293/293 294/294/294
f 286/286/286 285/285/285 292/292/292
f 286/286/286 292/292/292 291/291/291
f 295/295/295 296/296/296 224/224/224
f 295/295/295 224/224/224 223/223/223
f 290/290/290 289/289/289 296/296/296
f 290/290/290 296/296/296 295/295/295
f 297/297/297 298/298/298 299/299/299
f 297/297/297 299/299/299 300/300/300
f 301/301/301 302/302/302 303/303/303
f 301/301/301 303/303/303 304/304/304
f 305/305/305 306/306/306 307/307/307
f 305/305/305 307/307/307 308/308/308
f 300/300/300 299/299/299 306/306/306
f 300/300/300 306/306/306 305/305/305
f 309/309/309 310/310/310 311/311/311
f 309/309/309 311/311/311 312/312/312
f 304/304/304 303/303/303 310/310/310
f 304/304/304 310/310/310 309/309/309
f 313/313/313 314/314/314 315/315/315
f 313/313/313 315/315/315 316/316/316
f 314/314/314 185/185/185 188/188/188
f 314/314/314 188/188/188 315/315/315
f 190/190/190 317/317/317 318/318/318
f 190/190/190 318/318/318 191/191/191
f 317/317/317 319/319/319 320/320/320
f 317/317/317 320/320/320 318/318/318
f 194/194/194 321/321/321 322/322/322
f 194/194/194 322/322/322 195/195/195
f 321/321/321 323/323/323 324/324/324
f 321/321/321 324/324/324 322/322/322
f 325/325/325 326/326/326 327/327/327
f 325/325/325 327/327/327 328/328/328
f 326/326/326 197/197/197 200/200/200
f 326/326/326 200/200/200 327/327/327
f 202/202/202 329/329/329 330/330/330
f 202/202/202 330/330/330 203/203/203
f 329/329/329 331/331/331 332/332/332
f 329/329/329 332/332/332 330/330/330
f 206/206/206 333/333/333 334/334/334
f 206/206/206 334/334/334 207/207/207
f 333/333/333 335/335/335 336/336/336
f 333/333/333 336/336/336 334/334/334
f 210/210/210 337/337/337 338/338/338
f 210/210/210 338/338/338 211/211/211
f 337/337/337 339/339/339 340/340/340
f 337/337/337 340/340/340 338/338/338
f 341/341/341 342/342/342 343/343/343
f 341/341/341 343/343/343 344/344/344
f 342/342/342 213/213/213 216/216/216
f 342/342/342 216/216/216 343/343/343
f 218/218/218 345/345/345 337/337/337
f 218/218/218 337/337/337 210/210/210
f 345/345/345 346/346/346 339/339/339
f 345/345/345 339/339/339 337/337/337
f 220/220/220 347/347/347 345/345/345
f 220/220/220 345/345/345 218/218/218
f 347/347/347 348/348/348 346/346/346
f 347/347/347 346/346/346 345/345/345
f 349/349/349 350/350/350 342/342/342
f 349/349/349 342/342/342 341/341/341
f 350/350/350 221/221/221 213/213/213
f 350/350/350 213/213/213 342/342/342
f 351/351/351 352/352/352 350/350/350
f 351/351/351 350/350/350 349/349/349
f 352/352/352 223/223/223 221/221/221
f 352/352/352 221/221/221 350/350/350
f 353/353/353 354/354/354 355/355/355
f 353/353/353 355/355/355 356/356/356
f 354/354/354 225/225/225 228/228/228
f 354/354/354 228/228/228 355/355/355
f 230/230/230 357/357/357 358/358/358
f 230/230/230 358/358/358 231/231/231
f 357/357/357 359/359/359 360/360/360
f 357/357/357 360/360/360 358/358/358
f 361/361/361 362/362/362 354/354/354
f 361/361/361 354/354/354 353/353/353
f 362/362/362 233/233/233 225/225/225
f 362/362/362 225/225/225 354/354/354
f 363/363/363 364/364/364 362/362/362
f 363/363/363 362/362/362 361/361/361
f 364/364/364 235/235/235 233/233/233
f 364/364/364 233/233/233 362/362/362
f 238/238/238 365/365/365 357/357/357
f 238/238/238 357/357/357 230/230/230
f 365/365/365 366/366/366 359/359/359
f 365/365/365 359/359/359 357/357/357
f 240/240/240 367/367/367 365/365/365
f 240/240/240 365/365/365 238/238/238
f 367/367/367 368/368/368 366/366/366
f 367/367/367 366/366/366 365/365/365
f 242/242/242 369/369/369 370/370/370
f 242/242/242 370/370/370 243/243/243
f 369/369/369 371/371/371 372/372/372
f 369/369/369 372/372/372 370/370/370
f 373/373/373 374/374/374 375/375/375
f 373/373/373 375/375/375 376/376/376
f 374/374/374 245/245/245 248/248/248
f 374/374/374 248/248/248 375/375/375
f 250/250/250 377/377/377 369/369/369
f 250/250/250 369/369/369 242/242/242
f 377/377/377 378/378/378 371/371/371
f 377/377/377 371/371/371 369/369/369
f 252/252/252 379/379/379 377/377/377
f 252/252/252 377/377/377 250/250/250
f 379/379/379 380/380/380 378/378/378
f 379/379/379 378/378/378 377/377/377
f 381/381/381 382/382/382 374/374/374
f 381/381/381 374/374/374 373/373/373
f 382/382/382 253/253/253 245/245/245
f 382/382/382 245/245/245 374/374/374
f 383/383/383 384/384/384 382/382/382
f 383/383/383 382/382/382 381/381/381
f 384/384/384 255/255/255 253/253/253
f 384/384/384 253/253/253 382/382/382
f 385/385/385 386/386/386 387/387/387
f 385/385/385 387/387/387 388/388/388
f 386/386/386 257/257/257 260/260/260
f 386/386/386 260/260/260 387/387/387
f 262/262/262 389/389/389 390/390/390
f 262/262/262 390/390/390 263/263/263
f 389/389/389 391/391/391 392/392/392
f 389/389/389 392/392/392 390/390/390
f 393/393/393 394/394/394 395/395/395
f 393/393/393 395/395/395 396/396/396
f 394/394/394 265/265/265 268/268/268
f 394/394/394 268/268/268 395/395/395
f 388/388/388 387/387/387 394/394/394
f 388/388/388 394/394/394 393/393/393
f 387/387/387 260/260/260 265/265/265
f 387/387/387 265/265/265 394/394/394
f 270/270/270 397/397/397 398/398/398
f 270/270/270 398/398/398 271/271/271
f 397/397/397 399/399/399 400/400/400
f 397/397/397 400/400/400 398/398/398
f 263/263/263 390/390/390 397/397/397
f 263/263/263 397/397/397 270/270/270
f 390/390/390 392/392/392 399/399/399
f 390/390/390 399/399/399 397/397/397
f 401/401/401 402/402/402 403/403/403
f 401/401/401 403/403/403 404/404/404
f 402/402/402 273/273/273 276/276/276
f 402/402/402 276/276/276 403/403/403
f 405/405/405 406/406/406 402/402/402
f 405/405/405 402/402/402 401/401/401
f 406/406/406 277/277/277 273/273/273
f 406/406/406 273/273/273 402/402/402
f 280/280/280 407/407/407 343/343/343
f 280/280/280 343/343/343 216/216/216
f 407/407/407 408/408/408 344/344/344
f 407/407/407 344/344/344 343/343/343
f 282/282/282 409/409/409 407/407/407
f 282/282/282 407/407/407 280/280/280
f 409/409/409 410/410/410 408/408/408
f 409/409/409 408/408/408 407/407/407
f 284/284/284 411/411/411 412/412/412
f 284/284/284 412/412/412 285/285/285
f 411/411/411 413/413/413 414/414/414
f 411/411/411 414/414/414 412/412/412
f 415/415/415 416/416/416 417/417/417
f 415/415/415 417/417/417 418/418/418
f 416/416/416 287/287/287 290/290/290
f 416/416/416 290/290/290 417/417/417
f 292/292/292 419/419/419 420/420/420
f 292/292/292 420/420/420 293/293/293
f 419/419/419 421/421/421 422/422/422
f 419/419/419 422/422/422 420/420/420
f 285/285/285 412/412/412 419/419/419
f 285/285/285 419/419/419 292/292/292
f 412/412/412 414/414/414 421/421/421
f 412/412/412 421/421/421 419/419/419
f 423/423/423 424/424/424 352/352/352
f 423/423/423 352/352/352 351/351/351
f 424/424/424 295/295/295 223/223/223
f 424/424/424 223/223/223 352/352/352
f 418/418/418 417/417/417 424/424/424
f 418/418/418 424/424/424 423/423/423
f 417/417/417 290/290/290 295/295/295
f 417/417/417 295/295/295 424/424/424
f 425/425/425 426/426/426 427/427/427
f 425/425/425 427/427/427 428/428/428
f 426/426/426 297/297/297 300/300/300
f 426/426/426 300/300/300 427/427/427
f 302/302/302 429/429/429 430/430/430
f 302/302/302 430/430/430 303/303/303
f 429/429/429 431/431/431 432/432/432
f 429/429/429 432/432/432 430/430/430
f 433/433/433 434/434/434 435/435/435
f 433/433/433 435/435/435 436/436/436
f 434/434/434 305/305/305 308/308/308
f 434/434/434 308/308/308 435/435/435
f 428/428/428 427/427/427 434/434/434
f 428/428/428 434/434/434 433/433/433
f 427/427/427 300/300/300 305/305/305
f 427/427/427 305/305/305 434/434/434
f 310/310/310 437/437/437 438/438/438
f 310/310/310 438/438/438 311/311/311
f 437/437/437 439/439/439 440/440/440
f 437/437/437 440/440/440 438/438/438
f 303/303/303 430/430/430 437/437/437
f 303/303/303 437/437/437 310/310/310
f 430/430/430 432/432/432 439/439/439
f 430/430/430 439/439/439 437/437/437
f 19/19/19 441/441/441 442/442/442
f 19/19/19 442/442/442 20/20/20
f 441/441/441 443/443/443 444/444/444
f 441/441/441 444/444/444 442/442/442
f 445/445/445 446/446/446 447/447/447
f 445/445/445 447/447/447 448/448/448
f 446/446/446 22/22/22 21/21/21
f 446/446/446 21/21/21 447/447/447
f 26/26/26 449/449/449 441/441/441
f 26/26/26 441/441/441 19/19/19
f 449/449/449 450/450/450 443/443/443
f 449/449/449 443/443/443 441/441/441
f 28/28/28 451/451/451 449/449/449
f 28/28/28 449/449/449 26/26/26
f 451/451/451 452/452/452 450/450/450
f 451/451/451 450/450/450 449/449/449
f 453/453/453 454/454/454 446/446/446
f 453/453/453 446/446/446 445/445/445
f 454/454/454 29/29/29 22/22/22
f 454/454/454 22/22/22 446/446/446
f 455/455/455 456/456/456 454/454/454
f 455/455/455 454/454/454 453/453/453
f 456/456/456 31/31/31 29/29/29
f 456/456/456 29/29/29 454/454/454
f 457/457/457 458/458/458 459/459/459
f 457/457/457 459/459/459 460/460/460
f 458/458/458 34/34/34 33/33/33
f 458/458/458 33/33/33 459/459/459
f 39/39/39 461/461/461 462/462/462
f 39/39/39 462/462/462 40/40/40
f 461/461/461 463/463/463 464/464/464
f 461/461/461 464/464/464 462/462/462
f 465/465/465 466/466/466 458/458/458
f 465/465/465 458/458/458 457/457/457
f 466/466/466 53/53/53 34/34/34
f 466/466/466 34/34/34 458/458/458
f 467/467/467 468/468/468 466/466/466
f 467/467/467 466/466/466 465/465/465
f 468/468/468 55/55/55 53/53/53
f 468/468/468 53/53/53 466/466/466
f 58/58/58 469/469/469 461/461/461
f 58/58/58 461/461/461 39/39/39
f 469/469/469 470/470/470 463/463/463
f 469/469/469 463/463/463 461/461/461
f 60/60/60 471/471/471 469/469/469
f 60/60/60 469/469/469 58/58/58
f 471/471/471 472/472/472 470/470/470
f 471/471/471 470/470/470 469/469/469
f 473/473/473 474/474/474 475/475/475
f 473/473/473 475/475/475 476/476/476
f 474/474/474 202/202/202 201/201/201
f 474/474/474 201/201/201 475/475/475
f 207/207/207 477/477/477 478/478/478
f 207/207/207 478/478/478 208/208/208
f 477/477/477 479/479/479 480/480/480
f 477/477/477 480/480/480 478/478/478
f 481/481/481 482/482/482 474/474/474
f 481/481/481 474/474/474 473/473/473
f 482/482/482 329/329/329 202/202/202
f 482/482/482 202/202/202 474/474/474
f 483/483/483 484/484/484 482/482/482
f 483/483/483 482/482/482 481/481/481
f 484/484/484 331/331/331 329/329/329
f 484/484/484 329/329/329 482/482/482
f 334/334/334 485/485/485 477/477/477
f 334/334/334 477/477/477 207/207/207
f 485/485/485 486/486/486 479/479/479
f 485/485/485 479/479/479 477/477/477
f 336/336/336 487/487/487 485/485/485
f 336/336/336 485/485/485 334/334/334
f 487/487/487 488/488/488 486/486/486
f 487/487/487 486/486/486 485/485/485
f 489/489/489 490/490/490 491/491/491
f 489/489/489 491/491/491 492/492/492
f 493/493/493 494/494/494 495/495/495
f 493/493/493 495/495/495 496/496/496
f 497/497/497 457/457/457 460/460/460
f 497/497/497 460/460/460 498/498/498
f 463/463/463 499/499/499 500/500/500
f 463/463/463 500/500/500 464/464/464
f 501/501/501 465/465/465 457/457/457
f 501/501/501 457/457/457 497/497/497
f 502/502/502 467/467/467 465/465/465
f 502/502/502 465/465/465 501/501/501
f 470/470/470 503/503/503 499/499/499
f 470/470/470 499/499/499 463/463/463
f 472/472/472 504/504/504 503/503/503
f 472/472/472 503/503/503 470/470/470
f 505/505/505 506/506/506 507/507/507
f 505/505/505 507/507/507 508/508/508
f 509/509/509 510/510/510 511/511/511
f 509/509/509 511/511/511 512/512/512
f 513/513/513 514/514/514 506/506/506
f 513/513/513 506/506/506 505/505/505
f 515/515/515 516/516/516 514/514/514
f 515/515/515 514/514/514 513/513/513
f 517/517/517 518/518/518 510/510/510
f 517/517/517 510/510/510 509/509/509
f 519/519/519 520/520/520 518/518/518
f 519/519/519 518/518/518 517/517/517
f 521/521/521 522/522/522 523/523/523
f 521/521/521 523/523/523 524/524/524
f 522/522/522 489/489/489 492/492/492
f 522/522/522 492/492/492 523/523/523
f 494/494/494 525/525/525 526/526/526
f 494/494/494 526/526/526 495/495/495
f 525/525/525 527/527/527 528/528/528
f 525/525/525 528/528/528 526/526/526
f 529/529/529 530/530/530 531/531/531
f 529/529/529 531/531/531 532/532/532
f 530/530/530 497/497/497 498/498/498
f 530/530/530 498/498/498 531/531/531
f 499/499/499 533/533/533 534/534/534
f 499/499/499 534/534/534 500/500/500
f 533/533/533 535/535/535 536/536/536
f 533/533/533 536/536/536 534/534/534
f 537/537/537 538/538/538 530/530/530
f 537/537/537 530/530/530 529/529/529
f 538/538/538 501/501/501 497/497/497
f 538/538/538 497/497/497 530/530/530
f 539/539/539 540/540/540 538/538/538
f 539/539/539 538/538/538 537/537/537
f 540/540/540 502/502/502 501/501/501
f 540/540/540 501/501/501 538/538/538
f 503/503/503 541/541/541 533/533/533
f 503/503/503 533/533/533 499/499/499
f 541/541/541 542/542/542 535/535/535
f 541/541/541 535/535/535 533/533/533
f 504/504/504 543/543/543 541/541/541
f 504/504/504 541/541/541 503/503/503
f 543/543/543 544/544/544 542/542/542
f 543/543/543 542/542/542 541/541/541
f 506/506/506 545/545/545 546/546/546
f 506/506/506 546/546/546 507/507/507
f 545/545/545 547/547/547 548/548/548
f 545/545/545 548/548/548 546/546/546
f 549/549/549 550/550/550 551/551/551
f 549/549/549 551/551/551 552/552/552
f 550/550/550 509/509/509 512/512/512
f 550/550/550 512/512/512 551/551/551
f 514/514/514 553/553/553 545/545/545
f 514/514/514 545/545/545 506/506/506
f 553/553/553 554/554/554 547/547/547
f 553/553/553 547/547/547 545/545/545
f 516/516/516 555/555/555 553/553/553
f 516/516/516 553/553/553 514/514/514
f 555/555/555 556/556/556 554/554/554
f 555/555/555 554/554/554 553/553/553
f 557/557/557 558/558/558 550/550/550
f 557/557/557 550/550/550 549/549/549
f 558/558/558 517/517/517 509/509/509
f 558/558/558 509/509/509 550/550/550
f 559/559/559 560/560/560 558/558/558
f 559/559/559 558/558/558 557/557/557
f 560/560/560 519/519/519 517/517/517
f 560/560/560 517/517/517 558/558/558
f 561/561/561 562/562/562 563/563/563
f 561/561/561 563/563/563 564/564/564
f 565/565/565 566/566/566 567/567/567
f 565/565/565 567/567/567 568/568/568
f 569/569/569 570/570/570 562/562/562
f 569/569/569 562/562/562 561/561/561
f 571/571/571 572/572/572 570/570/570
f 571/571/571 570/570/570 569/569/569
f 573/573/573 574/574/574 575/575/575
f 573/573/573 575/575/575 576/576/576
f 568/568/568 567/567/567 574/574/574
f 568/568/568 574/574/574 573/573/573
f 577/577/577 578/578/578 579/579/579
f 577/577/577 579/579/579 580/580/580
f 581/581/581 582/582/582 583/583/583
f 581/581/581 583/583/583 584/584/584
f 585/585/585 586/586/586 578/578/578
f 585/585/585 578/578/578 577/577/577
f 587/587/587 588/588/588 586/586/586
f 587/587/587 586/586/586 585/585/585
f 589/589/589 590/590/590 591/591/591
f 589/589/589 591/591/591 592/592/592
f 584/584/584 583/583/583 590/590/590
f 584/584/584 590/590/590 589/589/589
f 593/593/593 594/594/594 595/595/595
f 593/593/593 595/595/595 596/596/596
f 594/594/594 561/561/561 564/564/564
f 594/594/594 564/564/564 595/595/595
f 597/597/597 598/598/598 599/599/599
f 597/597/597 599/599/599 600/600/600
f 598/598/598 565/565/565 568/568/568
f 598/598/598 568/568/568 599/599/599
f 601/601/601 602/602/602 594/594/594
f 601/601/601 594/594/594 593/593/593
f 602/602/602 569/569/569 561/561/561
f 602/602/602 561/561/561 594/594/594
f 603/603/603 604/604/604 602/602/602
f 603/603/603 602/602/602 601/601/601
f 604/604/604 571/571/571 569/569/569
f 604/604/604 569/569/569 602/602/602
f 605/605/605 606/606/606 607/607/607
f 605/605/605 607/607/607 608/608/608
f 606/606/606 573/573/573 576/576/576
f 606/606/606 576/576/576 607/607/607
f 600/600/600 599/599/599 606/606/606
f 600/600/600 606/606/606 605/605/605
f 599/599/599 568/568/568 573/573/573
f 599/599/599 573/573/573 606/606/606
f 609/609/609 610/610/610 611/611/611
f 609/609/609 611/611/611 612/612/612
f 610/610/610 577/577/577 580/580/580
f 610/610/610 580/580/580 611/611/611
f 613/613/613 614/614/614 615/615/615
f 613/613/613 615/615/615 616/616/616
f 614/614/614 581/581/581 584/584/584
f 614/614/614 584/584/584 615/615/615
f 617/617/617 618/618/618 610/610/610
f 617/617/617 610/610/610 609/609/609
f 618/618/618 585/585/585 577/577/577
f 618/618/618 577/577/577 610/610/610
f 619/619/619 620/620/620 618/618/618
f 619/619/619 618/618/618 617/617/617
f 620/620/620 587/587/587 585/585/585
f 620/620/620 585/585/585 618/618/618
f 621/621/621 622/622/622 623/623/623
f 621/621/621 623/623/623 624/624/624
f 622/622/622 589/589/589 592/592/592
f 622/622/622 592/592/592 623/623/623
f 616/616/616 615/615/615 622/622/622
f 616/616/616 622/622/622 621/621/621
f 615/615/615 584/584/584 589/589/589
f 615/615/615 589/589/589 622/622/622
f 510/510/510 625/625/625 626/626/626
f 510/510/510 626/626/626 511/511/511
f 627/627/627 628/628/628 629/629/629
f 627/627/627 629/629/629 630/630/630
f 518/518/518 631/631/631 625/625/625
f 518/518/518 625/625/625 510/510/510
f 520/520/520 632/632/632 631/631/631
f 520/520/520 631/631/631 518/518/518
f 633/633/633 634/634/634 635/635/635
f 633/633/633 635/635/635 636/636/636
f 630/630/630 629/629/629 634/634/634
f 630/630/630 634/634/634 633/633/633
f 625/625/625 637/637/637 638/638/638
f 625/625/625 638/638/638 626/626/626
f 637/637/637 639/639/639 640/640/640
f 637/637/637 640/640/640 638/638/638
f 628/628/628 641/641/641 642/642/642
f 628/628/628 642/642/642 629/629/629
f 641/641/641 643/643/643 644/644/644
f 641/641/641 644/644/644 642/642/642
f 631/631/631 645/645/645 637/637/637
f 631/631/631 637/637/637 625/625/625
f 645/645/645 646/646/646 639/639/639
f 645/645/645 639/639/639 637/637/637
f 632/632/632 647/647/647 645/645/645
f 632/632/632 645/645/645 631/631/631
f 647/647/647 648/648/648 646/646/646
f 647/647/647 646/646/646 645/645/645
f 634/634/634 649/649/649 650/650/650
f 634/634/634 650/650/650 635/635/635
f 649/649/649 651/651/651 652/652/652
f 649/649/649 652/652/652 650/650/650
f 629/629/629 642/642/642 649/649/649
f 629/629/629 649/649/649 634/634/634
f 642/642/642 644/644/644 651/651/651
f 642/642/642 651/651/651 649/649/649
f 653/653/653 654/654/654 655/655/655
f 653/653/653 655/655/655 656/656/656
f 657/657/657 658/658/658 659/659/659
f 657/657/657 659/659/659 660/660/660
f 661/661/661 662/662/662 654/654/654
f 661/661/661 654/654/654 653/653/653
f 663/663/663 664/664/664 662/662/662
f 663/663/663 662/662/662 661/661/661
f 665/665/665 666/666/666 667/667/667
f 665/665/665 667/667/667 668/668/668
f 660/660/660 659/659/659 666/666/666
f 660/660/660 666/666/666 665/665/665
f 669/669/669 670/670/670 671/671/671
f 669/669/669 671/671/671 672/672/672
f 673/673/673 674/674/674 675/675/675
f 673/673/673 675/675/675 676/676/676
f 677/677/677 678/678/678 679/679/679
f 677/677/677 679/679/679 680/680/680
f 672/672/672 671/671/671 678/678/678
f 672/672/672 678/678/678 677/677/677
f 681/681/681 682/682/682 674/674/674
f 681/681/681 674/674/674 673/673/673
f 683/683/683 684/684/684 682/682/682
f 683/683/683 682/682/682 681/681/681
f 685/685/685 686/686/686 687/687/687
f 685/685/685 687/687/687 688/688/688
f 689/689/689 690/690/690 691/691/691
f 689/689/689 691/691/691 692/692/692
f 693/693/693 694/694/694 686/686/686
f 693/693/693 686/686/686 685/685/685
f 695/695/695 696/696/696 694/694/694
f 695/695/695 694/694/694 693/693/693
f 697/697/697 698/698/698 690/690/690
f 697/697/697 690/690/690 689/689/689
f 699/699/699 700/700/700 698/698/698
f 699/699/699 698/698/698 697/697/697
f 701/701/701 702/702/702 703/703/703
f 701/701/701 703/703/703 704/704/704
f 702/702/702 653/653/653 656/656/656
f 702/702/702 656/656/656 703/703/703
f 705/705/705 706/706/706 707/707/707
f 705/705/705 707/707/707 708/708/708
f 706/706/706 657/657/657 660/660/660
f 706/706/706 660/660/660 707/707/707
f 709/709/709 710/710/710 702/702/702
f 709/709/709 702/702/702 701/701/701
f 710/710/710 661/661/661 653/653/653
f 710/710/710 653/653/653 702/702/702
f 711/711/711 712/712/712 710/710/710
f 711/711/711 710/710/710 709/709/709
f 712/712/712 663/663/663 661/661/661
f 712/712/712 661/661/661 710/710/710
f 713/713/713 714/714/714 715/715/715
f 713/713/713 715/715/715 716/716/716
f 714/714/714 665/665/665 668/668/668
f 714/714/714 668/668/668 715/715/715
f 708/708/708 707/707/707 714/714/714
f 708/708/708 714/714/714 713/713/713
f 707/707/707 660/660/660 665/665/665
f 707/707/707 665/665/665 714/714/714
f 582/582/582 717/717/717 718/718/718
f 582/582/582 718/718/718 583/583/583
f 717/717/717 669/669/669 672/672/672
f 717/717/717 672/672/672 718/718/718
f 578/578/578 719/719/719 720/720/720
f 578/578/578 720/720/720 579/579/579
f 719/719/719 673/673/673 676/676/676
f 719/719/719 676/676/676 720/720/720
f 590/590/590 721/721/721 722/722/722
f 590/590/590 722/722/722 591/591/591
f 721/721/721 677/677/677 680/680/680
f 721/721/721 680/680/680 722/722/722
f 583/583/583 718/718/718 721/721/721
f 583/583/583 721/721/721 590/590/590
f 718/718/718 672/672/672 677/677/677
f 718/718/718 677/677/677 721/721/721
f 586/586/586 723/723/723 719/719/719
f 586/586/586 719/719/719 578/578/578
f 723/723/723 681/681/681 673/673/673
f 723/723/723 673/673/673 719/719/719
f 588/588/588 724/724/724 723/723/723
f 588/588/588 723/723/723 586/586/586
f 724/724/724 683/683/683 681/681/681
f 724/724/724 681/681/681 723/723/723
f 725/725/725 726/726/726 727/727/727
f 725/725/725 727/727/727 728/728/728
f 726/726/726 685/685/685 688/688/688
f 726/726/726 688/688/688 727/727/727
f 690/690/690 729/729/729 730/730/730
f 690/690/690 730/730/730 691/691/691
f 729/729/729 731/731/731 732/732/732
f 729/729/729 732/732/732 730/730/730
f 733/733/733 734/734/734 726/726/726
f 733/733/733 726/726/726 725/725/725
f 734/734/734 693/693/693 685/685/685
f 734/734/734 685/685/685 726/726/726
f 735/735/735 736/736/736 734/734/734
f 735/735/735 734/734/734 733/733/733
f 736/736/736 695/695/695 693/693/693
f 736/736/736 693/693/693 734/734/734
f 698/698/698 737/737/737 729/729/729
f 698/698/698 729/729/729 690/690/690
f 737/737/737 738/738/738 731/731/731
f 737/737/737 731/731/731 729/729/729
f 700/700/700 739/739/739 737/737/737
f 700/700/700 737/737/737 698/698/698
f 739/739/739 740/740/740 738/738/738
f 739/739/739 738/738/738 737/737/737
f 552/552/552 741/741/741 742/742/742
f 552/552/552 742/742/742 549/549/549
f 743/743/743 744/744/744 745/745/745
f 743/743/743 745/745/745 746/746/746
f 557/557/557 747/747/747 748/748/748
f 557/557/557 748/748/748 559/559/559
f 549/549/549 742/742/742 747/747/747
f 549/549/549 747/747/747 557/557/557
f 749/749/749 750/750/750 744/744/744
f 749/749/749 744/744/744 743/743/743
f 751/751/751 752/752/752 750/750/750
f 751/751/751 750/750/750 749/749/749
f 753/753/753 754/754/754 755/755/755
f 753/753/753 755/755/755 756/756/756
f 757/757/757 758/758/758 759/759/759
f 757/757/757 759/759/759 760/760/760
f 761/761/761 762/762/762 754/754/754
f 761/761/761 754/754/754 753/753/753
f 763/763/763 764/764/764 762/762/762
f 763/763/763 762/762/762 761/761/761
f 765/765/765 766/766/766 767/767/767
f 765/765/765 767/767/767 768/768/768
f 760/760/760 759/759/759 766/766/766
f 760/760/760 766/766/766 765/765/765
f 741/741/741 769/769/769 770/770/770
f 741/741/741 770/770/770 742/742/742
f 769/769/769 771/771/771 772/772/772
f 769/769/769 772/772/772 770/770/770
f 744/744/744 773/773/773 774/774/774
f 744/744/744 774/774/774 745/745/745
f 773/773/773 775/775/775 776/776/776
f 773/773/773 776/776/776 774/774/774
f 747/747/747 777/777/777 778/778/778
f 747/747/747 778/778/778 748/748/748
f 777/777/777 779/779/779 780/780/780
f 777/777/777 780/780/780 778/778/778
f 742/742/742 770/770/770 777/777/777
f 742/742/742 777/777/777 747/747/747
f 770/770/770 772/772/772 779/779/779
f 770/770/770 779/779/779 777/777/777
f 750/750/750 781/781/781 773/773/773
f 750/750/750 773/773/773 744/744/744
f 781/781/781 782/782/782 775/775/775
f 781/781/781 775/775/775 773/773/773
f 752/752/752 783/783/783 781/781/781
f 752/752/752 781/781/781 750/750/750
f 783/783/783 784/784/784 782/782/782
f 783/783/783 782/782/782 781/781/781
f 754/754/754 785/785/785 786/786/786
f 754/754/754 786/786/786 755/755/755
f 785/785/785 787/787/787 788/788/788
f 785/785/785 788/788/788 786/786/786
f 758/758/758 789/789/789 790/790/790
f 758/758/758 790/790/790 759/759/759
f 789/789/789 791/791/791 792/792/792
f 789/789/789 792/792/792 790/790/790
f 762/762/762 793/793/793 785/785/785
f 762/762/762 785/785/785 754/754/754
f 793/793/793 794/794/794 787/787/787
f 793/793/793 787/787/787 785/785/785
f 764/764/764 795/795/795 793/793/793
f 764/764/764 793/793/793 762/762/762
f 795/795/795 796/796/796 794/794/794
f 795/795/795 794/794/794 793/793/793
f 766/766/766 797/797/797 798/798/798
f 766/766/766 798/798/798 767/767/767
f 797/797/797 799/799/799 800/800/800
f 797/797/797 800/800/800 798/798/798
f 759/759/759 790/790/790 797/797/797
f 759/759/759 797/797/797 766/766/766
f 790/790/790 792/792/792 799/799/799
f 790/790/790 799/799/799 797/797/797
