v -1.948483 0.616255 1.427466
v -1.953500 0.616333 1.430679
v -1.952049 0.615072 1.432125
v -1.947813 0.615083 1.429133
v -1.945339 0.614634 1.426268
v -1.944430 0.615463 1.424131
v -1.944936 0.615925 1.421191
v -1.949472 0.616838 1.424726
v -1.955096 0.617007 1.428048
v -1.956877 0.616411 1.432327
v -1.959225 0.616349 1.433118
v -1.957147 0.614887 1.434747
v -1.954958 0.615034 1.433803
v -1.958952 0.617156 1.429627
v -1.961574 0.617144 1.430336
v -1.961154 0.616006 1.433759
v -1.962611 0.614944 1.434021
v -1.961011 0.613981 1.435195
v -1.959228 0.614550 1.435537
v -1.963495 0.616831 1.431053
v -1.964756 0.615736 1.431532
v -1.950379 0.617383 1.421764
v -1.956123 0.617680 1.424932
v -1.945821 0.616284 1.418392
v -1.947322 0.616512 1.415429
v -1.951599 0.617707 1.418405
v -1.957102 0.618085 1.421277
v -1.960284 0.617803 1.426566
v -1.963179 0.617709 1.427536
v -1.961333 0.618211 1.423051
v -1.964391 0.618086 1.424462
v -1.965125 0.617356 1.428715
v -1.966271 0.616216 1.429683
v -1.966375 0.617709 1.426248
v -1.967507 0.616533 1.427788
v -1.953527 0.617624 1.414475
v -1.958553 0.617952 1.417032
v -1.949675 0.616582 1.411996
v -1.952387 0.616032 1.410191
v -1.955552 0.616694 1.411019
v -1.960157 0.616917 1.413309
v -1.962561 0.618240 1.418989
v -1.965564 0.618318 1.420858
v -1.963868 0.617315 1.415475
v -1.966706 0.617572 1.417811
v -1.967577 0.618016 1.423150
v -1.968816 0.616838 1.425160
v -1.968690 0.617372 1.420611
v -1.969408 0.616442 1.423001
v -1.961116 0.609854 1.431395
v -1.958157 0.609875 1.429734
v -1.956730 0.610151 1.432101
v -1.959607 0.610111 1.433387
v -1.961479 0.610764 1.433952
v -1.963274 0.610607 1.432782
v -1.964947 0.611133 1.430871
v -1.962933 0.610363 1.429381
v -1.960132 0.610416 1.427240
v -1.955487 0.610083 1.428017
v -1.952627 0.610299 1.426019
v -1.951669 0.610542 1.429581
v -1.954269 0.610324 1.431069
v -1.957320 0.610634 1.424628
v -1.954109 0.610798 1.421947
v -1.949100 0.610345 1.423516
v -1.945880 0.611050 1.421787
v -1.946164 0.611390 1.424685
v -1.948373 0.610718 1.426927
v -1.950112 0.610685 1.419599
v -1.946476 0.611276 1.418353
v -1.964624 0.610646 1.427613
v -1.962149 0.610697 1.424871
v -1.966313 0.611424 1.429427
v -1.967699 0.611625 1.427874
v -1.966386 0.610851 1.425621
v -1.964271 0.610898 1.422298
v -1.959343 0.610846 1.421495
v -1.955891 0.610928 1.418309
v -1.961553 0.610972 1.418499
v -1.957981 0.610988 1.415126
v -1.951482 0.610777 1.416135
v -1.947473 0.611387 1.415305
v -1.953305 0.610861 1.413082
v -1.949056 0.611531 1.412458
v -1.968420 0.611129 1.422934
v -1.966559 0.611201 1.419191
v -1.969432 0.611881 1.425636
v -1.970089 0.612715 1.423249
v -1.969817 0.612222 1.420639
v -1.968060 0.612332 1.416808
v -1.963948 0.611265 1.415518
v -1.960386 0.611274 1.412420
v -1.965493 0.612352 1.413553
v -1.961970 0.612309 1.410887
v -1.955675 0.611182 1.410402
v -1.957344 0.612226 1.408825
v -1.953716 0.612661 1.408616
v -1.951411 0.611855 1.409629
v -1.969672 0.614872 1.419819
v -1.967824 0.615016 1.416404
v -1.968060 0.612332 1.416808
v -1.969817 0.612222 1.420639
v -1.970089 0.612715 1.423249
v -1.970348 0.614578 1.423270
v -1.965156 0.614861 1.413600
v -1.961595 0.614613 1.411222
v -1.961970 0.612309 1.410887
v -1.965493 0.612352 1.413553
v -1.957064 0.614479 1.409083
v -1.952588 0.614360 1.408371
v -1.957344 0.612226 1.408825
v -1.958845 0.612131 1.435090
v -1.956354 0.612322 1.434090
v -1.961322 0.612178 1.435263
v -1.954090 0.612490 1.433190
v -1.951458 0.612637 1.431687
v -1.947860 0.612767 1.428876
v -1.944841 0.612947 1.425453
v -1.969500 0.614288 1.426183
v -1.968010 0.614012 1.428463
v -1.969432 0.611881 1.425636
v -1.967699 0.611625 1.427874
v -1.966764 0.613759 1.430019
v -1.965398 0.613380 1.431530
v -1.966313 0.611424 1.429427
v -1.964947 0.611133 1.430871
v -1.963545 0.612724 1.433677
v -1.963274 0.610607 1.432782
v -1.943943 0.613242 1.422115
v -1.944344 0.613547 1.418975
v -1.945219 0.613754 1.416148
v -1.946768 0.613934 1.413343
v -1.949190 0.614157 1.410271
v -1.976727 0.613471 1.465645
v -1.973513 0.613403 1.465512
v -1.974833 0.611166 1.466749
v -1.978047 0.611313 1.467038
v -1.979947 0.611916 1.468281
v -1.979595 0.613447 1.467187
v -1.978306 0.615024 1.467964
v -1.975878 0.615795 1.466849
v -1.972474 0.616010 1.466911
v -1.970748 0.613226 1.465814
v -1.969443 0.615980 1.467262
v -1.966458 0.615788 1.467842
v -1.967960 0.613007 1.466479
v -1.969028 0.610782 1.467742
v -1.971981 0.610982 1.467041
v -1.964673 0.612815 1.467431
v -1.963191 0.615516 1.468592
v -1.961257 0.614903 1.469993
v -1.961630 0.612843 1.469306
v -1.962830 0.611169 1.469964
v -1.965510 0.610586 1.468679
v -1.961548 0.614420 1.488268
v -1.959059 0.613593 1.486441
v -1.958939 0.615777 1.486308
v -1.960743 0.617029 1.487658
v -1.964165 0.618118 1.489077
v -1.964494 0.615380 1.489534
v -1.965008 0.612678 1.488577
v -1.962380 0.611897 1.487438
v -1.960454 0.611966 1.485999
v -1.966756 0.615853 1.490450
v -1.966881 0.618538 1.489995
v -1.969557 0.618614 1.490331
v -1.969074 0.616083 1.490965
v -1.969467 0.613534 1.490091
v -1.967147 0.613183 1.489466
v -1.972187 0.616314 1.491030
v -1.972862 0.618673 1.490004
v -1.975279 0.618005 1.489160
v -1.975484 0.616379 1.490036
v -1.975269 0.614543 1.489674
v -1.972641 0.613851 1.490438
v -1.959573 0.613282 1.472738
v -1.959480 0.616059 1.472837
v -1.958303 0.616861 1.477076
v -1.958407 0.613753 1.476385
v -1.960488 0.611006 1.475773
v -1.961570 0.610743 1.472394
v -1.958041 0.613876 1.478908
v -1.957814 0.617129 1.480055
v -1.957746 0.616962 1.482383
v -1.958089 0.613762 1.481122
v -1.960237 0.611039 1.480575
v -1.960185 0.611052 1.478200
v -1.958167 0.613521 1.483846
v -1.957834 0.616456 1.484667
v -1.960218 0.611122 1.483797
v -1.981320 0.613348 1.471111
v -1.981612 0.611458 1.471292
v -1.982325 0.611780 1.476111
v -1.982003 0.613554 1.475904
v -1.979747 0.615688 1.475645
v -1.979201 0.615467 1.470793
v -1.981744 0.614442 1.480055
v -1.981706 0.612542 1.480332
v -1.980013 0.613355 1.484176
v -1.980532 0.615473 1.483800
v -1.978972 0.617719 1.483676
v -1.979737 0.616629 1.479899
v -1.978355 0.616109 1.487377
v -1.977502 0.613829 1.487864
v -1.977253 0.618386 1.487098
v -1.979443 0.610805 1.470788
v -1.980056 0.611247 1.475563
v -1.982325 0.611780 1.476111
v -1.981612 0.611458 1.471292
v -1.979947 0.611916 1.468281
v -1.978047 0.611313 1.467038
v -1.976070 0.610725 1.470254
v -1.976426 0.611234 1.474875
v -1.979026 0.611943 1.480031
v -1.975104 0.611846 1.479460
v -1.972981 0.612370 1.483751
v -1.976979 0.612599 1.484152
v -1.980013 0.613355 1.484176
v -1.981706 0.612542 1.480332
v -1.974545 0.612924 1.487883
v -1.970936 0.612615 1.487491
v -1.972641 0.613851 1.490438
v -1.975269 0.614543 1.489674
v -1.977502 0.613829 1.487864
v -1.972750 0.610553 1.470346
v -1.969196 0.610324 1.470880
v -1.968649 0.610686 1.474814
v -1.972667 0.611017 1.474663
v -1.971344 0.611451 1.478924
v -1.967569 0.610924 1.478468
v -1.966404 0.611156 1.482045
v -1.969568 0.611829 1.482996
v -1.968127 0.612124 1.486746
v -1.965598 0.611505 1.485748
v -1.965124 0.610072 1.471668
v -1.964245 0.610333 1.475217
v -1.963606 0.610429 1.478141
v -1.963151 0.610532 1.481061
v -1.962829 0.610811 1.484598
v -1.974344 0.619286 1.487707
v -1.970714 0.619481 1.488406
v -1.971809 0.619390 1.485402
v -1.975772 0.618857 1.484454
v -1.976285 0.618089 1.480561
v -1.972109 0.619047 1.481528
v -1.972053 0.618441 1.476821
v -1.976214 0.617299 1.476038
v -1.975892 0.616802 1.470890
v -1.972081 0.617559 1.471315
v -1.967446 0.619642 1.488399
v -1.964136 0.619398 1.487665
v -1.964136 0.619780 1.485402
v -1.967960 0.619821 1.485787
v -1.967932 0.619729 1.482283
v -1.963896 0.619829 1.482396
v -1.963990 0.619291 1.478254
v -1.967914 0.619169 1.477733
v -1.968458 0.617940 1.471980
v -1.964989 0.617913 1.472585
v -1.960378 0.618375 1.486180
v -1.960246 0.618898 1.484038
v -1.960144 0.619038 1.481436
v -1.960475 0.618614 1.477867
v -1.961641 0.617444 1.472828
v -1.911817 0.614093 1.477846
v -1.909833 0.614696 1.480825
v -1.912364 0.611923 1.481161
v -1.914596 0.611454 1.478455
v -1.916919 0.611817 1.477273
v -1.915183 0.613506 1.476190
v -1.914640 0.615358 1.477213
v -1.911707 0.616639 1.478435
v -1.909718 0.617436 1.481691
v -1.908915 0.615164 1.483733
v -1.908883 0.617815 1.484793
v -1.908731 0.617929 1.487738
v -1.908677 0.615490 1.486547
v -1.910699 0.613060 1.486707
v -1.911181 0.612509 1.483914
v -1.908732 0.615668 1.489245
v -1.908792 0.617932 1.490520
v -1.909822 0.617354 1.492645
v -1.909737 0.615762 1.492144
v -1.910984 0.614151 1.491925
v -1.910570 0.613425 1.489538
v -1.928792 0.614596 1.504754
v -1.926482 0.614594 1.505573
v -1.925543 0.616046 1.505460
v -1.926872 0.616458 1.504866
v -1.928764 0.616496 1.503000
v -1.930721 0.614682 1.503149
v -1.931109 0.613022 1.502181
v -1.929115 0.612924 1.503665
v -1.926972 0.613347 1.504249
v -1.932459 0.614665 1.501815
v -1.930584 0.616535 1.501255
v -1.932586 0.616425 1.498782
v -1.934332 0.614492 1.499783
v -1.934773 0.612537 1.498809
v -1.932873 0.612869 1.500845
v -1.936667 0.614106 1.496085
v -1.935027 0.616018 1.494736
v -1.936366 0.615130 1.491316
v -1.938114 0.613654 1.491513
v -1.938042 0.612268 1.491707
v -1.937173 0.612096 1.495221
v -1.912345 0.615839 1.495561
v -1.911745 0.617860 1.495291
v -1.915231 0.617728 1.498634
v -1.915489 0.615809 1.498739
v -1.916069 0.613830 1.497173
v -1.913036 0.613753 1.494242
v -1.918099 0.615585 1.500916
v -1.918066 0.617485 1.501332
v -1.920635 0.617151 1.503476
v -1.920646 0.615243 1.502662
v -1.921557 0.613367 1.500850
v -1.918764 0.613667 1.499133
v -1.923603 0.614862 1.504545
v -1.923323 0.616747 1.505161
v -1.924883 0.613032 1.503055
v -1.920247 0.613085 1.477249
v -1.921124 0.611083 1.478030
v -1.926735 0.611100 1.480039
v -1.925838 0.612857 1.479375
v -1.923204 0.615068 1.480327
v -1.917823 0.615499 1.477963
v -1.930786 0.612846 1.480917
v -1.931600 0.611197 1.481821
v -1.935406 0.611353 1.484280
v -1.934733 0.613003 1.483029
v -1.932441 0.615033 1.484145
v -1.928234 0.614930 1.482021
v -1.937322 0.613279 1.486861
v -1.937835 0.611551 1.488321
v -1.935349 0.615323 1.487799
v -1.919280 0.610639 1.480142
v -1.924681 0.610789 1.482438
v -1.916580 0.611100 1.482884
v -1.921581 0.611324 1.485524
v -1.929608 0.611047 1.484873
v -1.926465 0.611694 1.488613
v -1.930629 0.611989 1.492081
v -1.933583 0.611291 1.487885
v -1.936125 0.611399 1.491910
v -1.933469 0.611986 1.495861
v -1.934773 0.612537 1.498809
v -1.937173 0.612096 1.495221
v -1.938042 0.612268 1.491707
v -1.937835 0.611551 1.488321
v -1.914888 0.611811 1.485557
v -1.913932 0.612499 1.488376
v -1.917786 0.612812 1.491037
v -1.919336 0.612108 1.488250
v -1.923826 0.612438 1.491580
v -1.921669 0.613002 1.494172
v -1.925443 0.612999 1.497349
v -1.927911 0.612621 1.495111
v -1.931142 0.612476 1.498405
v -1.928970 0.612733 1.500133
v -1.931109 0.613022 1.502181
v -1.932873 0.612869 1.500845
v -1.913440 0.612893 1.491559
v -1.916766 0.613109 1.494308
v -1.919968 0.613109 1.496787
v -1.923241 0.612933 1.499171
v -1.926777 0.612620 1.501634
v -1.924883 0.613032 1.503055
v -1.926972 0.613347 1.504249
v -1.929115 0.612924 1.503665
v -1.932674 0.616420 1.491407
v -1.929976 0.616914 1.495803
v -1.926498 0.616887 1.492092
v -1.929405 0.616235 1.487643
v -1.925016 0.616386 1.484991
v -1.922146 0.617276 1.488897
v -1.917403 0.617796 1.486098
v -1.920044 0.616743 1.482779
v -1.915028 0.617175 1.480336
v -1.912751 0.618159 1.483572
v -1.927933 0.617148 1.499104
v -1.926198 0.617245 1.501696
v -1.923153 0.617496 1.499445
v -1.924591 0.617270 1.496057
v -1.920643 0.617665 1.492808
v -1.919762 0.617816 1.496455
v -1.915972 0.618168 1.493192
v -1.916326 0.618140 1.489649
v -1.911880 0.618498 1.486871
v -1.911729 0.618513 1.490119
v -1.924424 0.617326 1.503963
v -1.921652 0.617679 1.502161
v -1.918762 0.617992 1.499570
v -1.915499 0.618272 1.496486
v -1.911612 0.618526 1.493201
v -1.937945 0.621561 1.375755
v -1.937753 0.622228 1.379059
v -1.937930 0.619256 1.378049
v -1.938279 0.618576 1.374735
v -1.939679 0.618220 1.372849
v -1.939343 0.620222 1.372945
v -1.940638 0.621770 1.374137
v -1.939933 0.623587 1.376434
v -1.939996 0.624473 1.379845
v -1.937927 0.622279 1.381947
v -1.940293 0.624623 1.382961
v -1.940756 0.624261 1.386074
v -1.938409 0.621914 1.384866
v -1.938609 0.619140 1.384116
v -1.938096 0.619394 1.381032
v -1.939143 0.621332 1.388260
v -1.941316 0.623611 1.389476
v -1.942293 0.622424 1.391573
v -1.940788 0.620597 1.391406
v -1.940650 0.618714 1.390412
v -1.939301 0.618646 1.387729
v -1.958433 0.615135 1.392164
v -1.956366 0.615001 1.394692
v -1.957296 0.617431 1.394538
v -1.959152 0.618231 1.392628
v -1.960981 0.618688 1.389117
v -1.960034 0.615590 1.389133
v -1.957831 0.613051 1.388877
v -1.956462 0.612682 1.391582
v -1.955204 0.613369 1.393452
v -1.961011 0.615598 1.386844
v -1.961928 0.618516 1.386389
v -1.962150 0.618045 1.383778
v -1.961481 0.615379 1.384563
v -1.959453 0.613190 1.384422
v -1.958800 0.613201 1.386710
v -1.961565 0.615149 1.381556
v -1.961804 0.617605 1.380615
v -1.960718 0.616922 1.378365
v -1.960703 0.615106 1.378384
v -1.959565 0.613643 1.378778
v -1.959873 0.613078 1.381359
v -1.944002 0.619775 1.393579
v -1.945313 0.622565 1.393348
v -1.949435 0.621936 1.394608
v -1.947435 0.618943 1.394856
v -1.945676 0.616308 1.393046
v -1.942591 0.617356 1.391834
v -1.949735 0.618178 1.395316
v -1.952236 0.621207 1.395194
v -1.954275 0.620226 1.395389
v -1.951666 0.617255 1.395380
v -1.949941 0.614474 1.393511
v -1.947839 0.615412 1.393452
v -1.953994 0.615952 1.395468
v -1.956112 0.618842 1.395479
v -1.952844 0.613296 1.393685
v -1.942786 0.618152 1.371537
v -1.942202 0.616171 1.371486
v -1.946680 0.614502 1.371246
v -1.947130 0.616359 1.371282
v -1.947583 0.619072 1.373122
v -1.943270 0.620877 1.373356
v -1.951234 0.615851 1.371932
v -1.950767 0.613952 1.372265
v -1.954458 0.613814 1.374198
v -1.955002 0.615818 1.373402
v -1.955752 0.618226 1.374529
v -1.951831 0.618427 1.373482
v -1.958336 0.615450 1.375610
v -1.957747 0.613381 1.376702
v -1.959087 0.617753 1.376353
v -1.941461 0.616182 1.373728
v -1.945943 0.614550 1.373522
v -1.940906 0.616957 1.377123
v -1.945245 0.615346 1.377068
v -1.950178 0.613850 1.374904
v -1.949513 0.614436 1.378668
v -1.953442 0.613804 1.380981
v -1.954014 0.613490 1.377168
v -1.954458 0.613814 1.374198
v -1.950767 0.613952 1.372265
v -1.957301 0.612878 1.379608
v -1.956764 0.613027 1.383063
v -1.959453 0.613190 1.384422
v -1.959873 0.613078 1.381359
v -1.959565 0.613643 1.378778
v -1.957747 0.613381 1.376702
v -1.940883 0.617269 1.380531
v -1.941215 0.617210 1.384187
v -1.944854 0.615792 1.384920
v -1.944916 0.615730 1.380845
v -1.948821 0.614602 1.382377
v -1.948155 0.614558 1.386154
v -1.951375 0.613520 1.387440
v -1.952512 0.613717 1.384305
v -1.955903 0.612912 1.385806
v -1.954772 0.612689 1.388330
v -1.957831 0.613051 1.388877
v -1.958800 0.613201 1.386710
v -1.941723 0.616870 1.388330
v -1.944962 0.615621 1.389361
v -1.947570 0.614517 1.390121
v -1.950181 0.613500 1.390686
v -1.953428 0.612513 1.391131
v -1.952844 0.613296 1.393685
v -1.955204 0.613369 1.393452
v -1.956462 0.612682 1.391582
v -1.960018 0.618959 1.378953
v -1.960760 0.619639 1.382362
v -1.957851 0.620801 1.380994
v -1.956816 0.619760 1.377327
v -1.952808 0.620558 1.376494
v -1.953962 0.622171 1.380356
v -1.949351 0.623513 1.380154
v -1.948330 0.621592 1.376257
v -1.943717 0.623099 1.376419
v -1.944279 0.624591 1.380096
v -1.960947 0.620363 1.385528
v -1.960273 0.620728 1.388849
v -1.958298 0.622170 1.388588
v -1.958516 0.621726 1.384728
v -1.955086 0.623188 1.384456
v -1.955449 0.623475 1.388593
v -1.951390 0.624451 1.388359
v -1.950627 0.624428 1.384279
v -1.945111 0.625123 1.383759
v -1.945787 0.624910 1.387379
v -1.958433 0.620328 1.392719
v -1.956685 0.621768 1.392633
v -1.954320 0.622894 1.392562
v -1.950873 0.623697 1.392122
v -1.945882 0.624167 1.390928
vn 0.321500 0.898900 0.297600
vn 0.203700 0.922400 0.328000
vn 0.475600 0.457200 0.751500
vn 0.612000 0.418000 0.671300
vn 0.786600 0.308000 0.535200
vn 0.784300 0.583400 0.210900
vn 0.680200 0.732000 -0.038500
vn 0.198200 0.972000 0.126300
vn 0.116400 0.978500 0.170000
vn 0.148000 0.917400 0.369300
vn 0.061900 0.903100 0.424800
vn 0.296200 0.420600 0.857500
vn 0.379600 0.442300 0.812600
vn 0.074600 0.978000 0.194500
vn -0.005100 0.969300 0.245900
vn -0.174800 0.790600 0.586900
vn -0.515500 0.425100 0.743900
vn -0.304300 0.216800 0.927600
vn 0.077500 0.347700 0.934400
vn -0.241800 0.874400 0.420700
vn -0.591300 0.499700 0.633000
vn 0.184700 0.980200 0.070800
vn 0.099400 0.987200 0.124900
vn 0.613700 0.775000 -0.150500
vn 0.534100 0.801100 -0.270000
vn 0.146900 0.988800 -0.025700
vn 0.063600 0.997700 0.025400
vn 0.053100 0.988400 0.141900
vn -0.019400 0.984800 0.172400
vn 0.031800 0.998000 0.053800
vn -0.028000 0.994600 0.100100
vn -0.253000 0.911400 0.324500
vn -0.615500 0.549500 0.564900
vn -0.258000 0.937900 0.231800
vn -0.643600 0.608300 0.464500
vn 0.065600 0.981700 -0.179000
vn -0.005400 0.990400 -0.137900
vn 0.402000 0.807900 -0.430900
vn 0.146100 0.794900 -0.588900
vn -0.087200 0.864500 -0.495000
vn -0.186500 0.872200 -0.452100
vn -0.025200 0.992700 -0.118000
vn -0.121200 0.990700 -0.061700
vn -0.262500 0.854400 -0.448400
vn -0.439400 0.814000 -0.380000
vn -0.366600 0.926900 0.080000
vn -0.707900 0.641700 0.295000
vn -0.656700 0.729100 -0.192800
vn -0.829500 0.556100 0.051100
vn -0.133100 -0.989000 0.064700
vn 0.006800 -0.999100 -0.042200
vn 0.210700 -0.897100 0.388400
vn 0.069100 -0.880200 0.469500
vn -0.252200 -0.741600 0.621600
vn -0.512000 -0.740800 0.434800
vn -0.594400 -0.711900 0.373800
vn -0.192800 -0.980900 -0.024200
vn -0.052500 -0.991500 -0.118500
vn 0.031800 -0.998300 -0.048300
vn 0.022900 -0.999400 -0.025800
vn 0.305400 -0.880100 0.363400
vn 0.257500 -0.888100 0.380800
vn -0.024900 -0.994700 -0.099800
vn -0.035000 -0.997300 -0.064900
vn 0.115900 -0.993200 -0.011100
vn 0.509300 -0.859900 -0.034400
vn 0.548700 -0.804900 0.225900
vn 0.380800 -0.870200 0.312400
vn 0.047600 -0.996400 -0.069900
vn 0.485100 -0.856900 -0.174300
vn -0.175900 -0.983800 0.033100
vn -0.034200 -0.997300 -0.064100
vn -0.587800 -0.693000 0.417400
vn -0.620900 -0.665000 0.414900
vn -0.184200 -0.981700 0.049000
vn -0.044600 -0.997700 -0.050600
vn -0.012000 -0.998800 -0.047200
vn -0.021800 -0.999500 -0.020700
vn -0.033500 -0.998400 -0.046100
vn -0.037400 -0.998400 -0.041000
vn 0.053300 -0.996900 -0.056600
vn 0.486100 -0.833200 -0.263400
vn 0.046200 -0.992900 -0.109300
vn 0.463000 -0.797100 -0.387600
vn -0.383300 -0.923200 -0.027200
vn -0.214700 -0.966300 -0.142000
vn -0.753800 -0.588800 0.291500
vn -0.928600 -0.369200 0.038000
vn -0.815600 -0.525500 -0.242200
vn -0.710800 -0.526300 -0.466600
vn -0.182900 -0.966700 -0.179100
vn -0.147400 -0.961600 -0.231300
vn -0.599300 -0.485700 -0.636300
vn -0.460200 -0.449400 -0.765600
vn -0.022100 -0.936300 -0.350300
vn -0.239200 -0.447300 -0.861800
vn 0.070200 -0.404000 -0.912000
vn 0.344300 -0.689400 -0.637300
vn -0.919500 0.217000 -0.327800
vn -0.759700 0.305300 -0.574100
vn -0.710800 -0.526300 -0.466600
vn -0.815600 -0.525500 -0.242200
vn -0.928600 -0.369200 0.038000
vn -0.984100 0.166100 0.062000
vn -0.572300 0.400600 -0.715500
vn -0.419400 0.457200 -0.784300
vn -0.460200 -0.449400 -0.765600
vn -0.599300 -0.485700 -0.636300
vn -0.240400 0.433700 -0.868400
vn 0.208200 0.276700 -0.938100
vn -0.239200 -0.447300 -0.861800
vn 0.201200 -0.409000 0.890000
vn 0.367600 -0.411000 0.834300
vn -0.288100 -0.305400 0.907600
vn 0.431700 -0.380400 0.817900
vn 0.528500 -0.365600 0.766100
vn 0.640300 -0.377100 0.669200
vn 0.841500 -0.360600 0.402200
vn -0.899100 0.110200 0.423700
vn -0.809600 0.039900 0.585600
vn -0.753800 -0.588800 0.291500
vn -0.620900 -0.665000 0.414900
vn -0.767200 -0.020100 0.641000
vn -0.755500 -0.055100 0.652800
vn -0.587800 -0.693000 0.417400
vn -0.594400 -0.711900 0.373800
vn -0.677700 -0.123400 0.724800
vn -0.512000 -0.740800 0.434800
vn 0.972100 -0.234200 0.006200
vn 0.963100 -0.133900 -0.233500
vn 0.919200 -0.063600 -0.388700
vn 0.840000 0.000400 -0.542500
vn 0.655400 0.100200 -0.748600
vn -0.268700 0.063800 -0.961100
vn 0.026000 -0.017200 -0.999500
vn -0.041000 -0.810400 -0.584300
vn -0.294400 -0.738600 -0.606400
vn -0.699800 -0.479300 -0.529600
vn -0.698200 0.222400 -0.680500
vn -0.504200 0.749000 -0.429900
vn -0.218800 0.769200 -0.600300
vn 0.004700 0.751800 -0.659400
vn 0.154200 -0.069900 -0.985500
vn 0.124600 0.702900 -0.700200
vn 0.203300 0.650200 -0.732000
vn 0.229800 -0.121700 -0.965600
vn 0.078700 -0.841000 -0.535200
vn 0.033100 -0.828000 -0.559700
vn 0.375300 -0.183500 -0.908600
vn 0.398000 0.538700 -0.742600
vn 0.696400 0.313600 -0.645400
vn 0.686800 -0.270200 -0.674700
vn 0.473100 -0.749700 -0.462700
vn 0.208700 -0.829600 -0.517900
vn 0.446800 -0.190100 0.874200
vn 0.729700 -0.342600 0.591700
vn 0.766500 0.114200 0.631900
vn 0.554500 0.320600 0.767900
vn 0.385100 0.452800 0.804200
vn 0.345200 -0.123100 0.930400
vn 0.111500 -0.703400 0.701900
vn 0.217800 -0.734700 0.642500
vn 0.490700 -0.727300 0.479700
vn 0.264900 -0.085600 0.960400
vn 0.221600 0.548700 0.806100
vn 0.029000 0.626700 0.778700
vn 0.106000 -0.028400 0.994000
vn 0.037000 -0.677600 0.734500
vn 0.103900 -0.692600 0.713800
vn -0.134200 0.053800 0.989500
vn -0.187800 0.682800 0.706000
vn -0.456100 0.584600 0.671000
vn -0.494800 0.121900 0.860400
vn -0.429100 -0.438300 0.789800
vn -0.142300 -0.614600 0.775900
vn 0.883200 -0.296800 -0.363000
vn 0.797000 0.418300 -0.435700
vn 0.855800 0.453400 -0.249100
vn 0.935800 -0.296000 -0.191500
vn 0.545300 -0.834000 -0.083600
vn 0.514000 -0.833000 -0.204600
vn 0.943900 -0.322400 -0.071600
vn 0.900000 0.428500 -0.080100
vn 0.923200 0.378600 0.065500
vn 0.928000 -0.372400 -0.002000
vn 0.505200 -0.862900 0.009800
vn 0.537900 -0.842500 -0.028600
vn 0.900800 -0.401300 0.165700
vn 0.914100 0.270500 0.302000
vn 0.493500 -0.855800 0.155100
vn -0.880300 0.390100 -0.269900
vn -0.805500 -0.548100 -0.225300
vn -0.823500 -0.563300 0.067100
vn -0.908700 0.409900 -0.078800
vn -0.564000 0.815000 -0.133000
vn -0.552400 0.810000 -0.196600
vn -0.930800 0.351000 0.101500
vn -0.760900 -0.579200 0.292400
vn -0.668300 -0.596700 0.444300
vn -0.906300 0.263600 0.330300
vn -0.609900 0.790000 0.061600
vn -0.583000 0.805100 -0.108800
vn -0.786600 0.172800 0.592800
vn -0.564900 -0.578900 0.588000
vn -0.566300 0.747400 0.347200
vn -0.195400 -0.976400 -0.091800
vn -0.120400 -0.985800 0.117000
vn -0.823500 -0.563300 0.067100
vn -0.805500 -0.548100 -0.225300
vn -0.699800 -0.479300 -0.529600
vn -0.294400 -0.738600 -0.606400
vn -0.040000 -0.998800 -0.028100
vn -0.022700 -0.992400 0.120600
vn -0.109000 -0.974500 0.196000
vn -0.043000 -0.988500 0.145000
vn -0.078700 -0.987700 0.134800
vn -0.142600 -0.967700 0.207700
vn -0.668300 -0.596700 0.444300
vn -0.760900 -0.579200 0.292400
vn -0.174400 -0.922500 0.344400
vn -0.075000 -0.964500 0.253100
vn -0.142300 -0.614600 0.775900
vn -0.429100 -0.438300 0.789800
vn -0.564900 -0.578900 0.588000
vn -0.055300 -0.998200 -0.022400
vn -0.056900 -0.998000 -0.025100
vn -0.093300 -0.990500 0.101100
vn -0.074800 -0.990300 0.116800
vn -0.102700 -0.985500 0.134900
vn -0.121300 -0.987200 0.103100
vn -0.157400 -0.980700 0.116400
vn -0.137900 -0.980700 0.138100
vn -0.105300 -0.958800 0.263800
vn -0.127600 -0.957500 0.258700
vn 0.081300 -0.994300 -0.069100
vn 0.042900 -0.997800 0.049500
vn 0.031500 -0.998700 0.039600
vn 0.009400 -0.998100 0.060900
vn 0.029400 -0.975200 0.219100
vn -0.228300 0.950600 0.210400
vn -0.064600 0.972300 0.224800
vn -0.110700 0.992600 -0.049300
vn -0.233600 0.968900 -0.080900
vn -0.271000 0.949300 -0.158800
vn -0.156900 0.980900 -0.115200
vn -0.165500 0.974900 -0.148600
vn -0.298500 0.943800 -0.142100
vn -0.267500 0.944200 -0.192000
vn -0.102500 0.964500 -0.243400
vn 0.058200 0.944500 0.323100
vn 0.270600 0.875300 0.400700
vn 0.146600 0.984800 0.093100
vn -0.044400 0.998700 0.023200
vn -0.073800 0.994300 -0.076200
vn 0.100100 0.993900 -0.046200
vn 0.085400 0.979600 -0.181700
vn -0.059000 0.984600 -0.164800
vn 0.007700 0.954500 -0.298000
vn 0.109600 0.935100 -0.336900
vn 0.544200 0.724100 0.423600
vn 0.469300 0.873400 0.130200
vn 0.423900 0.904800 -0.040800
vn 0.373000 0.903400 -0.211500
vn 0.349700 0.851300 -0.391000
vn 0.640400 -0.247600 -0.727000
vn 0.872800 -0.302700 -0.382900
vn 0.485800 -0.865500 -0.122100
vn 0.339100 -0.865000 -0.369700
vn 0.053000 -0.712100 -0.700100
vn 0.138700 -0.099900 -0.985300
vn 0.032200 0.597300 -0.801300
vn 0.412800 0.632300 -0.655600
vn 0.644400 0.658700 -0.388400
vn 0.938700 -0.308100 -0.154200
vn 0.740900 0.651400 -0.163400
vn 0.766200 0.642200 -0.021400
vn 0.948100 -0.317900 -0.007500
vn 0.542700 -0.836200 0.078900
vn 0.536000 -0.844100 0.014800
vn 0.930400 -0.332300 0.154300
vn 0.801800 0.563800 0.197900
vn 0.825300 0.262000 0.500300
vn 0.821700 -0.362700 0.439500
vn 0.602600 -0.710400 0.363500
vn 0.556400 -0.813500 0.169300
vn -0.488700 -0.006000 0.872400
vn -0.032500 -0.305900 0.951500
vn 0.000900 0.318000 0.948100
vn -0.324400 0.703500 0.632400
vn -0.381900 0.832400 0.401400
vn -0.624500 0.177400 0.760600
vn -0.376900 -0.767400 0.518600
vn -0.291400 -0.796700 0.529500
vn 0.037800 -0.812500 0.581700
vn -0.664000 0.243500 0.707000
vn -0.369500 0.868300 0.331000
vn -0.399900 0.890300 0.217800
vn -0.758300 0.318300 0.568900
vn -0.536300 -0.681100 0.498500
vn -0.425500 -0.722800 0.544500
vn -0.843600 0.381800 0.377700
vn -0.461100 0.882100 0.096400
vn -0.549900 0.833900 -0.046500
vn -0.909500 0.415100 0.023000
vn -0.888700 -0.444300 0.113100
vn -0.709900 -0.609600 0.352700
vn 0.695300 -0.349700 0.627800
vn 0.640500 0.499300 0.583500
vn 0.541000 0.565900 0.622100
vn 0.632700 -0.370200 0.680200
vn 0.378400 -0.825500 0.418800
vn 0.450400 -0.791600 0.412900
vn 0.578900 -0.443000 0.684500
vn 0.514500 0.528500 0.675300
vn 0.474300 0.453200 0.754700
vn 0.522700 -0.519400 0.676000
vn 0.309200 -0.888700 0.338600
vn 0.335900 -0.861800 0.380100
vn 0.403200 -0.523500 0.750500
vn 0.296600 0.397400 0.868300
vn 0.241700 -0.890800 0.384800
vn -0.280600 0.143700 -0.949000
vn -0.169000 -0.730200 -0.661900
vn -0.231300 -0.761100 -0.606000
vn -0.332900 0.230000 -0.914500
vn -0.257500 0.800800 -0.540600
vn -0.228200 0.737300 -0.635800
vn -0.382200 0.223800 -0.896500
vn -0.308600 -0.773800 -0.553100
vn -0.548900 -0.714300 -0.434100
vn -0.615700 0.256100 -0.745200
vn -0.295100 0.857800 -0.420800
vn -0.220900 0.827300 -0.516400
vn -0.840200 0.355500 -0.409300
vn -0.759100 -0.629900 -0.164300
vn -0.429600 0.870600 -0.239600
vn 0.054400 -0.995200 -0.080500
vn -0.017200 -0.999400 0.028700
vn 0.133200 -0.984900 0.110900
vn 0.047000 -0.983100 0.176800
vn -0.013000 -0.998400 0.055000
vn 0.051100 -0.985600 0.161000
vn 0.087200 -0.989500 0.115000
vn -0.001900 -0.998700 0.050400
vn -0.148200 -0.984200 0.096500
vn 0.035800 -0.990500 0.132400
vn -0.536300 -0.681100 0.498500
vn -0.709900 -0.609600 0.352700
vn -0.888700 -0.444300 0.113100
vn -0.759100 -0.629900 -0.164300
vn 0.159900 -0.972500 0.169400
vn 0.147000 -0.978300 0.145800
vn 0.042300 -0.988900 0.142100
vn 0.069600 -0.976400 0.204500
vn 0.074600 -0.983400 0.165200
vn 0.048900 -0.994800 0.088700
vn 0.053800 -0.998400 0.016900
vn 0.095300 -0.990300 0.100600
vn 0.052200 -0.991900 0.115200
vn 0.006500 -0.999000 0.043100
vn -0.376900 -0.767400 0.518600
vn -0.425500 -0.722800 0.544500
vn 0.203400 -0.962000 0.182100
vn 0.092200 -0.984600 0.148700
vn 0.092000 -0.991600 0.090900
vn 0.089800 -0.995400 0.034400
vn 0.037600 -0.996000 0.080900
vn 0.241700 -0.890800 0.384800
vn 0.037800 -0.812500 0.581700
vn -0.291400 -0.796700 0.529500
vn -0.183900 0.978700 -0.091000
vn -0.116200 0.993000 -0.021900
vn -0.096600 0.992900 -0.069800
vn -0.126700 0.978300 -0.163700
vn -0.153300 0.965100 -0.212400
vn -0.139200 0.986700 -0.083700
vn -0.146600 0.983100 -0.109400
vn -0.189500 0.950300 -0.247000
vn -0.121600 0.934800 -0.333800
vn -0.018200 0.985200 -0.170500
vn -0.116500 0.992800 0.028400
vn -0.144400 0.986100 0.081600
vn -0.096500 0.995300 -0.009300
vn -0.092500 0.995200 -0.031800
vn -0.120400 0.992300 -0.027800
vn -0.108900 0.993900 -0.015000
vn -0.094200 0.995500 -0.008900
vn -0.110700 0.993400 -0.029600
vn 0.040600 0.997400 -0.058400
vn 0.056200 0.998400 -0.007900
vn -0.088000 0.948100 0.305600
vn 0.003000 0.987200 0.159100
vn 0.008400 0.993300 0.114900
vn 0.034500 0.992400 0.118000
vn 0.255300 0.949900 0.180400
vn 0.849900 0.385900 -0.358700
vn 0.926800 0.372600 -0.046900
vn 0.889800 -0.455300 0.028500
vn 0.873500 -0.433400 -0.221700
vn 0.687400 -0.303400 -0.659800
vn 0.524600 0.350700 -0.775700
vn 0.123400 0.722400 -0.680300
vn 0.289600 0.861400 -0.417200
vn 0.377000 0.915100 -0.143000
vn 0.935500 0.334100 0.114900
vn 0.438100 0.896500 0.065400
vn 0.479400 0.854400 0.200500
vn 0.934600 0.287800 0.209000
vn 0.865000 -0.490700 0.105000
vn 0.879100 -0.469000 0.084000
vn 0.905900 0.228100 0.356600
vn 0.511200 0.765400 0.390900
vn 0.496600 0.562400 0.661000
vn 0.732500 0.100700 0.673300
vn 0.761500 -0.419800 0.493800
vn 0.843100 -0.490400 0.220400
vn -0.752900 -0.469400 0.461300
vn -0.441400 -0.456500 0.772500
vn -0.625600 -0.089700 0.775000
vn -0.825900 0.003500 0.563800
vn -0.924100 0.078600 0.373900
vn -0.819800 -0.455500 0.346900
vn -0.448300 -0.883600 0.134800
vn -0.373900 -0.889600 0.262300
vn -0.218800 -0.788400 0.574800
vn -0.849500 -0.455300 0.266400
vn -0.975800 0.135300 0.171400
vn -0.983700 0.175100 -0.040700
vn -0.884000 -0.450500 0.124800
vn -0.443000 -0.891000 0.099000
vn -0.448600 -0.883300 0.135900
vn -0.904200 -0.416400 -0.095200
vn -0.939900 0.217300 -0.263300
vn -0.855100 0.122800 -0.503700
vn -0.822100 -0.346000 -0.452000
vn -0.551500 -0.770300 -0.319900
vn -0.477700 -0.877400 -0.042900
vn 0.461900 -0.013900 0.886800
vn 0.274500 0.581600 0.765800
vn 0.094700 0.551100 0.829000
vn 0.296900 -0.072700 0.952100
vn 0.432200 -0.654600 0.620200
vn 0.556100 -0.609400 0.565100
vn 0.188200 -0.138600 0.972300
vn -0.057100 0.478300 0.876300
vn -0.181400 0.389100 0.903100
vn 0.141700 -0.203600 0.968700
vn 0.333500 -0.723900 0.603900
vn 0.370400 -0.684500 0.627900
vn -0.011800 -0.307700 0.951400
vn -0.367700 0.195300 0.909200
vn 0.168500 -0.787300 0.593000
vn 0.081500 0.298600 -0.950900
vn 0.418300 -0.532600 -0.735700
vn 0.103700 -0.680700 -0.725200
vn -0.121600 0.220700 -0.967700
vn -0.196500 0.633200 -0.748600
vn -0.126100 0.670600 -0.731000
vn -0.278800 0.100400 -0.955100
vn -0.130300 -0.757800 -0.639400
vn -0.244700 -0.801900 -0.544900
vn -0.437700 -0.045900 -0.897900
vn -0.387000 0.534500 -0.751400
vn -0.230900 0.608700 -0.759100
vn -0.617700 -0.214100 -0.756700
vn -0.340500 -0.826600 -0.448000
vn -0.634400 0.384600 -0.670600
vn 0.506600 -0.860400 -0.054800
vn 0.267400 -0.963300 0.020700
vn 0.479600 -0.872100 0.097100
vn 0.295800 -0.949400 0.105500
vn 0.136000 -0.990500 0.019600
vn 0.211500 -0.975400 0.062100
vn 0.193900 -0.981000 -0.001100
vn 0.114200 -0.993000 -0.031300
vn -0.244700 -0.801900 -0.544900
vn -0.130300 -0.757800 -0.639400
vn -0.008100 -0.997700 -0.066400
vn 0.065900 -0.997800 -0.005500
vn -0.443000 -0.891000 0.099000
vn -0.477700 -0.877400 -0.042900
vn -0.551500 -0.770300 -0.319900
vn -0.340500 -0.826600 -0.448000
vn 0.487100 -0.871900 0.050700
vn 0.484000 -0.875000 0.008200
vn 0.340600 -0.939900 -0.021800
vn 0.317400 -0.947900 0.027600
vn 0.240700 -0.970200 -0.026900
vn 0.297400 -0.952700 -0.062300
vn 0.239900 -0.964100 -0.113300
vn 0.194500 -0.976700 -0.090300
vn 0.038200 -0.997200 -0.064000
vn 0.051200 -0.994500 -0.091000
vn -0.448300 -0.883600 0.134800
vn -0.448600 -0.883300 0.135900
vn 0.509800 -0.851200 0.124600
vn 0.388000 -0.915700 0.104100
vn 0.378600 -0.919900 0.102500
vn 0.330700 -0.940300 0.080500
vn 0.127000 -0.987300 0.095400
vn 0.168500 -0.787300 0.593000
vn -0.218800 -0.788400 0.574800
vn -0.373900 -0.889600 0.262300
vn -0.621800 0.667900 -0.408800
vn -0.659100 0.714100 -0.235800
vn -0.402300 0.858400 -0.318300
vn -0.355800 0.809400 -0.467100
vn -0.243500 0.817600 -0.521700
vn -0.299800 0.882200 -0.363000
vn -0.227400 0.907100 -0.354100
vn -0.228000 0.809300 -0.541300
vn -0.156500 0.854400 -0.495500
vn -0.094100 0.959100 -0.267000
vn -0.727900 0.683600 -0.052600
vn -0.743600 0.624400 0.239000
vn -0.492700 0.863200 0.110200
vn -0.460500 0.869700 -0.177400
vn -0.330900 0.924000 -0.191700
vn -0.331800 0.940100 0.078100
vn -0.160100 0.983200 0.087800
vn -0.201300 0.968600 -0.145700
vn -0.020200 0.998500 -0.051200
vn 0.037000 0.991100 0.127800
vn -0.664500 0.500000 0.555400
vn -0.438300 0.757000 0.484600
vn -0.265300 0.855200 0.445300
vn -0.082900 0.910300 0.405500
vn 0.113400 0.918000 0.380000
vt 1.346800 0.691700
vt 1.306700 0.737200
vt 1.276000 0.686900
vt 1.317900 0.658500
vt 1.351200 0.633300
vt 1.381700 0.642000
vt 1.419000 0.648000
vt 1.385400 0.714300
vt 1.347700 0.777400
vt 1.277400 0.773500
vt 1.254000 0.803700
vt 1.219200 0.738300
vt 1.244300 0.712200
vt 1.319300 0.825700
vt 1.293900 0.862400
vt 1.231100 0.830600
vt 1.200900 0.848900
vt 1.180600 0.800100
vt 1.197100 0.769500
vt 1.265000 0.890800
vt 1.228000 0.909600
vt 1.430100 0.728300
vt 1.398800 0.803500
vt 1.456900 0.650600
vt 1.499100 0.654900
vt 1.481200 0.738400
vt 1.458600 0.820900
vt 1.369500 0.860500
vt 1.338200 0.902500
vt 1.428000 0.884200
vt 1.389500 0.930900
vt 1.300800 0.932900
vt 1.255200 0.952700
vt 1.343500 0.963600
vt 1.290300 0.985900
vt 1.539400 0.749100
vt 1.525900 0.835300
vt 1.549400 0.665800
vt 1.589300 0.689800
vt 1.596500 0.757400
vt 1.590000 0.851900
vt 1.494800 0.903300
vt 1.450800 0.954300
vt 1.556400 0.927700
vt 1.503600 0.984100
vt 1.398500 0.989400
vt 1.340900 1.016700
vt 1.439600 1.020700
vt 1.378600 1.037600
vt 1.095600 0.615500
vt 1.149000 0.554600
vt 1.167100 0.619100
vt 1.126400 0.678700
vt 1.078700 0.768900
vt 1.046900 0.687900
vt 1.016200 0.616400
vt 1.073000 0.547000
vt 1.140400 0.487800
vt 1.211800 0.516600
vt 1.277300 0.503500
vt 1.254100 0.568900
vt 1.208500 0.585200
vt 1.229300 0.449100
vt 1.318000 0.442400
vt 1.338500 0.517200
vt 1.382200 0.549700
vt 1.347600 0.569000
vt 1.307200 0.562300
vt 1.385200 0.478800
vt 1.425800 0.535600
vt 1.062900 0.484900
vt 1.145900 0.421000
vt 0.995500 0.564200
vt 0.983600 0.505700
vt 1.068500 0.417500
vt 1.169000 0.351600
vt 1.259900 0.387800
vt 1.368700 0.394100
vt 1.300700 0.330200
vt 1.421600 0.355800
vt 1.436300 0.448800
vt 1.468900 0.522600
vt 1.489800 0.430900
vt 1.517200 0.520400
vt 1.092600 0.332800
vt 1.213200 0.276900
vt 0.979600 0.415400
vt 0.979600 0.309300
vt 1.126100 0.239500
vt 1.268000 0.199500
vt 1.348800 0.274200
vt 1.469200 0.324900
vt 1.400600 0.219000
vt 1.514100 0.297600
vt 1.543900 0.428800
vt 1.598400 0.434500
vt 1.655700 0.599100
vt 1.576400 0.538600
vt 1.440600 1.067500
vt 1.529500 1.031700
vt 1.542100 1.088100
vt 1.421500 1.122100
vt 1.303300 1.116600
vt 1.351300 1.072400
vt 1.599300 0.967200
vt 1.640700 0.876100
vt 1.684600 0.904100
vt 1.632800 1.014300
vt 1.644700 0.760300
vt 1.618600 0.657800
vt 1.688300 0.760600
vt 1.161200 0.724400
vt 1.190400 0.678600
vt 1.145500 0.783700
vt 1.220300 0.649900
vt 1.256000 0.630400
vt 1.302500 0.612400
vt 1.351600 0.598800
vt 1.281000 1.044200
vt 1.230100 1.001500
vt 1.219900 1.071700
vt 1.166500 1.013700
vt 1.199600 0.963100
vt 1.178400 0.917500
vt 1.138800 0.968800
vt 1.122400 0.919900
vt 1.155800 0.852900
vt 1.103200 0.849700
vt 1.395000 0.593000
vt 1.434700 0.590200
vt 1.472800 0.586000
vt 1.515700 0.588600
vt 1.570000 0.606600
vt -0.323200 0.366700
vt -0.387900 0.395200
vt -0.466400 0.333200
vt -0.349700 0.326000
vt -0.227100 0.333600
vt -0.237300 0.370100
vt -0.234700 0.411400
vt -0.285200 0.417300
vt -0.330800 0.444700
vt -0.422500 0.424100
vt -0.365400 0.470900
vt -0.395100 0.496800
vt -0.443000 0.454900
vt -0.509100 0.442400
vt -0.501700 0.408200
vt -0.465400 0.489200
vt -0.425700 0.523300
vt -0.453300 0.542800
vt -0.486700 0.527000
vt -0.519400 0.516100
vt -0.518300 0.481000
vt -0.481600 0.776500
vt -0.501800 0.739100
vt -0.462900 0.739300
vt -0.433100 0.764200
vt -0.397100 0.796800
vt -0.456500 0.812300
vt -0.530700 0.807200
vt -0.538900 0.769800
vt -0.535600 0.739500
vt -0.431900 0.843500
vt -0.365300 0.824900
vt -0.326700 0.843500
vt -0.393100 0.869900
vt -0.488500 0.908700
vt -0.518800 0.839600
vt -0.325500 0.891400
vt -0.270200 0.847700
vt -0.227500 0.846600
vt -0.242500 0.887200
vt -0.274500 0.944400
vt -0.384100 0.931500
vt -0.503700 0.568600
vt -0.450700 0.579000
vt -0.451700 0.621700
vt -0.514700 0.608200
vt -0.575900 0.587300
vt -0.550700 0.544400
vt -0.517700 0.640100
vt -0.451500 0.655900
vt -0.452500 0.685800
vt -0.515800 0.669900
vt -0.577500 0.667200
vt -0.583700 0.627500
vt -0.511800 0.703200
vt -0.456900 0.715300
vt -0.560400 0.708800
vt -0.139100 0.436800
vt -0.105400 0.413500
vt -0.019800 0.533700
vt -0.065400 0.539000
vt -0.115000 0.549300
vt -0.177200 0.461200
vt -0.052900 0.648700
vt -0.005800 0.662200
vt -0.053800 0.784700
vt -0.088100 0.752400
vt -0.129300 0.731700
vt -0.104100 0.643600
vt -0.157300 0.836300
vt -0.153800 0.887100
vt -0.175100 0.801100
vt -0.716500 0.378600
vt -0.825300 0.478500
vt -0.899000 0.479400
vt -0.800300 0.357100
vt -0.668800 0.240200
vt -0.570700 0.297400
vt -0.649400 0.402700
vt -0.760500 0.483500
vt -0.860100 0.616100
vt -0.794900 0.618100
vt -0.758200 0.753000
vt -0.825500 0.753800
vt -0.902900 0.745900
vt -0.931900 0.612400
vt -0.725900 0.854300
vt -0.655500 0.834500
vt -0.593700 0.936200
vt -0.699300 0.988900
vt -0.815600 0.869800
vt -0.616000 0.432000
vt -0.598600 0.466800
vt -0.673400 0.525500
vt -0.713700 0.500000
vt -0.742900 0.616800
vt -0.695100 0.616000
vt -0.671300 0.708200
vt -0.710700 0.734700
vt -0.623900 0.806100
vt -0.609400 0.772200
vt -0.579600 0.507400
vt -0.628100 0.557200
vt -0.642400 0.619500
vt -0.628100 0.682900
vt -0.590600 0.735800
vt -0.221200 0.796900
vt -0.276500 0.801100
vt -0.242400 0.743600
vt -0.183900 0.734200
vt -0.163500 0.655200
vt -0.224700 0.672400
vt -0.232100 0.593800
vt -0.172700 0.569700
vt -0.224100 0.487700
vt -0.273100 0.514400
vt -0.321400 0.790900
vt -0.362900 0.769800
vt -0.345500 0.732500
vt -0.295200 0.743400
vt -0.281600 0.684000
vt -0.336500 0.685800
vt -0.340100 0.628800
vt -0.286900 0.615100
vt -0.317600 0.539300
vt -0.360200 0.560200
vt -0.407600 0.741000
vt -0.396800 0.710000
vt -0.392200 0.673800
vt -0.394200 0.629800
vt -0.403700 0.574900
vt 0.484600 -0.311200
vt 0.467500 -0.276600
vt 0.423400 -0.302500
vt 0.458200 -0.343100
vt 0.494400 -0.366300
vt 0.512100 -0.346800
vt 0.534600 -0.326400
vt 0.523200 -0.293400
vt 0.516200 -0.257800
vt 0.458400 -0.242400
vt 0.516400 -0.225200
vt 0.520000 -0.194200
vt 0.457400 -0.208800
vt 0.401400 -0.208900
vt 0.404300 -0.255700
vt 0.464400 -0.175800
vt 0.523500 -0.163500
vt 0.519400 -0.137700
vt 0.479200 -0.140000
vt 0.443500 -0.138600
vt 0.415100 -0.168300
vt 0.797300 0.091800
vt 0.720400 0.101300
vt 0.725700 0.067400
vt 0.769500 0.052300
vt 0.827600 0.019500
vt 0.868100 0.056600
vt 0.909900 0.089100
vt 0.824100 0.130700
vt 0.721400 0.140400
vt 0.924600 0.013800
vt 0.876000 -0.024100
vt 0.909400 -0.095800
vt 0.963000 -0.061900
vt 1.014900 -0.041000
vt 0.974500 0.042500
vt 0.979200 -0.195700
vt 0.922200 -0.213200
vt 0.906300 -0.305000
vt 0.945000 -0.333200
vt 0.978800 -0.353100
vt 1.028300 -0.192800
vt 0.501700 -0.097900
vt 0.551800 -0.109400
vt 0.585600 -0.070300
vt 0.526800 -0.056100
vt 0.455000 -0.061700
vt 0.442700 -0.105500
vt 0.549600 -0.021300
vt 0.617700 -0.035000
vt 0.651100 0.000600
vt 0.584300 0.016400
vt 0.475100 0.052400
vt 0.462600 -0.024200
vt 0.645300 0.066700
vt 0.688500 0.040500
vt 0.606000 0.091500
vt 0.552100 -0.383900
vt 0.511900 -0.403600
vt 0.540300 -0.445700
vt 0.597000 -0.419700
vt 0.622800 -0.366900
vt 0.570800 -0.341900
vt 0.639000 -0.451400
vt 0.566600 -0.483500
vt 0.624700 -0.526500
vt 0.707500 -0.458400
vt 0.740200 -0.391100
vt 0.674000 -0.388600
vt 0.832000 -0.419900
vt 0.830700 -0.462300
vt 0.837000 -0.358600
vt 0.442200 -0.382500
vt 0.432800 -0.424600
vt 0.376900 -0.330400
vt 0.332300 -0.358900
vt 0.426500 -0.464600
vt 0.294100 -0.387000
vt 0.240300 -0.379700
vt 0.381700 -0.475600
vt 0.257200 -0.430400
vt 0.149100 -0.302200
vt 0.039200 -0.189600
vt 0.092700 -0.357300
vt 0.169400 -0.558000
vt 0.401300 -0.551900
vt 0.349800 -0.257100
vt 0.356000 -0.184500
vt 0.314000 -0.145900
vt 0.296100 -0.251200
vt 0.244800 -0.242800
vt 0.268500 -0.103700
vt 0.212800 -0.064800
vt 0.186800 -0.217400
vt 0.113400 -0.160600
vt 0.140300 -0.036400
vt 0.059400 -0.013200
vt 0.032300 -0.088100
vt 0.390500 -0.134100
vt 0.375500 -0.087200
vt 0.355000 -0.041200
vt 0.309600 0.001700
vt 0.220000 0.039600
vt 0.326100 0.091500
vt 0.168100 0.169700
vt 0.108300 0.074900
vt 0.849300 -0.259700
vt 0.852500 -0.156000
vt 0.789800 -0.213700
vt 0.772100 -0.304100
vt 0.702000 -0.315100
vt 0.718400 -0.240300
vt 0.645100 -0.248600
vt 0.637200 -0.307600
vt 0.575800 -0.296300
vt 0.576600 -0.251500
vt 0.829900 -0.080300
vt 0.789600 -0.026500
vt 0.749400 -0.074000
vt 0.779700 -0.136300
vt 0.718700 -0.173400
vt 0.702300 -0.115500
vt 0.647700 -0.149700
vt 0.651400 -0.196900
vt 0.582300 -0.212100
vt 0.585200 -0.175200
vt 0.739500 0.011600
vt 0.706300 -0.029000
vt 0.668600 -0.067900
vt 0.625800 -0.104500
vt 0.577300 -0.138100
vt 0.574300 -0.910400
vt 0.556700 -0.947700
vt 0.610800 -0.971000
vt 0.621100 -0.917600
vt 0.615000 -0.871300
vt 0.585200 -0.863600
vt 0.550600 -0.851700
vt 0.529300 -0.880900
vt 0.503800 -0.911300
vt 0.533300 -0.976600
vt 0.477800 -0.937800
vt 0.451400 -0.963500
vt 0.505000 -1.001300
vt 0.545800 -1.043600
vt 0.584000 -1.012500
vt 0.472700 -1.026200
vt 0.424900 -0.991700
vt 0.407200 -1.014300
vt 0.434600 -1.046200
vt 0.458600 -1.071300
vt 0.501400 -1.065800
vt 0.103400 -0.963300
vt 0.144700 -1.019100
vt 0.160600 -0.979200
vt 0.145200 -0.932000
vt 0.132600 -0.868200
vt 0.077800 -0.896600
vt 0.018700 -0.932600
vt 0.059800 -1.003300
vt 0.124400 -1.064900
vt 0.068600 -0.841200
vt 0.129600 -0.815500
vt 0.141000 -0.766400
vt 0.079100 -0.784200
vt 0.018400 -0.803800
vt 0.005000 -0.872500
vt 0.112400 -0.712700
vt 0.171600 -0.713000
vt 0.204900 -0.672000
vt 0.175100 -0.649300
vt 0.136200 -0.620100
vt 0.058400 -0.707600
vt 0.389000 -1.056000
vt 0.363900 -1.005100
vt 0.313900 -0.993700
vt 0.342700 -1.058000
vt 0.396800 -1.116400
vt 0.436800 -1.097100
vt 0.302600 -1.054400
vt 0.272800 -0.986000
vt 0.234600 -0.982200
vt 0.258900 -1.048000
vt 0.273900 -1.143600
vt 0.354600 -1.123300
vt 0.201400 -1.041800
vt 0.193400 -0.982900
vt 0.208500 -1.097700
vt 0.588900 -0.806200
vt 0.633900 -0.833900
vt 0.650600 -0.758400
vt 0.564100 -0.741200
vt 0.507800 -0.747900
vt 0.538400 -0.808200
vt 0.489800 -0.671500
vt 0.533500 -0.655200
vt 0.406200 -0.587200
vt 0.386300 -0.621800
vt 0.358700 -0.659200
vt 0.442700 -0.693700
vt 0.273900 -0.616700
vt 0.263000 -0.577800
vt 0.271300 -0.657900
vt 0.662900 -0.902100
vt 0.704500 -0.914300
vt 0.665100 -0.983800
vt 0.704800 -1.020900
vt 0.750900 -1.004400
vt 0.714600 -1.117100
vt 0.700300 -1.234900
vt 0.779200 -1.133800
vt 0.843300 -1.008300
vt 0.763000 -0.873600
vt 0.766200 -1.263400
vt 0.667500 -1.336500
vt 0.625300 -1.430100
vt 0.732800 -1.393300
vt 0.854400 -1.345000
vt 0.863800 -1.170000
vt 0.630000 -1.052200
vt 0.571200 -1.097900
vt 0.568700 -1.159000
vt 0.651900 -1.108200
vt 0.630000 -1.193600
vt 0.525900 -1.221500
vt 0.479700 -1.287900
vt 0.592100 -1.287400
vt 0.566200 -1.368900
vt 0.466600 -1.360800
vt 0.470100 -1.436800
vt 0.546200 -1.444100
vt 0.502200 -1.112000
vt 0.477900 -1.155900
vt 0.431600 -1.188500
vt 0.388200 -1.233100
vt 0.372900 -1.312600
vt 0.282100 -1.244400
vt 0.261700 -1.372600
vt 0.371500 -1.409700
vt 0.241300 -0.703700
vt 0.205500 -0.752000
vt 0.271200 -0.750200
vt 0.315600 -0.702700
vt 0.388900 -0.727900
vt 0.337100 -0.769600
vt 0.399100 -0.807200
vt 0.451300 -0.772400
vt 0.493200 -0.829100
vt 0.453000 -0.859400
vt 0.185300 -0.801000
vt 0.178800 -0.854900
vt 0.222500 -0.854600
vt 0.239600 -0.800000
vt 0.296300 -0.814600
vt 0.270000 -0.864700
vt 0.324100 -0.886900
vt 0.355400 -0.844500
vt 0.417200 -0.889700
vt 0.387900 -0.922600
vt 0.183700 -0.918100
vt 0.221700 -0.916500
vt 0.262000 -0.922300
vt 0.309000 -0.936700
vt 0.366800 -0.960900
f 1/1/1 2/2/2 3/3/3
f 1/1/1 3/3/3 4/4/4
f 1/1/1 4/4/4 5/5/5
f 1/1/1 5/5/5 6/6/6
f 1/1/1 6/6/6 7/7/7
f 1/1/1 7/7/7 8/8/8
f 1/1/1 8/8/8 9/9/9
f 1/1/1 9/9/9 2/2/2
f 10/10/10 11/11/11 12/12/12
f 10/10/10 12/12/12 13/13/13
f 10/10/10 13/13/13 3/3/3
f 10/10/10 3/3/3 2/2/2
f 10/10/10 2/2/2 9/9/9
f 10/10/10 9/9/9 14/14/14
f 10/10/10 14/14/14 15/15/15
f 10/10/10 15/15/15 11/11/11
f 16/16/16 17/17/17 18/18/18
f 16/16/16 18/18/18 19/19/19
f 16/16/16 19/19/19 12/12/12
f 16/16/16 12/12/12 11/11/11
f 16/16/16 11/11/11 15/15/15
f 16/16/16 15/15/15 20/20/20
f 16/16/16 20/20/20 21/21/21
f 16/16/16 21/21/21 17/17/17
f 22/22/22 23/23/23 9/9/9
f 22/22/22 9/9/9 8/8/8
f 22/22/22 8/8/8 7/7/7
f 22/22/22 7/7/7 24/24/24
f 22/22/22 24/24/24 25/25/25
f 22/22/22 25/25/25 26/26/26
f 22/22/22 26/26/26 27/27/27
f 22/22/22 27/27/27 23/23/23
f 28/28/28 29/29/29 15/15/15
f 28/28/28 15/15/15 14/14/14
f 28/28/28 14/14/14 9/9/9
f 28/28/28 9/9/9 23/23/23
f 28/28/28 23/23/23 27/27/27
f 28/28/28 27/27/27 30/30/30
f 28/28/28 30/30/30 31/31/31
f 28/28/28 31/31/31 29/29/29
f 32/32/32 33/33/33 21/21/21
f 32/32/32 21/21/21 20/20/20
f 32/32/32 20/20/20 15/15/15
f 32/32/32 15/15/15 29/29/29
f 32/32/32 29/29/29 31/31/31
f 32/32/32 31/31/31 34/34/34
f 32/32/32 34/34/34 35/35/35
f 32/32/32 35/35/35 33/33/33
f 36/36/36 37/37/37 27/27/27
f 36/36/36 27/27/27 26/26/26
f 36/36/36 26/26/26 25/25/25
f 36/36/36 25/25/25 38/38/38
f 36/36/36 38/38/38 39/39/39
f 36/36/36 39/39/39 40/40/40
f 36/36/36 40/40/40 41/41/41
f 36/36/36 41/41/41 37/37/37
f 42/42/42 43/43/43 31/31/31
f 42/42/42 31/31/31 30/30/30
f 42/42/42 30/30/30 27/27/27
f 42/42/42 27/27/27 37/37/37
f 42/42/42 37/37/37 41/41/41
f 42/42/42 41/41/41 44/44/44
f 42/42/42 44/44/44 45/45/45
f 42/42/42 45/45/45 43/43/43
f 46/46/46 47/47/47 35/35/35
f 46/46/46 35/35/35 34/34/34
f 46/46/46 34/34/34 31/31/31
f 46/46/46 31/31/31 43/43/43
f 46/46/46 43/43/43 45/45/45
f 46/46/46 45/45/45 48/48/48
f 46/46/46 48/48/48 49/49/49
f 46/46/46 49/49/49 47/47/47
f 50/50/50 51/51/51 52/52/52
f 50/50/50 52/52/52 53/53/53
f 50/50/50 53/53/53 54/54/54
f 50/50/50 54/54/54 55/55/55
f 50/50/50 55/55/55 56/56/56
f 50/50/50 56/56/56 57/57/57
f 50/50/50 57/57/57 58/58/58
f 50/50/50 58/58/58 51/51/51
f 59/59/59 60/60/60 61/61/61
f 59/59/59 61/61/61 62/62/62
f 59/59/59 62/62/62 52/52/52
f 59/59/59 52/52/52 51/51/51
f 59/59/59 51/51/51 58/58/58
f 59/59/59 58/58/58 63/63/63
f 59/59/59 63/63/63 64/64/64
f 59/59/59 64/64/64 60/60/60
f 65/65/65 66/66/66 67/67/67
f 65/65/65 67/67/67 68/68/68
f 65/65/65 68/68/68 61/61/61
f 65/65/65 61/61/61 60/60/60
f 65/65/65 60/60/60 64/64/64
f 65/65/65 64/64/64 69/69/69
f 65/65/65 69/69/69 70/70/70
f 65/65/65 70/70/70 66/66/66
f 71/71/71 72/72/72 58/58/58
f 71/71/71 58/58/58 57/57/57
f 71/71/71 57/57/57 56/56/56
f 71/71/71 56/56/56 73/73/73
f 71/71/71 73/73/73 74/74/74
f 71/71/71 74/74/74 75/75/75
f 71/71/71 75/75/75 76/76/76
f 71/71/71 76/76/76 72/72/72
f 77/77/77 78/78/78 64/64/64
f 77/77/77 64/64/64 63/63/63
f 77/77/77 63/63/63 58/58/58
f 77/77/77 58/58/58 72/72/72
f 77/77/77 72/72/72 76/76/76
f 77/77/77 76/76/76 79/79/79
f 77/77/77 79/79/79 80/80/80
f 77/77/77 80/80/80 78/78/78
f 81/81/81 82/82/82 70/70/70
f 81/81/81 70/70/70 69/69/69
f 81/81/81 69/69/69 64/64/64
f 81/81/81 64/64/64 78/78/78
f 81/81/81 78/78/78 80/80/80
f 81/81/81 80/80/80 83/83/83
f 81/81/81 83/83/83 84/84/84
f 81/81/81 84/84/84 82/82/82
f 85/85/85 86/86/86 76/76/76
f 85/85/85 76/76/76 75/75/75
f 85/85/85 75/75/75 74/74/74
f 85/85/85 74/74/74 87/87/87
f 85/85/85 87/87/87 88/88/88
f 85/85/85 88/88/88 89/89/89
f 85/85/85 89/89/89 90/90/90
f 85/85/85 90/90/90 86/86/86
f 91/91/91 92/92/92 80/80/80
f 91/91/91 80/80/80 79/79/79
f 91/91/91 79/79/79 76/76/76
f 91/91/91 76/76/76 86/86/86
f 91/91/91 86/86/86 90/90/90
f 91/91/91 90/90/90 93/93/93
f 91/91/91 93/93/93 94/94/94
f 91/91/91 94/94/94 92/92/92
f 95/95/95 92/92/92 94/94/94
f 95/95/95 94/94/94 96/96/96
f 95/95/95 96/96/96 97/97/97
f 95/95/95 97/97/97 98/98/98
f 95/95/95 98/98/98 84/84/84
f 95/95/95 84/84/84 83/83/83
f 95/95/95 83/83/83 80/80/80
f 95/95/95 80/80/80 92/92/92
f 99/99/99 100/100/100 101/101/101
f 99/99/99 101/101/101 102/102/102
f 99/99/99 102/102/102 103/103/103
f 99/99/99 103/103/103 104/104/104
f 99/99/99 104/104/104 49/49/49
f 99/99/99 49/49/49 48/48/48
f 99/99/99 48/48/48 45/45/45
f 99/99/99 45/45/45 100/100/100
f 105/105/105 106/106/106 107/107/107
f 105/105/105 107/107/107 108/108/108
f 105/105/105 108/108/108 101/101/101
f 105/105/105 101/101/101 100/100/100
f 105/105/105 100/100/100 45/45/45
f 105/105/105 45/45/45 44/44/44
f 105/105/105 44/44/44 41/41/41
f 105/105/105 41/41/41 106/106/106
f 109/109/109 110/110/110 97/97/97
f 109/109/109 97/97/97 111/111/111
f 109/109/109 111/111/111 107/107/107
f 109/109/109 107/107/107 106/106/106
f 109/109/109 106/106/106 41/41/41
f 109/109/109 41/41/41 40/40/40
f 109/109/109 40/40/40 39/39/39
f 109/109/109 39/39/39 110/110/110
f 112/112/112 113/113/113 12/12/12
f 112/112/112 12/12/12 19/19/19
f 112/112/112 19/19/19 18/18/18
f 112/112/112 18/18/18 114/114/114
f 112/112/112 114/114/114 54/54/54
f 112/112/112 54/54/54 53/53/53
f 112/112/112 53/53/53 52/52/52
f 112/112/112 52/52/52 113/113/113
f 115/115/115 116/116/116 3/3/3
f 115/115/115 3/3/3 13/13/13
f 115/115/115 13/13/13 12/12/12
f 115/115/115 12/12/12 113/113/113
f 115/115/115 113/113/113 52/52/52
f 115/115/115 52/52/52 62/62/62
f 115/115/115 62/62/62 61/61/61
f 115/115/115 61/61/61 116/116/116
f 117/117/117 118/118/118 5/5/5
f 117/117/117 5/5/5 4/4/4
f 117/117/117 4/4/4 3/3/3
f 117/117/117 3/3/3 116/116/116
f 117/117/117 116/116/116 61/61/61
f 117/117/117 61/61/61 68/68/68
f 117/117/117 68/68/68 67/67/67
f 117/117/117 67/67/67 118/118/118
f 119/119/119 120/120/120 35/35/35
f 119/119/119 35/35/35 47/47/47
f 119/119/119 47/47/47 49/49/49
f 119/119/119 49/49/49 104/104/104
f 119/119/119 104/104/104 103/103/103
f 119/119/119 103/103/103 121/121/121
f 119/119/119 121/121/121 122/122/122
f 119/119/119 122/122/122 120/120/120
f 123/123/123 124/124/124 21/21/21
f 123/123/123 21/21/21 33/33/33
f 123/123/123 33/33/33 35/35/35
f 123/123/123 35/35/35 120/120/120
f 123/123/123 120/120/120 122/122/122
f 123/123/123 122/122/122 125/125/125
f 123/123/123 125/125/125 126/126/126
f 123/123/123 126/126/126 124/124/124
f 127/127/127 114/114/114 18/18/18
f 127/127/127 18/18/18 17/17/17
f 127/127/127 17/17/17 21/21/21
f 127/127/127 21/21/21 124/124/124
f 127/127/127 124/124/124 126/126/126
f 127/127/127 126/126/126 128/128/128
f 127/127/127 128/128/128 54/54/54
f 127/127/127 54/54/54 114/114/114
f 129/129/129 130/130/130 7/7/7
f 129/129/129 7/7/7 6/6/6
f 129/129/129 6/6/6 5/5/5
f 129/129/129 5/5/5 118/118/118
f 129/129/129 118/118/118 67/67/67
f 129/129/129 67/67/67 66/66/66
f 129/129/129 66/66/66 70/70/70
f 129/129/129 70/70/70 130/130/130
f 131/131/131 132/132/132 25/25/25
f 131/131/131 25/25/25 24/24/24
f 131/131/131 24/24/24 7/7/7
f 131/131/131 7/7/7 130/130/130
f 131/131/131 130/130/130 70/70/70
f 131/131/131 70/70/70 82/82/82
f 131/131/131 82/82/82 84/84/84
f 131/131/131 84/84/84 132/132/132
f 133/133/133 132/132/132 84/84/84
f 133/133/133 84/84/84 98/98/98
f 133/133/133 98/98/98 97/97/97
f 133/133/133 97/97/97 110/110/110
f 133/133/133 110/110/110 39/39/39
f 133/133/133 39/39/39 38/38/38
f 133/133/133 38/38/38 25/25/25
f 133/133/133 25/25/25 132/132/132
f 134/134/134 135/135/135 136/136/136
f 134/134/134 136/136/136 137/137/137
f 134/134/134 137/137/137 138/138/138
f 134/134/134 138/138/138 139/139/139
f 134/134/134 139/139/139 140/140/140
f 134/134/134 140/140/140 141/141/141
f 134/134/134 141/141/141 142/142/142
f 134/134/134 142/142/142 135/135/135
f 143/143/143 135/135/135 142/142/142
f 143/143/143 142/142/142 144/144/144
f 143/143/143 144/144/144 145/145/145
f 143/143/143 145/145/145 146/146/146
f 143/143/143 146/146/146 147/147/147
f 143/143/143 147/147/147 148/148/148
f 143/143/143 148/148/148 136/136/136
f 143/143/143 136/136/136 135/135/135
f 149/149/149 146/146/146 145/145/145
f 149/149/149 145/145/145 150/150/150
f 149/149/149 150/150/150 151/151/151
f 149/149/149 151/151/151 152/152/152
f 149/149/149 152/152/152 153/153/153
f 149/149/149 153/153/153 154/154/154
f 149/149/149 154/154/154 147/147/147
f 149/149/149 147/147/147 146/146/146
f 155/155/155 156/156/156 157/157/157
f 155/155/155 157/157/157 158/158/158
f 155/155/155 158/158/158 159/159/159
f 155/155/155 159/159/159 160/160/160
f 155/155/155 160/160/160 161/161/161
f 155/155/155 161/161/161 162/162/162
f 155/155/155 162/162/162 163/163/163
f 155/155/155 163/163/163 156/156/156
f 164/164/164 160/160/160 159/159/159
f 164/164/164 159/159/159 165/165/165
f 164/164/164 165/165/165 166/166/166
f 164/164/164 166/166/166 167/167/167
f 164/164/164 167/167/167 168/168/168
f 164/164/164 168/168/168 169/169/169
f 164/164/164 169/169/169 161/161/161
f 164/164/164 161/161/161 160/160/160
f 170/170/170 167/167/167 166/166/166
f 170/170/170 166/166/166 171/171/171
f 170/170/170 171/171/171 172/172/172
f 170/170/170 172/172/172 173/173/173
f 170/170/170 173/173/173 174/174/174
f 170/170/170 174/174/174 175/175/175
f 170/170/170 175/175/175 168/168/168
f 170/170/170 168/168/168 167/167/167
f 176/176/176 152/152/152 151/151/151
f 176/176/176 151/151/151 177/177/177
f 176/176/176 177/177/177 178/178/178
f 176/176/176 178/178/178 179/179/179
f 176/176/176 179/179/179 180/180/180
f 176/176/176 180/180/180 181/181/181
f 176/176/176 181/181/181 153/153/153
f 176/176/176 153/153/153 152/152/152
f 182/182/182 179/179/179 178/178/178
f 182/182/182 178/178/178 183/183/183
f 182/182/182 183/183/183 184/184/184
f 182/182/182 184/184/184 185/185/185
f 182/182/182 185/185/185 186/186/186
f 182/182/182 186/186/186 187/187/187
f 182/182/182 187/187/187 180/180/180
f 182/182/182 180/180/180 179/179/179
f 188/188/188 185/185/185 184/184/184
f 188/188/188 184/184/184 189/189/189
f 188/188/188 189/189/189 157/157/157
f 188/188/188 157/157/157 156/156/156
f 188/188/188 156/156/156 163/163/163
f 188/188/188 163/163/163 190/190/190
f 188/188/188 190/190/190 186/186/186
f 188/188/188 186/186/186 185/185/185
f 191/191/191 139/139/139 138/138/138
f 191/191/191 138/138/138 192/192/192
f 191/191/191 192/192/192 193/193/193
f 191/191/191 193/193/193 194/194/194
f 191/191/191 194/194/194 195/195/195
f 191/191/191 195/195/195 196/196/196
f 191/191/191 196/196/196 140/140/140
f 191/191/191 140/140/140 139/139/139
f 197/197/197 194/194/194 193/193/193
f 197/197/197 193/193/193 198/198/198
f 197/197/197 198/198/198 199/199/199
f 197/197/197 199/199/199 200/200/200
f 197/197/197 200/200/200 201/201/201
f 197/197/197 201/201/201 202/202/202
f 197/197/197 202/202/202 195/195/195
f 197/197/197 195/195/195 194/194/194
f 203/203/203 200/200/200 199/199/199
f 203/203/203 199/199/199 204/204/204
f 203/203/203 204/204/204 174/174/174
f 203/203/203 174/174/174 173/173/173
f 203/203/203 173/173/173 172/172/172
f 203/203/203 172/172/172 205/205/205
f 203/203/203 205/205/205 201/201/201
f 203/203/203 201/201/201 200/200/200
f 206/206/206 207/207/207 208/208/208
f 206/206/206 208/208/208 209/209/209
f 206/206/206 209/209/209 210/210/210
f 206/206/206 210/210/210 211/211/211
f 206/206/206 211/211/211 136/136/136
f 206/206/206 136/136/136 212/212/212
f 206/206/206 212/212/212 213/213/213
f 206/206/206 213/213/213 207/207/207
f 214/214/214 207/207/207 213/213/213
f 214/214/214 213/213/213 215/215/215
f 214/214/214 215/215/215 216/216/216
f 214/214/214 216/216/216 217/217/217
f 214/214/214 217/217/217 218/218/218
f 214/214/214 218/218/218 219/219/219
f 214/214/214 219/219/219 208/208/208
f 214/214/214 208/208/208 207/207/207
f 220/220/220 217/217/217 216/216/216
f 220/220/220 216/216/216 221/221/221
f 220/220/220 221/221/221 168/168/168
f 220/220/220 168/168/168 222/222/222
f 220/220/220 222/222/222 223/223/223
f 220/220/220 223/223/223 224/224/224
f 220/220/220 224/224/224 218/218/218
f 220/220/220 218/218/218 217/217/217
f 225/225/225 148/148/148 147/147/147
f 225/225/225 147/147/147 226/226/226
f 225/225/225 226/226/226 227/227/227
f 225/225/225 227/227/227 228/228/228
f 225/225/225 228/228/228 213/213/213
f 225/225/225 213/213/213 212/212/212
f 225/225/225 212/212/212 136/136/136
f 225/225/225 136/136/136 148/148/148
f 229/229/229 228/228/228 227/227/227
f 229/229/229 227/227/227 230/230/230
f 229/229/229 230/230/230 231/231/231
f 229/229/229 231/231/231 232/232/232
f 229/229/229 232/232/232 216/216/216
f 229/229/229 216/216/216 215/215/215
f 229/229/229 215/215/215 213/213/213
f 229/229/229 213/213/213 228/228/228
f 233/233/233 232/232/232 231/231/231
f 233/233/233 231/231/231 234/234/234
f 233/233/233 234/234/234 161/161/161
f 233/233/233 161/161/161 169/169/169
f 233/233/233 169/169/169 168/168/168
f 233/233/233 168/168/168 221/221/221
f 233/233/233 221/221/221 216/216/216
f 233/233/233 216/216/216 232/232/232
f 235/235/235 154/154/154 153/153/153
f 235/235/235 153/153/153 181/181/181
f 235/235/235 181/181/181 180/180/180
f 235/235/235 180/180/180 236/236/236
f 235/235/235 236/236/236 227/227/227
f 235/235/235 227/227/227 226/226/226
f 235/235/235 226/226/226 147/147/147
f 235/235/235 147/147/147 154/154/154
f 237/237/237 236/236/236 180/180/180
f 237/237/237 180/180/180 187/187/187
f 237/237/237 187/187/187 186/186/186
f 237/237/237 186/186/186 238/238/238
f 237/237/237 238/238/238 231/231/231
f 237/237/237 231/231/231 230/230/230
f 237/237/237 230/230/230 227/227/227
f 237/237/237 227/227/227 236/236/236
f 239/239/239 238/238/238 186/186/186
f 239/239/239 186/186/186 190/190/190
f 239/239/239 190/190/190 163/163/163
f 239/239/239 163/163/163 162/162/162
f 239/239/239 162/162/162 161/161/161
f 239/239/239 161/161/161 234/234/234
f 239/239/239 234/234/234 231/231/231
f 239/239/239 231/231/231 238/238/238
f 240/240/240 171/171/171 166/166/166
f 240/240/240 166/166/166 241/241/241
f 240/240/240 241/241/241 242/242/242
f 240/240/240 242/242/242 243/243/243
f 240/240/240 243/243/243 201/201/201
f 240/240/240 201/201/201 205/205/205
f 240/240/240 205/205/205 172/172/172
f 240/240/240 172/172/172 171/171/171
f 244/244/244 243/243/243 242/242/242
f 244/244/244 242/242/242 245/245/245
f 244/244/244 245/245/245 246/246/246
f 244/244/244 246/246/246 247/247/247
f 244/244/244 247/247/247 195/195/195
f 244/244/244 195/195/195 202/202/202
f 244/244/244 202/202/202 201/201/201
f 244/244/244 201/201/201 243/243/243
f 248/248/248 247/247/247 246/246/246
f 248/248/248 246/246/246 249/249/249
f 248/248/248 249/249/249 142/142/142
f 248/248/248 142/142/142 141/141/141
f 248/248/248 141/141/141 140/140/140
f 248/248/248 140/140/140 196/196/196
f 248/248/248 196/196/196 195/195/195
f 248/248/248 195/195/195 247/247/247
f 250/250/250 165/165/165 159/159/159
f 250/250/250 159/159/159 251/251/251
f 250/250/250 251/251/251 252/252/252
f 250/250/250 252/252/252 253/253/253
f 250/250/250 253/253/253 242/242/242
f 250/250/250 242/242/242 241/241/241
f 250/250/250 241/241/241 166/166/166
f 250/250/250 166/166/166 165/165/165
f 254/254/254 253/253/253 252/252/252
f 254/254/254 252/252/252 255/255/255
f 254/254/254 255/255/255 256/256/256
f 254/254/254 256/256/256 257/257/257
f 254/254/254 257/257/257 246/246/246
f 254/254/254 246/246/246 245/245/245
f 254/254/254 245/245/245 242/242/242
f 254/254/254 242/242/242 253/253/253
f 258/258/258 257/257/257 256/256/256
f 258/258/258 256/256/256 259/259/259
f 258/258/258 259/259/259 145/145/145
f 258/258/258 145/145/145 144/144/144
f 258/258/258 144/144/144 142/142/142
f 258/258/258 142/142/142 249/249/249
f 258/258/258 249/249/249 246/246/246
f 258/258/258 246/246/246 257/257/257
f 260/260/260 158/158/158 157/157/157
f 260/260/260 157/157/157 189/189/189
f 260/260/260 189/189/189 184/184/184
f 260/260/260 184/184/184 261/261/261
f 260/260/260 261/261/261 252/252/252
f 260/260/260 252/252/252 251/251/251
f 260/260/260 251/251/251 159/159/159
f 260/260/260 159/159/159 158/158/158
f 262/262/262 261/261/261 184/184/184
f 262/262/262 184/184/184 183/183/183
f 262/262/262 183/183/183 178/178/178
f 262/262/262 178/178/178 263/263/263
f 262/262/262 263/263/263 256/256/256
f 262/262/262 256/256/256 255/255/255
f 262/262/262 255/255/255 252/252/252
f 262/262/262 252/252/252 261/261/261
f 264/264/264 263/263/263 178/178/178
f 264/264/264 178/178/178 177/177/177
f 264/264/264 177/177/177 151/151/151
f 264/264/264 151/151/151 150/150/150
f 264/264/264 150/150/150 145/145/145
f 264/264/264 145/145/145 259/259/259
f 264/264/264 259/259/259 256/256/256
f 264/264/264 256/256/256 263/263/263
f 265/265/265 266/266/266 267/267/267
f 265/265/265 267/267/267 268/268/268
f 265/265/265 268/268/268 269/269/269
f 265/265/265 269/269/269 270/270/270
f 265/265/265 270/270/270 271/271/271
f 265/265/265 271/271/271 272/272/272
f 265/265/265 272/272/272 273/273/273
f 265/265/265 273/273/273 266/266/266
f 274/274/274 266/266/266 273/273/273
f 274/274/274 273/273/273 275/275/275
f 274/274/274 275/275/275 276/276/276
f 274/274/274 276/276/276 277/277/277
f 274/274/274 277/277/277 278/278/278
f 274/274/274 278/278/278 279/279/279
f 274/274/274 279/279/279 267/267/267
f 274/274/274 267/267/267 266/266/266
f 280/280/280 277/277/277 276/276/276
f 280/280/280 276/276/276 281/281/281
f 280/280/280 281/281/281 282/282/282
f 280/280/280 282/282/282 283/283/283
f 280/280/280 283/283/283 284/284/284
f 280/280/280 284/284/284 285/285/285
f 280/280/280 285/285/285 278/278/278
f 280/280/280 278/278/278 277/277/277
f 286/286/286 287/287/287 288/288/288
f 286/286/286 288/288/288 289/289/289
f 286/286/286 289/289/289 290/290/290
f 286/286/286 290/290/290 291/291/291
f 286/286/286 291/291/291 292/292/292
f 286/286/286 292/292/292 293/293/293
f 286/286/286 293/293/293 294/294/294
f 286/286/286 294/294/294 287/287/287
f 295/295/295 291/291/291 290/290/290
f 295/295/295 290/290/290 296/296/296
f 295/295/295 296/296/296 297/297/297
f 295/295/295 297/297/297 298/298/298
f 295/295/295 298/298/298 299/299/299
f 295/295/295 299/299/299 300/300/300
f 295/295/295 300/300/300 292/292/292
f 295/295/295 292/292/292 291/291/291
f 301/301/301 298/298/298 297/297/297
f 301/301/301 297/297/297 302/302/302
f 301/301/301 302/302/302 303/303/303
f 301/301/301 303/303/303 304/304/304
f 301/301/301 304/304/304 305/305/305
f 301/301/301 305/305/305 306/306/306
f 301/301/301 306/306/306 299/299/299
f 301/301/301 299/299/299 298/298/298
f 307/307/307 283/283/283 282/282/282
f 307/307/307 282/282/282 308/308/308
f 307/307/307 308/308/308 309/309/309
f 307/307/307 309/309/309 310/310/310
f 307/307/307 310/310/310 311/311/311
f 307/307/307 311/311/311 312/312/312
f 307/307/307 312/312/312 284/284/284
f 307/307/307 284/284/284 283/283/283
f 313/313/313 310/310/310 309/309/309
f 313/313/313 309/309/309 314/314/314
f 313/313/313 314/314/314 315/315/315
f 313/313/313 315/315/315 316/316/316
f 313/313/313 316/316/316 317/317/317
f 313/313/313 317/317/317 318/318/318
f 313/313/313 318/318/318 311/311/311
f 313/313/313 311/311/311 310/310/310
f 319/319/319 316/316/316 315/315/315
f 319/319/319 315/315/315 320/320/320
f 319/319/319 320/320/320 288/288/288
f 319/319/319 288/288/288 287/287/287
f 319/319/319 287/287/287 294/294/294
f 319/319/319 294/294/294 321/321/321
f 319/319/319 321/321/321 317/317/317
f 319/319/319 317/317/317 316/316/316
f 322/322/322 270/270/270 269/269/269
f 322/322/322 269/269/269 323/323/323
f 322/322/322 323/323/323 324/324/324
f 322/322/322 324/324/324 325/325/325
f 322/322/322 325/325/325 326/326/326
f 322/322/322 326/326/326 327/327/327
f 322/322/322 327/327/327 271/271/271
f 322/322/322 271/271/271 270/270/270
f 328/328/328 325/325/325 324/324/324
f 328/328/328 324/324/324 329/329/329
f 328/328/328 329/329/329 330/330/330
f 328/328/328 330/330/330 331/331/331
f 328/328/328 331/331/331 332/332/332
f 328/328/328 332/332/332 333/333/333
f 328/328/328 333/333/333 326/326/326
f 328/328/328 326/326/326 325/325/325
f 334/334/334 331/331/331 330/330/330
f 334/334/334 330/330/330 335/335/335
f 334/334/334 335/335/335 305/305/305
f 334/334/334 305/305/305 304/304/304
f 334/334/334 304/304/304 303/303/303
f 334/334/334 303/303/303 336/336/336
f 334/334/334 336/336/336 332/332/332
f 334/334/334 332/332/332 331/331/331
f 337/337/337 338/338/338 324/324/324
f 337/337/337 324/324/324 323/323/323
f 337/337/337 323/323/323 269/269/269
f 337/337/337 269/269/269 268/268/268
f 337/337/337 268/268/268 267/267/267
f 337/337/337 267/267/267 339/339/339
f 337/337/337 339/339/339 340/340/340
f 337/337/337 340/340/340 338/338/338
f 341/341/341 338/338/338 340/340/340
f 341/341/341 340/340/340 342/342/342
f 341/341/341 342/342/342 343/343/343
f 341/341/341 343/343/343 344/344/344
f 341/341/341 344/344/344 330/330/330
f 341/341/341 330/330/330 329/329/329
f 341/341/341 329/329/329 324/324/324
f 341/341/341 324/324/324 338/338/338
f 345/345/345 344/344/344 343/343/343
f 345/345/345 343/343/343 346/346/346
f 345/345/345 346/346/346 347/347/347
f 345/345/345 347/347/347 348/348/348
f 345/345/345 348/348/348 349/349/349
f 345/345/345 349/349/349 350/350/350
f 345/345/345 350/350/350 330/330/330
f 345/345/345 330/330/330 344/344/344
f 351/351/351 279/279/279 278/278/278
f 351/351/351 278/278/278 352/352/352
f 351/351/351 352/352/352 353/353/353
f 351/351/351 353/353/353 354/354/354
f 351/351/351 354/354/354 340/340/340
f 351/351/351 340/340/340 339/339/339
f 351/351/351 339/339/339 267/267/267
f 351/351/351 267/267/267 279/279/279
f 355/355/355 354/354/354 353/353/353
f 355/355/355 353/353/353 356/356/356
f 355/355/355 356/356/356 357/357/357
f 355/355/355 357/357/357 358/358/358
f 355/355/355 358/358/358 343/343/343
f 355/355/355 343/343/343 342/342/342
f 355/355/355 342/342/342 340/340/340
f 355/355/355 340/340/340 354/354/354
f 359/359/359 358/358/358 357/357/357
f 359/359/359 357/357/357 360/360/360
f 359/359/359 360/360/360 361/361/361
f 359/359/359 361/361/361 362/362/362
f 359/359/359 362/362/362 347/347/347
f 359/359/359 347/347/347 346/346/346
f 359/359/359 346/346/346 343/343/343
f 359/359/359 343/343/343 358/358/358
f 363/363/363 285/285/285 284/284/284
f 363/363/363 284/284/284 312/312/312
f 363/363/363 312/312/312 311/311/311
f 363/363/363 311/311/311 364/364/364
f 363/363/363 364/364/364 353/353/353
f 363/363/363 353/353/353 352/352/352
f 363/363/363 352/352/352 278/278/278
f 363/363/363 278/278/278 285/285/285
f 365/365/365 364/364/364 311/311/311
f 365/365/365 311/311/311 318/318/318
f 365/365/365 318/318/318 317/317/317
f 365/365/365 317/317/317 366/366/366
f 365/365/365 366/366/366 357/357/357
f 365/365/365 357/357/357 356/356/356
f 365/365/365 356/356/356 353/353/353
f 365/365/365 353/353/353 364/364/364
f 367/367/367 366/366/366 317/317/317
f 367/367/367 317/317/317 368/368/368
f 367/367/367 368/368/368 369/369/369
f 367/367/367 369/369/369 370/370/370
f 367/367/367 370/370/370 361/361/361
f 367/367/367 361/361/361 360/360/360
f 367/367/367 360/360/360 357/357/357
f 367/367/367 357/357/357 366/366/366
f 371/371/371 302/302/302 297/297/297
f 371/371/371 297/297/297 372/372/372
f 371/371/371 372/372/372 373/373/373
f 371/371/371 373/373/373 374/374/374
f 371/371/371 374/374/374 332/332/332
f 371/371/371 332/332/332 336/336/336
f 371/371/371 336/336/336 303/303/303
f 371/371/371 303/303/303 302/302/302
f 375/375/375 374/374/374 373/373/373
f 375/375/375 373/373/373 376/376/376
f 375/375/375 376/376/376 377/377/377
f 375/375/375 377/377/377 378/378/378
f 375/375/375 378/378/378 326/326/326
f 375/375/375 326/326/326 333/333/333
f 375/375/375 333/333/333 332/332/332
f 375/375/375 332/332/332 374/374/374
f 379/379/379 378/378/378 377/377/377
f 379/379/379 377/377/377 380/380/380
f 379/379/379 380/380/380 273/273/273
f 379/379/379 273/273/273 272/272/272
f 379/379/379 272/272/272 271/271/271
f 379/379/379 271/271/271 327/327/327
f 379/379/379 327/327/327 326/326/326
f 379/379/379 326/326/326 378/378/378
f 381/381/381 296/296/296 290/290/290
f 381/381/381 290/290/290 382/382/382
f 381/381/381 382/382/382 383/383/383
f 381/381/381 383/383/383 384/384/384
f 381/381/381 384/384/384 373/373/373
f 381/381/381 373/373/373 372/372/372
f 381/381/381 372/372/372 297/297/297
f 381/381/381 297/297/297 296/296/296
f 385/385/385 384/384/384 383/383/383
f 385/385/385 383/383/383 386/386/386
f 385/385/385 386/386/386 387/387/387
f 385/385/385 387/387/387 388/388/388
f 385/385/385 388/388/388 377/377/377
f 385/385/385 377/377/377 376/376/376
f 385/385/385 376/376/376 373/373/373
f 385/385/385 373/373/373 384/384/384
f 389/389/389 388/388/388 387/387/387
f 389/389/389 387/387/387 390/390/390
f 389/389/389 390/390/390 276/276/276
f 389/389/389 276/276/276 275/275/275
f 389/389/389 275/275/275 273/273/273
f 389/389/389 273/273/273 380/380/380
f 389/389/389 380/380/380 377/377/377
f 389/389/389 377/377/377 388/388/388
f 391/391/391 289/289/289 288/288/288
f 391/391/391 288/288/288 320/320/320
f 391/391/391 320/320/320 315/315/315
f 391/391/391 315/315/315 392/392/392
f 391/391/391 392/392/392 383/383/383
f 391/391/391 383/383/383 382/382/382
f 391/391/391 382/382/382 290/290/290
f 391/391/391 290/290/290 289/289/289
f 393/393/393 392/392/392 315/315/315
f 393/393/393 315/315/315 314/314/314
f 393/393/393 314/314/314 309/309/309
f 393/393/393 309/309/309 394/394/394
f 393/393/393 394/394/394 387/387/387
f 393/393/393 387/387/387 386/386/386
f 393/393/393 386/386/386 383/383/383
f 393/393/393 383/383/383 392/392/392
f 395/395/395 394/394/394 309/309/309
f 395/395/395 309/309/309 308/308/308
f 395/395/395 308/308/308 282/282/282
f 395/395/395 282/282/282 281/281/281
f 395/395/395 281/281/281 276/276/276
f 395/395/395 276/276/276 390/390/390
f 395/395/395 390/390/390 387/387/387
f 395/395/395 387/387/387 394/394/394
f 396/396/396 397/397/397 398/398/398
f 396/396/396 398/398/398 399/399/399
f 396/396/396 399/399/399 400/400/400
f 396/396/396 400/400/400 401/401/401
f 396/396/396 401/401/401 402/402/402
f 396/396/396 402/402/402 403/403/403
f 396/396/396 403/403/403 404/404/404
f 396/396/396 404/404/404 397/397/397
f 405/405/405 397/397/397 404/404/404
f 405/405/405 404/404/404 406/406/406
f 405/405/405 406/406/406 407/407/407
f 405/405/405 407/407/407 408/408/408
f 405/405/405 408/408/408 409/409/409
f 405/405/405 409/409/409 410/410/410
f 405/405/405 410/410/410 398/398/398
f 405/405/405 398/398/398 397/397/397
f 411/411/411 408/408/408 407/407/407
f 411/411/411 407/407/407 412/412/412
f 411/411/411 412/412/412 413/413/413
f 411/411/411 413/413/413 414/414/414
f 411/411/411 414/414/414 415/415/415
f 411/411/411 415/415/415 416/416/416
f 411/411/411 416/416/416 409/409/409
f 411/411/411 409/409/409 408/408/408
f 417/417/417 418/418/418 419/419/419
f 417/417/417 419/419/419 420/420/420
f 417/417/417 420/420/420 421/421/421
f 417/417/417 421/421/421 422/422/422
f 417/417/417 422/422/422 423/423/423
f 417/417/417 423/423/423 424/424/424
f 417/417/417 424/424/424 425/425/425
f 417/417/417 425/425/425 418/418/418
f 426/426/426 422/422/422 421/421/421
f 426/426/426 421/421/421 427/427/427
f 426/426/426 427/427/427 428/428/428
f 426/426/426 428/428/428 429/429/429
f 426/426/426 429/429/429 430/430/430
f 426/426/426 430/430/430 431/431/431
f 426/426/426 431/431/431 423/423/423
f 426/426/426 423/423/423 422/422/422
f 432/432/432 429/429/429 428/428/428
f 432/432/432 428/428/428 433/433/433
f 432/432/432 433/433/433 434/434/434
f 432/432/432 434/434/434 435/435/435
f 432/432/432 435/435/435 436/436/436
f 432/432/432 436/436/436 437/437/437
f 432/432/432 437/437/437 430/430/430
f 432/432/432 430/430/430 429/429/429
f 438/438/438 414/414/414 413/413/413
f 438/438/438 413/413/413 439/439/439
f 438/438/438 439/439/439 440/440/440
f 438/438/438 440/440/440 441/441/441
f 438/438/438 441/441/441 442/442/442
f 438/438/438 442/442/442 443/443/443
f 438/438/438 443/443/443 415/415/415
f 438/438/438 415/415/415 414/414/414
f 444/444/444 441/441/441 440/440/440
f 444/444/444 440/440/440 445/445/445
f 444/444/444 445/445/445 446/446/446
f 444/444/444 446/446/446 447/447/447
f 444/444/444 447/447/447 448/448/448
f 444/444/444 448/448/448 449/449/449
f 444/444/444 449/449/449 442/442/442
f 444/444/444 442/442/442 441/441/441
f 450/450/450 447/447/447 446/446/446
f 450/450/450 446/446/446 451/451/451
f 450/450/450 451/451/451 419/419/419
f 450/450/450 419/419/419 418/418/418
f 450/450/450 418/418/418 425/425/425
f 450/450/450 425/425/425 452/452/452
f 450/450/450 452/452/452 448/448/448
f 450/450/450 448/448/448 447/447/447
f 453/453/453 401/401/401 400/400/400
f 453/453/453 400/400/400 454/454/454
f 453/453/453 454/454/454 455/455/455
f 453/453/453 455/455/455 456/456/456
f 453/453/453 456/456/456 457/457/457
f 453/453/453 457/457/457 458/458/458
f 453/453/453 458/458/458 402/402/402
f 453/453/453 402/402/402 401/401/401
f 459/459/459 456/456/456 455/455/455
f 459/459/459 455/455/455 460/460/460
f 459/459/459 460/460/460 461/461/461
f 459/459/459 461/461/461 462/462/462
f 459/459/459 462/462/462 463/463/463
f 459/459/459 463/463/463 464/464/464
f 459/459/459 464/464/464 457/457/457
f 459/459/459 457/457/457 456/456/456
f 465/465/465 462/462/462 461/461/461
f 465/465/465 461/461/461 466/466/466
f 465/465/465 466/466/466 436/436/436
f 465/465/465 436/436/436 435/435/435
f 465/465/465 435/435/435 434/434/434
f 465/465/465 434/434/434 467/467/467
f 465/465/465 467/467/467 463/463/463
f 465/465/465 463/463/463 462/462/462
f 468/468/468 469/469/469 455/455/455
f 468/468/468 455/455/455 454/454/454
f 468/468/468 454/454/454 400/400/400
f 468/468/468 400/400/400 399/399/399
f 468/468/468 399/399/399 398/398/398
f 468/468/468 398/398/398 470/470/470
f 468/468/468 470/470/470 471/471/471
f 468/468/468 471/471/471 469/469/469
f 472/472/472 469/469/469 471/471/471
f 472/472/472 471/471/471 473/473/473
f 472/472/472 473/473/473 474/474/474
f 472/472/472 474/474/474 475/475/475
f 472/472/472 475/475/475 476/476/476
f 472/472/472 476/476/476 477/477/477
f 472/472/472 477/477/477 455/455/455
f 472/472/472 455/455/455 469/469/469
f 478/478/478 475/475/475 474/474/474
f 478/478/478 474/474/474 479/479/479
f 478/478/478 479/479/479 480/480/480
f 478/478/478 480/480/480 481/481/481
f 478/478/478 481/481/481 482/482/482
f 478/478/478 482/482/482 483/483/483
f 478/478/478 483/483/483 476/476/476
f 478/478/478 476/476/476 475/475/475
f 484/484/484 410/410/410 409/409/409
f 484/484/484 409/409/409 485/485/485
f 484/484/484 485/485/485 486/486/486
f 484/484/484 486/486/486 487/487/487
f 484/484/484 487/487/487 471/471/471
f 484/484/484 471/471/471 470/470/470
f 484/484/484 470/470/470 398/398/398
f 484/484/484 398/398/398 410/410/410
f 488/488/488 487/487/487 486/486/486
f 488/488/488 486/486/486 489/489/489
f 488/488/488 489/489/489 490/490/490
f 488/488/488 490/490/490 491/491/491
f 488/488/488 491/491/491 474/474/474
f 488/488/488 474/474/474 473/473/473
f 488/488/488 473/473/473 471/471/471
f 488/488/488 471/471/471 487/487/487
f 492/492/492 491/491/491 490/490/490
f 492/492/492 490/490/490 493/493/493
f 492/492/492 493/493/493 494/494/494
f 492/492/492 494/494/494 495/495/495
f 492/492/492 495/495/495 480/480/480
f 492/492/492 480/480/480 479/479/479
f 492/492/492 479/479/479 474/474/474
f 492/492/492 474/474/474 491/491/491
f 496/496/496 416/416/416 415/415/415
f 496/496/496 415/415/415 443/443/443
f 496/496/496 443/443/443 442/442/442
f 496/496/496 442/442/442 497/497/497
f 496/496/496 497/497/497 486/486/486
f 496/496/496 486/486/486 485/485/485
f 496/496/496 485/485/485 409/409/409
f 496/496/496 409/409/409 416/416/416
f 498/498/498 497/497/497 442/442/442
f 498/498/498 442/442/442 449/449/449
f 498/498/498 449/449/449 448/448/448
f 498/498/498 448/448/448 499/499/499
f 498/498/498 499/499/499 490/490/490
f 498/498/498 490/490/490 489/489/489
f 498/498/498 489/489/489 486/486/486
f 498/498/498 486/486/486 497/497/497
f 500/500/500 499/499/499 448/448/448
f 500/500/500 448/448/448 501/501/501
f 500/500/500 501/501/501 502/502/502
f 500/500/500 502/502/502 503/503/503
f 500/500/500 503/503/503 494/494/494
f 500/500/500 494/494/494 493/493/493
f 500/500/500 493/493/493 490/490/490
f 500/500/500 490/490/490 499/499/499
f 504/504/504 433/433/433 428/428/428
f 504/504/504 428/428/428 505/505/505
f 504/504/504 505/505/505 506/506/506
f 504/504/504 506/506/506 507/507/507
f 504/504/504 507/507/507 463/463/463
f 504/504/504 463/463/463 467/467/467
f 504/504/504 467/467/467 434/434/434
f 504/504/504 434/434/434 433/433/433
f 508/508/508 507/507/507 506/506/506
f 508/508/508 506/506/506 509/509/509
f 508/508/508 509/509/509 510/510/510
f 508/508/508 510/510/510 511/511/511
f 508/508/508 511/511/511 457/457/457
f 508/508/508 457/457/457 464/464/464
f 508/508/508 464/464/464 463/463/463
f 508/508/508 463/463/463 507/507/507
f 512/512/512 511/511/511 510/510/510
f 512/512/512 510/510/510 513/513/513
f 512/512/512 513/513/513 404/404/404
f 512/512/512 404/404/404 403/403/403
f 512/512/512 403/403/403 402/402/402
f 512/512/512 402/402/402 458/458/458
f 512/512/512 458/458/458 457/457/457
f 512/512/512 457/457/457 511/511/511
f 514/514/514 427/427/427 421/421/421
f 514/514/514 421/421/421 515/515/515
f 514/514/514 515/515/515 516/516/516
f 514/514/514 516/516/516 517/517/517
f 514/514/514 517/517/517 506/506/506
f 514/514/514 506/506/506 505/505/505
f 514/514/514 505/505/505 428/428/428
f 514/514/514 428/428/428 427/427/427
f 518/518/518 517/517/517 516/516/516
f 518/518/518 516/516/516 519/519/519
f 518/518/518 519/519/519 520/520/520
f 518/518/518 520/520/520 521/521/521
f 518/518/518 521/521/521 510/510/510
f 518/518/518 510/510/510 509/509/509
f 518/518/518 509/509/509 506/506/506
f 518/518/518 506/506/506 517/517/517
f 522/522/522 521/521/521 520/520/520
f 522/522/522 520/520/520 523/523/523
f 522/522/522 523/523/523 407/407/407
f 522/522/522 407/407/407 406/406/406
f 522/522/522 406/406/406 404/404/404
f 522/522/522 404/404/404 513/513/513
f 522/522/522 513/513/513 510/510/510
f 522/522/522 510/510/510 521/521/521
f 524/524/524 420/420/420 419/419/419
f 524/524/524 419/419/419 451/451/451
f 524/524/524 451/451/451 446/446/446
f 524/524/524 446/446/446 525/525/525
f 524/524/524 525/525/525 516/516/516
f 524/524/524 516/516/516 515/515/515
f 524/524/524 515/515/515 421/421/421
f 524/524/524 421/421/421 420/420/420
f 526/526/526 525/525/525 446/446/446
f 526/526/526 446/446/446 445/445/445
f 526/526/526 445/445/445 440/440/440
f 526/526/526 440/440/440 527/527/527
f 526/526/526 527/527/527 520/520/520
f 526/526/526 520/520/520 519/519/519
f 526/526/526 519/519/519 516/516/516
f 526/526/526 516/516/516 525/525/525
f 528/528/528 527/527/527 440/440/440
f 528/528/528 440/440/440 439/439/439
f 528/528/528 439/439/439 413/413/413
f 528/528/528 413/413/413 412/412/412
f 528/528/528 412/412/412 407/407/407
f 528/528/528 407/407/407 523/523/523
f 528/528/528 523/523/523 520/520/520
f 528/528/528 520/520/520 527/527/527
