v 1.642213 0.354453 -0.825786
v 1.639668 0.353750 -0.827332
v 1.640257 0.353750 -0.828303
v 1.642803 0.354453 -0.826757
v 1.642803 0.356554 -0.826757
v 1.639499 0.355654 -0.828764
v 1.638909 0.355654 -0.827793
v 1.642213 0.356554 -0.825786
v 1.636764 0.352418 -0.830425
v 1.636174 0.352418 -0.829454
v 1.637645 0.351213 -0.828560
v 1.638235 0.351213 -0.829531
v 1.637076 0.348277 -0.828906
v 1.637666 0.348277 -0.829877
v 1.635850 0.348277 -0.830980
v 1.635260 0.348277 -0.830009
v 1.636764 0.344136 -0.830425
v 1.636174 0.344136 -0.829454
v 1.637645 0.345341 -0.828560
v 1.638235 0.345341 -0.829531
v 1.639668 0.342804 -0.827332
v 1.640257 0.342804 -0.828303
v 1.639499 0.340900 -0.828764
v 1.638909 0.340900 -0.827793
v 1.642803 0.340000 -0.826757
v 1.642213 0.340000 -0.825786
v 1.642213 0.342101 -0.825786
v 1.642803 0.342101 -0.826757
v 1.752597 0.356554 -0.760072
v 1.751482 0.356554 -0.760749
v 1.750892 0.356554 -0.759778
v 1.752008 0.356554 -0.759101
v 1.751482 0.354453 -0.760749
v 1.752597 0.354453 -0.760072
v 1.752008 0.354453 -0.759101
v 1.750892 0.354453 -0.759778
v 1.751546 0.340000 -0.760711
v 1.752597 0.340000 -0.760072
v 1.752008 0.340000 -0.759101
v 1.750956 0.340000 -0.759740
v 1.752597 0.342101 -0.760072
v 1.751546 0.342101 -0.760711
v 1.750956 0.342101 -0.759740
v 1.752008 0.342101 -0.759101
v 1.644293 0.356554 -0.825852
v 1.642803 0.356554 -0.826757
v 1.642213 0.356554 -0.825786
v 1.643703 0.356554 -0.824881
v 1.644293 0.354453 -0.825852
v 1.643703 0.354453 -0.824881
v 1.644569 0.340000 -0.825684
v 1.643979 0.340000 -0.824713
v 1.644569 0.342101 -0.825684
v 1.643979 0.342101 -0.824713
v 1.557289 0.354453 -0.685962
v 1.554744 0.353750 -0.687508
v 1.555158 0.353750 -0.688189
v 1.557703 0.354453 -0.686643
v 1.554399 0.355654 -0.688650
v 1.557703 0.356554 -0.686643
v 1.553985 0.355654 -0.687969
v 1.557289 0.356554 -0.685962
v 1.551664 0.352418 -0.690311
v 1.551250 0.352418 -0.689629
v 1.552721 0.351213 -0.688736
v 1.553135 0.351213 -0.689418
v 1.552152 0.348277 -0.689082
v 1.552566 0.348277 -0.689763
v 1.550750 0.348277 -0.690867
v 1.550336 0.348277 -0.690185
v 1.551664 0.344136 -0.690311
v 1.551250 0.344136 -0.689629
v 1.552721 0.345341 -0.688736
v 1.553135 0.345341 -0.689418
v 1.554744 0.342804 -0.687508
v 1.555158 0.342804 -0.688189
v 1.554399 0.340900 -0.688650
v 1.553985 0.340900 -0.687969
v 1.557703 0.340000 -0.686643
v 1.557289 0.340000 -0.685962
v 1.557289 0.342101 -0.685962
v 1.557703 0.342101 -0.686643
v 1.666382 0.356554 -0.620636
v 1.667498 0.356554 -0.619958
v 1.665968 0.356554 -0.619954
v 1.667083 0.356554 -0.619276
v 1.667498 0.354453 -0.619958
v 1.666382 0.354453 -0.620636
v 1.667083 0.354453 -0.619276
v 1.665968 0.354453 -0.619954
v 1.667498 0.340000 -0.619958
v 1.666446 0.340000 -0.620597
v 1.667083 0.340000 -0.619276
v 1.666032 0.340000 -0.619915
v 1.666446 0.342101 -0.620597
v 1.667498 0.342101 -0.619958
v 1.666032 0.342101 -0.619915
v 1.667083 0.342101 -0.619276
v 1.557703 0.356554 -0.686643
v 1.559193 0.356554 -0.685738
v 1.557289 0.356554 -0.685962
v 1.558779 0.356554 -0.685056
v 1.559193 0.354453 -0.685738
v 1.558779 0.354453 -0.685056
v 1.559469 0.340000 -0.685571
v 1.559055 0.340000 -0.684889
v 1.559469 0.342101 -0.685571
v 1.559055 0.342101 -0.684889
v 1.642803 0.355825 -0.826757
v 1.639762 0.354994 -0.828604
v 1.554248 0.354994 -0.687809
v 1.557289 0.355825 -0.685962
v 1.551760 0.352000 -0.689320
v 1.637274 0.352000 -0.830115
v 1.636479 0.348277 -0.830598
v 1.550965 0.348277 -0.689802
v 1.551760 0.344554 -0.689320
v 1.637274 0.344554 -0.830115
v 1.639762 0.341560 -0.828604
v 1.554248 0.341560 -0.687809
v 1.557289 0.340728 -0.685962
v 1.642803 0.340728 -0.826757
v 1.665968 0.355825 -0.619954
v 1.667083 0.355825 -0.619276
v 1.667083 0.356554 -0.619276
v 1.665968 0.356554 -0.619954
v 1.752597 0.355825 -0.760072
v 1.751482 0.355825 -0.760749
v 1.751482 0.356554 -0.760749
v 1.752597 0.356554 -0.760072
v 1.751546 0.340728 -0.760711
v 1.752597 0.340728 -0.760072
v 1.667083 0.340728 -0.619276
v 1.666032 0.340728 -0.619915
v 1.558779 0.355825 -0.685056
v 1.558779 0.356554 -0.685056
v 1.644293 0.355825 -0.825852
v 1.644293 0.356554 -0.825852
v 1.644569 0.340728 -0.825684
v 1.559055 0.340728 -0.684889
v 1.752008 0.340728 -0.759101
v 1.752008 0.355825 -0.759101
v 1.752008 0.356554 -0.759101
v 1.667498 0.340728 -0.619958
v 1.667498 0.355825 -0.619958
v 1.667498 0.356554 -0.619958
v 1.639998 0.354401 -0.828461
v 1.642803 0.355171 -0.826757
v 1.554484 0.354401 -0.687665
v 1.557289 0.355171 -0.685962
v 1.552218 0.351625 -0.689041
v 1.637732 0.351625 -0.829837
v 1.637045 0.348277 -0.830254
v 1.551531 0.348277 -0.689459
v 1.552218 0.344929 -0.689041
v 1.637732 0.344929 -0.829837
v 1.639998 0.342153 -0.828461
v 1.554484 0.342153 -0.687665
v 1.557289 0.341382 -0.685962
v 1.642803 0.341382 -0.826757
v 1.667083 0.355171 -0.619276
v 1.665968 0.355171 -0.619954
v 1.751482 0.355171 -0.760749
v 1.752597 0.355171 -0.760072
v 1.751546 0.341382 -0.760711
v 1.752597 0.341382 -0.760072
v 1.667083 0.341382 -0.619276
v 1.666032 0.341382 -0.619915
v 1.558779 0.355171 -0.685056
v 1.644293 0.355171 -0.825852
v 1.644569 0.341382 -0.825684
v 1.559055 0.341382 -0.684889
v 1.752008 0.341382 -0.759101
v 1.752008 0.355171 -0.759101
v 1.667498 0.341382 -0.619958
v 1.667498 0.355171 -0.619958
vn 0.098800 -0.993300 0.060000
vn 0.429100 -0.864800 0.260600
vn 0.673500 -0.542700 -0.501900
vn 0.448200 -0.674500 -0.586600
vn 0.282900 0.726300 -0.626500
vn 0.020100 0.663500 -0.747900
vn -0.417100 0.872800 -0.253400
vn -0.097500 0.993500 -0.059200
vn -0.224000 0.373900 -0.900000
vn -0.743300 0.493600 -0.451500
vn 0.755400 -0.467800 0.458800
vn 0.881400 -0.298000 -0.366400
vn 0.854700 0.000000 0.519100
vn 0.949800 0.000000 -0.312800
vn -0.305900 0.000000 -0.952000
vn -0.854700 0.000000 -0.519100
vn -0.224000 -0.373900 -0.900000
vn -0.743300 -0.493600 -0.451500
vn 0.755400 0.467800 0.458800
vn 0.881400 0.298000 -0.366400
vn 0.429100 0.864800 0.260600
vn 0.673500 0.542700 -0.501800
vn 0.020100 -0.663500 -0.747900
vn -0.417100 -0.872800 -0.253300
vn 0.282900 -0.726300 -0.626500
vn -0.097500 -0.993500 -0.059200
vn 0.098800 0.993300 0.060000
vn 0.448200 0.674500 -0.586600
vn 0.793200 0.577300 -0.193700
vn 0.367000 0.707100 -0.604400
vn 0.000000 1.000000 0.000000
vn 0.604300 0.707100 0.367100
vn 0.367000 -0.707100 -0.604400
vn 0.793200 -0.577300 -0.193700
vn 0.604300 -0.707100 0.367100
vn 0.000000 -1.000000 0.000000
vn 0.367100 -0.707100 -0.604400
vn 0.793200 -0.577300 -0.193700
vn 0.604300 -0.707100 0.367000
vn 0.000000 -1.000000 0.000000
vn 0.793100 0.577300 -0.193700
vn 0.367000 0.707100 -0.604400
vn 0.000000 1.000000 0.000000
vn 0.604300 0.707100 0.367100
vn 0.367000 0.707100 -0.604400
vn 0.282900 0.726300 -0.626500
vn -0.097500 0.993500 -0.059200
vn 0.000000 1.000000 0.000000
vn 0.367000 -0.707100 -0.604400
vn 0.000000 -1.000000 0.000000
vn 0.367000 -0.707100 -0.604400
vn 0.000000 -1.000000 0.000000
vn 0.367100 0.707100 -0.604400
vn 0.000000 1.000000 0.000000
vn -0.313900 -0.674500 0.668200
vn -0.134800 -0.542700 0.829000
vn 0.429100 -0.864800 0.260600
vn 0.098800 -0.993300 0.060000
vn -0.417200 0.872800 -0.253400
vn -0.097500 0.993500 -0.059200
vn -0.654300 0.663500 0.362600
vn -0.425500 0.726300 0.539800
vn -0.743300 0.493600 -0.451400
vn -0.901900 0.373900 0.216100
vn 0.081200 -0.298100 0.951100
vn 0.755400 -0.467800 0.458800
vn 0.160300 0.000000 0.987100
vn 0.854700 0.000000 0.519100
vn -0.854700 0.000000 -0.519100
vn -0.985900 0.000000 0.167400
vn -0.743300 -0.493600 -0.451400
vn -0.901900 -0.373900 0.216100
vn 0.081200 0.298100 0.951000
vn 0.755400 0.467800 0.458800
vn -0.134800 0.542700 0.829000
vn 0.429100 0.864800 0.260600
vn -0.417200 -0.872800 -0.253300
vn -0.654300 -0.663500 0.362600
vn -0.097500 -0.993500 -0.059200
vn -0.425400 -0.726300 0.539900
vn -0.313900 0.674500 0.668200
vn 0.098800 0.993300 0.060000
vn 0.000000 1.000000 0.000000
vn 0.604400 0.707100 0.367100
vn -0.367000 0.707100 0.604400
vn 0.193700 0.577300 0.793200
vn 0.604400 -0.707100 0.367100
vn 0.000000 -1.000000 0.000000
vn 0.193700 -0.577300 0.793200
vn -0.367000 -0.707100 0.604400
vn 0.604400 -0.707100 0.367100
vn 0.000000 -1.000000 0.000000
vn 0.193700 -0.577300 0.793200
vn -0.367000 -0.707100 0.604400
vn 0.000000 1.000000 0.000000
vn 0.604400 0.707100 0.367100
vn -0.367000 0.707100 0.604400
vn 0.193700 0.577300 0.793200
vn -0.097500 0.993500 -0.059200
vn 0.000000 1.000000 0.000000
vn -0.425500 0.726300 0.539800
vn -0.367000 0.707100 0.604400
vn 0.000000 -1.000000 0.000000
vn -0.367100 -0.707100 0.604400
vn 0.000000 -1.000000 0.000000
vn -0.367000 -0.707100 0.604400
vn 0.000000 1.000000 0.000000
vn -0.367100 0.707100 0.604400
vn 0.519100 0.000000 -0.854700
vn 0.519100 0.000000 -0.854700
vn -0.519100 0.000000 0.854700
vn -0.519100 0.000000 0.854700
vn -0.519100 0.000000 0.854700
vn 0.519100 0.000000 -0.854700
vn 0.519100 0.000000 -0.854700
vn -0.519100 0.000000 0.854700
vn -0.519100 0.000000 0.854700
vn 0.519100 0.000000 -0.854700
vn 0.519100 0.000000 -0.854700
vn -0.519100 0.000000 0.854700
vn -0.519100 0.000000 0.854700
vn 0.519100 0.000000 -0.854700
vn -0.519100 0.000000 0.854700
vn 0.237300 0.000000 0.971400
vn 0.193700 0.577300 0.793200
vn -0.367000 0.707100 0.604400
vn 0.971400 0.000000 -0.237300
vn 0.519100 0.000000 -0.854700
vn 0.367000 0.707100 -0.604400
vn 0.793200 0.577300 -0.193700
vn 0.519100 0.000000 -0.854700
vn 0.971400 0.000000 -0.237300
vn 0.237300 0.000000 0.971400
vn -0.519100 0.000000 0.854700
vn -0.519100 0.000000 0.854700
vn -0.367000 0.707100 0.604400
vn 0.519100 0.000000 -0.854700
vn 0.367000 0.707100 -0.604400
vn 0.519100 0.000000 -0.854700
vn -0.519100 0.000000 0.854700
vn 0.854700 0.000000 0.519100
vn 0.854700 0.000000 0.519100
vn 0.604300 0.707100 0.367100
vn 0.854700 0.000000 0.519200
vn 0.854700 0.000000 0.519200
vn 0.604400 0.707100 0.367100
vn 0.519100 0.000000 -0.854700
vn 0.519100 0.000000 -0.854700
vn -0.519100 0.000000 0.854700
vn -0.519100 0.000000 0.854700
vn -0.519100 0.000000 0.854700
vn 0.519200 0.000000 -0.854700
vn 0.519200 0.000000 -0.854700
vn -0.519100 0.000000 0.854700
vn -0.519100 0.000000 0.854700
vn 0.519100 0.000000 -0.854700
vn 0.519100 0.000000 -0.854700
vn -0.519100 0.000000 0.854700
vn -0.519100 0.000000 0.854700
vn 0.519100 0.000000 -0.854700
vn 0.237300 0.000000 0.971400
vn -0.519100 0.000000 0.854700
vn 0.519100 0.000000 -0.854700
vn 0.971400 0.000000 -0.237300
vn 0.519100 0.000000 -0.854700
vn 0.971400 0.000000 -0.237300
vn 0.237300 0.000000 0.971400
vn -0.519100 0.000000 0.854700
vn -0.519100 0.000000 0.854700
vn 0.519100 0.000000 -0.854700
vn 0.519100 0.000000 -0.854700
vn -0.519100 0.000000 0.854700
vn 0.854700 0.000000 0.519100
vn 0.854700 0.000000 0.519100
vn 0.854700 0.000000 0.519200
vn 0.854700 0.000000 0.519200
vt 0.034000 0.015900
vt 0.034000 0.015900
vt 0.034000 0.015900
vt 0.034000 0.015900
vt 0.034000 0.015900
vt 0.034000 0.015900
vt 0.034000 0.015900
vt 0.034000 0.015900
vt 0.034000 0.015900
vt 0.034000 0.015900
vt 0.034000 0.015900
vt 0.034000 0.015900
vt 0.034000 0.015900
vt 0.034000 0.015900
vt 0.034000 0.015900
vt 0.034000 0.015900
vt 0.034000 0.015900
vt 0.034000 0.015900
vt 0.034000 0.015900
vt 0.034000 0.015900
vt 0.034000 0.015900
vt 0.034000 0.015900
vt 0.034000 0.015900
vt 0.034000 0.015900
vt 0.034000 0.015900
vt 0.034000 0.015900
vt 0.034000 0.015900
vt 0.034000 0.015900
vt 0.983800 0.994900
vt 0.968600 0.994900
vt 0.968600 0.989100
vt 0.983800 0.989100
vt 0.034000 0.015900
vt 0.034000 0.015900
vt 0.034000 0.015900
vt 0.034000 0.015900
vt 0.034000 0.015900
vt 0.034000 0.015900
vt 0.034000 0.015900
vt 0.034000 0.015900
vt 0.034000 0.015900
vt 0.034000 0.015900
vt 0.034000 0.015900
vt 0.034000 0.015900
vt 0.016700 0.994900
vt 0.008100 0.994900
vt 0.008100 0.989100
vt 0.016700 0.989100
vt 0.034000 0.015900
vt 0.034000 0.015900
vt 0.034000 0.015900
vt 0.034000 0.015900
vt 0.034000 0.015900
vt 0.034000 0.015900
vt 0.034000 0.015900
vt 0.034000 0.015900
vt 0.034000 0.015900
vt 0.034000 0.015900
vt 0.034000 0.015900
vt 0.034000 0.015900
vt 0.034000 0.015900
vt 0.034000 0.015900
vt 0.034000 0.015900
vt 0.034000 0.015900
vt 0.034000 0.015900
vt 0.034000 0.015900
vt 0.034000 0.015900
vt 0.034000 0.015900
vt 0.034000 0.015900
vt 0.034000 0.015900
vt 0.034000 0.015900
vt 0.034000 0.015900
vt 0.034000 0.015900
vt 0.034000 0.015900
vt 0.034000 0.015900
vt 0.034000 0.015900
vt 0.034000 0.015900
vt 0.034000 0.015900
vt 0.034000 0.015900
vt 0.034000 0.015900
vt 0.034000 0.015900
vt 0.034000 0.015900
vt 0.968600 0.237900
vt 0.983800 0.237900
vt 0.968600 0.230400
vt 0.983800 0.230400
vt 0.034000 0.015900
vt 0.034000 0.015900
vt 0.034000 0.015900
vt 0.034000 0.015900
vt 0.034000 0.015900
vt 0.034000 0.015900
vt 0.034000 0.015900
vt 0.034000 0.015900
vt 0.034000 0.015900
vt 0.034000 0.015900
vt 0.034000 0.015900
vt 0.034000 0.015900
vt 0.008100 0.237900
vt 0.016700 0.237900
vt 0.008100 0.230400
vt 0.016700 0.230400
vt 0.034000 0.015900
vt 0.034000 0.015900
vt 0.034000 0.015900
vt 0.034000 0.015900
vt 0.034000 0.015900
vt 0.034000 0.015900
vt 0.034000 0.015900
vt 0.034000 0.015900
vt 0.034000 0.015900
vt 0.034000 0.015900
vt 0.034000 0.015900
vt 0.034000 0.015900
vt 0.034000 0.015900
vt 0.034000 0.015900
vt 0.034000 0.015900
vt 0.034000 0.015900
vt 0.034000 0.015900
vt 0.034000 0.015900
vt 0.034000 0.015900
vt 0.034000 0.015900
vt 0.034000 0.015900
vt 0.034000 0.015900
vt 0.034000 0.015900
vt 0.034000 0.015900
vt 0.034000 0.015900
vt 0.034000 0.015900
vt 0.034000 0.015900
vt 0.034000 0.015900
vt 0.034000 0.015900
vt 0.034000 0.015900
vt 0.034000 0.015900
vt 0.034000 0.015900
vt 0.034000 0.015900
vt 0.034000 0.015900
vt 0.034000 0.015900
vt 0.034000 0.015900
vt 0.034000 0.015900
vt 0.034000 0.015900
vt 0.034000 0.015900
vt 0.034000 0.015900
vt 0.034000 0.015900
vt 0.034000 0.015900
vt 0.034000 0.015900
vt 0.034000 0.015900
vt 0.034000 0.015900
vt 0.034000 0.015900
vt 0.034000 0.015900
vt 0.034000 0.015900
vt 0.034000 0.015900
vt 0.034000 0.015900
vt 0.034000 0.015900
vt 0.034000 0.015900
vt 0.034000 0.015900
vt 0.034000 0.015900
vt 0.034000 0.015900
vt 0.034000 0.015900
vt 0.034000 0.015900
vt 0.034000 0.015900
vt 0.034000 0.015900
vt 0.034000 0.015900
vt 0.034000 0.015900
vt 0.034000 0.015900
vt 0.034000 0.015900
vt 0.034000 0.015900
vt 0.034000 0.015900
vt 0.034000 0.015900
vt 0.034000 0.015900
vt 0.034000 0.015900
vt 0.034000 0.015900
vt 0.034000 0.015900
vt 0.034000 0.015900
vt 0.034000 0.015900
vt 0.034000 0.015900
vt 0.034000 0.015900
f 1/1/1 2/2/2 3/3/3
f 1/1/1 3/3/3 4/4/4
f 5/5/5 6/6/6 7/7/7
f 5/5/5 7/7/7 8/8/8
f 6/6/6 9/9/9 10/10/10
f 6/6/6 10/10/10 7/7/7
f 2/2/2 11/11/11 12/12/12
f 2/2/2 12/12/12 3/3/3
f 11/11/11 13/13/13 14/14/14
f 11/11/11 14/14/14 12/12/12
f 9/9/9 15/15/15 16/16/16
f 9/9/9 16/16/16 10/10/10
f 17/17/17 18/18/18 16/16/16
f 17/17/17 16/16/16 15/15/15
f 19/19/19 20/20/20 14/14/14
f 19/19/19 14/14/14 13/13/13
f 21/21/21 22/22/22 20/20/20
f 21/21/21 20/20/20 19/19/19
f 23/23/23 24/24/24 18/18/18
f 23/23/23 18/18/18 17/17/17
f 25/25/25 26/26/26 24/24/24
f 25/25/25 24/24/24 23/23/23
f 27/27/27 28/28/28 22/22/22
f 27/27/27 22/22/22 21/21/21
f 29/29/29 30/30/30 31/31/31
f 29/29/29 31/31/31 32/32/32
f 33/33/33 34/34/34 35/35/35
f 33/33/33 35/35/35 36/36/36
f 37/37/37 38/38/38 39/39/39
f 37/37/37 39/39/39 40/40/40
f 41/41/41 42/42/42 43/43/43
f 41/41/41 43/43/43 44/44/44
f 45/45/45 46/46/46 47/47/47
f 45/45/45 47/47/47 48/48/48
f 30/30/30 45/45/45 48/48/48
f 30/30/30 48/48/48 31/31/31
f 49/49/49 33/33/33 36/36/36
f 49/49/49 36/36/36 50/50/50
f 4/4/4 49/49/49 50/50/50
f 4/4/4 50/50/50 1/1/1
f 51/51/51 37/37/37 40/40/40
f 51/51/51 40/40/40 52/52/52
f 25/25/25 51/51/51 52/52/52
f 25/25/25 52/52/52 26/26/26
f 53/53/53 28/28/28 27/27/27
f 53/53/53 27/27/27 54/54/54
f 42/42/42 53/53/53 54/54/54
f 42/42/42 54/54/54 43/43/43
f 55/55/55 56/56/56 57/57/57
f 55/55/55 57/57/57 58/58/58
f 58/58/58 57/57/57 2/2/2
f 58/58/58 2/2/2 1/1/1
f 8/8/8 7/7/7 59/59/59
f 8/8/8 59/59/59 60/60/60
f 60/60/60 59/59/59 61/61/61
f 60/60/60 61/61/61 62/62/62
f 7/7/7 10/10/10 63/63/63
f 7/7/7 63/63/63 59/59/59
f 59/59/59 63/63/63 64/64/64
f 59/59/59 64/64/64 61/61/61
f 56/56/56 65/65/65 66/66/66
f 56/56/56 66/66/66 57/57/57
f 57/57/57 66/66/66 11/11/11
f 57/57/57 11/11/11 2/2/2
f 65/65/65 67/67/67 68/68/68
f 65/65/65 68/68/68 66/66/66
f 66/66/66 68/68/68 13/13/13
f 66/66/66 13/13/13 11/11/11
f 10/10/10 16/16/16 69/69/69
f 10/10/10 69/69/69 63/63/63
f 63/63/63 69/69/69 70/70/70
f 63/63/63 70/70/70 64/64/64
f 18/18/18 71/71/71 69/69/69
f 18/18/18 69/69/69 16/16/16
f 71/71/71 72/72/72 70/70/70
f 71/71/71 70/70/70 69/69/69
f 73/73/73 74/74/74 68/68/68
f 73/73/73 68/68/68 67/67/67
f 74/74/74 19/19/19 13/13/13
f 74/74/74 13/13/13 68/68/68
f 75/75/75 76/76/76 74/74/74
f 75/75/75 74/74/74 73/73/73
f 76/76/76 21/21/21 19/19/19
f 76/76/76 19/19/19 74/74/74
f 24/24/24 77/77/77 71/71/71
f 24/24/24 71/71/71 18/18/18
f 77/77/77 78/78/78 72/72/72
f 77/77/77 72/72/72 71/71/71
f 26/26/26 79/79/79 77/77/77
f 26/26/26 77/77/77 24/24/24
f 79/79/79 80/80/80 78/78/78
f 79/79/79 78/78/78 77/77/77
f 81/81/81 82/82/82 76/76/76
f 81/81/81 76/76/76 75/75/75
f 82/82/82 27/27/27 21/21/21
f 82/82/82 21/21/21 76/76/76
f 32/32/32 31/31/31 83/83/83
f 32/32/32 83/83/83 84/84/84
f 84/84/84 83/83/83 85/85/85
f 84/84/84 85/85/85 86/86/86
f 36/36/36 35/35/35 87/87/87
f 36/36/36 87/87/87 88/88/88
f 88/88/88 87/87/87 89/89/89
f 88/88/88 89/89/89 90/90/90
f 40/40/40 39/39/39 91/91/91
f 40/40/40 91/91/91 92/92/92
f 92/92/92 91/91/91 93/93/93
f 92/92/92 93/93/93 94/94/94
f 44/44/44 43/43/43 95/95/95
f 44/44/44 95/95/95 96/96/96
f 96/96/96 95/95/95 97/97/97
f 96/96/96 97/97/97 98/98/98
f 48/48/48 47/47/47 99/99/99
f 48/48/48 99/99/99 100/100/100
f 100/100/100 99/99/99 101/101/101
f 100/100/100 101/101/101 102/102/102
f 31/31/31 48/48/48 100/100/100
f 31/31/31 100/100/100 83/83/83
f 83/83/83 100/100/100 102/102/102
f 83/83/83 102/102/102 85/85/85
f 50/50/50 36/36/36 88/88/88
f 50/50/50 88/88/88 103/103/103
f 103/103/103 88/88/88 90/90/90
f 103/103/103 90/90/90 104/104/104
f 1/1/1 50/50/50 103/103/103
f 1/1/1 103/103/103 58/58/58
f 58/58/58 103/103/103 104/104/104
f 58/58/58 104/104/104 55/55/55
f 52/52/52 40/40/40 92/92/92
f 52/52/52 92/92/92 105/105/105
f 105/105/105 92/92/92 94/94/94
f 105/105/105 94/94/94 106/106/106
f 26/26/26 52/52/52 105/105/105
f 26/26/26 105/105/105 79/79/79
f 79/79/79 105/105/105 106/106/106
f 79/79/79 106/106/106 80/80/80
f 54/54/54 27/27/27 82/82/82
f 54/54/54 82/82/82 107/107/107
f 107/107/107 82/82/82 81/81/81
f 107/107/107 81/81/81 108/108/108
f 43/43/43 54/54/54 107/107/107
f 43/43/43 107/107/107 95/95/95
f 95/95/95 107/107/107 108/108/108
f 95/95/95 108/108/108 97/97/97
f 109/109/109 110/110/110 6/6/6
f 109/109/109 6/6/6 5/5/5
f 62/62/62 61/61/61 111/111/111
f 62/62/62 111/111/111 112/112/112
f 61/61/61 64/64/64 113/113/113
f 61/61/61 113/113/113 111/111/111
f 110/110/110 114/114/114 9/9/9
f 110/110/110 9/9/9 6/6/6
f 114/114/114 115/115/115 15/15/15
f 114/114/114 15/15/15 9/9/9
f 64/64/64 70/70/70 116/116/116
f 64/64/64 116/116/116 113/113/113
f 72/72/72 117/117/117 116/116/116
f 72/72/72 116/116/116 70/70/70
f 118/118/118 17/17/17 15/15/15
f 118/118/118 15/15/15 115/115/115
f 119/119/119 23/23/23 17/17/17
f 119/119/119 17/17/17 118/118/118
f 78/78/78 120/120/120 117/117/117
f 78/78/78 117/117/117 72/72/72
f 80/80/80 121/121/121 120/120/120
f 80/80/80 120/120/120 78/78/78
f 122/122/122 25/25/25 23/23/23
f 122/122/122 23/23/23 119/119/119
f 123/123/123 124/124/124 125/125/125
f 123/123/123 125/125/125 126/126/126
f 127/127/127 128/128/128 129/129/129
f 127/127/127 129/129/129 130/130/130
f 38/38/38 37/37/37 131/131/131
f 38/38/38 131/131/131 132/132/132
f 94/94/94 93/93/93 133/133/133
f 94/94/94 133/133/133 134/134/134
f 135/135/135 123/123/123 126/126/126
f 135/135/135 126/126/126 136/136/136
f 112/112/112 135/135/135 136/136/136
f 112/112/112 136/136/136 62/62/62
f 137/137/137 109/109/109 5/5/5
f 137/137/137 5/5/5 138/138/138
f 128/128/128 137/137/137 138/138/138
f 128/128/128 138/138/138 129/129/129
f 51/51/51 25/25/25 122/122/122
f 51/51/51 122/122/122 139/139/139
f 37/37/37 51/51/51 139/139/139
f 37/37/37 139/139/139 131/131/131
f 106/106/106 94/94/94 134/134/134
f 106/106/106 134/134/134 140/140/140
f 80/80/80 106/106/106 140/140/140
f 80/80/80 140/140/140 121/121/121
f 39/39/39 38/38/38 132/132/132
f 39/39/39 132/132/132 141/141/141
f 142/142/142 127/127/127 130/130/130
f 142/142/142 130/130/130 143/143/143
f 91/91/91 39/39/39 141/141/141
f 91/91/91 141/141/141 144/144/144
f 93/93/93 91/91/91 144/144/144
f 93/93/93 144/144/144 133/133/133
f 145/145/145 142/142/142 143/143/143
f 145/145/145 143/143/143 146/146/146
f 124/124/124 145/145/145 146/146/146
f 124/124/124 146/146/146 125/125/125
f 4/4/4 3/3/3 147/147/147
f 4/4/4 147/147/147 148/148/148
f 148/148/148 147/147/147 110/110/110
f 148/148/148 110/110/110 109/109/109
f 112/112/112 111/111/111 149/149/149
f 112/112/112 149/149/149 150/150/150
f 150/150/150 149/149/149 56/56/56
f 150/150/150 56/56/56 55/55/55
f 111/111/111 113/113/113 151/151/151
f 111/111/111 151/151/151 149/149/149
f 149/149/149 151/151/151 65/65/65
f 149/149/149 65/65/65 56/56/56
f 3/3/3 12/12/12 152/152/152
f 3/3/3 152/152/152 147/147/147
f 147/147/147 152/152/152 114/114/114
f 147/147/147 114/114/114 110/110/110
f 12/12/12 14/14/14 153/153/153
f 12/12/12 153/153/153 152/152/152
f 152/152/152 153/153/153 115/115/115
f 152/152/152 115/115/115 114/114/114
f 113/113/113 116/116/116 154/154/154
f 113/113/113 154/154/154 151/151/151
f 151/151/151 154/154/154 67/67/67
f 151/151/151 67/67/67 65/65/65
f 117/117/117 155/155/155 154/154/154
f 117/117/117 154/154/154 116/116/116
f 155/155/155 73/73/73 67/67/67
f 155/155/155 67/67/67 154/154/154
f 20/20/20 156/156/156 153/153/153
f 20/20/20 153/153/153 14/14/14
f 156/156/156 118/118/118 115/115/115
f 156/156/156 115/115/115 153/153/153
f 22/22/22 157/157/157 156/156/156
f 22/22/22 156/156/156 20/20/20
f 157/157/157 119/119/119 118/118/118
f 157/157/157 118/118/118 156/156/156
f 120/120/120 158/158/158 155/155/155
f 120/120/120 155/155/155 117/117/117
f 158/158/158 75/75/75 73/73/73
f 158/158/158 73/73/73 155/155/155
f 121/121/121 159/159/159 158/158/158
f 121/121/121 158/158/158 120/120/120
f 159/159/159 81/81/81 75/75/75
f 159/159/159 75/75/75 158/158/158
f 28/28/28 160/160/160 157/157/157
f 28/28/28 157/157/157 22/22/22
f 160/160/160 122/122/122 119/119/119
f 160/160/160 119/119/119 157/157/157
f 90/90/90 89/89/89 161/161/161
f 90/90/90 161/161/161 162/162/162
f 162/162/162 161/161/161 124/124/124
f 162/162/162 124/124/124 123/123/123
f 34/34/34 33/33/33 163/163/163
f 34/34/34 163/163/163 164/164/164
f 164/164/164 163/163/163 128/128/128
f 164/164/164 128/128/128 127/127/127
f 132/132/132 131/131/131 165/165/165
f 132/132/132 165/165/165 166/166/166
f 166/166/166 165/165/165 42/42/42
f 166/166/166 42/42/42 41/41/41
f 134/134/134 133/133/133 167/167/167
f 134/134/134 167/167/167 168/168/168
f 168/168/168 167/167/167 98/98/98
f 168/168/168 98/98/98 97/97/97
f 104/104/104 90/90/90 162/162/162
f 104/104/104 162/162/162 169/169/169
f 169/169/169 162/162/162 123/123/123
f 169/169/169 123/123/123 135/135/135
f 55/55/55 104/104/104 169/169/169
f 55/55/55 169/169/169 150/150/150
f 150/150/150 169/169/169 135/135/135
f 150/150/150 135/135/135 112/112/112
f 49/49/49 4/4/4 148/148/148
f 49/49/49 148/148/148 170/170/170
f 170/170/170 148/148/148 109/109/109
f 170/170/170 109/109/109 137/137/137
f 33/33/33 49/49/49 170/170/170
f 33/33/33 170/170/170 163/163/163
f 163/163/163 170/170/170 137/137/137
f 163/163/163 137/137/137 128/128/128
f 139/139/139 122/122/122 160/160/160
f 139/139/139 160/160/160 171/171/171
f 171/171/171 160/160/160 28/28/28
f 171/171/171 28/28/28 53/53/53
f 131/131/131 139/139/139 171/171/171
f 131/131/131 171/171/171 165/165/165
f 165/165/165 171/171/171 53/53/53
f 165/165/165 53/53/53 42/42/42
f 140/140/140 134/134/134 168/168/168
f 140/140/140 168/168/168 172/172/172
f 172/172/172 168/168/168 97/97/97
f 172/172/172 97/97/97 108/108/108
f 121/121/121 140/140/140 172/172/172
f 121/121/121 172/172/172 159/159/159
f 159/159/159 172/172/172 108/108/108
f 159/159/159 108/108/108 81/81/81
f 141/141/141 132/132/132 166/166/166
f 141/141/141 166/166/166 173/173/173
f 173/173/173 166/166/166 41/41/41
f 173/173/173 41/41/41 44/44/44
f 35/35/35 34/34/34 164/164/164
f 35/35/35 164/164/164 174/174/174
f 174/174/174 164/164/164 127/127/127
f 174/174/174 127/127/127 142/142/142
f 144/144/144 141/141/141 173/173/173
f 144/144/144 173/173/173 175/175/175
f 175/175/175 173/173/173 44/44/44
f 175/175/175 44/44/44 96/96/96
f 133/133/133 144/144/144 175/175/175
f 133/133/133 175/175/175 167/167/167
f 167/167/167 175/175/175 96/96/96
f 167/167/167 96/96/96 98/98/98
f 87/87/87 35/35/35 174/174/174
f 87/87/87 174/174/174 176/176/176
f 176/176/176 174/174/174 142/142/142
f 176/176/176 142/142/142 145/145/145
f 89/89/89 87/87/87 176/176/176
f 89/89/89 176/176/176 161/161/161
f 161/161/161 176/176/176 145/145/145
f 161/161/161 145/145/145 124/124/124
