v -1.288318 0.558591 -0.722963
v -1.287687 0.558591 -0.722216
v -1.287687 0.559009 -0.722216
v -1.288318 0.559009 -0.722963
v -1.288737 0.559009 -0.723846
v -1.288737 0.558591 -0.723846
v -1.288711 0.558193 -0.723855
v -1.288295 0.558193 -0.722978
v -1.287669 0.558193 -0.722236
v -1.286883 0.558591 -0.721661
v -1.285963 0.558591 -0.721329
v -1.285963 0.559009 -0.721329
v -1.286883 0.559009 -0.721661
v -1.286870 0.558193 -0.721685
v -1.285957 0.558193 -0.721356
v -1.284988 0.558591 -0.721251
v -1.284026 0.558591 -0.721423
v -1.284026 0.559009 -0.721423
v -1.284988 0.559009 -0.721251
v -1.284990 0.558193 -0.721278
v -1.284034 0.558193 -0.721449
v -1.283143 0.558591 -0.721842
v -1.283143 0.559009 -0.721842
v -1.283158 0.558193 -0.721865
v -1.282416 0.558193 -0.722491
v -1.282396 0.558591 -0.722473
v -1.282396 0.559009 -0.722473
v -1.281841 0.558591 -0.723278
v -1.281841 0.559009 -0.723278
v -1.281865 0.558193 -0.723290
v -1.281536 0.558193 -0.724203
v -1.281509 0.558591 -0.724197
v -1.281509 0.559009 -0.724197
v -1.281430 0.558591 -0.725172
v -1.281603 0.558591 -0.726134
v -1.281603 0.559009 -0.726134
v -1.281430 0.559009 -0.725172
v -1.281458 0.558193 -0.725171
v -1.281629 0.558193 -0.726126
v -1.282022 0.558591 -0.727017
v -1.282653 0.558591 -0.727765
v -1.282653 0.559009 -0.727765
v -1.282022 0.559009 -0.727017
v -1.282045 0.558193 -0.727003
v -1.282671 0.558193 -0.727744
v -1.283458 0.558591 -0.728320
v -1.284377 0.558591 -0.728652
v -1.284377 0.559009 -0.728652
v -1.283458 0.559009 -0.728320
v -1.283470 0.558193 -0.728295
v -1.284383 0.558193 -0.728625
v -1.285352 0.558591 -0.728730
v -1.286314 0.558591 -0.728558
v -1.286314 0.559009 -0.728558
v -1.285352 0.559009 -0.728730
v -1.285350 0.558193 -0.728702
v -1.286306 0.558193 -0.728531
v -1.287197 0.558591 -0.728138
v -1.287944 0.558591 -0.727508
v -1.287944 0.559009 -0.727508
v -1.287197 0.559009 -0.728138
v -1.287182 0.558193 -0.728115
v -1.287924 0.558193 -0.727489
v -1.288499 0.558591 -0.726703
v -1.288831 0.558591 -0.725783
v -1.288831 0.559009 -0.725783
v -1.288499 0.559009 -0.726703
v -1.288475 0.558193 -0.726690
v -1.288805 0.558193 -0.725777
v -1.288910 0.558591 -0.724809
v -1.288910 0.559009 -0.724809
v -1.288882 0.558193 -0.724810
v -1.288800 0.557834 -0.724814
v -1.288633 0.557834 -0.723880
v -1.288724 0.557834 -0.725760
v -1.288640 0.557481 -0.725742
v -1.288714 0.557481 -0.724818
v -1.288551 0.557481 -0.723906
v -1.288402 0.557834 -0.726653
v -1.287863 0.557834 -0.727434
v -1.287799 0.557481 -0.727376
v -1.288325 0.557481 -0.726613
v -1.287138 0.557834 -0.728046
v -1.286281 0.557834 -0.728453
v -1.286254 0.557481 -0.728371
v -1.287091 0.557481 -0.727973
v -1.285346 0.557834 -0.728620
v -1.284400 0.557834 -0.728544
v -1.284419 0.557481 -0.728460
v -1.285342 0.557481 -0.728534
v -1.283508 0.557834 -0.728222
v -1.282726 0.557834 -0.727683
v -1.282784 0.557481 -0.727620
v -1.283547 0.557481 -0.728146
v -1.282114 0.557834 -0.726958
v -1.281707 0.557834 -0.726101
v -1.281789 0.557481 -0.726074
v -1.282187 0.557481 -0.726911
v -1.281540 0.557834 -0.725167
v -1.281616 0.557834 -0.724221
v -1.281700 0.557481 -0.724239
v -1.281626 0.557481 -0.725162
v -1.281938 0.557834 -0.723328
v -1.282477 0.557834 -0.722547
v -1.282541 0.557481 -0.722604
v -1.282015 0.557481 -0.723367
v -1.283202 0.557834 -0.721935
v -1.284060 0.557834 -0.721527
v -1.284086 0.557481 -0.721609
v -1.283249 0.557481 -0.722007
v -1.284994 0.557834 -0.721360
v -1.285940 0.557834 -0.721436
v -1.285922 0.557481 -0.721520
v -1.284998 0.557481 -0.721446
v -1.286832 0.557834 -0.721758
v -1.287614 0.557834 -0.722297
v -1.287556 0.557481 -0.722361
v -1.286793 0.557481 -0.721835
v -1.288226 0.557834 -0.723022
v -1.288153 0.557481 -0.723069
v -1.290171 0.551598 -0.721770
v -1.289169 0.551598 -0.720583
v -1.288510 0.553425 -0.721310
v -1.289346 0.553425 -0.722301
v -1.289903 0.553425 -0.723473
v -1.290837 0.551598 -0.723173
v -1.291722 0.549547 -0.722889
v -1.290952 0.549547 -0.721267
v -1.289794 0.549547 -0.719894
v -1.287891 0.551598 -0.719701
v -1.286430 0.551598 -0.719174
v -1.286222 0.553425 -0.720133
v -1.287442 0.553425 -0.720573
v -1.288316 0.549547 -0.718875
v -1.286626 0.549547 -0.718265
v -1.284882 0.551598 -0.719049
v -1.283353 0.551598 -0.719323
v -1.283652 0.553425 -0.720258
v -1.284929 0.553425 -0.720029
v -1.284836 0.549547 -0.718121
v -1.283069 0.549547 -0.718438
v -1.281950 0.551598 -0.719990
v -1.282481 0.553425 -0.720814
v -1.281447 0.549547 -0.719208
v -1.280074 0.549547 -0.720366
v -1.280763 0.551598 -0.720991
v -1.281489 0.553425 -0.721650
v -1.279881 0.551598 -0.722270
v -1.280753 0.553425 -0.722718
v -1.279055 0.549547 -0.721845
v -1.278445 0.549547 -0.723534
v -1.279353 0.551598 -0.723731
v -1.280313 0.553425 -0.723938
v -1.279229 0.551598 -0.725279
v -1.279503 0.551598 -0.726808
v -1.280437 0.553425 -0.726508
v -1.280209 0.553425 -0.725231
v -1.278301 0.549547 -0.725324
v -1.278618 0.549547 -0.727092
v -1.280169 0.551598 -0.728211
v -1.281171 0.551598 -0.729398
v -1.281830 0.553425 -0.728671
v -1.280994 0.553425 -0.727679
v -1.279388 0.549547 -0.728714
v -1.280546 0.549547 -0.730086
v -1.282450 0.551598 -0.730279
v -1.283910 0.551598 -0.730807
v -1.284118 0.553425 -0.729848
v -1.282898 0.553425 -0.729407
v -1.282025 0.549547 -0.731106
v -1.283714 0.549547 -0.731715
v -1.285459 0.551598 -0.730931
v -1.286987 0.551598 -0.730657
v -1.286688 0.553425 -0.729723
v -1.285411 0.553425 -0.729951
v -1.285504 0.549547 -0.731859
v -1.287271 0.549547 -0.731543
v -1.288390 0.551598 -0.729991
v -1.289577 0.551598 -0.728989
v -1.288851 0.553425 -0.728330
v -1.287859 0.553425 -0.729166
v -1.288893 0.549547 -0.730772
v -1.290266 0.549547 -0.729614
v -1.290459 0.551598 -0.727711
v -1.290987 0.551598 -0.726250
v -1.290027 0.553425 -0.726042
v -1.289587 0.553425 -0.727262
v -1.291286 0.549547 -0.728136
v -1.291895 0.549547 -0.726447
v -1.291111 0.551598 -0.724702
v -1.290131 0.553425 -0.724749
v -1.292039 0.549547 -0.724657
v -1.289833 0.539729 -0.721987
v -1.288899 0.539729 -0.720880
v -1.289598 0.541541 -0.720111
v -1.290706 0.541541 -0.721425
v -1.291444 0.541541 -0.722978
v -1.290455 0.539729 -0.723295
v -1.289188 0.538228 -0.723702
v -1.288716 0.538228 -0.722707
v -1.288006 0.538228 -0.721865
v -1.287707 0.539729 -0.720058
v -1.286345 0.539729 -0.719566
v -1.286565 0.541541 -0.718551
v -1.288182 0.541541 -0.719135
v -1.287099 0.538228 -0.721240
v -1.286063 0.538228 -0.720866
v -1.284901 0.539729 -0.719450
v -1.283475 0.539729 -0.719705
v -1.283158 0.541541 -0.718716
v -1.284851 0.541541 -0.718413
v -1.284966 0.538228 -0.720778
v -1.283881 0.538228 -0.720972
v -1.282167 0.539729 -0.720327
v -1.281605 0.541541 -0.719454
v -1.282887 0.538228 -0.721444
v -1.282045 0.538228 -0.722155
v -1.281060 0.539729 -0.721261
v -1.280290 0.541541 -0.720563
v -1.280238 0.539729 -0.722453
v -1.279314 0.541541 -0.721978
v -1.281420 0.538228 -0.723061
v -1.281046 0.538228 -0.724097
v -1.279746 0.539729 -0.723816
v -1.278731 0.541541 -0.723596
v -1.279630 0.539729 -0.725259
v -1.279885 0.539729 -0.726685
v -1.278896 0.541541 -0.727002
v -1.278593 0.541541 -0.725310
v -1.280958 0.538228 -0.725195
v -1.281152 0.538228 -0.726279
v -1.280507 0.539729 -0.727993
v -1.281441 0.539729 -0.729100
v -1.280743 0.541541 -0.729870
v -1.279634 0.541541 -0.728556
v -1.281624 0.538228 -0.727274
v -1.282334 0.538228 -0.728115
v -1.282633 0.539729 -0.729923
v -1.283995 0.539729 -0.730414
v -1.283776 0.541541 -0.731430
v -1.282158 0.541541 -0.730846
v -1.283241 0.538228 -0.728741
v -1.284277 0.538228 -0.729115
v -1.285439 0.539729 -0.730530
v -1.286865 0.539729 -0.730275
v -1.287182 0.541541 -0.731264
v -1.285490 0.541541 -0.731567
v -1.285375 0.538228 -0.729203
v -1.286459 0.538228 -0.729009
v -1.288173 0.539729 -0.729653
v -1.289280 0.539729 -0.728720
v -1.290050 0.541541 -0.729418
v -1.288735 0.541541 -0.730527
v -1.287453 0.538228 -0.728536
v -1.288295 0.538228 -0.727826
v -1.290102 0.539729 -0.727527
v -1.290594 0.539729 -0.726165
v -1.291610 0.541541 -0.726385
v -1.291026 0.541541 -0.728002
v -1.288920 0.538228 -0.726919
v -1.289294 0.538228 -0.725883
v -1.290710 0.539729 -0.724721
v -1.291747 0.541541 -0.724671
v -1.289382 0.538228 -0.724786
v -1.287828 0.537210 -0.724861
v -1.287705 0.537210 -0.724177
v -1.287772 0.537210 -0.725554
v -1.286818 0.536780 -0.725347
v -1.286500 0.536629 -0.724971
v -1.286409 0.536629 -0.724593
v -1.287536 0.537210 -0.726207
v -1.287142 0.537210 -0.726779
v -1.286134 0.536629 -0.725864
v -1.286373 0.536629 -0.725558
v -1.286611 0.537210 -0.727227
v -1.285983 0.537210 -0.727525
v -1.285685 0.536780 -0.726596
v -1.285852 0.536629 -0.726133
v -1.285299 0.537210 -0.727648
v -1.284607 0.537210 -0.727592
v -1.284895 0.536629 -0.726262
v -1.285280 0.536629 -0.726316
v -1.283953 0.537210 -0.727356
v -1.283381 0.537210 -0.726962
v -1.284037 0.536780 -0.726239
v -1.284522 0.536629 -0.726152
v -1.282933 0.537210 -0.726431
v -1.282635 0.537210 -0.725803
v -1.283931 0.536629 -0.725388
v -1.284077 0.536629 -0.725748
v -1.282513 0.537210 -0.725119
v -1.282568 0.537210 -0.724427
v -1.283522 0.536780 -0.724633
v -1.283840 0.536629 -0.725009
v -1.282804 0.537210 -0.723773
v -1.283198 0.537210 -0.723201
v -1.284207 0.536629 -0.724116
v -1.283967 0.536629 -0.724422
v -1.283730 0.537210 -0.722753
v -1.284357 0.537210 -0.722455
v -1.284655 0.536780 -0.723385
v -1.284488 0.536629 -0.723848
v -1.285041 0.537210 -0.722333
v -1.285734 0.537210 -0.722388
v -1.285445 0.536629 -0.723719
v -1.285060 0.536629 -0.723665
v -1.286387 0.537210 -0.722624
v -1.286959 0.537210 -0.723019
v -1.286303 0.536780 -0.723741
v -1.285818 0.536629 -0.723829
v -1.287407 0.537210 -0.723550
v -1.286263 0.536629 -0.724232
v -1.292584 0.547520 -0.724630
v -1.292429 0.547520 -0.726562
v -1.292564 0.545504 -0.726592
v -1.292722 0.545504 -0.724623
v -1.292374 0.545504 -0.722680
v -1.292242 0.547520 -0.722722
v -1.292431 0.543488 -0.724638
v -1.292279 0.543488 -0.726530
v -1.292096 0.543488 -0.722769
v -1.291771 0.547520 -0.728385
v -1.290670 0.547520 -0.729981
v -1.290773 0.545504 -0.730074
v -1.291894 0.545504 -0.728449
v -1.291634 0.543488 -0.728315
v -1.290557 0.543488 -0.729878
v -1.289189 0.547520 -0.731231
v -1.287438 0.547520 -0.732063
v -1.287480 0.545504 -0.732195
v -1.289264 0.545504 -0.731347
v -1.289106 0.543488 -0.731102
v -1.287391 0.543488 -0.731916
v -1.285530 0.547520 -0.732404
v -1.283598 0.547520 -0.732249
v -1.283569 0.545504 -0.732385
v -1.285537 0.545504 -0.732543
v -1.285523 0.543488 -0.732251
v -1.283631 0.543488 -0.732099
v -1.281775 0.547520 -0.731591
v -1.280179 0.547520 -0.730491
v -1.280086 0.545504 -0.730593
v -1.281712 0.545504 -0.731714
v -1.281845 0.543488 -0.731454
v -1.280282 0.543488 -0.730377
v -1.278930 0.547520 -0.729009
v -1.278098 0.547520 -0.727258
v -1.277966 0.545504 -0.727301
v -1.278813 0.545504 -0.729084
v -1.279058 0.543488 -0.728926
v -1.278244 0.543488 -0.727211
v -1.277756 0.547520 -0.725350
v -1.277911 0.547520 -0.723418
v -1.277776 0.545504 -0.723389
v -1.277618 0.545504 -0.725357
v -1.277909 0.543488 -0.725343
v -1.278061 0.543488 -0.723451
v -1.278569 0.547520 -0.721595
v -1.279670 0.547520 -0.719999
v -1.279567 0.545504 -0.719906
v -1.278446 0.545504 -0.721532
v -1.278706 0.543488 -0.721665
v -1.279783 0.543488 -0.720103
v -1.281151 0.547520 -0.718750
v -1.282902 0.547520 -0.717918
v -1.282860 0.545504 -0.717786
v -1.281076 0.545504 -0.718633
v -1.281234 0.543488 -0.718879
v -1.282949 0.543488 -0.718064
v -1.284810 0.547520 -0.717576
v -1.286742 0.547520 -0.717731
v -1.286771 0.545504 -0.717596
v -1.284803 0.545504 -0.717438
v -1.284817 0.543488 -0.717730
v -1.286710 0.543488 -0.717881
v -1.288565 0.547520 -0.718390
v -1.290161 0.547520 -0.719490
v -1.290254 0.545504 -0.719387
v -1.288629 0.545504 -0.718266
v -1.288495 0.543488 -0.718526
v -1.290058 0.543488 -0.719604
v -1.291411 0.547520 -0.720971
v -1.291527 0.545504 -0.720896
v -1.291282 0.543488 -0.721054
v -1.284956 0.536435 -0.724323
v -1.285288 0.536435 -0.724443
v -1.285170 0.536435 -0.724990
v -1.284756 0.536435 -0.724614
v -1.285641 0.536435 -0.724472
v -1.285703 0.536435 -0.724819
v -1.285854 0.536435 -0.725138
v -1.285584 0.536435 -0.725366
v -1.285384 0.536435 -0.725657
v -1.285052 0.536435 -0.725537
v -1.284700 0.536435 -0.725509
v -1.284637 0.536435 -0.725161
v -1.284486 0.536435 -0.724842
v -1.288758 0.556125 -0.724816
v -1.288674 0.556339 -0.724820
v -1.288601 0.556339 -0.725733
v -1.288683 0.556125 -0.725751
v -1.288904 0.555674 -0.725799
v -1.288983 0.555674 -0.724805
v -1.288808 0.555674 -0.723824
v -1.288593 0.556125 -0.723893
v -1.288513 0.556339 -0.723918
v -1.289432 0.554779 -0.724783
v -1.289343 0.554779 -0.725894
v -1.289235 0.554779 -0.723687
v -1.288365 0.556125 -0.726633
v -1.288290 0.556339 -0.726595
v -1.287770 0.556339 -0.727349
v -1.287832 0.556125 -0.727406
v -1.287999 0.555674 -0.727557
v -1.288565 0.555674 -0.726737
v -1.288964 0.554779 -0.726942
v -1.288332 0.554779 -0.727859
v -1.287115 0.556125 -0.728010
v -1.287070 0.556339 -0.727940
v -1.286242 0.556339 -0.728333
v -1.286268 0.556125 -0.728413
v -1.286337 0.555674 -0.728628
v -1.287237 0.555674 -0.728200
v -1.287480 0.554779 -0.728577
v -1.286474 0.554779 -0.729056
v -1.285344 0.556125 -0.728578
v -1.285340 0.556339 -0.728495
v -1.284427 0.556339 -0.728421
v -1.284409 0.556125 -0.728503
v -1.284361 0.555674 -0.728724
v -1.285355 0.555674 -0.728804
v -1.285377 0.554779 -0.729252
v -1.284266 0.554779 -0.729163
v -1.283527 0.556125 -0.728185
v -1.283565 0.556339 -0.728110
v -1.282811 0.556339 -0.727590
v -1.282755 0.556125 -0.727652
v -1.282603 0.555674 -0.727819
v -1.283424 0.555674 -0.728385
v -1.283219 0.554779 -0.728784
v -1.282301 0.554779 -0.728152
v -1.282150 0.556125 -0.726935
v -1.282220 0.556339 -0.726890
v -1.281827 0.556339 -0.726062
v -1.281747 0.556125 -0.726088
v -1.281532 0.555674 -0.726157
v -1.281960 0.555674 -0.727057
v -1.281583 0.554779 -0.727300
v -1.281105 0.554779 -0.726294
v -1.281582 0.556125 -0.725164
v -1.281666 0.556339 -0.725160
v -1.281739 0.556339 -0.724247
v -1.281657 0.556125 -0.724229
v -1.281436 0.555674 -0.724182
v -1.281357 0.555674 -0.725175
v -1.280908 0.554779 -0.725197
v -1.280998 0.554779 -0.724087
v -1.281976 0.556125 -0.723347
v -1.282050 0.556339 -0.723385
v -1.282570 0.556339 -0.722631
v -1.282508 0.556125 -0.722575
v -1.282341 0.555674 -0.722423
v -1.281775 0.555674 -0.723244
v -1.281376 0.554779 -0.723039
v -1.282008 0.554779 -0.722121
v -1.283225 0.556125 -0.721970
v -1.283270 0.556339 -0.722040
v -1.284098 0.556339 -0.721647
v -1.284072 0.556125 -0.721568
v -1.284003 0.555674 -0.721353
v -1.283103 0.555674 -0.721780
v -1.282860 0.554779 -0.721403
v -1.283866 0.554779 -0.720925
v -1.284996 0.556125 -0.721402
v -1.285000 0.556339 -0.721486
v -1.285913 0.556339 -0.721559
v -1.285931 0.556125 -0.721477
v -1.285979 0.555674 -0.721257
v -1.284985 0.555674 -0.721177
v -1.284963 0.554779 -0.720729
v -1.286074 0.554779 -0.720818
v -1.286813 0.556125 -0.721796
v -1.286775 0.556339 -0.721870
v -1.287529 0.556339 -0.722390
v -1.287585 0.556125 -0.722328
v -1.287737 0.555674 -0.722161
v -1.286916 0.555674 -0.721595
v -1.287122 0.554779 -0.721196
v -1.288039 0.554779 -0.721829
v -1.288190 0.556125 -0.723045
v -1.288120 0.556339 -0.723091
v -1.288380 0.555674 -0.722923
v -1.288757 0.554779 -0.722680
v -1.288120 0.557100 -0.723091
v -1.288513 0.557100 -0.723918
v -1.288500 0.556759 -0.723922
v -1.288108 0.556759 -0.723098
v -1.287520 0.556759 -0.722400
v -1.287529 0.557100 -0.722390
v -1.288100 0.556529 -0.723103
v -1.288491 0.556529 -0.723925
v -1.287513 0.556529 -0.722408
v -1.286775 0.557100 -0.721870
v -1.286769 0.556759 -0.721882
v -1.285910 0.556759 -0.721573
v -1.285913 0.557100 -0.721559
v -1.286764 0.556529 -0.721891
v -1.285908 0.556529 -0.721582
v -1.285000 0.557100 -0.721486
v -1.285001 0.556759 -0.721500
v -1.284102 0.556759 -0.721660
v -1.284098 0.557100 -0.721647
v -1.285001 0.556529 -0.721509
v -1.284105 0.556529 -0.721669
v -1.283270 0.557100 -0.722040
v -1.283278 0.556759 -0.722052
v -1.282580 0.556759 -0.722640
v -1.282570 0.557100 -0.722631
v -1.283283 0.556529 -0.722060
v -1.282587 0.556529 -0.722647
v -1.282050 0.557100 -0.723385
v -1.282062 0.556759 -0.723392
v -1.281752 0.556759 -0.724250
v -1.281739 0.557100 -0.724247
v -1.282071 0.556529 -0.723396
v -1.281762 0.556529 -0.724252
v -1.281665 0.557100 -0.725160
v -1.281679 0.556759 -0.725160
v -1.281840 0.556759 -0.726058
v -1.281827 0.557100 -0.726062
v -1.281689 0.556529 -0.725159
v -1.281849 0.556529 -0.726055
v -1.282220 0.557100 -0.726890
v -1.282232 0.556759 -0.726882
v -1.282820 0.556759 -0.727580
v -1.282811 0.557100 -0.727590
v -1.282240 0.556529 -0.726877
v -1.282827 0.556529 -0.727573
v -1.283565 0.557100 -0.728110
v -1.283572 0.556759 -0.728098
v -1.284430 0.556759 -0.728408
v -1.284427 0.557100 -0.728422
v -1.283576 0.556529 -0.728090
v -1.284432 0.556529 -0.728399
v -1.285340 0.557100 -0.728495
v -1.285340 0.556759 -0.728481
v -1.286238 0.556759 -0.728320
v -1.286242 0.557100 -0.728333
v -1.285339 0.556529 -0.728471
v -1.286235 0.556529 -0.728311
v -1.287070 0.557100 -0.727940
v -1.287062 0.556759 -0.727928
v -1.287760 0.556759 -0.727340
v -1.287770 0.557100 -0.727349
v -1.287057 0.556529 -0.727921
v -1.287753 0.556529 -0.727334
v -1.288290 0.557100 -0.726595
v -1.288278 0.556759 -0.726589
v -1.288588 0.556759 -0.725730
v -1.288601 0.557100 -0.725733
v -1.288269 0.556529 -0.726584
v -1.288579 0.556529 -0.725728
v -1.288675 0.557100 -0.724820
v -1.288661 0.556759 -0.724821
v -1.288651 0.556529 -0.724821
vn -0.840200 -0.034200 0.541100
vn -0.671600 -0.034200 0.740100
vn -0.672000 0.000000 0.740600
vn -0.840700 0.000000 0.541400
vn -0.952200 0.000000 0.305400
vn -0.951700 -0.034300 0.305200
vn -0.942100 -0.145400 0.302100
vn -0.831800 -0.145300 0.535700
vn -0.664800 -0.145400 0.732700
vn -0.457100 -0.034100 0.888700
vn -0.211500 -0.034200 0.976800
vn -0.211600 0.000000 0.977300
vn -0.457400 0.000000 0.889200
vn -0.452500 -0.145400 0.879800
vn -0.209400 -0.145400 0.966900
vn 0.048500 -0.034200 0.998200
vn 0.305200 -0.034200 0.951700
vn 0.305400 0.000000 0.952200
vn 0.048500 0.000000 0.998800
vn 0.047900 -0.145300 0.988200
vn 0.302000 -0.145400 0.942100
vn 0.541100 -0.034200 0.840300
vn 0.541400 0.000000 0.840700
vn 0.535700 -0.145300 0.831800
vn 0.732700 -0.145400 0.664800
vn 0.740100 -0.034200 0.671600
vn 0.740600 0.000000 0.672000
vn 0.888700 -0.034300 0.457100
vn 0.889200 0.000000 0.457400
vn 0.879800 -0.145300 0.452500
vn 0.966900 -0.145500 0.209400
vn 0.976700 -0.034500 0.211500
vn 0.977300 0.000000 0.211600
vn 0.998200 -0.034400 -0.048500
vn 0.951700 -0.034400 -0.305200
vn 0.952200 0.000000 -0.305400
vn 0.998800 0.000000 -0.048500
vn 0.988200 -0.145500 -0.048000
vn 0.942100 -0.145500 -0.302100
vn 0.840200 -0.034200 -0.541100
vn 0.671600 -0.034100 -0.740100
vn 0.671900 0.000000 -0.740600
vn 0.840700 0.000000 -0.541500
vn 0.831800 -0.145400 -0.535700
vn 0.664800 -0.145400 -0.732700
vn 0.457100 -0.034100 -0.888700
vn 0.211500 -0.034200 -0.976800
vn 0.211600 0.000000 -0.977300
vn 0.457400 0.000000 -0.889200
vn 0.452500 -0.145400 -0.879800
vn 0.209400 -0.145400 -0.966900
vn -0.048500 -0.034200 -0.998200
vn -0.305200 -0.034200 -0.951700
vn -0.305400 0.000000 -0.952200
vn -0.048500 0.000000 -0.998800
vn -0.047900 -0.145300 -0.988200
vn -0.302100 -0.145400 -0.942100
vn -0.541100 -0.034100 -0.840200
vn -0.740100 -0.034100 -0.671600
vn -0.740600 0.000000 -0.672000
vn -0.541400 0.000000 -0.840700
vn -0.535600 -0.145300 -0.831800
vn -0.732700 -0.145400 -0.664800
vn -0.888700 -0.034200 -0.457100
vn -0.976700 -0.034300 -0.211500
vn -0.977300 0.000000 -0.211600
vn -0.889200 0.000000 -0.457400
vn -0.879800 -0.145300 -0.452500
vn -0.967000 -0.145300 -0.209400
vn -0.998200 -0.034300 0.048500
vn -0.998800 0.000000 0.048500
vn -0.988200 -0.145400 0.048000
vn -0.972000 -0.229900 0.047200
vn -0.926700 -0.230100 0.297200
vn -0.951100 -0.230000 -0.205900
vn -0.962900 -0.171500 -0.208500
vn -0.984000 -0.171400 0.047800
vn -0.938100 -0.171500 0.300800
vn -0.865400 -0.229800 -0.445100
vn -0.720700 -0.230000 -0.654000
vn -0.729600 -0.171500 -0.662000
vn -0.876100 -0.171400 -0.450600
vn -0.526900 -0.230000 -0.818200
vn -0.297200 -0.230000 -0.926700
vn -0.300800 -0.171600 -0.938100
vn -0.533400 -0.171500 -0.828300
vn -0.047200 -0.230000 -0.972000
vn 0.206000 -0.230100 -0.951100
vn 0.208500 -0.171500 -0.962800
vn -0.047800 -0.171500 -0.984000
vn 0.445100 -0.230000 -0.865400
vn 0.653900 -0.230200 -0.720700
vn 0.661900 -0.171600 -0.729600
vn 0.450600 -0.171400 -0.876100
vn 0.818200 -0.230000 -0.526900
vn 0.926700 -0.230000 -0.297100
vn 0.938100 -0.171500 -0.300900
vn 0.828300 -0.171400 -0.533400
vn 0.972100 -0.229800 -0.047200
vn 0.951100 -0.230000 0.205900
vn 0.962800 -0.171500 0.208500
vn 0.984000 -0.171300 -0.047800
vn 0.865400 -0.229900 0.445100
vn 0.720700 -0.230000 0.654000
vn 0.729600 -0.171500 0.662000
vn 0.876100 -0.171400 0.450600
vn 0.526900 -0.230000 0.818200
vn 0.297200 -0.230000 0.926700
vn 0.300800 -0.171600 0.938100
vn 0.533400 -0.171500 0.828300
vn 0.047200 -0.229900 0.972000
vn -0.206000 -0.230100 0.951100
vn -0.208500 -0.171600 0.962800
vn 0.047800 -0.171500 0.984000
vn -0.445100 -0.230000 0.865400
vn -0.653900 -0.230200 0.720700
vn -0.661900 -0.171700 0.729600
vn -0.450600 -0.171500 0.876100
vn -0.818200 -0.230000 0.526900
vn -0.828300 -0.171500 0.533400
vn -0.754100 0.442000 0.485700
vn -0.602700 0.442200 0.664200
vn -0.594300 0.466800 0.655000
vn -0.743600 0.466500 0.478900
vn -0.842100 0.466700 0.270100
vn -0.854100 0.442100 0.273900
vn -0.897100 0.335400 0.287700
vn -0.792100 0.335300 0.510100
vn -0.633000 0.335400 0.697700
vn -0.410300 0.442000 0.797700
vn -0.189900 0.442200 0.876600
vn -0.187200 0.466700 0.864300
vn -0.404600 0.466500 0.786600
vn -0.430900 0.335300 0.837800
vn -0.199400 0.335400 0.920700
vn 0.043500 0.442000 0.896000
vn 0.273900 0.442200 0.854100
vn 0.270100 0.466700 0.842100
vn 0.042900 0.466500 0.883400
vn 0.045700 0.335300 0.941000
vn 0.287700 0.335400 0.897100
vn 0.485600 0.442000 0.754200
vn 0.478900 0.466500 0.743600
vn 0.510100 0.335300 0.792100
vn 0.697700 0.335400 0.633000
vn 0.664200 0.442200 0.602700
vn 0.654900 0.466700 0.594300
vn 0.797700 0.442000 0.410300
vn 0.786600 0.466500 0.404600
vn 0.837800 0.335200 0.430900
vn 0.920700 0.335400 0.199400
vn 0.876600 0.442200 0.189800
vn 0.864300 0.466700 0.187200
vn 0.895900 0.442000 -0.043500
vn 0.854100 0.442200 -0.273900
vn 0.842100 0.466800 -0.270100
vn 0.883400 0.466500 -0.042900
vn 0.941000 0.335300 -0.045700
vn 0.897100 0.335300 -0.287700
vn 0.754200 0.442000 -0.485600
vn 0.602700 0.442200 -0.664200
vn 0.594300 0.466700 -0.655000
vn 0.743600 0.466500 -0.478900
vn 0.792100 0.335200 -0.510100
vn 0.633000 0.335300 -0.697700
vn 0.410300 0.442000 -0.797700
vn 0.189800 0.442200 -0.876600
vn 0.187200 0.466700 -0.864300
vn 0.404600 0.466500 -0.786600
vn 0.430900 0.335300 -0.837800
vn 0.199400 0.335400 -0.920700
vn -0.043500 0.442000 -0.896000
vn -0.273900 0.442100 -0.854100
vn -0.270100 0.466700 -0.842100
vn -0.042900 0.466500 -0.883400
vn -0.045700 0.335200 -0.941000
vn -0.287700 0.335400 -0.897100
vn -0.485700 0.442000 -0.754100
vn -0.664200 0.442200 -0.602700
vn -0.655000 0.466700 -0.594300
vn -0.478900 0.466500 -0.743600
vn -0.510100 0.335300 -0.792000
vn -0.697700 0.335400 -0.633000
vn -0.797700 0.442000 -0.410300
vn -0.876600 0.442200 -0.189800
vn -0.864300 0.466700 -0.187200
vn -0.786600 0.466500 -0.404600
vn -0.837800 0.335300 -0.430900
vn -0.920700 0.335400 -0.199400
vn -0.896000 0.442000 0.043500
vn -0.883500 0.466500 0.042900
vn -0.941000 0.335300 0.045700
vn -0.685400 -0.579100 0.441400
vn -0.547700 -0.579300 0.603700
vn -0.611800 -0.413400 0.674300
vn -0.765600 -0.413300 0.493000
vn -0.867000 -0.413400 0.278000
vn -0.776200 -0.579200 0.248900
vn -0.628300 -0.751300 0.201500
vn -0.554800 -0.751300 0.357200
vn -0.443400 -0.751300 0.488700
vn -0.372800 -0.579200 0.724900
vn -0.172500 -0.579300 0.796700
vn -0.192700 -0.413400 0.889900
vn -0.416500 -0.413300 0.809700
vn -0.301800 -0.751300 0.586800
vn -0.139700 -0.751400 0.644900
vn 0.039500 -0.579200 0.814200
vn 0.248900 -0.579300 0.776200
vn 0.278000 -0.413400 0.867000
vn 0.044200 -0.413300 0.909500
vn 0.032000 -0.751400 0.659100
vn 0.201500 -0.751300 0.628300
vn 0.441400 -0.579200 0.685400
vn 0.493000 -0.413300 0.765600
vn 0.357200 -0.751400 0.554800
vn 0.488700 -0.751400 0.443400
vn 0.603600 -0.579300 0.547700
vn 0.674300 -0.413400 0.611800
vn 0.724900 -0.579200 0.372800
vn 0.809700 -0.413300 0.416500
vn 0.586800 -0.751300 0.301800
vn 0.644900 -0.751300 0.139700
vn 0.796600 -0.579300 0.172500
vn 0.889900 -0.413400 0.192700
vn 0.814200 -0.579200 -0.039500
vn 0.776200 -0.579200 -0.248900
vn 0.867000 -0.413400 -0.278000
vn 0.909500 -0.413300 -0.044200
vn 0.659100 -0.751300 -0.032000
vn 0.628400 -0.751300 -0.201500
vn 0.685400 -0.579200 -0.441400
vn 0.547700 -0.579300 -0.603700
vn 0.611800 -0.413400 -0.674300
vn 0.765600 -0.413300 -0.493000
vn 0.554800 -0.751400 -0.357200
vn 0.443400 -0.751400 -0.488700
vn 0.372800 -0.579200 -0.724900
vn 0.172500 -0.579300 -0.796700
vn 0.192700 -0.413400 -0.889900
vn 0.416500 -0.413300 -0.809700
vn 0.301800 -0.751300 -0.586800
vn 0.139700 -0.751300 -0.644900
vn -0.039500 -0.579200 -0.814200
vn -0.248900 -0.579300 -0.776200
vn -0.278000 -0.413400 -0.867000
vn -0.044200 -0.413300 -0.909500
vn -0.032000 -0.751300 -0.659100
vn -0.201500 -0.751300 -0.628400
vn -0.441400 -0.579100 -0.685400
vn -0.603700 -0.579300 -0.547700
vn -0.674300 -0.413400 -0.611800
vn -0.493000 -0.413300 -0.765600
vn -0.357300 -0.751300 -0.554800
vn -0.488700 -0.751300 -0.443400
vn -0.724900 -0.579200 -0.372800
vn -0.796700 -0.579300 -0.172500
vn -0.889900 -0.413400 -0.192700
vn -0.809700 -0.413300 -0.416500
vn -0.586800 -0.751300 -0.301800
vn -0.644900 -0.751400 -0.139700
vn -0.814200 -0.579100 0.039500
vn -0.909500 -0.413300 0.044200
vn -0.659100 -0.751300 0.032000
vn -0.479100 -0.877300 0.026200
vn -0.456000 -0.877800 0.146200
vn -0.470500 -0.876500 -0.101900
vn -0.379100 -0.921700 -0.082100
vn -0.336100 -0.941600 0.016400
vn -0.318700 -0.942300 0.102200
vn -0.425400 -0.877300 -0.222100
vn -0.354700 -0.877800 -0.321800
vn -0.247800 -0.942300 -0.225000
vn -0.299200 -0.941700 -0.153900
vn -0.262300 -0.877300 -0.401900
vn -0.147000 -0.876500 -0.458400
vn -0.118500 -0.921700 -0.369300
vn -0.182300 -0.941600 -0.283000
vn -0.020300 -0.877300 -0.479400
vn 0.101400 -0.877900 -0.468000
vn 0.070800 -0.942300 -0.327100
vn -0.016300 -0.941600 -0.336200
vn 0.216900 -0.877300 -0.428100
vn 0.323500 -0.876500 -0.356500
vn 0.260600 -0.921700 -0.287200
vn 0.153800 -0.941600 -0.299300
vn 0.405000 -0.877300 -0.257300
vn 0.456000 -0.877800 -0.146200
vn 0.318700 -0.942300 -0.102200
vn 0.282900 -0.941600 -0.182100
vn 0.479100 -0.877300 -0.026200
vn 0.470500 -0.876500 0.101900
vn 0.379100 -0.921700 0.082100
vn 0.336100 -0.941600 -0.016400
vn 0.425400 -0.877300 0.222100
vn 0.354700 -0.877800 0.321800
vn 0.247800 -0.942300 0.225000
vn 0.299200 -0.941600 0.153900
vn 0.262300 -0.877300 0.401900
vn 0.147000 -0.876500 0.458400
vn 0.118400 -0.921700 0.369300
vn 0.182300 -0.941600 0.283000
vn 0.020300 -0.877300 0.479400
vn -0.101400 -0.877800 0.468100
vn -0.070800 -0.942300 0.327100
vn 0.016300 -0.941600 0.336100
vn -0.216900 -0.877300 0.428100
vn -0.323500 -0.876500 0.356500
vn -0.260700 -0.921700 0.287200
vn -0.153900 -0.941600 0.299300
vn -0.405000 -0.877300 0.257300
vn -0.283000 -0.941600 0.182100
vn -0.985300 0.163700 0.047900
vn -0.964100 0.163800 -0.208800
vn -0.976700 -0.037300 -0.211500
vn -0.998100 -0.037300 0.048500
vn -0.951600 -0.037300 0.305200
vn -0.939400 0.163800 0.301200
vn -0.970400 -0.236700 0.047100
vn -0.949500 -0.236800 -0.205600
vn -0.925100 -0.236800 0.296700
vn -0.877300 0.163700 -0.451200
vn -0.730600 0.163800 -0.662900
vn -0.740000 -0.037300 -0.671500
vn -0.888600 -0.037200 -0.457000
vn -0.864000 -0.236700 -0.444400
vn -0.719500 -0.236800 -0.652900
vn -0.534100 0.163800 -0.829400
vn -0.301200 0.163800 -0.939400
vn -0.305200 -0.037300 -0.951600
vn -0.541000 -0.037300 -0.840100
vn -0.526000 -0.236700 -0.816800
vn -0.296700 -0.236800 -0.925100
vn -0.047900 0.163700 -0.985300
vn 0.208800 0.163800 -0.964100
vn 0.211500 -0.037300 -0.976700
vn -0.048500 -0.037200 -0.998100
vn -0.047100 -0.236700 -0.970400
vn 0.205600 -0.236800 -0.949500
vn 0.451200 0.163700 -0.877200
vn 0.662900 0.163800 -0.730600
vn 0.671500 -0.037200 -0.740000
vn 0.457100 -0.037200 -0.888600
vn 0.444400 -0.236700 -0.864000
vn 0.652900 -0.236800 -0.719500
vn 0.829400 0.163700 -0.534100
vn 0.939400 0.163800 -0.301200
vn 0.951600 -0.037200 -0.305200
vn 0.840100 -0.037200 -0.541000
vn 0.816900 -0.236700 -0.526000
vn 0.925100 -0.236800 -0.296700
vn 0.985300 0.163700 -0.047900
vn 0.964100 0.163800 0.208800
vn 0.976700 -0.037300 0.211500
vn 0.998100 -0.037200 -0.048500
vn 0.970400 -0.236700 -0.047100
vn 0.949600 -0.236800 0.205600
vn 0.877300 0.163700 0.451200
vn 0.730600 0.163800 0.662900
vn 0.740000 -0.037200 0.671500
vn 0.888600 -0.037200 0.457100
vn 0.864000 -0.236700 0.444400
vn 0.719500 -0.236800 0.652900
vn 0.534100 0.163700 0.829400
vn 0.301200 0.163800 0.939400
vn 0.305200 -0.037300 0.951500
vn 0.541000 -0.037200 0.840100
vn 0.526000 -0.236700 0.816900
vn 0.296700 -0.236800 0.925100
vn 0.047900 0.163700 0.985300
vn -0.208800 0.163800 0.964100
vn -0.211500 -0.037300 0.976700
vn 0.048500 -0.037300 0.998100
vn 0.047100 -0.236700 0.970400
vn -0.205600 -0.236800 0.949500
vn -0.451200 0.163700 0.877300
vn -0.662900 0.163800 0.730600
vn -0.671500 -0.037300 0.740000
vn -0.457100 -0.037300 0.888600
vn -0.444400 -0.236700 0.864000
vn -0.652900 -0.236800 0.719500
vn -0.829400 0.163700 0.534100
vn -0.840100 -0.037300 0.541000
vn -0.816900 -0.236700 0.526000
vn 0.054100 -0.984200 0.168800
vn -0.026000 -0.992400 0.120100
vn 0.000000 -1.000000 0.000000
vn 0.091000 -0.992400 0.082600
vn -0.119100 -0.984200 0.131300
vn -0.117000 -0.992400 0.037500
vn -0.173200 -0.984200 -0.037500
vn -0.091000 -0.992400 -0.082600
vn -0.054100 -0.984200 -0.168800
vn 0.026000 -0.992400 -0.120100
vn 0.119100 -0.984200 -0.131300
vn 0.117000 -0.992400 -0.037500
vn 0.173300 -0.984100 0.037500
vn -0.912100 0.407500 0.044300
vn -0.967900 0.246800 0.047000
vn -0.947100 0.246900 -0.205100
vn -0.892500 0.407600 -0.193200
vn -0.873700 0.448200 -0.189200
vn -0.892900 0.448000 0.043400
vn -0.851200 0.448300 0.272900
vn -0.869400 0.407900 0.278800
vn -0.922700 0.247000 0.295900
vn -0.889900 0.454000 0.043200
vn -0.870700 0.454200 -0.188500
vn -0.848300 0.454200 0.272000
vn -0.812100 0.407500 -0.417700
vn -0.861800 0.246700 -0.443300
vn -0.717600 0.246900 -0.651100
vn -0.676200 0.407800 -0.613500
vn -0.662000 0.448300 -0.600700
vn -0.795000 0.448000 -0.408900
vn -0.792300 0.454000 -0.407500
vn -0.659700 0.454200 -0.598700
vn -0.494400 0.407600 -0.767700
vn -0.524700 0.246500 -0.814800
vn -0.295900 0.246900 -0.922800
vn -0.278800 0.407900 -0.869400
vn -0.273000 0.448300 -0.851200
vn -0.484000 0.448100 -0.751600
vn -0.482400 0.454000 -0.749100
vn -0.272000 0.454200 -0.848300
vn -0.044300 0.407600 -0.912100
vn -0.047000 0.246700 -0.967900
vn 0.205000 0.246900 -0.947100
vn 0.193200 0.407800 -0.892400
vn 0.189200 0.448300 -0.873600
vn -0.043300 0.448100 -0.892900
vn -0.043200 0.454000 -0.889900
vn 0.188500 0.454200 -0.870700
vn 0.417700 0.407500 -0.812100
vn 0.443300 0.246700 -0.861800
vn 0.651200 0.246800 -0.717600
vn 0.613500 0.407800 -0.676200
vn 0.600600 0.448300 -0.662000
vn 0.408900 0.448100 -0.795000
vn 0.407500 0.454000 -0.792300
vn 0.598700 0.454200 -0.659700
vn 0.767700 0.407600 -0.494400
vn 0.814800 0.246700 -0.524600
vn 0.922800 0.246800 -0.295900
vn 0.869400 0.407800 -0.278800
vn 0.851200 0.448300 -0.273000
vn 0.751600 0.448000 -0.484100
vn 0.749100 0.454000 -0.482400
vn 0.848300 0.454200 -0.272000
vn 0.912100 0.407500 -0.044300
vn 0.968000 0.246500 -0.047000
vn 0.947100 0.246800 0.205100
vn 0.892400 0.407800 0.193200
vn 0.873600 0.448300 0.189200
vn 0.892900 0.448100 -0.043400
vn 0.889900 0.454000 -0.043200
vn 0.870700 0.454200 0.188500
vn 0.812100 0.407500 0.417700
vn 0.861700 0.246800 0.443300
vn 0.717600 0.247000 0.651100
vn 0.676200 0.407800 0.613600
vn 0.662000 0.448300 0.600700
vn 0.795000 0.448000 0.408900
vn 0.792300 0.454000 0.407500
vn 0.659700 0.454300 0.598600
vn 0.494400 0.407500 0.767800
vn 0.524700 0.246700 0.814800
vn 0.295900 0.246900 0.922700
vn 0.278800 0.407900 0.869400
vn 0.273000 0.448300 0.851200
vn 0.484000 0.448100 0.751600
vn 0.482400 0.454000 0.749100
vn 0.272000 0.454200 0.848300
vn 0.044300 0.407600 0.912100
vn 0.047000 0.246700 0.968000
vn -0.205100 0.246900 0.947100
vn -0.193200 0.407800 0.892400
vn -0.189200 0.448300 0.873600
vn 0.043300 0.448100 0.892900
vn 0.043200 0.454000 0.889900
vn -0.188600 0.454200 0.870700
vn -0.417600 0.407600 0.812000
vn -0.443300 0.246700 0.861800
vn -0.651200 0.246900 0.717600
vn -0.613500 0.407800 0.676200
vn -0.600600 0.448300 0.662000
vn -0.408900 0.448100 0.794900
vn -0.407600 0.454000 0.792300
vn -0.598700 0.454200 0.659700
vn -0.767700 0.407700 0.494400
vn -0.814800 0.246700 0.524700
vn -0.751600 0.448000 0.484000
vn -0.749100 0.454000 0.482400
vn -0.838600 -0.072200 0.540000
vn -0.949700 -0.072200 0.304600
vn -0.951400 -0.041000 0.305100
vn -0.840000 -0.040900 0.540900
vn -0.671400 -0.041000 0.740000
vn -0.670200 -0.072300 0.738700
vn -0.840100 0.040400 0.541000
vn -0.951400 0.040500 0.305100
vn -0.671400 0.040500 0.740000
vn -0.456200 -0.072300 0.886900
vn -0.457000 -0.040900 0.888500
vn -0.211500 -0.040900 0.976500
vn -0.211100 -0.072300 0.974800
vn -0.457000 0.040600 0.888500
vn -0.211500 0.040700 0.976500
vn 0.048300 -0.072200 0.996200
vn 0.048400 -0.040900 0.998000
vn 0.305100 -0.040900 0.951400
vn 0.304600 -0.072300 0.949700
vn 0.048400 0.040600 0.998000
vn 0.305100 0.040600 0.951400
vn 0.540000 -0.072300 0.838500
vn 0.541000 -0.040900 0.840000
vn 0.740000 -0.041000 0.671400
vn 0.738600 -0.072300 0.670200
vn 0.541000 0.040700 0.840000
vn 0.740000 0.040700 0.671400
vn 0.886900 -0.072100 0.456200
vn 0.888500 -0.040900 0.457000
vn 0.976500 -0.041000 0.211500
vn 0.974800 -0.072100 0.211100
vn 0.888500 0.040600 0.457000
vn 0.976500 0.040500 0.211500
vn 0.996200 -0.072100 -0.048400
vn 0.998000 -0.041000 -0.048500
vn 0.951400 -0.040800 -0.305100
vn 0.949700 -0.072100 -0.304600
vn 0.998000 0.040300 -0.048500
vn 0.951400 0.040400 -0.305200
vn 0.838500 -0.072100 -0.540000
vn 0.840000 -0.040700 -0.541000
vn 0.671400 -0.040800 -0.739900
vn 0.670200 -0.072300 -0.738600
vn 0.840100 0.040400 -0.541000
vn 0.671400 0.040600 -0.739900
vn 0.456200 -0.072200 -0.886900
vn 0.457000 -0.040900 -0.888500
vn 0.211500 -0.040900 -0.976500
vn 0.211100 -0.072300 -0.974800
vn 0.457000 0.040700 -0.888500
vn 0.211400 0.040600 -0.976500
vn -0.048400 -0.072200 -0.996200
vn -0.048500 -0.040900 -0.998000
vn -0.305100 -0.040900 -0.951400
vn -0.304500 -0.072300 -0.949700
vn -0.048500 0.040500 -0.998000
vn -0.305100 0.040500 -0.951400
vn -0.540000 -0.072300 -0.838600
vn -0.541000 -0.040900 -0.840000
vn -0.740000 -0.041000 -0.671400
vn -0.738600 -0.072400 -0.670200
vn -0.541000 0.040500 -0.840000
vn -0.740000 0.040500 -0.671400
vn -0.886900 -0.072200 -0.456200
vn -0.888500 -0.040900 -0.457000
vn -0.976500 -0.041000 -0.211500
vn -0.974800 -0.072100 -0.211100
vn -0.888500 0.040700 -0.457100
vn -0.976500 0.040700 -0.211500
vn -0.996200 -0.072100 0.048400
vn -0.998000 -0.041100 0.048500
vn -0.998000 0.040500 0.048500
vt -0.754800 3.328300
vt -0.726300 3.298300
vt -0.715500 3.313800
vt -0.747300 3.347000
vt -0.783800 3.368000
vt -0.787600 3.347300
vt -0.791200 3.328200
vt -0.761800 3.311000
vt -0.736300 3.284000
vt -0.704000 3.258700
vt -0.689800 3.212200
vt -0.674500 3.218100
vt -0.690600 3.269900
vt -0.716500 3.248400
vt -0.703900 3.206700
vt -0.685000 3.161500
vt -0.690000 3.110700
vt -0.674100 3.104500
vt -0.668700 3.161400
vt -0.699900 3.161600
vt -0.704500 3.116400
vt -0.704900 3.064000
vt -0.691100 3.052400
vt -0.717600 3.074700
vt -0.737800 3.039200
vt -0.727900 3.024600
vt -0.717300 3.008700
vt -0.757200 2.995700
vt -0.750000 2.977200
vt -0.763900 3.012900
vt -0.793800 2.996700
vt -0.790500 2.978100
vt -0.787000 2.958200
vt -0.825600 2.972500
vt -0.860600 2.979100
vt -0.864400 2.958700
vt -0.825800 2.951800
vt -0.825500 2.991800
vt -0.857000 2.998000
vt -0.893400 2.998000
vt -0.922000 3.027900
vt -0.932700 3.012300
vt -0.900800 2.979300
vt -0.886500 3.015200
vt -0.912100 3.042200
vt -0.944400 3.067500
vt -0.958800 3.114000
vt -0.973900 3.107900
vt -0.957700 3.056200
vt -0.932000 3.077800
vt -0.944800 3.119500
vt -0.963500 3.164600
vt -0.958600 3.215200
vt -0.973800 3.220700
vt -0.979300 3.164200
vt -0.948900 3.164800
vt -0.944500 3.210100
vt -0.944000 3.262000
vt -0.921300 3.301700
vt -0.932300 3.317000
vt -0.957600 3.272900
vt -0.931500 3.251900
vt -0.911200 3.287400
vt -0.891900 3.330800
vt -0.858300 3.348600
vt -0.862200 3.369300
vt -0.899600 3.349500
vt -0.884800 3.313500
vt -0.854600 3.329400
vt -0.822800 3.354100
vt -0.822900 3.375500
vt -0.822800 3.334300
vt -0.822900 3.317600
vt -0.794400 3.312100
vt -0.851700 3.313200
vt -0.849000 3.298700
vt -0.823000 3.302800
vt -0.797200 3.298000
vt -0.879000 3.298900
vt -0.902700 3.275400
vt -0.895300 3.264600
vt -0.873700 3.285800
vt -0.921000 3.243400
vt -0.932700 3.205600
vt -0.922300 3.201600
vt -0.911800 3.235700
vt -0.936700 3.164800
vt -0.933100 3.124000
vt -0.922600 3.127800
vt -0.925900 3.164700
vt -0.921600 3.086300
vt -0.903600 3.054100
vt -0.895900 3.064500
vt -0.912200 3.093700
vt -0.880500 3.029600
vt -0.853900 3.014000
vt -0.851100 3.028100
vt -0.875100 3.042300
vt -0.825400 3.008300
vt -0.796700 3.012700
vt -0.799400 3.027000
vt -0.825400 3.023000
vt -0.769600 3.027400
vt -0.746100 3.051400
vt -0.753600 3.062200
vt -0.774900 3.040400
vt -0.728100 3.083500
vt -0.716500 3.121100
vt -0.726800 3.125200
vt -0.737300 3.091200
vt -0.712200 3.161700
vt -0.715600 3.202300
vt -0.726100 3.198500
vt -0.723000 3.161800
vt -0.726900 3.239900
vt -0.744800 3.272100
vt -0.752400 3.261700
vt -0.736300 3.232500
vt -0.767800 3.296600
vt -0.773200 3.283900
vt -0.813600 3.187200
vt -0.809400 3.182600
vt -0.801300 3.193800
vt -0.807900 3.201200
vt -0.815500 3.206200
vt -0.818500 3.190300
vt -0.820600 3.179300
vt -0.817600 3.177600
vt -0.815100 3.174900
vt -0.805900 3.176700
vt -0.803600 3.170000
vt -0.792100 3.173900
vt -0.795900 3.184600
vt -0.813200 3.171400
vt -0.812000 3.167300
vt -0.802800 3.162500
vt -0.803400 3.155100
vt -0.791500 3.150400
vt -0.790600 3.162100
vt -0.811600 3.162900
vt -0.812100 3.158600
vt -0.805600 3.148300
vt -0.795000 3.139700
vt -0.813300 3.154700
vt -0.815300 3.151400
vt -0.809100 3.142700
vt -0.800600 3.130700
vt -0.813500 3.138600
vt -0.807700 3.124100
vt -0.817800 3.148900
vt -0.820700 3.147400
vt -0.818600 3.136200
vt -0.815700 3.120200
vt -0.823800 3.135800
vt -0.829100 3.137100
vt -0.832300 3.121400
vt -0.824000 3.119400
vt -0.823800 3.147000
vt -0.826900 3.147600
vt -0.834100 3.139800
vt -0.838500 3.143900
vt -0.847000 3.132400
vt -0.840200 3.125700
vt -0.829800 3.149200
vt -0.832400 3.151800
vt -0.841900 3.149700
vt -0.844100 3.156500
vt -0.856100 3.152500
vt -0.852400 3.141600
vt -0.834200 3.155300
vt -0.835400 3.159300
vt -0.844900 3.163900
vt -0.844300 3.171400
vt -0.856600 3.176200
vt -0.857500 3.164400
vt -0.835700 3.163600
vt -0.835300 3.167800
vt -0.842100 3.178200
vt -0.838600 3.184000
vt -0.847400 3.196200
vt -0.853000 3.187000
vt -0.834100 3.171800
vt -0.832200 3.175200
vt -0.834200 3.188500
vt -0.829100 3.191200
vt -0.832300 3.207300
vt -0.840300 3.203100
vt -0.829700 3.177900
vt -0.826800 3.179600
vt -0.823800 3.191700
vt -0.823800 3.208300
vt -0.823700 3.180000
vt -0.822600 3.166000
vt -0.822100 3.165500
vt -0.821400 3.166400
vt -0.822100 3.167100
vt -0.822900 3.167600
vt -0.823100 3.166400
vt -0.823300 3.165400
vt -0.822900 3.165200
vt -0.822600 3.164800
vt -0.821700 3.164900
vt -0.821500 3.164100
vt -0.820600 3.164400
vt -0.820900 3.165500
vt -0.822400 3.164400
vt -0.822200 3.163900
vt -0.821400 3.163300
vt -0.821400 3.162400
vt -0.820600 3.162100
vt -0.820500 3.163300
vt -0.822100 3.163300
vt -0.822200 3.162700
vt -0.821700 3.161700
vt -0.820900 3.161000
vt -0.822300 3.162200
vt -0.822600 3.161800
vt -0.822100 3.161000
vt -0.821400 3.160100
vt -0.822600 3.160500
vt -0.822100 3.159400
vt -0.822900 3.161400
vt -0.823300 3.161200
vt -0.823100 3.160200
vt -0.822900 3.159000
vt -0.823700 3.160100
vt -0.824300 3.160300
vt -0.824500 3.159100
vt -0.823700 3.158900
vt -0.823700 3.161200
vt -0.824100 3.161300
vt -0.824800 3.160600
vt -0.825300 3.161100
vt -0.826000 3.160200
vt -0.825300 3.159500
vt -0.824500 3.161500
vt -0.824800 3.161800
vt -0.825700 3.161700
vt -0.825900 3.162500
vt -0.826800 3.162200
vt -0.826500 3.161100
vt -0.825000 3.162200
vt -0.825200 3.162800
vt -0.826000 3.163300
vt -0.825900 3.164200
vt -0.826800 3.164500
vt -0.826900 3.163300
vt -0.825200 3.163300
vt -0.825200 3.163900
vt -0.825700 3.165000
vt -0.825300 3.165600
vt -0.825900 3.166500
vt -0.826500 3.165600
vt -0.825000 3.164400
vt -0.824800 3.164900
vt -0.824800 3.166100
vt -0.824300 3.166400
vt -0.824500 3.167600
vt -0.825300 3.167200
vt -0.824500 3.165200
vt -0.824100 3.165400
vt -0.823700 3.166500
vt -0.823700 3.167700
vt -0.823700 3.165500
vt -0.823700 3.164600
vt -0.823500 3.164500
vt -0.823900 3.164500
vt -0.823800 3.164100
vt -0.823700 3.163900
vt -0.823600 3.163900
vt -0.824100 3.164400
vt -0.824300 3.164200
vt -0.824000 3.163700
vt -0.823900 3.163900
vt -0.824500 3.164000
vt -0.824600 3.163700
vt -0.824200 3.163500
vt -0.824100 3.163600
vt -0.824600 3.163300
vt -0.824600 3.163000
vt -0.824100 3.163200
vt -0.824100 3.163300
vt -0.824500 3.162700
vt -0.824300 3.162400
vt -0.824100 3.162800
vt -0.824100 3.163000
vt -0.824100 3.162200
vt -0.823900 3.162100
vt -0.823800 3.162700
vt -0.823900 3.162800
vt -0.823700 3.162100
vt -0.823500 3.162100
vt -0.823500 3.162600
vt -0.823700 3.162700
vt -0.823200 3.162200
vt -0.823000 3.162400
vt -0.823400 3.162900
vt -0.823500 3.162800
vt -0.822900 3.162700
vt -0.822800 3.163000
vt -0.823100 3.163100
vt -0.823300 3.163000
vt -0.822800 3.163300
vt -0.822800 3.163600
vt -0.823300 3.163500
vt -0.823200 3.163300
vt -0.822900 3.163900
vt -0.823100 3.164200
vt -0.823300 3.163900
vt -0.823300 3.163600
vt -0.823200 3.164400
vt -0.823500 3.163800
vt -0.823700 3.174000
vt -0.825700 3.173600
vt -0.825200 3.171000
vt -0.823700 3.171300
vt -0.822200 3.171000
vt -0.821600 3.173600
vt -0.823700 3.169200
vt -0.824800 3.169000
vt -0.822600 3.169000
vt -0.827500 3.172500
vt -0.829100 3.170800
vt -0.827700 3.168900
vt -0.826500 3.170200
vt -0.825800 3.168500
vt -0.826700 3.167600
vt -0.830200 3.168600
vt -0.831000 3.166100
vt -0.829200 3.165400
vt -0.828600 3.167300
vt -0.827400 3.166300
vt -0.827900 3.164900
vt -0.831300 3.163500
vt -0.831100 3.160800
vt -0.829200 3.161400
vt -0.829400 3.163400
vt -0.828000 3.163400
vt -0.827900 3.161800
vt -0.830400 3.158200
vt -0.829200 3.155900
vt -0.827800 3.157800
vt -0.828700 3.159500
vt -0.827400 3.160400
vt -0.826700 3.159200
vt -0.827600 3.154100
vt -0.825800 3.153000
vt -0.825200 3.155600
vt -0.826600 3.156500
vt -0.825900 3.158200
vt -0.824800 3.157500
vt -0.823800 3.152700
vt -0.821800 3.153000
vt -0.822200 3.155600
vt -0.823700 3.155300
vt -0.823700 3.157300
vt -0.822600 3.157500
vt -0.819900 3.154100
vt -0.818300 3.155700
vt -0.819700 3.157600
vt -0.820800 3.156400
vt -0.821500 3.158100
vt -0.820700 3.159000
vt -0.817100 3.157900
vt -0.816400 3.160400
vt -0.818200 3.161200
vt -0.818800 3.159300
vt -0.820000 3.160300
vt -0.819500 3.161700
vt -0.816000 3.163100
vt -0.816200 3.165900
vt -0.818100 3.165200
vt -0.818000 3.163200
vt -0.819400 3.163200
vt -0.819500 3.164800
vt -0.816900 3.168500
vt -0.818100 3.170800
vt -0.819600 3.168900
vt -0.818700 3.167200
vt -0.820000 3.166200
vt -0.820600 3.167400
vt -0.819700 3.172600
vt -0.820800 3.170200
vt -0.821500 3.168400
vt -0.823500 3.163200
vt -0.823500 3.163400
vt -0.823700 3.163300
vt -0.823600 3.163100
vt -0.823500 3.163500
vt -0.823600 3.163600
vt -0.823700 3.163600
vt -0.823800 3.163500
vt -0.823900 3.163400
vt -0.823900 3.163300
vt -0.823800 3.163100
vt -0.823700 3.163100
vt -0.823600 3.163000
vt -0.823100 3.257800
vt -0.823100 3.264000
vt -0.842000 3.260300
vt -0.840800 3.254200
vt -0.839000 3.244200
vt -0.823200 3.247300
vt -0.807700 3.244800
vt -0.805700 3.255100
vt -0.804500 3.261100
vt -0.823500 3.228800
vt -0.835900 3.226800
vt -0.811400 3.226500
vt -0.857600 3.245200
vt -0.859800 3.250600
vt -0.875400 3.235500
vt -0.872200 3.231000
vt -0.867000 3.223500
vt -0.853900 3.236100
vt -0.847500 3.220600
vt -0.857800 3.210600
vt -0.883700 3.212100
vt -0.887600 3.215300
vt -0.895300 3.191300
vt -0.890900 3.189600
vt -0.883600 3.186800
vt -0.877200 3.206700
vt -0.865900 3.197500
vt -0.870900 3.181900
vt -0.892700 3.165000
vt -0.897400 3.164900
vt -0.894400 3.138300
vt -0.889800 3.140000
vt -0.882400 3.142800
vt -0.885100 3.165000
vt -0.872100 3.164700
vt -0.870000 3.147400
vt -0.882900 3.116700
vt -0.886900 3.113600
vt -0.875600 3.092100
vt -0.872400 3.096400
vt -0.867000 3.103900
vt -0.876300 3.122000
vt -0.865000 3.131300
vt -0.857500 3.117500
vt -0.858600 3.080700
vt -0.860900 3.075400
vt -0.843800 3.064800
vt -0.842600 3.070800
vt -0.840500 3.081400
vt -0.854700 3.090100
vt -0.847800 3.107100
vt -0.836600 3.100500
vt -0.825200 3.067800
vt -0.825200 3.061500
vt -0.806500 3.065100
vt -0.807700 3.071300
vt -0.809500 3.081700
vt -0.825100 3.078600
vt -0.824500 3.098100
vt -0.812400 3.100000
vt -0.791200 3.081000
vt -0.788900 3.075400
vt -0.773600 3.091300
vt -0.776800 3.096000
vt -0.782000 3.103600
vt -0.794900 3.090400
vt -0.800900 3.106400
vt -0.790800 3.116400
vt -0.765300 3.115100
vt -0.761500 3.111800
vt -0.753800 3.135700
vt -0.758000 3.137300
vt -0.765100 3.140100
vt -0.771700 3.120500
vt -0.782600 3.129500
vt -0.777500 3.144900
vt -0.756000 3.161700
vt -0.751500 3.161700
vt -0.754200 3.188000
vt -0.758800 3.186300
vt -0.766100 3.183600
vt -0.763500 3.161700
vt -0.776200 3.161800
vt -0.778400 3.178900
vt -0.765600 3.209600
vt -0.761400 3.212700
vt -0.772700 3.234200
vt -0.776000 3.229800
vt -0.781500 3.222200
vt -0.772200 3.204200
vt -0.783500 3.194800
vt -0.791000 3.208600
vt -0.789700 3.245400
vt -0.787300 3.250700
vt -0.793600 3.236100
vt -0.800400 3.219400
vt -0.778300 3.271800
vt -0.799800 3.284600
vt -0.802000 3.273600
vt -0.782600 3.261900
vt -0.765900 3.243300
vt -0.759800 3.251700
vt -0.785300 3.255500
vt -0.803400 3.266500
vt -0.769800 3.238100
vt -0.745500 3.225300
vt -0.753100 3.219300
vt -0.744900 3.191500
vt -0.736300 3.194700
vt -0.757800 3.215500
vt -0.750200 3.189500
vt -0.733400 3.161800
vt -0.742000 3.161800
vt -0.744700 3.132200
vt -0.736600 3.129000
vt -0.747400 3.161800
vt -0.749900 3.134200
vt -0.746100 3.098700
vt -0.753400 3.104900
vt -0.766900 3.081600
vt -0.760900 3.072800
vt -0.758000 3.108800
vt -0.770700 3.087100
vt -0.780000 3.053200
vt -0.784200 3.063800
vt -0.804100 3.052400
vt -0.802000 3.040900
vt -0.786900 3.070400
vt -0.805400 3.059600
vt -0.825300 3.036900
vt -0.825300 3.048500
vt -0.846300 3.052400
vt -0.848500 3.041400
vt -0.825200 3.055900
vt -0.844900 3.059400
vt -0.869900 3.054300
vt -0.865700 3.064300
vt -0.882400 3.083000
vt -0.888500 3.074600
vt -0.862900 3.070700
vt -0.878500 3.088200
vt -0.903000 3.101000
vt -0.895300 3.107000
vt -0.903800 3.134900
vt -0.912300 3.131700
vt -0.890500 3.110800
vt -0.898400 3.136900
vt -0.915500 3.164800
vt -0.906900 3.164900
vt -0.904400 3.194700
vt -0.912500 3.197800
vt -0.901500 3.164900
vt -0.899200 3.192800
vt -0.902900 3.228200
vt -0.895700 3.222000
vt -0.881900 3.245100
vt -0.888000 3.254000
vt -0.891000 3.218200
vt -0.878200 3.239600
vt -0.868600 3.273000
vt -0.864400 3.262300
vt -0.844300 3.273100
vt -0.846500 3.284700
vt -0.861700 3.255600
vt -0.843000 3.265700
vt -0.823000 3.288700
vt -0.823100 3.277100
vt -0.823100 3.269600
f 1/1/1 2/2/2 3/3/3
f 1/1/1 3/3/3 4/4/4
f 1/1/1 4/4/4 5/5/5
f 1/1/1 5/5/5 6/6/6
f 1/1/1 6/6/6 7/7/7
f 1/1/1 7/7/7 8/8/8
f 1/1/1 8/8/8 9/9/9
f 1/1/1 9/9/9 2/2/2
f 10/10/10 11/11/11 12/12/12
f 10/10/10 12/12/12 13/13/13
f 10/10/10 13/13/13 3/3/3
f 10/10/10 3/3/3 2/2/2
f 10/10/10 2/2/2 9/9/9
f 10/10/10 9/9/9 14/14/14
f 10/10/10 14/14/14 15/15/15
f 10/10/10 15/15/15 11/11/11
f 16/16/16 17/17/17 18/18/18
f 16/16/16 18/18/18 19/19/19
f 16/16/16 19/19/19 12/12/12
f 16/16/16 12/12/12 11/11/11
f 16/16/16 11/11/11 15/15/15
f 16/16/16 15/15/15 20/20/20
f 16/16/16 20/20/20 21/21/21
f 16/16/16 21/21/21 17/17/17
f 22/22/22 23/23/23 18/18/18
f 22/22/22 18/18/18 17/17/17
f 22/22/22 17/17/17 21/21/21
f 22/22/22 21/21/21 24/24/24
f 22/22/22 24/24/24 25/25/25
f 22/22/22 25/25/25 26/26/26
f 22/22/22 26/26/26 27/27/27
f 22/22/22 27/27/27 23/23/23
f 28/28/28 29/29/29 27/27/27
f 28/28/28 27/27/27 26/26/26
f 28/28/28 26/26/26 25/25/25
f 28/28/28 25/25/25 30/30/30
f 28/28/28 30/30/30 31/31/31
f 28/28/28 31/31/31 32/32/32
f 28/28/28 32/32/32 33/33/33
f 28/28/28 33/33/33 29/29/29
f 34/34/34 35/35/35 36/36/36
f 34/34/34 36/36/36 37/37/37
f 34/34/34 37/37/37 33/33/33
f 34/34/34 33/33/33 32/32/32
f 34/34/34 32/32/32 31/31/31
f 34/34/34 31/31/31 38/38/38
f 34/34/34 38/38/38 39/39/39
f 34/34/34 39/39/39 35/35/35
f 40/40/40 41/41/41 42/42/42
f 40/40/40 42/42/42 43/43/43
f 40/40/40 43/43/43 36/36/36
f 40/40/40 36/36/36 35/35/35
f 40/40/40 35/35/35 39/39/39
f 40/40/40 39/39/39 44/44/44
f 40/40/40 44/44/44 45/45/45
f 40/40/40 45/45/45 41/41/41
f 46/46/46 47/47/47 48/48/48
f 46/46/46 48/48/48 49/49/49
f 46/46/46 49/49/49 42/42/42
f 46/46/46 42/42/42 41/41/41
f 46/46/46 41/41/41 45/45/45
f 46/46/46 45/45/45 50/50/50
f 46/46/46 50/50/50 51/51/51
f 46/46/46 51/51/51 47/47/47
f 52/52/52 53/53/53 54/54/54
f 52/52/52 54/54/54 55/55/55
f 52/52/52 55/55/55 48/48/48
f 52/52/52 48/48/48 47/47/47
f 52/52/52 47/47/47 51/51/51
f 52/52/52 51/51/51 56/56/56
f 52/52/52 56/56/56 57/57/57
f 52/52/52 57/57/57 53/53/53
f 58/58/58 59/59/59 60/60/60
f 58/58/58 60/60/60 61/61/61
f 58/58/58 61/61/61 54/54/54
f 58/58/58 54/54/54 53/53/53
f 58/58/58 53/53/53 57/57/57
f 58/58/58 57/57/57 62/62/62
f 58/58/58 62/62/62 63/63/63
f 58/58/58 63/63/63 59/59/59
f 64/64/64 65/65/65 66/66/66
f 64/64/64 66/66/66 67/67/67
f 64/64/64 67/67/67 60/60/60
f 64/64/64 60/60/60 59/59/59
f 64/64/64 59/59/59 63/63/63
f 64/64/64 63/63/63 68/68/68
f 64/64/64 68/68/68 69/69/69
f 64/64/64 69/69/69 65/65/65
f 70/70/70 6/6/6 5/5/5
f 70/70/70 5/5/5 71/71/71
f 70/70/70 71/71/71 66/66/66
f 70/70/70 66/66/66 65/65/65
f 70/70/70 65/65/65 69/69/69
f 70/70/70 69/69/69 72/72/72
f 70/70/70 72/72/72 7/7/7
f 70/70/70 7/7/7 6/6/6
f 73/73/73 74/74/74 7/7/7
f 73/73/73 7/7/7 72/72/72
f 73/73/73 72/72/72 69/69/69
f 73/73/73 69/69/69 75/75/75
f 73/73/73 75/75/75 76/76/76
f 73/73/73 76/76/76 77/77/77
f 73/73/73 77/77/77 78/78/78
f 73/73/73 78/78/78 74/74/74
f 79/79/79 75/75/75 69/69/69
f 79/79/79 69/69/69 68/68/68
f 79/79/79 68/68/68 63/63/63
f 79/79/79 63/63/63 80/80/80
f 79/79/79 80/80/80 81/81/81
f 79/79/79 81/81/81 82/82/82
f 79/79/79 82/82/82 76/76/76
f 79/79/79 76/76/76 75/75/75
f 83/83/83 80/80/80 63/63/63
f 83/83/83 63/63/63 62/62/62
f 83/83/83 62/62/62 57/57/57
f 83/83/83 57/57/57 84/84/84
f 83/83/83 84/84/84 85/85/85
f 83/83/83 85/85/85 86/86/86
f 83/83/83 86/86/86 81/81/81
f 83/83/83 81/81/81 80/80/80
f 87/87/87 84/84/84 57/57/57
f 87/87/87 57/57/57 56/56/56
f 87/87/87 56/56/56 51/51/51
f 87/87/87 51/51/51 88/88/88
f 87/87/87 88/88/88 89/89/89
f 87/87/87 89/89/89 90/90/90
f 87/87/87 90/90/90 85/85/85
f 87/87/87 85/85/85 84/84/84
f 91/91/91 88/88/88 51/51/51
f 91/91/91 51/51/51 50/50/50
f 91/91/91 50/50/50 45/45/45
f 91/91/91 45/45/45 92/92/92
f 91/91/91 92/92/92 93/93/93
f 91/91/91 93/93/93 94/94/94
f 91/91/91 94/94/94 89/89/89
f 91/91/91 89/89/89 88/88/88
f 95/95/95 92/92/92 45/45/45
f 95/95/95 45/45/45 44/44/44
f 95/95/95 44/44/44 39/39/39
f 95/95/95 39/39/39 96/96/96
f 95/95/95 96/96/96 97/97/97
f 95/95/95 97/97/97 98/98/98
f 95/95/95 98/98/98 93/93/93
f 95/95/95 93/93/93 92/92/92
f 99/99/99 96/96/96 39/39/39
f 99/99/99 39/39/39 38/38/38
f 99/99/99 38/38/38 31/31/31
f 99/99/99 31/31/31 100/100/100
f 99/99/99 100/100/100 101/101/101
f 99/99/99 101/101/101 102/102/102
f 99/99/99 102/102/102 97/97/97
f 99/99/99 97/97/97 96/96/96
f 103/103/103 30/30/30 25/25/25
f 103/103/103 25/25/25 104/104/104
f 103/103/103 104/104/104 105/105/105
f 103/103/103 105/105/105 106/106/106
f 103/103/103 106/106/106 101/101/101
f 103/103/103 101/101/101 100/100/100
f 103/103/103 100/100/100 31/31/31
f 103/103/103 31/31/31 30/30/30
f 107/107/107 24/24/24 21/21/21
f 107/107/107 21/21/21 108/108/108
f 107/107/107 108/108/108 109/109/109
f 107/107/107 109/109/109 110/110/110
f 107/107/107 110/110/110 105/105/105
f 107/107/107 105/105/105 104/104/104
f 107/107/107 104/104/104 25/25/25
f 107/107/107 25/25/25 24/24/24
f 111/111/111 108/108/108 21/21/21
f 111/111/111 21/21/21 20/20/20
f 111/111/111 20/20/20 15/15/15
f 111/111/111 15/15/15 112/112/112
f 111/111/111 112/112/112 113/113/113
f 111/111/111 113/113/113 114/114/114
f 111/111/111 114/114/114 109/109/109
f 111/111/111 109/109/109 108/108/108
f 115/115/115 112/112/112 15/15/15
f 115/115/115 15/15/15 14/14/14
f 115/115/115 14/14/14 9/9/9
f 115/115/115 9/9/9 116/116/116
f 115/115/115 116/116/116 117/117/117
f 115/115/115 117/117/117 118/118/118
f 115/115/115 118/118/118 113/113/113
f 115/115/115 113/113/113 112/112/112
f 119/119/119 116/116/116 9/9/9
f 119/119/119 9/9/9 8/8/8
f 119/119/119 8/8/8 7/7/7
f 119/119/119 7/7/7 74/74/74
f 119/119/119 74/74/74 78/78/78
f 119/119/119 78/78/78 120/120/120
f 119/119/119 120/120/120 117/117/117
f 119/119/119 117/117/117 116/116/116
f 121/121/121 122/122/122 123/123/123
f 121/121/121 123/123/123 124/124/124
f 121/121/121 124/124/124 125/125/125
f 121/121/121 125/125/125 126/126/126
f 121/121/121 126/126/126 127/127/127
f 121/121/121 127/127/127 128/128/128
f 121/121/121 128/128/128 129/129/129
f 121/121/121 129/129/129 122/122/122
f 130/130/130 131/131/131 132/132/132
f 130/130/130 132/132/132 133/133/133
f 130/130/130 133/133/133 123/123/123
f 130/130/130 123/123/123 122/122/122
f 130/130/130 122/122/122 129/129/129
f 130/130/130 129/129/129 134/134/134
f 130/130/130 134/134/134 135/135/135
f 130/130/130 135/135/135 131/131/131
f 136/136/136 137/137/137 138/138/138
f 136/136/136 138/138/138 139/139/139
f 136/136/136 139/139/139 132/132/132
f 136/136/136 132/132/132 131/131/131
f 136/136/136 131/131/131 135/135/135
f 136/136/136 135/135/135 140/140/140
f 136/136/136 140/140/140 141/141/141
f 136/136/136 141/141/141 137/137/137
f 142/142/142 143/143/143 138/138/138
f 142/142/142 138/138/138 137/137/137
f 142/142/142 137/137/137 141/141/141
f 142/142/142 141/141/141 144/144/144
f 142/142/142 144/144/144 145/145/145
f 142/142/142 145/145/145 146/146/146
f 142/142/142 146/146/146 147/147/147
f 142/142/142 147/147/147 143/143/143
f 148/148/148 149/149/149 147/147/147
f 148/148/148 147/147/147 146/146/146
f 148/148/148 146/146/146 145/145/145
f 148/148/148 145/145/145 150/150/150
f 148/148/148 150/150/150 151/151/151
f 148/148/148 151/151/151 152/152/152
f 148/148/148 152/152/152 153/153/153
f 148/148/148 153/153/153 149/149/149
f 154/154/154 155/155/155 156/156/156
f 154/154/154 156/156/156 157/157/157
f 154/154/154 157/157/157 153/153/153
f 154/154/154 153/153/153 152/152/152
f 154/154/154 152/152/152 151/151/151
f 154/154/154 151/151/151 158/158/158
f 154/154/154 158/158/158 159/159/159
f 154/154/154 159/159/159 155/155/155
f 160/160/160 161/161/161 162/162/162
f 160/160/160 162/162/162 163/163/163
f 160/160/160 163/163/163 156/156/156
f 160/160/160 156/156/156 155/155/155
f 160/160/160 155/155/155 159/159/159
f 160/160/160 159/159/159 164/164/164
f 160/160/160 164/164/164 165/165/165
f 160/160/160 165/165/165 161/161/161
f 166/166/166 167/167/167 168/168/168
f 166/166/166 168/168/168 169/169/169
f 166/166/166 169/169/169 162/162/162
f 166/166/166 162/162/162 161/161/161
f 166/166/166 161/161/161 165/165/165
f 166/166/166 165/165/165 170/170/170
f 166/166/166 170/170/170 171/171/171
f 166/166/166 171/171/171 167/167/167
f 172/172/172 173/173/173 174/174/174
f 172/172/172 174/174/174 175/175/175
f 172/172/172 175/175/175 168/168/168
f 172/172/172 168/168/168 167/167/167
f 172/172/172 167/167/167 171/171/171
f 172/172/172 171/171/171 176/176/176
f 172/172/172 176/176/176 177/177/177
f 172/172/172 177/177/177 173/173/173
f 178/178/178 179/179/179 180/180/180
f 178/178/178 180/180/180 181/181/181
f 178/178/178 181/181/181 174/174/174
f 178/178/178 174/174/174 173/173/173
f 178/178/178 173/173/173 177/177/177
f 178/178/178 177/177/177 182/182/182
f 178/178/178 182/182/182 183/183/183
f 178/178/178 183/183/183 179/179/179
f 184/184/184 185/185/185 186/186/186
f 184/184/184 186/186/186 187/187/187
f 184/184/184 187/187/187 180/180/180
f 184/184/184 180/180/180 179/179/179
f 184/184/184 179/179/179 183/183/183
f 184/184/184 183/183/183 188/188/188
f 184/184/184 188/188/188 189/189/189
f 184/184/184 189/189/189 185/185/185
f 190/190/190 126/126/126 125/125/125
f 190/190/190 125/125/125 191/191/191
f 190/190/190 191/191/191 186/186/186
f 190/190/190 186/186/186 185/185/185
f 190/190/190 185/185/185 189/189/189
f 190/190/190 189/189/189 192/192/192
f 190/190/190 192/192/192 127/127/127
f 190/190/190 127/127/127 126/126/126
f 193/193/193 194/194/194 195/195/195
f 193/193/193 195/195/195 196/196/196
f 193/193/193 196/196/196 197/197/197
f 193/193/193 197/197/197 198/198/198
f 193/193/193 198/198/198 199/199/199
f 193/193/193 199/199/199 200/200/200
f 193/193/193 200/200/200 201/201/201
f 193/193/193 201/201/201 194/194/194
f 202/202/202 203/203/203 204/204/204
f 202/202/202 204/204/204 205/205/205
f 202/202/202 205/205/205 195/195/195
f 202/202/202 195/195/195 194/194/194
f 202/202/202 194/194/194 201/201/201
f 202/202/202 201/201/201 206/206/206
f 202/202/202 206/206/206 207/207/207
f 202/202/202 207/207/207 203/203/203
f 208/208/208 209/209/209 210/210/210
f 208/208/208 210/210/210 211/211/211
f 208/208/208 211/211/211 204/204/204
f 208/208/208 204/204/204 203/203/203
f 208/208/208 203/203/203 207/207/207
f 208/208/208 207/207/207 212/212/212
f 208/208/208 212/212/212 213/213/213
f 208/208/208 213/213/213 209/209/209
f 214/214/214 215/215/215 210/210/210
f 214/214/214 210/210/210 209/209/209
f 214/214/214 209/209/209 213/213/213
f 214/214/214 213/213/213 216/216/216
f 214/214/214 216/216/216 217/217/217
f 214/214/214 217/217/217 218/218/218
f 214/214/214 218/218/218 219/219/219
f 214/214/214 219/219/219 215/215/215
f 220/220/220 221/221/221 219/219/219
f 220/220/220 219/219/219 218/218/218
f 220/220/220 218/218/218 217/217/217
f 220/220/220 217/217/217 222/222/222
f 220/220/220 222/222/222 223/223/223
f 220/220/220 223/223/223 224/224/224
f 220/220/220 224/224/224 225/225/225
f 220/220/220 225/225/225 221/221/221
f 226/226/226 227/227/227 228/228/228
f 226/226/226 228/228/228 229/229/229
f 226/226/226 229/229/229 225/225/225
f 226/226/226 225/225/225 224/224/224
f 226/226/226 224/224/224 223/223/223
f 226/226/226 223/223/223 230/230/230
f 226/226/226 230/230/230 231/231/231
f 226/226/226 231/231/231 227/227/227
f 232/232/232 233/233/233 234/234/234
f 232/232/232 234/234/234 235/235/235
f 232/232/232 235/235/235 228/228/228
f 232/232/232 228/228/228 227/227/227
f 232/232/232 227/227/227 231/231/231
f 232/232/232 231/231/231 236/236/236
f 232/232/232 236/236/236 237/237/237
f 232/232/232 237/237/237 233/233/233
f 238/238/238 239/239/239 240/240/240
f 238/238/238 240/240/240 241/241/241
f 238/238/238 241/241/241 234/234/234
f 238/238/238 234/234/234 233/233/233
f 238/238/238 233/233/233 237/237/237
f 238/238/238 237/237/237 242/242/242
f 238/238/238 242/242/242 243/243/243
f 238/238/238 243/243/243 239/239/239
f 244/244/244 245/245/245 246/246/246
f 244/244/244 246/246/246 247/247/247
f 244/244/244 247/247/247 240/240/240
f 244/244/244 240/240/240 239/239/239
f 244/244/244 239/239/239 243/243/243
f 244/244/244 243/243/243 248/248/248
f 244/244/244 248/248/248 249/249/249
f 244/244/244 249/249/249 245/245/245
f 250/250/250 251/251/251 252/252/252
f 250/250/250 252/252/252 253/253/253
f 250/250/250 253/253/253 246/246/246
f 250/250/250 246/246/246 245/245/245
f 250/250/250 245/245/245 249/249/249
f 250/250/250 249/249/249 254/254/254
f 250/250/250 254/254/254 255/255/255
f 250/250/250 255/255/255 251/251/251
f 256/256/256 257/257/257 258/258/258
f 256/256/256 258/258/258 259/259/259
f 256/256/256 259/259/259 252/252/252
f 256/256/256 252/252/252 251/251/251
f 256/256/256 251/251/251 255/255/255
f 256/256/256 255/255/255 260/260/260
f 256/256/256 260/260/260 261/261/261
f 256/256/256 261/261/261 257/257/257
f 262/262/262 198/198/198 197/197/197
f 262/262/262 197/197/197 263/263/263
f 262/262/262 263/263/263 258/258/258
f 262/262/262 258/258/258 257/257/257
f 262/262/262 257/257/257 261/261/261
f 262/262/262 261/261/261 264/264/264
f 262/262/262 264/264/264 199/199/199
f 262/262/262 199/199/199 198/198/198
f 265/265/265 266/266/266 199/199/199
f 265/265/265 199/199/199 264/264/264
f 265/265/265 264/264/264 261/261/261
f 265/265/265 261/261/261 267/267/267
f 265/265/265 267/267/267 268/268/268
f 265/265/265 268/268/268 269/269/269
f 265/265/265 269/269/269 270/270/270
f 265/265/265 270/270/270 266/266/266
f 271/271/271 267/267/267 261/261/261
f 271/271/271 261/261/261 260/260/260
f 271/271/271 260/260/260 255/255/255
f 271/271/271 255/255/255 272/272/272
f 271/271/271 272/272/272 273/273/273
f 271/271/271 273/273/273 274/274/274
f 271/271/271 274/274/274 268/268/268
f 271/271/271 268/268/268 267/267/267
f 275/275/275 272/272/272 255/255/255
f 275/275/275 255/255/255 254/254/254
f 275/275/275 254/254/254 249/249/249
f 275/275/275 249/249/249 276/276/276
f 275/275/275 276/276/276 277/277/277
f 275/275/275 277/277/277 278/278/278
f 275/275/275 278/278/278 273/273/273
f 275/275/275 273/273/273 272/272/272
f 279/279/279 276/276/276 249/249/249
f 279/279/279 249/249/249 248/248/248
f 279/279/279 248/248/248 243/243/243
f 279/279/279 243/243/243 280/280/280
f 279/279/279 280/280/280 281/281/281
f 279/279/279 281/281/281 282/282/282
f 279/279/279 282/282/282 277/277/277
f 279/279/279 277/277/277 276/276/276
f 283/283/283 280/280/280 243/243/243
f 283/283/283 243/243/243 242/242/242
f 283/283/283 242/242/242 237/237/237
f 283/283/283 237/237/237 284/284/284
f 283/283/283 284/284/284 285/285/285
f 283/283/283 285/285/285 286/286/286
f 283/283/283 286/286/286 281/281/281
f 283/283/283 281/281/281 280/280/280
f 287/287/287 284/284/284 237/237/237
f 287/287/287 237/237/237 236/236/236
f 287/287/287 236/236/236 231/231/231
f 287/287/287 231/231/231 288/288/288
f 287/287/287 288/288/288 289/289/289
f 287/287/287 289/289/289 290/290/290
f 287/287/287 290/290/290 285/285/285
f 287/287/287 285/285/285 284/284/284
f 291/291/291 288/288/288 231/231/231
f 291/291/291 231/231/231 230/230/230
f 291/291/291 230/230/230 223/223/223
f 291/291/291 223/223/223 292/292/292
f 291/291/291 292/292/292 293/293/293
f 291/291/291 293/293/293 294/294/294
f 291/291/291 294/294/294 289/289/289
f 291/291/291 289/289/289 288/288/288
f 295/295/295 222/222/222 217/217/217
f 295/295/295 217/217/217 296/296/296
f 295/295/295 296/296/296 297/297/297
f 295/295/295 297/297/297 298/298/298
f 295/295/295 298/298/298 293/293/293
f 295/295/295 293/293/293 292/292/292
f 295/295/295 292/292/292 223/223/223
f 295/295/295 223/223/223 222/222/222
f 299/299/299 216/216/216 213/213/213
f 299/299/299 213/213/213 300/300/300
f 299/299/299 300/300/300 301/301/301
f 299/299/299 301/301/301 302/302/302
f 299/299/299 302/302/302 297/297/297
f 299/299/299 297/297/297 296/296/296
f 299/299/299 296/296/296 217/217/217
f 299/299/299 217/217/217 216/216/216
f 303/303/303 300/300/300 213/213/213
f 303/303/303 213/213/213 212/212/212
f 303/303/303 212/212/212 207/207/207
f 303/303/303 207/207/207 304/304/304
f 303/303/303 304/304/304 305/305/305
f 303/303/303 305/305/305 306/306/306
f 303/303/303 306/306/306 301/301/301
f 303/303/303 301/301/301 300/300/300
f 307/307/307 304/304/304 207/207/207
f 307/307/307 207/207/207 206/206/206
f 307/307/307 206/206/206 201/201/201
f 307/307/307 201/201/201 308/308/308
f 307/307/307 308/308/308 309/309/309
f 307/307/307 309/309/309 310/310/310
f 307/307/307 310/310/310 305/305/305
f 307/307/307 305/305/305 304/304/304
f 311/311/311 308/308/308 201/201/201
f 311/311/311 201/201/201 200/200/200
f 311/311/311 200/200/200 199/199/199
f 311/311/311 199/199/199 266/266/266
f 311/311/311 266/266/266 270/270/270
f 311/311/311 270/270/270 312/312/312
f 311/311/311 312/312/312 309/309/309
f 311/311/311 309/309/309 308/308/308
f 313/313/313 192/192/192 189/189/189
f 313/313/313 189/189/189 314/314/314
f 313/313/313 314/314/314 315/315/315
f 313/313/313 315/315/315 316/316/316
f 313/313/313 316/316/316 317/317/317
f 313/313/313 317/317/317 318/318/318
f 313/313/313 318/318/318 127/127/127
f 313/313/313 127/127/127 192/192/192
f 319/319/319 316/316/316 315/315/315
f 319/319/319 315/315/315 320/320/320
f 319/319/319 320/320/320 258/258/258
f 319/319/319 258/258/258 263/263/263
f 319/319/319 263/263/263 197/197/197
f 319/319/319 197/197/197 321/321/321
f 319/319/319 321/321/321 317/317/317
f 319/319/319 317/317/317 316/316/316
f 322/322/322 188/188/188 183/183/183
f 322/322/322 183/183/183 323/323/323
f 322/322/322 323/323/323 324/324/324
f 322/322/322 324/324/324 325/325/325
f 322/322/322 325/325/325 315/315/315
f 322/322/322 315/315/315 314/314/314
f 322/322/322 314/314/314 189/189/189
f 322/322/322 189/189/189 188/188/188
f 326/326/326 325/325/325 324/324/324
f 326/326/326 324/324/324 327/327/327
f 326/326/326 327/327/327 252/252/252
f 326/326/326 252/252/252 259/259/259
f 326/326/326 259/259/259 258/258/258
f 326/326/326 258/258/258 320/320/320
f 326/326/326 320/320/320 315/315/315
f 326/326/326 315/315/315 325/325/325
f 328/328/328 182/182/182 177/177/177
f 328/328/328 177/177/177 329/329/329
f 328/328/328 329/329/329 330/330/330
f 328/328/328 330/330/330 331/331/331
f 328/328/328 331/331/331 324/324/324
f 328/328/328 324/324/324 323/323/323
f 328/328/328 323/323/323 183/183/183
f 328/328/328 183/183/183 182/182/182
f 332/332/332 331/331/331 330/330/330
f 332/332/332 330/330/330 333/333/333
f 332/332/332 333/333/333 246/246/246
f 332/332/332 246/246/246 253/253/253
f 332/332/332 253/253/253 252/252/252
f 332/332/332 252/252/252 327/327/327
f 332/332/332 327/327/327 324/324/324
f 332/332/332 324/324/324 331/331/331
f 334/334/334 176/176/176 171/171/171
f 334/334/334 171/171/171 335/335/335
f 334/334/334 335/335/335 336/336/336
f 334/334/334 336/336/336 337/337/337
f 334/334/334 337/337/337 330/330/330
f 334/334/334 330/330/330 329/329/329
f 334/334/334 329/329/329 177/177/177
f 334/334/334 177/177/177 176/176/176
f 338/338/338 337/337/337 336/336/336
f 338/338/338 336/336/336 339/339/339
f 338/338/338 339/339/339 240/240/240
f 338/338/338 240/240/240 247/247/247
f 338/338/338 247/247/247 246/246/246
f 338/338/338 246/246/246 333/333/333
f 338/338/338 333/333/333 330/330/330
f 338/338/338 330/330/330 337/337/337
f 340/340/340 170/170/170 165/165/165
f 340/340/340 165/165/165 341/341/341
f 340/340/340 341/341/341 342/342/342
f 340/340/340 342/342/342 343/343/343
f 340/340/340 343/343/343 336/336/336
f 340/340/340 336/336/336 335/335/335
f 340/340/340 335/335/335 171/171/171
f 340/340/340 171/171/171 170/170/170
f 344/344/344 343/343/343 342/342/342
f 344/344/344 342/342/342 345/345/345
f 344/344/344 345/345/345 234/234/234
f 344/344/344 234/234/234 241/241/241
f 344/344/344 241/241/241 240/240/240
f 344/344/344 240/240/240 339/339/339
f 344/344/344 339/339/339 336/336/336
f 344/344/344 336/336/336 343/343/343
f 346/346/346 164/164/164 159/159/159
f 346/346/346 159/159/159 347/347/347
f 346/346/346 347/347/347 348/348/348
f 346/346/346 348/348/348 349/349/349
f 346/346/346 349/349/349 342/342/342
f 346/346/346 342/342/342 341/341/341
f 346/346/346 341/341/341 165/165/165
f 346/346/346 165/165/165 164/164/164
f 350/350/350 349/349/349 348/348/348
f 350/350/350 348/348/348 351/351/351
f 350/350/350 351/351/351 228/228/228
f 350/350/350 228/228/228 235/235/235
f 350/350/350 235/235/235 234/234/234
f 350/350/350 234/234/234 345/345/345
f 350/350/350 345/345/345 342/342/342
f 350/350/350 342/342/342 349/349/349
f 352/352/352 158/158/158 151/151/151
f 352/352/352 151/151/151 353/353/353
f 352/352/352 353/353/353 354/354/354
f 352/352/352 354/354/354 355/355/355
f 352/352/352 355/355/355 348/348/348
f 352/352/352 348/348/348 347/347/347
f 352/352/352 347/347/347 159/159/159
f 352/352/352 159/159/159 158/158/158
f 356/356/356 355/355/355 354/354/354
f 356/356/356 354/354/354 357/357/357
f 356/356/356 357/357/357 225/225/225
f 356/356/356 225/225/225 229/229/229
f 356/356/356 229/229/229 228/228/228
f 356/356/356 228/228/228 351/351/351
f 356/356/356 351/351/351 348/348/348
f 356/356/356 348/348/348 355/355/355
f 358/358/358 353/353/353 151/151/151
f 358/358/358 151/151/151 150/150/150
f 358/358/358 150/150/150 145/145/145
f 358/358/358 145/145/145 359/359/359
f 358/358/358 359/359/359 360/360/360
f 358/358/358 360/360/360 361/361/361
f 358/358/358 361/361/361 354/354/354
f 358/358/358 354/354/354 353/353/353
f 362/362/362 357/357/357 354/354/354
f 362/362/362 354/354/354 361/361/361
f 362/362/362 361/361/361 360/360/360
f 362/362/362 360/360/360 363/363/363
f 362/362/362 363/363/363 219/219/219
f 362/362/362 219/219/219 221/221/221
f 362/362/362 221/221/221 225/225/225
f 362/362/362 225/225/225 357/357/357
f 364/364/364 359/359/359 145/145/145
f 364/364/364 145/145/145 144/144/144
f 364/364/364 144/144/144 141/141/141
f 364/364/364 141/141/141 365/365/365
f 364/364/364 365/365/365 366/366/366
f 364/364/364 366/366/366 367/367/367
f 364/364/364 367/367/367 360/360/360
f 364/364/364 360/360/360 359/359/359
f 368/368/368 363/363/363 360/360/360
f 368/368/368 360/360/360 367/367/367
f 368/368/368 367/367/367 366/366/366
f 368/368/368 366/366/366 369/369/369
f 368/368/368 369/369/369 210/210/210
f 368/368/368 210/210/210 215/215/215
f 368/368/368 215/215/215 219/219/219
f 368/368/368 219/219/219 363/363/363
f 370/370/370 140/140/140 135/135/135
f 370/370/370 135/135/135 371/371/371
f 370/370/370 371/371/371 372/372/372
f 370/370/370 372/372/372 373/373/373
f 370/370/370 373/373/373 366/366/366
f 370/370/370 366/366/366 365/365/365
f 370/370/370 365/365/365 141/141/141
f 370/370/370 141/141/141 140/140/140
f 374/374/374 373/373/373 372/372/372
f 374/374/374 372/372/372 375/375/375
f 374/374/374 375/375/375 204/204/204
f 374/374/374 204/204/204 211/211/211
f 374/374/374 211/211/211 210/210/210
f 374/374/374 210/210/210 369/369/369
f 374/374/374 369/369/369 366/366/366
f 374/374/374 366/366/366 373/373/373
f 376/376/376 134/134/134 129/129/129
f 376/376/376 129/129/129 377/377/377
f 376/376/376 377/377/377 378/378/378
f 376/376/376 378/378/378 379/379/379
f 376/376/376 379/379/379 372/372/372
f 376/376/376 372/372/372 371/371/371
f 376/376/376 371/371/371 135/135/135
f 376/376/376 135/135/135 134/134/134
f 380/380/380 379/379/379 378/378/378
f 380/380/380 378/378/378 381/381/381
f 380/380/380 381/381/381 195/195/195
f 380/380/380 195/195/195 205/205/205
f 380/380/380 205/205/205 204/204/204
f 380/380/380 204/204/204 375/375/375
f 380/380/380 375/375/375 372/372/372
f 380/380/380 372/372/372 379/379/379
f 382/382/382 128/128/128 127/127/127
f 382/382/382 127/127/127 318/318/318
f 382/382/382 318/318/318 317/317/317
f 382/382/382 317/317/317 383/383/383
f 382/382/382 383/383/383 378/378/378
f 382/382/382 378/378/378 377/377/377
f 382/382/382 377/377/377 129/129/129
f 382/382/382 129/129/129 128/128/128
f 384/384/384 383/383/383 317/317/317
f 384/384/384 317/317/317 321/321/321
f 384/384/384 321/321/321 197/197/197
f 384/384/384 197/197/197 196/196/196
f 384/384/384 196/196/196 195/195/195
f 384/384/384 195/195/195 381/381/381
f 384/384/384 381/381/381 378/378/378
f 384/384/384 378/378/378 383/383/383
f 385/385/385 306/306/306 305/305/305
f 385/385/385 305/305/305 386/386/386
f 385/385/385 386/386/386 387/387/387
f 385/385/385 387/387/387 388/388/388
f 385/385/385 388/388/388 297/297/297
f 385/385/385 297/297/297 302/302/302
f 385/385/385 302/302/302 301/301/301
f 385/385/385 301/301/301 306/306/306
f 389/389/389 312/312/312 270/270/270
f 389/389/389 270/270/270 390/390/390
f 389/389/389 390/390/390 387/387/387
f 389/389/389 387/387/387 386/386/386
f 389/389/389 386/386/386 305/305/305
f 389/389/389 305/305/305 310/310/310
f 389/389/389 310/310/310 309/309/309
f 389/389/389 309/309/309 312/312/312
f 391/391/391 274/274/274 273/273/273
f 391/391/391 273/273/273 392/392/392
f 391/391/391 392/392/392 387/387/387
f 391/391/391 387/387/387 390/390/390
f 391/391/391 390/390/390 270/270/270
f 391/391/391 270/270/270 269/269/269
f 391/391/391 269/269/269 268/268/268
f 391/391/391 268/268/268 274/274/274
f 393/393/393 282/282/282 281/281/281
f 393/393/393 281/281/281 394/394/394
f 393/393/393 394/394/394 387/387/387
f 393/393/393 387/387/387 392/392/392
f 393/393/393 392/392/392 273/273/273
f 393/393/393 273/273/273 278/278/278
f 393/393/393 278/278/278 277/277/277
f 393/393/393 277/277/277 282/282/282
f 395/395/395 290/290/290 289/289/289
f 395/395/395 289/289/289 396/396/396
f 395/395/395 396/396/396 387/387/387
f 395/395/395 387/387/387 394/394/394
f 395/395/395 394/394/394 281/281/281
f 395/395/395 281/281/281 286/286/286
f 395/395/395 286/286/286 285/285/285
f 395/395/395 285/285/285 290/290/290
f 397/397/397 298/298/298 297/297/297
f 397/397/397 297/297/297 388/388/388
f 397/397/397 388/388/388 387/387/387
f 397/397/397 387/387/387 396/396/396
f 397/397/397 396/396/396 289/289/289
f 397/397/397 289/289/289 294/294/294
f 397/397/397 294/294/294 293/293/293
f 397/397/397 293/293/293 298/298/298
f 398/398/398 399/399/399 400/400/400
f 398/398/398 400/400/400 401/401/401
f 398/398/398 401/401/401 402/402/402
f 398/398/398 402/402/402 403/403/403
f 398/398/398 403/403/403 404/404/404
f 398/398/398 404/404/404 405/405/405
f 398/398/398 405/405/405 406/406/406
f 398/398/398 406/406/406 399/399/399
f 407/407/407 403/403/403 402/402/402
f 407/407/407 402/402/402 408/408/408
f 407/407/407 408/408/408 186/186/186
f 407/407/407 186/186/186 191/191/191
f 407/407/407 191/191/191 125/125/125
f 407/407/407 125/125/125 409/409/409
f 407/407/407 409/409/409 404/404/404
f 407/407/407 404/404/404 403/403/403
f 410/410/410 411/411/411 412/412/412
f 410/410/410 412/412/412 413/413/413
f 410/410/410 413/413/413 414/414/414
f 410/410/410 414/414/414 415/415/415
f 410/410/410 415/415/415 402/402/402
f 410/410/410 402/402/402 401/401/401
f 410/410/410 401/401/401 400/400/400
f 410/410/410 400/400/400 411/411/411
f 416/416/416 415/415/415 414/414/414
f 416/416/416 414/414/414 417/417/417
f 416/416/416 417/417/417 180/180/180
f 416/416/416 180/180/180 187/187/187
f 416/416/416 187/187/187 186/186/186
f 416/416/416 186/186/186 408/408/408
f 416/416/416 408/408/408 402/402/402
f 416/416/416 402/402/402 415/415/415
f 418/418/418 419/419/419 420/420/420
f 418/418/418 420/420/420 421/421/421
f 418/418/418 421/421/421 422/422/422
f 418/418/418 422/422/422 423/423/423
f 418/418/418 423/423/423 414/414/414
f 418/418/418 414/414/414 413/413/413
f 418/418/418 413/413/413 412/412/412
f 418/418/418 412/412/412 419/419/419
f 424/424/424 423/423/423 422/422/422
f 424/424/424 422/422/422 425/425/425
f 424/424/424 425/425/425 174/174/174
f 424/424/424 174/174/174 181/181/181
f 424/424/424 181/181/181 180/180/180
f 424/424/424 180/180/180 417/417/417
f 424/424/424 417/417/417 414/414/414
f 424/424/424 414/414/414 423/423/423
f 426/426/426 427/427/427 428/428/428
f 426/426/426 428/428/428 429/429/429
f 426/426/426 429/429/429 430/430/430
f 426/426/426 430/430/430 431/431/431
f 426/426/426 431/431/431 422/422/422
f 426/426/426 422/422/422 421/421/421
f 426/426/426 421/421/421 420/420/420
f 426/426/426 420/420/420 427/427/427
f 432/432/432 431/431/431 430/430/430
f 432/432/432 430/430/430 433/433/433
f 432/432/432 433/433/433 168/168/168
f 432/432/432 168/168/168 175/175/175
f 432/432/432 175/175/175 174/174/174
f 432/432/432 174/174/174 425/425/425
f 432/432/432 425/425/425 422/422/422
f 432/432/432 422/422/422 431/431/431
f 434/434/434 435/435/435 436/436/436
f 434/434/434 436/436/436 437/437/437
f 434/434/434 437/437/437 438/438/438
f 434/434/434 438/438/438 439/439/439
f 434/434/434 439/439/439 430/430/430
f 434/434/434 430/430/430 429/429/429
f 434/434/434 429/429/429 428/428/428
f 434/434/434 428/428/428 435/435/435
f 440/440/440 439/439/439 438/438/438
f 440/440/440 438/438/438 441/441/441
f 440/440/440 441/441/441 162/162/162
f 440/440/440 162/162/162 169/169/169
f 440/440/440 169/169/169 168/168/168
f 440/440/440 168/168/168 433/433/433
f 440/440/440 433/433/433 430/430/430
f 440/440/440 430/430/430 439/439/439
f 442/442/442 443/443/443 444/444/444
f 442/442/442 444/444/444 445/445/445
f 442/442/442 445/445/445 446/446/446
f 442/442/442 446/446/446 447/447/447
f 442/442/442 447/447/447 438/438/438
f 442/442/442 438/438/438 437/437/437
f 442/442/442 437/437/437 436/436/436
f 442/442/442 436/436/436 443/443/443
f 448/448/448 447/447/447 446/446/446
f 448/448/448 446/446/446 449/449/449
f 448/448/448 449/449/449 156/156/156
f 448/448/448 156/156/156 163/163/163
f 448/448/448 163/163/163 162/162/162
f 448/448/448 162/162/162 441/441/441
f 448/448/448 441/441/441 438/438/438
f 448/448/448 438/438/438 447/447/447
f 450/450/450 451/451/451 452/452/452
f 450/450/450 452/452/452 453/453/453
f 450/450/450 453/453/453 454/454/454
f 450/450/450 454/454/454 455/455/455
f 450/450/450 455/455/455 446/446/446
f 450/450/450 446/446/446 445/445/445
f 450/450/450 445/445/445 444/444/444
f 450/450/450 444/444/444 451/451/451
f 456/456/456 455/455/455 454/454/454
f 456/456/456 454/454/454 457/457/457
f 456/456/456 457/457/457 153/153/153
f 456/456/456 153/153/153 157/157/157
f 456/456/456 157/157/157 156/156/156
f 456/456/456 156/156/156 449/449/449
f 456/456/456 449/449/449 446/446/446
f 456/456/456 446/446/446 455/455/455
f 458/458/458 459/459/459 460/460/460
f 458/458/458 460/460/460 461/461/461
f 458/458/458 461/461/461 462/462/462
f 458/458/458 462/462/462 463/463/463
f 458/458/458 463/463/463 454/454/454
f 458/458/458 454/454/454 453/453/453
f 458/458/458 453/453/453 452/452/452
f 458/458/458 452/452/452 459/459/459
f 464/464/464 463/463/463 462/462/462
f 464/464/464 462/462/462 465/465/465
f 464/464/464 465/465/465 147/147/147
f 464/464/464 147/147/147 149/149/149
f 464/464/464 149/149/149 153/153/153
f 464/464/464 153/153/153 457/457/457
f 464/464/464 457/457/457 454/454/454
f 464/464/464 454/454/454 463/463/463
f 466/466/466 467/467/467 468/468/468
f 466/466/466 468/468/468 469/469/469
f 466/466/466 469/469/469 470/470/470
f 466/466/466 470/470/470 471/471/471
f 466/466/466 471/471/471 462/462/462
f 466/466/466 462/462/462 461/461/461
f 466/466/466 461/461/461 460/460/460
f 466/466/466 460/460/460 467/467/467
f 472/472/472 471/471/471 470/470/470
f 472/472/472 470/470/470 473/473/473
f 472/472/472 473/473/473 138/138/138
f 472/472/472 138/138/138 143/143/143
f 472/472/472 143/143/143 147/147/147
f 472/472/472 147/147/147 465/465/465
f 472/472/472 465/465/465 462/462/462
f 472/472/472 462/462/462 471/471/471
f 474/474/474 475/475/475 476/476/476
f 474/474/474 476/476/476 477/477/477
f 474/474/474 477/477/477 478/478/478
f 474/474/474 478/478/478 479/479/479
f 474/474/474 479/479/479 470/470/470
f 474/474/474 470/470/470 469/469/469
f 474/474/474 469/469/469 468/468/468
f 474/474/474 468/468/468 475/475/475
f 480/480/480 479/479/479 478/478/478
f 480/480/480 478/478/478 481/481/481
f 480/480/480 481/481/481 132/132/132
f 480/480/480 132/132/132 139/139/139
f 480/480/480 139/139/139 138/138/138
f 480/480/480 138/138/138 473/473/473
f 480/480/480 473/473/473 470/470/470
f 480/480/480 470/470/470 479/479/479
f 482/482/482 483/483/483 484/484/484
f 482/482/482 484/484/484 485/485/485
f 482/482/482 485/485/485 486/486/486
f 482/482/482 486/486/486 487/487/487
f 482/482/482 487/487/487 478/478/478
f 482/482/482 478/478/478 477/477/477
f 482/482/482 477/477/477 476/476/476
f 482/482/482 476/476/476 483/483/483
f 488/488/488 487/487/487 486/486/486
f 488/488/488 486/486/486 489/489/489
f 488/488/488 489/489/489 123/123/123
f 488/488/488 123/123/123 133/133/133
f 488/488/488 133/133/133 132/132/132
f 488/488/488 132/132/132 481/481/481
f 488/488/488 481/481/481 478/478/478
f 488/488/488 478/478/478 487/487/487
f 490/490/490 491/491/491 406/406/406
f 490/490/490 406/406/406 405/405/405
f 490/490/490 405/405/405 404/404/404
f 490/490/490 404/404/404 492/492/492
f 490/490/490 492/492/492 486/486/486
f 490/490/490 486/486/486 485/485/485
f 490/490/490 485/485/485 484/484/484
f 490/490/490 484/484/484 491/491/491
f 493/493/493 492/492/492 404/404/404
f 493/493/493 404/404/404 409/409/409
f 493/493/493 409/409/409 125/125/125
f 493/493/493 125/125/125 124/124/124
f 493/493/493 124/124/124 123/123/123
f 493/493/493 123/123/123 489/489/489
f 493/493/493 489/489/489 486/486/486
f 493/493/493 486/486/486 492/492/492
f 494/494/494 120/120/120 78/78/78
f 494/494/494 78/78/78 495/495/495
f 494/494/494 495/495/495 496/496/496
f 494/494/494 496/496/496 497/497/497
f 494/494/494 497/497/497 498/498/498
f 494/494/494 498/498/498 499/499/499
f 494/494/494 499/499/499 117/117/117
f 494/494/494 117/117/117 120/120/120
f 500/500/500 497/497/497 496/496/496
f 500/500/500 496/496/496 501/501/501
f 500/500/500 501/501/501 406/406/406
f 500/500/500 406/406/406 491/491/491
f 500/500/500 491/491/491 484/484/484
f 500/500/500 484/484/484 502/502/502
f 500/500/500 502/502/502 498/498/498
f 500/500/500 498/498/498 497/497/497
f 503/503/503 118/118/118 117/117/117
f 503/503/503 117/117/117 499/499/499
f 503/503/503 499/499/499 498/498/498
f 503/503/503 498/498/498 504/504/504
f 503/503/503 504/504/504 505/505/505
f 503/503/503 505/505/505 506/506/506
f 503/503/503 506/506/506 113/113/113
f 503/503/503 113/113/113 118/118/118
f 507/507/507 504/504/504 498/498/498
f 507/507/507 498/498/498 502/502/502
f 507/507/507 502/502/502 484/484/484
f 507/507/507 484/484/484 483/483/483
f 507/507/507 483/483/483 476/476/476
f 507/507/507 476/476/476 508/508/508
f 507/507/507 508/508/508 505/505/505
f 507/507/507 505/505/505 504/504/504
f 509/509/509 114/114/114 113/113/113
f 509/509/509 113/113/113 506/506/506
f 509/509/509 506/506/506 505/505/505
f 509/509/509 505/505/505 510/510/510
f 509/509/509 510/510/510 511/511/511
f 509/509/509 511/511/511 512/512/512
f 509/509/509 512/512/512 109/109/109
f 509/509/509 109/109/109 114/114/114
f 513/513/513 510/510/510 505/505/505
f 513/513/513 505/505/505 508/508/508
f 513/513/513 508/508/508 476/476/476
f 513/513/513 476/476/476 475/475/475
f 513/513/513 475/475/475 468/468/468
f 513/513/513 468/468/468 514/514/514
f 513/513/513 514/514/514 511/511/511
f 513/513/513 511/511/511 510/510/510
f 515/515/515 110/110/110 109/109/109
f 515/515/515 109/109/109 512/512/512
f 515/515/515 512/512/512 511/511/511
f 515/515/515 511/511/511 516/516/516
f 515/515/515 516/516/516 517/517/517
f 515/515/515 517/517/517 518/518/518
f 515/515/515 518/518/518 105/105/105
f 515/515/515 105/105/105 110/110/110
f 519/519/519 516/516/516 511/511/511
f 519/519/519 511/511/511 514/514/514
f 519/519/519 514/514/514 468/468/468
f 519/519/519 468/468/468 467/467/467
f 519/519/519 467/467/467 460/460/460
f 519/519/519 460/460/460 520/520/520
f 519/519/519 520/520/520 517/517/517
f 519/519/519 517/517/517 516/516/516
f 521/521/521 106/106/106 105/105/105
f 521/521/521 105/105/105 518/518/518
f 521/521/521 518/518/518 517/517/517
f 521/521/521 517/517/517 522/522/522
f 521/521/521 522/522/522 523/523/523
f 521/521/521 523/523/523 524/524/524
f 521/521/521 524/524/524 101/101/101
f 521/521/521 101/101/101 106/106/106
f 525/525/525 522/522/522 517/517/517
f 525/525/525 517/517/517 520/520/520
f 525/525/525 520/520/520 460/460/460
f 525/525/525 460/460/460 459/459/459
f 525/525/525 459/459/459 452/452/452
f 525/525/525 452/452/452 526/526/526
f 525/525/525 526/526/526 523/523/523
f 525/525/525 523/523/523 522/522/522
f 527/527/527 102/102/102 101/101/101
f 527/527/527 101/101/101 524/524/524
f 527/527/527 524/524/524 523/523/523
f 527/527/527 523/523/523 528/528/528
f 527/527/527 528/528/528 529/529/529
f 527/527/527 529/529/529 530/530/530
f 527/527/527 530/530/530 97/97/97
f 527/527/527 97/97/97 102/102/102
f 531/531/531 528/528/528 523/523/523
f 531/531/531 523/523/523 526/526/526
f 531/531/531 526/526/526 452/452/452
f 531/531/531 452/452/452 451/451/451
f 531/531/531 451/451/451 444/444/444
f 531/531/531 444/444/444 532/532/532
f 531/531/531 532/532/532 529/529/529
f 531/531/531 529/529/529 528/528/528
f 533/533/533 98/98/98 97/97/97
f 533/533/533 97/97/97 530/530/530
f 533/533/533 530/530/530 529/529/529
f 533/533/533 529/529/529 534/534/534
f 533/533/533 534/534/534 535/535/535
f 533/533/533 535/535/535 536/536/536
f 533/533/533 536/536/536 93/93/93
f 533/533/533 93/93/93 98/98/98
f 537/537/537 534/534/534 529/529/529
f 537/537/537 529/529/529 532/532/532
f 537/537/537 532/532/532 444/444/444
f 537/537/537 444/444/444 443/443/443
f 537/537/537 443/443/443 436/436/436
f 537/537/537 436/436/436 538/538/538
f 537/537/537 538/538/538 535/535/535
f 537/537/537 535/535/535 534/534/534
f 539/539/539 94/94/94 93/93/93
f 539/539/539 93/93/93 536/536/536
f 539/539/539 536/536/536 535/535/535
f 539/539/539 535/535/535 540/540/540
f 539/539/539 540/540/540 541/541/541
f 539/539/539 541/541/541 542/542/542
f 539/539/539 542/542/542 89/89/89
f 539/539/539 89/89/89 94/94/94
f 543/543/543 540/540/540 535/535/535
f 543/543/543 535/535/535 538/538/538
f 543/543/543 538/538/538 436/436/436
f 543/543/543 436/436/436 435/435/435
f 543/543/543 435/435/435 428/428/428
f 543/543/543 428/428/428 544/544/544
f 543/543/543 544/544/544 541/541/541
f 543/543/543 541/541/541 540/540/540
f 545/545/545 90/90/90 89/89/89
f 545/545/545 89/89/89 542/542/542
f 545/545/545 542/542/542 541/541/541
f 545/545/545 541/541/541 546/546/546
f 545/545/545 546/546/546 547/547/547
f 545/545/545 547/547/547 548/548/548
f 545/545/545 548/548/548 85/85/85
f 545/545/545 85/85/85 90/90/90
f 549/549/549 546/546/546 541/541/541
f 549/549/549 541/541/541 544/544/544
f 549/549/549 544/544/544 428/428/428
f 549/549/549 428/428/428 427/427/427
f 549/549/549 427/427/427 420/420/420
f 549/549/549 420/420/420 550/550/550
f 549/549/549 550/550/550 547/547/547
f 549/549/549 547/547/547 546/546/546
f 551/551/551 86/86/86 85/85/85
f 551/551/551 85/85/85 548/548/548
f 551/551/551 548/548/548 547/547/547
f 551/551/551 547/547/547 552/552/552
f 551/551/551 552/552/552 553/553/553
f 551/551/551 553/553/553 554/554/554
f 551/551/551 554/554/554 81/81/81
f 551/551/551 81/81/81 86/86/86
f 555/555/555 552/552/552 547/547/547
f 555/555/555 547/547/547 550/550/550
f 555/555/555 550/550/550 420/420/420
f 555/555/555 420/420/420 419/419/419
f 555/555/555 419/419/419 412/412/412
f 555/555/555 412/412/412 556/556/556
f 555/555/555 556/556/556 553/553/553
f 555/555/555 553/553/553 552/552/552
f 557/557/557 82/82/82 81/81/81
f 557/557/557 81/81/81 554/554/554
f 557/557/557 554/554/554 553/553/553
f 557/557/557 553/553/553 558/558/558
f 557/557/557 558/558/558 559/559/559
f 557/557/557 559/559/559 560/560/560
f 557/557/557 560/560/560 76/76/76
f 557/557/557 76/76/76 82/82/82
f 561/561/561 558/558/558 553/553/553
f 561/561/561 553/553/553 556/556/556
f 561/561/561 556/556/556 412/412/412
f 561/561/561 412/412/412 411/411/411
f 561/561/561 411/411/411 400/400/400
f 561/561/561 400/400/400 562/562/562
f 561/561/561 562/562/562 559/559/559
f 561/561/561 559/559/559 558/558/558
f 563/563/563 77/77/77 76/76/76
f 563/563/563 76/76/76 560/560/560
f 563/563/563 560/560/560 559/559/559
f 563/563/563 559/559/559 564/564/564
f 563/563/563 564/564/564 496/496/496
f 563/563/563 496/496/496 495/495/495
f 563/563/563 495/495/495 78/78/78
f 563/563/563 78/78/78 77/77/77
f 565/565/565 564/564/564 559/559/559
f 565/565/565 559/559/559 562/562/562
f 565/565/565 562/562/562 400/400/400
f 565/565/565 400/400/400 399/399/399
f 565/565/565 399/399/399 406/406/406
f 565/565/565 406/406/406 501/501/501
f 565/565/565 501/501/501 496/496/496
f 565/565/565 496/496/496 564/564/564
