v -2.120266 1.768701 -0.240573
v -2.120266 1.768701 0.214743
v -2.120266 0.138438 0.214743
v -2.120266 0.138438 -0.240573
v -2.123904 0.136456 0.214743
v -2.123904 0.136456 -0.240573
v -2.122249 0.136456 -0.240573
v -2.122249 0.136456 0.214743
v -2.125888 0.138438 0.214743
v -2.125888 1.768701 0.214743
v -2.125888 1.768701 -0.240573
v -2.125888 0.138438 -0.240573
v -2.123904 1.768701 -0.242469
v -2.122249 1.768701 -0.242469
v -2.122249 0.138438 -0.242469
v -2.123904 0.138438 -0.242469
v -2.122249 0.138438 0.216639
v -2.122249 1.768701 0.216639
v -2.123904 1.768701 0.216639
v -2.123904 0.138438 0.216639
v -2.123904 1.770683 0.214743
v -2.122249 1.770683 0.214743
v -2.122249 1.770683 -0.240573
v -2.123904 1.770683 -0.240573
v -2.123904 1.770683 0.214743
v -2.125888 1.768701 0.214743
v -2.123904 1.768701 0.216639
v -2.123904 1.770683 -0.240573
v -2.123904 1.768701 -0.242469
v -2.125888 1.768701 -0.240573
v -2.123904 0.136456 0.214743
v -2.123904 0.138438 0.216639
v -2.125888 0.138438 0.214743
v -2.123904 0.136456 -0.240573
v -2.125888 0.138438 -0.240573
v -2.123904 0.138438 -0.242469
v -2.122249 0.136456 -0.240573
v -2.122249 0.138438 -0.242469
v -2.120266 0.138438 -0.240573
v -2.122249 0.136456 0.214743
v -2.120266 0.138438 0.214743
v -2.122249 0.138438 0.216639
v -2.122249 1.770683 -0.240573
v -2.120266 1.768701 -0.240573
v -2.122249 1.768701 -0.242469
v -2.122249 1.770683 0.214743
v -2.122249 1.768701 0.216639
v -2.120266 1.768701 0.214743
v -2.123904 1.770683 0.214743
v -2.123904 1.770683 -0.240573
v -2.125888 1.768701 -0.240573
v -2.125888 1.768701 0.214743
v -2.125888 0.138438 0.214743
v -2.125888 0.138438 -0.240573
v -2.123904 0.136456 -0.240573
v -2.123904 0.136456 0.214743
v -2.120266 0.138438 -0.240573
v -2.120266 0.138438 0.214743
v -2.122249 0.136456 0.214743
v -2.122249 0.136456 -0.240573
v -2.120266 1.768701 0.214743
v -2.120266 1.768701 -0.240573
v -2.122249 1.770683 -0.240573
v -2.122249 1.770683 0.214743
v -2.125888 1.768701 0.214743
v -2.125888 0.138438 0.214743
v -2.123904 0.138438 0.216639
v -2.123904 1.768701 0.216639
v -2.125888 0.138438 -0.240573
v -2.125888 1.768701 -0.240573
v -2.123904 1.768701 -0.242469
v -2.123904 0.138438 -0.242469
v -2.120266 1.768701 -0.240573
v -2.120266 0.138438 -0.240573
v -2.122249 0.138438 -0.242469
v -2.122249 1.768701 -0.242469
v -2.122249 1.768701 0.216639
v -2.122249 0.138438 0.216639
v -2.120266 0.138438 0.214743
v -2.120266 1.768701 0.214743
v -2.123904 0.138438 -0.242469
v -2.122249 0.138438 -0.242469
v -2.122249 0.136456 -0.240573
v -2.123904 0.136456 -0.240573
v -2.122249 0.138438 0.216639
v -2.123904 0.138438 0.216639
v -2.123904 0.136456 0.214743
v -2.122249 0.136456 0.214743
v -2.122249 1.770683 0.214743
v -2.123904 1.770683 0.214743
v -2.123904 1.768701 0.216639
v -2.122249 1.768701 0.216639
v -2.122249 1.768701 -0.242469
v -2.123904 1.768701 -0.242469
v -2.123904 1.770683 -0.240573
v -2.122249 1.770683 -0.240573
vn 1.000000 0.000000 0.000000
vn 1.000000 0.000000 0.000000
vn 1.000000 0.000000 0.000000
vn 1.000000 0.000000 0.000000
vn 0.000000 -1.000000 0.000000
vn 0.000000 -1.000000 0.000000
vn 0.000000 -1.000000 0.000000
vn 0.000000 -1.000000 0.000000
vn -1.000000 0.000000 0.000000
vn -1.000000 0.000000 0.000000
vn -1.000000 0.000000 0.000000
vn -1.000000 0.000000 0.000000
vn 0.000000 0.000000 -1.000000
vn 0.000000 0.000000 -1.000000
vn 0.000000 0.000000 -1.000000
vn 0.000000 0.000000 -1.000000
vn 0.000000 0.000000 1.000000
vn 0.000000 0.000000 1.000000
vn 0.000000 0.000000 1.000000
vn 0.000000 0.000000 1.000000
vn 0.000000 1.000000 0.000000
vn 0.000000 1.000000 0.000000
vn 0.000000 1.000000 0.000000
vn 0.000000 1.000000 0.000000
vn -0.568300 0.568700 0.594600
vn -0.568300 0.568700 0.594600
vn -0.568300 0.568700 0.594600
vn -0.568300 0.568700 -0.594600
vn -0.568300 0.568700 -0.594600
vn -0.568300 0.568700 -0.594600
vn -0.568300 -0.568700 0.594500
vn -0.568300 -0.568700 0.594500
vn -0.568300 -0.568700 0.594500
vn -0.568300 -0.568700 -0.594500
vn -0.568300 -0.568700 -0.594500
vn -0.568300 -0.568700 -0.594500
vn 0.568400 -0.568600 -0.594600
vn 0.568400 -0.568600 -0.594600
vn 0.568400 -0.568600 -0.594600
vn 0.568400 -0.568600 0.594600
vn 0.568400 -0.568600 0.594600
vn 0.568400 -0.568600 0.594600
vn 0.568400 0.568600 -0.594600
vn 0.568400 0.568600 -0.594600
vn 0.568400 0.568600 -0.594600
vn 0.568400 0.568600 0.594600
vn 0.568400 0.568600 0.594600
vn 0.568400 0.568600 0.594600
vn -0.706900 0.707200 0.000000
vn -0.706900 0.707200 0.000000
vn -0.706900 0.707200 0.000000
vn -0.706900 0.707200 0.000000
vn -0.707000 -0.707200 0.000000
vn -0.707000 -0.707200 0.000000
vn -0.707000 -0.707200 0.000000
vn -0.707000 -0.707200 0.000000
vn 0.707000 -0.707200 0.000000
vn 0.707000 -0.707200 0.000000
vn 0.707000 -0.707200 0.000000
vn 0.707000 -0.707200 0.000000
vn 0.706900 0.707200 0.000000
vn 0.706900 0.707200 0.000000
vn 0.706900 0.707200 0.000000
vn 0.706900 0.707200 0.000000
vn -0.691000 0.000000 0.722800
vn -0.691000 0.000000 0.722800
vn -0.691000 0.000000 0.722800
vn -0.691000 0.000000 0.722800
vn -0.691000 0.000000 -0.722800
vn -0.691000 0.000000 -0.722800
vn -0.691000 0.000000 -0.722800
vn -0.691000 0.000000 -0.722800
vn 0.691000 0.000000 -0.722800
vn 0.691000 0.000000 -0.722800
vn 0.691000 0.000000 -0.722800
vn 0.691000 0.000000 -0.722800
vn 0.691000 0.000000 0.722800
vn 0.691000 0.000000 0.722800
vn 0.691000 0.000000 0.722800
vn 0.691000 0.000000 0.722800
vn 0.000000 -0.691100 -0.722700
vn 0.000000 -0.691100 -0.722700
vn 0.000000 -0.691100 -0.722700
vn 0.000000 -0.691100 -0.722700
vn 0.000000 -0.691100 0.722700
vn 0.000000 -0.691100 0.722700
vn 0.000000 -0.691100 0.722700
vn 0.000000 -0.691100 0.722700
vn 0.000000 0.691100 0.722700
vn 0.000000 0.691100 0.722700
vn 0.000000 0.691100 0.722700
vn 0.000000 0.691100 0.722700
vn 0.000000 0.691100 -0.722700
vn 0.000000 0.691100 -0.722700
vn 0.000000 0.691100 -0.722700
vn 0.000000 0.691100 -0.722700
vt -0.077900 -0.389800
vt 0.427400 -0.389800
vt 0.427400 0.139100
vt -0.077900 0.139100
vt 4.006100 0.621600
vt 4.006100 0.473900
vt 4.004300 0.473900
vt 4.004300 0.621600
vt -3.604500 0.148300
vt -3.604500 -0.380600
vt -4.109700 -0.380600
vt -4.109700 0.148300
vt 1.832900 -0.250500
vt 1.831100 -0.250500
vt 1.831100 0.266600
vt 1.832900 0.266600
vt 1.974400 0.266600
vt 1.974400 -0.250500
vt 1.976200 -0.250500
vt 1.976200 0.266600
vt 3.985800 0.621600
vt 3.984000 0.621600
vt 3.984000 0.473900
vt 3.985800 0.473900
vt 3.985800 0.621600
vt 3.988000 0.621600
vt 3.985800 0.622200
vt 3.985800 0.473900
vt 3.985800 0.473300
vt 3.988000 0.473900
vt 4.006100 0.621600
vt 4.006100 0.622200
vt 4.008300 0.621600
vt 4.006100 0.473900
vt 4.008300 0.473900
vt 4.006100 0.473300
vt 4.004300 0.473900
vt 4.004300 0.473300
vt 4.002100 0.473900
vt 4.004300 0.621600
vt 4.002100 0.621600
vt 4.004300 0.622200
vt 3.984000 0.473900
vt 3.981800 0.473900
vt 3.984000 0.473300
vt 3.984000 0.621600
vt 3.984000 0.622200
vt 3.981800 0.621600
vt 3.985800 0.621600
vt 3.985800 0.473900
vt 3.988000 0.473900
vt 3.988000 0.621600
vt -3.604500 0.148300
vt -4.109700 0.148300
vt -4.109700 0.149000
vt -3.604500 0.149000
vt -0.077900 0.139100
vt 0.427400 0.139100
vt 0.427400 0.139700
vt -0.077900 0.139700
vt 0.427400 -0.389800
vt -0.077900 -0.389800
vt -0.077900 -0.390400
vt 0.427400 -0.390400
vt -3.604500 -0.380600
vt -3.604500 0.148300
vt -3.602400 0.148300
vt -3.602400 -0.380600
vt -4.109700 0.148300
vt -4.109700 -0.380600
vt -4.111800 -0.380600
vt -4.111800 0.148300
vt -0.077900 -0.389800
vt -0.077900 0.139100
vt -0.080000 0.139100
vt -0.080000 -0.389800
vt 1.974400 -0.250500
vt 1.974400 0.266600
vt 1.972200 0.266600
vt 1.972200 -0.250500
vt 1.832900 0.266600
vt 1.831100 0.266600
vt 1.831100 0.267200
vt 1.832900 0.267200
vt 1.974400 0.266600
vt 1.976200 0.266600
vt 1.976200 0.267200
vt 1.974400 0.267200
vt 3.984000 0.621600
vt 3.985800 0.621600
vt 3.985800 0.622200
vt 3.984000 0.622200
vt 1.831100 -0.250500
vt 1.832900 -0.250500
vt 1.832900 -0.251100
vt 1.831100 -0.251100
f 1/1/1 2/2/2 3/3/3
f 1/1/1 3/3/3 4/4/4
f 5/5/5 6/6/6 7/7/7
f 5/5/5 7/7/7 8/8/8
f 9/9/9 10/10/10 11/11/11
f 9/9/9 11/11/11 12/12/12
f 13/13/13 14/14/14 15/15/15
f 13/13/13 15/15/15 16/16/16
f 17/17/17 18/18/18 19/19/19
f 17/17/17 19/19/19 20/20/20
f 21/21/21 22/22/22 23/23/23
f 21/21/21 23/23/23 24/24/24
f 25/25/25 26/26/26 27/27/27
f 28/28/28 29/29/29 30/30/30
f 31/31/31 32/32/32 33/33/33
f 34/34/34 35/35/35 36/36/36
f 37/37/37 38/38/38 39/39/39
f 40/40/40 41/41/41 42/42/42
f 43/43/43 44/44/44 45/45/45
f 46/46/46 47/47/47 48/48/48
f 49/49/49 50/50/50 51/51/51
f 49/49/49 51/51/51 52/52/52
f 53/53/53 54/54/54 55/55/55
f 53/53/53 55/55/55 56/56/56
f 57/57/57 58/58/58 59/59/59
f 57/57/57 59/59/59 60/60/60
f 61/61/61 62/62/62 63/63/63
f 61/61/61 63/63/63 64/64/64
f 65/65/65 66/66/66 67/67/67
f 65/65/65 67/67/67 68/68/68
f 69/69/69 70/70/70 71/71/71
f 69/69/69 71/71/71 72/72/72
f 73/73/73 74/74/74 75/75/75
f 73/73/73 75/75/75 76/76/76
f 77/77/77 78/78/78 79/79/79
f 77/77/77 79/79/79 80/80/80
f 81/81/81 82/82/82 83/83/83
f 81/81/81 83/83/83 84/84/84
f 85/85/85 86/86/86 87/87/87
f 85/85/85 87/87/87 88/88/88
f 89/89/89 90/90/90 91/91/91
f 89/89/89 91/91/91 92/92/92
f 93/93/93 94/94/94 95/95/95
f 93/93/93 95/95/95 96/96/96
