v -1.374923 0.234599 -0.582388
v -1.374260 0.233553 -0.582388
v -1.374106 0.233846 -0.582388
v -1.374591 0.234613 -0.582388
v -1.374120 0.234178 -0.582388
v -1.374297 0.234458 -0.582388
v -1.375156 0.234969 -0.582959
v -1.375635 0.234666 -0.582959
v -1.374505 0.232880 -0.582959
v -1.374026 0.233183 -0.582959
v -1.375071 0.233236 -0.582388
v -1.375555 0.234003 -0.582388
v -1.375542 0.233671 -0.582388
v -1.375364 0.233390 -0.582388
v -1.374739 0.233250 -0.582388
v -1.375401 0.234296 -0.582388
v -1.376336 0.235313 -0.583466
v -1.376336 0.235313 -0.583431
v -1.375440 0.235879 -0.583431
v -1.375440 0.235879 -0.583466
v -1.376829 0.234374 -0.583466
v -1.376829 0.234374 -0.583431
v -1.376336 0.235313 -0.583431
v -1.376786 0.233315 -0.583466
v -1.376786 0.233315 -0.583431
v -1.376829 0.234374 -0.583431
v -1.376219 0.232419 -0.583466
v -1.376219 0.232419 -0.583431
v -1.376786 0.233315 -0.583431
v -1.375280 0.231927 -0.583466
v -1.375280 0.231927 -0.583431
v -1.376219 0.232419 -0.583431
v -1.374221 0.231970 -0.583466
v -1.374221 0.231970 -0.583431
v -1.375280 0.231927 -0.583431
v -1.373325 0.232536 -0.583466
v -1.373325 0.232536 -0.583431
v -1.374221 0.231970 -0.583431
v -1.372833 0.233475 -0.583466
v -1.372833 0.233475 -0.583431
v -1.373325 0.232536 -0.583431
v -1.372876 0.234534 -0.583466
v -1.372876 0.234534 -0.583431
v -1.372833 0.233475 -0.583431
v -1.373442 0.235430 -0.583466
v -1.373442 0.235430 -0.583431
v -1.372876 0.234534 -0.583431
v -1.374381 0.235922 -0.583466
v -1.374381 0.235922 -0.583431
v -1.373442 0.235430 -0.583431
v -1.375440 0.235879 -0.583431
v -1.374381 0.235922 -0.583431
v -1.376336 0.235313 -0.583232
v -1.375440 0.235879 -0.583232
v -1.376336 0.235313 -0.583089
v -1.375440 0.235879 -0.583089
v -1.376829 0.234374 -0.583232
v -1.376336 0.235313 -0.583232
v -1.376829 0.234374 -0.583089
v -1.376336 0.235313 -0.583089
v -1.376786 0.233315 -0.583232
v -1.376829 0.234374 -0.583232
v -1.376786 0.233315 -0.583089
v -1.376829 0.234374 -0.583089
v -1.376219 0.232419 -0.583232
v -1.376786 0.233315 -0.583232
v -1.376219 0.232419 -0.583089
v -1.376786 0.233315 -0.583089
v -1.375280 0.231927 -0.583232
v -1.376219 0.232419 -0.583232
v -1.375280 0.231927 -0.583089
v -1.376219 0.232419 -0.583089
v -1.374221 0.231970 -0.583232
v -1.375280 0.231927 -0.583232
v -1.374221 0.231970 -0.583089
v -1.375280 0.231927 -0.583089
v -1.373325 0.232536 -0.583232
v -1.374221 0.231970 -0.583232
v -1.373325 0.232536 -0.583089
v -1.374221 0.231970 -0.583089
v -1.372833 0.233475 -0.583232
v -1.373325 0.232536 -0.583232
v -1.372833 0.233475 -0.583089
v -1.373325 0.232536 -0.583089
v -1.372876 0.234534 -0.583232
v -1.372833 0.233475 -0.583232
v -1.372876 0.234534 -0.583089
v -1.372833 0.233475 -0.583089
v -1.373442 0.235430 -0.583232
v -1.372876 0.234534 -0.583232
v -1.373442 0.235430 -0.583089
v -1.372876 0.234534 -0.583089
v -1.374381 0.235922 -0.583232
v -1.373442 0.235430 -0.583232
v -1.374381 0.235922 -0.583089
v -1.373442 0.235430 -0.583089
v -1.375440 0.235879 -0.583232
v -1.374381 0.235922 -0.583232
v -1.375440 0.235879 -0.583089
v -1.374381 0.235922 -0.583089
v -1.375420 0.235814 -0.583466
v -1.376285 0.235266 -0.583466
v -1.376761 0.234359 -0.583466
v -1.376720 0.233335 -0.583466
v -1.376172 0.232470 -0.583466
v -1.375265 0.231994 -0.583466
v -1.374242 0.232035 -0.583466
v -1.373376 0.232583 -0.583466
v -1.372900 0.233490 -0.583466
v -1.372942 0.234514 -0.583466
v -1.373489 0.235379 -0.583466
v -1.374396 0.235855 -0.583466
v -1.375080 0.234723 -0.583466
v -1.375445 0.234491 -0.583466
v -1.375056 0.234648 -0.583466
v -1.375388 0.234438 -0.583466
v -1.375647 0.234108 -0.583466
v -1.375570 0.234091 -0.583466
v -1.375629 0.233676 -0.583466
v -1.375554 0.233699 -0.583466
v -1.375398 0.233310 -0.583466
v -1.375344 0.233367 -0.583466
v -1.375014 0.233109 -0.583466
v -1.374997 0.233185 -0.583466
v -1.374582 0.233126 -0.583466
v -1.374605 0.233201 -0.583466
v -1.374216 0.233358 -0.583466
v -1.374274 0.233411 -0.583466
v -1.374015 0.233741 -0.583466
v -1.374091 0.233758 -0.583466
v -1.374032 0.234173 -0.583466
v -1.374107 0.234150 -0.583466
v -1.374264 0.234539 -0.583466
v -1.374317 0.234482 -0.583466
v -1.374647 0.234740 -0.583466
v -1.374664 0.234664 -0.583466
v -1.374664 0.234664 -0.583466
v -1.374664 0.234664 -0.583592
v -1.375056 0.234648 -0.583592
v -1.375056 0.234648 -0.583466
v -1.374664 0.234664 -0.585467
v -1.375056 0.234648 -0.585467
v -1.374317 0.234482 -0.583466
v -1.374317 0.234482 -0.583592
v -1.374317 0.234482 -0.585467
v -1.374107 0.234150 -0.583466
v -1.374107 0.234150 -0.583592
v -1.374107 0.234150 -0.585467
v -1.374091 0.233758 -0.583466
v -1.374091 0.233758 -0.583592
v -1.374091 0.233758 -0.585467
v -1.374274 0.233411 -0.583466
v -1.374274 0.233411 -0.583592
v -1.374274 0.233411 -0.585467
v -1.374605 0.233201 -0.583466
v -1.374605 0.233201 -0.583592
v -1.374605 0.233201 -0.585467
v -1.374997 0.233185 -0.583466
v -1.374997 0.233185 -0.583592
v -1.374997 0.233185 -0.585467
v -1.375344 0.233367 -0.583466
v -1.375344 0.233367 -0.583592
v -1.375344 0.233367 -0.585467
v -1.375554 0.233699 -0.583466
v -1.375554 0.233699 -0.583592
v -1.375554 0.233699 -0.585467
v -1.375570 0.234091 -0.583466
v -1.375570 0.234091 -0.583592
v -1.375570 0.234091 -0.585467
v -1.375388 0.234438 -0.583466
v -1.375388 0.234438 -0.583592
v -1.375388 0.234438 -0.585467
v -1.375056 0.234648 -0.583466
v -1.375056 0.234648 -0.583592
v -1.375056 0.234648 -0.585467
v -1.374505 0.232880 -0.582907
v -1.374505 0.232880 -0.582959
v -1.375635 0.234666 -0.582959
v -1.375635 0.234666 -0.582907
v -1.375156 0.234969 -0.582907
v -1.375156 0.234969 -0.582959
v -1.374026 0.233183 -0.582959
v -1.374026 0.233183 -0.582907
v -1.373605 0.232656 -0.582974
v -1.373642 0.232672 -0.582959
v -1.374208 0.232314 -0.582959
v -1.374209 0.232274 -0.582974
v -1.376063 0.235188 -0.582974
v -1.376028 0.235172 -0.582959
v -1.375445 0.235540 -0.582959
v -1.375445 0.235580 -0.582974
v -1.374505 0.232880 -0.582517
v -1.374505 0.232880 -0.582553
v -1.375635 0.234666 -0.582553
v -1.375635 0.234666 -0.582517
v -1.375156 0.234969 -0.582517
v -1.375156 0.234969 -0.582553
v -1.374026 0.233183 -0.582553
v -1.374026 0.233183 -0.582517
v -1.373325 0.232536 -0.583089
v -1.373352 0.232547 -0.583078
v -1.374220 0.231998 -0.583078
v -1.374221 0.231970 -0.583089
v -1.376336 0.235313 -0.583089
v -1.376310 0.235301 -0.583078
v -1.375441 0.235851 -0.583078
v -1.375440 0.235879 -0.583089
v -1.374505 0.232880 -0.582517
v -1.374705 0.233197 -0.582407
v -1.375071 0.233182 -0.582407
v -1.375071 0.232857 -0.582517
v -1.375394 0.233352 -0.582407
v -1.375572 0.233120 -0.582517
v -1.375590 0.233661 -0.582407
v -1.375875 0.233599 -0.582517
v -1.375605 0.234026 -0.582407
v -1.375898 0.234165 -0.582517
v -1.375435 0.234349 -0.582407
v -1.375635 0.234666 -0.582517
v -1.375435 0.234349 -0.582407
v -1.374705 0.233197 -0.582407
v -1.374233 0.233509 -0.582403
v -1.374950 0.234642 -0.582403
v -1.373763 0.233684 -0.582517
v -1.374066 0.233828 -0.582403
v -1.374233 0.233509 -0.582403
v -1.374026 0.233183 -0.582517
v -1.373786 0.234250 -0.582517
v -1.374081 0.234186 -0.582403
v -1.374089 0.234729 -0.582517
v -1.374273 0.234490 -0.582403
v -1.374591 0.234992 -0.582517
v -1.374591 0.234657 -0.582403
v -1.375156 0.234969 -0.582517
v -1.374950 0.234642 -0.582403
v -1.375440 0.235879 -0.583089
v -1.375424 0.235828 -0.583056
v -1.374393 0.235870 -0.583056
v -1.374381 0.235922 -0.583089
v -1.373479 0.235390 -0.583056
v -1.373442 0.235430 -0.583089
v -1.372927 0.234518 -0.583056
v -1.372876 0.234534 -0.583089
v -1.372886 0.233487 -0.583056
v -1.372833 0.233475 -0.583089
v -1.373365 0.232573 -0.583056
v -1.373325 0.232536 -0.583089
v -1.374221 0.231970 -0.583089
v -1.374237 0.232021 -0.583056
v -1.375268 0.231979 -0.583056
v -1.375280 0.231927 -0.583089
v -1.376182 0.232459 -0.583056
v -1.376219 0.232419 -0.583089
v -1.376734 0.233331 -0.583056
v -1.376786 0.233315 -0.583089
v -1.376776 0.234362 -0.583056
v -1.376829 0.234374 -0.583089
v -1.376296 0.235276 -0.583056
v -1.376336 0.235313 -0.583089
v -1.373664 0.232701 -0.582959
v -1.374225 0.232346 -0.582959
v -1.376005 0.235143 -0.582959
v -1.375429 0.235508 -0.582959
v -1.376005 0.235143 -0.582959
v -1.376039 0.235159 -0.582970
v -1.376028 0.235172 -0.582959
v -1.376063 0.235188 -0.582974
v -1.374208 0.232314 -0.582959
v -1.374225 0.232346 -0.582959
v -1.374226 0.232308 -0.582970
v -1.374209 0.232274 -0.582974
v -1.373664 0.232701 -0.582959
v -1.373629 0.232686 -0.582970
v -1.373642 0.232672 -0.582959
v -1.373605 0.232656 -0.582974
v -1.375445 0.235540 -0.582959
v -1.375429 0.235508 -0.582959
v -1.375429 0.235545 -0.582970
v -1.375445 0.235580 -0.582974
v -1.376272 0.235265 -0.583048
v -1.376296 0.235276 -0.583056
v -1.376310 0.235301 -0.583078
v -1.376336 0.235313 -0.583089
v -1.374220 0.231998 -0.583078
v -1.374236 0.232048 -0.583048
v -1.374237 0.232021 -0.583056
v -1.374221 0.231970 -0.583089
v -1.373390 0.232583 -0.583048
v -1.373365 0.232573 -0.583056
v -1.373352 0.232547 -0.583078
v -1.373325 0.232536 -0.583089
v -1.375441 0.235851 -0.583078
v -1.375425 0.235801 -0.583048
v -1.375424 0.235828 -0.583056
v -1.375440 0.235879 -0.583089
v -1.459117 0.233545 -0.582970
v -1.458510 0.233739 -0.582907
v -1.458510 0.233739 -0.582553
v -1.459370 0.233583 -0.583048
v -1.459153 0.233534 -0.582974
v -1.459422 0.233574 -0.583078
v -1.458510 0.233739 -0.582517
v -1.459397 0.233587 -0.583056
v -1.459450 0.233578 -0.583089
v -1.456046 0.234952 -0.582970
v -1.456013 0.234972 -0.582974
v -1.455872 0.235209 -0.583078
v -1.455913 0.235176 -0.583048
v -1.456591 0.234624 -0.582907
v -1.456591 0.234624 -0.582553
v -1.455857 0.235234 -0.583089
v -1.455899 0.235199 -0.583056
v -1.456591 0.234624 -0.582517
v -1.455750 0.234311 -0.582970
v -1.456353 0.234110 -0.582907
v -1.456353 0.234110 -0.582553
v -1.455493 0.234267 -0.583048
v -1.455714 0.234323 -0.582974
v -1.455442 0.234276 -0.583078
v -1.456353 0.234110 -0.582517
v -1.455467 0.234262 -0.583056
v -1.455413 0.234271 -0.583089
v -1.458814 0.232889 -0.582970
v -1.458847 0.232869 -0.582974
v -1.458991 0.232639 -0.583078
v -1.458950 0.232672 -0.583048
v -1.458273 0.233225 -0.582907
v -1.458273 0.233225 -0.582553
v -1.459006 0.232615 -0.583089
v -1.458965 0.232650 -0.583056
v -1.458273 0.233225 -0.582517
v -1.459080 0.233540 -0.582959
v -1.458510 0.233739 -0.582959
v -1.459114 0.233528 -0.582959
v -1.456065 0.234920 -0.582959
v -1.456033 0.234938 -0.582959
v -1.456591 0.234624 -0.582959
v -1.455787 0.234317 -0.582959
v -1.456353 0.234110 -0.582959
v -1.455753 0.234330 -0.582959
v -1.458795 0.232921 -0.582959
v -1.458826 0.232902 -0.582959
v -1.458273 0.233225 -0.582959
v -1.458795 0.232921 -0.582959
v -1.458273 0.233225 -0.582959
v -1.458510 0.233739 -0.582959
v -1.459080 0.233540 -0.582959
v -1.458826 0.232902 -0.582959
v -1.459114 0.233528 -0.582959
v -1.456065 0.234920 -0.582959
v -1.456591 0.234624 -0.582959
v -1.456353 0.234110 -0.582959
v -1.455787 0.234317 -0.582959
v -1.456033 0.234938 -0.582959
v -1.455753 0.234330 -0.582959
v -1.458122 0.232054 -0.583056
v -1.457810 0.232898 -0.582517
v -1.458273 0.233225 -0.582517
v -1.458965 0.232650 -0.583056
v -1.458140 0.232003 -0.583089
v -1.459006 0.232615 -0.583089
v -1.457094 0.231960 -0.583056
v -1.457246 0.232846 -0.582517
v -1.457085 0.231906 -0.583089
v -1.456157 0.232392 -0.583056
v -1.456732 0.233083 -0.582517
v -1.456122 0.232350 -0.583089
v -1.455561 0.233234 -0.583056
v -1.456405 0.233546 -0.582517
v -1.455510 0.233216 -0.583089
v -1.455467 0.234262 -0.583056
v -1.456353 0.234110 -0.582517
v -1.455413 0.234271 -0.583089
v -1.456742 0.235795 -0.583056
v -1.457053 0.234951 -0.582517
v -1.456591 0.234624 -0.582517
v -1.455899 0.235199 -0.583056
v -1.456723 0.235846 -0.583089
v -1.455857 0.235234 -0.583089
v -1.457769 0.235889 -0.583056
v -1.457617 0.235003 -0.582517
v -1.457779 0.235943 -0.583089
v -1.458707 0.235457 -0.583056
v -1.458131 0.234766 -0.582517
v -1.458741 0.235499 -0.583089
v -1.459302 0.234615 -0.583056
v -1.458458 0.234303 -0.582517
v -1.459353 0.234633 -0.583089
v -1.459397 0.233587 -0.583056
v -1.458510 0.233739 -0.582517
v -1.459450 0.233578 -0.583089
v -1.458159 0.233901 -0.582403
v -1.458113 0.233922 -0.582388
v -1.458082 0.234253 -0.582388
v -1.458126 0.234259 -0.582403
v -1.457891 0.234524 -0.582388
v -1.457919 0.234552 -0.582403
v -1.457589 0.234663 -0.582388
v -1.457593 0.234702 -0.582403
v -1.457259 0.234632 -0.582388
v -1.457235 0.234670 -0.582403
v -1.456988 0.234441 -0.582388
v -1.456942 0.234462 -0.582403
v -1.456942 0.234462 -0.582403
v -1.458159 0.233901 -0.582403
v -1.457932 0.233382 -0.582407
v -1.457875 0.233408 -0.582388
v -1.456751 0.233927 -0.582388
v -1.456694 0.233953 -0.582407
v -1.457634 0.233171 -0.582407
v -1.457604 0.233216 -0.582388
v -1.457932 0.233382 -0.582407
v -1.457270 0.233137 -0.582407
v -1.457274 0.233186 -0.582388
v -1.456938 0.233290 -0.582407
v -1.456973 0.233325 -0.582388
v -1.456727 0.233589 -0.582407
v -1.456781 0.233596 -0.582388
v -1.456694 0.233953 -0.582407
v -1.458991 0.232639 -0.583078
v -1.458847 0.232869 -0.582974
v -1.459153 0.233534 -0.582974
v -1.459422 0.233574 -0.583078
v -1.459006 0.232615 -0.583089
v -1.459450 0.233578 -0.583089
v -1.455872 0.235209 -0.583078
v -1.456013 0.234972 -0.582974
v -1.455714 0.234323 -0.582974
v -1.455442 0.234276 -0.583078
v -1.455857 0.235234 -0.583089
v -1.455413 0.234271 -0.583089
v -1.458179 0.233796 -0.583592
v -1.458179 0.233796 -0.585467
v -1.458014 0.233440 -0.585467
v -1.458014 0.233440 -0.583592
v -1.458179 0.233796 -0.583466
v -1.458014 0.233440 -0.583466
v -1.457694 0.233214 -0.585467
v -1.457694 0.233214 -0.583592
v -1.457694 0.233214 -0.583466
v -1.457303 0.233178 -0.585467
v -1.457303 0.233178 -0.583592
v -1.457303 0.233178 -0.583466
v -1.456947 0.233342 -0.585467
v -1.456947 0.233342 -0.583592
v -1.456947 0.233342 -0.583466
v -1.456721 0.233662 -0.585467
v -1.456721 0.233662 -0.583592
v -1.456721 0.233662 -0.583466
v -1.456685 0.234053 -0.585467
v -1.456685 0.234053 -0.583592
v -1.456685 0.234053 -0.583466
v -1.456849 0.234409 -0.585467
v -1.456849 0.234409 -0.583592
v -1.456849 0.234409 -0.583466
v -1.457169 0.234635 -0.585467
v -1.457169 0.234635 -0.583592
v -1.457169 0.234635 -0.583466
v -1.457560 0.234671 -0.585467
v -1.457560 0.234671 -0.583592
v -1.457560 0.234671 -0.583466
v -1.457916 0.234507 -0.585467
v -1.457916 0.234507 -0.583592
v -1.457916 0.234507 -0.583466
v -1.458143 0.234187 -0.585467
v -1.458143 0.234187 -0.583592
v -1.458143 0.234187 -0.583466
v -1.458179 0.233796 -0.585467
v -1.458179 0.233796 -0.583592
v -1.458179 0.233796 -0.583466
v -1.458216 0.234214 -0.583466
v -1.458143 0.234187 -0.583466
v -1.458179 0.233796 -0.583466
v -1.458256 0.233783 -0.583466
v -1.459288 0.234609 -0.583466
v -1.459382 0.233589 -0.583466
v -1.457966 0.234568 -0.583466
v -1.457916 0.234507 -0.583466
v -1.458697 0.235446 -0.583466
v -1.457573 0.234749 -0.583466
v -1.457560 0.234671 -0.583466
v -1.457767 0.235875 -0.583466
v -1.457142 0.234709 -0.583466
v -1.457169 0.234635 -0.583466
v -1.456747 0.235781 -0.583466
v -1.456789 0.234459 -0.583466
v -1.456849 0.234409 -0.583466
v -1.455910 0.235190 -0.583466
v -1.456607 0.234066 -0.583466
v -1.456685 0.234053 -0.583466
v -1.455481 0.234260 -0.583466
v -1.456647 0.233635 -0.583466
v -1.456721 0.233662 -0.583466
v -1.455575 0.233240 -0.583466
v -1.456897 0.233282 -0.583466
v -1.456947 0.233342 -0.583466
v -1.456166 0.232403 -0.583466
v -1.457290 0.233100 -0.583466
v -1.457303 0.233178 -0.583466
v -1.457096 0.231974 -0.583466
v -1.457721 0.233140 -0.583466
v -1.457694 0.233214 -0.583466
v -1.458117 0.232068 -0.583466
v -1.458075 0.233390 -0.583466
v -1.458014 0.233440 -0.583466
v -1.458953 0.232659 -0.583466
v -1.459353 0.234633 -0.583466
v -1.459450 0.233578 -0.583466
v -1.458741 0.235499 -0.583466
v -1.457779 0.235943 -0.583466
v -1.456723 0.235846 -0.583466
v -1.455857 0.235234 -0.583466
v -1.455413 0.234271 -0.583466
v -1.455510 0.233216 -0.583466
v -1.456122 0.232350 -0.583466
v -1.457085 0.231906 -0.583466
v -1.458140 0.232003 -0.583466
v -1.459006 0.232615 -0.583466
v -1.459450 0.233578 -0.583232
v -1.459450 0.233578 -0.583089
v -1.459353 0.234633 -0.583089
v -1.459353 0.234633 -0.583232
v -1.459450 0.233578 -0.583431
v -1.459353 0.234633 -0.583431
v -1.459353 0.234633 -0.583232
v -1.459353 0.234633 -0.583089
v -1.458741 0.235499 -0.583089
v -1.458741 0.235499 -0.583232
v -1.459353 0.234633 -0.583431
v -1.458741 0.235499 -0.583431
v -1.458741 0.235499 -0.583232
v -1.458741 0.235499 -0.583089
v -1.457779 0.235943 -0.583089
v -1.457779 0.235943 -0.583232
v -1.458741 0.235499 -0.583431
v -1.457779 0.235943 -0.583431
v -1.457779 0.235943 -0.583232
v -1.457779 0.235943 -0.583089
v -1.456723 0.235846 -0.583089
v -1.456723 0.235846 -0.583232
v -1.457779 0.235943 -0.583431
v -1.456723 0.235846 -0.583431
v -1.456723 0.235846 -0.583232
v -1.456723 0.235846 -0.583089
v -1.455857 0.235234 -0.583089
v -1.455857 0.235234 -0.583232
v -1.456723 0.235846 -0.583431
v -1.455857 0.235234 -0.583431
v -1.455857 0.235234 -0.583232
v -1.455857 0.235234 -0.583089
v -1.455413 0.234271 -0.583089
v -1.455413 0.234271 -0.583232
v -1.455857 0.235234 -0.583431
v -1.455413 0.234271 -0.583431
v -1.455413 0.234271 -0.583232
v -1.455413 0.234271 -0.583089
v -1.455510 0.233216 -0.583089
v -1.455510 0.233216 -0.583232
v -1.455413 0.234271 -0.583431
v -1.455510 0.233216 -0.583431
v -1.455510 0.233216 -0.583232
v -1.455510 0.233216 -0.583089
v -1.456122 0.232350 -0.583089
v -1.456122 0.232350 -0.583232
v -1.455510 0.233216 -0.583431
v -1.456122 0.232350 -0.583431
v -1.456122 0.232350 -0.583232
v -1.456122 0.232350 -0.583089
v -1.457085 0.231906 -0.583089
v -1.457085 0.231906 -0.583232
v -1.456122 0.232350 -0.583431
v -1.457085 0.231906 -0.583431
v -1.457085 0.231906 -0.583232
v -1.457085 0.231906 -0.583089
v -1.458140 0.232003 -0.583089
v -1.458140 0.232003 -0.583232
v -1.457085 0.231906 -0.583431
v -1.458140 0.232003 -0.583431
v -1.458140 0.232003 -0.583232
v -1.458140 0.232003 -0.583089
v -1.459006 0.232615 -0.583089
v -1.459006 0.232615 -0.583232
v -1.458140 0.232003 -0.583431
v -1.459006 0.232615 -0.583431
v -1.459006 0.232615 -0.583232
v -1.459006 0.232615 -0.583089
v -1.459450 0.233578 -0.583089
v -1.459450 0.233578 -0.583232
v -1.459006 0.232615 -0.583431
v -1.459450 0.233578 -0.583431
vn -0.613100 -0.217600 0.759400
vn -0.458000 -0.462300 0.759200
vn 0.191600 -0.034300 0.980900
vn 0.051100 0.188000 0.980800
vn 0.197700 0.065700 0.978000
vn 0.144000 0.150900 0.978000
vn -0.543900 -0.298200 0.784400
vn 0.501600 0.363800 0.784800
vn 0.537600 0.298800 0.788400
vn -0.500300 -0.357500 0.788600
vn -0.051400 -0.188000 0.980800
vn -0.191600 0.034200 0.980900
vn -0.197900 -0.065600 0.978000
vn -0.144100 -0.150900 0.978000
vn 0.615600 0.218200 0.757200
vn 0.460500 0.463500 0.757000
vn -0.556800 0.513100 -0.653200
vn -0.735300 0.677800 0.000000
vn -0.297700 0.954600 0.000000
vn -0.225500 0.722800 -0.653200
vn -0.738800 0.166000 -0.653200
vn -0.975600 0.219400 0.000000
vn -0.735300 0.677800 0.000000
vn -0.722900 -0.225300 -0.653200
vn -0.954700 -0.297600 0.000000
vn -0.975600 0.219400 0.000000
vn -0.513200 -0.556600 -0.653300
vn -0.677900 -0.735100 0.000000
vn -0.954700 -0.297600 0.000000
vn -0.166100 -0.738700 -0.653200
vn -0.219500 -0.975600 0.000000
vn -0.677900 -0.735100 0.000000
vn 0.225400 -0.722800 -0.653200
vn 0.297700 -0.954600 0.000000
vn -0.219500 -0.975600 0.000000
vn 0.556400 -0.513400 -0.653300
vn 0.735100 -0.677900 0.000000
vn 0.297700 -0.954600 0.000000
vn 0.738600 -0.166300 -0.653200
vn 0.975600 -0.219600 0.000000
vn 0.735100 -0.677900 0.000000
vn 0.722900 0.225300 -0.653200
vn 0.954700 0.297600 0.000000
vn 0.975600 -0.219600 0.000000
vn 0.513200 0.556600 -0.653300
vn 0.677900 0.735100 0.000000
vn 0.954700 0.297600 0.000000
vn 0.166100 0.738700 -0.653200
vn 0.219500 0.975600 0.000000
vn 0.677900 0.735100 0.000000
vn -0.297700 0.954600 0.000000
vn 0.219500 0.975600 0.000000
vn -0.735100 0.677900 0.000000
vn -0.297700 0.954600 0.000000
vn -0.632100 0.609100 0.478900
vn -0.279700 0.832100 0.478800
vn -0.975600 0.219500 0.000000
vn -0.735100 0.677900 0.000000
vn -0.865900 0.194800 0.460700
vn -0.632100 0.609100 0.478900
vn -0.954600 -0.297600 0.000000
vn -0.975600 0.219500 0.000000
vn -0.847300 -0.264100 0.460700
vn -0.865900 0.194800 0.460700
vn -0.677900 -0.735100 0.000000
vn -0.954600 -0.297600 0.000000
vn -0.601700 -0.652300 0.460800
vn -0.847300 -0.264100 0.460700
vn -0.219500 -0.975600 0.000000
vn -0.677900 -0.735100 0.000000
vn -0.194900 -0.865800 0.460800
vn -0.601700 -0.652300 0.460800
vn 0.297700 -0.954600 0.000000
vn -0.219500 -0.975600 0.000000
vn 0.279700 -0.832600 0.478000
vn -0.194900 -0.865800 0.460800
vn 0.735100 -0.677900 0.000000
vn 0.297700 -0.954600 0.000000
vn 0.632500 -0.609200 0.478300
vn 0.279700 -0.832600 0.478000
vn 0.975600 -0.219600 0.000000
vn 0.735100 -0.677900 0.000000
vn 0.865800 -0.194900 0.460800
vn 0.632500 -0.609200 0.478300
vn 0.954600 0.297700 0.000000
vn 0.975600 -0.219600 0.000000
vn 0.847200 0.264100 0.460900
vn 0.865800 -0.194900 0.460800
vn 0.677900 0.735200 0.000000
vn 0.954600 0.297700 0.000000
vn 0.601600 0.652400 0.460900
vn 0.847200 0.264100 0.460900
vn 0.219500 0.975600 0.000000
vn 0.677900 0.735200 0.000000
vn 0.194700 0.865800 0.460800
vn 0.601600 0.652400 0.460900
vn -0.297700 0.954600 0.000000
vn 0.219500 0.975600 0.000000
vn -0.279700 0.832100 0.478800
vn 0.194700 0.865800 0.460800
vn -0.000000 0.000000 -1.000000
vn -0.000000 0.000000 -1.000000
vn -0.000100 0.000000 -1.000000
vn -0.000000 0.000000 -1.000000
vn 0.000200 0.000000 -1.000000
vn -0.000000 0.000000 -1.000000
vn -0.000100 0.000000 -1.000000
vn -0.000200 0.000000 -1.000000
vn -0.000000 0.000000 -1.000000
vn -0.000000 0.000000 -1.000000
vn -0.000200 0.000000 -1.000000
vn -0.000100 0.000000 -1.000000
vn -0.000000 0.000000 -1.000000
vn -0.000000 0.000000 -1.000000
vn -0.189900 0.608800 -0.770200
vn -0.468900 0.432300 -0.770200
vn -0.000000 0.000000 -1.000000
vn -0.622200 0.140000 -0.770200
vn -0.000000 0.000000 -1.000000
vn -0.608800 -0.189900 -0.770300
vn -0.000000 0.000000 -1.000000
vn -0.432300 -0.468900 -0.770200
vn -0.000000 0.000000 -1.000000
vn -0.140000 -0.622200 -0.770300
vn -0.000000 0.000000 -1.000000
vn 0.189900 -0.608800 -0.770300
vn -0.000000 0.000000 -1.000000
vn 0.468900 -0.432400 -0.770200
vn 0.000100 0.000000 -1.000000
vn 0.622200 -0.140100 -0.770200
vn 0.000100 0.000000 -1.000000
vn 0.608800 0.189900 -0.770200
vn -0.000000 0.000000 -1.000000
vn 0.432200 0.468900 -0.770300
vn -0.000000 0.000000 -1.000000
vn 0.140000 0.622200 -0.770300
vn 0.140000 0.622200 -0.770300
vn 0.219600 0.975600 0.000000
vn -0.297700 0.954600 0.000000
vn -0.189900 0.608800 -0.770200
vn 0.219600 0.975600 0.000000
vn -0.297600 0.954600 0.000000
vn 0.432200 0.468900 -0.770300
vn 0.677900 0.735100 0.000000
vn 0.677900 0.735100 0.000000
vn 0.608800 0.189900 -0.770200
vn 0.954600 0.297700 0.000000
vn 0.954600 0.297700 0.000000
vn 0.622200 -0.140100 -0.770200
vn 0.975600 -0.219600 0.000000
vn 0.975600 -0.219600 0.000000
vn 0.468900 -0.432400 -0.770200
vn 0.735100 -0.677900 0.000000
vn 0.735100 -0.677900 0.000000
vn 0.189900 -0.608800 -0.770300
vn 0.297800 -0.954600 0.000000
vn 0.297700 -0.954600 0.000000
vn -0.140000 -0.622200 -0.770300
vn -0.219500 -0.975600 0.000000
vn -0.219500 -0.975600 0.000000
vn -0.432300 -0.468900 -0.770200
vn -0.677800 -0.735200 0.000000
vn -0.677900 -0.735200 0.000000
vn -0.608800 -0.189900 -0.770300
vn -0.954600 -0.297800 0.000000
vn -0.954600 -0.297700 0.000000
vn -0.622200 0.140000 -0.770200
vn -0.975600 0.219600 0.000000
vn -0.975600 0.219500 0.000000
vn -0.468900 0.432300 -0.770200
vn -0.735100 0.677900 0.000000
vn -0.735100 0.678000 0.000000
vn -0.189900 0.608800 -0.770200
vn -0.297700 0.954600 0.000000
vn -0.297600 0.954600 0.000000
vn 0.883100 0.437100 0.170300
vn 0.537600 0.298800 0.788400
vn 0.501600 0.363800 0.784800
vn 0.773400 0.613800 0.158100
vn -0.885900 -0.436300 0.157500
vn -0.543900 -0.298200 0.784400
vn -0.500300 -0.357500 0.788600
vn -0.773400 -0.610500 0.170500
vn 0.252300 -0.260100 0.932000
vn 0.272600 -0.005200 0.962100
vn -0.110500 -0.247900 0.962400
vn 0.127100 -0.338600 0.932300
vn -0.254400 0.258700 0.931800
vn -0.285200 -0.009300 0.958400
vn 0.131000 0.251600 0.958900
vn -0.124900 0.341200 0.931600
vn 0.688300 -0.028700 0.724800
vn 0.918100 0.378700 0.116600
vn 0.738200 0.665900 0.107200
vn 0.272000 0.635700 0.722400
vn -0.690800 0.026000 0.722500
vn -0.917800 -0.382200 0.107300
vn -0.735100 -0.667800 0.116400
vn -0.268500 -0.634700 0.724600
vn 0.632500 -0.609200 0.478300
vn 0.128500 -0.488200 0.863200
vn 0.387100 -0.327400 0.861900
vn 0.279700 -0.832600 0.478000
vn -0.632100 0.609100 0.478900
vn -0.117300 0.496500 0.860000
vn -0.399900 0.319500 0.859000
vn -0.279700 0.832100 0.478800
vn 0.688300 -0.028700 0.724800
vn 0.662100 0.165200 0.730900
vn -0.076700 -0.319500 0.944500
vn -0.091900 -0.426500 0.899800
vn -0.241200 -0.258500 0.935400
vn -0.302000 -0.329900 0.894400
vn -0.336800 -0.107100 0.935400
vn -0.427500 -0.131500 0.894300
vn -0.321400 0.067500 0.944500
vn -0.424800 0.099600 0.899800
vn 0.432900 0.527400 0.731100
vn 0.272000 0.635700 0.722400
vn 0.432900 0.527400 0.731100
vn 0.662100 0.165200 0.730900
vn -0.433000 -0.527800 0.730600
vn -0.662200 -0.165500 0.730800
vn 0.424700 -0.099600 0.899800
vn 0.321400 -0.067600 0.944500
vn -0.433000 -0.527800 0.730600
vn -0.268500 -0.634700 0.724600
vn 0.427400 0.131600 0.894400
vn 0.336600 0.107200 0.935500
vn 0.302000 0.329900 0.894400
vn 0.240900 0.258600 0.935500
vn 0.091900 0.426500 0.899800
vn 0.076700 0.319500 0.944500
vn -0.690800 0.026000 0.722500
vn -0.662200 -0.165500 0.730800
vn -0.279700 0.832100 0.478800
vn -0.368500 0.404200 0.837100
vn 0.112900 0.501800 0.857600
vn 0.194700 0.865800 0.460800
vn 0.348600 0.378000 0.857600
vn 0.601600 0.652400 0.460900
vn 0.491000 0.153100 0.857600
vn 0.847200 0.264100 0.460900
vn 0.501800 -0.112900 0.857500
vn 0.865800 -0.194900 0.460800
vn 0.216600 -0.497400 0.840000
vn 0.632500 -0.609200 0.478300
vn 0.279700 -0.832600 0.478000
vn 0.357700 -0.410900 0.838600
vn -0.112900 -0.501800 0.857600
vn -0.194900 -0.865800 0.460800
vn -0.348700 -0.378100 0.857600
vn -0.601700 -0.652300 0.460800
vn -0.491200 -0.153100 0.857500
vn -0.847300 -0.264100 0.460700
vn -0.501900 0.112900 0.857500
vn -0.865900 0.194800 0.460700
vn -0.207000 0.504800 0.838000
vn -0.632100 0.609100 0.478900
vn -0.305500 -0.256100 0.917100
vn 0.362800 0.165800 0.917000
vn 0.314300 0.270400 0.910000
vn -0.379500 -0.169900 0.909500
vn 0.314300 0.270400 0.910000
vn 0.176900 0.392100 0.902700
vn -0.285200 -0.009300 0.958400
vn -0.254400 0.258700 0.931800
vn -0.110500 -0.247900 0.962400
vn 0.362800 0.165800 0.917000
vn 0.435900 -0.003800 0.900000
vn 0.127100 -0.338600 0.932300
vn -0.305500 -0.256100 0.917100
vn -0.182000 -0.394400 0.900700
vn 0.272600 -0.005200 0.962100
vn 0.252300 -0.260100 0.932000
vn 0.131000 0.251600 0.958900
vn -0.379500 -0.169900 0.909500
vn -0.428400 0.005500 0.903600
vn -0.124900 0.341200 0.931600
vn 0.238400 0.676700 0.696500
vn -0.207000 0.504800 0.838000
vn -0.117300 0.496500 0.860000
vn -0.632100 0.609100 0.478900
vn 0.387100 -0.327400 0.861900
vn 0.708500 -0.079100 0.701200
vn 0.357700 -0.410900 0.838600
vn 0.279700 -0.832600 0.478000
vn -0.231200 -0.674900 0.700800
vn 0.216600 -0.497400 0.840000
vn 0.128500 -0.488200 0.863200
vn 0.632500 -0.609200 0.478300
vn -0.399900 0.319500 0.859000
vn -0.714000 0.074800 0.696100
vn -0.368500 0.404200 0.837100
vn -0.279700 0.832100 0.478800
vn -0.063100 -0.426500 0.902200
vn 0.316000 -0.935500 0.158000
vn 0.257100 -0.960400 0.107100
vn -0.168800 -0.697700 0.696200
vn -0.354000 -0.079300 0.931900
vn -0.369400 -0.352900 0.859600
vn -0.117600 -0.681400 0.722400
vn -0.449100 -0.310600 0.837700
vn -0.861800 -0.167700 0.478700
vn 0.365800 -0.233700 0.900800
vn 0.290800 0.214900 0.932300
vn 0.500800 0.063200 0.863200
vn 0.637600 -0.319900 0.700800
vn 0.503300 -0.847100 0.170800
vn 0.564600 -0.817100 0.116200
vn 0.687500 0.546600 0.478100
vn 0.521400 0.149000 0.840200
vn 0.593400 -0.350300 0.724600
vn 0.060300 0.432300 0.899700
vn -0.317100 0.932800 0.170900
vn -0.253800 0.960100 0.116800
vn 0.172700 0.692300 0.700700
vn 0.352700 0.082600 0.932100
vn 0.373600 0.338400 0.863600
vn 0.119700 0.678400 0.724800
vn 0.451800 0.298300 0.840700
vn 0.862000 0.167400 0.478500
vn -0.364300 0.228600 0.902700
vn -0.289500 -0.218400 0.931900
vn -0.508100 -0.057100 0.859300
vn -0.639400 0.324300 0.697100
vn -0.506300 0.847600 0.158500
vn -0.562900 0.819500 0.107300
vn -0.687000 -0.547000 0.478400
vn -0.527600 -0.145100 0.837000
vn -0.594100 0.353400 0.722600
vn 0.117900 -0.397700 0.909900
vn 0.224000 -0.577900 0.784700
vn -0.233600 0.161100 0.958900
vn 0.212800 -0.336300 0.917400
vn 0.040700 0.268700 0.962300
vn 0.288300 -0.542800 0.788800
vn -0.116900 0.381100 0.917100
vn -0.225300 0.571800 0.788900
vn 0.231000 -0.141200 0.962600
vn -0.225100 0.346900 0.910500
vn -0.028000 -0.282800 0.958800
vn -0.293900 0.545200 0.785100
vn -0.225100 0.346900 0.910500
vn -0.293900 0.545200 0.785100
vn 0.224000 -0.577900 0.784700
vn 0.117900 -0.397700 0.909900
vn -0.028000 -0.282800 0.958800
vn -0.233600 0.161100 0.958900
vn 0.212800 -0.336300 0.917400
vn 0.288300 -0.542800 0.788800
vn -0.225300 0.571800 0.788900
vn -0.116900 0.381100 0.917100
vn 0.040700 0.268700 0.962300
vn 0.231000 -0.141200 0.962600
vn -0.178000 -0.482600 0.857500
vn -0.154600 -0.407900 0.899800
vn -0.594100 0.353400 0.722600
vn -0.527600 -0.145100 0.837000
vn -0.307200 -0.832600 0.460800
vn -0.687000 -0.547000 0.478400
vn 0.087100 -0.506900 0.857500
vn 0.074100 -0.441100 0.894400
vn 0.150300 -0.874700 0.460800
vn 0.328700 -0.395400 0.857600
vn 0.287300 -0.342800 0.894400
vn 0.567400 -0.682300 0.461000
vn 0.482200 -0.178000 0.857800
vn 0.410700 -0.147300 0.899800
vn 0.832500 -0.307100 0.461100
vn 0.451800 0.298300 0.840700
vn 0.119700 0.678400 0.724800
vn 0.862000 0.167400 0.478500
vn 0.178000 0.482600 0.857500
vn 0.154700 0.407900 0.899800
vn 0.593400 -0.350300 0.724600
vn 0.521400 0.149000 0.840200
vn 0.307100 0.832700 0.460800
vn 0.687500 0.546600 0.478100
vn -0.087100 0.506900 0.857500
vn -0.074100 0.441100 0.894400
vn -0.150400 0.874700 0.460800
vn -0.328900 0.395400 0.857600
vn -0.287300 0.342800 0.894400
vn -0.567500 0.682300 0.460800
vn -0.482500 0.178000 0.857600
vn -0.410600 0.147300 0.899800
vn -0.832600 0.307100 0.460800
vn -0.449100 -0.310600 0.837700
vn -0.117600 -0.681400 0.722400
vn -0.861800 -0.167700 0.478700
vn 0.076800 -0.678100 0.730900
vn 0.134800 -0.637600 0.758400
vn -0.179400 0.075400 0.980900
vn -0.306500 0.118000 0.944500
vn -0.130500 0.162800 0.978000
vn -0.224500 0.273000 0.935500
vn -0.039000 0.205000 0.978000
vn -0.061800 0.348100 0.935400
vn 0.059200 0.185600 0.980800
vn 0.109300 0.309900 0.944500
vn 0.398100 -0.516300 0.758300
vn 0.466000 -0.498600 0.730900
vn 0.466000 -0.498600 0.730900
vn 0.076800 -0.678100 0.730900
vn -0.466000 0.498700 0.730800
vn -0.397600 0.516800 0.758200
vn -0.134200 0.638200 0.758100
vn -0.076700 0.678200 0.730800
vn -0.109300 -0.309800 0.944500
vn -0.059100 -0.185600 0.980800
vn -0.466000 0.498700 0.730800
vn 0.061900 -0.348100 0.935400
vn 0.039100 -0.205000 0.978000
vn 0.224700 -0.273100 0.935400
vn 0.130800 -0.162800 0.977900
vn 0.306700 -0.118100 0.944400
vn 0.179800 -0.075500 0.980800
vn -0.076700 0.678200 0.730800
vn -0.508100 -0.057100 0.859300
vn -0.289500 -0.218400 0.931900
vn -0.354000 -0.079300 0.931900
vn -0.369400 -0.352900 0.859600
vn -0.687000 -0.547000 0.478400
vn -0.861800 -0.167700 0.478700
vn 0.500800 0.063200 0.863200
vn 0.290800 0.214900 0.932300
vn 0.352700 0.082600 0.932100
vn 0.373600 0.338400 0.863600
vn 0.687500 0.546600 0.478100
vn 0.862000 0.167400 0.478500
vn -0.985500 -0.169300 0.000000
vn -0.985500 -0.169400 0.000000
vn -0.768800 -0.639500 0.000000
vn -0.768800 -0.639400 0.000000
vn -0.628600 -0.108000 -0.770200
vn -0.490500 -0.407700 -0.770200
vn -0.346100 -0.938200 0.000000
vn -0.346100 -0.938200 0.000000
vn -0.220700 -0.598300 -0.770300
vn 0.169400 -0.985500 0.000000
vn 0.169400 -0.985500 0.000000
vn 0.108100 -0.628500 -0.770300
vn 0.639500 -0.768800 0.000000
vn 0.639500 -0.768800 0.000000
vn 0.407700 -0.490300 -0.770300
vn 0.938200 -0.346000 0.000000
vn 0.938200 -0.346000 0.000000
vn 0.598300 -0.220700 -0.770200
vn 0.985500 0.169400 0.000000
vn 0.985500 0.169400 0.000000
vn 0.628600 0.108000 -0.770200
vn 0.768800 0.639500 0.000000
vn 0.768800 0.639500 0.000000
vn 0.490200 0.407800 -0.770300
vn 0.346100 0.938200 0.000000
vn 0.346100 0.938200 0.000000
vn 0.220700 0.598300 -0.770300
vn -0.169400 0.985500 0.000000
vn -0.169400 0.985500 0.000000
vn -0.107900 0.628500 -0.770300
vn -0.639400 0.768800 0.000000
vn -0.639400 0.768800 0.000000
vn -0.407800 0.490300 -0.770200
vn -0.938100 0.346200 0.000000
vn -0.938200 0.346100 0.000000
vn -0.598300 0.220700 -0.770200
vn -0.985500 -0.169400 0.000000
vn -0.985500 -0.169300 0.000000
vn -0.628600 -0.108000 -0.770200
vn -0.000000 0.000000 -1.000000
vn -0.598300 0.220700 -0.770200
vn -0.628600 -0.108000 -0.770200
vn -0.000000 0.000000 -1.000000
vn -0.000000 0.000000 -1.000000
vn -0.000200 0.000000 -1.000000
vn -0.000000 0.000000 -1.000000
vn -0.407800 0.490300 -0.770200
vn 0.000200 0.000000 -1.000000
vn -0.000000 0.000000 -1.000000
vn -0.107900 0.628500 -0.770300
vn 0.000100 0.000000 -1.000000
vn -0.000000 0.000000 -1.000000
vn 0.220700 0.598300 -0.770300
vn -0.000000 0.000000 -1.000000
vn -0.000000 0.000000 -1.000000
vn 0.490200 0.407800 -0.770300
vn -0.000000 0.000000 -1.000000
vn -0.000000 0.000000 -1.000000
vn 0.628600 0.108000 -0.770200
vn 0.000100 0.000000 -1.000000
vn -0.000000 0.000000 -1.000000
vn 0.598300 -0.220700 -0.770200
vn 0.000100 0.000000 -1.000000
vn -0.000100 0.000000 -1.000000
vn 0.407700 -0.490300 -0.770300
vn -0.000000 0.000000 -1.000000
vn -0.000000 0.000000 -1.000000
vn 0.108100 -0.628500 -0.770300
vn -0.000100 0.000000 -1.000000
vn -0.000000 0.000000 -1.000000
vn -0.220700 -0.598300 -0.770300
vn 0.000100 0.000000 -1.000000
vn -0.000100 0.000000 -1.000000
vn -0.490500 -0.407700 -0.770200
vn -0.000000 0.000000 -1.000000
vn -0.710400 0.262000 -0.653200
vn -0.746300 -0.128100 -0.653100
vn -0.484100 0.582100 -0.653300
vn -0.128100 0.746200 -0.653200
vn 0.262100 0.710300 -0.653200
vn 0.582200 0.484000 -0.653200
vn 0.746300 0.128100 -0.653200
vn 0.710500 -0.261900 -0.653100
vn 0.484200 -0.582000 -0.653200
vn 0.128100 -0.746200 -0.653200
vn -0.261800 -0.710400 -0.653200
vn -0.582100 -0.484200 -0.653200
vn -0.985500 -0.169400 0.000000
vn -0.861800 -0.167700 0.478700
vn -0.832600 0.307100 0.460800
vn -0.938200 0.346100 0.000000
vn -0.985500 -0.169300 0.000000
vn -0.938200 0.346000 0.000000
vn -0.938200 0.346100 0.000000
vn -0.832600 0.307100 0.460800
vn -0.567500 0.682300 0.460800
vn -0.639500 0.768800 0.000000
vn -0.938200 0.346000 0.000000
vn -0.639500 0.768800 0.000000
vn -0.639500 0.768800 0.000000
vn -0.567500 0.682300 0.460800
vn -0.150400 0.874700 0.460800
vn -0.169400 0.985500 0.000000
vn -0.639500 0.768800 0.000000
vn -0.169400 0.985500 0.000000
vn -0.169400 0.985500 0.000000
vn -0.150400 0.874700 0.460800
vn 0.307100 0.832700 0.460800
vn 0.346000 0.938200 0.000000
vn -0.169400 0.985500 0.000000
vn 0.346100 0.938200 0.000000
vn 0.346000 0.938200 0.000000
vn 0.307100 0.832700 0.460800
vn 0.687500 0.546600 0.478100
vn 0.768800 0.639500 0.000000
vn 0.346100 0.938200 0.000000
vn 0.768900 0.639300 0.000000
vn 0.768800 0.639500 0.000000
vn 0.687500 0.546600 0.478100
vn 0.862000 0.167400 0.478500
vn 0.985500 0.169400 0.000000
vn 0.768900 0.639300 0.000000
vn 0.985500 0.169300 0.000000
vn 0.985500 0.169400 0.000000
vn 0.862000 0.167400 0.478500
vn 0.832500 -0.307100 0.461100
vn 0.938200 -0.346000 0.000000
vn 0.985500 0.169300 0.000000
vn 0.938200 -0.346000 0.000000
vn 0.938200 -0.346000 0.000000
vn 0.832500 -0.307100 0.461100
vn 0.567400 -0.682300 0.461000
vn 0.639500 -0.768800 0.000000
vn 0.938200 -0.346000 0.000000
vn 0.639500 -0.768800 0.000000
vn 0.639500 -0.768800 0.000000
vn 0.567400 -0.682300 0.461000
vn 0.150300 -0.874700 0.460800
vn 0.169300 -0.985500 0.000000
vn 0.639500 -0.768800 0.000000
vn 0.169400 -0.985500 0.000000
vn 0.169300 -0.985500 0.000000
vn 0.150300 -0.874700 0.460800
vn -0.307200 -0.832600 0.460800
vn -0.346100 -0.938200 0.000000
vn 0.169400 -0.985500 0.000000
vn -0.346000 -0.938200 0.000000
vn -0.346100 -0.938200 0.000000
vn -0.307200 -0.832600 0.460800
vn -0.687000 -0.547000 0.478400
vn -0.768800 -0.639500 0.000000
vn -0.346000 -0.938200 0.000000
vn -0.768800 -0.639500 0.000000
vn -0.768800 -0.639500 0.000000
vn -0.687000 -0.547000 0.478400
vn -0.861800 -0.167700 0.478700
vn -0.985500 -0.169400 0.000000
vn -0.768800 -0.639500 0.000000
vn -0.985500 -0.169300 0.000000
vt 0.227600 1.831500
vt 0.224500 1.831500
vt 0.225000 1.831200
vt 0.227200 1.831200
vt 0.225700 1.831100
vt 0.226500 1.831100
vt 0.295500 1.831000
vt 0.295500 1.831600
vt 0.290700 1.831500
vt 0.290700 1.831000
vt 0.235400 1.830600
vt 0.237600 1.830600
vt 0.236900 1.830700
vt 0.236100 1.830700
vt 0.235000 1.830300
vt 0.238100 1.830300
vt -2.326700 0.615500
vt -2.326700 0.615400
vt -2.324200 0.615600
vt -2.324300 0.615800
vt -2.329000 0.615900
vt -2.329200 0.615800
vt -2.326800 0.615400
vt -2.330700 0.616700
vt -2.331000 0.616600
vt -2.329300 0.615800
vt -2.331300 0.617800
vt -2.331600 0.617700
vt -2.331000 0.616700
vt -2.330600 0.618800
vt -2.330900 0.618900
vt -2.331600 0.617800
vt -2.328700 0.619600
vt -2.328900 0.619700
vt -2.330800 0.618900
vt -2.326200 0.619800
vt -2.326300 0.619900
vt -2.328700 0.619700
vt -2.323900 0.619500
vt -2.323700 0.619600
vt -2.326100 0.619900
vt -2.322200 0.618600
vt -2.322000 0.618700
vt -2.323600 0.619500
vt -2.321700 0.617600
vt -2.321300 0.617600
vt -2.321900 0.618700
vt -2.322400 0.616500
vt -2.322100 0.616500
vt -2.321400 0.617500
vt -2.324100 0.615700
vt -2.322200 0.616400
vt -2.326600 0.615200
vt -2.324100 0.615400
vt -2.326500 0.615000
vt -2.324100 0.615300
vt -2.329300 0.615600
vt -2.327000 0.615200
vt -2.329400 0.615400
vt -2.327100 0.615100
vt -2.331300 0.616500
vt -2.329600 0.615700
vt -2.331600 0.616300
vt -2.329900 0.615600
vt -2.332100 0.617700
vt -2.331500 0.616600
vt -2.332400 0.617700
vt -2.331900 0.616600
vt -2.331400 0.618900
vt -2.332100 0.617900
vt -2.331700 0.619000
vt -2.332400 0.617900
vt -2.329200 0.619900
vt -2.331100 0.619100
vt -2.329400 0.620000
vt -2.331300 0.619200
vt -2.326400 0.620200
vt -2.328800 0.619900
vt -2.326400 0.620300
vt -2.328900 0.620100
vt -2.323600 0.619800
vt -2.325900 0.620100
vt -2.323500 0.619900
vt -2.325800 0.620300
vt -2.321600 0.618900
vt -2.323200 0.619700
vt -2.321400 0.619000
vt -2.323000 0.619800
vt -2.320900 0.617700
vt -2.321400 0.618700
vt -2.320500 0.617700
vt -2.321100 0.618700
vt -2.321600 0.616400
vt -2.320900 0.617500
vt -2.321300 0.616400
vt -2.320500 0.617400
vt -2.323700 0.615500
vt -2.321900 0.616200
vt -2.323500 0.615400
vt -2.321600 0.616100
vt -2.324400 0.615900
vt -2.326700 0.615700
vt -2.328900 0.616000
vt -2.330400 0.616800
vt -2.331000 0.617800
vt -2.330300 0.618800
vt -2.328500 0.619400
vt -2.326200 0.619700
vt -2.324000 0.619300
vt -2.322500 0.618600
vt -2.322000 0.617600
vt -2.322700 0.616600
vt -2.325600 0.616900
vt -2.326600 0.616800
vt -2.325700 0.617000
vt -2.326600 0.616900
vt -2.327500 0.617000
vt -2.327400 0.617000
vt -2.328100 0.617300
vt -2.328000 0.617300
vt -2.328400 0.617700
vt -2.328200 0.617700
vt -2.328100 0.618100
vt -2.327900 0.618100
vt -2.327300 0.618400
vt -2.327200 0.618300
vt -2.326400 0.618500
vt -2.326400 0.618400
vt -2.325400 0.618400
vt -2.325500 0.618300
vt -2.324800 0.618100
vt -2.324900 0.618000
vt -2.324600 0.617600
vt -2.324800 0.617600
vt -2.324900 0.617200
vt -2.325000 0.617300
vt 0.263900 1.831800
vt 0.263900 1.831700
vt 0.264900 1.831700
vt 0.264900 1.831800
vt 0.263900 1.829500
vt 0.264900 1.829500
vt 0.262900 1.831800
vt 0.262900 1.831700
vt 0.262900 1.829500
vt 0.262000 1.831800
vt 0.262000 1.831700
vt 0.262000 1.829500
vt 0.261000 1.831800
vt 0.261000 1.831700
vt 0.261000 1.829500
vt 0.260100 1.831800
vt 0.260100 1.831700
vt 0.260100 1.829500
vt 0.259100 1.831800
vt 0.259100 1.831700
vt 0.259100 1.829500
vt 0.258100 1.831800
vt 0.258100 1.831700
vt 0.258100 1.829500
vt 0.257200 1.831800
vt 0.257200 1.831700
vt 0.257200 1.829500
vt 0.256200 1.831800
vt 0.256200 1.831700
vt 0.256200 1.829500
vt 0.255200 1.831800
vt 0.255200 1.831700
vt 0.255200 1.829500
vt 0.254300 1.831800
vt 0.254300 1.831700
vt 0.254300 1.829500
vt 0.253300 1.831800
vt 0.253300 1.831700
vt 0.253300 1.829500
vt 0.233900 1.829700
vt 0.233900 1.829600
vt 0.239200 1.829600
vt 0.239200 1.829700
vt 0.228700 1.832100
vt 0.228700 1.832200
vt 0.223400 1.832200
vt 0.223400 1.832100
vt 0.289000 1.830900
vt 0.289200 1.830900
vt 0.289200 1.831600
vt 0.288900 1.831600
vt 0.297200 1.831700
vt 0.297000 1.831700
vt 0.297100 1.831000
vt 0.297300 1.830900
vt 0.233900 1.830100
vt 0.233900 1.830100
vt 0.239200 1.830100
vt 0.239200 1.830100
vt 0.228700 1.831700
vt 0.228700 1.831700
vt 0.223400 1.831700
vt 0.223400 1.831700
vt 0.288100 1.830700
vt 0.288400 1.830700
vt 0.288300 1.831800
vt 0.288000 1.831900
vt 0.298100 1.831900
vt 0.297800 1.831900
vt 0.297900 1.830800
vt 0.298200 1.830700
vt 0.233800 1.830300
vt 0.234800 1.830300
vt 0.235300 1.830600
vt 0.234600 1.830800
vt 0.236100 1.830800
vt 0.235900 1.831100
vt 0.237000 1.830800
vt 0.237200 1.831100
vt 0.237800 1.830600
vt 0.238400 1.830800
vt 0.238300 1.830300
vt 0.239200 1.830300
vt 0.238200 1.830200
vt 0.234800 1.830200
vt 0.224400 1.831600
vt 0.227800 1.831600
vt 0.224200 1.831000
vt 0.224900 1.831200
vt 0.224400 1.831500
vt 0.223400 1.831500
vt 0.225400 1.830700
vt 0.225600 1.831000
vt 0.226800 1.830700
vt 0.226500 1.831000
vt 0.228000 1.831000
vt 0.227300 1.831200
vt 0.228800 1.831500
vt 0.227800 1.831500
vt 0.231300 1.830900
vt 0.231200 1.831000
vt 0.229600 1.830100
vt 0.229700 1.830000
vt 0.227300 1.829600
vt 0.227400 1.829500
vt 0.224800 1.829600
vt 0.224800 1.829500
vt 0.222600 1.830100
vt 0.222500 1.830000
vt 0.221000 1.831000
vt 0.220800 1.830900
vt 0.231300 1.830900
vt 0.231400 1.830800
vt 0.233000 1.831700
vt 0.232900 1.831800
vt 0.235300 1.832200
vt 0.235200 1.832300
vt 0.237800 1.832200
vt 0.237800 1.832300
vt 0.240100 1.831700
vt 0.240200 1.831800
vt 0.241600 1.830800
vt 0.241800 1.830900
vt 0.289400 1.830900
vt 0.289300 1.831600
vt 0.296800 1.831700
vt 0.296900 1.831000
vt 0.240700 1.829600
vt 0.240800 1.829600
vt 0.240800 1.829600
vt 0.240900 1.829600
vt 0.232300 1.829600
vt 0.232400 1.829600
vt 0.232300 1.829600
vt 0.232200 1.829600
vt 0.221900 1.832200
vt 0.221800 1.832200
vt 0.221800 1.832200
vt 0.221700 1.832200
vt 0.230300 1.832200
vt 0.230200 1.832200
vt 0.230300 1.832200
vt 0.230400 1.832200
vt 0.241400 1.829600
vt 0.241500 1.829600
vt 0.241600 1.829500
vt 0.241700 1.829500
vt 0.231500 1.829500
vt 0.231600 1.829600
vt 0.231500 1.829600
vt 0.231400 1.829500
vt 0.221100 1.832200
vt 0.221100 1.832200
vt 0.221000 1.832300
vt 0.220900 1.832300
vt 0.231100 1.832300
vt 0.231000 1.832200
vt 0.231100 1.832300
vt 0.231200 1.832300
vt -0.543100 0.577400
vt -0.542900 0.576700
vt -0.541900 0.576700
vt -0.543100 0.577700
vt -0.543100 0.577400
vt -0.543200 0.577800
vt -0.541900 0.576700
vt -0.543100 0.577700
vt -0.543200 0.577800
vt -0.543100 0.573600
vt -0.543100 0.573600
vt -0.543200 0.573200
vt -0.543100 0.573300
vt -0.542900 0.574300
vt -0.542000 0.574300
vt -0.543200 0.573200
vt -0.543100 0.573300
vt -0.541900 0.574300
vt -0.543700 0.573500
vt -0.543800 0.574200
vt -0.544800 0.574200
vt -0.543600 0.573200
vt -0.543600 0.573500
vt -0.543600 0.573100
vt -0.544900 0.574200
vt -0.543600 0.573200
vt -0.543600 0.573100
vt -0.543700 0.577300
vt -0.543600 0.577400
vt -0.543600 0.577700
vt -0.543600 0.577600
vt -0.543900 0.576600
vt -0.544800 0.576600
vt -0.543600 0.577700
vt -0.543600 0.577700
vt -0.544900 0.576600
vt -0.543100 0.577400
vt -0.543000 0.576700
vt -0.543100 0.577400
vt -0.543100 0.573600
vt -0.543100 0.573600
vt -0.543000 0.574300
vt -0.543600 0.573600
vt -0.543700 0.574200
vt -0.543600 0.573500
vt -0.543700 0.577300
vt -0.543600 0.577300
vt -0.543700 0.576600
vt -2.333300 0.749100
vt -2.333200 0.748500
vt -2.331900 0.748500
vt -2.331800 0.749100
vt -2.333400 0.749200
vt -2.331800 0.749200
vt -2.331700 0.745800
vt -2.331800 0.746400
vt -2.333100 0.746400
vt -2.333200 0.745800
vt -2.331700 0.745700
vt -2.333200 0.745700
vt -0.548500 0.577000
vt -0.546500 0.576200
vt -0.545400 0.576600
vt -0.546500 0.577700
vt -0.548600 0.577000
vt -0.546600 0.577700
vt -0.549600 0.576000
vt -0.547100 0.575700
vt -0.549800 0.576000
vt -0.549600 0.574900
vt -0.547100 0.575100
vt -0.549800 0.574800
vt -0.548500 0.573900
vt -0.546500 0.574600
vt -0.548600 0.573800
vt -0.546500 0.573200
vt -0.545400 0.574200
vt -0.546600 0.573100
vt -0.538200 0.573900
vt -0.540200 0.574700
vt -0.541300 0.574300
vt -0.540200 0.573300
vt -0.538100 0.573900
vt -0.540200 0.573200
vt -0.537100 0.574900
vt -0.539600 0.575200
vt -0.537000 0.574900
vt -0.537100 0.576000
vt -0.539600 0.575800
vt -0.537000 0.576100
vt -0.538200 0.577000
vt -0.540200 0.576300
vt -0.538100 0.577100
vt -0.540200 0.577700
vt -0.541300 0.576700
vt -0.540100 0.577800
vt -0.541500 0.576300
vt -0.541500 0.576200
vt -0.540800 0.576000
vt -0.540800 0.576000
vt -0.540400 0.575700
vt -0.540300 0.575700
vt -0.540400 0.575300
vt -0.540400 0.575300
vt -0.540800 0.575000
vt -0.540800 0.575000
vt -0.541500 0.574800
vt -0.541500 0.574700
vt -0.541600 0.574800
vt -0.541600 0.576200
vt -0.545200 0.576200
vt -0.545200 0.576100
vt -0.545200 0.574700
vt -0.545200 0.574700
vt -0.546000 0.576000
vt -0.545900 0.575900
vt -0.545300 0.576200
vt -0.546400 0.575600
vt -0.546300 0.575600
vt -0.546400 0.575200
vt -0.546300 0.575200
vt -0.546000 0.574900
vt -0.545900 0.574900
vt -0.545300 0.574600
vt -2.333800 0.749500
vt -2.333400 0.749300
vt -2.331700 0.749300
vt -2.331400 0.749500
vt -2.333800 0.749700
vt -2.331200 0.749700
vt -2.331300 0.745400
vt -2.331600 0.745600
vt -2.333300 0.745600
vt -2.333700 0.745300
vt -2.331200 0.745200
vt -2.333800 0.745200
vt 0.264900 1.831700
vt 0.264900 1.829500
vt 0.265800 1.829500
vt 0.265800 1.831700
vt 0.264900 1.831800
vt 0.265800 1.831800
vt 0.266800 1.829500
vt 0.266800 1.831700
vt 0.266800 1.831800
vt 0.267800 1.829500
vt 0.267800 1.831700
vt 0.267800 1.831800
vt 0.268700 1.829500
vt 0.268700 1.831700
vt 0.268700 1.831800
vt 0.269700 1.829500
vt 0.269700 1.831700
vt 0.269700 1.831800
vt 0.270700 1.829500
vt 0.270700 1.831700
vt 0.270700 1.831800
vt 0.271600 1.829500
vt 0.271600 1.831700
vt 0.271600 1.831800
vt 0.272600 1.829500
vt 0.272600 1.831700
vt 0.272600 1.831800
vt 0.273500 1.829500
vt 0.273500 1.831700
vt 0.273500 1.831800
vt 0.274500 1.829500
vt 0.274500 1.831700
vt 0.274500 1.831800
vt 0.275500 1.829500
vt 0.275500 1.831700
vt 0.275500 1.831800
vt 0.276400 1.829500
vt 0.276400 1.831700
vt 0.276400 1.831800
vt -1.398700 0.635300
vt -1.398800 0.635300
vt -1.399500 0.635000
vt -1.399400 0.635000
vt -1.396500 0.634700
vt -1.398100 0.634000
vt -1.398400 0.635700
vt -1.398600 0.635700
vt -1.395800 0.635700
vt -1.398700 0.636100
vt -1.398800 0.636100
vt -1.396400 0.636700
vt -1.399400 0.636400
vt -1.399500 0.636300
vt -1.398100 0.637400
vt -1.400300 0.636500
vt -1.400300 0.636400
vt -1.400400 0.637700
vt -1.401300 0.636400
vt -1.401200 0.636300
vt -1.402600 0.637400
vt -1.402000 0.636100
vt -1.401800 0.636100
vt -1.404200 0.636700
vt -1.402200 0.635700
vt -1.402000 0.635700
vt -1.404800 0.635700
vt -1.402000 0.635300
vt -1.401800 0.635300
vt -1.404300 0.634700
vt -1.401300 0.635000
vt -1.401200 0.635000
vt -1.402600 0.634000
vt -1.400300 0.634800
vt -1.400300 0.634900
vt -1.400300 0.633700
vt -1.396200 0.634600
vt -1.397900 0.633800
vt -1.395500 0.635700
vt -1.396100 0.636800
vt -1.397900 0.637500
vt -1.400300 0.637800
vt -1.402700 0.637500
vt -1.404500 0.636700
vt -1.405100 0.635700
vt -1.404500 0.634600
vt -1.402700 0.633800
vt -1.400300 0.633600
vt -1.397300 0.633600
vt -1.397100 0.633500
vt -1.395400 0.634300
vt -1.395600 0.634400
vt -1.397700 0.633700
vt -1.396000 0.634500
vt -1.395400 0.634500
vt -1.395100 0.634500
vt -1.394400 0.635500
vt -1.394700 0.635600
vt -1.395900 0.634600
vt -1.395200 0.635600
vt -1.394700 0.635800
vt -1.394400 0.635800
vt -1.395000 0.636900
vt -1.395300 0.636800
vt -1.395200 0.635700
vt -1.395800 0.636800
vt -1.395500 0.637000
vt -1.395300 0.637100
vt -1.397100 0.637900
vt -1.397300 0.637800
vt -1.395900 0.636900
vt -1.397700 0.637600
vt -1.397700 0.637900
vt -1.397600 0.638000
vt -1.400000 0.638300
vt -1.400100 0.638200
vt -1.397800 0.637700
vt -1.400200 0.638000
vt -1.400500 0.638200
vt -1.400600 0.638300
vt -1.403000 0.638000
vt -1.402900 0.637900
vt -1.400400 0.638000
vt -1.402800 0.637700
vt -1.403300 0.637800
vt -1.403600 0.637900
vt -1.405300 0.637100
vt -1.405000 0.637000
vt -1.403000 0.637600
vt -1.404700 0.636800
vt -1.405200 0.636800
vt -1.405600 0.636900
vt -1.406200 0.635800
vt -1.405900 0.635800
vt -1.404800 0.636800
vt -1.405400 0.635700
vt -1.406000 0.635600
vt -1.406300 0.635600
vt -1.405700 0.634500
vt -1.405300 0.634500
vt -1.405500 0.635700
vt -1.404900 0.634600
vt -1.405100 0.634400
vt -1.405400 0.634200
vt -1.403600 0.633500
vt -1.403300 0.633600
vt -1.404800 0.634500
vt -1.403000 0.633700
vt -1.402900 0.633500
vt -1.403000 0.633300
vt -1.400600 0.633100
vt -1.400500 0.633200
vt -1.402800 0.633700
vt -1.400400 0.633400
vt -1.400100 0.633200
vt -1.400000 0.633100
vt -1.397600 0.633400
vt -1.397700 0.633500
vt -1.400200 0.633400
vt -1.397800 0.633700
f 1/1/1 2/2/2 3/3/3
f 1/1/1 3/3/3 4/4/4
f 4/4/4 3/3/3 5/5/5
f 4/4/4 5/5/5 6/6/6
f 7/7/7 8/8/8 9/9/9
f 7/7/7 9/9/9 10/10/10
f 11/11/11 12/12/12 13/13/13
f 11/11/11 13/13/13 14/14/14
f 15/15/15 16/16/16 12/12/12
f 15/15/15 12/12/12 11/11/11
f 17/17/17 18/18/18 19/19/19
f 17/17/17 19/19/19 20/20/20
f 21/21/21 22/22/22 23/23/23
f 21/21/21 23/23/23 17/17/17
f 24/24/24 25/25/25 26/26/26
f 24/24/24 26/26/26 21/21/21
f 27/27/27 28/28/28 29/29/29
f 27/27/27 29/29/29 24/24/24
f 30/30/30 31/31/31 32/32/32
f 30/30/30 32/32/32 27/27/27
f 33/33/33 34/34/34 35/35/35
f 33/33/33 35/35/35 30/30/30
f 36/36/36 37/37/37 38/38/38
f 36/36/36 38/38/38 33/33/33
f 39/39/39 40/40/40 41/41/41
f 39/39/39 41/41/41 36/36/36
f 42/42/42 43/43/43 44/44/44
f 42/42/42 44/44/44 39/39/39
f 45/45/45 46/46/46 47/47/47
f 45/45/45 47/47/47 42/42/42
f 48/48/48 49/49/49 50/50/50
f 48/48/48 50/50/50 45/45/45
f 20/20/20 51/51/51 52/52/52
f 20/20/20 52/52/52 48/48/48
f 18/18/18 53/53/53 54/54/54
f 18/18/18 54/54/54 19/19/19
f 53/53/53 55/55/55 56/56/56
f 53/53/53 56/56/56 54/54/54
f 22/22/22 57/57/57 58/58/58
f 22/22/22 58/58/58 23/23/23
f 57/57/57 59/59/59 60/60/60
f 57/57/57 60/60/60 58/58/58
f 25/25/25 61/61/61 62/62/62
f 25/25/25 62/62/62 26/26/26
f 61/61/61 63/63/63 64/64/64
f 61/61/61 64/64/64 62/62/62
f 28/28/28 65/65/65 66/66/66
f 28/28/28 66/66/66 29/29/29
f 65/65/65 67/67/67 68/68/68
f 65/65/65 68/68/68 66/66/66
f 31/31/31 69/69/69 70/70/70
f 31/31/31 70/70/70 32/32/32
f 69/69/69 71/71/71 72/72/72
f 69/69/69 72/72/72 70/70/70
f 34/34/34 73/73/73 74/74/74
f 34/34/34 74/74/74 35/35/35
f 73/73/73 75/75/75 76/76/76
f 73/73/73 76/76/76 74/74/74
f 37/37/37 77/77/77 78/78/78
f 37/37/37 78/78/78 38/38/38
f 77/77/77 79/79/79 80/80/80
f 77/77/77 80/80/80 78/78/78
f 40/40/40 81/81/81 82/82/82
f 40/40/40 82/82/82 41/41/41
f 81/81/81 83/83/83 84/84/84
f 81/81/81 84/84/84 82/82/82
f 43/43/43 85/85/85 86/86/86
f 43/43/43 86/86/86 44/44/44
f 85/85/85 87/87/87 88/88/88
f 85/85/85 88/88/88 86/86/86
f 46/46/46 89/89/89 90/90/90
f 46/46/46 90/90/90 47/47/47
f 89/89/89 91/91/91 92/92/92
f 89/89/89 92/92/92 90/90/90
f 49/49/49 93/93/93 94/94/94
f 49/49/49 94/94/94 50/50/50
f 93/93/93 95/95/95 96/96/96
f 93/93/93 96/96/96 94/94/94
f 51/51/51 97/97/97 98/98/98
f 51/51/51 98/98/98 52/52/52
f 97/97/97 99/99/99 100/100/100
f 97/97/97 100/100/100 98/98/98
f 20/20/20 101/101/101 102/102/102
f 20/20/20 102/102/102 17/17/17
f 17/17/17 102/102/102 103/103/103
f 17/17/17 103/103/103 21/21/21
f 21/21/21 103/103/103 104/104/104
f 21/21/21 104/104/104 24/24/24
f 24/24/24 104/104/104 105/105/105
f 24/24/24 105/105/105 27/27/27
f 27/27/27 105/105/105 106/106/106
f 27/27/27 106/106/106 30/30/30
f 30/30/30 106/106/106 107/107/107
f 30/30/30 107/107/107 33/33/33
f 33/33/33 107/107/107 108/108/108
f 33/33/33 108/108/108 36/36/36
f 36/36/36 108/108/108 109/109/109
f 36/36/36 109/109/109 39/39/39
f 39/39/39 109/109/109 110/110/110
f 39/39/39 110/110/110 42/42/42
f 42/42/42 110/110/110 111/111/111
f 42/42/42 111/111/111 45/45/45
f 45/45/45 111/111/111 112/112/112
f 45/45/45 112/112/112 48/48/48
f 48/48/48 112/112/112 101/101/101
f 48/48/48 101/101/101 20/20/20
f 101/101/101 113/113/113 114/114/114
f 101/101/101 114/114/114 102/102/102
f 113/113/113 115/115/115 116/116/116
f 113/113/113 116/116/116 114/114/114
f 102/102/102 114/114/114 117/117/117
f 102/102/102 117/117/117 103/103/103
f 114/114/114 116/116/116 118/118/118
f 114/114/114 118/118/118 117/117/117
f 103/103/103 117/117/117 119/119/119
f 103/103/103 119/119/119 104/104/104
f 117/117/117 118/118/118 120/120/120
f 117/117/117 120/120/120 119/119/119
f 104/104/104 119/119/119 121/121/121
f 104/104/104 121/121/121 105/105/105
f 119/119/119 120/120/120 122/122/122
f 119/119/119 122/122/122 121/121/121
f 105/105/105 121/121/121 123/123/123
f 105/105/105 123/123/123 106/106/106
f 121/121/121 122/122/122 124/124/124
f 121/121/121 124/124/124 123/123/123
f 106/106/106 123/123/123 125/125/125
f 106/106/106 125/125/125 107/107/107
f 123/123/123 124/124/124 126/126/126
f 123/123/123 126/126/126 125/125/125
f 107/107/107 125/125/125 127/127/127
f 107/107/107 127/127/127 108/108/108
f 125/125/125 126/126/126 128/128/128
f 125/125/125 128/128/128 127/127/127
f 108/108/108 127/127/127 129/129/129
f 108/108/108 129/129/129 109/109/109
f 127/127/127 128/128/128 130/130/130
f 127/127/127 130/130/130 129/129/129
f 109/109/109 129/129/129 131/131/131
f 109/109/109 131/131/131 110/110/110
f 129/129/129 130/130/130 132/132/132
f 129/129/129 132/132/132 131/131/131
f 110/110/110 131/131/131 133/133/133
f 110/110/110 133/133/133 111/111/111
f 131/131/131 132/132/132 134/134/134
f 131/131/131 134/134/134 133/133/133
f 111/111/111 133/133/133 135/135/135
f 111/111/111 135/135/135 112/112/112
f 133/133/133 134/134/134 136/136/136
f 133/133/133 136/136/136 135/135/135
f 112/112/112 135/135/135 113/113/113
f 112/112/112 113/113/113 101/101/101
f 135/135/135 136/136/136 115/115/115
f 135/135/135 115/115/115 113/113/113
f 137/137/137 138/138/138 139/139/139
f 137/137/137 139/139/139 140/140/140
f 138/138/138 141/141/141 142/142/142
f 138/138/138 142/142/142 139/139/139
f 143/143/143 144/144/144 138/138/138
f 143/143/143 138/138/138 137/137/137
f 144/144/144 145/145/145 141/141/141
f 144/144/144 141/141/141 138/138/138
f 146/146/146 147/147/147 144/144/144
f 146/146/146 144/144/144 143/143/143
f 147/147/147 148/148/148 145/145/145
f 147/147/147 145/145/145 144/144/144
f 149/149/149 150/150/150 147/147/147
f 149/149/149 147/147/147 146/146/146
f 150/150/150 151/151/151 148/148/148
f 150/150/150 148/148/148 147/147/147
f 152/152/152 153/153/153 150/150/150
f 152/152/152 150/150/150 149/149/149
f 153/153/153 154/154/154 151/151/151
f 153/153/153 151/151/151 150/150/150
f 155/155/155 156/156/156 153/153/153
f 155/155/155 153/153/153 152/152/152
f 156/156/156 157/157/157 154/154/154
f 156/156/156 154/154/154 153/153/153
f 158/158/158 159/159/159 156/156/156
f 158/158/158 156/156/156 155/155/155
f 159/159/159 160/160/160 157/157/157
f 159/159/159 157/157/157 156/156/156
f 161/161/161 162/162/162 159/159/159
f 161/161/161 159/159/159 158/158/158
f 162/162/162 163/163/163 160/160/160
f 162/162/162 160/160/160 159/159/159
f 164/164/164 165/165/165 162/162/162
f 164/164/164 162/162/162 161/161/161
f 165/165/165 166/166/166 163/163/163
f 165/165/165 163/163/163 162/162/162
f 167/167/167 168/168/168 165/165/165
f 167/167/167 165/165/165 164/164/164
f 168/168/168 169/169/169 166/166/166
f 168/168/168 166/166/166 165/165/165
f 170/170/170 171/171/171 168/168/168
f 170/170/170 168/168/168 167/167/167
f 171/171/171 172/172/172 169/169/169
f 171/171/171 169/169/169 168/168/168
f 173/173/173 174/174/174 171/171/171
f 173/173/173 171/171/171 170/170/170
f 174/174/174 175/175/175 172/172/172
f 174/174/174 172/172/172 171/171/171
f 176/176/176 177/177/177 178/178/178
f 176/176/176 178/178/178 179/179/179
f 180/180/180 181/181/181 182/182/182
f 180/180/180 182/182/182 183/183/183
f 184/184/184 185/185/185 186/186/186
f 184/184/184 186/186/186 187/187/187
f 188/188/188 189/189/189 190/190/190
f 188/188/188 190/190/190 191/191/191
f 192/192/192 193/193/193 194/194/194
f 192/192/192 194/194/194 195/195/195
f 193/193/193 176/176/176 179/179/179
f 193/193/193 179/179/179 194/194/194
f 196/196/196 197/197/197 198/198/198
f 196/196/196 198/198/198 199/199/199
f 197/197/197 180/180/180 183/183/183
f 197/197/197 183/183/183 198/198/198
f 200/200/200 201/201/201 202/202/202
f 200/200/200 202/202/202 203/203/203
f 201/201/201 184/184/184 187/187/187
f 201/201/201 187/187/187 202/202/202
f 204/204/204 205/205/205 206/206/206
f 204/204/204 206/206/206 207/207/207
f 205/205/205 188/188/188 191/191/191
f 205/205/205 191/191/191 206/206/206
f 208/208/208 209/209/209 210/210/210
f 208/208/208 210/210/210 211/211/211
f 209/209/209 15/15/15 11/11/11
f 209/209/209 11/11/11 210/210/210
f 211/211/211 210/210/210 212/212/212
f 211/211/211 212/212/212 213/213/213
f 210/210/210 11/11/11 14/14/14
f 210/210/210 14/14/14 212/212/212
f 213/213/213 212/212/212 214/214/214
f 213/213/213 214/214/214 215/215/215
f 212/212/212 14/14/14 13/13/13
f 212/212/212 13/13/13 214/214/214
f 215/215/215 214/214/214 216/216/216
f 215/215/215 216/216/216 217/217/217
f 214/214/214 13/13/13 12/12/12
f 214/214/214 12/12/12 216/216/216
f 217/217/217 216/216/216 218/218/218
f 217/217/217 218/218/218 219/219/219
f 216/216/216 12/12/12 16/16/16
f 216/216/216 16/16/16 218/218/218
f 195/195/195 220/220/220 221/221/221
f 195/195/195 221/221/221 192/192/192
f 220/220/220 16/16/16 15/15/15
f 220/220/220 15/15/15 221/221/221
f 199/199/199 222/222/222 223/223/223
f 199/199/199 223/223/223 196/196/196
f 222/222/222 2/2/2 1/1/1
f 222/222/222 1/1/1 223/223/223
f 224/224/224 225/225/225 226/226/226
f 224/224/224 226/226/226 227/227/227
f 225/225/225 3/3/3 2/2/2
f 225/225/225 2/2/2 226/226/226
f 228/228/228 229/229/229 225/225/225
f 228/228/228 225/225/225 224/224/224
f 229/229/229 5/5/5 3/3/3
f 229/229/229 3/3/3 225/225/225
f 230/230/230 231/231/231 229/229/229
f 230/230/230 229/229/229 228/228/228
f 231/231/231 6/6/6 5/5/5
f 231/231/231 5/5/5 229/229/229
f 232/232/232 233/233/233 231/231/231
f 232/232/232 231/231/231 230/230/230
f 233/233/233 4/4/4 6/6/6
f 233/233/233 6/6/6 231/231/231
f 234/234/234 235/235/235 233/233/233
f 234/234/234 233/233/233 232/232/232
f 235/235/235 1/1/1 4/4/4
f 235/235/235 4/4/4 233/233/233
f 236/236/236 237/237/237 238/238/238
f 236/236/236 238/238/238 239/239/239
f 237/237/237 234/234/234 232/232/232
f 237/237/237 232/232/232 238/238/238
f 239/239/239 238/238/238 240/240/240
f 239/239/239 240/240/240 241/241/241
f 238/238/238 232/232/232 230/230/230
f 238/238/238 230/230/230 240/240/240
f 241/241/241 240/240/240 242/242/242
f 241/241/241 242/242/242 243/243/243
f 240/240/240 230/230/230 228/228/228
f 240/240/240 228/228/228 242/242/242
f 243/243/243 242/242/242 244/244/244
f 243/243/243 244/244/244 245/245/245
f 242/242/242 228/228/228 224/224/224
f 242/242/242 224/224/224 244/244/244
f 245/245/245 244/244/244 246/246/246
f 245/245/245 246/246/246 247/247/247
f 244/244/244 224/224/224 227/227/227
f 244/244/244 227/227/227 246/246/246
f 248/248/248 249/249/249 250/250/250
f 248/248/248 250/250/250 251/251/251
f 249/249/249 208/208/208 211/211/211
f 249/249/249 211/211/211 250/250/250
f 251/251/251 250/250/250 252/252/252
f 251/251/251 252/252/252 253/253/253
f 250/250/250 211/211/211 213/213/213
f 250/250/250 213/213/213 252/252/252
f 253/253/253 252/252/252 254/254/254
f 253/253/253 254/254/254 255/255/255
f 252/252/252 213/213/213 215/215/215
f 252/252/252 215/215/215 254/254/254
f 255/255/255 254/254/254 256/256/256
f 255/255/255 256/256/256 257/257/257
f 254/254/254 215/215/215 217/217/217
f 254/254/254 217/217/217 256/256/256
f 257/257/257 256/256/256 258/258/258
f 257/257/257 258/258/258 259/259/259
f 256/256/256 217/217/217 219/219/219
f 256/256/256 219/219/219 258/258/258
f 185/185/185 260/260/260 261/261/261
f 185/185/185 261/261/261 186/186/186
f 260/260/260 10/10/10 9/9/9
f 260/260/260 9/9/9 261/261/261
f 189/189/189 262/262/262 263/263/263
f 189/189/189 263/263/263 190/190/190
f 262/262/262 8/8/8 7/7/7
f 262/262/262 7/7/7 263/263/263
f 178/178/178 264/264/264 265/265/265
f 178/178/178 265/265/265 179/179/179
f 264/264/264 266/266/266 267/267/267
f 264/264/264 267/267/267 265/265/265
f 268/268/268 269/269/269 270/270/270
f 268/268/268 270/270/270 271/271/271
f 269/269/269 177/177/177 176/176/176
f 269/269/269 176/176/176 270/270/270
f 182/182/182 272/272/272 273/273/273
f 182/182/182 273/273/273 183/183/183
f 272/272/272 274/274/274 275/275/275
f 272/272/272 275/275/275 273/273/273
f 276/276/276 277/277/277 278/278/278
f 276/276/276 278/278/278 279/279/279
f 277/277/277 181/181/181 180/180/180
f 277/277/277 180/180/180 278/278/278
f 194/194/194 280/280/280 281/281/281
f 194/194/194 281/281/281 195/195/195
f 280/280/280 282/282/282 283/283/283
f 280/280/280 283/283/283 281/281/281
f 179/179/179 265/265/265 280/280/280
f 179/179/179 280/280/280 194/194/194
f 265/265/265 267/267/267 282/282/282
f 265/265/265 282/282/282 280/280/280
f 284/284/284 285/285/285 286/286/286
f 284/284/284 286/286/286 287/287/287
f 285/285/285 193/193/193 192/192/192
f 285/285/285 192/192/192 286/286/286
f 271/271/271 270/270/270 285/285/285
f 271/271/271 285/285/285 284/284/284
f 270/270/270 176/176/176 193/193/193
f 270/270/270 193/193/193 285/285/285
f 198/198/198 288/288/288 289/289/289
f 198/198/198 289/289/289 199/199/199
f 288/288/288 290/290/290 291/291/291
f 288/288/288 291/291/291 289/289/289
f 183/183/183 273/273/273 288/288/288
f 183/183/183 288/288/288 198/198/198
f 273/273/273 275/275/275 290/290/290
f 273/273/273 290/290/290 288/288/288
f 292/292/292 293/293/293 294/294/294
f 292/292/292 294/294/294 295/295/295
f 293/293/293 197/197/197 196/196/196
f 293/293/293 196/196/196 294/294/294
f 279/279/279 278/278/278 293/293/293
f 279/279/279 293/293/293 292/292/292
f 278/278/278 180/180/180 197/197/197
f 278/278/278 197/197/197 293/293/293
f 296/296/296 297/297/297 298/298/298
f 296/296/296 298/298/298 299/299/299
f 300/300/300 296/296/296 299/299/299
f 300/300/300 299/299/299 301/301/301
f 299/299/299 298/298/298 302/302/302
f 299/299/299 302/302/302 303/303/303
f 301/301/301 299/299/299 303/303/303
f 301/301/301 303/303/303 304/304/304
f 305/305/305 306/306/306 307/307/307
f 305/305/305 307/307/307 308/308/308
f 309/309/309 305/305/305 308/308/308
f 309/309/309 308/308/308 310/310/310
f 308/308/308 307/307/307 311/311/311
f 308/308/308 311/311/311 312/312/312
f 310/310/310 308/308/308 312/312/312
f 310/310/310 312/312/312 313/313/313
f 314/314/314 315/315/315 316/316/316
f 314/314/314 316/316/316 317/317/317
f 318/318/318 314/314/314 317/317/317
f 318/318/318 317/317/317 319/319/319
f 317/317/317 316/316/316 320/320/320
f 317/317/317 320/320/320 321/321/321
f 319/319/319 317/317/317 321/321/321
f 319/319/319 321/321/321 322/322/322
f 323/323/323 324/324/324 325/325/325
f 323/323/323 325/325/325 326/326/326
f 327/327/327 323/323/323 326/326/326
f 327/327/327 326/326/326 328/328/328
f 326/326/326 325/325/325 329/329/329
f 326/326/326 329/329/329 330/330/330
f 328/328/328 326/326/326 330/330/330
f 328/328/328 330/330/330 331/331/331
f 332/332/332 333/333/333 297/297/297
f 332/332/332 297/297/297 296/296/296
f 334/334/334 332/332/332 296/296/296
f 334/334/334 296/296/296 300/300/300
f 335/335/335 336/336/336 306/306/306
f 335/335/335 306/306/306 305/305/305
f 337/337/337 335/335/335 305/305/305
f 337/337/337 305/305/305 309/309/309
f 338/338/338 339/339/339 315/315/315
f 338/338/338 315/315/315 314/314/314
f 340/340/340 338/338/338 314/314/314
f 340/340/340 314/314/314 318/318/318
f 341/341/341 342/342/342 324/324/324
f 341/341/341 324/324/324 323/323/323
f 343/343/343 341/341/341 323/323/323
f 343/343/343 323/323/323 327/327/327
f 344/344/344 345/345/345 346/346/346
f 344/344/344 346/346/346 347/347/347
f 348/348/348 344/344/344 347/347/347
f 348/348/348 347/347/347 349/349/349
f 350/350/350 351/351/351 352/352/352
f 350/350/350 352/352/352 353/353/353
f 354/354/354 350/350/350 353/353/353
f 354/354/354 353/353/353 355/355/355
f 356/356/356 357/357/357 358/358/358
f 356/356/356 358/358/358 359/359/359
f 360/360/360 356/356/356 359/359/359
f 360/360/360 359/359/359 361/361/361
f 362/362/362 363/363/363 357/357/357
f 362/362/362 357/357/357 356/356/356
f 364/364/364 362/362/362 356/356/356
f 364/364/364 356/356/356 360/360/360
f 365/365/365 366/366/366 363/363/363
f 365/365/365 363/363/363 362/362/362
f 367/367/367 365/365/365 362/362/362
f 367/367/367 362/362/362 364/364/364
f 368/368/368 369/369/369 366/366/366
f 368/368/368 366/366/366 365/365/365
f 370/370/370 368/368/368 365/365/365
f 370/370/370 365/365/365 367/367/367
f 371/371/371 372/372/372 369/369/369
f 371/371/371 369/369/369 368/368/368
f 373/373/373 371/371/371 368/368/368
f 373/373/373 368/368/368 370/370/370
f 374/374/374 375/375/375 376/376/376
f 374/374/374 376/376/376 377/377/377
f 378/378/378 374/374/374 377/377/377
f 378/378/378 377/377/377 379/379/379
f 380/380/380 381/381/381 375/375/375
f 380/380/380 375/375/375 374/374/374
f 382/382/382 380/380/380 374/374/374
f 382/382/382 374/374/374 378/378/378
f 383/383/383 384/384/384 381/381/381
f 383/383/383 381/381/381 380/380/380
f 385/385/385 383/383/383 380/380/380
f 385/385/385 380/380/380 382/382/382
f 386/386/386 387/387/387 384/384/384
f 386/386/386 384/384/384 383/383/383
f 388/388/388 386/386/386 383/383/383
f 388/388/388 383/383/383 385/385/385
f 389/389/389 390/390/390 387/387/387
f 389/389/389 387/387/387 386/386/386
f 391/391/391 389/389/389 386/386/386
f 391/391/391 386/386/386 388/388/388
f 392/392/392 393/393/393 394/394/394
f 392/392/392 394/394/394 395/395/395
f 390/390/390 392/392/392 395/395/395
f 390/390/390 395/395/395 387/387/387
f 395/395/395 394/394/394 396/396/396
f 395/395/395 396/396/396 397/397/397
f 387/387/387 395/395/395 397/397/397
f 387/387/387 397/397/397 384/384/384
f 397/397/397 396/396/396 398/398/398
f 397/397/397 398/398/398 399/399/399
f 384/384/384 397/397/397 399/399/399
f 384/384/384 399/399/399 381/381/381
f 399/399/399 398/398/398 400/400/400
f 399/399/399 400/400/400 401/401/401
f 381/381/381 399/399/399 401/401/401
f 381/381/381 401/401/401 375/375/375
f 401/401/401 400/400/400 402/402/402
f 401/401/401 402/402/402 403/403/403
f 375/375/375 401/401/401 403/403/403
f 375/375/375 403/403/403 376/376/376
f 404/404/404 402/402/402 393/393/393
f 404/404/404 393/393/393 405/405/405
f 313/313/313 404/404/404 405/405/405
f 313/313/313 405/405/405 302/302/302
f 406/406/406 407/407/407 408/408/408
f 406/406/406 408/408/408 409/409/409
f 331/331/331 406/406/406 409/409/409
f 331/331/331 409/409/409 320/320/320
f 410/410/410 411/411/411 407/407/407
f 410/410/410 407/407/407 412/412/412
f 357/357/357 410/410/410 412/412/412
f 357/357/357 412/412/412 358/358/358
f 413/413/413 414/414/414 411/411/411
f 413/413/413 411/411/411 410/410/410
f 363/363/363 413/413/413 410/410/410
f 363/363/363 410/410/410 357/357/357
f 415/415/415 416/416/416 414/414/414
f 415/415/415 414/414/414 413/413/413
f 366/366/366 415/415/415 413/413/413
f 366/366/366 413/413/413 363/363/363
f 417/417/417 418/418/418 416/416/416
f 417/417/417 416/416/416 415/415/415
f 369/369/369 417/417/417 415/415/415
f 369/369/369 415/415/415 366/366/366
f 419/419/419 408/408/408 418/418/418
f 419/419/419 418/418/418 417/417/417
f 372/372/372 419/419/419 417/417/417
f 372/372/372 417/417/417 369/369/369
f 420/420/420 421/421/421 422/422/422
f 420/420/420 422/422/422 423/423/423
f 424/424/424 420/420/420 423/423/423
f 424/424/424 423/423/423 425/425/425
f 426/426/426 427/427/427 428/428/428
f 426/426/426 428/428/428 429/429/429
f 430/430/430 426/426/426 429/429/429
f 430/430/430 429/429/429 431/431/431
f 298/298/298 297/297/297 309/309/309
f 298/298/298 309/309/309 310/310/310
f 302/302/302 298/298/298 310/310/310
f 302/302/302 310/310/310 313/313/313
f 316/316/316 315/315/315 327/327/327
f 316/316/316 327/327/327 328/328/328
f 320/320/320 316/316/316 328/328/328
f 320/320/320 328/328/328 331/331/331
f 421/421/421 348/348/348 349/349/349
f 421/421/421 349/349/349 422/422/422
f 427/427/427 354/354/354 355/355/355
f 427/427/427 355/355/355 428/428/428
f 297/297/297 333/333/333 337/337/337
f 297/297/297 337/337/337 309/309/309
f 315/315/315 339/339/339 343/343/343
f 315/315/315 343/343/343 327/327/327
f 432/432/432 433/433/433 434/434/434
f 432/432/432 434/434/434 435/435/435
f 436/436/436 432/432/432 435/435/435
f 436/436/436 435/435/435 437/437/437
f 435/435/435 434/434/434 438/438/438
f 435/435/435 438/438/438 439/439/439
f 437/437/437 435/435/435 439/439/439
f 437/437/437 439/439/439 440/440/440
f 439/439/439 438/438/438 441/441/441
f 439/439/439 441/441/441 442/442/442
f 440/440/440 439/439/439 442/442/442
f 440/440/440 442/442/442 443/443/443
f 442/442/442 441/441/441 444/444/444
f 442/442/442 444/444/444 445/445/445
f 443/443/443 442/442/442 445/445/445
f 443/443/443 445/445/445 446/446/446
f 445/445/445 444/444/444 447/447/447
f 445/445/445 447/447/447 448/448/448
f 446/446/446 445/445/445 448/448/448
f 446/446/446 448/448/448 449/449/449
f 448/448/448 447/447/447 450/450/450
f 448/448/448 450/450/450 451/451/451
f 449/449/449 448/448/448 451/451/451
f 449/449/449 451/451/451 452/452/452
f 451/451/451 450/450/450 453/453/453
f 451/451/451 453/453/453 454/454/454
f 452/452/452 451/451/451 454/454/454
f 452/452/452 454/454/454 455/455/455
f 454/454/454 453/453/453 456/456/456
f 454/454/454 456/456/456 457/457/457
f 455/455/455 454/454/454 457/457/457
f 455/455/455 457/457/457 458/458/458
f 457/457/457 456/456/456 459/459/459
f 457/457/457 459/459/459 460/460/460
f 458/458/458 457/457/457 460/460/460
f 458/458/458 460/460/460 461/461/461
f 460/460/460 459/459/459 462/462/462
f 460/460/460 462/462/462 463/463/463
f 461/461/461 460/460/460 463/463/463
f 461/461/461 463/463/463 464/464/464
f 463/463/463 462/462/462 465/465/465
f 463/463/463 465/465/465 466/466/466
f 464/464/464 463/463/463 466/466/466
f 464/464/464 466/466/466 467/467/467
f 466/466/466 465/465/465 468/468/468
f 466/466/466 468/468/468 469/469/469
f 467/467/467 466/466/466 469/469/469
f 467/467/467 469/469/469 470/470/470
f 471/471/471 472/472/472 473/473/473
f 471/471/471 473/473/473 474/474/474
f 475/475/475 471/471/471 474/474/474
f 475/475/475 474/474/474 476/476/476
f 477/477/477 478/478/478 472/472/472
f 477/477/477 472/472/472 471/471/471
f 479/479/479 477/477/477 471/471/471
f 479/479/479 471/471/471 475/475/475
f 480/480/480 481/481/481 478/478/478
f 480/480/480 478/478/478 477/477/477
f 482/482/482 480/480/480 477/477/477
f 482/482/482 477/477/477 479/479/479
f 483/483/483 484/484/484 481/481/481
f 483/483/483 481/481/481 480/480/480
f 485/485/485 483/483/483 480/480/480
f 485/485/485 480/480/480 482/482/482
f 486/486/486 487/487/487 484/484/484
f 486/486/486 484/484/484 483/483/483
f 488/488/488 486/486/486 483/483/483
f 488/488/488 483/483/483 485/485/485
f 489/489/489 490/490/490 487/487/487
f 489/489/489 487/487/487 486/486/486
f 491/491/491 489/489/489 486/486/486
f 491/491/491 486/486/486 488/488/488
f 492/492/492 493/493/493 490/490/490
f 492/492/492 490/490/490 489/489/489
f 494/494/494 492/492/492 489/489/489
f 494/494/494 489/489/489 491/491/491
f 495/495/495 496/496/496 493/493/493
f 495/495/495 493/493/493 492/492/492
f 497/497/497 495/495/495 492/492/492
f 497/497/497 492/492/492 494/494/494
f 498/498/498 499/499/499 496/496/496
f 498/498/498 496/496/496 495/495/495
f 500/500/500 498/498/498 495/495/495
f 500/500/500 495/495/495 497/497/497
f 501/501/501 502/502/502 499/499/499
f 501/501/501 499/499/499 498/498/498
f 503/503/503 501/501/501 498/498/498
f 503/503/503 498/498/498 500/500/500
f 504/504/504 505/505/505 502/502/502
f 504/504/504 502/502/502 501/501/501
f 506/506/506 504/504/504 501/501/501
f 506/506/506 501/501/501 503/503/503
f 474/474/474 473/473/473 505/505/505
f 474/474/474 505/505/505 504/504/504
f 476/476/476 474/474/474 504/504/504
f 476/476/476 504/504/504 506/506/506
f 507/507/507 475/475/475 476/476/476
f 507/507/507 476/476/476 508/508/508
f 509/509/509 479/479/479 475/475/475
f 509/509/509 475/475/475 507/507/507
f 510/510/510 482/482/482 479/479/479
f 510/510/510 479/479/479 509/509/509
f 511/511/511 485/485/485 482/482/482
f 511/511/511 482/482/482 510/510/510
f 512/512/512 488/488/488 485/485/485
f 512/512/512 485/485/485 511/511/511
f 513/513/513 491/491/491 488/488/488
f 513/513/513 488/488/488 512/512/512
f 514/514/514 494/494/494 491/491/491
f 514/514/514 491/491/491 513/513/513
f 515/515/515 497/497/497 494/494/494
f 515/515/515 494/494/494 514/514/514
f 516/516/516 500/500/500 497/497/497
f 516/516/516 497/497/497 515/515/515
f 517/517/517 503/503/503 500/500/500
f 517/517/517 500/500/500 516/516/516
f 518/518/518 506/506/506 503/503/503
f 518/518/518 503/503/503 517/517/517
f 508/508/508 476/476/476 506/506/506
f 508/508/508 506/506/506 518/518/518
f 519/519/519 520/520/520 521/521/521
f 519/519/519 521/521/521 522/522/522
f 523/523/523 519/519/519 522/522/522
f 523/523/523 522/522/522 524/524/524
f 525/525/525 526/526/526 527/527/527
f 525/525/525 527/527/527 528/528/528
f 529/529/529 525/525/525 528/528/528
f 529/529/529 528/528/528 530/530/530
f 531/531/531 532/532/532 533/533/533
f 531/531/531 533/533/533 534/534/534
f 535/535/535 531/531/531 534/534/534
f 535/535/535 534/534/534 536/536/536
f 537/537/537 538/538/538 539/539/539
f 537/537/537 539/539/539 540/540/540
f 541/541/541 537/537/537 540/540/540
f 541/541/541 540/540/540 542/542/542
f 543/543/543 544/544/544 545/545/545
f 543/543/543 545/545/545 546/546/546
f 547/547/547 543/543/543 546/546/546
f 547/547/547 546/546/546 548/548/548
f 549/549/549 550/550/550 551/551/551
f 549/549/549 551/551/551 552/552/552
f 553/553/553 549/549/549 552/552/552
f 553/553/553 552/552/552 554/554/554
f 555/555/555 556/556/556 557/557/557
f 555/555/555 557/557/557 558/558/558
f 559/559/559 555/555/555 558/558/558
f 559/559/559 558/558/558 560/560/560
f 561/561/561 562/562/562 563/563/563
f 561/561/561 563/563/563 564/564/564
f 565/565/565 561/561/561 564/564/564
f 565/565/565 564/564/564 566/566/566
f 567/567/567 568/568/568 569/569/569
f 567/567/567 569/569/569 570/570/570
f 571/571/571 567/567/567 570/570/570
f 571/571/571 570/570/570 572/572/572
f 573/573/573 574/574/574 575/575/575
f 573/573/573 575/575/575 576/576/576
f 577/577/577 573/573/573 576/576/576
f 577/577/577 576/576/576 578/578/578
f 579/579/579 580/580/580 581/581/581
f 579/579/579 581/581/581 582/582/582
f 583/583/583 579/579/579 582/582/582
f 583/583/583 582/582/582 584/584/584
f 585/585/585 586/586/586 587/587/587
f 585/585/585 587/587/587 588/588/588
f 589/589/589 585/585/585 588/588/588
f 589/589/589 588/588/588 590/590/590
f 508/508/508 523/523/523 524/524/524
f 508/508/508 524/524/524 507/507/507
f 507/507/507 529/529/529 530/530/530
f 507/507/507 530/530/530 509/509/509
f 509/509/509 535/535/535 536/536/536
f 509/509/509 536/536/536 510/510/510
f 510/510/510 541/541/541 542/542/542
f 510/510/510 542/542/542 511/511/511
f 511/511/511 547/547/547 548/548/548
f 511/511/511 548/548/548 512/512/512
f 512/512/512 553/553/553 554/554/554
f 512/512/512 554/554/554 513/513/513
f 513/513/513 559/559/559 560/560/560
f 513/513/513 560/560/560 514/514/514
f 514/514/514 565/565/565 566/566/566
f 514/514/514 566/566/566 515/515/515
f 515/515/515 571/571/571 572/572/572
f 515/515/515 572/572/572 516/516/516
f 516/516/516 577/577/577 578/578/578
f 516/516/516 578/578/578 517/517/517
f 517/517/517 583/583/583 584/584/584
f 517/517/517 584/584/584 518/518/518
f 518/518/518 589/589/589 590/590/590
f 518/518/518 590/590/590 508/508/508
f 408/408/408 407/407/407 411/411/411
f 408/408/408 411/411/411 418/418/418
f 418/418/418 411/411/411 414/414/414
f 418/418/418 414/414/414 416/416/416
f 346/346/346 345/345/345 352/352/352
f 346/346/346 352/352/352 351/351/351
f 394/394/394 400/400/400 398/398/398
f 394/394/394 398/398/398 396/396/396
f 393/393/393 402/402/402 400/400/400
f 393/393/393 400/400/400 394/394/394
