v -1.492846 0.516902 -0.784870
v -1.494083 0.516902 -0.784306
v -1.493769 0.517178 -0.783617
v -1.492532 0.517178 -0.784181
v -1.469373 0.353246 -0.730107
v -1.468135 0.353246 -0.730671
v -1.467821 0.353522 -0.729982
v -1.469059 0.353522 -0.729418
v -1.494083 0.516902 -0.784306
v -1.604971 0.516902 -0.733750
v -1.604657 0.517178 -0.733061
v -1.493769 0.517178 -0.783617
v -1.604971 0.516902 -0.733750
v -1.605873 0.516902 -0.733338
v -1.605559 0.517178 -0.732649
v -1.604657 0.517178 -0.733061
v -1.581163 0.353246 -0.679139
v -1.580260 0.353246 -0.679551
v -1.579946 0.353522 -0.678862
v -1.580849 0.353522 -0.678450
v -1.580260 0.353246 -0.679551
v -1.469373 0.353246 -0.730107
v -1.469059 0.353522 -0.729418
v -1.579946 0.353522 -0.678862
v -1.468135 0.353246 -0.730671
v -1.468313 0.354426 -0.731062
v -1.467999 0.354701 -0.730373
v -1.467821 0.353522 -0.729982
v -1.580849 0.353522 -0.678450
v -1.581027 0.354701 -0.678841
v -1.581341 0.354426 -0.679530
v -1.581163 0.353246 -0.679139
v -1.467821 0.353522 -0.729982
v -1.467999 0.354701 -0.730373
v -1.469237 0.354701 -0.729809
v -1.468313 0.354426 -0.731062
v -1.469373 0.353246 -0.730107
v -1.469551 0.354426 -0.730498
v -1.579946 0.353522 -0.678862
v -1.580124 0.354701 -0.679253
v -1.581027 0.354701 -0.678841
v -1.469059 0.353522 -0.729418
v -1.469237 0.354701 -0.729809
v -1.580124 0.354701 -0.679253
v -1.580438 0.354426 -0.679941
v -1.581163 0.353246 -0.679139
v -1.581341 0.354426 -0.679530
v -1.469551 0.354426 -0.730498
v -1.580260 0.353246 -0.679551
v -1.580438 0.354426 -0.679941
v -1.492694 0.515898 -0.784537
v -1.492380 0.516173 -0.783848
v -1.467999 0.354701 -0.730373
v -1.492694 0.515898 -0.784537
v -1.492846 0.516902 -0.784870
v -1.492532 0.517178 -0.784181
v -1.492380 0.516173 -0.783848
v -1.581027 0.354701 -0.678841
v -1.605408 0.516173 -0.732316
v -1.605722 0.515898 -0.733005
v -1.605408 0.516173 -0.732316
v -1.605559 0.517178 -0.732649
v -1.605873 0.516902 -0.733338
v -1.605722 0.515898 -0.733005
v -1.467999 0.354701 -0.730373
v -1.492380 0.516173 -0.783848
v -1.493618 0.516173 -0.783284
v -1.469237 0.354701 -0.729809
v -1.492380 0.516173 -0.783848
v -1.492532 0.517178 -0.784181
v -1.493618 0.516173 -0.783284
v -1.493932 0.515898 -0.783973
v -1.494083 0.516902 -0.784306
v -1.469551 0.354426 -0.730498
v -1.493932 0.515898 -0.783973
v -1.580124 0.354701 -0.679253
v -1.604505 0.516173 -0.732728
v -1.605408 0.516173 -0.732316
v -1.581027 0.354701 -0.678841
v -1.604505 0.516173 -0.732728
v -1.604657 0.517178 -0.733061
v -1.605408 0.516173 -0.732316
v -1.469237 0.354701 -0.729809
v -1.493618 0.516173 -0.783284
v -1.604505 0.516173 -0.732728
v -1.580124 0.354701 -0.679253
v -1.493618 0.516173 -0.783284
v -1.493769 0.517178 -0.783617
v -1.604505 0.516173 -0.732728
v -1.604819 0.515898 -0.733417
v -1.605873 0.516902 -0.733338
v -1.604819 0.515898 -0.733417
v -1.580438 0.354426 -0.679941
v -1.493932 0.515898 -0.783973
v -1.604819 0.515898 -0.733417
v -1.604971 0.516902 -0.733750
v -1.493932 0.515898 -0.783973
v -1.469551 0.354426 -0.730498
v -1.580438 0.354426 -0.679941
v -1.604819 0.515898 -0.733417
vn 0.218400 0.345000 -0.912800
vn -0.376000 0.422600 -0.824600
vn 0.175300 0.906300 0.384500
vn 0.668500 0.740000 0.074400
vn -0.175300 -0.906300 -0.384500
vn 0.382100 -0.740000 -0.553500
vn 0.832300 -0.345000 0.433800
vn 0.376000 -0.422600 0.824600
vn -0.376000 0.422600 -0.824600
vn -0.376000 0.422600 -0.824600
vn 0.175300 0.906300 0.384600
vn 0.175300 0.906300 0.384500
vn -0.376000 0.422600 -0.824600
vn -0.832300 0.345000 -0.433800
vn -0.382100 0.740000 0.553500
vn 0.175300 0.906300 0.384600
vn -0.668500 -0.740000 -0.074400
vn -0.175300 -0.906300 -0.384500
vn 0.376000 -0.422600 0.824600
vn -0.218300 -0.345000 0.912800
vn -0.175300 -0.906300 -0.384500
vn -0.175300 -0.906300 -0.384500
vn 0.376000 -0.422600 0.824600
vn 0.376000 -0.422600 0.824600
vn 0.382100 -0.740000 -0.553500
vn 0.367700 -0.241800 -0.897900
vn 0.919000 0.241900 0.311200
vn 0.832300 -0.345000 0.433800
vn -0.218300 -0.345000 0.912800
vn -0.367700 0.241900 0.897900
vn -0.919000 -0.241800 -0.311300
vn -0.668500 -0.740000 -0.074400
vn 0.832300 -0.345000 0.433800
vn 0.919000 0.241900 0.311200
vn 0.389800 0.342000 0.855000
vn 0.367700 -0.241800 -0.897900
vn -0.175300 -0.906300 -0.384500
vn -0.389800 -0.342000 -0.855000
vn 0.376000 -0.422600 0.824600
vn 0.389800 0.342000 0.855000
vn -0.367700 0.241900 0.897900
vn 0.376000 -0.422600 0.824600
vn 0.389800 0.342000 0.855000
vn 0.389800 0.342000 0.855000
vn -0.389800 -0.342000 -0.855000
vn -0.668500 -0.740000 -0.074400
vn -0.919000 -0.241800 -0.311300
vn -0.389800 -0.342000 -0.855000
vn -0.175300 -0.906300 -0.384500
vn -0.389800 -0.342000 -0.855000
vn 0.367700 -0.241900 -0.897900
vn 0.919000 0.241800 0.311200
vn 0.919000 0.241900 0.311200
vn 0.367700 -0.241900 -0.897900
vn 0.218400 0.345000 -0.912800
vn 0.668500 0.740000 0.074400
vn 0.919000 0.241800 0.311200
vn -0.367700 0.241900 0.897900
vn -0.367800 0.241800 0.897900
vn -0.919000 -0.241800 -0.311200
vn -0.367800 0.241800 0.897900
vn -0.382100 0.740000 0.553500
vn -0.832300 0.345000 -0.433800
vn -0.919000 -0.241800 -0.311200
vn 0.919000 0.241900 0.311200
vn 0.919000 0.241800 0.311200
vn 0.389800 0.342000 0.855000
vn 0.389800 0.342000 0.855000
vn 0.919000 0.241800 0.311200
vn 0.668500 0.740000 0.074400
vn 0.389800 0.342000 0.855000
vn -0.389800 -0.342000 -0.855000
vn -0.376000 0.422600 -0.824600
vn -0.389800 -0.342000 -0.855000
vn -0.389800 -0.342000 -0.855000
vn 0.389800 0.342000 0.855000
vn 0.389800 0.342000 0.855000
vn -0.367800 0.241800 0.897900
vn -0.367700 0.241900 0.897900
vn 0.389800 0.342000 0.855000
vn 0.175300 0.906300 0.384600
vn -0.367800 0.241800 0.897900
vn 0.389800 0.342000 0.855000
vn 0.389800 0.342000 0.855000
vn 0.389800 0.342000 0.855000
vn 0.389800 0.342000 0.855000
vn 0.389800 0.342000 0.855000
vn 0.175300 0.906300 0.384500
vn 0.389800 0.342000 0.855000
vn -0.389800 -0.342000 -0.855000
vn -0.832300 0.345000 -0.433800
vn -0.389800 -0.342000 -0.855000
vn -0.389800 -0.342000 -0.855000
vn -0.389800 -0.342000 -0.855000
vn -0.389800 -0.342000 -0.855000
vn -0.376000 0.422600 -0.824600
vn -0.389800 -0.342000 -0.855000
vn -0.389800 -0.342000 -0.855000
vn -0.389800 -0.342000 -0.855000
vn -0.389800 -0.342000 -0.855000
vt 0.000000 0.000000
vt 1.000000 0.000000
vt 1.000000 1.000000
vt 0.000000 1.000000
vt 0.000000 0.000000
vt 1.000000 0.000000
vt 1.000000 1.000000
vt 0.000000 1.000000
vt 0.000000 0.000000
vt 1.000000 0.000000
vt 1.000000 1.000000
vt 0.000000 1.000000
vt 0.000000 0.000000
vt 1.000000 0.000000
vt 1.000000 1.000000
vt 0.000000 1.000000
vt 0.000000 0.000000
vt 1.000000 0.000000
vt 1.000000 1.000000
vt 0.000000 1.000000
vt 0.000000 0.000000
vt 1.000000 0.000000
vt 1.000000 1.000000
vt 0.000000 1.000000
vt 0.000000 0.000000
vt 1.000000 0.000000
vt 1.000000 1.000000
vt 0.000000 1.000000
vt 0.000000 0.000000
vt 1.000000 0.000000
vt 1.000000 1.000000
vt 0.000000 1.000000
vt 0.000000 0.000000
vt 1.000000 0.000000
vt 1.000000 1.000000
vt 0.000000 0.000000
vt 1.000000 1.000000
vt 0.000000 1.000000
vt 0.000000 0.000000
vt 1.000000 0.000000
vt 1.000000 1.000000
vt 0.000000 0.000000
vt 1.000000 0.000000
vt 1.000000 1.000000
vt 0.000000 0.000000
vt 1.000000 1.000000
vt 0.000000 1.000000
vt 0.000000 0.000000
vt 1.000000 1.000000
vt 0.000000 1.000000
vt 1.000000 0.000000
vt 1.000000 1.000000
vt 0.000000 1.000000
vt 0.000000 0.000000
vt 1.000000 0.000000
vt 1.000000 1.000000
vt 0.000000 1.000000
vt 0.000000 0.000000
vt 1.000000 0.000000
vt 1.000000 1.000000
vt 0.000000 0.000000
vt 1.000000 0.000000
vt 1.000000 1.000000
vt 0.000000 1.000000
vt 0.000000 0.000000
vt 1.000000 0.000000
vt 1.000000 1.000000
vt 0.000000 1.000000
vt 0.000000 0.000000
vt 1.000000 0.000000
vt 0.000000 1.000000
vt 1.000000 1.000000
vt 0.000000 1.000000
vt 1.000000 1.000000
vt 0.000000 1.000000
vt 0.000000 0.000000
vt 1.000000 0.000000
vt 1.000000 1.000000
vt 0.000000 1.000000
vt 0.000000 0.000000
vt 1.000000 0.000000
vt 0.000000 1.000000
vt 0.000000 0.000000
vt 1.000000 0.000000
vt 1.000000 1.000000
vt 0.000000 1.000000
vt 0.000000 0.000000
vt 1.000000 0.000000
vt 0.000000 1.000000
vt 1.000000 0.000000
vt 0.000000 1.000000
vt 0.000000 0.000000
vt 1.000000 0.000000
vt 1.000000 0.000000
vt 1.000000 1.000000
vt 0.000000 1.000000
vt 0.000000 0.000000
vt 1.000000 0.000000
vt 1.000000 1.000000
vt 0.000000 1.000000
f 1/1/1 2/2/2 3/3/3
f 1/1/1 3/3/3 4/4/4
f 5/5/5 6/6/6 7/7/7
f 5/5/5 7/7/7 8/8/8
f 9/9/9 10/10/10 11/11/11
f 9/9/9 11/11/11 12/12/12
f 13/13/13 14/14/14 15/15/15
f 13/13/13 15/15/15 16/16/16
f 17/17/17 18/18/18 19/19/19
f 17/17/17 19/19/19 20/20/20
f 21/21/21 22/22/22 23/23/23
f 21/21/21 23/23/23 24/24/24
f 25/25/25 26/26/26 27/27/27
f 25/25/25 27/27/27 28/28/28
f 29/29/29 30/30/30 31/31/31
f 29/29/29 31/31/31 32/32/32
f 33/33/33 34/34/34 35/35/35
f 33/33/33 35/35/35 8/8/8
f 36/36/36 6/6/6 37/37/37
f 36/36/36 37/37/37 38/38/38
f 39/39/39 40/40/40 41/41/41
f 39/39/39 41/41/41 20/20/20
f 42/42/42 43/43/43 44/44/44
f 42/42/42 44/44/44 24/24/24
f 45/45/45 18/18/18 46/46/46
f 45/45/45 46/46/46 47/47/47
f 48/48/48 22/22/22 49/49/49
f 48/48/48 49/49/49 50/50/50
f 36/36/36 51/51/51 52/52/52
f 36/36/36 52/52/52 53/53/53
f 54/54/54 55/55/55 56/56/56
f 54/54/54 56/56/56 57/57/57
f 58/58/58 59/59/59 60/60/60
f 58/58/58 60/60/60 47/47/47
f 61/61/61 62/62/62 63/63/63
f 61/61/61 63/63/63 64/64/64
f 65/65/65 66/66/66 67/67/67
f 65/65/65 67/67/67 68/68/68
f 69/69/69 70/70/70 3/3/3
f 69/69/69 3/3/3 71/71/71
f 1/1/1 51/51/51 72/72/72
f 1/1/1 72/72/72 73/73/73
f 54/54/54 26/26/26 74/74/74
f 54/54/54 74/74/74 75/75/75
f 76/76/76 77/77/77 78/78/78
f 76/76/76 78/78/78 79/79/79
f 80/80/80 81/81/81 15/15/15
f 80/80/80 15/15/15 82/82/82
f 83/83/83 84/84/84 85/85/85
f 83/83/83 85/85/85 86/86/86
f 87/87/87 88/88/88 11/11/11
f 87/87/87 11/11/11 89/89/89
f 13/13/13 90/90/90 60/60/60
f 13/13/13 60/60/60 91/91/91
f 92/92/92 93/93/93 31/31/31
f 92/92/92 31/31/31 64/64/64
f 9/9/9 94/94/94 95/95/95
f 9/9/9 95/95/95 96/96/96
f 97/97/97 98/98/98 99/99/99
f 97/97/97 99/99/99 100/100/100
