v -2.097515 1.461735 1.138360
v -2.115422 1.461735 1.138360
v -2.115422 1.461735 1.180122
v -2.097515 1.461735 1.180122
v -2.097515 0.858622 1.181122
v -2.097515 1.460735 1.181122
v -2.115422 1.460735 1.181122
v -2.115422 0.858622 1.181122
v -2.097515 0.814859 2.047539
v -2.097515 0.856622 2.047539
v -2.115422 0.856622 2.047539
v -2.115422 0.814859 2.047539
v -2.116421 1.460735 2.046539
v -2.116421 1.460735 2.004776
v -2.116422 0.858622 2.004776
v -2.116422 0.858622 2.046539
v -2.116421 0.856622 1.138359
v -2.116421 0.814859 1.138360
v -2.116422 0.814859 2.046539
v -2.116422 0.856622 2.046539
v -2.097515 1.504498 2.047539
v -2.115422 1.504498 2.047539
v -2.115422 1.462735 2.047539
v -2.097515 1.462735 2.047539
v -2.097515 0.857622 1.138360
v -2.097515 0.857622 1.180122
v -2.115422 0.857622 1.180122
v -2.115422 0.857622 1.138360
v -2.115422 1.504498 1.137359
v -2.097515 1.504498 1.137359
v -2.097515 1.462735 1.137359
v -2.115422 1.462735 1.137359
v -2.097515 1.461735 2.046539
v -2.097515 1.461735 2.004776
v -2.115422 1.461735 2.004776
v -2.115422 1.461735 2.046539
v -2.115422 0.858622 2.003776
v -2.111316 0.858622 2.003776
v -2.111316 1.460735 2.003776
v -2.115422 1.460735 2.003776
v -2.115422 1.460735 2.003776
v -2.097515 1.460735 2.003776
v -2.097515 0.858622 2.003776
v -2.115422 0.858622 2.003776
v -2.096515 1.504498 2.046539
v -2.096515 1.462735 2.046539
v -2.096515 1.462735 1.138360
v -2.096515 1.504498 1.138359
v -2.097515 0.857622 2.046539
v -2.115422 0.857622 2.046539
v -2.115422 0.857622 2.004776
v -2.097515 0.857622 2.004776
v -2.115422 0.857622 1.138359
v -2.115422 0.857622 2.046539
v -2.097515 0.857622 2.046539
v -2.097515 0.857622 1.138359
v -2.115422 1.460735 1.181122
v -2.111316 1.460735 1.181122
v -2.111316 0.858622 1.181122
v -2.115422 0.858622 1.181122
v -2.116422 0.858622 1.138360
v -2.116422 0.858622 1.180122
v -2.116421 1.460735 1.180122
v -2.116421 1.460735 1.138360
v -2.115422 1.505498 2.046539
v -2.097515 1.505498 2.046539
v -2.097515 1.505498 1.138359
v -2.115422 1.505498 1.138359
v -2.111316 0.857622 1.182122
v -2.111316 0.857622 2.002776
v -2.115422 0.857622 2.002776
v -2.115422 0.857622 1.182122
v -2.096515 0.814859 2.046539
v -2.096515 0.814859 1.138360
v -2.096515 0.856622 1.138359
v -2.096515 0.856622 2.046539
v -2.116421 1.504498 1.138359
v -2.116421 1.462735 1.138360
v -2.116422 1.462735 2.046539
v -2.116422 1.504498 2.046539
v -2.115422 0.813859 1.138360
v -2.097515 0.813859 1.138360
v -2.097515 0.813859 2.046539
v -2.115422 0.813859 2.046539
v -2.096515 1.460735 2.046539
v -2.096515 0.858622 2.046539
v -2.096515 0.858622 2.004776
v -2.096515 1.460735 2.004776
v -2.096515 1.460735 1.138360
v -2.096515 1.460735 1.180122
v -2.096515 0.858622 1.180122
v -2.096515 0.858622 1.138360
v -2.115422 0.858622 1.137359
v -2.115422 1.460735 1.137359
v -2.097515 1.460735 1.137359
v -2.097515 0.858622 1.137359
v -2.115422 1.461735 1.182122
v -2.115422 1.461735 2.002776
v -2.111316 1.461735 2.002776
v -2.111316 1.461735 1.182122
v -2.110316 1.460735 1.182122
v -2.110316 1.460735 2.002776
v -2.110316 0.858622 2.002776
v -2.110316 0.858622 1.182122
v -2.115422 1.460735 2.047539
v -2.115422 0.858622 2.047539
v -2.097515 0.858622 2.047539
v -2.097515 1.460735 2.047539
v -2.116421 0.858622 1.182122
v -2.116421 0.858622 2.002776
v -2.116421 1.460735 2.002776
v -2.116421 1.460735 1.182122
v -2.115422 1.461735 1.138360
v -2.097515 1.461735 1.138360
v -2.097515 1.461735 2.046539
v -2.115422 1.461735 2.046539
v -2.116421 0.814859 1.138360
v -2.115422 0.814859 1.137359
v -2.115422 0.813859 1.138360
v -2.116422 0.814859 2.046539
v -2.115422 0.813859 2.046539
v -2.115422 0.814859 2.047539
v -2.116422 0.856622 2.046539
v -2.115422 0.856622 2.047539
v -2.115422 0.857622 2.046539
v -2.116421 0.856622 1.138359
v -2.115422 0.857622 1.138359
v -2.115422 0.856622 1.137359
v -2.096515 0.856622 1.138359
v -2.097515 0.856622 1.137359
v -2.097515 0.857622 1.138359
v -2.096515 0.856622 2.046539
v -2.097515 0.857622 2.046539
v -2.097515 0.856622 2.047539
v -2.096515 0.814859 2.046539
v -2.097515 0.814859 2.047539
v -2.097515 0.813859 2.046539
v -2.096515 0.814859 1.138360
v -2.097515 0.813859 1.138360
v -2.097515 0.814859 1.137359
v -2.096515 1.462735 1.138360
v -2.097515 1.461735 1.138360
v -2.097515 1.462735 1.137359
v -2.096515 1.462735 2.046539
v -2.097515 1.462735 2.047539
v -2.097515 1.461735 2.046539
v -2.096515 1.504498 2.046539
v -2.097515 1.505498 2.046539
v -2.097515 1.504498 2.047539
v -2.096515 1.504498 1.138359
v -2.097515 1.504498 1.137359
v -2.097515 1.505498 1.138359
v -2.116421 1.504498 1.138359
v -2.115422 1.505498 1.138359
v -2.115422 1.504498 1.137359
v -2.116422 1.504498 2.046539
v -2.115422 1.504498 2.047539
v -2.115422 1.505498 2.046539
v -2.116422 1.462735 2.046539
v -2.115422 1.461735 2.046539
v -2.115422 1.462735 2.047539
v -2.116421 1.462735 1.138360
v -2.115422 1.462735 1.137359
v -2.115422 1.461735 1.138360
v -2.116421 1.460735 2.004776
v -2.115422 1.461735 2.004776
v -2.115422 1.460735 2.003776
v -2.116422 0.858622 2.004776
v -2.115422 0.858622 2.003776
v -2.115422 0.857622 2.004776
v -2.116422 0.858622 2.046539
v -2.115422 0.857622 2.046539
v -2.115422 0.858622 2.047539
v -2.116421 1.460735 2.046539
v -2.115422 1.460735 2.047539
v -2.115422 1.461735 2.046539
v -2.096515 1.460735 2.046539
v -2.097515 1.461735 2.046539
v -2.097515 1.460735 2.047539
v -2.096515 0.858622 2.046539
v -2.097515 0.858622 2.047539
v -2.097515 0.857622 2.046539
v -2.096515 0.858622 2.004776
v -2.097515 0.857622 2.004776
v -2.097515 0.858622 2.003776
v -2.096515 1.460735 2.004776
v -2.097515 1.460735 2.003776
v -2.097515 1.461735 2.004776
v -2.097515 1.460735 1.137359
v -2.097515 1.461735 1.138360
v -2.096515 1.460735 1.138360
v -2.097515 0.858622 1.137359
v -2.096515 0.858622 1.138360
v -2.097515 0.857622 1.138360
v -2.097515 0.858622 1.181122
v -2.097515 0.857622 1.180122
v -2.096515 0.858622 1.180122
v -2.097515 1.460735 1.181122
v -2.096515 1.460735 1.180122
v -2.097515 1.461735 1.180122
v -2.115422 1.460735 1.181122
v -2.115422 1.461735 1.180122
v -2.116421 1.460735 1.180122
v -2.115422 0.858622 1.181122
v -2.116422 0.858622 1.180122
v -2.115422 0.857622 1.180122
v -2.115422 0.858622 1.137359
v -2.115422 0.857622 1.138360
v -2.116422 0.858622 1.138360
v -2.115422 1.460735 1.137359
v -2.116421 1.460735 1.138360
v -2.115422 1.461735 1.138360
v -2.116421 0.858622 1.182122
v -2.115422 0.858622 1.181122
v -2.115422 0.857622 1.182122
v -2.116421 1.460735 1.182122
v -2.115422 1.461735 1.182122
v -2.115422 1.460735 1.181122
v -2.116421 0.858622 2.002776
v -2.115422 0.857622 2.002776
v -2.115422 0.858622 2.003776
v -2.116421 1.460735 2.002776
v -2.115422 1.460735 2.003776
v -2.115422 1.461735 2.002776
v -2.110316 1.460735 2.002776
v -2.111316 1.461735 2.002776
v -2.111316 1.460735 2.003776
v -2.110316 0.858622 2.002776
v -2.111316 0.858622 2.003776
v -2.111316 0.857622 2.002776
v -2.110316 1.460735 1.182122
v -2.111316 1.460735 1.181122
v -2.111316 1.461735 1.182122
v -2.110316 0.858622 1.182122
v -2.111316 0.857622 1.182122
v -2.111316 0.858622 1.181122
v -2.097515 0.858622 1.137359
v -2.097515 1.460735 1.137359
v -2.096515 1.460735 1.138360
v -2.096515 0.858622 1.138360
v -2.097515 1.460735 1.181122
v -2.097515 0.858622 1.181122
v -2.096515 0.858622 1.180122
v -2.096515 1.460735 1.180122
v -2.115422 0.858622 1.181122
v -2.115422 1.460735 1.181122
v -2.116421 1.460735 1.180122
v -2.116422 0.858622 1.180122
v -2.115422 1.460735 1.137359
v -2.115422 0.858622 1.137359
v -2.116422 0.858622 1.138360
v -2.116421 1.460735 1.138360
v -2.096515 0.858622 1.138360
v -2.096515 0.858622 1.180122
v -2.097515 0.857622 1.180122
v -2.097515 0.857622 1.138360
v -2.096515 1.460735 1.180122
v -2.096515 1.460735 1.138360
v -2.097515 1.461735 1.138360
v -2.097515 1.461735 1.180122
v -2.115422 1.461735 1.180122
v -2.115422 1.461735 1.138360
v -2.116421 1.460735 1.138360
v -2.116421 1.460735 1.180122
v -2.115422 0.857622 1.138360
v -2.115422 0.857622 1.180122
v -2.116422 0.858622 1.180122
v -2.116422 0.858622 1.138360
v -2.097515 0.857622 1.138360
v -2.115422 0.857622 1.138360
v -2.115422 0.858622 1.137359
v -2.097515 0.858622 1.137359
v -2.097515 1.460735 1.137359
v -2.115422 1.460735 1.137359
v -2.115422 1.461735 1.138360
v -2.097515 1.461735 1.138360
v -2.115422 0.857622 1.180122
v -2.097515 0.857622 1.180122
v -2.097515 0.858622 1.181122
v -2.115422 0.858622 1.181122
v -2.097515 1.461735 1.180122
v -2.115422 1.461735 1.180122
v -2.115422 1.460735 1.181122
v -2.097515 1.460735 1.181122
v -2.116422 0.856622 2.046539
v -2.116422 0.814859 2.046539
v -2.115422 0.814859 2.047539
v -2.115422 0.856622 2.047539
v -2.115422 0.856622 1.137359
v -2.115422 0.814859 1.137359
v -2.116421 0.814859 1.138360
v -2.116421 0.856622 1.138359
v -2.096515 0.856622 1.138359
v -2.096515 0.814859 1.138360
v -2.097515 0.814859 1.137359
v -2.097515 0.856622 1.137359
v -2.097515 0.856622 2.047539
v -2.097515 0.814859 2.047539
v -2.096515 0.814859 2.046539
v -2.096515 0.856622 2.046539
v -2.115422 0.857622 1.138359
v -2.097515 0.857622 1.138359
v -2.097515 0.856622 1.137359
v -2.115422 0.856622 1.137359
v -2.115422 0.856622 2.047539
v -2.097515 0.856622 2.047539
v -2.097515 0.857622 2.046539
v -2.115422 0.857622 2.046539
v -2.115422 0.814859 1.137359
v -2.097515 0.814859 1.137359
v -2.097515 0.813859 1.138360
v -2.115422 0.813859 1.138360
v -2.115422 0.813859 2.046539
v -2.097515 0.813859 2.046539
v -2.097515 0.814859 2.047539
v -2.115422 0.814859 2.047539
v -2.096515 1.462735 2.046539
v -2.096515 1.504498 2.046539
v -2.097515 1.504498 2.047539
v -2.097515 1.462735 2.047539
v -2.097515 1.462735 1.137359
v -2.097515 1.504498 1.137359
v -2.096515 1.504498 1.138359
v -2.096515 1.462735 1.138360
v -2.116421 1.462735 1.138360
v -2.116421 1.504498 1.138359
v -2.115422 1.504498 1.137359
v -2.115422 1.462735 1.137359
v -2.115422 1.462735 2.047539
v -2.115422 1.504498 2.047539
v -2.116422 1.504498 2.046539
v -2.116422 1.462735 2.046539
v -2.097515 1.462735 2.047539
v -2.115422 1.462735 2.047539
v -2.115422 1.461735 2.046539
v -2.097515 1.461735 2.046539
v -2.097515 1.461735 1.138360
v -2.115422 1.461735 1.138360
v -2.115422 1.462735 1.137359
v -2.097515 1.462735 1.137359
v -2.097515 1.505498 2.046539
v -2.115422 1.505498 2.046539
v -2.115422 1.504498 2.047539
v -2.097515 1.504498 2.047539
v -2.097515 1.504498 1.137359
v -2.115422 1.504498 1.137359
v -2.115422 1.505498 1.138359
v -2.097515 1.505498 1.138359
v -2.096515 1.462735 1.138360
v -2.096515 1.462735 2.046539
v -2.097515 1.461735 2.046539
v -2.097515 1.461735 1.138360
v -2.096515 1.504498 2.046539
v -2.096515 1.504498 1.138359
v -2.097515 1.505498 1.138359
v -2.097515 1.505498 2.046539
v -2.116421 1.504498 1.138359
v -2.116422 1.504498 2.046539
v -2.115422 1.505498 2.046539
v -2.115422 1.505498 1.138359
v -2.116422 1.462735 2.046539
v -2.116421 1.462735 1.138360
v -2.115422 1.461735 1.138360
v -2.115422 1.461735 2.046539
v -2.115422 0.857622 2.004776
v -2.115422 0.857622 2.046539
v -2.116422 0.858622 2.046539
v -2.116422 0.858622 2.004776
v -2.116421 1.460735 2.004776
v -2.116421 1.460735 2.046539
v -2.115422 1.461735 2.046539
v -2.115422 1.461735 2.004776
v -2.097515 1.461735 2.004776
v -2.097515 1.461735 2.046539
v -2.096515 1.460735 2.046539
v -2.096515 1.460735 2.004776
v -2.096515 0.858622 2.004776
v -2.096515 0.858622 2.046539
v -2.097515 0.857622 2.046539
v -2.097515 0.857622 2.004776
v -2.115422 1.460735 2.047539
v -2.097515 1.460735 2.047539
v -2.097515 1.461735 2.046539
v -2.115422 1.461735 2.046539
v -2.097515 0.858622 2.047539
v -2.115422 0.858622 2.047539
v -2.115422 0.857622 2.046539
v -2.097515 0.857622 2.046539
v -2.097515 1.460735 2.003776
v -2.115422 1.460735 2.003776
v -2.115422 1.461735 2.004776
v -2.097515 1.461735 2.004776
v -2.097515 0.857622 2.004776
v -2.115422 0.857622 2.004776
v -2.115422 0.858622 2.003776
v -2.097515 0.858622 2.003776
v -2.116422 0.858622 2.004776
v -2.116421 1.460735 2.004776
v -2.115422 1.460735 2.003776
v -2.115422 0.858622 2.003776
v -2.115422 0.858622 2.047539
v -2.115422 1.460735 2.047539
v -2.116421 1.460735 2.046539
v -2.116422 0.858622 2.046539
v -2.096515 0.858622 2.046539
v -2.096515 1.460735 2.046539
v -2.097515 1.460735 2.047539
v -2.097515 0.858622 2.047539
v -2.097515 0.858622 2.003776
v -2.097515 1.460735 2.003776
v -2.096515 1.460735 2.004776
v -2.096515 0.858622 2.004776
v -2.116422 0.814859 2.046539
v -2.116421 0.814859 1.138360
v -2.115422 0.813859 1.138360
v -2.115422 0.813859 2.046539
v -2.115422 0.857622 2.046539
v -2.115422 0.857622 1.138359
v -2.116421 0.856622 1.138359
v -2.116422 0.856622 2.046539
v -2.096515 0.856622 2.046539
v -2.096515 0.856622 1.138359
v -2.097515 0.857622 1.138359
v -2.097515 0.857622 2.046539
v -2.097515 0.813859 2.046539
v -2.097515 0.813859 1.138360
v -2.096515 0.814859 1.138360
v -2.096515 0.814859 2.046539
v -2.115422 1.460735 1.181122
v -2.115422 0.858622 1.181122
v -2.116421 0.858622 1.182122
v -2.116421 1.460735 1.182122
v -2.116421 1.460735 2.002776
v -2.116421 0.858622 2.002776
v -2.115422 0.858622 2.003776
v -2.115422 1.460735 2.003776
v -2.110316 0.858622 2.002776
v -2.110316 1.460735 2.002776
v -2.111316 1.460735 2.003776
v -2.111316 0.858622 2.003776
v -2.111316 0.858622 1.181122
v -2.111316 1.460735 1.181122
v -2.110316 1.460735 1.182122
v -2.110316 0.858622 1.182122
v -2.115422 1.460735 2.003776
v -2.111316 1.460735 2.003776
v -2.111316 1.461735 2.002776
v -2.115422 1.461735 2.002776
v -2.111316 1.460735 1.181122
v -2.115422 1.460735 1.181122
v -2.115422 1.461735 1.182122
v -2.111316 1.461735 1.182122
v -2.115422 0.858622 1.181122
v -2.111316 0.858622 1.181122
v -2.111316 0.857622 1.182122
v -2.115422 0.857622 1.182122
v -2.111316 0.858622 2.003776
v -2.115422 0.858622 2.003776
v -2.115422 0.857622 2.002776
v -2.111316 0.857622 2.002776
v -2.116421 0.858622 2.002776
v -2.116421 0.858622 1.182122
v -2.115422 0.857622 1.182122
v -2.115422 0.857622 2.002776
v -2.115422 1.461735 2.002776
v -2.115422 1.461735 1.182122
v -2.116421 1.460735 1.182122
v -2.116421 1.460735 2.002776
v -2.111316 1.461735 1.182122
v -2.111316 1.461735 2.002776
v -2.110316 1.460735 2.002776
v -2.110316 1.460735 1.182122
v -2.110316 0.858622 1.182122
v -2.110316 0.858622 2.002776
v -2.111316 0.857622 2.002776
v -2.111316 0.857622 1.182122
v -2.097515 0.856622 1.137359
v -2.097515 0.814859 1.137359
v -2.115422 0.814859 1.137359
v -2.115422 0.856622 1.137359
vn 0.000000 1.000000 0.000000
vn 0.000000 1.000000 0.000000
vn 0.000000 1.000000 0.000000
vn 0.000000 1.000000 0.000000
vn 0.000000 0.000000 1.000000
vn 0.000000 0.000000 1.000000
vn 0.000000 0.000000 1.000000
vn 0.000000 0.000000 1.000000
vn 0.000000 0.000000 1.000000
vn 0.000000 0.000000 1.000000
vn 0.000000 0.000000 1.000000
vn 0.000000 0.000000 1.000000
vn -1.000000 0.000000 0.000000
vn -1.000000 0.000000 0.000000
vn -1.000000 0.000000 0.000000
vn -1.000000 0.000000 0.000000
vn -1.000000 0.000000 0.000000
vn -1.000000 0.000000 0.000000
vn -1.000000 0.000000 0.000000
vn -1.000000 0.000000 0.000000
vn 0.000000 0.000000 1.000000
vn 0.000000 0.000000 1.000000
vn 0.000000 0.000000 1.000000
vn 0.000000 0.000000 1.000000
vn 0.000000 -1.000000 0.000000
vn 0.000000 -1.000000 0.000000
vn 0.000000 -1.000000 0.000000
vn 0.000000 -1.000000 0.000000
vn 0.000000 0.000000 -1.000000
vn 0.000000 0.000000 -1.000000
vn 0.000000 0.000000 -1.000000
vn 0.000000 0.000000 -1.000000
vn 0.000000 1.000000 0.000000
vn 0.000000 1.000000 0.000000
vn 0.000000 1.000000 0.000000
vn 0.000000 1.000000 0.000000
vn 0.000000 0.000000 1.000000
vn 0.000000 0.000000 1.000000
vn 0.000000 0.000000 1.000000
vn 0.000000 0.000000 1.000000
vn 0.000000 0.000000 -1.000000
vn 0.000000 0.000000 -1.000000
vn 0.000000 0.000000 -1.000000
vn 0.000000 0.000000 -1.000000
vn 1.000000 0.000000 0.000000
vn 1.000000 0.000000 0.000000
vn 1.000000 0.000000 0.000000
vn 1.000000 0.000000 0.000000
vn 0.000000 -1.000000 0.000000
vn 0.000000 -1.000000 0.000000
vn 0.000000 -1.000000 0.000000
vn 0.000000 -1.000000 0.000000
vn 0.000000 1.000000 0.000000
vn 0.000000 1.000000 0.000000
vn 0.000000 1.000000 0.000000
vn 0.000000 1.000000 0.000000
vn 0.000000 0.000000 -1.000000
vn 0.000000 0.000000 -1.000000
vn 0.000000 0.000000 -1.000000
vn 0.000000 0.000000 -1.000000
vn -1.000000 0.000000 0.000000
vn -1.000000 0.000000 0.000000
vn -1.000000 0.000000 0.000000
vn -1.000000 0.000000 0.000000
vn 0.000000 1.000000 0.000000
vn 0.000000 1.000000 0.000000
vn 0.000000 1.000000 0.000000
vn 0.000000 1.000000 0.000000
vn 0.000000 -1.000000 0.000000
vn 0.000000 -1.000000 0.000000
vn 0.000000 -1.000000 0.000000
vn 0.000000 -1.000000 0.000000
vn 1.000000 0.000000 0.000000
vn 1.000000 0.000000 0.000000
vn 1.000000 0.000000 0.000000
vn 1.000000 0.000000 0.000000
vn -1.000000 0.000000 0.000000
vn -1.000000 0.000000 0.000000
vn -1.000000 0.000000 0.000000
vn -1.000000 0.000000 0.000000
vn 0.000000 -1.000000 0.000000
vn 0.000000 -1.000000 0.000000
vn 0.000000 -1.000000 0.000000
vn 0.000000 -1.000000 0.000000
vn 1.000000 0.000000 0.000000
vn 1.000000 0.000000 0.000000
vn 1.000000 0.000000 0.000000
vn 1.000000 0.000000 0.000000
vn 1.000000 0.000000 0.000000
vn 1.000000 0.000000 0.000000
vn 1.000000 0.000000 0.000000
vn 1.000000 0.000000 0.000000
vn 0.000000 0.000000 -1.000000
vn 0.000000 0.000000 -1.000000
vn 0.000000 0.000000 -1.000000
vn 0.000000 0.000000 -1.000000
vn 0.000000 1.000000 0.000000
vn 0.000000 1.000000 0.000000
vn 0.000000 1.000000 0.000000
vn 0.000000 1.000000 0.000000
vn 1.000000 0.000000 0.000000
vn 1.000000 0.000000 0.000000
vn 1.000000 0.000000 0.000000
vn 1.000000 0.000000 0.000000
vn 0.000000 0.000000 1.000000
vn 0.000000 0.000000 1.000000
vn 0.000000 0.000000 1.000000
vn 0.000000 0.000000 1.000000
vn -1.000000 0.000000 0.000000
vn -1.000000 0.000000 0.000000
vn -1.000000 0.000000 0.000000
vn -1.000000 0.000000 0.000000
vn 0.000000 -1.000000 0.000000
vn 0.000000 -1.000000 0.000000
vn 0.000000 -1.000000 0.000000
vn 0.000000 -1.000000 0.000000
vn -0.577300 -0.577300 -0.577400
vn -0.577300 -0.577300 -0.577400
vn -0.577300 -0.577300 -0.577400
vn -0.577300 -0.577300 0.577500
vn -0.577300 -0.577300 0.577500
vn -0.577300 -0.577300 0.577500
vn -0.577500 0.577300 0.577200
vn -0.577500 0.577300 0.577200
vn -0.577500 0.577300 0.577200
vn -0.577300 0.577300 -0.577400
vn -0.577300 0.577300 -0.577400
vn -0.577300 0.577300 -0.577400
vn 0.577300 0.577300 -0.577400
vn 0.577300 0.577300 -0.577400
vn 0.577300 0.577300 -0.577400
vn 0.577600 0.577300 0.577200
vn 0.577600 0.577300 0.577200
vn 0.577600 0.577300 0.577200
vn 0.577300 -0.577300 0.577400
vn 0.577300 -0.577300 0.577400
vn 0.577300 -0.577300 0.577400
vn 0.577200 -0.577400 -0.577400
vn 0.577200 -0.577400 -0.577400
vn 0.577200 -0.577400 -0.577400
vn 0.577300 -0.577400 -0.577300
vn 0.577300 -0.577400 -0.577300
vn 0.577300 -0.577400 -0.577300
vn 0.577500 -0.577200 0.577300
vn 0.577500 -0.577200 0.577300
vn 0.577500 -0.577200 0.577300
vn 0.577400 0.577400 0.577200
vn 0.577400 0.577400 0.577200
vn 0.577400 0.577400 0.577200
vn 0.577400 0.577300 -0.577400
vn 0.577400 0.577300 -0.577400
vn 0.577400 0.577300 -0.577400
vn -0.577400 0.577300 -0.577300
vn -0.577400 0.577300 -0.577300
vn -0.577400 0.577300 -0.577300
vn -0.577400 0.577400 0.577300
vn -0.577400 0.577400 0.577300
vn -0.577400 0.577400 0.577300
vn -0.577500 -0.577200 0.577300
vn -0.577500 -0.577200 0.577300
vn -0.577500 -0.577200 0.577300
vn -0.577400 -0.577300 -0.577400
vn -0.577400 -0.577300 -0.577400
vn -0.577400 -0.577300 -0.577400
vn -0.577300 0.577300 -0.577400
vn -0.577300 0.577300 -0.577400
vn -0.577300 0.577300 -0.577400
vn -0.577400 -0.577200 -0.577400
vn -0.577400 -0.577200 -0.577400
vn -0.577400 -0.577200 -0.577400
vn -0.577300 -0.577300 0.577500
vn -0.577300 -0.577300 0.577500
vn -0.577300 -0.577300 0.577500
vn -0.577400 0.577400 0.577300
vn -0.577400 0.577400 0.577300
vn -0.577400 0.577400 0.577300
vn 0.577400 0.577400 0.577300
vn 0.577400 0.577400 0.577300
vn 0.577400 0.577400 0.577300
vn 0.577300 -0.577300 0.577400
vn 0.577300 -0.577300 0.577400
vn 0.577300 -0.577300 0.577400
vn 0.577500 -0.577200 -0.577300
vn 0.577500 -0.577200 -0.577300
vn 0.577500 -0.577200 -0.577300
vn 0.577300 0.577300 -0.577400
vn 0.577300 0.577300 -0.577400
vn 0.577300 0.577300 -0.577400
vn 0.577200 0.577500 -0.577300
vn 0.577200 0.577500 -0.577300
vn 0.577200 0.577500 -0.577300
vn 0.577300 -0.577400 -0.577300
vn 0.577300 -0.577400 -0.577300
vn 0.577300 -0.577400 -0.577300
vn 0.577300 -0.577400 0.577300
vn 0.577300 -0.577400 0.577300
vn 0.577300 -0.577400 0.577300
vn 0.577400 0.577300 0.577400
vn 0.577400 0.577300 0.577400
vn 0.577400 0.577300 0.577400
vn -0.577400 0.577300 0.577400
vn -0.577400 0.577300 0.577400
vn -0.577400 0.577300 0.577400
vn -0.577300 -0.577200 0.577400
vn -0.577300 -0.577200 0.577400
vn -0.577300 -0.577200 0.577400
vn -0.577300 -0.577200 -0.577500
vn -0.577300 -0.577200 -0.577500
vn -0.577300 -0.577200 -0.577500
vn -0.577300 0.577300 -0.577400
vn -0.577300 0.577300 -0.577400
vn -0.577300 0.577300 -0.577400
vn -0.577500 -0.577200 -0.577300
vn -0.577500 -0.577200 -0.577300
vn -0.577500 -0.577200 -0.577300
vn -0.577400 0.577300 -0.577400
vn -0.577400 0.577300 -0.577400
vn -0.577400 0.577300 -0.577400
vn -0.577300 -0.577300 0.577400
vn -0.577300 -0.577300 0.577400
vn -0.577300 -0.577300 0.577400
vn -0.577300 0.577300 0.577400
vn -0.577300 0.577300 0.577400
vn -0.577300 0.577300 0.577400
vn 0.577200 0.577500 0.577300
vn 0.577200 0.577500 0.577300
vn 0.577200 0.577500 0.577300
vn 0.577200 -0.577400 0.577400
vn 0.577200 -0.577400 0.577400
vn 0.577200 -0.577400 0.577400
vn 0.577400 0.577300 -0.577400
vn 0.577400 0.577300 -0.577400
vn 0.577400 0.577300 -0.577400
vn 0.577300 -0.577500 -0.577200
vn 0.577300 -0.577500 -0.577200
vn 0.577300 -0.577500 -0.577200
vn 0.707100 0.000000 -0.707100
vn 0.707100 0.000000 -0.707100
vn 0.707100 0.000000 -0.707100
vn 0.707100 0.000000 -0.707100
vn 0.707100 0.000000 0.707100
vn 0.707100 0.000000 0.707100
vn 0.707100 0.000000 0.707100
vn 0.707100 0.000000 0.707100
vn -0.707100 0.000000 0.707100
vn -0.707100 0.000000 0.707100
vn -0.707100 0.000000 0.707100
vn -0.707100 0.000000 0.707100
vn -0.707100 0.000000 -0.707100
vn -0.707100 0.000000 -0.707100
vn -0.707100 0.000000 -0.707100
vn -0.707100 0.000000 -0.707100
vn 0.707100 -0.707100 0.000000
vn 0.707100 -0.707100 0.000000
vn 0.707100 -0.707100 0.000000
vn 0.707100 -0.707100 0.000000
vn 0.707000 0.707200 0.000000
vn 0.707000 0.707200 0.000000
vn 0.707000 0.707200 0.000000
vn 0.707000 0.707200 0.000000
vn -0.707100 0.707100 0.000000
vn -0.707100 0.707100 0.000000
vn -0.707100 0.707100 0.000000
vn -0.707100 0.707100 0.000000
vn -0.707100 -0.707100 0.000000
vn -0.707100 -0.707100 0.000000
vn -0.707100 -0.707100 0.000000
vn -0.707100 -0.707100 0.000000
vn 0.000000 -0.707100 -0.707100
vn 0.000000 -0.707100 -0.707100
vn 0.000000 -0.707100 -0.707100
vn 0.000000 -0.707100 -0.707100
vn 0.000000 0.707100 -0.707100
vn 0.000000 0.707100 -0.707100
vn 0.000000 0.707100 -0.707100
vn 0.000000 0.707100 -0.707100
vn 0.000000 -0.707100 0.707100
vn 0.000000 -0.707100 0.707100
vn 0.000000 -0.707100 0.707100
vn 0.000000 -0.707100 0.707100
vn 0.000000 0.707100 0.707100
vn 0.000000 0.707100 0.707100
vn 0.000000 0.707100 0.707100
vn 0.000000 0.707100 0.707100
vn -0.707100 0.000000 0.707100
vn -0.707100 0.000000 0.707100
vn -0.707100 0.000000 0.707100
vn -0.707100 0.000000 0.707100
vn -0.707100 0.000000 -0.707100
vn -0.707100 0.000000 -0.707100
vn -0.707100 0.000000 -0.707100
vn -0.707100 0.000000 -0.707100
vn 0.707100 0.000000 -0.707100
vn 0.707100 0.000000 -0.707100
vn 0.707100 0.000000 -0.707100
vn 0.707100 0.000000 -0.707100
vn 0.707200 0.000000 0.707000
vn 0.707200 0.000000 0.707000
vn 0.707200 0.000000 0.707000
vn 0.707200 0.000000 0.707000
vn 0.000000 0.707100 -0.707100
vn 0.000000 0.707100 -0.707100
vn 0.000000 0.707100 -0.707100
vn 0.000000 0.707100 -0.707100
vn 0.000000 0.707100 0.707100
vn 0.000000 0.707100 0.707100
vn 0.000000 0.707100 0.707100
vn 0.000000 0.707100 0.707100
vn 0.000000 -0.707100 -0.707100
vn 0.000000 -0.707100 -0.707100
vn 0.000000 -0.707100 -0.707100
vn 0.000000 -0.707100 -0.707100
vn 0.000000 -0.707100 0.707100
vn 0.000000 -0.707100 0.707100
vn 0.000000 -0.707100 0.707100
vn 0.000000 -0.707100 0.707100
vn 0.707200 0.000000 0.707000
vn 0.707200 0.000000 0.707000
vn 0.707200 0.000000 0.707000
vn 0.707200 0.000000 0.707000
vn 0.707100 0.000000 -0.707100
vn 0.707100 0.000000 -0.707100
vn 0.707100 0.000000 -0.707100
vn 0.707100 0.000000 -0.707100
vn -0.707200 0.000000 -0.707000
vn -0.707200 0.000000 -0.707000
vn -0.707200 0.000000 -0.707000
vn -0.707200 0.000000 -0.707000
vn -0.707100 0.000000 0.707100
vn -0.707100 0.000000 0.707100
vn -0.707100 0.000000 0.707100
vn -0.707100 0.000000 0.707100
vn 0.000000 -0.707100 0.707100
vn 0.000000 -0.707100 0.707100
vn 0.000000 -0.707100 0.707100
vn 0.000000 -0.707100 0.707100
vn 0.000000 -0.707100 -0.707100
vn 0.000000 -0.707100 -0.707100
vn 0.000000 -0.707100 -0.707100
vn 0.000000 -0.707100 -0.707100
vn 0.000000 0.707200 0.707000
vn 0.000000 0.707200 0.707000
vn 0.000000 0.707200 0.707000
vn 0.000000 0.707200 0.707000
vn 0.000000 0.707100 -0.707100
vn 0.000000 0.707100 -0.707100
vn 0.000000 0.707100 -0.707100
vn 0.000000 0.707100 -0.707100
vn 0.707000 -0.707100 0.000000
vn 0.707000 -0.707100 0.000000
vn 0.707000 -0.707100 0.000000
vn 0.707000 -0.707100 0.000000
vn 0.707000 0.707200 0.000000
vn 0.707000 0.707200 0.000000
vn 0.707000 0.707200 0.000000
vn 0.707000 0.707200 0.000000
vn -0.707000 0.707200 0.000000
vn -0.707000 0.707200 0.000000
vn -0.707000 0.707200 0.000000
vn -0.707000 0.707200 0.000000
vn -0.707000 -0.707100 0.000000
vn -0.707000 -0.707100 0.000000
vn -0.707000 -0.707100 0.000000
vn -0.707000 -0.707100 0.000000
vn -0.707000 -0.707200 0.000000
vn -0.707000 -0.707200 0.000000
vn -0.707000 -0.707200 0.000000
vn -0.707000 -0.707200 0.000000
vn -0.707100 0.707100 0.000000
vn -0.707100 0.707100 0.000000
vn -0.707100 0.707100 0.000000
vn -0.707100 0.707100 0.000000
vn 0.707000 0.707200 0.000000
vn 0.707000 0.707200 0.000000
vn 0.707000 0.707200 0.000000
vn 0.707000 0.707200 0.000000
vn 0.707100 -0.707100 0.000000
vn 0.707100 -0.707100 0.000000
vn 0.707100 -0.707100 0.000000
vn 0.707100 -0.707100 0.000000
vn 0.000000 0.707200 0.707000
vn 0.000000 0.707200 0.707000
vn 0.000000 0.707200 0.707000
vn 0.000000 0.707200 0.707000
vn 0.000000 -0.707100 0.707100
vn 0.000000 -0.707100 0.707100
vn 0.000000 -0.707100 0.707100
vn 0.000000 -0.707100 0.707100
vn 0.000000 0.707100 -0.707100
vn 0.000000 0.707100 -0.707100
vn 0.000000 0.707100 -0.707100
vn 0.000000 0.707100 -0.707100
vn 0.000000 -0.707000 -0.707100
vn 0.000000 -0.707000 -0.707100
vn 0.000000 -0.707000 -0.707100
vn 0.000000 -0.707000 -0.707100
vn -0.707000 0.000000 -0.707200
vn -0.707000 0.000000 -0.707200
vn -0.707000 0.000000 -0.707200
vn -0.707000 0.000000 -0.707200
vn -0.707100 0.000000 0.707100
vn -0.707100 0.000000 0.707100
vn -0.707100 0.000000 0.707100
vn -0.707100 0.000000 0.707100
vn 0.707100 0.000000 0.707100
vn 0.707100 0.000000 0.707100
vn 0.707100 0.000000 0.707100
vn 0.707100 0.000000 0.707100
vn 0.707000 0.000000 -0.707200
vn 0.707000 0.000000 -0.707200
vn 0.707000 0.000000 -0.707200
vn 0.707000 0.000000 -0.707200
vn -0.707000 -0.707200 0.000000
vn -0.707000 -0.707200 0.000000
vn -0.707000 -0.707200 0.000000
vn -0.707000 -0.707200 0.000000
vn -0.707000 0.707200 0.000000
vn -0.707000 0.707200 0.000000
vn -0.707000 0.707200 0.000000
vn -0.707000 0.707200 0.000000
vn 0.707000 0.707200 0.000000
vn 0.707000 0.707200 0.000000
vn 0.707000 0.707200 0.000000
vn 0.707000 0.707200 0.000000
vn 0.707000 -0.707200 0.000000
vn 0.707000 -0.707200 0.000000
vn 0.707000 -0.707200 0.000000
vn 0.707000 -0.707200 0.000000
vn -0.707100 0.000000 -0.707100
vn -0.707100 0.000000 -0.707100
vn -0.707100 0.000000 -0.707100
vn -0.707100 0.000000 -0.707100
vn -0.707100 0.000000 0.707100
vn -0.707100 0.000000 0.707100
vn -0.707100 0.000000 0.707100
vn -0.707100 0.000000 0.707100
vn 0.707100 0.000000 0.707100
vn 0.707100 0.000000 0.707100
vn 0.707100 0.000000 0.707100
vn 0.707100 0.000000 0.707100
vn 0.707100 0.000000 -0.707100
vn 0.707100 0.000000 -0.707100
vn 0.707100 0.000000 -0.707100
vn 0.707100 0.000000 -0.707100
vn 0.000000 0.707100 0.707100
vn 0.000000 0.707100 0.707100
vn 0.000000 0.707100 0.707100
vn 0.000000 0.707100 0.707100
vn 0.000000 0.707100 -0.707100
vn 0.000000 0.707100 -0.707100
vn 0.000000 0.707100 -0.707100
vn 0.000000 0.707100 -0.707100
vn 0.000000 -0.707100 -0.707100
vn 0.000000 -0.707100 -0.707100
vn 0.000000 -0.707100 -0.707100
vn 0.000000 -0.707100 -0.707100
vn 0.000000 -0.707100 0.707100
vn 0.000000 -0.707100 0.707100
vn 0.000000 -0.707100 0.707100
vn 0.000000 -0.707100 0.707100
vn -0.707100 -0.707100 0.000000
vn -0.707100 -0.707100 0.000000
vn -0.707100 -0.707100 0.000000
vn -0.707100 -0.707100 0.000000
vn -0.707100 0.707100 0.000000
vn -0.707100 0.707100 0.000000
vn -0.707100 0.707100 0.000000
vn -0.707100 0.707100 0.000000
vn 0.707000 0.707200 0.000000
vn 0.707000 0.707200 0.000000
vn 0.707000 0.707200 0.000000
vn 0.707000 0.707200 0.000000
vn 0.707000 -0.707200 0.000000
vn 0.707000 -0.707200 0.000000
vn 0.707000 -0.707200 0.000000
vn 0.707000 -0.707200 0.000000
vn 0.000000 0.000000 -1.000000
vn 0.000000 0.000000 -1.000000
vn 0.000000 0.000000 -1.000000
vn 0.000000 0.000000 -1.000000
vt 1.218100 1.566800
vt 1.218100 1.592600
vt 1.178300 1.592600
vt 1.178300 1.566800
vt -0.042000 1.333200
vt 0.531600 1.333200
vt 0.531600 1.359000
vt -0.042000 1.359000
vt 0.547900 0.925000
vt 0.587700 0.925000
vt 0.587700 0.950800
vt 0.547900 0.950800
vt -0.043900 1.536700
vt -0.043900 1.476600
vt -0.617500 1.476600
vt -0.617500 1.536700
vt 0.874500 1.155700
vt 0.874500 1.095500
vt 0.009300 1.095500
vt 0.009300 1.155700
vt 0.587700 0.896400
vt 0.587700 0.922200
vt 0.547900 0.922200
vt 0.547900 0.896400
vt 1.218100 1.624100
vt 1.178300 1.624100
vt 1.178300 1.649900
vt 1.218100 1.649900
vt 0.587700 0.836100
vt 0.587700 0.810300
vt 0.547900 0.810300
vt 0.547900 0.836100
vt 1.178300 1.452000
vt 1.218100 1.452000
vt 1.218100 1.477800
vt 1.178300 1.477800
vt 1.517700 0.900300
vt 1.521600 0.900300
vt 1.521600 1.767800
vt 1.517700 1.767800
vt -0.043900 1.445000
vt -0.043900 1.419200
vt -0.617500 1.419200
vt -0.617500 1.445000
vt 0.009300 1.218800
vt 0.009300 1.158600
vt 0.874500 1.158600
vt 0.874500 1.218800
vt 1.178300 1.595400
vt 1.178300 1.621200
vt 1.218100 1.621200
vt 1.218100 1.595400
vt 1.988600 -0.231400
vt 1.123400 -0.231400
vt 1.123400 -0.257200
vt 1.988600 -0.257200
vt 1.523500 1.767700
vt 1.527400 1.767700
vt 1.527400 0.900300
vt 1.523500 0.900300
vt -0.617500 1.539600
vt -0.617500 1.599800
vt -0.043900 1.599800
vt -0.043900 1.539600
vt 1.123400 -0.260100
vt 1.123400 -0.285900
vt 1.988600 -0.285900
vt 1.988600 -0.260100
vt 1.742600 1.281400
vt 1.742600 0.099100
vt 1.738700 0.099100
vt 1.738700 1.281400
vt 0.009300 0.969400
vt 0.874500 0.969400
vt 0.874500 1.029600
vt 0.009300 1.029600
vt 0.874500 1.092700
vt 0.874500 1.032500
vt 0.009300 1.032500
vt 0.009300 1.092700
vt 1.988600 -0.202700
vt 1.988600 -0.228500
vt 1.123400 -0.228500
vt 1.123400 -0.202700
vt 0.531600 1.536700
vt -0.042000 1.536700
vt -0.042000 1.476600
vt 0.531600 1.476600
vt 0.531600 1.539600
vt 0.531600 1.599800
vt -0.042000 1.599800
vt -0.042000 1.539600
vt -0.617500 1.473700
vt -0.043900 1.473700
vt -0.043900 1.447900
vt -0.617500 1.447900
vt 1.744500 1.281400
vt 1.744500 0.099100
vt 1.748400 0.099100
vt 1.748400 1.281400
vt 0.791100 0.096200
vt 0.009300 0.096200
vt 0.009300 -0.771200
vt 0.791100 -0.771200
vt -0.043900 1.416300
vt -0.617500 1.416300
vt -0.617500 1.390500
vt -0.043900 1.390500
vt 0.791100 0.099100
vt 0.009300 0.099100
vt 0.009300 0.966600
vt 0.791100 0.966600
vt 1.988600 -0.288800
vt 1.988600 -0.314600
vt 1.123400 -0.314600
vt 1.123400 -0.288800
vt 0.874500 1.095500
vt 0.875400 1.095500
vt 0.874500 1.094100
vt 0.009300 1.095500
vt 0.009300 1.094100
vt 0.008300 1.095500
vt 0.009300 1.155700
vt 0.008300 1.155700
vt 0.009300 1.157100
vt 0.874500 1.155700
vt 0.874500 1.157100
vt 0.875400 1.155700
vt 0.874500 1.029600
vt 0.875400 1.029600
vt 0.874500 1.031000
vt 0.009300 1.029600
vt 0.009300 1.031000
vt 0.008300 1.029600
vt 0.009300 0.969400
vt 0.008300 0.969400
vt 0.009300 0.968000
vt 0.874500 0.969400
vt 0.874500 0.968000
vt 0.875400 0.969400
vt 0.874500 1.158600
vt 0.874500 1.157100
vt 0.875400 1.158600
vt 0.009300 1.158600
vt 0.008300 1.158600
vt 0.009300 1.157100
vt 0.009300 1.218800
vt 0.009300 1.220200
vt 0.008300 1.218800
vt 0.874500 1.218800
vt 0.875400 1.218800
vt 0.874500 1.220200
vt 0.874500 1.092700
vt 0.874500 1.094100
vt 0.875400 1.092700
vt 0.009300 1.092700
vt 0.008300 1.092700
vt 0.009300 1.094100
vt 0.009300 1.032500
vt 0.009300 1.031000
vt 0.008300 1.032500
vt 0.874500 1.032500
vt 0.875400 1.032500
vt 0.874500 1.031000
vt -0.043900 1.476600
vt -0.043000 1.476600
vt -0.043900 1.475100
vt -0.617500 1.476600
vt -0.617500 1.475100
vt -0.618500 1.476600
vt -0.617500 1.536700
vt -0.618500 1.536700
vt -0.617500 1.538200
vt -0.043900 1.536700
vt -0.043900 1.538200
vt -0.043000 1.536700
vt 0.531600 1.536700
vt 0.532500 1.536700
vt 0.531600 1.538200
vt -0.042000 1.536700
vt -0.042000 1.538200
vt -0.043000 1.536700
vt -0.042000 1.476600
vt -0.043000 1.476600
vt -0.042000 1.475100
vt 0.531600 1.476600
vt 0.531600 1.475100
vt 0.532500 1.476600
vt -0.043900 1.447900
vt -0.043000 1.447900
vt -0.043900 1.446500
vt -0.617500 1.447900
vt -0.617500 1.446500
vt -0.618500 1.447900
vt -0.042000 1.333200
vt -0.043000 1.333200
vt -0.042000 1.331700
vt 0.531600 1.333200
vt 0.531600 1.331700
vt 0.532500 1.333200
vt 0.531600 1.359000
vt 0.532500 1.359000
vt 0.531600 1.360400
vt -0.042000 1.359000
vt -0.042000 1.360400
vt -0.043000 1.359000
vt -0.617500 1.473700
vt -0.618500 1.473700
vt -0.617500 1.475100
vt -0.043900 1.473700
vt -0.043900 1.475100
vt -0.043000 1.473700
vt 0.791100 0.099100
vt 0.792000 0.099100
vt 0.791100 0.097700
vt 0.791100 0.966600
vt 0.791100 0.968000
vt 0.792000 0.966600
vt 0.009300 0.099100
vt 0.009300 0.097700
vt 0.008300 0.099100
vt 0.009300 0.966600
vt 0.008300 0.966600
vt 0.009300 0.968000
vt 0.009300 0.096200
vt 0.009300 0.097700
vt 0.008300 0.096200
vt 0.009300 -0.771200
vt 0.008300 -0.771200
vt 0.009300 -0.772700
vt 0.791100 0.096200
vt 0.792000 0.096200
vt 0.791100 0.097700
vt 0.791100 -0.771200
vt 0.791100 -0.772700
vt 0.792000 -0.771200
vt -0.617500 1.447900
vt -0.043900 1.447900
vt -0.043900 1.446500
vt -0.617500 1.446500
vt 0.531600 1.333200
vt -0.042000 1.333200
vt -0.042000 1.331700
vt 0.531600 1.331700
vt -0.042000 1.359000
vt 0.531600 1.359000
vt 0.531600 1.360400
vt -0.042000 1.360400
vt -0.043900 1.473700
vt -0.617500 1.473700
vt -0.617500 1.475100
vt -0.043900 1.475100
vt -0.042000 1.539600
vt -0.042000 1.599800
vt -0.043000 1.599800
vt -0.043000 1.539600
vt 0.531600 1.599800
vt 0.531600 1.539600
vt 0.532500 1.539600
vt 0.532500 1.599800
vt 1.178300 1.592600
vt 1.218100 1.592600
vt 1.218100 1.594000
vt 1.178300 1.594000
vt 1.218100 1.649900
vt 1.178300 1.649900
vt 1.178300 1.651400
vt 1.218100 1.651400
vt 1.218100 1.624100
vt 1.218100 1.649900
vt 1.219100 1.649900
vt 1.219100 1.624100
vt -0.043900 1.447900
vt -0.043900 1.473700
vt -0.043000 1.473700
vt -0.043000 1.447900
vt 1.178300 1.649900
vt 1.178300 1.624100
vt 1.177400 1.624100
vt 1.177400 1.649900
vt 1.178300 1.566800
vt 1.178300 1.592600
vt 1.177400 1.592600
vt 1.177400 1.566800
vt 0.009300 1.155700
vt 0.009300 1.095500
vt 0.008300 1.095500
vt 0.008300 1.155700
vt 0.587700 0.893500
vt 0.547900 0.893500
vt 0.547900 0.894900
vt 0.587700 0.894900
vt 0.874500 1.029600
vt 0.874500 0.969400
vt 0.875400 0.969400
vt 0.875400 1.029600
vt 0.587700 0.925000
vt 0.547900 0.925000
vt 0.547900 0.923600
vt 0.587700 0.923600
vt 1.988600 -0.231400
vt 1.988600 -0.257200
vt 1.989500 -0.257200
vt 1.989500 -0.231400
vt 0.587700 0.950800
vt 0.587700 0.925000
vt 0.588700 0.925000
vt 0.588700 0.950800
vt 0.547900 0.893500
vt 0.547900 0.867700
vt 0.547000 0.867700
vt 0.547000 0.893500
vt 1.123400 -0.202700
vt 1.123400 -0.228500
vt 1.122500 -0.228500
vt 1.122500 -0.202700
vt 0.009300 1.158600
vt 0.009300 1.218800
vt 0.008300 1.218800
vt 0.008300 1.158600
vt 0.547900 0.810300
vt 0.587700 0.810300
vt 0.587700 0.808900
vt 0.547900 0.808900
vt 0.874500 1.032500
vt 0.874500 1.092700
vt 0.875400 1.092700
vt 0.875400 1.032500
vt 0.547900 0.922200
vt 0.587700 0.922200
vt 0.587700 0.923600
vt 0.547900 0.923600
vt 0.547900 0.896400
vt 0.547900 0.922200
vt 0.547000 0.922200
vt 0.547000 0.896400
vt 1.988600 -0.314600
vt 1.988600 -0.288800
vt 1.989600 -0.288800
vt 1.989600 -0.314600
vt 1.123400 -0.285900
vt 1.123400 -0.260100
vt 1.122500 -0.260100
vt 1.122500 -0.285900
vt 0.587700 0.810300
vt 0.587700 0.836100
vt 0.588700 0.836100
vt 0.588700 0.810300
vt 0.874500 1.158600
vt 0.009300 1.158600
vt 0.009300 1.157100
vt 0.874500 1.157100
vt 0.009300 1.218800
vt 0.874500 1.218800
vt 0.874500 1.220200
vt 0.009300 1.220200
vt 0.874500 1.092700
vt 0.009300 1.092700
vt 0.009300 1.094100
vt 0.874500 1.094100
vt 0.009300 1.032500
vt 0.874500 1.032500
vt 0.874500 1.031000
vt 0.009300 1.031000
vt 1.218100 1.621200
vt 1.178300 1.621200
vt 1.178300 1.622700
vt 1.218100 1.622700
vt -0.043900 1.476600
vt -0.043900 1.536700
vt -0.043000 1.536700
vt -0.043000 1.476600
vt 1.218100 1.452000
vt 1.178300 1.452000
vt 1.178300 1.450600
vt 1.218100 1.450600
vt -0.042000 1.476600
vt -0.042000 1.536700
vt -0.043000 1.536700
vt -0.043000 1.476600
vt -0.043900 1.416300
vt -0.043900 1.390500
vt -0.043000 1.390500
vt -0.043000 1.416300
vt -0.617500 1.390500
vt -0.617500 1.416300
vt -0.618500 1.416300
vt -0.618500 1.390500
vt -0.043900 1.419200
vt -0.043900 1.445000
vt -0.043000 1.445000
vt -0.043000 1.419200
vt 1.218100 1.595400
vt 1.218100 1.621200
vt 1.219100 1.621200
vt 1.219100 1.595400
vt -0.617500 1.476600
vt -0.043900 1.476600
vt -0.043900 1.475100
vt -0.617500 1.475100
vt -0.617500 1.416300
vt -0.043900 1.416300
vt -0.043900 1.417800
vt -0.617500 1.417800
vt -0.042000 1.536700
vt 0.531600 1.536700
vt 0.531600 1.538200
vt -0.042000 1.538200
vt -0.617500 1.419200
vt -0.043900 1.419200
vt -0.043900 1.417800
vt -0.617500 1.417800
vt 0.009300 1.095500
vt 0.874500 1.095500
vt 0.874500 1.094100
vt 0.009300 1.094100
vt 1.123400 -0.231400
vt 1.988600 -0.231400
vt 1.988600 -0.230000
vt 1.123400 -0.230000
vt 0.009300 1.029600
vt 0.874500 1.029600
vt 0.874500 1.031000
vt 0.009300 1.031000
vt 1.123400 -0.228500
vt 1.988600 -0.228500
vt 1.988600 -0.230000
vt 1.123400 -0.230000
vt 1.523500 1.767700
vt 1.523500 0.900300
vt 1.522500 0.900300
vt 1.522500 1.767700
vt 0.009300 0.966600
vt 0.009300 0.099100
vt 0.008300 0.099100
vt 0.008300 0.966600
vt 0.009300 -0.771200
vt 0.009300 0.096200
vt 0.008300 0.096200
vt 0.008300 -0.771200
vt 1.527400 0.900300
vt 1.527400 1.767700
vt 1.528300 1.767700
vt 1.528300 0.900300
vt 1.517700 1.767800
vt 1.521600 1.767800
vt 1.521600 1.769200
vt 1.517700 1.769200
vt 1.527400 1.767700
vt 1.523500 1.767700
vt 1.523500 1.769200
vt 1.527400 1.769200
vt 1.523500 0.900300
vt 1.527400 0.900300
vt 1.527400 0.898900
vt 1.523500 0.898900
vt 1.521600 0.900300
vt 1.517700 0.900300
vt 1.517700 0.898900
vt 1.521600 0.898900
vt 0.009300 0.099100
vt 0.791100 0.099100
vt 0.791100 0.097700
vt 0.009300 0.097700
vt 1.744500 0.099100
vt 1.744500 1.281400
vt 1.743500 1.281400
vt 1.743500 0.099100
vt 1.748400 1.281400
vt 1.748400 0.099100
vt 1.749300 0.099100
vt 1.749300 1.281400
vt 0.791100 -0.771200
vt 0.009300 -0.771200
vt 0.009300 -0.772700
vt 0.791100 -0.772700
vt 0.587700 0.867700
vt 0.547900 0.867700
vt 0.547900 0.893500
vt 0.587700 0.893500
f 1/1/1 2/2/2 3/3/3
f 1/1/1 3/3/3 4/4/4
f 5/5/5 6/6/6 7/7/7
f 5/5/5 7/7/7 8/8/8
f 9/9/9 10/10/10 11/11/11
f 9/9/9 11/11/11 12/12/12
f 13/13/13 14/14/14 15/15/15
f 13/13/13 15/15/15 16/16/16
f 17/17/17 18/18/18 19/19/19
f 17/17/17 19/19/19 20/20/20
f 21/21/21 22/22/22 23/23/23
f 21/21/21 23/23/23 24/24/24
f 25/25/25 26/26/26 27/27/27
f 25/25/25 27/27/27 28/28/28
f 29/29/29 30/30/30 31/31/31
f 29/29/29 31/31/31 32/32/32
f 33/33/33 34/34/34 35/35/35
f 33/33/33 35/35/35 36/36/36
f 37/37/37 38/38/38 39/39/39
f 37/37/37 39/39/39 40/40/40
f 41/41/41 42/42/42 43/43/43
f 41/41/41 43/43/43 44/44/44
f 45/45/45 46/46/46 47/47/47
f 45/45/45 47/47/47 48/48/48
f 49/49/49 50/50/50 51/51/51
f 49/49/49 51/51/51 52/52/52
f 53/53/53 54/54/54 55/55/55
f 53/53/53 55/55/55 56/56/56
f 57/57/57 58/58/58 59/59/59
f 57/57/57 59/59/59 60/60/60
f 61/61/61 62/62/62 63/63/63
f 61/61/61 63/63/63 64/64/64
f 65/65/65 66/66/66 67/67/67
f 65/65/65 67/67/67 68/68/68
f 69/69/69 70/70/70 71/71/71
f 69/69/69 71/71/71 72/72/72
f 73/73/73 74/74/74 75/75/75
f 73/73/73 75/75/75 76/76/76
f 77/77/77 78/78/78 79/79/79
f 77/77/77 79/79/79 80/80/80
f 81/81/81 82/82/82 83/83/83
f 81/81/81 83/83/83 84/84/84
f 85/85/85 86/86/86 87/87/87
f 85/85/85 87/87/87 88/88/88
f 89/89/89 90/90/90 91/91/91
f 89/89/89 91/91/91 92/92/92
f 93/93/93 94/94/94 95/95/95
f 93/93/93 95/95/95 96/96/96
f 97/97/97 98/98/98 99/99/99
f 97/97/97 99/99/99 100/100/100
f 101/101/101 102/102/102 103/103/103
f 101/101/101 103/103/103 104/104/104
f 105/105/105 106/106/106 107/107/107
f 105/105/105 107/107/107 108/108/108
f 109/109/109 110/110/110 111/111/111
f 109/109/109 111/111/111 112/112/112
f 113/113/113 114/114/114 115/115/115
f 113/113/113 115/115/115 116/116/116
f 117/117/117 118/118/118 119/119/119
f 120/120/120 121/121/121 122/122/122
f 123/123/123 124/124/124 125/125/125
f 126/126/126 127/127/127 128/128/128
f 129/129/129 130/130/130 131/131/131
f 132/132/132 133/133/133 134/134/134
f 135/135/135 136/136/136 137/137/137
f 138/138/138 139/139/139 140/140/140
f 141/141/141 142/142/142 143/143/143
f 144/144/144 145/145/145 146/146/146
f 147/147/147 148/148/148 149/149/149
f 150/150/150 151/151/151 152/152/152
f 153/153/153 154/154/154 155/155/155
f 156/156/156 157/157/157 158/158/158
f 159/159/159 160/160/160 161/161/161
f 162/162/162 163/163/163 164/164/164
f 165/165/165 166/166/166 167/167/167
f 168/168/168 169/169/169 170/170/170
f 171/171/171 172/172/172 173/173/173
f 174/174/174 175/175/175 176/176/176
f 177/177/177 178/178/178 179/179/179
f 180/180/180 181/181/181 182/182/182
f 183/183/183 184/184/184 185/185/185
f 186/186/186 187/187/187 188/188/188
f 189/189/189 190/190/190 191/191/191
f 192/192/192 193/193/193 194/194/194
f 195/195/195 196/196/196 197/197/197
f 198/198/198 199/199/199 200/200/200
f 201/201/201 202/202/202 203/203/203
f 204/204/204 205/205/205 206/206/206
f 207/207/207 208/208/208 209/209/209
f 210/210/210 211/211/211 212/212/212
f 213/213/213 214/214/214 215/215/215
f 216/216/216 217/217/217 218/218/218
f 219/219/219 220/220/220 221/221/221
f 222/222/222 223/223/223 224/224/224
f 225/225/225 226/226/226 227/227/227
f 228/228/228 229/229/229 230/230/230
f 231/231/231 232/232/232 233/233/233
f 234/234/234 235/235/235 236/236/236
f 237/237/237 238/238/238 239/239/239
f 237/237/237 239/239/239 240/240/240
f 241/241/241 242/242/242 243/243/243
f 241/241/241 243/243/243 244/244/244
f 245/245/245 246/246/246 247/247/247
f 245/245/245 247/247/247 248/248/248
f 249/249/249 250/250/250 251/251/251
f 249/249/249 251/251/251 252/252/252
f 253/253/253 254/254/254 255/255/255
f 253/253/253 255/255/255 256/256/256
f 257/257/257 258/258/258 259/259/259
f 257/257/257 259/259/259 260/260/260
f 261/261/261 262/262/262 263/263/263
f 261/261/261 263/263/263 264/264/264
f 265/265/265 266/266/266 267/267/267
f 265/265/265 267/267/267 268/268/268
f 269/269/269 270/270/270 271/271/271
f 269/269/269 271/271/271 272/272/272
f 273/273/273 274/274/274 275/275/275
f 273/273/273 275/275/275 276/276/276
f 277/277/277 278/278/278 279/279/279
f 277/277/277 279/279/279 280/280/280
f 281/281/281 282/282/282 283/283/283
f 281/281/281 283/283/283 284/284/284
f 285/285/285 286/286/286 287/287/287
f 285/285/285 287/287/287 288/288/288
f 289/289/289 290/290/290 291/291/291
f 289/289/289 291/291/291 292/292/292
f 293/293/293 294/294/294 295/295/295
f 293/293/293 295/295/295 296/296/296
f 297/297/297 298/298/298 299/299/299
f 297/297/297 299/299/299 300/300/300
f 301/301/301 302/302/302 303/303/303
f 301/301/301 303/303/303 304/304/304
f 305/305/305 306/306/306 307/307/307
f 305/305/305 307/307/307 308/308/308
f 309/309/309 310/310/310 311/311/311
f 309/309/309 311/311/311 312/312/312
f 313/313/313 314/314/314 315/315/315
f 313/313/313 315/315/315 316/316/316
f 317/317/317 318/318/318 319/319/319
f 317/317/317 319/319/319 320/320/320
f 321/321/321 322/322/322 323/323/323
f 321/321/321 323/323/323 324/324/324
f 325/325/325 326/326/326 327/327/327
f 325/325/325 327/327/327 328/328/328
f 329/329/329 330/330/330 331/331/331
f 329/329/329 331/331/331 332/332/332
f 333/333/333 334/334/334 335/335/335
f 333/333/333 335/335/335 336/336/336
f 337/337/337 338/338/338 339/339/339
f 337/337/337 339/339/339 340/340/340
f 341/341/341 342/342/342 343/343/343
f 341/341/341 343/343/343 344/344/344
f 345/345/345 346/346/346 347/347/347
f 345/345/345 347/347/347 348/348/348
f 349/349/349 350/350/350 351/351/351
f 349/349/349 351/351/351 352/352/352
f 353/353/353 354/354/354 355/355/355
f 353/353/353 355/355/355 356/356/356
f 357/357/357 358/358/358 359/359/359
f 357/357/357 359/359/359 360/360/360
f 361/361/361 362/362/362 363/363/363
f 361/361/361 363/363/363 364/364/364
f 365/365/365 366/366/366 367/367/367
f 365/365/365 367/367/367 368/368/368
f 369/369/369 370/370/370 371/371/371
f 369/369/369 371/371/371 372/372/372
f 373/373/373 374/374/374 375/375/375
f 373/373/373 375/375/375 376/376/376
f 377/377/377 378/378/378 379/379/379
f 377/377/377 379/379/379 380/380/380
f 381/381/381 382/382/382 383/383/383
f 381/381/381 383/383/383 384/384/384
f 385/385/385 386/386/386 387/387/387
f 385/385/385 387/387/387 388/388/388
f 389/389/389 390/390/390 391/391/391
f 389/389/389 391/391/391 392/392/392
f 393/393/393 394/394/394 395/395/395
f 393/393/393 395/395/395 396/396/396
f 397/397/397 398/398/398 399/399/399
f 397/397/397 399/399/399 400/400/400
f 401/401/401 402/402/402 403/403/403
f 401/401/401 403/403/403 404/404/404
f 405/405/405 406/406/406 407/407/407
f 405/405/405 407/407/407 408/408/408
f 409/409/409 410/410/410 411/411/411
f 409/409/409 411/411/411 412/412/412
f 413/413/413 414/414/414 415/415/415
f 413/413/413 415/415/415 416/416/416
f 417/417/417 418/418/418 419/419/419
f 417/417/417 419/419/419 420/420/420
f 421/421/421 422/422/422 423/423/423
f 421/421/421 423/423/423 424/424/424
f 425/425/425 426/426/426 427/427/427
f 425/425/425 427/427/427 428/428/428
f 429/429/429 430/430/430 431/431/431
f 429/429/429 431/431/431 432/432/432
f 433/433/433 434/434/434 435/435/435
f 433/433/433 435/435/435 436/436/436
f 437/437/437 438/438/438 439/439/439
f 437/437/437 439/439/439 440/440/440
f 441/441/441 442/442/442 443/443/443
f 441/441/441 443/443/443 444/444/444
f 445/445/445 446/446/446 447/447/447
f 445/445/445 447/447/447 448/448/448
f 449/449/449 450/450/450 451/451/451
f 449/449/449 451/451/451 452/452/452
f 453/453/453 454/454/454 455/455/455
f 453/453/453 455/455/455 456/456/456
f 457/457/457 458/458/458 459/459/459
f 457/457/457 459/459/459 460/460/460
f 461/461/461 462/462/462 463/463/463
f 461/461/461 463/463/463 464/464/464
f 465/465/465 466/466/466 467/467/467
f 465/465/465 467/467/467 468/468/468
f 469/469/469 470/470/470 471/471/471
f 469/469/469 471/471/471 472/472/472
f 473/473/473 474/474/474 475/475/475
f 473/473/473 475/475/475 476/476/476
f 477/477/477 478/478/478 479/479/479
f 477/477/477 479/479/479 480/480/480
