v 1.456466 0.112409 -0.582866
v 1.457704 0.112398 -0.582866
v 1.457541 0.112687 -0.582866
v 1.456634 0.112695 -0.582866
v 1.457255 0.112855 -0.582866
v 1.456923 0.112858 -0.582866
v 1.456028 0.112413 -0.583437
v 1.456023 0.111846 -0.583437
v 1.458137 0.111828 -0.583437
v 1.458142 0.112394 -0.583437
v 1.457531 0.111546 -0.582866
v 1.456624 0.111554 -0.582866
v 1.456910 0.111385 -0.582866
v 1.457242 0.111382 -0.582866
v 1.457699 0.111832 -0.582866
v 1.456461 0.111843 -0.582866
v 1.455100 0.111608 -0.583944
v 1.455100 0.111608 -0.583910
v 1.455109 0.112668 -0.583910
v 1.455109 0.112668 -0.583944
v 1.455622 0.110685 -0.583944
v 1.455622 0.110685 -0.583910
v 1.455100 0.111608 -0.583910
v 1.456535 0.110147 -0.583944
v 1.456535 0.110147 -0.583910
v 1.455622 0.110685 -0.583910
v 1.457595 0.110138 -0.583944
v 1.457595 0.110138 -0.583910
v 1.458518 0.110660 -0.583944
v 1.458518 0.110660 -0.583910
v 1.457595 0.110138 -0.583910
v 1.459056 0.111573 -0.583944
v 1.459056 0.111573 -0.583910
v 1.458518 0.110660 -0.583910
v 1.459065 0.112633 -0.583944
v 1.459065 0.112633 -0.583910
v 1.459056 0.111573 -0.583910
v 1.458543 0.113556 -0.583944
v 1.458543 0.113556 -0.583910
v 1.459065 0.112633 -0.583910
v 1.457630 0.114094 -0.583944
v 1.457630 0.114094 -0.583910
v 1.458543 0.113556 -0.583910
v 1.456570 0.114103 -0.583944
v 1.456570 0.114103 -0.583910
v 1.457630 0.114094 -0.583910
v 1.455647 0.113581 -0.583944
v 1.455647 0.113581 -0.583910
v 1.456570 0.114103 -0.583910
v 1.455109 0.112668 -0.583910
v 1.455647 0.113581 -0.583910
v 1.455100 0.111608 -0.583710
v 1.455109 0.112668 -0.583710
v 1.455100 0.111608 -0.583567
v 1.455109 0.112668 -0.583567
v 1.455622 0.110685 -0.583710
v 1.455100 0.111608 -0.583710
v 1.455622 0.110685 -0.583567
v 1.455100 0.111608 -0.583567
v 1.456535 0.110147 -0.583710
v 1.455622 0.110685 -0.583710
v 1.456535 0.110147 -0.583567
v 1.455622 0.110685 -0.583567
v 1.457595 0.110138 -0.583710
v 1.456535 0.110147 -0.583710
v 1.457595 0.110138 -0.583567
v 1.456535 0.110147 -0.583567
v 1.458518 0.110660 -0.583710
v 1.457595 0.110138 -0.583710
v 1.458518 0.110660 -0.583567
v 1.457595 0.110138 -0.583567
v 1.459056 0.111573 -0.583710
v 1.458518 0.110660 -0.583710
v 1.459056 0.111573 -0.583567
v 1.458518 0.110660 -0.583567
v 1.459065 0.112633 -0.583710
v 1.459056 0.111573 -0.583710
v 1.459065 0.112633 -0.583567
v 1.459056 0.111573 -0.583567
v 1.458543 0.113556 -0.583710
v 1.459065 0.112633 -0.583710
v 1.458543 0.113556 -0.583567
v 1.459065 0.112633 -0.583567
v 1.457630 0.114094 -0.583710
v 1.458543 0.113556 -0.583710
v 1.457630 0.114094 -0.583567
v 1.458543 0.113556 -0.583567
v 1.456570 0.114103 -0.583710
v 1.457630 0.114094 -0.583710
v 1.456570 0.114103 -0.583567
v 1.457630 0.114094 -0.583567
v 1.455647 0.113581 -0.583710
v 1.456570 0.114103 -0.583710
v 1.455647 0.113581 -0.583567
v 1.456570 0.114103 -0.583567
v 1.455109 0.112668 -0.583710
v 1.455647 0.113581 -0.583710
v 1.455109 0.112668 -0.583567
v 1.455647 0.113581 -0.583567
v 1.455176 0.112649 -0.583944
v 1.455167 0.111625 -0.583944
v 1.455671 0.110733 -0.583944
v 1.456554 0.110214 -0.583944
v 1.457578 0.110205 -0.583944
v 1.458470 0.110709 -0.583944
v 1.458990 0.111591 -0.583944
v 1.458998 0.112616 -0.583944
v 1.458494 0.113507 -0.583944
v 1.457611 0.114027 -0.583944
v 1.456587 0.114036 -0.583944
v 1.455696 0.113532 -0.583944
v 1.456277 0.112344 -0.583944
v 1.456273 0.111911 -0.583944
v 1.456352 0.112323 -0.583944
v 1.456349 0.111931 -0.583944
v 1.456486 0.111534 -0.583944
v 1.456542 0.111589 -0.583944
v 1.456859 0.111314 -0.583944
v 1.456880 0.111390 -0.583944
v 1.457292 0.111311 -0.583944
v 1.457272 0.111387 -0.583944
v 1.457669 0.111524 -0.583944
v 1.457614 0.111580 -0.583944
v 1.457889 0.111897 -0.583944
v 1.457813 0.111918 -0.583944
v 1.457892 0.112330 -0.583944
v 1.457816 0.112310 -0.583944
v 1.457679 0.112707 -0.583944
v 1.457623 0.112651 -0.583944
v 1.457306 0.112926 -0.583944
v 1.457285 0.112851 -0.583944
v 1.456873 0.112930 -0.583944
v 1.456893 0.112854 -0.583944
v 1.456496 0.112717 -0.583944
v 1.456551 0.112661 -0.583944
v 1.456551 0.112661 -0.583944
v 1.456551 0.112661 -0.584070
v 1.456352 0.112323 -0.584070
v 1.456352 0.112323 -0.583944
v 1.456551 0.112661 -0.585945
v 1.456352 0.112323 -0.585945
v 1.456893 0.112854 -0.583944
v 1.456893 0.112854 -0.584070
v 1.456893 0.112854 -0.585945
v 1.457285 0.112851 -0.583944
v 1.457285 0.112851 -0.584070
v 1.457285 0.112851 -0.585945
v 1.457623 0.112651 -0.583944
v 1.457623 0.112651 -0.584070
v 1.457623 0.112651 -0.585945
v 1.457816 0.112310 -0.583944
v 1.457816 0.112310 -0.584070
v 1.457816 0.112310 -0.585945
v 1.457813 0.111918 -0.583944
v 1.457813 0.111918 -0.584070
v 1.457813 0.111918 -0.585945
v 1.457614 0.111580 -0.583944
v 1.457614 0.111580 -0.584070
v 1.457614 0.111580 -0.585945
v 1.457272 0.111387 -0.583944
v 1.457272 0.111387 -0.584070
v 1.457272 0.111387 -0.585945
v 1.456880 0.111390 -0.583944
v 1.456880 0.111390 -0.584070
v 1.456880 0.111390 -0.585945
v 1.456542 0.111589 -0.583944
v 1.456542 0.111589 -0.584070
v 1.456542 0.111589 -0.585945
v 1.456349 0.111931 -0.583944
v 1.456349 0.111931 -0.584070
v 1.456349 0.111931 -0.585945
v 1.456352 0.112323 -0.583944
v 1.456352 0.112323 -0.584070
v 1.456352 0.112323 -0.585945
v 1.458137 0.111828 -0.583386
v 1.458137 0.111828 -0.583437
v 1.456023 0.111846 -0.583437
v 1.456023 0.111846 -0.583386
v 1.456028 0.112413 -0.583386
v 1.456028 0.112413 -0.583437
v 1.458142 0.112394 -0.583437
v 1.458142 0.112394 -0.583386
v 1.458813 0.112463 -0.583452
v 1.458780 0.112440 -0.583437
v 1.458774 0.111771 -0.583437
v 1.458807 0.111748 -0.583452
v 1.455352 0.111769 -0.583452
v 1.455385 0.111791 -0.583437
v 1.455392 0.112480 -0.583437
v 1.455359 0.112501 -0.583452
v 1.458137 0.111828 -0.582995
v 1.458137 0.111828 -0.583032
v 1.456023 0.111846 -0.583032
v 1.456023 0.111846 -0.582995
v 1.456028 0.112413 -0.582995
v 1.456028 0.112413 -0.583032
v 1.458142 0.112394 -0.583032
v 1.458142 0.112394 -0.582995
v 1.459065 0.112633 -0.583567
v 1.459041 0.112617 -0.583556
v 1.459033 0.111589 -0.583556
v 1.459056 0.111573 -0.583567
v 1.455100 0.111608 -0.583567
v 1.455124 0.111623 -0.583556
v 1.455133 0.112652 -0.583556
v 1.455109 0.112668 -0.583567
v 1.458137 0.111828 -0.582995
v 1.457762 0.111831 -0.582885
v 1.457577 0.111516 -0.582885
v 1.457849 0.111340 -0.582995
v 1.457259 0.111336 -0.582885
v 1.457357 0.111061 -0.582995
v 1.456893 0.111339 -0.582885
v 1.456790 0.111066 -0.582995
v 1.456578 0.111525 -0.582885
v 1.456302 0.111353 -0.582995
v 1.456398 0.111843 -0.582885
v 1.456023 0.111846 -0.582995
v 1.456398 0.111843 -0.582885
v 1.457762 0.111831 -0.582885
v 1.457755 0.112398 -0.582881
v 1.456415 0.112409 -0.582881
v 1.457863 0.112887 -0.582995
v 1.457578 0.112710 -0.582881
v 1.458142 0.112394 -0.582995
v 1.457375 0.113175 -0.582995
v 1.457269 0.112893 -0.582881
v 1.456809 0.113180 -0.582995
v 1.456910 0.112896 -0.582881
v 1.456316 0.112901 -0.582995
v 1.456597 0.112719 -0.582881
v 1.456028 0.112413 -0.582995
v 1.456415 0.112409 -0.582881
v 1.455109 0.112668 -0.583567
v 1.455161 0.112653 -0.583534
v 1.455685 0.113542 -0.583534
v 1.455647 0.113581 -0.583567
v 1.456583 0.114051 -0.583534
v 1.456570 0.114103 -0.583567
v 1.457615 0.114042 -0.583534
v 1.457630 0.114094 -0.583567
v 1.458505 0.113518 -0.583534
v 1.458543 0.113556 -0.583567
v 1.459013 0.112620 -0.583534
v 1.459065 0.112633 -0.583567
v 1.459056 0.111573 -0.583567
v 1.459004 0.111587 -0.583534
v 1.458480 0.110698 -0.583534
v 1.458518 0.110660 -0.583567
v 1.457582 0.110190 -0.583534
v 1.457595 0.110138 -0.583567
v 1.456550 0.110199 -0.583534
v 1.456535 0.110147 -0.583567
v 1.455661 0.110723 -0.583534
v 1.455622 0.110685 -0.583567
v 1.455152 0.111621 -0.583534
v 1.455100 0.111608 -0.583567
v 1.458744 0.112438 -0.583437
v 1.458738 0.111774 -0.583437
v 1.455422 0.111794 -0.583437
v 1.455428 0.112476 -0.583437
v 1.455422 0.111794 -0.583437
v 1.455390 0.111774 -0.583448
v 1.455385 0.111791 -0.583437
v 1.455352 0.111769 -0.583452
v 1.458774 0.111771 -0.583437
v 1.458738 0.111774 -0.583437
v 1.458769 0.111752 -0.583448
v 1.458807 0.111748 -0.583452
v 1.458744 0.112438 -0.583437
v 1.458775 0.112459 -0.583448
v 1.458780 0.112440 -0.583437
v 1.458813 0.112463 -0.583452
v 1.455392 0.112480 -0.583437
v 1.455428 0.112476 -0.583437
v 1.455397 0.112496 -0.583448
v 1.455359 0.112501 -0.583452
v 1.455175 0.111636 -0.583526
v 1.455152 0.111621 -0.583534
v 1.455124 0.111623 -0.583556
v 1.455100 0.111608 -0.583567
v 1.459033 0.111589 -0.583556
v 1.458982 0.111603 -0.583526
v 1.459004 0.111587 -0.583534
v 1.459056 0.111573 -0.583567
v 1.458991 0.112604 -0.583526
v 1.459013 0.112620 -0.583534
v 1.459041 0.112617 -0.583556
v 1.459065 0.112633 -0.583567
v 1.455133 0.112652 -0.583556
v 1.455184 0.112638 -0.583526
v 1.455161 0.112653 -0.583534
v 1.455109 0.112668 -0.583567
v 1.538385 0.110981 -0.583448
v 1.538825 0.111442 -0.583386
v 1.538825 0.111442 -0.583032
v 1.538144 0.110893 -0.583526
v 1.538358 0.110954 -0.583452
v 1.538103 0.110860 -0.583556
v 1.538825 0.111442 -0.582995
v 1.538119 0.110884 -0.583534
v 1.538077 0.110851 -0.583567
v 1.540409 0.113686 -0.583448
v 1.540429 0.113719 -0.583452
v 1.540439 0.113995 -0.583556
v 1.540419 0.113946 -0.583526
v 1.540088 0.113137 -0.583386
v 1.540088 0.113137 -0.583032
v 1.540440 0.114023 -0.583567
v 1.540420 0.113973 -0.583534
v 1.540088 0.113137 -0.582995
v 1.540976 0.113264 -0.583448
v 1.540542 0.112799 -0.583386
v 1.540542 0.112799 -0.583032
v 1.541222 0.113348 -0.583526
v 1.541002 0.113292 -0.583452
v 1.541263 0.113381 -0.583556
v 1.540542 0.112799 -0.582995
v 1.541248 0.113357 -0.583534
v 1.541290 0.113390 -0.583567
v 1.538964 0.110550 -0.583448
v 1.538945 0.110517 -0.583452
v 1.538929 0.110246 -0.583556
v 1.538949 0.110294 -0.583526
v 1.539279 0.111104 -0.583386
v 1.539279 0.111104 -0.583032
v 1.538927 0.110217 -0.583567
v 1.538947 0.110268 -0.583534
v 1.539279 0.111104 -0.582995
v 1.538420 0.110994 -0.583437
v 1.538825 0.111442 -0.583437
v 1.538395 0.110967 -0.583437
v 1.540408 0.113648 -0.583437
v 1.540427 0.113679 -0.583437
v 1.540088 0.113137 -0.583437
v 1.540940 0.113252 -0.583437
v 1.540542 0.112799 -0.583437
v 1.540964 0.113279 -0.583437
v 1.538967 0.110587 -0.583437
v 1.538948 0.110556 -0.583437
v 1.539279 0.111104 -0.583437
v 1.538967 0.110587 -0.583437
v 1.539279 0.111104 -0.583437
v 1.538825 0.111442 -0.583437
v 1.538420 0.110994 -0.583437
v 1.538948 0.110556 -0.583437
v 1.538395 0.110967 -0.583437
v 1.540408 0.113648 -0.583437
v 1.540088 0.113137 -0.583437
v 1.540542 0.112799 -0.583437
v 1.540940 0.113252 -0.583437
v 1.540427 0.113679 -0.583437
v 1.540964 0.113279 -0.583437
v 1.539972 0.110148 -0.583534
v 1.539842 0.111038 -0.582995
v 1.539279 0.111104 -0.582995
v 1.538947 0.110268 -0.583534
v 1.539980 0.110094 -0.583567
v 1.538927 0.110217 -0.583567
v 1.540920 0.110556 -0.583534
v 1.540362 0.111262 -0.582995
v 1.540953 0.110514 -0.583567
v 1.541536 0.111384 -0.583534
v 1.540700 0.111716 -0.582995
v 1.541587 0.111364 -0.583567
v 1.541656 0.112409 -0.583534
v 1.540766 0.112279 -0.582995
v 1.541710 0.112417 -0.583567
v 1.541248 0.113357 -0.583534
v 1.540542 0.112799 -0.582995
v 1.541290 0.113390 -0.583567
v 1.539395 0.114093 -0.583534
v 1.539525 0.113203 -0.582995
v 1.540088 0.113137 -0.582995
v 1.540420 0.113973 -0.583534
v 1.539387 0.114147 -0.583567
v 1.540440 0.114023 -0.583567
v 1.538447 0.113685 -0.583534
v 1.539005 0.112979 -0.582995
v 1.538414 0.113727 -0.583567
v 1.537831 0.112857 -0.583534
v 1.538667 0.112524 -0.582995
v 1.537781 0.112877 -0.583567
v 1.537711 0.111832 -0.583534
v 1.538601 0.111962 -0.582995
v 1.537657 0.111824 -0.583567
v 1.538119 0.110884 -0.583534
v 1.538825 0.111442 -0.582995
v 1.538077 0.110851 -0.583567
v 1.539056 0.111752 -0.582881
v 1.539087 0.111793 -0.582866
v 1.538955 0.112098 -0.582866
v 1.538914 0.112082 -0.582881
v 1.538994 0.112427 -0.582866
v 1.538956 0.112439 -0.582881
v 1.539192 0.112693 -0.582866
v 1.539170 0.112727 -0.582881
v 1.539497 0.112825 -0.582866
v 1.539500 0.112869 -0.582881
v 1.539826 0.112786 -0.582866
v 1.539857 0.112827 -0.582881
v 1.539857 0.112827 -0.582881
v 1.539056 0.111752 -0.582881
v 1.539503 0.111404 -0.582885
v 1.539541 0.111454 -0.582866
v 1.540281 0.112448 -0.582866
v 1.540318 0.112498 -0.582885
v 1.539866 0.111362 -0.582885
v 1.539870 0.111416 -0.582866
v 1.539503 0.111404 -0.582885
v 1.540202 0.111506 -0.582885
v 1.540175 0.111547 -0.582866
v 1.540420 0.111799 -0.582885
v 1.540373 0.111813 -0.582866
v 1.540463 0.112162 -0.582885
v 1.540412 0.112143 -0.582866
v 1.540318 0.112498 -0.582885
v 1.538929 0.110246 -0.583556
v 1.538945 0.110517 -0.583452
v 1.538358 0.110954 -0.583452
v 1.538103 0.110860 -0.583556
v 1.538927 0.110217 -0.583567
v 1.538077 0.110851 -0.583567
v 1.540439 0.113995 -0.583556
v 1.540429 0.113719 -0.583452
v 1.541002 0.113292 -0.583452
v 1.541263 0.113381 -0.583556
v 1.540440 0.114023 -0.583567
v 1.541290 0.113390 -0.583567
v 1.539089 0.111650 -0.584070
v 1.539089 0.111650 -0.585945
v 1.539404 0.111416 -0.585945
v 1.539404 0.111416 -0.584070
v 1.539089 0.111650 -0.583944
v 1.539404 0.111416 -0.583944
v 1.539793 0.111370 -0.585945
v 1.539793 0.111370 -0.584070
v 1.539793 0.111370 -0.583944
v 1.540154 0.111526 -0.585945
v 1.540154 0.111526 -0.584070
v 1.540154 0.111526 -0.583944
v 1.540388 0.111840 -0.585945
v 1.540388 0.111840 -0.584070
v 1.540388 0.111840 -0.583944
v 1.540433 0.112230 -0.585945
v 1.540433 0.112230 -0.584070
v 1.540433 0.112230 -0.583944
v 1.540278 0.112590 -0.585945
v 1.540278 0.112590 -0.584070
v 1.540278 0.112590 -0.583944
v 1.539963 0.112825 -0.585945
v 1.539963 0.112825 -0.584070
v 1.539963 0.112825 -0.583944
v 1.539574 0.112870 -0.585945
v 1.539574 0.112870 -0.584070
v 1.539574 0.112870 -0.583944
v 1.539214 0.112715 -0.585945
v 1.539214 0.112715 -0.584070
v 1.539214 0.112715 -0.583944
v 1.538979 0.112400 -0.585945
v 1.538979 0.112400 -0.584070
v 1.538979 0.112400 -0.583944
v 1.538934 0.112011 -0.585945
v 1.538934 0.112011 -0.584070
v 1.538934 0.112011 -0.583944
v 1.539089 0.111650 -0.585945
v 1.539089 0.111650 -0.584070
v 1.539089 0.111650 -0.583944
v 1.538856 0.111999 -0.583944
v 1.538934 0.112011 -0.583944
v 1.539089 0.111650 -0.583944
v 1.539027 0.111602 -0.583944
v 1.537726 0.111834 -0.583944
v 1.538131 0.110893 -0.583944
v 1.538906 0.112429 -0.583944
v 1.538979 0.112400 -0.583944
v 1.537845 0.112851 -0.583944
v 1.539165 0.112777 -0.583944
v 1.539214 0.112715 -0.583944
v 1.538457 0.113673 -0.583944
v 1.539563 0.112948 -0.583944
v 1.539574 0.112870 -0.583944
v 1.539397 0.114078 -0.583944
v 1.539993 0.112898 -0.583944
v 1.539963 0.112825 -0.583944
v 1.540415 0.113959 -0.583944
v 1.540340 0.112639 -0.583944
v 1.540278 0.112590 -0.583944
v 1.541236 0.113347 -0.583944
v 1.540511 0.112241 -0.583944
v 1.540433 0.112230 -0.583944
v 1.541642 0.112407 -0.583944
v 1.540461 0.111811 -0.583944
v 1.540388 0.111840 -0.583944
v 1.541522 0.111389 -0.583944
v 1.540202 0.111464 -0.583944
v 1.540154 0.111526 -0.583944
v 1.540910 0.110568 -0.583944
v 1.539805 0.111293 -0.583944
v 1.539793 0.111370 -0.583944
v 1.539970 0.110162 -0.583944
v 1.539375 0.111343 -0.583944
v 1.539404 0.111416 -0.583944
v 1.538953 0.110282 -0.583944
v 1.537657 0.111824 -0.583944
v 1.538077 0.110851 -0.583944
v 1.537781 0.112877 -0.583944
v 1.538414 0.113727 -0.583944
v 1.539387 0.114147 -0.583944
v 1.540440 0.114023 -0.583944
v 1.541290 0.113390 -0.583944
v 1.541710 0.112417 -0.583944
v 1.541587 0.111364 -0.583944
v 1.540953 0.110514 -0.583944
v 1.539980 0.110094 -0.583944
v 1.538927 0.110217 -0.583944
v 1.538077 0.110851 -0.583710
v 1.538077 0.110851 -0.583567
v 1.537657 0.111824 -0.583567
v 1.537657 0.111824 -0.583710
v 1.538077 0.110851 -0.583910
v 1.537657 0.111824 -0.583910
v 1.537657 0.111824 -0.583710
v 1.537657 0.111824 -0.583567
v 1.537781 0.112877 -0.583567
v 1.537781 0.112877 -0.583710
v 1.537657 0.111824 -0.583910
v 1.537781 0.112877 -0.583910
v 1.537781 0.112877 -0.583710
v 1.537781 0.112877 -0.583567
v 1.538414 0.113727 -0.583567
v 1.538414 0.113727 -0.583710
v 1.537781 0.112877 -0.583910
v 1.538414 0.113727 -0.583910
v 1.538414 0.113727 -0.583710
v 1.538414 0.113727 -0.583567
v 1.539387 0.114147 -0.583567
v 1.539387 0.114147 -0.583710
v 1.538414 0.113727 -0.583910
v 1.539387 0.114147 -0.583910
v 1.539387 0.114147 -0.583710
v 1.539387 0.114147 -0.583567
v 1.540440 0.114023 -0.583567
v 1.540440 0.114023 -0.583710
v 1.539387 0.114147 -0.583910
v 1.540440 0.114023 -0.583910
v 1.540440 0.114023 -0.583710
v 1.540440 0.114023 -0.583567
v 1.541290 0.113390 -0.583567
v 1.541290 0.113390 -0.583710
v 1.541290 0.113390 -0.583910
v 1.541290 0.113390 -0.583710
v 1.541290 0.113390 -0.583567
v 1.541710 0.112417 -0.583567
v 1.541710 0.112417 -0.583710
v 1.541290 0.113390 -0.583910
v 1.541710 0.112417 -0.583910
v 1.541710 0.112417 -0.583710
v 1.541710 0.112417 -0.583567
v 1.541587 0.111364 -0.583567
v 1.541587 0.111364 -0.583710
v 1.541710 0.112417 -0.583910
v 1.541587 0.111364 -0.583910
v 1.541587 0.111364 -0.583710
v 1.541587 0.111364 -0.583567
v 1.540953 0.110514 -0.583567
v 1.540953 0.110514 -0.583710
v 1.541587 0.111364 -0.583910
v 1.540953 0.110514 -0.583910
v 1.540953 0.110514 -0.583710
v 1.540953 0.110514 -0.583567
v 1.539980 0.110094 -0.583567
v 1.539980 0.110094 -0.583710
v 1.540953 0.110514 -0.583910
v 1.539980 0.110094 -0.583910
v 1.539980 0.110094 -0.583710
v 1.539980 0.110094 -0.583567
v 1.538927 0.110217 -0.583567
v 1.538927 0.110217 -0.583710
v 1.539980 0.110094 -0.583910
v 1.538927 0.110217 -0.583910
v 1.538927 0.110217 -0.583710
v 1.538927 0.110217 -0.583567
v 1.538077 0.110851 -0.583567
v 1.538077 0.110851 -0.583710
v 1.538927 0.110217 -0.583910
v 1.538077 0.110851 -0.583910
vn -0.150800 -0.634700 0.757900
vn 0.139700 -0.637300 0.757800
vn 0.133000 0.142700 0.980800
vn -0.130200 0.145000 0.980800
vn 0.052300 0.202200 0.977900
vn -0.048600 0.203000 0.977900
vn -0.044100 -0.618400 0.784600
vn -0.033400 0.618900 0.784800
vn 0.040000 0.613400 0.788800
vn 0.029300 -0.614100 0.788700
vn 0.130300 -0.144900 0.980800
vn -0.132800 -0.142700 0.980800
vn -0.052100 -0.202100 0.978000
vn 0.048700 -0.202900 0.978000
vn 0.150600 0.634500 0.758100
vn -0.139700 0.637000 0.758000
vn -0.733100 -0.189500 -0.653200
vn -0.968100 -0.250300 0.000000
vn -0.963600 0.267300 0.000000
vn -0.729600 0.202400 -0.653200
vn -0.540200 -0.530500 -0.653200
vn -0.713300 -0.700800 0.000000
vn -0.968100 -0.250300 0.000000
vn -0.202500 -0.729500 -0.653200
vn -0.267300 -0.963600 0.000000
vn -0.713300 -0.700800 0.000000
vn 0.189500 -0.733100 -0.653200
vn 0.250300 -0.968100 0.000000
vn 0.530500 -0.540200 -0.653200
vn 0.700800 -0.713300 0.000000
vn 0.250300 -0.968100 0.000000
vn 0.729600 -0.202400 -0.653200
vn 0.963600 -0.267200 0.000000
vn 0.700800 -0.713300 0.000000
vn 0.733100 0.189500 -0.653100
vn 0.968100 0.250300 0.000000
vn 0.963600 -0.267200 0.000000
vn 0.540300 0.530500 -0.653200
vn 0.713400 0.700800 0.000000
vn 0.968100 0.250300 0.000000
vn 0.202400 0.729600 -0.653200
vn 0.267300 0.963600 0.000000
vn 0.713400 0.700800 0.000000
vn -0.189500 0.733100 -0.653200
vn -0.250300 0.968100 0.000000
vn 0.267300 0.963600 0.000000
vn -0.530600 0.540100 -0.653200
vn -0.700800 0.713300 0.000000
vn -0.250300 0.968100 0.000000
vn -0.963600 0.267300 0.000000
vn -0.700800 0.713300 0.000000
vn -0.968100 -0.250400 0.000000
vn -0.963600 0.267200 0.000000
vn -0.854400 -0.201500 0.479000
vn -0.851000 0.216100 0.478600
vn -0.713200 -0.700900 0.000000
vn -0.968100 -0.250400 0.000000
vn -0.632800 -0.621900 0.461200
vn -0.854400 -0.201500 0.479000
vn -0.267200 -0.963600 0.000000
vn -0.713200 -0.700900 0.000000
vn -0.237100 -0.855000 0.461100
vn -0.632800 -0.621900 0.461200
vn 0.250400 -0.968100 0.000000
vn -0.267200 -0.963600 0.000000
vn 0.222200 -0.859100 0.461100
vn -0.237100 -0.855000 0.461100
vn 0.700900 -0.713200 0.000000
vn 0.250400 -0.968100 0.000000
vn 0.622000 -0.632900 0.461000
vn 0.222200 -0.859100 0.461100
vn 0.963600 -0.267200 0.000000
vn 0.700900 -0.713200 0.000000
vn 0.850900 -0.216700 0.478600
vn 0.622000 -0.632900 0.461000
vn 0.968100 0.250400 0.000000
vn 0.963600 -0.267200 0.000000
vn 0.854600 0.201600 0.478500
vn 0.850900 -0.216700 0.478600
vn 0.713300 0.700900 0.000000
vn 0.968100 0.250400 0.000000
vn 0.633000 0.621800 0.461100
vn 0.854600 0.201600 0.478500
vn 0.267200 0.963600 0.000000
vn 0.713300 0.700900 0.000000
vn 0.237000 0.855000 0.461200
vn 0.633000 0.621800 0.461100
vn -0.250400 0.968100 0.000000
vn 0.267200 0.963600 0.000000
vn -0.222200 0.859100 0.461100
vn 0.237000 0.855000 0.461200
vn -0.700900 0.713200 0.000000
vn -0.250400 0.968100 0.000000
vn -0.622000 0.632900 0.461000
vn -0.222200 0.859100 0.461100
vn -0.963600 0.267200 0.000000
vn -0.700900 0.713200 0.000000
vn -0.851000 0.216100 0.478600
vn -0.622000 0.632900 0.461000
vn 0.000000 0.000000 -1.000000
vn -0.000100 0.000000 -1.000000
vn 0.000000 0.000000 -1.000000
vn 0.000000 0.000000 -1.000000
vn 0.000000 0.000000 -1.000000
vn 0.000000 0.000000 -1.000000
vn 0.000000 0.000000 -1.000000
vn 0.000100 0.000000 -1.000000
vn 0.000000 0.000000 -1.000000
vn 0.000000 0.000000 -1.000000
vn 0.000000 0.000000 -1.000000
vn 0.000000 0.000000 -1.000000
vn -0.000100 0.000000 -1.000000
vn 0.000100 0.000000 -1.000000
vn -0.614600 0.170400 -0.770200
vn -0.617300 -0.159700 -0.770300
vn 0.000100 0.000000 -1.000000
vn -0.454700 -0.447100 -0.770300
vn 0.000000 0.000000 -1.000000
vn -0.170400 -0.614500 -0.770300
vn 0.000100 0.000000 -1.000000
vn 0.159800 -0.617400 -0.770200
vn 0.000100 0.000000 -1.000000
vn 0.447200 -0.454800 -0.770200
vn 0.000000 0.000000 -1.000000
vn 0.614600 -0.170400 -0.770200
vn -0.000100 0.000000 -1.000000
vn 0.617300 0.159700 -0.770300
vn -0.000100 0.000000 -1.000000
vn 0.454700 0.447100 -0.770300
vn 0.000000 0.000000 -1.000000
vn 0.170400 0.614500 -0.770300
vn -0.000100 0.000000 -1.000000
vn -0.159800 0.617400 -0.770200
vn -0.000100 0.000000 -1.000000
vn -0.447200 0.454800 -0.770200
vn -0.447200 0.454800 -0.770200
vn -0.700900 0.713300 0.000000
vn -0.963600 0.267300 0.000000
vn -0.614600 0.170400 -0.770200
vn -0.700900 0.713200 0.000000
vn -0.963600 0.267400 0.000000
vn -0.159800 0.617400 -0.770200
vn -0.250400 0.968100 0.000000
vn -0.250400 0.968100 0.000000
vn 0.170400 0.614500 -0.770300
vn 0.267300 0.963600 0.000000
vn 0.267300 0.963600 0.000000
vn 0.454700 0.447100 -0.770300
vn 0.713200 0.700900 0.000000
vn 0.713200 0.700900 0.000000
vn 0.617300 0.159700 -0.770300
vn 0.968100 0.250400 0.000000
vn 0.968100 0.250300 0.000000
vn 0.614600 -0.170400 -0.770200
vn 0.963600 -0.267300 0.000000
vn 0.963600 -0.267200 0.000000
vn 0.447200 -0.454800 -0.770200
vn 0.700900 -0.713200 0.000000
vn 0.700900 -0.713200 0.000000
vn 0.159800 -0.617400 -0.770200
vn 0.250300 -0.968100 0.000000
vn 0.250300 -0.968100 0.000000
vn -0.170400 -0.614500 -0.770300
vn -0.267300 -0.963600 0.000000
vn -0.267300 -0.963600 0.000000
vn -0.454700 -0.447100 -0.770300
vn -0.713100 -0.701000 0.000000
vn -0.713100 -0.701000 0.000000
vn -0.617300 -0.159700 -0.770300
vn -0.968100 -0.250500 0.000000
vn -0.968100 -0.250500 0.000000
vn -0.614600 0.170400 -0.770200
vn -0.963600 0.267300 0.000000
vn -0.963600 0.267400 0.000000
vn 0.111000 0.979000 0.170800
vn 0.040000 0.613400 0.788800
vn -0.033400 0.618900 0.784800
vn -0.096400 0.982700 0.158100
vn -0.113500 -0.980900 0.157800
vn -0.044100 -0.618400 0.784600
vn 0.029300 -0.614100 0.788700
vn 0.093900 -0.980800 0.170600
vn 0.354700 0.070400 0.932300
vn 0.151900 0.224300 0.962600
vn 0.148100 -0.227800 0.962400
vn 0.352600 -0.077500 0.932500
vn -0.355000 -0.073400 0.932000
vn -0.146800 -0.243900 0.958600
vn -0.142900 0.246100 0.958600
vn -0.353200 0.081800 0.932000
vn 0.397200 0.563000 0.724700
vn 0.179800 0.976700 0.116700
vn -0.159600 0.981300 0.107700
vn -0.386700 0.572900 0.722600
vn -0.396800 -0.566100 0.722600
vn -0.176900 -0.978300 0.107500
vn 0.162800 -0.979700 0.116500
vn 0.387800 -0.569500 0.724700
vn 0.854600 0.201600 0.478500
vn 0.479600 -0.153400 0.863900
vn 0.481500 0.144400 0.864500
vn 0.850900 -0.216700 0.478600
vn -0.854400 -0.201500 0.479000
vn -0.480600 0.166600 0.860900
vn -0.484000 -0.159500 0.860400
vn -0.851000 0.216100 0.478600
vn 0.397200 0.563000 0.724700
vn 0.220000 0.646100 0.730800
vn 0.227000 -0.237600 0.944500
vn 0.308600 -0.308400 0.899800
vn 0.086700 -0.342800 0.935400
vn 0.113600 -0.432600 0.894400
vn -0.092500 -0.341200 0.935400
vn -0.121100 -0.430600 0.894400
vn -0.231100 -0.233700 0.944400
vn -0.313900 -0.303000 0.899800
vn -0.208800 0.649900 0.730800
vn -0.386700 0.572900 0.722600
vn -0.208800 0.649900 0.730800
vn 0.220000 0.646100 0.730800
vn 0.208900 -0.649800 0.730800
vn -0.220100 -0.646100 0.730800
vn 0.313900 0.303000 0.899800
vn 0.231200 0.233700 0.944400
vn 0.387800 -0.569500 0.724700
vn 0.121200 0.430600 0.894400
vn 0.092600 0.341300 0.935400
vn -0.113600 0.432600 0.894400
vn -0.086600 0.342800 0.935400
vn -0.308500 0.308400 0.899800
vn -0.226900 0.237600 0.944500
vn -0.396800 -0.566100 0.722600
vn -0.220100 -0.646100 0.730800
vn -0.851000 0.216100 0.478600
vn -0.537500 -0.087600 0.838700
vn -0.360400 0.366600 0.857700
vn -0.622000 0.632900 0.461000
vn -0.128600 0.497600 0.857800
vn -0.222200 0.859100 0.461100
vn 0.137300 0.495300 0.857800
vn 0.237000 0.855000 0.461200
vn 0.366600 0.360200 0.857800
vn 0.633000 0.621800 0.461100
vn 0.534900 -0.084700 0.840600
vn 0.854600 0.201600 0.478500
vn 0.850900 -0.216700 0.478600
vn 0.535600 0.074600 0.841200
vn 0.360500 -0.366600 0.857700
vn 0.622000 -0.632900 0.461000
vn 0.128700 -0.497700 0.857800
vn 0.222200 -0.859100 0.461100
vn -0.137300 -0.495300 0.857800
vn -0.237100 -0.855000 0.461100
vn -0.366400 -0.360200 0.857900
vn -0.632800 -0.621900 0.461200
vn -0.535000 0.095500 0.839400
vn -0.854400 -0.201500 0.479000
vn 0.050100 -0.395100 0.917300
vn 0.057100 0.394400 0.917100
vn -0.056200 0.411100 0.909800
vn -0.063300 -0.410400 0.909700
vn -0.056200 0.411100 0.909800
vn -0.232900 0.361300 0.902900
vn -0.146800 -0.243900 0.958600
vn -0.355000 -0.073400 0.932000
vn 0.148100 -0.227800 0.962400
vn 0.057100 0.394400 0.917100
vn 0.238600 0.363200 0.900600
vn 0.352600 -0.077500 0.932500
vn 0.050100 -0.395100 0.917300
vn 0.231900 -0.369100 0.900000
vn 0.151900 0.224300 0.962600
vn 0.354700 0.070400 0.932300
vn -0.142900 0.246100 0.958600
vn -0.063300 -0.410400 0.909700
vn -0.239500 -0.357000 0.902900
vn -0.353200 0.081800 0.932000
vn -0.438900 0.566100 0.697700
vn -0.535000 0.095500 0.839400
vn -0.480600 0.166600 0.860900
vn -0.854400 -0.201500 0.479000
vn 0.481500 0.144400 0.864500
vn 0.449900 0.551600 0.702400
vn 0.535600 0.074600 0.841200
vn 0.850900 -0.216700 0.478600
vn 0.441500 -0.559500 0.701400
vn 0.534900 -0.084700 0.840600
vn 0.479600 -0.153400 0.863900
vn 0.854600 0.201600 0.478500
vn -0.484000 -0.159500 0.860400
vn -0.449200 -0.556700 0.698800
vn -0.537500 -0.087600 0.838700
vn -0.851000 0.216100 0.478600
vn 0.150400 -0.402300 0.903000
vn 0.724800 -0.670600 0.157800
vn 0.685500 -0.720000 0.107900
vn 0.184100 -0.692600 0.697400
vn -0.273600 -0.238700 0.931700
vn -0.159200 -0.485400 0.859600
vn 0.223000 -0.654000 0.722800
vn -0.248600 -0.486000 0.837800
vn -0.677000 -0.559100 0.478600
vn 0.435400 -0.030700 0.899700
vn 0.150100 0.327500 0.932800
vn 0.406100 0.298400 0.863700
vn 0.711100 0.027200 0.702600
vn 0.847000 -0.503200 0.171100
vn 0.887500 -0.445900 0.116200
vn 0.341400 0.809000 0.478500
vn 0.383400 0.384000 0.839900
vn 0.689000 -0.022200 0.724400
vn -0.152800 0.407300 0.900400
vn -0.724600 0.667600 0.171000
vn -0.681800 0.722200 0.116800
vn -0.176800 0.690300 0.701500
vn 0.271500 0.239500 0.932100
vn 0.167700 0.476900 0.862800
vn -0.219100 0.653100 0.724800
vn 0.255700 0.479500 0.839400
vn 0.676800 0.559300 0.478500
vn -0.429400 0.025200 0.902700
vn -0.149000 -0.329900 0.932200
vn -0.419100 -0.288200 0.861000
vn -0.715700 -0.021500 0.698000
vn -0.850100 0.502400 0.158100
vn -0.886800 0.449400 0.107500
vn -0.342100 -0.808400 0.478900
vn -0.394000 -0.374700 0.839200
vn -0.691000 0.025100 0.722300
vn 0.294100 -0.292700 0.909800
vn 0.473100 -0.400600 0.784600
vn -0.280600 0.031900 0.959300
vn 0.347400 -0.192600 0.917700
vn -0.091000 0.255200 0.962600
vn 0.512500 -0.338700 0.789100
vn -0.284300 0.278600 0.917300
vn -0.471200 0.394500 0.788900
vn 0.270900 -0.014800 0.962500
vn -0.364900 0.197400 0.909800
vn 0.110600 -0.262400 0.958600
vn -0.519300 0.338500 0.784700
vn -0.364900 0.197400 0.909800
vn -0.519300 0.338500 0.784700
vn 0.473100 -0.400600 0.784600
vn 0.294100 -0.292700 0.909800
vn 0.110600 -0.262400 0.958600
vn -0.280600 0.031900 0.959300
vn 0.347400 -0.192600 0.917700
vn 0.512500 -0.338700 0.789100
vn -0.471200 0.394500 0.788900
vn -0.284300 0.278600 0.917300
vn -0.091000 0.255200 0.962600
vn 0.270900 -0.014800 0.962500
vn 0.074300 -0.508500 0.857800
vn 0.059200 -0.432300 0.899800
vn -0.691000 0.025100 0.722300
vn -0.394000 -0.374700 0.839200
vn 0.128300 -0.878000 0.461200
vn -0.342100 -0.808400 0.478900
vn 0.318600 -0.403200 0.857800
vn 0.276000 -0.352000 0.894400
vn 0.550200 -0.696100 0.461200
vn 0.477400 -0.189900 0.857900
vn 0.416300 -0.163600 0.894400
vn 0.824400 -0.327800 0.461300
vn 0.508200 0.074300 0.858000
vn 0.431100 0.067000 0.899800
vn 0.877800 0.128400 0.461400
vn 0.255700 0.479500 0.839400
vn -0.219100 0.653100 0.724800
vn 0.676800 0.559300 0.478500
vn -0.074300 0.508600 0.857800
vn -0.059200 0.432200 0.899800
vn 0.689000 -0.022200 0.724400
vn 0.383400 0.384000 0.839900
vn -0.128400 0.878000 0.461100
vn 0.341400 0.809000 0.478500
vn -0.318600 0.403300 0.857800
vn -0.276000 0.351900 0.894400
vn -0.550100 0.696200 0.461100
vn -0.477500 0.189900 0.857800
vn -0.416300 0.163600 0.894400
vn -0.824500 0.327900 0.461200
vn -0.508500 -0.074300 0.857800
vn -0.431100 -0.067000 0.899800
vn -0.878000 -0.128400 0.461200
vn -0.248600 -0.486000 0.837800
vn 0.223000 -0.654000 0.722800
vn -0.677000 -0.559100 0.478600
vn 0.391700 -0.559000 0.730800
vn 0.421900 -0.495900 0.759000
vn -0.193900 -0.019600 0.980800
vn -0.325800 -0.042900 0.944400
vn -0.192600 0.080600 0.977900
vn -0.327900 0.132500 0.935400
vn -0.132300 0.161400 0.978000
vn -0.220700 0.276100 0.935400
vn -0.036700 0.191300 0.980800
vn -0.052100 0.324400 0.944500
vn 0.594900 -0.263600 0.759300
vn 0.647800 -0.215300 0.730700
vn 0.647800 -0.215300 0.730700
vn 0.391700 -0.559000 0.730800
vn -0.647700 0.215200 0.730800
vn -0.597400 0.264200 0.757100
vn -0.424000 0.497100 0.757000
vn -0.391500 0.559000 0.730900
vn 0.052200 -0.324500 0.944400
vn 0.036800 -0.191400 0.980800
vn -0.647700 0.215200 0.730800
vn 0.220700 -0.276200 0.935400
vn 0.132400 -0.161500 0.977900
vn 0.327800 -0.132500 0.935400
vn 0.192500 -0.080600 0.978000
vn 0.325800 0.042800 0.944500
vn 0.193800 0.019600 0.980800
vn -0.391500 0.559000 0.730900
vn -0.419100 -0.288200 0.861000
vn -0.149000 -0.329900 0.932200
vn -0.273600 -0.238700 0.931700
vn -0.159200 -0.485400 0.859600
vn -0.342100 -0.808400 0.478900
vn -0.677000 -0.559100 0.478600
vn 0.406100 0.298400 0.863700
vn 0.150100 0.327500 0.932800
vn 0.271500 0.239500 0.932100
vn 0.167700 0.476900 0.862800
vn 0.341400 0.809000 0.478500
vn 0.676800 0.559300 0.478500
vn -0.784500 -0.620100 0.000000
vn -0.784500 -0.620100 0.000000
vn -0.369400 -0.929300 0.000000
vn -0.369400 -0.929300 0.000000
vn -0.500200 -0.395500 -0.770300
vn -0.235600 -0.592600 -0.770200
vn 0.144600 -0.989500 0.000000
vn 0.144700 -0.989500 0.000000
vn 0.092200 -0.631000 -0.770300
vn 0.620100 -0.784500 0.000000
vn 0.620100 -0.784500 0.000000
vn 0.395500 -0.500300 -0.770200
vn 0.929300 -0.369300 0.000000
vn 0.929300 -0.369400 0.000000
vn 0.592700 -0.235600 -0.770200
vn 0.989500 0.144700 0.000000
vn 0.989500 0.144700 0.000000
vn 0.630800 0.092300 -0.770400
vn 0.784500 0.620100 0.000000
vn 0.784500 0.620100 0.000000
vn 0.500200 0.395500 -0.770300
vn 0.369400 0.929300 0.000000
vn 0.369400 0.929300 0.000000
vn 0.235500 0.592600 -0.770200
vn -0.144600 0.989500 0.000000
vn -0.144600 0.989500 0.000000
vn -0.092200 0.631000 -0.770300
vn -0.620100 0.784500 0.000000
vn -0.620100 0.784500 0.000000
vn -0.395500 0.500200 -0.770300
vn -0.929300 0.369300 0.000000
vn -0.929300 0.369400 0.000000
vn -0.592700 0.235600 -0.770200
vn -0.989500 -0.144700 0.000000
vn -0.989500 -0.144700 0.000000
vn -0.630800 -0.092300 -0.770400
vn -0.784500 -0.620100 0.000000
vn -0.784500 -0.620100 0.000000
vn -0.500200 -0.395500 -0.770300
vn 0.000100 0.000000 -1.000000
vn -0.630800 -0.092300 -0.770400
vn -0.500200 -0.395500 -0.770300
vn 0.000000 0.000000 -1.000000
vn 0.000000 0.000000 -1.000000
vn 0.000200 0.000000 -1.000000
vn 0.000000 0.000000 -1.000000
vn -0.592700 0.235600 -0.770200
vn -0.000300 0.000000 -1.000000
vn 0.000000 0.000000 -1.000000
vn -0.395500 0.500200 -0.770300
vn -0.000100 0.000000 -1.000000
vn 0.000000 0.000000 -1.000000
vn -0.092200 0.631000 -0.770300
vn 0.000000 0.000000 -1.000000
vn 0.000000 0.000000 -1.000000
vn 0.235500 0.592600 -0.770200
vn 0.000000 0.000000 -1.000000
vn -0.000100 0.000000 -1.000000
vn 0.500200 0.395500 -0.770300
vn -0.000100 0.000000 -1.000000
vn -0.000100 0.000000 -1.000000
vn 0.630800 0.092300 -0.770400
vn 0.000000 0.000000 -1.000000
vn 0.000100 0.000000 -1.000000
vn 0.592700 -0.235600 -0.770200
vn 0.000000 0.000000 -1.000000
vn 0.000000 0.000000 -1.000000
vn 0.395500 -0.500300 -0.770200
vn 0.000000 0.000000 -1.000000
vn 0.000000 0.000000 -1.000000
vn 0.092200 -0.631000 -0.770300
vn 0.000000 0.000000 -1.000000
vn 0.000000 0.000000 -1.000000
vn -0.235600 -0.592600 -0.770200
vn 0.000000 0.000000 -1.000000
vn -0.749200 -0.109500 -0.653200
vn -0.593800 -0.469600 -0.653300
vn -0.703600 0.279900 -0.653100
vn -0.469500 0.594100 -0.653200
vn -0.109600 0.749200 -0.653200
vn 0.279800 0.703500 -0.653200
vn 0.594000 0.469400 -0.653200
vn 0.749100 0.109500 -0.653200
vn 0.703500 -0.279900 -0.653200
vn 0.469400 -0.594100 -0.653200
vn 0.109600 -0.749200 -0.653200
vn -0.279600 -0.703600 -0.653200
vn -0.784500 -0.620100 0.000000
vn -0.677000 -0.559100 0.478600
vn -0.878000 -0.128400 0.461200
vn -0.989400 -0.144700 0.000000
vn -0.784500 -0.620100 0.000000
vn -0.989500 -0.144700 0.000000
vn -0.989400 -0.144700 0.000000
vn -0.878000 -0.128400 0.461200
vn -0.824500 0.327900 0.461200
vn -0.929200 0.369400 0.000000
vn -0.989500 -0.144700 0.000000
vn -0.929200 0.369500 0.000000
vn -0.929200 0.369400 0.000000
vn -0.824500 0.327900 0.461200
vn -0.550100 0.696200 0.461100
vn -0.620000 0.784500 0.000000
vn -0.929200 0.369500 0.000000
vn -0.620000 0.784600 0.000000
vn -0.620000 0.784500 0.000000
vn -0.550100 0.696200 0.461100
vn -0.128400 0.878000 0.461100
vn -0.144700 0.989500 0.000000
vn -0.620000 0.784600 0.000000
vn -0.144700 0.989500 0.000000
vn -0.144700 0.989500 0.000000
vn -0.128400 0.878000 0.461100
vn 0.341400 0.809000 0.478500
vn 0.369400 0.929300 0.000000
vn -0.144700 0.989500 0.000000
vn 0.369500 0.929200 0.000000
vn 0.369400 0.929300 0.000000
vn 0.341400 0.809000 0.478500
vn 0.676800 0.559300 0.478500
vn 0.784500 0.620100 0.000000
vn 0.784600 0.620000 0.000000
vn 0.784500 0.620100 0.000000
vn 0.676800 0.559300 0.478500
vn 0.877800 0.128400 0.461400
vn 0.989500 0.144700 0.000000
vn 0.784600 0.620000 0.000000
vn 0.989500 0.144600 0.000000
vn 0.989500 0.144700 0.000000
vn 0.877800 0.128400 0.461400
vn 0.824400 -0.327800 0.461300
vn 0.929300 -0.369400 0.000000
vn 0.989500 0.144600 0.000000
vn 0.929200 -0.369500 0.000000
vn 0.929300 -0.369400 0.000000
vn 0.824400 -0.327800 0.461300
vn 0.550200 -0.696100 0.461200
vn 0.620000 -0.784500 0.000000
vn 0.929200 -0.369500 0.000000
vn 0.620000 -0.784600 0.000000
vn 0.620000 -0.784500 0.000000
vn 0.550200 -0.696100 0.461200
vn 0.128300 -0.878000 0.461200
vn 0.144700 -0.989500 0.000000
vn 0.620000 -0.784600 0.000000
vn 0.144700 -0.989500 0.000000
vn 0.144700 -0.989500 0.000000
vn 0.128300 -0.878000 0.461200
vn -0.342100 -0.808400 0.478900
vn -0.369400 -0.929200 0.000000
vn 0.144700 -0.989500 0.000000
vn -0.369400 -0.929300 0.000000
vn -0.369400 -0.929200 0.000000
vn -0.342100 -0.808400 0.478900
vn -0.677000 -0.559100 0.478600
vn -0.784500 -0.620100 0.000000
vn -0.369400 -0.929300 0.000000
vn -0.784500 -0.620100 0.000000
vt -0.548100 0.580700
vt -0.548100 0.579300
vt -0.547400 0.579500
vt -0.547400 0.580500
vt -0.547000 0.579800
vt -0.547000 0.580200
vt -1.406100 0.748500
vt -1.407400 0.748500
vt -1.407300 0.746400
vt -1.406000 0.746400
vt -1.379100 0.578500
vt -1.379100 0.579500
vt -1.379500 0.579200
vt -1.379500 0.578900
vt -1.378400 0.578300
vt -1.378400 0.579700
vt -2.328700 0.610600
vt -2.328800 0.610400
vt -2.326400 0.610200
vt -2.326300 0.610300
vt -2.330500 0.611300
vt -2.330800 0.611200
vt -2.328900 0.610500
vt -2.331300 0.612300
vt -2.331600 0.612300
vt -2.330900 0.611200
vt -2.330800 0.613400
vt -2.331200 0.613400
vt -2.329100 0.614200
vt -2.329300 0.614300
vt -2.331100 0.613500
vt -2.326700 0.614500
vt -2.326800 0.614700
vt -2.329200 0.614400
vt -2.324300 0.614300
vt -2.324200 0.614400
vt -2.326600 0.614700
vt -2.322500 0.613600
vt -2.322300 0.613700
vt -2.324100 0.614400
vt -2.321700 0.612500
vt -2.321400 0.612600
vt -2.322200 0.613600
vt -2.322200 0.611400
vt -2.321900 0.611400
vt -2.321400 0.612500
vt -2.323900 0.610600
vt -2.323700 0.610500
vt -2.322000 0.611300
vt -2.326200 0.610200
vt -2.323800 0.610500
vt -2.328900 0.610200
vt -2.326500 0.610000
vt -2.329000 0.610100
vt -2.326600 0.609800
vt -2.331100 0.611000
vt -2.329200 0.610300
vt -2.331300 0.610900
vt -2.329500 0.610200
vt -2.332100 0.612200
vt -2.331300 0.611200
vt -2.332400 0.612200
vt -2.331700 0.611100
vt -2.331600 0.613500
vt -2.332100 0.612400
vt -2.332000 0.613500
vt -2.332500 0.612400
vt -2.329700 0.614500
vt -2.331400 0.613700
vt -2.330000 0.614600
vt -2.331700 0.613800
vt -2.326900 0.614900
vt -2.329300 0.614600
vt -2.327100 0.615000
vt -2.329400 0.614700
vt -2.324100 0.614600
vt -2.326500 0.614900
vt -2.324100 0.614800
vt -2.326400 0.615000
vt -2.321900 0.613800
vt -2.323800 0.614600
vt -2.321700 0.614000
vt -2.323600 0.614700
vt -2.320900 0.612600
vt -2.321700 0.613700
vt -2.320600 0.612700
vt -2.321400 0.613700
vt -2.321400 0.611400
vt -2.320900 0.612500
vt -2.321000 0.611300
vt -2.320500 0.612400
vt -2.323300 0.610400
vt -2.321600 0.611200
vt -2.323100 0.610300
vt -2.321300 0.611100
vt -2.326100 0.610000
vt -2.323700 0.610300
vt -2.326000 0.609800
vt -2.323600 0.610100
vt -2.326300 0.610400
vt -2.328500 0.610700
vt -2.330300 0.611300
vt -2.331000 0.612300
vt -2.330500 0.613300
vt -2.328900 0.614100
vt -2.326700 0.614400
vt -2.324500 0.614200
vt -2.322800 0.613500
vt -2.322000 0.612500
vt -2.322500 0.611500
vt -2.324100 0.610700
vt -2.326400 0.611600
vt -2.327400 0.611700
vt -2.326400 0.611700
vt -2.327300 0.611800
vt -2.328100 0.612000
vt -2.328000 0.612000
vt -2.328400 0.612400
vt -2.328200 0.612400
vt -2.328200 0.612800
vt -2.328000 0.612800
vt -2.327500 0.613100
vt -2.327400 0.613100
vt -2.326600 0.613300
vt -2.326600 0.613200
vt -2.325600 0.613200
vt -2.325700 0.613100
vt -2.324900 0.612900
vt -2.325100 0.612800
vt -2.324600 0.612500
vt -2.324800 0.612500
vt -2.324800 0.612000
vt -2.325000 0.612100
vt -2.325500 0.611700
vt -2.325600 0.611800
vt 0.252400 1.831800
vt 0.252400 1.831700
vt 0.253300 1.831700
vt 0.253300 1.831800
vt 0.252400 1.829500
vt 0.253300 1.829500
vt 0.251400 1.831800
vt 0.251400 1.831700
vt 0.251400 1.829500
vt 0.250400 1.831800
vt 0.250400 1.831700
vt 0.250400 1.829500
vt 0.249500 1.831800
vt 0.249500 1.831700
vt 0.249500 1.829500
vt 0.248500 1.831800
vt 0.248500 1.831700
vt 0.248500 1.829500
vt 0.247500 1.831800
vt 0.247500 1.831700
vt 0.247500 1.829500
vt 0.246600 1.831800
vt 0.246600 1.831700
vt 0.246600 1.829500
vt 0.245600 1.831800
vt 0.245600 1.831700
vt 0.245600 1.829500
vt 0.244700 1.831800
vt 0.244700 1.831700
vt 0.244700 1.829500
vt 0.243700 1.831800
vt 0.243700 1.831700
vt 0.243700 1.829500
vt 0.242700 1.831800
vt 0.242700 1.831700
vt 0.242700 1.829500
vt 0.241800 1.831800
vt 0.241800 1.831700
vt 0.241800 1.829500
vt -1.377000 0.577900
vt -1.376900 0.577900
vt -1.376900 0.580200
vt -1.377000 0.580200
vt -0.549500 0.581200
vt -0.549600 0.581200
vt -0.549600 0.578800
vt -0.549500 0.578800
vt -1.405800 0.745600
vt -1.405800 0.745700
vt -1.407300 0.745700
vt -1.407500 0.745600
vt -1.407600 0.749300
vt -1.407600 0.749200
vt -1.406000 0.749200
vt -1.405900 0.749300
vt -1.378000 0.577900
vt -1.377900 0.577900
vt -1.377900 0.580200
vt -1.378000 0.580200
vt -0.548500 0.581200
vt -0.548600 0.581200
vt -0.548500 0.578800
vt -0.548400 0.578800
vt -1.405400 0.745200
vt -1.405400 0.745400
vt -1.407800 0.745300
vt -1.408000 0.745200
vt -1.408000 0.749700
vt -1.408000 0.749500
vt -1.405600 0.749600
vt -1.405400 0.749700
vt -1.378600 0.577800
vt -1.378400 0.578300
vt -1.379200 0.578500
vt -1.379700 0.578200
vt -1.379600 0.578800
vt -1.380300 0.578700
vt -1.379600 0.579200
vt -1.380300 0.579300
vt -1.379200 0.579600
vt -1.379700 0.579900
vt -1.378400 0.579800
vt -1.378600 0.580200
vt -1.378300 0.579800
vt -1.378300 0.578300
vt -0.548100 0.579300
vt -0.548200 0.580800
vt -0.546800 0.579200
vt -0.547300 0.579500
vt -0.547900 0.578800
vt -0.546200 0.579700
vt -0.546900 0.579800
vt -0.546200 0.580300
vt -0.546900 0.580200
vt -0.546800 0.580900
vt -0.547300 0.580600
vt -0.547900 0.581200
vt -0.548100 0.580800
vt -0.546700 0.582300
vt -0.546800 0.582300
vt -0.544800 0.581600
vt -0.544700 0.581600
vt -0.543700 0.580600
vt -0.543600 0.580600
vt -0.543700 0.579500
vt -0.543600 0.579500
vt -0.544800 0.578500
vt -0.544700 0.578400
vt -0.546800 0.577800
vt -0.546700 0.577700
vt -1.379700 0.576700
vt -1.379700 0.576800
vt -1.381700 0.577500
vt -1.381800 0.577400
vt -1.382800 0.578500
vt -1.382900 0.578500
vt -1.382800 0.579600
vt -1.382900 0.579600
vt -1.381700 0.580600
vt -1.381800 0.580600
vt -1.379700 0.581300
vt -1.379800 0.581300
vt -1.405900 0.745800
vt -1.407400 0.745800
vt -1.407600 0.749100
vt -1.406000 0.749100
vt -1.376800 0.580900
vt -1.376900 0.580900
vt -1.376800 0.580900
vt -1.376800 0.581000
vt -1.376800 0.577200
vt -1.376800 0.577200
vt -1.376800 0.577200
vt -1.376800 0.577100
vt -0.549700 0.578200
vt -0.549700 0.578100
vt -0.549700 0.578100
vt -0.549700 0.578100
vt -0.549700 0.581900
vt -0.549700 0.581900
vt -0.549700 0.581900
vt -0.549700 0.582000
vt -1.376800 0.581200
vt -1.376800 0.581200
vt -1.376700 0.581300
vt -1.376700 0.581300
vt -1.376700 0.576800
vt -1.376800 0.576800
vt -1.376800 0.576800
vt -1.376700 0.576800
vt -0.549700 0.577800
vt -0.549700 0.577800
vt -0.549800 0.577800
vt -0.549800 0.577700
vt -0.549800 0.582300
vt -0.549700 0.582200
vt -0.549700 0.582200
vt -0.549800 0.582300
vt -0.543100 0.582000
vt -0.542900 0.581300
vt -0.542000 0.581300
vt -0.543100 0.582300
vt -0.543100 0.582000
vt -0.543200 0.582400
vt -0.541900 0.581300
vt -0.543100 0.582300
vt -0.543200 0.582400
vt -0.543100 0.578200
vt -0.543100 0.578200
vt -0.543200 0.577900
vt -0.543100 0.577900
vt -0.542900 0.578900
vt -0.542000 0.578900
vt -0.543200 0.577800
vt -0.543100 0.577900
vt -0.541900 0.578900
vt -1.383100 0.577100
vt -1.383200 0.577900
vt -1.384200 0.577900
vt -1.383000 0.576800
vt -1.383000 0.577100
vt -1.383000 0.576800
vt -1.384300 0.577900
vt -1.383000 0.576800
vt -1.383000 0.576700
vt -1.383100 0.580900
vt -1.383000 0.581000
vt -1.382900 0.581300
vt -1.383000 0.581200
vt -1.383200 0.580200
vt -1.384200 0.580200
vt -1.382900 0.581300
vt -1.383000 0.581300
vt -1.384300 0.580200
vt -0.543100 0.582000
vt -0.543000 0.581300
vt -0.543100 0.582000
vt -0.543100 0.578300
vt -0.543100 0.578200
vt -0.543000 0.578900
vt -1.383000 0.577200
vt -1.383100 0.577900
vt -1.383000 0.577200
vt -1.383100 0.580900
vt -1.383000 0.580900
vt -1.383100 0.580200
vt 0.289400 1.829800
vt 0.290700 1.829800
vt 0.290700 1.830400
vt 0.289400 1.830400
vt 0.289200 1.829700
vt 0.289200 1.830400
vt 0.296800 1.830500
vt 0.295500 1.830400
vt 0.295500 1.829800
vt 0.296800 1.829800
vt 0.297000 1.830500
vt 0.297000 1.829800
vt -1.387900 0.580600
vt -1.385900 0.579900
vt -1.384800 0.580200
vt -1.385900 0.581300
vt -1.388000 0.580600
vt -1.386000 0.581300
vt -1.389000 0.579600
vt -1.386500 0.579300
vt -1.389200 0.579600
vt -1.389000 0.578500
vt -1.386500 0.578700
vt -1.389200 0.578500
vt -1.387900 0.577500
vt -1.385900 0.578200
vt -1.388000 0.577400
vt -1.385900 0.576800
vt -1.384800 0.577800
vt -1.386000 0.576700
vt -0.538200 0.578600
vt -0.540200 0.579300
vt -0.541300 0.578900
vt -0.540200 0.577900
vt -0.538100 0.578500
vt -0.540100 0.577800
vt -0.537100 0.579600
vt -0.539600 0.579800
vt -0.537000 0.579500
vt -0.537100 0.580700
vt -0.539600 0.580400
vt -0.537000 0.580700
vt -0.538200 0.581700
vt -0.540200 0.580900
vt -0.538100 0.581700
vt -0.540200 0.582400
vt -0.541300 0.581300
vt -0.540200 0.582400
vt -0.541500 0.580900
vt -0.541500 0.580800
vt -0.540800 0.580600
vt -0.540800 0.580600
vt -0.540400 0.580300
vt -0.540300 0.580300
vt -0.540400 0.579900
vt -0.540300 0.579900
vt -0.540800 0.579600
vt -0.540800 0.579600
vt -0.541500 0.579400
vt -0.541500 0.579400
vt -0.541600 0.579400
vt -0.541600 0.580900
vt -1.384600 0.579800
vt -1.384600 0.579700
vt -1.384600 0.578300
vt -1.384600 0.578300
vt -1.385400 0.579600
vt -1.385300 0.579500
vt -1.384700 0.579800
vt -1.385800 0.579200
vt -1.385700 0.579200
vt -1.385800 0.578800
vt -1.385700 0.578900
vt -1.385400 0.578500
vt -1.385300 0.578500
vt -1.384700 0.578300
vt 0.288400 1.829600
vt 0.289000 1.829700
vt 0.288900 1.830500
vt 0.288300 1.830600
vt 0.288100 1.829500
vt 0.288000 1.830700
vt 0.297800 1.830700
vt 0.297200 1.830500
vt 0.297200 1.829800
vt 0.297800 1.829600
vt 0.298100 1.830700
vt 0.298200 1.829500
vt 0.276400 1.831700
vt 0.276400 1.829500
vt 0.277400 1.829500
vt 0.277400 1.831700
vt 0.276400 1.831800
vt 0.277400 1.831800
vt 0.278400 1.829500
vt 0.278400 1.831700
vt 0.278400 1.831800
vt 0.279300 1.829500
vt 0.279300 1.831700
vt 0.279300 1.831800
vt 0.280300 1.829500
vt 0.280300 1.831700
vt 0.280300 1.831800
vt 0.281200 1.829500
vt 0.281200 1.831700
vt 0.281200 1.831800
vt 0.282200 1.829500
vt 0.282200 1.831700
vt 0.282200 1.831800
vt 0.283200 1.829500
vt 0.283200 1.831700
vt 0.283200 1.831800
vt 0.284100 1.829500
vt 0.284100 1.831700
vt 0.284100 1.831800
vt 0.285100 1.829500
vt 0.285100 1.831700
vt 0.285100 1.831800
vt 0.286100 1.829500
vt 0.286100 1.831700
vt 0.286100 1.831800
vt 0.287000 1.829500
vt 0.287000 1.831700
vt 0.287000 1.831800
vt 0.288000 1.829500
vt 0.288000 1.831700
vt 0.288000 1.831800
vt -1.382700 0.583100
vt -1.382700 0.583200
vt -1.383500 0.583300
vt -1.383600 0.583200
vt -1.382700 0.582000
vt -1.384900 0.582200
vt -1.381700 0.583200
vt -1.381800 0.583300
vt -1.380400 0.582200
vt -1.381100 0.583500
vt -1.381200 0.583600
vt -1.378800 0.583000
vt -1.380800 0.584000
vt -1.381000 0.584000
vt -1.378200 0.584000
vt -1.381100 0.584400
vt -1.381200 0.584300
vt -1.378900 0.585000
vt -1.381800 0.584700
vt -1.381900 0.584600
vt -1.380600 0.585700
vt -1.382700 0.584800
vt -1.382700 0.584700
vt -1.382800 0.585900
vt -1.383700 0.584700
vt -1.383600 0.584600
vt -1.385000 0.585700
vt -1.384400 0.584400
vt -1.384200 0.584300
vt -1.386600 0.584900
vt -1.384600 0.583900
vt -1.384400 0.583900
vt -1.387200 0.583900
vt -1.384300 0.583500
vt -1.384200 0.583600
vt -1.386600 0.582900
vt -1.382600 0.581800
vt -1.385000 0.582100
vt -1.380300 0.582100
vt -1.378500 0.582900
vt -1.377900 0.584000
vt -1.378600 0.585000
vt -1.380400 0.585800
vt -1.382800 0.586100
vt -1.385200 0.585800
vt -1.386900 0.585000
vt -1.387600 0.583900
vt -1.386800 0.582800
vt -1.385200 0.581700
vt -1.385300 0.581600
vt -1.382900 0.581300
vt -1.382800 0.581500
vt -1.385100 0.581900
vt -1.382700 0.581700
vt -1.382500 0.581500
vt -1.382400 0.581300
vt -1.380000 0.581600
vt -1.380100 0.581800
vt -1.382600 0.581700
vt -1.380200 0.582000
vt -1.379700 0.581900
vt -1.379500 0.581700
vt -1.377700 0.582500
vt -1.377900 0.582600
vt -1.380100 0.582000
vt -1.378300 0.582800
vt -1.377700 0.582800
vt -1.377400 0.582800
vt -1.376700 0.583800
vt -1.377100 0.583900
vt -1.378200 0.582900
vt -1.377500 0.583900
vt -1.377100 0.584100
vt -1.376700 0.584100
vt -1.377400 0.585200
vt -1.377800 0.585100
vt -1.377500 0.584000
vt -1.378300 0.585100
vt -1.378000 0.585300
vt -1.377800 0.585400
vt -1.379600 0.586200
vt -1.379800 0.586100
vt -1.380200 0.585900
vt -1.380200 0.586100
vt -1.380100 0.586300
vt -1.382500 0.586500
vt -1.382600 0.586400
vt -1.380300 0.585900
vt -1.382700 0.586200
vt -1.383000 0.586400
vt -1.383100 0.586500
vt -1.385400 0.586300
vt -1.385300 0.586100
vt -1.382800 0.586200
vt -1.385200 0.585900
vt -1.385700 0.586000
vt -1.386000 0.586100
vt -1.387700 0.585400
vt -1.387500 0.585300
vt -1.385400 0.585900
vt -1.387100 0.585100
vt -1.387700 0.585100
vt -1.388100 0.585100
vt -1.388700 0.584100
vt -1.388400 0.584000
vt -1.387200 0.585000
vt -1.387900 0.584000
vt -1.388400 0.583800
vt -1.388700 0.583800
vt -1.388000 0.582700
vt -1.387600 0.582700
vt -1.387900 0.583900
vt -1.387200 0.582800
vt -1.387400 0.582600
vt -1.387700 0.582500
vt -1.385900 0.581700
vt -1.385600 0.581800
vt -1.387100 0.582700
vt -1.385300 0.582000
f 1/1/1 2/2/2 3/3/3
f 1/1/1 3/3/3 4/4/4
f 4/4/4 3/3/3 5/5/5
f 4/4/4 5/5/5 6/6/6
f 7/7/7 8/8/8 9/9/9
f 7/7/7 9/9/9 10/10/10
f 11/11/11 12/12/12 13/13/13
f 11/11/11 13/13/13 14/14/14
f 15/15/15 16/16/16 12/12/12
f 15/15/15 12/12/12 11/11/11
f 17/17/17 18/18/18 19/19/19
f 17/17/17 19/19/19 20/20/20
f 21/21/21 22/22/22 23/23/23
f 21/21/21 23/23/23 17/17/17
f 24/24/24 25/25/25 26/26/26
f 24/24/24 26/26/26 21/21/21
f 27/27/27 28/28/28 25/25/25
f 27/27/27 25/25/25 24/24/24
f 29/29/29 30/30/30 31/31/31
f 29/29/29 31/31/31 27/27/27
f 32/32/32 33/33/33 34/34/34
f 32/32/32 34/34/34 29/29/29
f 35/35/35 36/36/36 37/37/37
f 35/35/35 37/37/37 32/32/32
f 38/38/38 39/39/39 40/40/40
f 38/38/38 40/40/40 35/35/35
f 41/41/41 42/42/42 43/43/43
f 41/41/41 43/43/43 38/38/38
f 44/44/44 45/45/45 46/46/46
f 44/44/44 46/46/46 41/41/41
f 47/47/47 48/48/48 49/49/49
f 47/47/47 49/49/49 44/44/44
f 20/20/20 50/50/50 51/51/51
f 20/20/20 51/51/51 47/47/47
f 18/18/18 52/52/52 53/53/53
f 18/18/18 53/53/53 19/19/19
f 52/52/52 54/54/54 55/55/55
f 52/52/52 55/55/55 53/53/53
f 22/22/22 56/56/56 57/57/57
f 22/22/22 57/57/57 23/23/23
f 56/56/56 58/58/58 59/59/59
f 56/56/56 59/59/59 57/57/57
f 25/25/25 60/60/60 61/61/61
f 25/25/25 61/61/61 26/26/26
f 60/60/60 62/62/62 63/63/63
f 60/60/60 63/63/63 61/61/61
f 28/28/28 64/64/64 65/65/65
f 28/28/28 65/65/65 25/25/25
f 64/64/64 66/66/66 67/67/67
f 64/64/64 67/67/67 65/65/65
f 30/30/30 68/68/68 69/69/69
f 30/30/30 69/69/69 31/31/31
f 68/68/68 70/70/70 71/71/71
f 68/68/68 71/71/71 69/69/69
f 33/33/33 72/72/72 73/73/73
f 33/33/33 73/73/73 34/34/34
f 72/72/72 74/74/74 75/75/75
f 72/72/72 75/75/75 73/73/73
f 36/36/36 76/76/76 77/77/77
f 36/36/36 77/77/77 37/37/37
f 76/76/76 78/78/78 79/79/79
f 76/76/76 79/79/79 77/77/77
f 39/39/39 80/80/80 81/81/81
f 39/39/39 81/81/81 40/40/40
f 80/80/80 82/82/82 83/83/83
f 80/80/80 83/83/83 81/81/81
f 42/42/42 84/84/84 85/85/85
f 42/42/42 85/85/85 43/43/43
f 84/84/84 86/86/86 87/87/87
f 84/84/84 87/87/87 85/85/85
f 45/45/45 88/88/88 89/89/89
f 45/45/45 89/89/89 46/46/46
f 88/88/88 90/90/90 91/91/91
f 88/88/88 91/91/91 89/89/89
f 48/48/48 92/92/92 93/93/93
f 48/48/48 93/93/93 49/49/49
f 92/92/92 94/94/94 95/95/95
f 92/92/92 95/95/95 93/93/93
f 50/50/50 96/96/96 97/97/97
f 50/50/50 97/97/97 51/51/51
f 96/96/96 98/98/98 99/99/99
f 96/96/96 99/99/99 97/97/97
f 20/20/20 100/100/100 101/101/101
f 20/20/20 101/101/101 17/17/17
f 17/17/17 101/101/101 102/102/102
f 17/17/17 102/102/102 21/21/21
f 21/21/21 102/102/102 103/103/103
f 21/21/21 103/103/103 24/24/24
f 24/24/24 103/103/103 104/104/104
f 24/24/24 104/104/104 27/27/27
f 27/27/27 104/104/104 105/105/105
f 27/27/27 105/105/105 29/29/29
f 29/29/29 105/105/105 106/106/106
f 29/29/29 106/106/106 32/32/32
f 32/32/32 106/106/106 107/107/107
f 32/32/32 107/107/107 35/35/35
f 35/35/35 107/107/107 108/108/108
f 35/35/35 108/108/108 38/38/38
f 38/38/38 108/108/108 109/109/109
f 38/38/38 109/109/109 41/41/41
f 41/41/41 109/109/109 110/110/110
f 41/41/41 110/110/110 44/44/44
f 44/44/44 110/110/110 111/111/111
f 44/44/44 111/111/111 47/47/47
f 47/47/47 111/111/111 100/100/100
f 47/47/47 100/100/100 20/20/20
f 100/100/100 112/112/112 113/113/113
f 100/100/100 113/113/113 101/101/101
f 112/112/112 114/114/114 115/115/115
f 112/112/112 115/115/115 113/113/113
f 101/101/101 113/113/113 116/116/116
f 101/101/101 116/116/116 102/102/102
f 113/113/113 115/115/115 117/117/117
f 113/113/113 117/117/117 116/116/116
f 102/102/102 116/116/116 118/118/118
f 102/102/102 118/118/118 103/103/103
f 116/116/116 117/117/117 119/119/119
f 116/116/116 119/119/119 118/118/118
f 103/103/103 118/118/118 120/120/120
f 103/103/103 120/120/120 104/104/104
f 118/118/118 119/119/119 121/121/121
f 118/118/118 121/121/121 120/120/120
f 104/104/104 120/120/120 122/122/122
f 104/104/104 122/122/122 105/105/105
f 120/120/120 121/121/121 123/123/123
f 120/120/120 123/123/123 122/122/122
f 105/105/105 122/122/122 124/124/124
f 105/105/105 124/124/124 106/106/106
f 122/122/122 123/123/123 125/125/125
f 122/122/122 125/125/125 124/124/124
f 106/106/106 124/124/124 126/126/126
f 106/106/106 126/126/126 107/107/107
f 124/124/124 125/125/125 127/127/127
f 124/124/124 127/127/127 126/126/126
f 107/107/107 126/126/126 128/128/128
f 107/107/107 128/128/128 108/108/108
f 126/126/126 127/127/127 129/129/129
f 126/126/126 129/129/129 128/128/128
f 108/108/108 128/128/128 130/130/130
f 108/108/108 130/130/130 109/109/109
f 128/128/128 129/129/129 131/131/131
f 128/128/128 131/131/131 130/130/130
f 109/109/109 130/130/130 132/132/132
f 109/109/109 132/132/132 110/110/110
f 130/130/130 131/131/131 133/133/133
f 130/130/130 133/133/133 132/132/132
f 110/110/110 132/132/132 134/134/134
f 110/110/110 134/134/134 111/111/111
f 132/132/132 133/133/133 135/135/135
f 132/132/132 135/135/135 134/134/134
f 111/111/111 134/134/134 112/112/112
f 111/111/111 112/112/112 100/100/100
f 134/134/134 135/135/135 114/114/114
f 134/134/134 114/114/114 112/112/112
f 136/136/136 137/137/137 138/138/138
f 136/136/136 138/138/138 139/139/139
f 137/137/137 140/140/140 141/141/141
f 137/137/137 141/141/141 138/138/138
f 142/142/142 143/143/143 137/137/137
f 142/142/142 137/137/137 136/136/136
f 143/143/143 144/144/144 140/140/140
f 143/143/143 140/140/140 137/137/137
f 145/145/145 146/146/146 143/143/143
f 145/145/145 143/143/143 142/142/142
f 146/146/146 147/147/147 144/144/144
f 146/146/146 144/144/144 143/143/143
f 148/148/148 149/149/149 146/146/146
f 148/148/148 146/146/146 145/145/145
f 149/149/149 150/150/150 147/147/147
f 149/149/149 147/147/147 146/146/146
f 151/151/151 152/152/152 149/149/149
f 151/151/151 149/149/149 148/148/148
f 152/152/152 153/153/153 150/150/150
f 152/152/152 150/150/150 149/149/149
f 154/154/154 155/155/155 152/152/152
f 154/154/154 152/152/152 151/151/151
f 155/155/155 156/156/156 153/153/153
f 155/155/155 153/153/153 152/152/152
f 157/157/157 158/158/158 155/155/155
f 157/157/157 155/155/155 154/154/154
f 158/158/158 159/159/159 156/156/156
f 158/158/158 156/156/156 155/155/155
f 160/160/160 161/161/161 158/158/158
f 160/160/160 158/158/158 157/157/157
f 161/161/161 162/162/162 159/159/159
f 161/161/161 159/159/159 158/158/158
f 163/163/163 164/164/164 161/161/161
f 163/163/163 161/161/161 160/160/160
f 164/164/164 165/165/165 162/162/162
f 164/164/164 162/162/162 161/161/161
f 166/166/166 167/167/167 164/164/164
f 166/166/166 164/164/164 163/163/163
f 167/167/167 168/168/168 165/165/165
f 167/167/167 165/165/165 164/164/164
f 169/169/169 170/170/170 167/167/167
f 169/169/169 167/167/167 166/166/166
f 170/170/170 171/171/171 168/168/168
f 170/170/170 168/168/168 167/167/167
f 172/172/172 173/173/173 170/170/170
f 172/172/172 170/170/170 169/169/169
f 173/173/173 174/174/174 171/171/171
f 173/173/173 171/171/171 170/170/170
f 175/175/175 176/176/176 177/177/177
f 175/175/175 177/177/177 178/178/178
f 179/179/179 180/180/180 181/181/181
f 179/179/179 181/181/181 182/182/182
f 183/183/183 184/184/184 185/185/185
f 183/183/183 185/185/185 186/186/186
f 187/187/187 188/188/188 189/189/189
f 187/187/187 189/189/189 190/190/190
f 191/191/191 192/192/192 193/193/193
f 191/191/191 193/193/193 194/194/194
f 192/192/192 175/175/175 178/178/178
f 192/192/192 178/178/178 193/193/193
f 195/195/195 196/196/196 197/197/197
f 195/195/195 197/197/197 198/198/198
f 196/196/196 179/179/179 182/182/182
f 196/196/196 182/182/182 197/197/197
f 199/199/199 200/200/200 201/201/201
f 199/199/199 201/201/201 202/202/202
f 200/200/200 183/183/183 186/186/186
f 200/200/200 186/186/186 201/201/201
f 203/203/203 204/204/204 205/205/205
f 203/203/203 205/205/205 206/206/206
f 204/204/204 187/187/187 190/190/190
f 204/204/204 190/190/190 205/205/205
f 207/207/207 208/208/208 209/209/209
f 207/207/207 209/209/209 210/210/210
f 208/208/208 15/15/15 11/11/11
f 208/208/208 11/11/11 209/209/209
f 210/210/210 209/209/209 211/211/211
f 210/210/210 211/211/211 212/212/212
f 209/209/209 11/11/11 14/14/14
f 209/209/209 14/14/14 211/211/211
f 212/212/212 211/211/211 213/213/213
f 212/212/212 213/213/213 214/214/214
f 211/211/211 14/14/14 13/13/13
f 211/211/211 13/13/13 213/213/213
f 214/214/214 213/213/213 215/215/215
f 214/214/214 215/215/215 216/216/216
f 213/213/213 13/13/13 12/12/12
f 213/213/213 12/12/12 215/215/215
f 216/216/216 215/215/215 217/217/217
f 216/216/216 217/217/217 218/218/218
f 215/215/215 12/12/12 16/16/16
f 215/215/215 16/16/16 217/217/217
f 194/194/194 219/219/219 220/220/220
f 194/194/194 220/220/220 191/191/191
f 219/219/219 16/16/16 15/15/15
f 219/219/219 15/15/15 220/220/220
f 198/198/198 221/221/221 222/222/222
f 198/198/198 222/222/222 195/195/195
f 221/221/221 2/2/2 1/1/1
f 221/221/221 1/1/1 222/222/222
f 223/223/223 224/224/224 221/221/221
f 223/223/223 221/221/221 225/225/225
f 224/224/224 3/3/3 2/2/2
f 224/224/224 2/2/2 221/221/221
f 226/226/226 227/227/227 224/224/224
f 226/226/226 224/224/224 223/223/223
f 227/227/227 5/5/5 3/3/3
f 227/227/227 3/3/3 224/224/224
f 228/228/228 229/229/229 227/227/227
f 228/228/228 227/227/227 226/226/226
f 229/229/229 6/6/6 5/5/5
f 229/229/229 5/5/5 227/227/227
f 230/230/230 231/231/231 229/229/229
f 230/230/230 229/229/229 228/228/228
f 231/231/231 4/4/4 6/6/6
f 231/231/231 6/6/6 229/229/229
f 232/232/232 233/233/233 231/231/231
f 232/232/232 231/231/231 230/230/230
f 233/233/233 1/1/1 4/4/4
f 233/233/233 4/4/4 231/231/231
f 234/234/234 235/235/235 236/236/236
f 234/234/234 236/236/236 237/237/237
f 235/235/235 232/232/232 230/230/230
f 235/235/235 230/230/230 236/236/236
f 237/237/237 236/236/236 238/238/238
f 237/237/237 238/238/238 239/239/239
f 236/236/236 230/230/230 228/228/228
f 236/236/236 228/228/228 238/238/238
f 239/239/239 238/238/238 240/240/240
f 239/239/239 240/240/240 241/241/241
f 238/238/238 228/228/228 226/226/226
f 238/238/238 226/226/226 240/240/240
f 241/241/241 240/240/240 242/242/242
f 241/241/241 242/242/242 243/243/243
f 240/240/240 226/226/226 223/223/223
f 240/240/240 223/223/223 242/242/242
f 243/243/243 242/242/242 244/244/244
f 243/243/243 244/244/244 245/245/245
f 242/242/242 223/223/223 225/225/225
f 242/242/242 225/225/225 244/244/244
f 246/246/246 247/247/247 248/248/248
f 246/246/246 248/248/248 249/249/249
f 247/247/247 207/207/207 210/210/210
f 247/247/247 210/210/210 248/248/248
f 249/249/249 248/248/248 250/250/250
f 249/249/249 250/250/250 251/251/251
f 248/248/248 210/210/210 212/212/212
f 248/248/248 212/212/212 250/250/250
f 251/251/251 250/250/250 252/252/252
f 251/251/251 252/252/252 253/253/253
f 250/250/250 212/212/212 214/214/214
f 250/250/250 214/214/214 252/252/252
f 253/253/253 252/252/252 254/254/254
f 253/253/253 254/254/254 255/255/255
f 252/252/252 214/214/214 216/216/216
f 252/252/252 216/216/216 254/254/254
f 255/255/255 254/254/254 256/256/256
f 255/255/255 256/256/256 257/257/257
f 254/254/254 216/216/216 218/218/218
f 254/254/254 218/218/218 256/256/256
f 184/184/184 258/258/258 259/259/259
f 184/184/184 259/259/259 185/185/185
f 258/258/258 10/10/10 9/9/9
f 258/258/258 9/9/9 259/259/259
f 188/188/188 260/260/260 261/261/261
f 188/188/188 261/261/261 189/189/189
f 260/260/260 8/8/8 7/7/7
f 260/260/260 7/7/7 261/261/261
f 177/177/177 262/262/262 263/263/263
f 177/177/177 263/263/263 178/178/178
f 262/262/262 264/264/264 265/265/265
f 262/262/262 265/265/265 263/263/263
f 266/266/266 267/267/267 268/268/268
f 266/266/266 268/268/268 269/269/269
f 267/267/267 176/176/176 175/175/175
f 267/267/267 175/175/175 268/268/268
f 181/181/181 270/270/270 271/271/271
f 181/181/181 271/271/271 182/182/182
f 270/270/270 272/272/272 273/273/273
f 270/270/270 273/273/273 271/271/271
f 274/274/274 275/275/275 276/276/276
f 274/274/274 276/276/276 277/277/277
f 275/275/275 180/180/180 179/179/179
f 275/275/275 179/179/179 276/276/276
f 193/193/193 278/278/278 279/279/279
f 193/193/193 279/279/279 194/194/194
f 278/278/278 280/280/280 281/281/281
f 278/278/278 281/281/281 279/279/279
f 178/178/178 263/263/263 278/278/278
f 178/178/178 278/278/278 193/193/193
f 263/263/263 265/265/265 280/280/280
f 263/263/263 280/280/280 278/278/278
f 282/282/282 283/283/283 284/284/284
f 282/282/282 284/284/284 285/285/285
f 283/283/283 192/192/192 191/191/191
f 283/283/283 191/191/191 284/284/284
f 269/269/269 268/268/268 283/283/283
f 269/269/269 283/283/283 282/282/282
f 268/268/268 175/175/175 192/192/192
f 268/268/268 192/192/192 283/283/283
f 197/197/197 286/286/286 287/287/287
f 197/197/197 287/287/287 198/198/198
f 286/286/286 288/288/288 289/289/289
f 286/286/286 289/289/289 287/287/287
f 182/182/182 271/271/271 286/286/286
f 182/182/182 286/286/286 197/197/197
f 271/271/271 273/273/273 288/288/288
f 271/271/271 288/288/288 286/286/286
f 290/290/290 291/291/291 292/292/292
f 290/290/290 292/292/292 293/293/293
f 291/291/291 196/196/196 195/195/195
f 291/291/291 195/195/195 292/292/292
f 277/277/277 276/276/276 291/291/291
f 277/277/277 291/291/291 290/290/290
f 276/276/276 179/179/179 196/196/196
f 276/276/276 196/196/196 291/291/291
f 294/294/294 295/295/295 296/296/296
f 294/294/294 296/296/296 297/297/297
f 298/298/298 294/294/294 297/297/297
f 298/298/298 297/297/297 299/299/299
f 297/297/297 296/296/296 300/300/300
f 297/297/297 300/300/300 301/301/301
f 299/299/299 297/297/297 301/301/301
f 299/299/299 301/301/301 302/302/302
f 303/303/303 304/304/304 305/305/305
f 303/303/303 305/305/305 306/306/306
f 307/307/307 303/303/303 306/306/306
f 307/307/307 306/306/306 308/308/308
f 306/306/306 305/305/305 309/309/309
f 306/306/306 309/309/309 310/310/310
f 308/308/308 306/306/306 310/310/310
f 308/308/308 310/310/310 311/311/311
f 312/312/312 313/313/313 314/314/314
f 312/312/312 314/314/314 315/315/315
f 316/316/316 312/312/312 315/315/315
f 316/316/316 315/315/315 317/317/317
f 315/315/315 314/314/314 318/318/318
f 315/315/315 318/318/318 319/319/319
f 317/317/317 315/315/315 319/319/319
f 317/317/317 319/319/319 320/320/320
f 321/321/321 322/322/322 323/323/323
f 321/321/321 323/323/323 324/324/324
f 325/325/325 321/321/321 324/324/324
f 325/325/325 324/324/324 326/326/326
f 324/324/324 323/323/323 327/327/327
f 324/324/324 327/327/327 328/328/328
f 326/326/326 324/324/324 328/328/328
f 326/326/326 328/328/328 329/329/329
f 330/330/330 331/331/331 295/295/295
f 330/330/330 295/295/295 294/294/294
f 332/332/332 330/330/330 294/294/294
f 332/332/332 294/294/294 298/298/298
f 333/333/333 334/334/334 304/304/304
f 333/333/333 304/304/304 303/303/303
f 335/335/335 333/333/333 303/303/303
f 335/335/335 303/303/303 307/307/307
f 336/336/336 337/337/337 313/313/313
f 336/336/336 313/313/313 312/312/312
f 338/338/338 336/336/336 312/312/312
f 338/338/338 312/312/312 316/316/316
f 339/339/339 340/340/340 322/322/322
f 339/339/339 322/322/322 321/321/321
f 341/341/341 339/339/339 321/321/321
f 341/341/341 321/321/321 325/325/325
f 342/342/342 343/343/343 344/344/344
f 342/342/342 344/344/344 345/345/345
f 346/346/346 342/342/342 345/345/345
f 346/346/346 345/345/345 347/347/347
f 348/348/348 349/349/349 350/350/350
f 348/348/348 350/350/350 351/351/351
f 352/352/352 348/348/348 351/351/351
f 352/352/352 351/351/351 353/353/353
f 354/354/354 355/355/355 356/356/356
f 354/354/354 356/356/356 357/357/357
f 358/358/358 354/354/354 357/357/357
f 358/358/358 357/357/357 359/359/359
f 360/360/360 361/361/361 355/355/355
f 360/360/360 355/355/355 354/354/354
f 362/362/362 360/360/360 354/354/354
f 362/362/362 354/354/354 358/358/358
f 363/363/363 364/364/364 361/361/361
f 363/363/363 361/361/361 360/360/360
f 365/365/365 363/363/363 360/360/360
f 365/365/365 360/360/360 362/362/362
f 366/366/366 367/367/367 364/364/364
f 366/366/366 364/364/364 363/363/363
f 368/368/368 366/366/366 363/363/363
f 368/368/368 363/363/363 365/365/365
f 369/369/369 370/370/370 367/367/367
f 369/369/369 367/367/367 366/366/366
f 371/371/371 369/369/369 366/366/366
f 371/371/371 366/366/366 368/368/368
f 372/372/372 373/373/373 374/374/374
f 372/372/372 374/374/374 375/375/375
f 376/376/376 372/372/372 375/375/375
f 376/376/376 375/375/375 377/377/377
f 378/378/378 379/379/379 373/373/373
f 378/378/378 373/373/373 372/372/372
f 380/380/380 378/378/378 372/372/372
f 380/380/380 372/372/372 376/376/376
f 381/381/381 382/382/382 379/379/379
f 381/381/381 379/379/379 378/378/378
f 383/383/383 381/381/381 378/378/378
f 383/383/383 378/378/378 380/380/380
f 384/384/384 385/385/385 382/382/382
f 384/384/384 382/382/382 381/381/381
f 386/386/386 384/384/384 381/381/381
f 386/386/386 381/381/381 383/383/383
f 387/387/387 388/388/388 385/385/385
f 387/387/387 385/385/385 384/384/384
f 389/389/389 387/387/387 384/384/384
f 389/389/389 384/384/384 386/386/386
f 390/390/390 391/391/391 392/392/392
f 390/390/390 392/392/392 393/393/393
f 388/388/388 390/390/390 393/393/393
f 388/388/388 393/393/393 385/385/385
f 393/393/393 392/392/392 394/394/394
f 393/393/393 394/394/394 395/395/395
f 385/385/385 393/393/393 395/395/395
f 385/385/385 395/395/395 382/382/382
f 395/395/395 394/394/394 396/396/396
f 395/395/395 396/396/396 397/397/397
f 382/382/382 395/395/395 397/397/397
f 382/382/382 397/397/397 379/379/379
f 397/397/397 396/396/396 398/398/398
f 397/397/397 398/398/398 399/399/399
f 379/379/379 397/397/397 399/399/399
f 379/379/379 399/399/399 373/373/373
f 399/399/399 398/398/398 400/400/400
f 399/399/399 400/400/400 401/401/401
f 373/373/373 399/399/399 401/401/401
f 373/373/373 401/401/401 374/374/374
f 402/402/402 400/400/400 391/391/391
f 402/402/402 391/391/391 403/403/403
f 311/311/311 402/402/402 403/403/403
f 311/311/311 403/403/403 300/300/300
f 404/404/404 405/405/405 406/406/406
f 404/404/404 406/406/406 407/407/407
f 329/329/329 404/404/404 407/407/407
f 329/329/329 407/407/407 318/318/318
f 408/408/408 409/409/409 405/405/405
f 408/408/408 405/405/405 410/410/410
f 355/355/355 408/408/408 410/410/410
f 355/355/355 410/410/410 356/356/356
f 411/411/411 412/412/412 409/409/409
f 411/411/411 409/409/409 408/408/408
f 361/361/361 411/411/411 408/408/408
f 361/361/361 408/408/408 355/355/355
f 413/413/413 414/414/414 412/412/412
f 413/413/413 412/412/412 411/411/411
f 364/364/364 413/413/413 411/411/411
f 364/364/364 411/411/411 361/361/361
f 415/415/415 416/416/416 414/414/414
f 415/415/415 414/414/414 413/413/413
f 367/367/367 415/415/415 413/413/413
f 367/367/367 413/413/413 364/364/364
f 417/417/417 406/406/406 416/416/416
f 417/417/417 416/416/416 415/415/415
f 370/370/370 417/417/417 415/415/415
f 370/370/370 415/415/415 367/367/367
f 418/418/418 419/419/419 420/420/420
f 418/418/418 420/420/420 421/421/421
f 422/422/422 418/418/418 421/421/421
f 422/422/422 421/421/421 423/423/423
f 424/424/424 425/425/425 426/426/426
f 424/424/424 426/426/426 427/427/427
f 428/428/428 424/424/424 427/427/427
f 428/428/428 427/427/427 429/429/429
f 296/296/296 295/295/295 307/307/307
f 296/296/296 307/307/307 308/308/308
f 300/300/300 296/296/296 308/308/308
f 300/300/300 308/308/308 311/311/311
f 314/314/314 313/313/313 325/325/325
f 314/314/314 325/325/325 326/326/326
f 318/318/318 314/314/314 326/326/326
f 318/318/318 326/326/326 329/329/329
f 419/419/419 346/346/346 347/347/347
f 419/419/419 347/347/347 420/420/420
f 425/425/425 352/352/352 353/353/353
f 425/425/425 353/353/353 426/426/426
f 295/295/295 331/331/331 335/335/335
f 295/295/295 335/335/335 307/307/307
f 313/313/313 337/337/337 341/341/341
f 313/313/313 341/341/341 325/325/325
f 430/430/430 431/431/431 432/432/432
f 430/430/430 432/432/432 433/433/433
f 434/434/434 430/430/430 433/433/433
f 434/434/434 433/433/433 435/435/435
f 433/433/433 432/432/432 436/436/436
f 433/433/433 436/436/436 437/437/437
f 435/435/435 433/433/433 437/437/437
f 435/435/435 437/437/437 438/438/438
f 437/437/437 436/436/436 439/439/439
f 437/437/437 439/439/439 440/440/440
f 438/438/438 437/437/437 440/440/440
f 438/438/438 440/440/440 441/441/441
f 440/440/440 439/439/439 442/442/442
f 440/440/440 442/442/442 443/443/443
f 441/441/441 440/440/440 443/443/443
f 441/441/441 443/443/443 444/444/444
f 443/443/443 442/442/442 445/445/445
f 443/443/443 445/445/445 446/446/446
f 444/444/444 443/443/443 446/446/446
f 444/444/444 446/446/446 447/447/447
f 446/446/446 445/445/445 448/448/448
f 446/446/446 448/448/448 449/449/449
f 447/447/447 446/446/446 449/449/449
f 447/447/447 449/449/449 450/450/450
f 449/449/449 448/448/448 451/451/451
f 449/449/449 451/451/451 452/452/452
f 450/450/450 449/449/449 452/452/452
f 450/450/450 452/452/452 453/453/453
f 452/452/452 451/451/451 454/454/454
f 452/452/452 454/454/454 455/455/455
f 453/453/453 452/452/452 455/455/455
f 453/453/453 455/455/455 456/456/456
f 455/455/455 454/454/454 457/457/457
f 455/455/455 457/457/457 458/458/458
f 456/456/456 455/455/455 458/458/458
f 456/456/456 458/458/458 459/459/459
f 458/458/458 457/457/457 460/460/460
f 458/458/458 460/460/460 461/461/461
f 459/459/459 458/458/458 461/461/461
f 459/459/459 461/461/461 462/462/462
f 461/461/461 460/460/460 463/463/463
f 461/461/461 463/463/463 464/464/464
f 462/462/462 461/461/461 464/464/464
f 462/462/462 464/464/464 465/465/465
f 464/464/464 463/463/463 466/466/466
f 464/464/464 466/466/466 467/467/467
f 465/465/465 464/464/464 467/467/467
f 465/465/465 467/467/467 468/468/468
f 469/469/469 470/470/470 471/471/471
f 469/469/469 471/471/471 472/472/472
f 473/473/473 469/469/469 472/472/472
f 473/473/473 472/472/472 474/474/474
f 475/475/475 476/476/476 470/470/470
f 475/475/475 470/470/470 469/469/469
f 477/477/477 475/475/475 469/469/469
f 477/477/477 469/469/469 473/473/473
f 478/478/478 479/479/479 476/476/476
f 478/478/478 476/476/476 475/475/475
f 480/480/480 478/478/478 475/475/475
f 480/480/480 475/475/475 477/477/477
f 481/481/481 482/482/482 479/479/479
f 481/481/481 479/479/479 478/478/478
f 483/483/483 481/481/481 478/478/478
f 483/483/483 478/478/478 480/480/480
f 484/484/484 485/485/485 482/482/482
f 484/484/484 482/482/482 481/481/481
f 486/486/486 484/484/484 481/481/481
f 486/486/486 481/481/481 483/483/483
f 487/487/487 488/488/488 485/485/485
f 487/487/487 485/485/485 484/484/484
f 489/489/489 487/487/487 484/484/484
f 489/489/489 484/484/484 486/486/486
f 490/490/490 491/491/491 488/488/488
f 490/490/490 488/488/488 487/487/487
f 492/492/492 490/490/490 487/487/487
f 492/492/492 487/487/487 489/489/489
f 493/493/493 494/494/494 491/491/491
f 493/493/493 491/491/491 490/490/490
f 495/495/495 493/493/493 490/490/490
f 495/495/495 490/490/490 492/492/492
f 496/496/496 497/497/497 494/494/494
f 496/496/496 494/494/494 493/493/493
f 498/498/498 496/496/496 493/493/493
f 498/498/498 493/493/493 495/495/495
f 499/499/499 500/500/500 497/497/497
f 499/499/499 497/497/497 496/496/496
f 501/501/501 499/499/499 496/496/496
f 501/501/501 496/496/496 498/498/498
f 502/502/502 503/503/503 500/500/500
f 502/502/502 500/500/500 499/499/499
f 504/504/504 502/502/502 499/499/499
f 504/504/504 499/499/499 501/501/501
f 472/472/472 471/471/471 503/503/503
f 472/472/472 503/503/503 502/502/502
f 474/474/474 472/472/472 502/502/502
f 474/474/474 502/502/502 504/504/504
f 505/505/505 473/473/473 474/474/474
f 505/505/505 474/474/474 506/506/506
f 507/507/507 477/477/477 473/473/473
f 507/507/507 473/473/473 505/505/505
f 508/508/508 480/480/480 477/477/477
f 508/508/508 477/477/477 507/507/507
f 509/509/509 483/483/483 480/480/480
f 509/509/509 480/480/480 508/508/508
f 510/510/510 486/486/486 483/483/483
f 510/510/510 483/483/483 509/509/509
f 511/511/511 489/489/489 486/486/486
f 511/511/511 486/486/486 510/510/510
f 512/512/512 492/492/492 489/489/489
f 512/512/512 489/489/489 511/511/511
f 513/513/513 495/495/495 492/492/492
f 513/513/513 492/492/492 512/512/512
f 514/514/514 498/498/498 495/495/495
f 514/514/514 495/495/495 513/513/513
f 515/515/515 501/501/501 498/498/498
f 515/515/515 498/498/498 514/514/514
f 516/516/516 504/504/504 501/501/501
f 516/516/516 501/501/501 515/515/515
f 506/506/506 474/474/474 504/504/504
f 506/506/506 504/504/504 516/516/516
f 517/517/517 518/518/518 519/519/519
f 517/517/517 519/519/519 520/520/520
f 521/521/521 517/517/517 520/520/520
f 521/521/521 520/520/520 522/522/522
f 523/523/523 524/524/524 525/525/525
f 523/523/523 525/525/525 526/526/526
f 527/527/527 523/523/523 526/526/526
f 527/527/527 526/526/526 528/528/528
f 529/529/529 530/530/530 531/531/531
f 529/529/529 531/531/531 532/532/532
f 533/533/533 529/529/529 532/532/532
f 533/533/533 532/532/532 534/534/534
f 535/535/535 536/536/536 537/537/537
f 535/535/535 537/537/537 538/538/538
f 539/539/539 535/535/535 538/538/538
f 539/539/539 538/538/538 540/540/540
f 541/541/541 542/542/542 543/543/543
f 541/541/541 543/543/543 544/544/544
f 545/545/545 541/541/541 544/544/544
f 545/545/545 544/544/544 546/546/546
f 547/547/547 548/548/548 549/549/549
f 547/547/547 549/549/549 550/550/550
f 546/546/546 547/547/547 550/550/550
f 546/546/546 550/550/550 551/551/551
f 552/552/552 553/553/553 554/554/554
f 552/552/552 554/554/554 555/555/555
f 556/556/556 552/552/552 555/555/555
f 556/556/556 555/555/555 557/557/557
f 558/558/558 559/559/559 560/560/560
f 558/558/558 560/560/560 561/561/561
f 562/562/562 558/558/558 561/561/561
f 562/562/562 561/561/561 563/563/563
f 564/564/564 565/565/565 566/566/566
f 564/564/564 566/566/566 567/567/567
f 568/568/568 564/564/564 567/567/567
f 568/568/568 567/567/567 569/569/569
f 570/570/570 571/571/571 572/572/572
f 570/570/570 572/572/572 573/573/573
f 574/574/574 570/570/570 573/573/573
f 574/574/574 573/573/573 575/575/575
f 576/576/576 577/577/577 578/578/578
f 576/576/576 578/578/578 579/579/579
f 580/580/580 576/576/576 579/579/579
f 580/580/580 579/579/579 581/581/581
f 582/582/582 583/583/583 584/584/584
f 582/582/582 584/584/584 585/585/585
f 586/586/586 582/582/582 585/585/585
f 586/586/586 585/585/585 587/587/587
f 506/506/506 521/521/521 522/522/522
f 506/506/506 522/522/522 505/505/505
f 505/505/505 527/527/527 528/528/528
f 505/505/505 528/528/528 507/507/507
f 507/507/507 533/533/533 534/534/534
f 507/507/507 534/534/534 508/508/508
f 508/508/508 539/539/539 540/540/540
f 508/508/508 540/540/540 509/509/509
f 509/509/509 545/545/545 546/546/546
f 509/509/509 546/546/546 510/510/510
f 510/510/510 546/546/546 551/551/551
f 510/510/510 551/551/551 511/511/511
f 511/511/511 556/556/556 557/557/557
f 511/511/511 557/557/557 512/512/512
f 512/512/512 562/562/562 563/563/563
f 512/512/512 563/563/563 513/513/513
f 513/513/513 568/568/568 569/569/569
f 513/513/513 569/569/569 514/514/514
f 514/514/514 574/574/574 575/575/575
f 514/514/514 575/575/575 515/515/515
f 515/515/515 580/580/580 581/581/581
f 515/515/515 581/581/581 516/516/516
f 516/516/516 586/586/586 587/587/587
f 516/516/516 587/587/587 506/506/506
f 406/406/406 405/405/405 409/409/409
f 406/406/406 409/409/409 416/416/416
f 416/416/416 409/409/409 412/412/412
f 416/416/416 412/412/412 414/414/414
f 344/344/344 343/343/343 350/350/350
f 344/344/344 350/350/350 349/349/349
f 392/392/392 398/398/398 396/396/396
f 392/392/392 396/396/396 394/394/394
f 391/391/391 400/400/400 398/398/398
f 391/391/391 398/398/398 392/392/392
