v 0.729757 0.243136 1.002000
v 0.727758 0.241136 -0.998000
v 0.725758 0.243136 -0.998000
v 0.727758 0.245136 1.000000
v 0.738534 0.298347 1.011236
v 0.736535 0.296347 -0.998000
v 0.734535 0.298347 -0.998000
v 0.736534 0.300347 1.009236
v -0.707347 0.298347 1.007236
v -0.707348 0.298347 -0.998000
v -0.709348 0.296347 -0.998000
v -0.709347 0.296347 1.009236
v 0.738534 0.243136 1.011236
v -0.709347 0.245136 1.009236
v -0.707347 0.243136 1.007236
v 0.736534 0.241136 1.009236
v -0.661335 0.298347 0.961232
v 0.686522 0.300347 0.959232
v 0.684522 0.298347 0.957232
v -0.659335 0.296347 0.959232
v 0.819237 0.680913 -1.060583
v 0.818652 0.734684 -1.059169
v 0.820652 0.734684 -1.057169
v 0.820652 0.680913 -1.057169
vn 0.707500 0.706700 -0.001400
vn 0.707500 0.706700 -0.001400
vn 0.707500 0.706700 -0.001400
vn 0.707500 0.706700 -0.001400
vn 0.707500 0.706700 -0.001400
vn 0.707500 0.706700 -0.001400
vn 0.707500 0.706700 -0.001400
vn 0.707500 0.706700 -0.001400
vn -0.707100 0.707100 0.000000
vn -0.707100 0.707100 0.000000
vn -0.707100 0.707100 0.000000
vn -0.707100 0.707100 0.000000
vn -0.002000 -0.707100 0.707100
vn -0.002000 -0.707100 0.707100
vn -0.002000 -0.707100 0.707100
vn -0.002000 -0.707100 0.707100
vn -0.002100 0.707100 -0.707100
vn -0.002100 0.707100 -0.707100
vn -0.002100 0.707100 -0.707100
vn -0.002100 0.707100 -0.707100
vn 0.845800 0.011600 -0.533400
vn 0.845800 0.011600 -0.533400
vn 0.845800 0.011600 -0.533400
vn 0.845800 0.011600 -0.533400
vt 0.000000 0.000000
vt 0.000000 0.000000
vt 0.000000 0.000000
vt 0.000000 0.000000
vt 0.000000 0.000000
vt 0.000000 0.000000
vt 0.000000 0.000000
vt 0.000000 0.000000
vt 0.000000 0.000000
vt 0.000000 0.000000
vt 0.000000 0.000000
vt 0.000000 0.000000
vt 0.000000 0.000000
vt 0.000000 0.000000
vt 0.000000 0.000000
vt 0.000000 0.000000
vt 0.000000 0.000000
vt 0.000000 0.000000
vt 0.000000 0.000000
vt 0.000000 0.000000
vt 0.000000 0.000000
vt 0.000000 0.000000
vt 0.000000 0.000000
vt 0.000000 0.000000
f 1/1/1 2/2/2 3/3/3
f 1/1/1 3/3/3 4/4/4
f 5/5/5 6/6/6 7/7/7
f 5/5/5 7/7/7 8/8/8
f 9/9/9 10/10/10 11/11/11
f 9/9/9 11/11/11 12/12/12
f 13/13/13 14/14/14 15/15/15
f 13/13/13 15/15/15 16/16/16
f 17/17/17 18/18/18 19/19/19
f 17/17/17 19/19/19 20/20/20
f 21/21/21 22/22/22 23/23/23
f 21/21/21 23/23/23 24/24/24
