v -1.292740 0.566749 -0.724623
v -1.292740 0.570750 -0.724623
v -1.292392 0.570750 -0.722674
v -1.292392 0.566749 -0.722674
v -1.292392 0.562666 -0.722674
v -1.292740 0.562666 -0.724623
v -1.292582 0.562666 -0.726595
v -1.292582 0.566749 -0.726595
v -1.292582 0.570750 -0.726595
v -1.292740 0.560955 -0.724623
v -1.292392 0.560955 -0.722674
v -1.292311 0.560561 -0.722700
v -1.292656 0.560561 -0.724627
v -1.292499 0.560561 -0.726577
v -1.292582 0.560955 -0.726595
v -1.291910 0.566749 -0.728457
v -1.291910 0.570750 -0.728457
v -1.291910 0.562666 -0.728457
v -1.290787 0.562666 -0.730086
v -1.290787 0.566749 -0.730086
v -1.290787 0.570750 -0.730086
v -1.291910 0.560955 -0.728457
v -1.291835 0.560561 -0.728418
v -1.290724 0.560561 -0.730029
v -1.290787 0.560955 -0.730086
v -1.289274 0.566749 -0.731363
v -1.289274 0.570750 -0.731363
v -1.289274 0.562666 -0.731363
v -1.287486 0.562666 -0.732212
v -1.287486 0.566749 -0.732212
v -1.287486 0.570750 -0.732212
v -1.289274 0.560955 -0.731363
v -1.289228 0.560561 -0.731291
v -1.287460 0.560561 -0.732131
v -1.287486 0.560955 -0.732212
v -1.285538 0.566749 -0.732561
v -1.285538 0.570750 -0.732561
v -1.287486 0.570750 -0.732212
v -1.287486 0.566749 -0.732212
v -1.287486 0.562666 -0.732212
v -1.285538 0.562666 -0.732561
v -1.283565 0.562666 -0.732402
v -1.283565 0.566749 -0.732402
v -1.283565 0.570750 -0.732402
v -1.285538 0.560955 -0.732561
v -1.287486 0.560955 -0.732212
v -1.287460 0.560561 -0.732131
v -1.285534 0.560561 -0.732476
v -1.283583 0.560561 -0.732319
v -1.283565 0.560955 -0.732402
v -1.281703 0.566749 -0.731730
v -1.281703 0.570750 -0.731730
v -1.281703 0.562666 -0.731730
v -1.280074 0.562666 -0.730607
v -1.280074 0.566749 -0.730607
v -1.280074 0.570750 -0.730607
v -1.281703 0.560955 -0.731730
v -1.281742 0.560561 -0.731655
v -1.280131 0.560561 -0.730544
v -1.280074 0.560955 -0.730607
v -1.278798 0.566749 -0.729094
v -1.278798 0.570750 -0.729094
v -1.278798 0.562666 -0.729094
v -1.277948 0.562666 -0.727306
v -1.277948 0.566749 -0.727306
v -1.277948 0.570750 -0.727306
v -1.278798 0.560955 -0.729094
v -1.278869 0.560561 -0.729048
v -1.278029 0.560561 -0.727280
v -1.277948 0.560955 -0.727306
v -1.277600 0.566749 -0.725358
v -1.277600 0.570750 -0.725358
v -1.277600 0.562666 -0.725358
v -1.277758 0.562666 -0.723385
v -1.277758 0.566749 -0.723385
v -1.277758 0.570750 -0.723385
v -1.277600 0.560955 -0.725358
v -1.277684 0.560561 -0.725354
v -1.277841 0.560561 -0.723403
v -1.277758 0.560955 -0.723385
v -1.278430 0.566749 -0.721523
v -1.278430 0.570750 -0.721523
v -1.278430 0.562666 -0.721523
v -1.279554 0.562666 -0.719894
v -1.279554 0.566749 -0.719894
v -1.279554 0.570750 -0.719894
v -1.278430 0.560955 -0.721523
v -1.278505 0.560561 -0.721562
v -1.279616 0.560561 -0.719951
v -1.279554 0.560955 -0.719894
v -1.281066 0.566749 -0.718618
v -1.281066 0.570750 -0.718618
v -1.281066 0.562666 -0.718618
v -1.282854 0.562666 -0.717769
v -1.282854 0.566749 -0.717769
v -1.282854 0.570750 -0.717769
v -1.281066 0.560955 -0.718618
v -1.281112 0.560561 -0.718689
v -1.282880 0.560561 -0.717849
v -1.282854 0.560955 -0.717769
v -1.284802 0.566749 -0.717420
v -1.284802 0.570750 -0.717420
v -1.284802 0.562666 -0.717420
v -1.286775 0.562666 -0.717578
v -1.286775 0.566749 -0.717578
v -1.286775 0.570750 -0.717578
v -1.284802 0.560955 -0.717420
v -1.284806 0.560561 -0.717505
v -1.286757 0.560561 -0.717661
v -1.286775 0.560955 -0.717578
v -1.288637 0.566749 -0.718250
v -1.288637 0.570750 -0.718250
v -1.288637 0.562666 -0.718250
v -1.290266 0.562666 -0.719374
v -1.290266 0.566749 -0.719374
v -1.290266 0.570750 -0.719374
v -1.288637 0.560955 -0.718250
v -1.288598 0.560561 -0.718326
v -1.290209 0.560561 -0.719437
v -1.290266 0.560955 -0.719374
v -1.291542 0.566749 -0.720887
v -1.291542 0.570750 -0.720887
v -1.291542 0.562666 -0.720887
v -1.291542 0.560955 -0.720887
v -1.291471 0.560561 -0.720932
v -1.289634 0.560676 -0.724773
v -1.289719 0.560491 -0.724769
v -1.289509 0.560491 -0.723599
v -1.289429 0.560676 -0.723625
v -1.289429 0.561068 -0.723625
v -1.289634 0.561068 -0.724773
v -1.289541 0.561068 -0.725937
v -1.289541 0.560676 -0.725937
v -1.289624 0.560491 -0.725955
v -1.289634 0.561749 -0.724773
v -1.289429 0.561749 -0.723625
v -1.289429 0.562574 -0.723625
v -1.289634 0.562574 -0.724773
v -1.289541 0.562574 -0.725937
v -1.289541 0.561749 -0.725937
v -1.289145 0.560676 -0.727035
v -1.289220 0.560491 -0.727073
v -1.289145 0.561068 -0.727035
v -1.288482 0.561068 -0.727995
v -1.288482 0.560676 -0.727995
v -1.288545 0.560491 -0.728052
v -1.289145 0.561749 -0.727035
v -1.289145 0.562574 -0.727035
v -1.288482 0.562574 -0.727995
v -1.288482 0.561749 -0.727995
v -1.287590 0.560676 -0.728748
v -1.287636 0.560491 -0.728819
v -1.287590 0.561068 -0.728748
v -1.286536 0.561068 -0.729249
v -1.286536 0.560676 -0.729249
v -1.286562 0.560491 -0.729330
v -1.287590 0.561749 -0.728748
v -1.287590 0.562574 -0.728748
v -1.286536 0.562574 -0.729249
v -1.286536 0.561749 -0.729249
v -1.285387 0.560676 -0.729454
v -1.285391 0.560491 -0.729539
v -1.286562 0.560491 -0.729330
v -1.286536 0.560676 -0.729249
v -1.286536 0.561068 -0.729249
v -1.285387 0.561068 -0.729454
v -1.284224 0.561068 -0.729361
v -1.284224 0.560676 -0.729361
v -1.284206 0.560491 -0.729444
v -1.285387 0.561749 -0.729454
v -1.286536 0.561749 -0.729249
v -1.286536 0.562574 -0.729249
v -1.285387 0.562574 -0.729454
v -1.284224 0.562574 -0.729361
v -1.284224 0.561749 -0.729361
v -1.283126 0.560676 -0.728965
v -1.283087 0.560491 -0.729040
v -1.283126 0.561068 -0.728965
v -1.282165 0.561068 -0.728302
v -1.282165 0.560676 -0.728302
v -1.282108 0.560491 -0.728365
v -1.283126 0.561749 -0.728965
v -1.283126 0.562574 -0.728965
v -1.282165 0.562574 -0.728302
v -1.282165 0.561749 -0.728302
v -1.281412 0.560676 -0.727410
v -1.281341 0.560491 -0.727456
v -1.281412 0.561068 -0.727410
v -1.280912 0.561068 -0.726356
v -1.280912 0.560676 -0.726356
v -1.280831 0.560491 -0.726382
v -1.281412 0.561749 -0.727410
v -1.281412 0.562574 -0.727410
v -1.280912 0.562574 -0.726356
v -1.280912 0.561749 -0.726356
v -1.280706 0.560676 -0.725207
v -1.280621 0.560491 -0.725211
v -1.280706 0.561068 -0.725207
v -1.280799 0.561068 -0.724044
v -1.280799 0.560676 -0.724044
v -1.280716 0.560491 -0.724026
v -1.280706 0.561749 -0.725207
v -1.280706 0.562574 -0.725207
v -1.280799 0.562574 -0.724044
v -1.280799 0.561749 -0.724044
v -1.281196 0.560676 -0.722946
v -1.281120 0.560491 -0.722907
v -1.281196 0.561068 -0.722946
v -1.281858 0.561068 -0.721985
v -1.281858 0.560676 -0.721985
v -1.281795 0.560491 -0.721928
v -1.281196 0.561749 -0.722946
v -1.281196 0.562574 -0.722946
v -1.281858 0.562574 -0.721985
v -1.281858 0.561749 -0.721985
v -1.282750 0.560676 -0.721233
v -1.282704 0.560491 -0.721161
v -1.282750 0.561068 -0.721233
v -1.283804 0.561068 -0.720732
v -1.283804 0.560676 -0.720732
v -1.283779 0.560491 -0.720651
v -1.282750 0.561749 -0.721233
v -1.282750 0.562574 -0.721233
v -1.283804 0.562574 -0.720732
v -1.283804 0.561749 -0.720732
v -1.284953 0.560676 -0.720526
v -1.284949 0.560491 -0.720441
v -1.284953 0.561068 -0.720526
v -1.286117 0.561068 -0.720619
v -1.286117 0.560676 -0.720619
v -1.286135 0.560491 -0.720537
v -1.284953 0.561749 -0.720526
v -1.284953 0.562574 -0.720526
v -1.286117 0.562574 -0.720619
v -1.286117 0.561749 -0.720619
v -1.287214 0.560676 -0.721016
v -1.287253 0.560491 -0.720940
v -1.287214 0.561068 -0.721016
v -1.288175 0.561068 -0.721678
v -1.288175 0.560676 -0.721678
v -1.288232 0.560491 -0.721615
v -1.287214 0.561749 -0.721016
v -1.287214 0.562574 -0.721016
v -1.288175 0.562574 -0.721678
v -1.288175 0.561749 -0.721678
v -1.288928 0.560676 -0.722570
v -1.288999 0.560491 -0.722524
v -1.288928 0.561068 -0.722570
v -1.288928 0.561749 -0.722570
v -1.288928 0.562574 -0.722570
v -1.289213 0.560429 -0.722387
v -1.289611 0.560429 -0.722131
v -1.288721 0.560429 -0.721076
v -1.288403 0.560429 -0.721427
v -1.289752 0.560429 -0.723521
v -1.290203 0.560429 -0.723376
v -1.287369 0.560429 -0.720714
v -1.287586 0.560429 -0.720293
v -1.286289 0.560429 -0.719825
v -1.286188 0.560429 -0.720288
v -1.284937 0.560429 -0.720187
v -1.284914 0.560429 -0.719715
v -1.283556 0.560429 -0.719958
v -1.283701 0.560429 -0.720409
v -1.282567 0.560429 -0.720948
v -1.282310 0.560429 -0.720550
v -1.281256 0.560429 -0.721439
v -1.281607 0.560429 -0.721757
v -1.280894 0.560429 -0.722791
v -1.280473 0.560429 -0.722574
v -1.280005 0.560429 -0.723872
v -1.280468 0.560429 -0.723972
v -1.280367 0.560429 -0.725223
v -1.279894 0.560429 -0.725246
v -1.280138 0.560429 -0.726604
v -1.280589 0.560429 -0.726459
v -1.281127 0.560429 -0.727594
v -1.280729 0.560429 -0.727850
v -1.281619 0.560429 -0.728904
v -1.281937 0.560429 -0.728553
v -1.282971 0.560429 -0.729266
v -1.282754 0.560429 -0.729687
v -1.284052 0.560429 -0.730155
v -1.284152 0.560429 -0.729693
v -1.285403 0.560429 -0.729793
v -1.285426 0.560429 -0.730266
v -1.286784 0.560429 -0.730023
v -1.286639 0.560429 -0.729572
v -1.287773 0.560429 -0.729033
v -1.288030 0.560429 -0.729431
v -1.289084 0.560429 -0.728542
v -1.288733 0.560429 -0.728223
v -1.286639 0.560429 -0.729572
v -1.286784 0.560429 -0.730023
v -1.289446 0.560429 -0.727190
v -1.289867 0.560429 -0.727406
v -1.290335 0.560429 -0.726109
v -1.289872 0.560429 -0.726009
v -1.289973 0.560429 -0.724757
v -1.290446 0.560429 -0.724734
v -1.291257 0.560429 -0.721070
v -1.290038 0.560429 -0.719625
v -1.289720 0.560429 -0.719976
v -1.290859 0.560429 -0.721327
v -1.291617 0.560429 -0.722923
v -1.292069 0.560429 -0.722778
v -1.290235 0.560429 -0.721729
v -1.289221 0.560429 -0.720526
v -1.290910 0.560429 -0.723149
v -1.288482 0.560429 -0.718552
v -1.286703 0.560429 -0.717910
v -1.286603 0.560429 -0.718373
v -1.288265 0.560429 -0.718973
v -1.287925 0.560429 -0.719633
v -1.286446 0.560429 -0.719099
v -1.284819 0.560429 -0.717759
v -1.282958 0.560429 -0.718092
v -1.283103 0.560429 -0.718543
v -1.284842 0.560429 -0.718231
v -1.284878 0.560429 -0.718973
v -1.283329 0.560429 -0.719250
v -1.281250 0.560429 -0.718903
v -1.279805 0.560429 -0.720122
v -1.280156 0.560429 -0.720441
v -1.281506 0.560429 -0.719301
v -1.281908 0.560429 -0.719925
v -1.280706 0.560429 -0.720940
v -1.278732 0.560429 -0.721679
v -1.278090 0.560429 -0.723457
v -1.278553 0.560429 -0.723557
v -1.279153 0.560429 -0.721895
v -1.279813 0.560429 -0.722235
v -1.279279 0.560429 -0.723714
v -1.277938 0.560429 -0.725341
v -1.278272 0.560429 -0.727203
v -1.278723 0.560429 -0.727058
v -1.278411 0.560429 -0.725318
v -1.279153 0.560429 -0.725282
v -1.279430 0.560429 -0.726831
v -1.279083 0.560429 -0.728910
v -1.280302 0.560429 -0.730355
v -1.280620 0.560429 -0.730004
v -1.279481 0.560429 -0.728654
v -1.280105 0.560429 -0.728252
v -1.281120 0.560429 -0.729454
v -1.281858 0.560429 -0.731429
v -1.283637 0.560429 -0.732071
v -1.283737 0.560429 -0.731608
v -1.282075 0.560429 -0.731008
v -1.282415 0.560429 -0.730347
v -1.283894 0.560429 -0.730882
v -1.285521 0.560429 -0.732222
v -1.287382 0.560429 -0.731889
v -1.287238 0.560429 -0.731438
v -1.285498 0.560429 -0.731749
v -1.285462 0.560429 -0.731007
v -1.287011 0.560429 -0.730730
v -1.289090 0.560429 -0.731077
v -1.290535 0.560429 -0.729858
v -1.290184 0.560429 -0.729540
v -1.288834 0.560429 -0.730679
v -1.287238 0.560429 -0.731438
v -1.287382 0.560429 -0.731889
v -1.288432 0.560429 -0.730055
v -1.289634 0.560429 -0.729041
v -1.287011 0.560429 -0.730730
v -1.291609 0.560429 -0.728302
v -1.292251 0.560429 -0.726524
v -1.291787 0.560429 -0.726423
v -1.291187 0.560429 -0.728085
v -1.290527 0.560429 -0.727746
v -1.291061 0.560429 -0.726266
v -1.292402 0.560429 -0.724639
v -1.291929 0.560429 -0.724662
v -1.291187 0.560429 -0.724698
v -1.292740 0.572216 -0.724623
v -1.292582 0.572216 -0.726595
v -1.292582 0.572386 -0.726595
v -1.292740 0.572386 -0.724623
v -1.292392 0.572386 -0.722674
v -1.292392 0.572216 -0.722674
v -1.292740 0.572501 -0.724623
v -1.292582 0.572501 -0.726595
v -1.292582 0.572587 -0.726595
v -1.292740 0.572587 -0.724623
v -1.292392 0.572587 -0.722674
v -1.292392 0.572501 -0.722674
v -1.291910 0.572216 -0.728457
v -1.290787 0.572216 -0.730086
v -1.290787 0.572386 -0.730086
v -1.291910 0.572386 -0.728457
v -1.291910 0.572501 -0.728457
v -1.290787 0.572501 -0.730086
v -1.290787 0.572587 -0.730086
v -1.291910 0.572587 -0.728457
v -1.289274 0.572216 -0.731363
v -1.287486 0.572216 -0.732212
v -1.287486 0.572386 -0.732212
v -1.289274 0.572386 -0.731363
v -1.289274 0.572501 -0.731363
v -1.287486 0.572501 -0.732212
v -1.287486 0.572587 -0.732212
v -1.289274 0.572587 -0.731363
v -1.285538 0.572216 -0.732561
v -1.283565 0.572216 -0.732402
v -1.283565 0.572386 -0.732402
v -1.285538 0.572386 -0.732561
v -1.287486 0.572386 -0.732212
v -1.287486 0.572216 -0.732212
v -1.285538 0.572501 -0.732561
v -1.283565 0.572501 -0.732402
v -1.283565 0.572587 -0.732402
v -1.285538 0.572587 -0.732561
v -1.287486 0.572587 -0.732212
v -1.287486 0.572501 -0.732212
v -1.281703 0.572216 -0.731730
v -1.280074 0.572216 -0.730607
v -1.280074 0.572386 -0.730607
v -1.281703 0.572386 -0.731730
v -1.281703 0.572501 -0.731730
v -1.280074 0.572501 -0.730607
v -1.280074 0.572587 -0.730607
v -1.281703 0.572587 -0.731730
v -1.278798 0.572216 -0.729094
v -1.277948 0.572216 -0.727306
v -1.277948 0.572386 -0.727306
v -1.278798 0.572386 -0.729094
v -1.278798 0.572501 -0.729094
v -1.277948 0.572501 -0.727306
v -1.277948 0.572587 -0.727306
v -1.278798 0.572587 -0.729094
v -1.277600 0.572216 -0.725358
v -1.277758 0.572216 -0.723385
v -1.277758 0.572386 -0.723385
v -1.277600 0.572386 -0.725358
v -1.277600 0.572501 -0.725358
v -1.277758 0.572501 -0.723385
v -1.277758 0.572587 -0.723385
v -1.277600 0.572587 -0.725358
v -1.278430 0.572216 -0.721523
v -1.279554 0.572216 -0.719894
v -1.279554 0.572386 -0.719894
v -1.278430 0.572386 -0.721523
v -1.278430 0.572501 -0.721523
v -1.279554 0.572501 -0.719894
v -1.279554 0.572587 -0.719894
v -1.278430 0.572587 -0.721523
v -1.281066 0.572216 -0.718618
v -1.282854 0.572216 -0.717769
v -1.282854 0.572386 -0.717769
v -1.281066 0.572386 -0.718618
v -1.281066 0.572501 -0.718618
v -1.282854 0.572501 -0.717769
v -1.282854 0.572587 -0.717769
v -1.281066 0.572587 -0.718618
v -1.284802 0.572216 -0.717420
v -1.286775 0.572216 -0.717578
v -1.286775 0.572386 -0.717578
v -1.284802 0.572386 -0.717420
v -1.284802 0.572501 -0.717420
v -1.286775 0.572501 -0.717578
v -1.286775 0.572587 -0.717578
v -1.284802 0.572587 -0.717420
v -1.288637 0.572216 -0.718250
v -1.290266 0.572216 -0.719374
v -1.290266 0.572386 -0.719374
v -1.288637 0.572386 -0.718250
v -1.288637 0.572501 -0.718250
v -1.290266 0.572501 -0.719374
v -1.290266 0.572587 -0.719374
v -1.288637 0.572587 -0.718250
v -1.291542 0.572216 -0.720887
v -1.291542 0.572386 -0.720887
v -1.291542 0.572501 -0.720887
v -1.291542 0.572587 -0.720887
vn 0.998800 0.000000 -0.048500
vn 0.998800 0.000000 -0.048500
vn 0.952200 0.000000 -0.305300
vn 0.952200 0.000000 -0.305300
vn 0.952200 0.000000 -0.305300
vn 0.998800 0.000000 -0.048500
vn 0.977300 0.000000 0.211600
vn 0.977300 0.000000 0.211600
vn 0.977300 0.000000 0.211600
vn 0.993300 0.104800 -0.048200
vn 0.947000 0.104700 -0.303700
vn 0.768300 0.590700 -0.246400
vn 0.805600 0.591100 -0.039100
vn 0.788600 0.590700 0.170800
vn 0.972000 0.104800 0.210500
vn 0.889200 0.000000 0.457400
vn 0.889200 0.000000 0.457400
vn 0.889200 0.000000 0.457400
vn 0.740600 0.000000 0.672000
vn 0.740600 0.000000 0.672000
vn 0.740600 0.000000 0.672000
vn 0.884300 0.104700 0.454900
vn 0.717200 0.591100 0.368900
vn 0.597500 0.590700 0.542200
vn 0.736500 0.104800 0.668300
vn 0.541400 0.000000 0.840700
vn 0.541400 0.000000 0.840700
vn 0.541400 0.000000 0.840700
vn 0.305400 0.000000 0.952200
vn 0.305400 0.000000 0.952200
vn 0.305400 0.000000 0.952200
vn 0.538400 0.104800 0.836100
vn 0.436700 0.591100 0.678100
vn 0.246400 0.590700 0.768300
vn 0.303700 0.104900 0.947000
vn 0.048500 0.000000 0.998800
vn 0.048500 0.000000 0.998800
vn 0.305400 0.000000 0.952200
vn 0.305400 0.000000 0.952200
vn 0.305400 0.000000 0.952200
vn 0.048500 0.000000 0.998800
vn -0.211600 0.000000 0.977300
vn -0.211600 0.000000 0.977300
vn -0.211600 0.000000 0.977300
vn 0.048200 0.104800 0.993300
vn 0.303700 0.104900 0.947000
vn 0.246400 0.590700 0.768300
vn 0.039100 0.591100 0.805600
vn -0.170700 0.590600 0.788600
vn -0.210500 0.104800 0.972000
vn -0.457400 0.000000 0.889200
vn -0.457400 0.000000 0.889200
vn -0.457400 0.000000 0.889200
vn -0.672000 0.000000 0.740600
vn -0.672000 0.000000 0.740600
vn -0.672000 0.000000 0.740600
vn -0.454800 0.104800 0.884400
vn -0.368900 0.591100 0.717300
vn -0.542200 0.590700 0.597600
vn -0.668300 0.104800 0.736500
vn -0.840700 0.000000 0.541400
vn -0.840700 0.000000 0.541400
vn -0.840700 0.000000 0.541400
vn -0.952200 0.000000 0.305300
vn -0.952200 0.000000 0.305300
vn -0.952200 0.000000 0.305300
vn -0.836100 0.104800 0.538400
vn -0.678100 0.591100 0.436700
vn -0.768300 0.590700 0.246400
vn -0.947000 0.104800 0.303700
vn -0.998800 0.000000 0.048500
vn -0.998800 0.000000 0.048500
vn -0.998800 0.000000 0.048500
vn -0.977300 0.000000 -0.211600
vn -0.977300 0.000000 -0.211600
vn -0.977300 0.000000 -0.211600
vn -0.993300 0.104900 0.048200
vn -0.805600 0.591200 0.039100
vn -0.788500 0.590700 -0.170800
vn -0.972000 0.104900 -0.210500
vn -0.889200 0.000000 -0.457400
vn -0.889200 0.000000 -0.457400
vn -0.889200 0.000000 -0.457400
vn -0.740600 0.000000 -0.672000
vn -0.740600 0.000000 -0.672000
vn -0.740600 0.000000 -0.672000
vn -0.884300 0.104800 -0.454900
vn -0.717200 0.591100 -0.368900
vn -0.597600 0.590700 -0.542200
vn -0.736500 0.104800 -0.668300
vn -0.541400 0.000000 -0.840700
vn -0.541400 0.000000 -0.840700
vn -0.541400 0.000000 -0.840700
vn -0.305300 0.000000 -0.952200
vn -0.305300 0.000000 -0.952200
vn -0.305400 0.000000 -0.952200
vn -0.538400 0.104800 -0.836100
vn -0.436700 0.591100 -0.678100
vn -0.246400 0.590700 -0.768300
vn -0.303700 0.104900 -0.947000
vn -0.048500 0.000000 -0.998800
vn -0.048500 0.000000 -0.998800
vn -0.048500 0.000000 -0.998800
vn 0.211600 0.000000 -0.977300
vn 0.211600 0.000000 -0.977300
vn 0.211600 0.000000 -0.977300
vn -0.048200 0.104800 -0.993300
vn -0.039200 0.591100 -0.805600
vn 0.170700 0.590600 -0.788700
vn 0.210500 0.104800 -0.972000
vn 0.457400 0.000000 -0.889200
vn 0.457400 0.000000 -0.889200
vn 0.457400 0.000000 -0.889200
vn 0.671900 0.000000 -0.740600
vn 0.671900 0.000000 -0.740600
vn 0.671900 0.000000 -0.740600
vn 0.454800 0.104700 -0.884400
vn 0.368900 0.591000 -0.717300
vn 0.542200 0.590600 -0.597600
vn 0.668200 0.104800 -0.736500
vn 0.840700 0.000000 -0.541400
vn 0.840700 0.000000 -0.541400
vn 0.840700 0.000000 -0.541400
vn 0.836100 0.104700 -0.538400
vn 0.678100 0.591100 -0.436700
vn -0.975100 0.216600 0.047300
vn -0.613600 0.789000 0.029800
vn -0.584000 0.789800 0.187300
vn -0.929500 0.217000 0.298100
vn -0.952200 0.000000 0.305400
vn -0.998800 0.000000 0.048500
vn -0.977300 0.000000 -0.211600
vn -0.954100 0.216800 -0.206600
vn -0.599500 0.789800 -0.129800
vn -0.998800 0.000000 0.048500
vn -0.952200 0.000000 0.305400
vn -0.952200 0.000000 0.305400
vn -0.998800 0.000000 0.048500
vn -0.977300 0.000000 -0.211600
vn -0.977300 0.000000 -0.211600
vn -0.868100 0.216700 -0.446500
vn -0.546300 0.789100 -0.281000
vn -0.889200 0.000000 -0.457400
vn -0.740600 0.000000 -0.672000
vn -0.723000 0.216800 -0.655900
vn -0.454300 0.789700 -0.412200
vn -0.889200 0.000000 -0.457400
vn -0.889200 0.000000 -0.457400
vn -0.740600 0.000000 -0.671900
vn -0.740600 0.000000 -0.672000
vn -0.528600 0.216500 -0.820800
vn -0.332700 0.788900 -0.516600
vn -0.541400 0.000000 -0.840700
vn -0.305300 0.000000 -0.952200
vn -0.298100 0.216700 -0.929600
vn -0.187300 0.789800 -0.584100
vn -0.541400 0.000000 -0.840700
vn -0.541400 0.000000 -0.840700
vn -0.305400 0.000000 -0.952200
vn -0.305400 0.000000 -0.952200
vn -0.047400 0.216500 -0.975100
vn -0.029800 0.789000 -0.613600
vn -0.187300 0.789800 -0.584100
vn -0.298100 0.216700 -0.929600
vn -0.305300 0.000000 -0.952200
vn -0.048500 0.000000 -0.998800
vn 0.211600 0.000000 -0.977300
vn 0.206500 0.216700 -0.954100
vn 0.129800 0.789700 -0.599500
vn -0.048500 0.000000 -0.998800
vn -0.305400 0.000000 -0.952200
vn -0.305400 0.000000 -0.952200
vn -0.048500 0.000000 -0.998800
vn 0.211600 0.000000 -0.977300
vn 0.211600 0.000000 -0.977300
vn 0.446500 0.216500 -0.868200
vn 0.281000 0.789000 -0.546300
vn 0.457400 0.000000 -0.889200
vn 0.672000 0.000000 -0.740600
vn 0.656000 0.216700 -0.723000
vn 0.412200 0.789700 -0.454300
vn 0.457400 0.000000 -0.889200
vn 0.457400 0.000000 -0.889200
vn 0.672000 0.000000 -0.740600
vn 0.672000 0.000000 -0.740600
vn 0.820800 0.216500 -0.528600
vn 0.516500 0.789000 -0.332600
vn 0.840800 0.000000 -0.541400
vn 0.952200 0.000000 -0.305400
vn 0.929500 0.217000 -0.298100
vn 0.584000 0.789800 -0.187300
vn 0.840700 0.000000 -0.541400
vn 0.840700 0.000000 -0.541400
vn 0.952200 0.000000 -0.305400
vn 0.952200 0.000000 -0.305400
vn 0.975100 0.216700 -0.047300
vn 0.613500 0.789100 -0.029800
vn 0.998800 0.000000 -0.048500
vn 0.977300 0.000000 0.211600
vn 0.954100 0.216800 0.206600
vn 0.599500 0.789700 0.129800
vn 0.998800 0.000000 -0.048500
vn 0.998800 0.000000 -0.048500
vn 0.977300 0.000000 0.211600
vn 0.977300 0.000000 0.211600
vn 0.868100 0.216700 0.446500
vn 0.546300 0.789100 0.281000
vn 0.889200 0.000000 0.457400
vn 0.740600 0.000000 0.672000
vn 0.722900 0.216900 0.656000
vn 0.454200 0.789800 0.412200
vn 0.889200 0.000000 0.457400
vn 0.889200 0.000000 0.457400
vn 0.740600 0.000000 0.672000
vn 0.740600 0.000000 0.672000
vn 0.528600 0.216400 0.820800
vn 0.332600 0.788900 0.516600
vn 0.541400 0.000000 0.840700
vn 0.305400 0.000000 0.952200
vn 0.298100 0.216700 0.929600
vn 0.187300 0.789700 0.584100
vn 0.541400 0.000000 0.840700
vn 0.541400 0.000000 0.840700
vn 0.305400 0.000000 0.952200
vn 0.305400 0.000000 0.952200
vn 0.047400 0.216500 0.975100
vn 0.029800 0.789000 0.613700
vn 0.048500 0.000000 0.998800
vn -0.211700 0.000000 0.977300
vn -0.206600 0.216800 0.954100
vn -0.129800 0.789800 0.599500
vn 0.048500 0.000000 0.998800
vn 0.048500 0.000000 0.998800
vn -0.211600 0.000000 0.977300
vn -0.211700 0.000000 0.977300
vn -0.446500 0.216500 0.868100
vn -0.281000 0.789000 0.546300
vn -0.457400 0.000000 0.889200
vn -0.672000 0.000000 0.740600
vn -0.656000 0.216700 0.723000
vn -0.412200 0.789700 0.454300
vn -0.457400 0.000000 0.889200
vn -0.457400 0.000000 0.889200
vn -0.672000 0.000000 0.740600
vn -0.672000 0.000000 0.740600
vn -0.820800 0.216600 0.528600
vn -0.516500 0.789000 0.332600
vn -0.840700 0.000000 0.541400
vn -0.840700 0.000000 0.541400
vn -0.840700 0.000000 0.541400
vn -0.091900 0.994000 0.059100
vn 0.000000 1.000000 0.000000
vn 0.000000 1.000000 0.000000
vn -0.073200 0.994000 0.080600
vn -0.103700 0.994000 0.033200
vn 0.000000 1.000000 0.000000
vn -0.050000 0.994000 0.097100
vn 0.000000 1.000000 0.000000
vn 0.000000 1.000000 0.000000
vn -0.023000 0.994000 0.106400
vn 0.005300 0.994000 0.109100
vn 0.000000 1.000000 0.000000
vn 0.000000 1.000000 0.000000
vn 0.033200 0.994000 0.103600
vn 0.059100 0.994000 0.091900
vn 0.000000 1.000000 0.000000
vn 0.000000 1.000000 0.000000
vn 0.080600 0.994000 0.073200
vn 0.097200 0.994000 0.050000
vn 0.000000 1.000000 0.000000
vn 0.000000 1.000000 0.000000
vn 0.106400 0.994000 0.023000
vn 0.109100 0.994000 -0.005300
vn 0.000000 1.000000 0.000000
vn 0.000000 1.000000 0.000000
vn 0.103700 0.994000 -0.033200
vn 0.091900 0.994000 -0.059100
vn 0.000000 1.000000 0.000000
vn 0.000000 1.000000 0.000000
vn 0.073100 0.994000 -0.080600
vn 0.050000 0.994000 -0.097100
vn 0.000000 1.000000 0.000000
vn 0.000000 1.000000 0.000000
vn 0.023000 0.994000 -0.106400
vn -0.005300 0.994000 -0.109100
vn 0.000000 1.000000 0.000000
vn 0.000000 1.000000 0.000000
vn -0.033200 0.994000 -0.103600
vn -0.059200 0.994000 -0.091900
vn 0.000000 1.000000 0.000000
vn 0.000000 1.000000 0.000000
vn -0.080600 0.994000 -0.073200
vn -0.033200 0.994000 -0.103600
vn 0.000000 1.000000 0.000000
vn -0.097200 0.994000 -0.050000
vn 0.000000 1.000000 0.000000
vn 0.000000 1.000000 0.000000
vn -0.106400 0.994000 -0.023000
vn -0.109100 0.994000 0.005300
vn 0.000000 1.000000 0.000000
vn 0.213800 0.967100 -0.137700
vn 0.171200 0.966900 -0.188800
vn 0.000000 1.000000 0.000000
vn 0.000000 1.000000 0.000000
vn 0.000000 1.000000 0.000000
vn 0.242600 0.967000 -0.077800
vn 0.000000 1.000000 0.000000
vn 0.000000 1.000000 0.000000
vn 0.000000 1.000000 0.000000
vn 0.116300 0.967100 -0.226200
vn 0.053900 0.966900 -0.249100
vn 0.000000 1.000000 0.000000
vn 0.000000 1.000000 0.000000
vn 0.000000 1.000000 0.000000
vn 0.000000 1.000000 0.000000
vn -0.012300 0.967100 -0.254100
vn -0.077800 0.967000 -0.242700
vn 0.000000 1.000000 0.000000
vn 0.000000 1.000000 0.000000
vn 0.000000 1.000000 0.000000
vn 0.000000 1.000000 0.000000
vn -0.137700 0.967100 -0.213800
vn -0.188700 0.967000 -0.171200
vn 0.000000 1.000000 0.000000
vn 0.000000 1.000000 0.000000
vn 0.000000 1.000000 0.000000
vn 0.000000 1.000000 0.000000
vn -0.226100 0.967100 -0.116300
vn -0.249000 0.967000 -0.053900
vn 0.000000 1.000000 0.000000
vn 0.000000 1.000000 0.000000
vn 0.000000 1.000000 0.000000
vn 0.000000 1.000000 0.000000
vn -0.254000 0.967100 0.012300
vn -0.242600 0.967000 0.077800
vn 0.000000 1.000000 0.000000
vn 0.000000 1.000000 0.000000
vn 0.000000 1.000000 0.000000
vn 0.000000 1.000000 0.000000
vn -0.213800 0.967100 0.137700
vn -0.171200 0.966900 0.188800
vn 0.000000 1.000000 0.000000
vn 0.000000 1.000000 0.000000
vn 0.000000 1.000000 0.000000
vn 0.000000 1.000000 0.000000
vn -0.116300 0.967100 0.226200
vn -0.053900 0.966900 0.249200
vn 0.000000 1.000000 0.000000
vn 0.000000 1.000000 0.000000
vn 0.000000 1.000000 0.000000
vn 0.000000 1.000000 0.000000
vn 0.012300 0.967100 0.254100
vn 0.077800 0.966900 0.242700
vn 0.000000 1.000000 0.000000
vn 0.000000 1.000000 0.000000
vn 0.000000 1.000000 0.000000
vn 0.000000 1.000000 0.000000
vn 0.137700 0.967100 0.213900
vn 0.188700 0.967000 0.171200
vn 0.000000 1.000000 0.000000
vn 0.000000 1.000000 0.000000
vn 0.000000 1.000000 0.000000
vn 0.077800 0.966900 0.242700
vn 0.000000 1.000000 0.000000
vn 0.000000 1.000000 0.000000
vn 0.000000 1.000000 0.000000
vn 0.226100 0.967100 0.116300
vn 0.249100 0.966900 0.053900
vn 0.000000 1.000000 0.000000
vn 0.000000 1.000000 0.000000
vn 0.000000 1.000000 0.000000
vn 0.000000 1.000000 0.000000
vn 0.254000 0.967100 -0.012300
vn 0.000000 1.000000 0.000000
vn 0.000000 1.000000 0.000000
vn 0.998800 0.000000 -0.048500
vn 0.977300 0.000000 0.211600
vn 0.977300 0.000000 0.211600
vn 0.998800 0.000000 -0.048500
vn 0.952200 0.000000 -0.305300
vn 0.952200 0.000000 -0.305300
vn 0.998800 0.000000 -0.048500
vn 0.977300 0.000000 0.211600
vn 0.977300 0.000000 0.211600
vn 0.998800 0.000000 -0.048500
vn 0.952200 0.000000 -0.305400
vn 0.952200 0.000000 -0.305400
vn 0.889200 0.000000 0.457400
vn 0.740600 0.000000 0.672000
vn 0.740600 0.000000 0.671900
vn 0.889200 0.000000 0.457400
vn 0.889200 0.000000 0.457400
vn 0.740500 0.000000 0.672000
vn 0.740400 0.000000 0.672100
vn 0.889200 0.000000 0.457500
vn 0.541400 0.000000 0.840700
vn 0.305400 0.000000 0.952200
vn 0.305400 0.000000 0.952200
vn 0.541400 0.000000 0.840700
vn 0.541400 0.000000 0.840800
vn 0.305300 0.000000 0.952200
vn 0.305300 0.000000 0.952200
vn 0.541300 0.000000 0.840800
vn 0.048500 0.000000 0.998800
vn -0.211600 0.000000 0.977300
vn -0.211600 0.000000 0.977300
vn 0.048500 0.000000 0.998800
vn 0.305400 0.000000 0.952200
vn 0.305400 0.000000 0.952200
vn 0.048500 0.000000 0.998800
vn -0.211600 0.000000 0.977300
vn -0.211600 0.000000 0.977400
vn 0.048400 0.000000 0.998800
vn 0.305300 0.000000 0.952200
vn 0.305300 0.000000 0.952200
vn -0.457400 0.000000 0.889200
vn -0.672000 0.000000 0.740600
vn -0.672000 0.000000 0.740600
vn -0.457400 0.000000 0.889200
vn -0.457400 0.000000 0.889300
vn -0.671900 0.000000 0.740600
vn -0.671900 0.000000 0.740600
vn -0.457300 0.000000 0.889300
vn -0.840800 0.000000 0.541400
vn -0.952200 0.000000 0.305300
vn -0.952200 0.000000 0.305400
vn -0.840700 0.000000 0.541400
vn -0.840700 0.000000 0.541500
vn -0.952200 0.000000 0.305400
vn -0.952200 0.000000 0.305400
vn -0.840700 0.000000 0.541500
vn -0.998800 0.000000 0.048500
vn -0.977300 0.000000 -0.211600
vn -0.977300 0.000000 -0.211600
vn -0.998800 0.000000 0.048500
vn -0.998800 0.000000 0.048500
vn -0.977300 0.000000 -0.211600
vn -0.977300 0.000000 -0.211600
vn -0.998800 0.000000 0.048500
vn -0.889200 0.000000 -0.457400
vn -0.740600 0.000000 -0.671900
vn -0.740600 0.000000 -0.671900
vn -0.889200 0.000000 -0.457400
vn -0.889200 0.000000 -0.457400
vn -0.740500 0.000000 -0.672000
vn -0.740400 0.000000 -0.672100
vn -0.889200 0.000000 -0.457500
vn -0.541400 0.000000 -0.840700
vn -0.305400 0.000000 -0.952200
vn -0.305300 0.000000 -0.952200
vn -0.541400 0.000000 -0.840700
vn -0.541400 0.000000 -0.840800
vn -0.305300 0.000000 -0.952200
vn -0.305300 0.000000 -0.952200
vn -0.541300 0.000000 -0.840800
vn -0.048500 0.000000 -0.998800
vn 0.211700 0.000000 -0.977300
vn 0.211600 0.000000 -0.977300
vn -0.048500 0.000000 -0.998800
vn -0.048500 0.000000 -0.998800
vn 0.211600 0.000000 -0.977300
vn 0.211600 0.000000 -0.977300
vn -0.048500 0.000000 -0.998800
vn 0.457400 0.000000 -0.889200
vn 0.672000 0.000000 -0.740600
vn 0.671900 0.000000 -0.740600
vn 0.457400 0.000000 -0.889200
vn 0.457400 0.000000 -0.889300
vn 0.671900 0.000000 -0.740600
vn 0.671900 0.000000 -0.740600
vn 0.457300 0.000000 -0.889300
vn 0.840700 0.000000 -0.541400
vn 0.840700 0.000000 -0.541400
vn 0.840700 0.000000 -0.541500
vn 0.840700 0.000000 -0.541500
vt -0.960800 3.560400
vt -0.948600 3.602900
vt -0.965400 3.612100
vt -0.976200 3.568900
vt -0.987000 3.525200
vt -0.973200 3.517500
vt -0.959400 3.508400
vt -0.945600 3.550800
vt -0.932100 3.592800
vt -0.978400 3.499900
vt -0.991600 3.507400
vt -0.992800 3.502800
vt -0.979900 3.495400
vt -0.967100 3.486700
vt -0.965300 3.491100
vt -0.930600 3.540000
vt -0.915800 3.581700
vt -0.945800 3.497800
vt -0.932200 3.485400
vt -0.915700 3.527900
vt -0.899700 3.569900
vt -0.952300 3.480700
vt -0.954400 3.476400
vt -0.941800 3.463900
vt -0.939400 3.468100
vt -0.901000 3.514300
vt -0.883700 3.557500
vt -0.918700 3.470600
vt -0.905300 3.454700
vt -0.886300 3.500000
vt -0.867800 3.544700
vt -0.926600 3.452900
vt -0.929300 3.448700
vt -0.917000 3.432100
vt -0.913800 3.436300
vt -1.265000 3.519900
vt -1.283900 3.571500
vt -1.302900 3.558100
vt -1.282400 3.504300
vt -1.261100 3.449800
vt -1.245400 3.467800
vt -1.229800 3.484400
vt -1.247500 3.534600
vt -1.264800 3.584300
vt -1.236600 3.446600
vt -1.251300 3.427600
vt -1.247500 3.422500
vt -1.233400 3.441500
vt -1.219200 3.458900
vt -1.221900 3.463900
vt -1.230100 3.547300
vt -1.245800 3.596100
vt -1.214200 3.498100
vt -1.198700 3.509500
vt -1.212800 3.558300
vt -1.226700 3.606700
vt -1.207200 3.478000
vt -1.205000 3.473000
vt -1.190700 3.484600
vt -1.192600 3.489600
vt -1.195600 3.567800
vt -1.207600 3.616100
vt -1.183300 3.519100
vt -1.168100 3.527100
vt -1.178400 3.575800
vt -1.188500 3.624100
vt -1.178100 3.499200
vt -1.176600 3.494200
vt -1.162400 3.502300
vt -1.163700 3.507200
vt -1.161100 3.582500
vt -1.169300 3.630700
vt -1.152700 3.533900
vt -1.137300 3.539400
vt -1.143700 3.587900
vt -1.150100 3.636000
vt -1.149200 3.514000
vt -1.148100 3.509000
vt -1.133700 3.514500
vt -1.134500 3.519600
vt -1.126300 3.591900
vt -1.130900 3.639800
vt -1.121700 3.543600
vt -1.106200 3.546400
vt -1.109000 3.594500
vt -1.111700 3.642200
vt -1.119700 3.523800
vt -1.119100 3.518700
vt -1.104600 3.521600
vt -1.105000 3.526700
vt -1.091800 3.595700
vt -1.092600 3.643100
vt -1.090800 3.547800
vt -1.075600 3.548000
vt -1.074700 3.595600
vt -1.073700 3.642700
vt -1.090400 3.528200
vt -1.090300 3.523200
vt -1.076100 3.523600
vt -1.076000 3.528500
vt -1.057700 3.594200
vt -1.055000 3.640800
vt -1.060500 3.547200
vt -1.045400 3.545200
vt -1.040900 3.591600
vt -1.036500 3.637600
vt -1.061600 3.527900
vt -1.061900 3.523000
vt -1.047700 3.521300
vt -1.047300 3.526200
vt -1.024200 3.587800
vt -1.018200 3.633000
vt -1.030400 3.542000
vt -1.015500 3.537600
vt -1.007800 3.582600
vt -1.000200 3.627200
vt -1.032900 3.523300
vt -1.033500 3.518400
vt -1.019600 3.514400
vt -1.018700 3.519100
vt -0.991800 3.576300
vt -0.982700 3.620200
vt -1.001100 3.532000
vt -1.005000 3.513800
vt -1.006000 3.509200
vt -0.992000 3.458500
vt -0.990900 3.461800
vt -1.002300 3.468500
vt -1.003200 3.465000
vt -1.004600 3.460000
vt -0.993600 3.453700
vt -0.983100 3.446100
vt -0.981300 3.450700
vt -0.980000 3.453800
vt -0.996300 3.445400
vt -1.006800 3.451400
vt -1.009600 3.441100
vt -0.999700 3.435500
vt -0.990200 3.428700
vt -0.986300 3.438200
vt -0.971100 3.441600
vt -0.969600 3.444500
vt -0.973200 3.437300
vt -0.964000 3.427500
vt -0.961700 3.431500
vt -0.960100 3.434200
vt -0.976800 3.429800
vt -0.981200 3.420900
vt -0.972600 3.412100
vt -0.967900 3.420500
vt -0.953100 3.420700
vt -0.951400 3.423100
vt -0.955500 3.417000
vt -0.947300 3.406100
vt -0.944900 3.409600
vt -0.943100 3.411600
vt -0.959500 3.410400
vt -0.964500 3.402500
vt -0.956500 3.392500
vt -0.951500 3.400000
vt -1.206000 3.409500
vt -1.208100 3.412400
vt -1.217600 3.398900
vt -1.215400 3.396400
vt -1.212500 3.392200
vt -1.203100 3.405100
vt -1.193400 3.417700
vt -1.196200 3.422200
vt -1.198200 3.425400
vt -1.198200 3.397600
vt -1.207400 3.384900
vt -1.201300 3.376200
vt -1.192200 3.388500
vt -1.182900 3.400300
vt -1.188600 3.409800
vt -1.185600 3.434200
vt -1.187400 3.437500
vt -1.183000 3.429400
vt -1.172100 3.439900
vt -1.174400 3.444900
vt -1.175900 3.448300
vt -1.178700 3.421200
vt -1.173400 3.411300
vt -1.163600 3.421000
vt -1.168300 3.431300
vt -1.162700 3.454000
vt -1.164000 3.457600
vt -1.160800 3.448800
vt -1.149100 3.456300
vt -1.150700 3.461500
vt -1.151800 3.465200
vt -1.157500 3.440000
vt -1.153400 3.429400
vt -1.143000 3.436300
vt -1.146300 3.447200
vt -1.138400 3.467500
vt -1.139300 3.471200
vt -1.137100 3.462200
vt -1.125000 3.467000
vt -1.126000 3.472400
vt -1.126800 3.476100
vt -1.134900 3.453100
vt -1.132100 3.442000
vt -1.121000 3.446700
vt -1.123200 3.457800
vt -1.113600 3.476500
vt -1.114200 3.480300
vt -1.112800 3.471100
vt -1.100600 3.474200
vt -1.101100 3.479700
vt -1.101500 3.483500
vt -1.111400 3.461800
vt -1.109800 3.450500
vt -1.098500 3.453400
vt -1.099600 3.464800
vt -1.088600 3.481600
vt -1.088800 3.485400
vt -1.088300 3.476100
vt -1.076000 3.476600
vt -1.076000 3.482100
vt -1.076000 3.485900
vt -1.087800 3.466600
vt -1.087100 3.455100
vt -1.075800 3.455800
vt -1.075900 3.467200
vt -1.063500 3.481400
vt -1.063400 3.485100
vt -1.063700 3.476000
vt -1.051600 3.474300
vt -1.051200 3.479700
vt -1.050900 3.483400
vt -1.064100 3.466600
vt -1.064500 3.455300
vt -1.053200 3.454000
vt -1.052300 3.465100
vt -1.038900 3.477400
vt -1.038500 3.481100
vt -1.039500 3.472100
vt -1.027600 3.469100
vt -1.026800 3.474300
vt -1.026200 3.478000
vt -1.040600 3.463000
vt -1.041900 3.451900
vt -1.030800 3.449200
vt -1.029100 3.460100
vt -1.014900 3.470200
vt -1.014100 3.473800
vt -1.015900 3.465100
vt -1.017800 3.456300
vt -1.020000 3.445600
vt -1.013100 3.477900
vt -1.011800 3.483600
vt -1.024400 3.488000
vt -1.025400 3.482100
vt -1.001100 3.472400
vt -0.999600 3.478000
vt -1.037900 3.485400
vt -1.037100 3.491400
vt -1.050000 3.493900
vt -1.050500 3.487800
vt -1.063300 3.489500
vt -1.063100 3.495700
vt -1.076200 3.496500
vt -1.076100 3.490300
vt -1.089000 3.489700
vt -1.089300 3.495700
vt -1.102500 3.493800
vt -1.101900 3.487700
vt -1.114800 3.484600
vt -1.115600 3.490700
vt -1.128800 3.486700
vt -1.127600 3.480500
vt -1.140400 3.475600
vt -1.141900 3.481700
vt -1.154900 3.475400
vt -1.153100 3.469400
vt -1.165600 3.461600
vt -1.167700 3.467500
vt -1.180100 3.457900
vt -1.177700 3.452200
vt -1.189400 3.441300
vt -1.192300 3.446900
vt -1.203900 3.434200
vt -1.200500 3.429000
vt -1.210700 3.415500
vt -1.214600 3.419900
vt -1.225000 3.404700
vt -1.220500 3.401300
vt -0.949200 3.425800
vt -0.945700 3.429700
vt -0.955200 3.442000
vt -0.958100 3.437400
vt -0.940700 3.413700
vt -0.936700 3.416600
vt -0.967900 3.448000
vt -0.965500 3.453000
vt -0.976400 3.462600
vt -0.978500 3.457400
vt -0.989600 3.465600
vt -0.987800 3.470900
vt -1.006900 3.505300
vt -1.020300 3.510400
vt -1.021200 3.505200
vt -1.008000 3.500300
vt -0.995100 3.494300
vt -0.993800 3.499200
vt -1.009900 3.492100
vt -1.022800 3.496700
vt -0.997300 3.486300
vt -1.034100 3.514400
vt -1.048000 3.517300
vt -1.048500 3.512000
vt -1.034700 3.509100
vt -1.035900 3.500400
vt -1.049200 3.503100
vt -1.062000 3.519100
vt -1.076100 3.519700
vt -1.076100 3.514400
vt -1.062300 3.513800
vt -1.062700 3.504900
vt -1.076100 3.505600
vt -1.090100 3.519200
vt -1.104300 3.517500
vt -1.103800 3.512000
vt -1.089900 3.513800
vt -1.089600 3.504900
vt -1.103200 3.503000
vt -1.118600 3.514600
vt -1.133000 3.510500
vt -1.132000 3.505000
vt -1.117900 3.509100
vt -1.116800 3.500000
vt -1.130400 3.496000
vt -1.147200 3.505100
vt -1.161300 3.498300
vt -1.159900 3.493100
vt -1.146000 3.499800
vt -1.144000 3.490900
vt -1.157500 3.484400
vt -1.175300 3.490300
vt -1.189200 3.480600
vt -1.187100 3.475300
vt -1.173500 3.485000
vt -1.170700 3.476400
vt -1.183700 3.466700
vt -1.203100 3.469000
vt -1.216900 3.454900
vt -1.213900 3.450100
vt -1.200600 3.463800
vt -1.196500 3.455400
vt -1.208900 3.442200
vt -1.230600 3.437800
vt -1.244100 3.419100
vt -1.239600 3.415600
vt -1.226900 3.433500
vt -1.220800 3.426700
vt -1.232300 3.410100
vt -0.931800 3.445500
vt -0.943800 3.460500
vt -0.946400 3.456200
vt -0.935000 3.441700
vt -0.923900 3.426100
vt -0.919900 3.429200
vt -0.940400 3.435700
vt -0.950800 3.449100
vt -0.930300 3.421400
vt -0.956000 3.472900
vt -0.968500 3.483100
vt -0.970300 3.478400
vt -0.958200 3.468200
vt -0.961800 3.460700
vt -0.973300 3.470500
vt -0.981000 3.491800
vt -0.982600 3.487100
vt -0.985100 3.479100
vt -0.943900 3.619100
vt -0.926800 3.608800
vt -0.925800 3.611800
vt -0.942900 3.622200
vt -0.960400 3.631700
vt -0.961300 3.628600
vt -0.941900 3.625300
vt -0.924700 3.614800
vt -0.923600 3.617800
vt -0.940900 3.628400
vt -0.958500 3.638000
vt -0.959500 3.634900
vt -0.910100 3.597600
vt -0.893500 3.585900
vt -0.892400 3.588900
vt -0.909000 3.600600
vt -0.907800 3.603600
vt -0.891200 3.591800
vt -0.890000 3.594800
vt -0.906600 3.606600
vt -0.877200 3.573800
vt -0.860900 3.561600
vt -0.859700 3.564500
vt -0.876000 3.576800
vt -0.874800 3.579700
vt -0.858400 3.567400
vt -0.857200 3.570200
vt -0.873500 3.582600
vt -1.290900 3.591100
vt -1.271300 3.603300
vt -1.272300 3.606900
vt -1.292000 3.594700
vt -1.311700 3.582100
vt -1.310600 3.578500
vt -1.293100 3.598300
vt -1.273300 3.610600
vt -1.274300 3.614200
vt -1.294100 3.601900
vt -1.313800 3.589300
vt -1.312700 3.585700
vt -1.251600 3.614800
vt -1.231900 3.625300
vt -1.232700 3.628900
vt -1.252600 3.618400
vt -1.253500 3.622000
vt -1.233500 3.632500
vt -1.234300 3.636200
vt -1.254400 3.625700
vt -1.212100 3.634500
vt -1.192300 3.642500
vt -1.192900 3.646200
vt -1.212800 3.638200
vt -1.213500 3.641800
vt -1.193400 3.649800
vt -1.194000 3.653500
vt -1.214200 3.645500
vt -1.172400 3.649200
vt -1.152400 3.654400
vt -1.152800 3.658000
vt -1.172900 3.652800
vt -1.173300 3.656500
vt -1.153100 3.661700
vt -1.153400 3.665300
vt -1.173700 3.660100
vt -1.132500 3.658200
vt -1.112600 3.660500
vt -1.112700 3.664100
vt -1.132700 3.661800
vt -1.132900 3.665400
vt -1.112800 3.667700
vt -1.112800 3.671300
vt -1.133100 3.669100
vt -1.092900 3.661300
vt -1.073300 3.660700
vt -1.073100 3.664200
vt -1.092800 3.664900
vt -1.092700 3.668500
vt -1.072900 3.667800
vt -1.072600 3.671300
vt -1.092600 3.672100
vt -1.053900 3.658600
vt -1.034700 3.655200
vt -1.034200 3.658600
vt -1.053500 3.662100
vt -1.053200 3.665600
vt -1.033700 3.662100
vt -1.033200 3.665500
vt -1.052800 3.669200
vt -1.015800 3.650400
vt -0.997200 3.644300
vt -0.996600 3.647600
vt -1.015200 3.653800
vt -1.014600 3.657100
vt -0.995800 3.650900
vt -0.995100 3.654200
vt -1.014000 3.660500
vt -0.979100 3.637000
vt -0.978300 3.640200
vt -0.977500 3.643400
vt -0.976600 3.646700
f 1/1/1 2/2/2 3/3/3
f 1/1/1 3/3/3 4/4/4
f 1/1/1 4/4/4 5/5/5
f 1/1/1 5/5/5 6/6/6
f 1/1/1 6/6/6 7/7/7
f 1/1/1 7/7/7 8/8/8
f 1/1/1 8/8/8 9/9/9
f 1/1/1 9/9/9 2/2/2
f 10/10/10 6/6/6 5/5/5
f 10/10/10 5/5/5 11/11/11
f 10/10/10 11/11/11 12/12/12
f 10/10/10 12/12/12 13/13/13
f 10/10/10 13/13/13 14/14/14
f 10/10/10 14/14/14 15/15/15
f 10/10/10 15/15/15 7/7/7
f 10/10/10 7/7/7 6/6/6
f 16/16/16 17/17/17 9/9/9
f 16/16/16 9/9/9 8/8/8
f 16/16/16 8/8/8 7/7/7
f 16/16/16 7/7/7 18/18/18
f 16/16/16 18/18/18 19/19/19
f 16/16/16 19/19/19 20/20/20
f 16/16/16 20/20/20 21/21/21
f 16/16/16 21/21/21 17/17/17
f 22/22/22 18/18/18 7/7/7
f 22/22/22 7/7/7 15/15/15
f 22/22/22 15/15/15 14/14/14
f 22/22/22 14/14/14 23/23/23
f 22/22/22 23/23/23 24/24/24
f 22/22/22 24/24/24 25/25/25
f 22/22/22 25/25/25 19/19/19
f 22/22/22 19/19/19 18/18/18
f 26/26/26 27/27/27 21/21/21
f 26/26/26 21/21/21 20/20/20
f 26/26/26 20/20/20 19/19/19
f 26/26/26 19/19/19 28/28/28
f 26/26/26 28/28/28 29/29/29
f 26/26/26 29/29/29 30/30/30
f 26/26/26 30/30/30 31/31/31
f 26/26/26 31/31/31 27/27/27
f 32/32/32 28/28/28 19/19/19
f 32/32/32 19/19/19 25/25/25
f 32/32/32 25/25/25 24/24/24
f 32/32/32 24/24/24 33/33/33
f 32/32/32 33/33/33 34/34/34
f 32/32/32 34/34/34 35/35/35
f 32/32/32 35/35/35 29/29/29
f 32/32/32 29/29/29 28/28/28
f 36/36/36 37/37/37 38/38/38
f 36/36/36 38/38/38 39/39/39
f 36/36/36 39/39/39 40/40/40
f 36/36/36 40/40/40 41/41/41
f 36/36/36 41/41/41 42/42/42
f 36/36/36 42/42/42 43/43/43
f 36/36/36 43/43/43 44/44/44
f 36/36/36 44/44/44 37/37/37
f 45/45/45 41/41/41 40/40/40
f 45/45/45 40/40/40 46/46/46
f 45/45/45 46/46/46 47/47/47
f 45/45/45 47/47/47 48/48/48
f 45/45/45 48/48/48 49/49/49
f 45/45/45 49/49/49 50/50/50
f 45/45/45 50/50/50 42/42/42
f 45/45/45 42/42/42 41/41/41
f 51/51/51 52/52/52 44/44/44
f 51/51/51 44/44/44 43/43/43
f 51/51/51 43/43/43 42/42/42
f 51/51/51 42/42/42 53/53/53
f 51/51/51 53/53/53 54/54/54
f 51/51/51 54/54/54 55/55/55
f 51/51/51 55/55/55 56/56/56
f 51/51/51 56/56/56 52/52/52
f 57/57/57 53/53/53 42/42/42
f 57/57/57 42/42/42 50/50/50
f 57/57/57 50/50/50 49/49/49
f 57/57/57 49/49/49 58/58/58
f 57/57/57 58/58/58 59/59/59
f 57/57/57 59/59/59 60/60/60
f 57/57/57 60/60/60 54/54/54
f 57/57/57 54/54/54 53/53/53
f 61/61/61 62/62/62 56/56/56
f 61/61/61 56/56/56 55/55/55
f 61/61/61 55/55/55 54/54/54
f 61/61/61 54/54/54 63/63/63
f 61/61/61 63/63/63 64/64/64
f 61/61/61 64/64/64 65/65/65
f 61/61/61 65/65/65 66/66/66
f 61/61/61 66/66/66 62/62/62
f 67/67/67 63/63/63 54/54/54
f 67/67/67 54/54/54 60/60/60
f 67/67/67 60/60/60 59/59/59
f 67/67/67 59/59/59 68/68/68
f 67/67/67 68/68/68 69/69/69
f 67/67/67 69/69/69 70/70/70
f 67/67/67 70/70/70 64/64/64
f 67/67/67 64/64/64 63/63/63
f 71/71/71 72/72/72 66/66/66
f 71/71/71 66/66/66 65/65/65
f 71/71/71 65/65/65 64/64/64
f 71/71/71 64/64/64 73/73/73
f 71/71/71 73/73/73 74/74/74
f 71/71/71 74/74/74 75/75/75
f 71/71/71 75/75/75 76/76/76
f 71/71/71 76/76/76 72/72/72
f 77/77/77 73/73/73 64/64/64
f 77/77/77 64/64/64 70/70/70
f 77/77/77 70/70/70 69/69/69
f 77/77/77 69/69/69 78/78/78
f 77/77/77 78/78/78 79/79/79
f 77/77/77 79/79/79 80/80/80
f 77/77/77 80/80/80 74/74/74
f 77/77/77 74/74/74 73/73/73
f 81/81/81 82/82/82 76/76/76
f 81/81/81 76/76/76 75/75/75
f 81/81/81 75/75/75 74/74/74
f 81/81/81 74/74/74 83/83/83
f 81/81/81 83/83/83 84/84/84
f 81/81/81 84/84/84 85/85/85
f 81/81/81 85/85/85 86/86/86
f 81/81/81 86/86/86 82/82/82
f 87/87/87 83/83/83 74/74/74
f 87/87/87 74/74/74 80/80/80
f 87/87/87 80/80/80 79/79/79
f 87/87/87 79/79/79 88/88/88
f 87/87/87 88/88/88 89/89/89
f 87/87/87 89/89/89 90/90/90
f 87/87/87 90/90/90 84/84/84
f 87/87/87 84/84/84 83/83/83
f 91/91/91 92/92/92 86/86/86
f 91/91/91 86/86/86 85/85/85
f 91/91/91 85/85/85 84/84/84
f 91/91/91 84/84/84 93/93/93
f 91/91/91 93/93/93 94/94/94
f 91/91/91 94/94/94 95/95/95
f 91/91/91 95/95/95 96/96/96
f 91/91/91 96/96/96 92/92/92
f 97/97/97 93/93/93 84/84/84
f 97/97/97 84/84/84 90/90/90
f 97/97/97 90/90/90 89/89/89
f 97/97/97 89/89/89 98/98/98
f 97/97/97 98/98/98 99/99/99
f 97/97/97 99/99/99 100/100/100
f 97/97/97 100/100/100 94/94/94
f 97/97/97 94/94/94 93/93/93
f 101/101/101 102/102/102 96/96/96
f 101/101/101 96/96/96 95/95/95
f 101/101/101 95/95/95 94/94/94
f 101/101/101 94/94/94 103/103/103
f 101/101/101 103/103/103 104/104/104
f 101/101/101 104/104/104 105/105/105
f 101/101/101 105/105/105 106/106/106
f 101/101/101 106/106/106 102/102/102
f 107/107/107 103/103/103 94/94/94
f 107/107/107 94/94/94 100/100/100
f 107/107/107 100/100/100 99/99/99
f 107/107/107 99/99/99 108/108/108
f 107/107/107 108/108/108 109/109/109
f 107/107/107 109/109/109 110/110/110
f 107/107/107 110/110/110 104/104/104
f 107/107/107 104/104/104 103/103/103
f 111/111/111 112/112/112 106/106/106
f 111/111/111 106/106/106 105/105/105
f 111/111/111 105/105/105 104/104/104
f 111/111/111 104/104/104 113/113/113
f 111/111/111 113/113/113 114/114/114
f 111/111/111 114/114/114 115/115/115
f 111/111/111 115/115/115 116/116/116
f 111/111/111 116/116/116 112/112/112
f 117/117/117 113/113/113 104/104/104
f 117/117/117 104/104/104 110/110/110
f 117/117/117 110/110/110 109/109/109
f 117/117/117 109/109/109 118/118/118
f 117/117/117 118/118/118 119/119/119
f 117/117/117 119/119/119 120/120/120
f 117/117/117 120/120/120 114/114/114
f 117/117/117 114/114/114 113/113/113
f 121/121/121 122/122/122 116/116/116
f 121/121/121 116/116/116 115/115/115
f 121/121/121 115/115/115 114/114/114
f 121/121/121 114/114/114 123/123/123
f 121/121/121 123/123/123 5/5/5
f 121/121/121 5/5/5 4/4/4
f 121/121/121 4/4/4 3/3/3
f 121/121/121 3/3/3 122/122/122
f 124/124/124 123/123/123 114/114/114
f 124/124/124 114/114/114 120/120/120
f 124/124/124 120/120/120 119/119/119
f 124/124/124 119/119/119 125/125/125
f 124/124/124 125/125/125 12/12/12
f 124/124/124 12/12/12 11/11/11
f 124/124/124 11/11/11 5/5/5
f 124/124/124 5/5/5 123/123/123
f 126/126/126 127/127/127 128/128/128
f 126/126/126 128/128/128 129/129/129
f 126/126/126 129/129/129 130/130/130
f 126/126/126 130/130/130 131/131/131
f 126/126/126 131/131/131 132/132/132
f 126/126/126 132/132/132 133/133/133
f 126/126/126 133/133/133 134/134/134
f 126/126/126 134/134/134 127/127/127
f 135/135/135 131/131/131 130/130/130
f 135/135/135 130/130/130 136/136/136
f 135/135/135 136/136/136 137/137/137
f 135/135/135 137/137/137 138/138/138
f 135/135/135 138/138/138 139/139/139
f 135/135/135 139/139/139 140/140/140
f 135/135/135 140/140/140 132/132/132
f 135/135/135 132/132/132 131/131/131
f 141/141/141 142/142/142 134/134/134
f 141/141/141 134/134/134 133/133/133
f 141/141/141 133/133/133 132/132/132
f 141/141/141 132/132/132 143/143/143
f 141/141/141 143/143/143 144/144/144
f 141/141/141 144/144/144 145/145/145
f 141/141/141 145/145/145 146/146/146
f 141/141/141 146/146/146 142/142/142
f 147/147/147 143/143/143 132/132/132
f 147/147/147 132/132/132 140/140/140
f 147/147/147 140/140/140 139/139/139
f 147/147/147 139/139/139 148/148/148
f 147/147/147 148/148/148 149/149/149
f 147/147/147 149/149/149 150/150/150
f 147/147/147 150/150/150 144/144/144
f 147/147/147 144/144/144 143/143/143
f 151/151/151 152/152/152 146/146/146
f 151/151/151 146/146/146 145/145/145
f 151/151/151 145/145/145 144/144/144
f 151/151/151 144/144/144 153/153/153
f 151/151/151 153/153/153 154/154/154
f 151/151/151 154/154/154 155/155/155
f 151/151/151 155/155/155 156/156/156
f 151/151/151 156/156/156 152/152/152
f 157/157/157 153/153/153 144/144/144
f 157/157/157 144/144/144 150/150/150
f 157/157/157 150/150/150 149/149/149
f 157/157/157 149/149/149 158/158/158
f 157/157/157 158/158/158 159/159/159
f 157/157/157 159/159/159 160/160/160
f 157/157/157 160/160/160 154/154/154
f 157/157/157 154/154/154 153/153/153
f 161/161/161 162/162/162 163/163/163
f 161/161/161 163/163/163 164/164/164
f 161/161/161 164/164/164 165/165/165
f 161/161/161 165/165/165 166/166/166
f 161/161/161 166/166/166 167/167/167
f 161/161/161 167/167/167 168/168/168
f 161/161/161 168/168/168 169/169/169
f 161/161/161 169/169/169 162/162/162
f 170/170/170 166/166/166 165/165/165
f 170/170/170 165/165/165 171/171/171
f 170/170/170 171/171/171 172/172/172
f 170/170/170 172/172/172 173/173/173
f 170/170/170 173/173/173 174/174/174
f 170/170/170 174/174/174 175/175/175
f 170/170/170 175/175/175 167/167/167
f 170/170/170 167/167/167 166/166/166
f 176/176/176 177/177/177 169/169/169
f 176/176/176 169/169/169 168/168/168
f 176/176/176 168/168/168 167/167/167
f 176/176/176 167/167/167 178/178/178
f 176/176/176 178/178/178 179/179/179
f 176/176/176 179/179/179 180/180/180
f 176/176/176 180/180/180 181/181/181
f 176/176/176 181/181/181 177/177/177
f 182/182/182 178/178/178 167/167/167
f 182/182/182 167/167/167 175/175/175
f 182/182/182 175/175/175 174/174/174
f 182/182/182 174/174/174 183/183/183
f 182/182/182 183/183/183 184/184/184
f 182/182/182 184/184/184 185/185/185
f 182/182/182 185/185/185 179/179/179
f 182/182/182 179/179/179 178/178/178
f 186/186/186 187/187/187 181/181/181
f 186/186/186 181/181/181 180/180/180
f 186/186/186 180/180/180 179/179/179
f 186/186/186 179/179/179 188/188/188
f 186/186/186 188/188/188 189/189/189
f 186/186/186 189/189/189 190/190/190
f 186/186/186 190/190/190 191/191/191
f 186/186/186 191/191/191 187/187/187
f 192/192/192 188/188/188 179/179/179
f 192/192/192 179/179/179 185/185/185
f 192/192/192 185/185/185 184/184/184
f 192/192/192 184/184/184 193/193/193
f 192/192/192 193/193/193 194/194/194
f 192/192/192 194/194/194 195/195/195
f 192/192/192 195/195/195 189/189/189
f 192/192/192 189/189/189 188/188/188
f 196/196/196 197/197/197 191/191/191
f 196/196/196 191/191/191 190/190/190
f 196/196/196 190/190/190 189/189/189
f 196/196/196 189/189/189 198/198/198
f 196/196/196 198/198/198 199/199/199
f 196/196/196 199/199/199 200/200/200
f 196/196/196 200/200/200 201/201/201
f 196/196/196 201/201/201 197/197/197
f 202/202/202 198/198/198 189/189/189
f 202/202/202 189/189/189 195/195/195
f 202/202/202 195/195/195 194/194/194
f 202/202/202 194/194/194 203/203/203
f 202/202/202 203/203/203 204/204/204
f 202/202/202 204/204/204 205/205/205
f 202/202/202 205/205/205 199/199/199
f 202/202/202 199/199/199 198/198/198
f 206/206/206 207/207/207 201/201/201
f 206/206/206 201/201/201 200/200/200
f 206/206/206 200/200/200 199/199/199
f 206/206/206 199/199/199 208/208/208
f 206/206/206 208/208/208 209/209/209
f 206/206/206 209/209/209 210/210/210
f 206/206/206 210/210/210 211/211/211
f 206/206/206 211/211/211 207/207/207
f 212/212/212 208/208/208 199/199/199
f 212/212/212 199/199/199 205/205/205
f 212/212/212 205/205/205 204/204/204
f 212/212/212 204/204/204 213/213/213
f 212/212/212 213/213/213 214/214/214
f 212/212/212 214/214/214 215/215/215
f 212/212/212 215/215/215 209/209/209
f 212/212/212 209/209/209 208/208/208
f 216/216/216 217/217/217 211/211/211
f 216/216/216 211/211/211 210/210/210
f 216/216/216 210/210/210 209/209/209
f 216/216/216 209/209/209 218/218/218
f 216/216/216 218/218/218 219/219/219
f 216/216/216 219/219/219 220/220/220
f 216/216/216 220/220/220 221/221/221
f 216/216/216 221/221/221 217/217/217
f 222/222/222 218/218/218 209/209/209
f 222/222/222 209/209/209 215/215/215
f 222/222/222 215/215/215 214/214/214
f 222/222/222 214/214/214 223/223/223
f 222/222/222 223/223/223 224/224/224
f 222/222/222 224/224/224 225/225/225
f 222/222/222 225/225/225 219/219/219
f 222/222/222 219/219/219 218/218/218
f 226/226/226 227/227/227 221/221/221
f 226/226/226 221/221/221 220/220/220
f 226/226/226 220/220/220 219/219/219
f 226/226/226 219/219/219 228/228/228
f 226/226/226 228/228/228 229/229/229
f 226/226/226 229/229/229 230/230/230
f 226/226/226 230/230/230 231/231/231
f 226/226/226 231/231/231 227/227/227
f 232/232/232 228/228/228 219/219/219
f 232/232/232 219/219/219 225/225/225
f 232/232/232 225/225/225 224/224/224
f 232/232/232 224/224/224 233/233/233
f 232/232/232 233/233/233 234/234/234
f 232/232/232 234/234/234 235/235/235
f 232/232/232 235/235/235 229/229/229
f 232/232/232 229/229/229 228/228/228
f 236/236/236 237/237/237 231/231/231
f 236/236/236 231/231/231 230/230/230
f 236/236/236 230/230/230 229/229/229
f 236/236/236 229/229/229 238/238/238
f 236/236/236 238/238/238 239/239/239
f 236/236/236 239/239/239 240/240/240
f 236/236/236 240/240/240 241/241/241
f 236/236/236 241/241/241 237/237/237
f 242/242/242 238/238/238 229/229/229
f 242/242/242 229/229/229 235/235/235
f 242/242/242 235/235/235 234/234/234
f 242/242/242 234/234/234 243/243/243
f 242/242/242 243/243/243 244/244/244
f 242/242/242 244/244/244 245/245/245
f 242/242/242 245/245/245 239/239/239
f 242/242/242 239/239/239 238/238/238
f 246/246/246 247/247/247 241/241/241
f 246/246/246 241/241/241 240/240/240
f 246/246/246 240/240/240 239/239/239
f 246/246/246 239/239/239 248/248/248
f 246/246/246 248/248/248 130/130/130
f 246/246/246 130/130/130 129/129/129
f 246/246/246 129/129/129 128/128/128
f 246/246/246 128/128/128 247/247/247
f 249/249/249 248/248/248 239/239/239
f 249/249/249 239/239/239 245/245/245
f 249/249/249 245/245/245 244/244/244
f 249/249/249 244/244/244 250/250/250
f 249/249/249 250/250/250 137/137/137
f 249/249/249 137/137/137 136/136/136
f 249/249/249 136/136/136 130/130/130
f 249/249/249 130/130/130 248/248/248
f 251/251/251 252/252/252 253/253/253
f 251/251/251 253/253/253 254/254/254
f 251/251/251 254/254/254 241/241/241
f 251/251/251 241/241/241 247/247/247
f 251/251/251 247/247/247 128/128/128
f 251/251/251 128/128/128 255/255/255
f 251/251/251 255/255/255 256/256/256
f 251/251/251 256/256/256 252/252/252
f 257/257/257 258/258/258 259/259/259
f 257/257/257 259/259/259 260/260/260
f 257/257/257 260/260/260 231/231/231
f 257/257/257 231/231/231 237/237/237
f 257/257/257 237/237/237 241/241/241
f 257/257/257 241/241/241 254/254/254
f 257/257/257 254/254/254 253/253/253
f 257/257/257 253/253/253 258/258/258
f 261/261/261 262/262/262 263/263/263
f 261/261/261 263/263/263 264/264/264
f 261/261/261 264/264/264 221/221/221
f 261/261/261 221/221/221 227/227/227
f 261/261/261 227/227/227 231/231/231
f 261/261/261 231/231/231 260/260/260
f 261/261/261 260/260/260 259/259/259
f 261/261/261 259/259/259 262/262/262
f 265/265/265 266/266/266 267/267/267
f 265/265/265 267/267/267 268/268/268
f 265/265/265 268/268/268 211/211/211
f 265/265/265 211/211/211 217/217/217
f 265/265/265 217/217/217 221/221/221
f 265/265/265 221/221/221 264/264/264
f 265/265/265 264/264/264 263/263/263
f 265/265/265 263/263/263 266/266/266
f 269/269/269 270/270/270 271/271/271
f 269/269/269 271/271/271 272/272/272
f 269/269/269 272/272/272 201/201/201
f 269/269/269 201/201/201 207/207/207
f 269/269/269 207/207/207 211/211/211
f 269/269/269 211/211/211 268/268/268
f 269/269/269 268/268/268 267/267/267
f 269/269/269 267/267/267 270/270/270
f 273/273/273 274/274/274 275/275/275
f 273/273/273 275/275/275 276/276/276
f 273/273/273 276/276/276 191/191/191
f 273/273/273 191/191/191 197/197/197
f 273/273/273 197/197/197 201/201/201
f 273/273/273 201/201/201 272/272/272
f 273/273/273 272/272/272 271/271/271
f 273/273/273 271/271/271 274/274/274
f 277/277/277 278/278/278 279/279/279
f 277/277/277 279/279/279 280/280/280
f 277/277/277 280/280/280 181/181/181
f 277/277/277 181/181/181 187/187/187
f 277/277/277 187/187/187 191/191/191
f 277/277/277 191/191/191 276/276/276
f 277/277/277 276/276/276 275/275/275
f 277/277/277 275/275/275 278/278/278
f 281/281/281 282/282/282 283/283/283
f 281/281/281 283/283/283 284/284/284
f 281/281/281 284/284/284 169/169/169
f 281/281/281 169/169/169 177/177/177
f 281/281/281 177/177/177 181/181/181
f 281/281/281 181/181/181 280/280/280
f 281/281/281 280/280/280 279/279/279
f 281/281/281 279/279/279 282/282/282
f 285/285/285 286/286/286 287/287/287
f 285/285/285 287/287/287 288/288/288
f 285/285/285 288/288/288 163/163/163
f 285/285/285 163/163/163 162/162/162
f 285/285/285 162/162/162 169/169/169
f 285/285/285 169/169/169 284/284/284
f 285/285/285 284/284/284 283/283/283
f 285/285/285 283/283/283 286/286/286
f 289/289/289 290/290/290 291/291/291
f 289/289/289 291/291/291 292/292/292
f 289/289/289 292/292/292 146/146/146
f 289/289/289 146/146/146 152/152/152
f 289/289/289 152/152/152 156/156/156
f 289/289/289 156/156/156 293/293/293
f 289/289/289 293/293/293 294/294/294
f 289/289/289 294/294/294 290/290/290
f 295/295/295 296/296/296 297/297/297
f 295/295/295 297/297/297 298/298/298
f 295/295/295 298/298/298 134/134/134
f 295/295/295 134/134/134 142/142/142
f 295/295/295 142/142/142 146/146/146
f 295/295/295 146/146/146 292/292/292
f 295/295/295 292/292/292 291/291/291
f 295/295/295 291/291/291 296/296/296
f 299/299/299 300/300/300 256/256/256
f 299/299/299 256/256/256 255/255/255
f 299/299/299 255/255/255 128/128/128
f 299/299/299 128/128/128 127/127/127
f 299/299/299 127/127/127 134/134/134
f 299/299/299 134/134/134 298/298/298
f 299/299/299 298/298/298 297/297/297
f 299/299/299 297/297/297 300/300/300
f 301/301/301 125/125/125 119/119/119
f 301/301/301 119/119/119 302/302/302
f 301/301/301 302/302/302 303/303/303
f 301/301/301 303/303/303 304/304/304
f 301/301/301 304/304/304 305/305/305
f 301/301/301 305/305/305 306/306/306
f 301/301/301 306/306/306 12/12/12
f 301/301/301 12/12/12 125/125/125
f 307/307/307 304/304/304 303/303/303
f 307/307/307 303/303/303 308/308/308
f 307/307/307 308/308/308 253/253/253
f 307/307/307 253/253/253 252/252/252
f 307/307/307 252/252/252 256/256/256
f 307/307/307 256/256/256 309/309/309
f 307/307/307 309/309/309 305/305/305
f 307/307/307 305/305/305 304/304/304
f 310/310/310 118/118/118 109/109/109
f 310/310/310 109/109/109 311/311/311
f 310/310/310 311/311/311 312/312/312
f 310/310/310 312/312/312 313/313/313
f 310/310/310 313/313/313 303/303/303
f 310/310/310 303/303/303 302/302/302
f 310/310/310 302/302/302 119/119/119
f 310/310/310 119/119/119 118/118/118
f 314/314/314 313/313/313 312/312/312
f 314/314/314 312/312/312 315/315/315
f 314/314/314 315/315/315 259/259/259
f 314/314/314 259/259/259 258/258/258
f 314/314/314 258/258/258 253/253/253
f 314/314/314 253/253/253 308/308/308
f 314/314/314 308/308/308 303/303/303
f 314/314/314 303/303/303 313/313/313
f 316/316/316 108/108/108 99/99/99
f 316/316/316 99/99/99 317/317/317
f 316/316/316 317/317/317 318/318/318
f 316/316/316 318/318/318 319/319/319
f 316/316/316 319/319/319 312/312/312
f 316/316/316 312/312/312 311/311/311
f 316/316/316 311/311/311 109/109/109
f 316/316/316 109/109/109 108/108/108
f 320/320/320 319/319/319 318/318/318
f 320/320/320 318/318/318 321/321/321
f 320/320/320 321/321/321 263/263/263
f 320/320/320 263/263/263 262/262/262
f 320/320/320 262/262/262 259/259/259
f 320/320/320 259/259/259 315/315/315
f 320/320/320 315/315/315 312/312/312
f 320/320/320 312/312/312 319/319/319
f 322/322/322 98/98/98 89/89/89
f 322/322/322 89/89/89 323/323/323
f 322/322/322 323/323/323 324/324/324
f 322/322/322 324/324/324 325/325/325
f 322/322/322 325/325/325 318/318/318
f 322/322/322 318/318/318 317/317/317
f 322/322/322 317/317/317 99/99/99
f 322/322/322 99/99/99 98/98/98
f 326/326/326 325/325/325 324/324/324
f 326/326/326 324/324/324 327/327/327
f 326/326/326 327/327/327 267/267/267
f 326/326/326 267/267/267 266/266/266
f 326/326/326 266/266/266 263/263/263
f 326/326/326 263/263/263 321/321/321
f 326/326/326 321/321/321 318/318/318
f 326/326/326 318/318/318 325/325/325
f 328/328/328 88/88/88 79/79/79
f 328/328/328 79/79/79 329/329/329
f 328/328/328 329/329/329 330/330/330
f 328/328/328 330/330/330 331/331/331
f 328/328/328 331/331/331 324/324/324
f 328/328/328 324/324/324 323/323/323
f 328/328/328 323/323/323 89/89/89
f 328/328/328 89/89/89 88/88/88
f 332/332/332 331/331/331 330/330/330
f 332/332/332 330/330/330 333/333/333
f 332/332/332 333/333/333 271/271/271
f 332/332/332 271/271/271 270/270/270
f 332/332/332 270/270/270 267/267/267
f 332/332/332 267/267/267 327/327/327
f 332/332/332 327/327/327 324/324/324
f 332/332/332 324/324/324 331/331/331
f 334/334/334 78/78/78 69/69/69
f 334/334/334 69/69/69 335/335/335
f 334/334/334 335/335/335 336/336/336
f 334/334/334 336/336/336 337/337/337
f 334/334/334 337/337/337 330/330/330
f 334/334/334 330/330/330 329/329/329
f 334/334/334 329/329/329 79/79/79
f 334/334/334 79/79/79 78/78/78
f 338/338/338 337/337/337 336/336/336
f 338/338/338 336/336/336 339/339/339
f 338/338/338 339/339/339 275/275/275
f 338/338/338 275/275/275 274/274/274
f 338/338/338 274/274/274 271/271/271
f 338/338/338 271/271/271 333/333/333
f 338/338/338 333/333/333 330/330/330
f 338/338/338 330/330/330 337/337/337
f 340/340/340 68/68/68 59/59/59
f 340/340/340 59/59/59 341/341/341
f 340/340/340 341/341/341 342/342/342
f 340/340/340 342/342/342 343/343/343
f 340/340/340 343/343/343 336/336/336
f 340/340/340 336/336/336 335/335/335
f 340/340/340 335/335/335 69/69/69
f 340/340/340 69/69/69 68/68/68
f 344/344/344 343/343/343 342/342/342
f 344/344/344 342/342/342 345/345/345
f 344/344/344 345/345/345 279/279/279
f 344/344/344 279/279/279 278/278/278
f 344/344/344 278/278/278 275/275/275
f 344/344/344 275/275/275 339/339/339
f 344/344/344 339/339/339 336/336/336
f 344/344/344 336/336/336 343/343/343
f 346/346/346 58/58/58 49/49/49
f 346/346/346 49/49/49 347/347/347
f 346/346/346 347/347/347 348/348/348
f 346/346/346 348/348/348 349/349/349
f 346/346/346 349/349/349 342/342/342
f 346/346/346 342/342/342 341/341/341
f 346/346/346 341/341/341 59/59/59
f 346/346/346 59/59/59 58/58/58
f 350/350/350 349/349/349 348/348/348
f 350/350/350 348/348/348 351/351/351
f 350/350/350 351/351/351 283/283/283
f 350/350/350 283/283/283 282/282/282
f 350/350/350 282/282/282 279/279/279
f 350/350/350 279/279/279 345/345/345
f 350/350/350 345/345/345 342/342/342
f 350/350/350 342/342/342 349/349/349
f 352/352/352 48/48/48 47/47/47
f 352/352/352 47/47/47 353/353/353
f 352/352/352 353/353/353 354/354/354
f 352/352/352 354/354/354 355/355/355
f 352/352/352 355/355/355 348/348/348
f 352/352/352 348/348/348 347/347/347
f 352/352/352 347/347/347 49/49/49
f 352/352/352 49/49/49 48/48/48
f 356/356/356 355/355/355 354/354/354
f 356/356/356 354/354/354 357/357/357
f 356/356/356 357/357/357 287/287/287
f 356/356/356 287/287/287 286/286/286
f 356/356/356 286/286/286 283/283/283
f 356/356/356 283/283/283 351/351/351
f 356/356/356 351/351/351 348/348/348
f 356/356/356 348/348/348 355/355/355
f 358/358/358 33/33/33 24/24/24
f 358/358/358 24/24/24 359/359/359
f 358/358/358 359/359/359 360/360/360
f 358/358/358 360/360/360 361/361/361
f 358/358/358 361/361/361 362/362/362
f 358/358/358 362/362/362 363/363/363
f 358/358/358 363/363/363 34/34/34
f 358/358/358 34/34/34 33/33/33
f 364/364/364 361/361/361 360/360/360
f 364/364/364 360/360/360 365/365/365
f 364/364/364 365/365/365 291/291/291
f 364/364/364 291/291/291 290/290/290
f 364/364/364 290/290/290 294/294/294
f 364/364/364 294/294/294 366/366/366
f 364/364/364 366/366/366 362/362/362
f 364/364/364 362/362/362 361/361/361
f 367/367/367 23/23/23 14/14/14
f 367/367/367 14/14/14 368/368/368
f 367/367/367 368/368/368 369/369/369
f 367/367/367 369/369/369 370/370/370
f 367/367/367 370/370/370 360/360/360
f 367/367/367 360/360/360 359/359/359
f 367/367/367 359/359/359 24/24/24
f 367/367/367 24/24/24 23/23/23
f 371/371/371 370/370/370 369/369/369
f 371/371/371 369/369/369 372/372/372
f 371/371/371 372/372/372 297/297/297
f 371/371/371 297/297/297 296/296/296
f 371/371/371 296/296/296 291/291/291
f 371/371/371 291/291/291 365/365/365
f 371/371/371 365/365/365 360/360/360
f 371/371/371 360/360/360 370/370/370
f 373/373/373 13/13/13 12/12/12
f 373/373/373 12/12/12 306/306/306
f 373/373/373 306/306/306 305/305/305
f 373/373/373 305/305/305 374/374/374
f 373/373/373 374/374/374 369/369/369
f 373/373/373 369/369/369 368/368/368
f 373/373/373 368/368/368 14/14/14
f 373/373/373 14/14/14 13/13/13
f 375/375/375 374/374/374 305/305/305
f 375/375/375 305/305/305 309/309/309
f 375/375/375 309/309/309 256/256/256
f 375/375/375 256/256/256 300/300/300
f 375/375/375 300/300/300 297/297/297
f 375/375/375 297/297/297 372/372/372
f 375/375/375 372/372/372 369/369/369
f 375/375/375 369/369/369 374/374/374
f 376/376/376 2/2/2 9/9/9
f 376/376/376 9/9/9 377/377/377
f 376/376/376 377/377/377 378/378/378
f 376/376/376 378/378/378 379/379/379
f 376/376/376 379/379/379 380/380/380
f 376/376/376 380/380/380 381/381/381
f 376/376/376 381/381/381 3/3/3
f 376/376/376 3/3/3 2/2/2
f 382/382/382 379/379/379 378/378/378
f 382/382/382 378/378/378 383/383/383
f 382/382/382 383/383/383 384/384/384
f 382/382/382 384/384/384 385/385/385
f 382/382/382 385/385/385 386/386/386
f 382/382/382 386/386/386 387/387/387
f 382/382/382 387/387/387 380/380/380
f 382/382/382 380/380/380 379/379/379
f 388/388/388 17/17/17 21/21/21
f 388/388/388 21/21/21 389/389/389
f 388/388/388 389/389/389 390/390/390
f 388/388/388 390/390/390 391/391/391
f 388/388/388 391/391/391 378/378/378
f 388/388/388 378/378/378 377/377/377
f 388/388/388 377/377/377 9/9/9
f 388/388/388 9/9/9 17/17/17
f 392/392/392 391/391/391 390/390/390
f 392/392/392 390/390/390 393/393/393
f 392/392/392 393/393/393 394/394/394
f 392/392/392 394/394/394 395/395/395
f 392/392/392 395/395/395 384/384/384
f 392/392/392 384/384/384 383/383/383
f 392/392/392 383/383/383 378/378/378
f 392/392/392 378/378/378 391/391/391
f 396/396/396 27/27/27 31/31/31
f 396/396/396 31/31/31 397/397/397
f 396/396/396 397/397/397 398/398/398
f 396/396/396 398/398/398 399/399/399
f 396/396/396 399/399/399 390/390/390
f 396/396/396 390/390/390 389/389/389
f 396/396/396 389/389/389 21/21/21
f 396/396/396 21/21/21 27/27/27
f 400/400/400 399/399/399 398/398/398
f 400/400/400 398/398/398 401/401/401
f 400/400/400 401/401/401 402/402/402
f 400/400/400 402/402/402 403/403/403
f 400/400/400 403/403/403 394/394/394
f 400/400/400 394/394/394 393/393/393
f 400/400/400 393/393/393 390/390/390
f 400/400/400 390/390/390 399/399/399
f 404/404/404 37/37/37 44/44/44
f 404/404/404 44/44/44 405/405/405
f 404/404/404 405/405/405 406/406/406
f 404/404/404 406/406/406 407/407/407
f 404/404/404 407/407/407 408/408/408
f 404/404/404 408/408/408 409/409/409
f 404/404/404 409/409/409 38/38/38
f 404/404/404 38/38/38 37/37/37
f 410/410/410 407/407/407 406/406/406
f 410/410/410 406/406/406 411/411/411
f 410/410/410 411/411/411 412/412/412
f 410/410/410 412/412/412 413/413/413
f 410/410/410 413/413/413 414/414/414
f 410/410/410 414/414/414 415/415/415
f 410/410/410 415/415/415 408/408/408
f 410/410/410 408/408/408 407/407/407
f 416/416/416 52/52/52 56/56/56
f 416/416/416 56/56/56 417/417/417
f 416/416/416 417/417/417 418/418/418
f 416/416/416 418/418/418 419/419/419
f 416/416/416 419/419/419 406/406/406
f 416/416/416 406/406/406 405/405/405
f 416/416/416 405/405/405 44/44/44
f 416/416/416 44/44/44 52/52/52
f 420/420/420 419/419/419 418/418/418
f 420/420/420 418/418/418 421/421/421
f 420/420/420 421/421/421 422/422/422
f 420/420/420 422/422/422 423/423/423
f 420/420/420 423/423/423 412/412/412
f 420/420/420 412/412/412 411/411/411
f 420/420/420 411/411/411 406/406/406
f 420/420/420 406/406/406 419/419/419
f 424/424/424 62/62/62 66/66/66
f 424/424/424 66/66/66 425/425/425
f 424/424/424 425/425/425 426/426/426
f 424/424/424 426/426/426 427/427/427
f 424/424/424 427/427/427 418/418/418
f 424/424/424 418/418/418 417/417/417
f 424/424/424 417/417/417 56/56/56
f 424/424/424 56/56/56 62/62/62
f 428/428/428 427/427/427 426/426/426
f 428/428/428 426/426/426 429/429/429
f 428/428/428 429/429/429 430/430/430
f 428/428/428 430/430/430 431/431/431
f 428/428/428 431/431/431 422/422/422
f 428/428/428 422/422/422 421/421/421
f 428/428/428 421/421/421 418/418/418
f 428/428/428 418/418/418 427/427/427
f 432/432/432 72/72/72 76/76/76
f 432/432/432 76/76/76 433/433/433
f 432/432/432 433/433/433 434/434/434
f 432/432/432 434/434/434 435/435/435
f 432/432/432 435/435/435 426/426/426
f 432/432/432 426/426/426 425/425/425
f 432/432/432 425/425/425 66/66/66
f 432/432/432 66/66/66 72/72/72
f 436/436/436 435/435/435 434/434/434
f 436/436/436 434/434/434 437/437/437
f 436/436/436 437/437/437 438/438/438
f 436/436/436 438/438/438 439/439/439
f 436/436/436 439/439/439 430/430/430
f 436/436/436 430/430/430 429/429/429
f 436/436/436 429/429/429 426/426/426
f 436/436/436 426/426/426 435/435/435
f 440/440/440 82/82/82 86/86/86
f 440/440/440 86/86/86 441/441/441
f 440/440/440 441/441/441 442/442/442
f 440/440/440 442/442/442 443/443/443
f 440/440/440 443/443/443 434/434/434
f 440/440/440 434/434/434 433/433/433
f 440/440/440 433/433/433 76/76/76
f 440/440/440 76/76/76 82/82/82
f 444/444/444 443/443/443 442/442/442
f 444/444/444 442/442/442 445/445/445
f 444/444/444 445/445/445 446/446/446
f 444/444/444 446/446/446 447/447/447
f 444/444/444 447/447/447 438/438/438
f 444/444/444 438/438/438 437/437/437
f 444/444/444 437/437/437 434/434/434
f 444/444/444 434/434/434 443/443/443
f 448/448/448 92/92/92 96/96/96
f 448/448/448 96/96/96 449/449/449
f 448/448/448 449/449/449 450/450/450
f 448/448/448 450/450/450 451/451/451
f 448/448/448 451/451/451 442/442/442
f 448/448/448 442/442/442 441/441/441
f 448/448/448 441/441/441 86/86/86
f 448/448/448 86/86/86 92/92/92
f 452/452/452 451/451/451 450/450/450
f 452/452/452 450/450/450 453/453/453
f 452/452/452 453/453/453 454/454/454
f 452/452/452 454/454/454 455/455/455
f 452/452/452 455/455/455 446/446/446
f 452/452/452 446/446/446 445/445/445
f 452/452/452 445/445/445 442/442/442
f 452/452/452 442/442/442 451/451/451
f 456/456/456 102/102/102 106/106/106
f 456/456/456 106/106/106 457/457/457
f 456/456/456 457/457/457 458/458/458
f 456/456/456 458/458/458 459/459/459
f 456/456/456 459/459/459 450/450/450
f 456/456/456 450/450/450 449/449/449
f 456/456/456 449/449/449 96/96/96
f 456/456/456 96/96/96 102/102/102
f 460/460/460 459/459/459 458/458/458
f 460/460/460 458/458/458 461/461/461
f 460/460/460 461/461/461 462/462/462
f 460/460/460 462/462/462 463/463/463
f 460/460/460 463/463/463 454/454/454
f 460/460/460 454/454/454 453/453/453
f 460/460/460 453/453/453 450/450/450
f 460/460/460 450/450/450 459/459/459
f 464/464/464 112/112/112 116/116/116
f 464/464/464 116/116/116 465/465/465
f 464/464/464 465/465/465 466/466/466
f 464/464/464 466/466/466 467/467/467
f 464/464/464 467/467/467 458/458/458
f 464/464/464 458/458/458 457/457/457
f 464/464/464 457/457/457 106/106/106
f 464/464/464 106/106/106 112/112/112
f 468/468/468 467/467/467 466/466/466
f 468/468/468 466/466/466 469/469/469
f 468/468/468 469/469/469 470/470/470
f 468/468/468 470/470/470 471/471/471
f 468/468/468 471/471/471 462/462/462
f 468/468/468 462/462/462 461/461/461
f 468/468/468 461/461/461 458/458/458
f 468/468/468 458/458/458 467/467/467
f 472/472/472 122/122/122 3/3/3
f 472/472/472 3/3/3 381/381/381
f 472/472/472 381/381/381 380/380/380
f 472/472/472 380/380/380 473/473/473
f 472/472/472 473/473/473 466/466/466
f 472/472/472 466/466/466 465/465/465
f 472/472/472 465/465/465 116/116/116
f 472/472/472 116/116/116 122/122/122
f 474/474/474 473/473/473 380/380/380
f 474/474/474 380/380/380 387/387/387
f 474/474/474 387/387/387 386/386/386
f 474/474/474 386/386/386 475/475/475
f 474/474/474 475/475/475 470/470/470
f 474/474/474 470/470/470 469/469/469
f 474/474/474 469/469/469 466/466/466
f 474/474/474 466/466/466 473/473/473
