v 1.556538 0.348277 -0.690462
v 1.559083 0.348277 -0.688916
v 1.559083 0.354110 -0.688916
v 1.556538 0.353446 -0.690462
v 1.559083 0.354453 -0.688916
v 1.556538 0.353750 -0.690462
v 1.555049 0.348277 -0.691366
v 1.554545 0.351050 -0.691672
v 1.554515 0.351213 -0.691690
v 1.638202 0.353750 -0.824919
v 1.640748 0.354453 -0.823373
v 1.640748 0.354110 -0.823373
v 1.638202 0.353446 -0.824919
v 1.640748 0.348277 -0.823373
v 1.638202 0.348277 -0.824919
v 1.636180 0.351213 -0.826147
v 1.636210 0.351050 -0.826129
v 1.636714 0.348277 -0.825823
v 1.663389 0.354453 -0.625564
v 1.663389 0.354110 -0.625564
v 1.663389 0.348277 -0.625564
v 1.663562 0.354453 -0.625459
v 1.663562 0.354110 -0.625459
v 1.663562 0.348277 -0.625459
v 1.745053 0.354453 -0.760022
v 1.745227 0.354453 -0.759917
v 1.745227 0.354110 -0.759917
v 1.745053 0.354110 -0.760022
v 1.745227 0.348277 -0.759917
v 1.745053 0.348277 -0.760022
v 1.556538 0.342804 -0.690462
v 1.559083 0.342101 -0.688916
v 1.559083 0.342255 -0.688916
v 1.556538 0.342941 -0.690462
v 1.554515 0.345341 -0.691690
v 1.554529 0.345414 -0.691682
v 1.640748 0.342255 -0.823373
v 1.638202 0.342941 -0.824919
v 1.640748 0.342101 -0.823373
v 1.638202 0.342804 -0.824919
v 1.636193 0.345414 -0.826139
v 1.636180 0.345341 -0.826147
v 1.663389 0.342255 -0.625564
v 1.663389 0.342101 -0.625564
v 1.663562 0.342255 -0.625459
v 1.663562 0.342101 -0.625459
v 1.745227 0.342255 -0.759917
v 1.745053 0.342255 -0.760022
v 1.745227 0.342101 -0.759917
v 1.745053 0.342101 -0.760022
v 1.553978 0.348114 -0.692017
v 1.553992 0.348187 -0.692008
v 1.553946 0.348277 -0.692036
v 1.553960 0.348350 -0.692027
v 1.635642 0.348114 -0.826474
v 1.635611 0.348277 -0.826493
v 1.635625 0.348350 -0.826485
v 1.635656 0.348187 -0.826465
v 1.556538 0.353750 -0.690462
v 1.559083 0.354453 -0.688916
v 1.559236 0.354453 -0.689167
v 1.556690 0.353750 -0.690713
v 1.554515 0.351213 -0.691690
v 1.554668 0.351213 -0.691942
v 1.556538 0.342804 -0.690462
v 1.554515 0.345341 -0.691690
v 1.554668 0.345341 -0.691942
v 1.556690 0.342804 -0.690713
v 1.559083 0.342101 -0.688916
v 1.559236 0.342101 -0.689167
v 1.663389 0.354453 -0.625564
v 1.663562 0.354453 -0.625459
v 1.663715 0.354453 -0.625711
v 1.663541 0.354453 -0.625816
v 1.663389 0.342101 -0.625564
v 1.663541 0.342101 -0.625816
v 1.663562 0.342101 -0.625459
v 1.663715 0.342101 -0.625711
v 1.663562 0.354110 -0.625459
v 1.663562 0.348277 -0.625459
v 1.663715 0.348277 -0.625711
v 1.663715 0.354110 -0.625711
v 1.663562 0.354453 -0.625459
v 1.663715 0.354453 -0.625711
v 1.553978 0.348114 -0.692017
v 1.553946 0.348277 -0.692036
v 1.554099 0.348277 -0.692287
v 1.554130 0.348114 -0.692268
v 1.663562 0.342255 -0.625459
v 1.663562 0.342101 -0.625459
v 1.663715 0.342101 -0.625711
v 1.663715 0.342255 -0.625711
v 1.553960 0.348350 -0.692027
v 1.554113 0.348350 -0.692279
v 1.640683 0.354453 -0.823266
v 1.638137 0.353750 -0.824812
v 1.640748 0.354453 -0.823373
v 1.638202 0.353750 -0.824919
v 1.636115 0.351213 -0.826041
v 1.636180 0.351213 -0.826147
v 1.636115 0.345341 -0.826041
v 1.638137 0.342804 -0.824812
v 1.636180 0.345341 -0.826147
v 1.638202 0.342804 -0.824919
v 1.640683 0.342101 -0.823266
v 1.640748 0.342101 -0.823373
v 1.745162 0.354453 -0.759810
v 1.744988 0.354453 -0.759915
v 1.745227 0.354453 -0.759917
v 1.745053 0.354453 -0.760022
v 1.744988 0.342101 -0.759915
v 1.745053 0.342101 -0.760022
v 1.745162 0.342101 -0.759810
v 1.745227 0.342101 -0.759917
v 1.745162 0.348277 -0.759810
v 1.745162 0.354110 -0.759810
v 1.745227 0.348277 -0.759917
v 1.745227 0.354110 -0.759917
v 1.745162 0.354453 -0.759810
v 1.745227 0.354453 -0.759917
v 1.635546 0.348277 -0.826387
v 1.635577 0.348114 -0.826367
v 1.635611 0.348277 -0.826493
v 1.635642 0.348114 -0.826474
v 1.745162 0.342101 -0.759810
v 1.745162 0.342255 -0.759810
v 1.745227 0.342101 -0.759917
v 1.745227 0.342255 -0.759917
v 1.635560 0.348350 -0.826378
v 1.635625 0.348350 -0.826485
vn -0.519100 0.000000 0.854700
vn -0.519100 0.000000 0.854700
vn -0.519100 0.000000 0.854700
vn -0.519100 0.000000 0.854700
vn -0.426300 0.726500 0.539000
vn -0.663100 0.659200 0.354500
vn -0.519100 0.000000 0.854700
vn -0.518900 0.000000 0.854800
vn -0.911100 0.354400 0.210600
vn 0.009000 0.659300 -0.751800
vn 0.281700 0.726400 -0.626800
vn 0.519100 0.000000 -0.854700
vn 0.519000 0.000100 -0.854700
vn 0.519100 0.000000 -0.854700
vn 0.519100 0.000000 -0.854700
vn -0.233300 0.354600 -0.905400
vn 0.518700 0.000200 -0.854900
vn 0.519100 0.000000 -0.854700
vn -0.367100 0.707100 0.604300
vn -0.519200 0.000000 0.854600
vn -0.519200 0.000000 0.854600
vn 0.193600 0.577300 0.793200
vn 0.237200 0.000000 0.971400
vn 0.237200 0.000000 0.971400
vn 0.367200 0.707100 -0.604300
vn 0.793200 0.577300 -0.193500
vn 0.971500 0.000000 -0.237100
vn 0.519200 0.000000 -0.854600
vn 0.971500 0.000000 -0.237100
vn 0.519200 0.000000 -0.854600
vn -0.663100 -0.659200 0.354500
vn -0.426300 -0.726400 0.539000
vn -0.519100 0.000000 0.854700
vn -0.519000 -0.000200 0.854800
vn -0.911000 -0.354500 0.210500
vn -0.519500 -0.000100 0.854400
vn 0.519100 0.000000 -0.854700
vn 0.519100 -0.000300 -0.854700
vn 0.281800 -0.726400 -0.626800
vn 0.008900 -0.659300 -0.751800
vn 0.517900 -0.000400 -0.855400
vn -0.233400 -0.354700 -0.905300
vn -0.519200 0.000000 0.854600
vn -0.367100 -0.707100 0.604300
vn 0.237200 0.000000 0.971500
vn 0.193600 -0.577300 0.793200
vn 0.971500 0.000000 -0.237100
vn 0.519200 0.000000 -0.854600
vn 0.793200 -0.577300 -0.193600
vn 0.367100 -0.707100 -0.604300
vn -0.956600 -0.156200 0.245900
vn -0.518800 -0.000100 0.854900
vn -0.984500 -0.000500 0.175100
vn -0.956400 0.156000 0.246700
vn -0.223500 -0.156500 -0.962000
vn -0.298200 0.000000 -0.954500
vn -0.222900 0.156200 -0.962200
vn 0.519500 0.000200 -0.854500
vn -0.663100 0.659200 0.354500
vn -0.426300 0.726500 0.539000
vn -0.098800 0.993300 -0.060000
vn -0.429100 0.864800 -0.260600
vn -0.911100 0.354400 0.210600
vn -0.755400 0.467800 -0.458800
vn -0.663100 -0.659200 0.354500
vn -0.911000 -0.354500 0.210500
vn -0.755400 -0.467800 -0.458800
vn -0.429100 -0.864800 -0.260600
vn -0.426300 -0.726400 0.539000
vn -0.098800 -0.993300 -0.060000
vn -0.367100 0.707100 0.604300
vn 0.193600 0.577300 0.793200
vn 0.604300 0.707100 0.367100
vn 0.000000 1.000000 0.000000
vn -0.367100 -0.707100 0.604300
vn 0.000000 -1.000000 0.000000
vn 0.193600 -0.577300 0.793200
vn 0.604400 -0.707100 0.367100
vn 0.237200 0.000000 0.971400
vn 0.237200 0.000000 0.971400
vn 0.854700 0.000000 0.519100
vn 0.854700 0.000000 0.519100
vn 0.193600 0.577300 0.793200
vn 0.604300 0.707100 0.367100
vn -0.956600 -0.156200 0.245900
vn -0.984500 -0.000500 0.175100
vn -0.854700 -0.000100 -0.519000
vn -0.833600 -0.220900 -0.506200
vn 0.237200 0.000000 0.971500
vn 0.193600 -0.577300 0.793200
vn 0.604400 -0.707100 0.367100
vn 0.854700 0.000000 0.519100
vn -0.956400 0.156000 0.246700
vn -0.833600 0.220800 -0.506200
vn -0.098800 0.993300 -0.060000
vn -0.429000 0.864900 -0.260600
vn 0.281700 0.726400 -0.626800
vn 0.009000 0.659300 -0.751800
vn -0.755400 0.467900 -0.458800
vn -0.233300 0.354600 -0.905400
vn -0.755400 -0.467800 -0.458800
vn -0.429100 -0.864800 -0.260600
vn -0.233400 -0.354700 -0.905300
vn 0.008900 -0.659300 -0.751800
vn -0.098800 -0.993300 -0.060000
vn 0.281800 -0.726400 -0.626800
vn 0.604300 0.707100 0.367100
vn 0.000000 1.000000 0.000000
vn 0.793200 0.577300 -0.193500
vn 0.367200 0.707100 -0.604300
vn 0.000000 -1.000000 0.000000
vn 0.367100 -0.707100 -0.604300
vn 0.604300 -0.707100 0.367100
vn 0.793200 -0.577300 -0.193600
vn 0.854600 0.000000 0.519200
vn 0.854600 0.000000 0.519200
vn 0.971500 0.000000 -0.237100
vn 0.971500 0.000000 -0.237100
vn 0.604300 0.707100 0.367100
vn 0.793200 0.577300 -0.193500
vn -0.854800 -0.000200 -0.519000
vn -0.833500 -0.221000 -0.506300
vn -0.298200 0.000000 -0.954500
vn -0.223500 -0.156500 -0.962000
vn 0.604300 -0.707100 0.367100
vn 0.854600 0.000000 0.519200
vn 0.793200 -0.577300 -0.193600
vn 0.971500 0.000000 -0.237100
vn -0.833700 0.220800 -0.506200
vn -0.222900 0.156200 -0.962200
vt 32.971600 -79.905502
vt 36.986301 -79.825897
vt 37.085201 -71.738899
vt 32.567101 -73.068802
vt 37.065498 -71.067497
vt 32.506901 -72.414803
vt 30.779301 -79.997498
vt 29.857599 -76.545799
vt 29.663099 -75.867203
vt 33.222099 -112.059196
vt 37.843201 -112.895103
vt 37.793098 -112.235497
vt 33.211899 -111.406998
vt 36.879299 -104.294701
vt 32.898899 -104.618202
vt 30.049900 -108.952797
vt 30.170401 -108.262604
vt 30.719900 -104.754501
vt 94.779503 -69.040604
vt 94.900299 -72.317802
vt 95.291801 -81.152298
vt 96.580704 -69.135498
vt 96.260300 -72.322899
vt 96.408096 -81.181198
vt 95.318199 -112.895103
vt 97.414597 -112.471298
vt 96.698303 -108.927597
vt 95.285103 -109.001404
vt 95.702103 -100.018799
vt 94.592796 -100.095001
vt 32.730900 -87.157204
vt 37.084000 -88.470596
vt 37.092602 -87.830704
vt 32.773102 -86.529404
vt 29.934000 -83.909302
vt 30.078199 -83.238701
vt 36.182800 -96.352898
vt 32.017200 -98.069099
vt 36.122700 -95.710899
vt 31.910999 -97.451897
vt 29.686701 -101.614502
vt 29.473499 -100.964302
vt 95.308502 -89.671204
vt 95.259804 -90.760696
vt 96.546799 -89.711800
vt 96.580704 -90.715897
vt 94.690300 -91.706802
vt 93.517899 -91.816803
vt 94.650299 -90.760696
vt 93.430298 -90.821297
vt 29.167200 -80.849098
vt 29.306900 -80.218697
vt 28.955099 -79.610199
vt 29.065500 -79.167999
vt 29.034300 -104.079697
vt 28.955099 -105.328499
vt 29.111000 -105.754204
vt 29.238899 -104.689400
vt -96.723000 -31.458401
vt -96.327904 -48.584499
vt -93.791397 -48.246201
vt -94.578300 -31.408701
vt -96.318100 -15.598100
vt -94.263397 -15.594600
vt -96.555901 34.009300
vt -96.723099 18.166300
vt -94.653900 18.195299
vt -94.429001 34.021000
vt -96.415901 51.069302
vt -93.864899 51.040001
vt -91.884499 -130.666199
vt -91.746696 -139.863998
vt -78.408798 -139.664200
vt -79.611900 -129.408401
vt -95.386101 131.838394
vt -83.619698 131.138397
vt -95.525101 140.863998
vt -82.838501 140.757797
vt 30.546400 -116.553101
vt 29.789600 -125.693901
vt 30.958200 -125.748703
vt 31.895100 -116.633797
vt 30.512300 -114.727303
vt 32.017700 -114.728500
vt -96.698502 2.112700
vt -96.687401 0.844200
vt -94.470901 0.832900
vt -94.500298 2.172100
vt 29.017200 -134.649796
vt 28.955099 -135.323105
vt 30.239901 -135.441605
vt 30.280800 -134.720398
vt -96.684402 0.276800
vt -94.475700 0.250300
vt 23.112801 -49.383801
vt 24.211500 -31.904200
vt 25.760500 -49.319599
vt 26.369699 -31.904600
vt 24.966700 -15.796900
vt 27.113001 -15.775300
vt 24.483900 22.811501
vt 24.635799 38.937901
vt 26.599701 22.854700
vt 26.803499 39.039902
vt 23.999300 56.200500
vt 26.633801 56.417900
vt 21.055599 -126.743896
vt 20.283199 -113.952301
vt 28.955099 -126.313904
vt 28.262600 -113.507797
vt 19.915199 126.320999
vt 28.777000 126.246498
vt 20.375900 140.252808
vt 28.936701 140.154602
vt 94.467300 -128.358002
vt 94.855499 -118.687798
vt 95.695702 -128.386398
vt 96.348999 -118.681801
vt 94.831100 -112.895103
vt 96.869301 -113.084503
vt 23.663401 2.445800
vt 23.709700 6.176000
vt 26.170200 2.450700
vt 26.101299 6.106800
vt 93.376099 -139.863998
vt 93.530197 -137.726807
vt 94.976196 -139.863998
vt 94.924103 -137.804092
vt 23.747801 0.854600
vt 26.141399 0.949800
f 1/1/1 2/2/2 3/3/3
f 1/1/1 3/3/3 4/4/4
f 4/4/4 3/3/3 5/5/5
f 4/4/4 5/5/5 6/6/6
f 7/7/7 1/1/1 4/4/4
f 7/7/7 4/4/4 8/8/8
f 8/8/8 4/4/4 6/6/6
f 8/8/8 6/6/6 9/9/9
f 10/10/10 11/11/11 12/12/12
f 10/10/10 12/12/12 13/13/13
f 13/13/13 12/12/12 14/14/14
f 13/13/13 14/14/14 15/15/15
f 16/16/16 10/10/10 13/13/13
f 16/16/16 13/13/13 17/17/17
f 17/17/17 13/13/13 15/15/15
f 17/17/17 15/15/15 18/18/18
f 19/19/19 5/5/5 3/3/3
f 19/19/19 3/3/3 20/20/20
f 20/20/20 3/3/3 2/2/2
f 20/20/20 2/2/2 21/21/21
f 22/22/22 19/19/19 20/20/20
f 22/22/22 20/20/20 23/23/23
f 23/23/23 20/20/20 21/21/21
f 23/23/23 21/21/21 24/24/24
f 25/25/25 26/26/26 27/27/27
f 25/25/25 27/27/27 28/28/28
f 28/28/28 27/27/27 29/29/29
f 28/28/28 29/29/29 30/30/30
f 11/11/11 25/25/25 28/28/28
f 11/11/11 28/28/28 12/12/12
f 12/12/12 28/28/28 30/30/30
f 12/12/12 30/30/30 14/14/14
f 31/31/31 32/32/32 33/33/33
f 31/31/31 33/33/33 34/34/34
f 34/34/34 33/33/33 2/2/2
f 34/34/34 2/2/2 1/1/1
f 35/35/35 31/31/31 34/34/34
f 35/35/35 34/34/34 36/36/36
f 36/36/36 34/34/34 1/1/1
f 36/36/36 1/1/1 7/7/7
f 15/15/15 14/14/14 37/37/37
f 15/15/15 37/37/37 38/38/38
f 38/38/38 37/37/37 39/39/39
f 38/38/38 39/39/39 40/40/40
f 18/18/18 15/15/15 38/38/38
f 18/18/18 38/38/38 41/41/41
f 41/41/41 38/38/38 40/40/40
f 41/41/41 40/40/40 42/42/42
f 21/21/21 2/2/2 33/33/33
f 21/21/21 33/33/33 43/43/43
f 43/43/43 33/33/33 32/32/32
f 43/43/43 32/32/32 44/44/44
f 24/24/24 21/21/21 43/43/43
f 24/24/24 43/43/43 45/45/45
f 45/45/45 43/43/43 44/44/44
f 45/45/45 44/44/44 46/46/46
f 30/30/30 29/29/29 47/47/47
f 30/30/30 47/47/47 48/48/48
f 48/48/48 47/47/47 49/49/49
f 48/48/48 49/49/49 50/50/50
f 14/14/14 30/30/30 48/48/48
f 14/14/14 48/48/48 37/37/37
f 37/37/37 48/48/48 50/50/50
f 37/37/37 50/50/50 39/39/39
f 51/51/51 35/35/35 36/36/36
f 51/51/51 36/36/36 52/52/52
f 52/52/52 36/36/36 7/7/7
f 52/52/52 7/7/7 8/8/8
f 53/53/53 51/51/51 52/52/52
f 53/53/53 52/52/52 54/54/54
f 54/54/54 52/52/52 8/8/8
f 54/54/54 8/8/8 9/9/9
f 55/55/55 56/56/56 57/57/57
f 55/55/55 57/57/57 58/58/58
f 58/58/58 57/57/57 16/16/16
f 58/58/58 16/16/16 17/17/17
f 42/42/42 55/55/55 58/58/58
f 42/42/42 58/58/58 41/41/41
f 41/41/41 58/58/58 17/17/17
f 41/41/41 17/17/17 18/18/18
f 59/59/59 60/60/60 61/61/61
f 59/59/59 61/61/61 62/62/62
f 63/63/63 59/59/59 62/62/62
f 63/63/63 62/62/62 64/64/64
f 65/65/65 66/66/66 67/67/67
f 65/65/65 67/67/67 68/68/68
f 69/69/69 65/65/65 68/68/68
f 69/69/69 68/68/68 70/70/70
f 71/71/71 72/72/72 73/73/73
f 71/71/71 73/73/73 74/74/74
f 60/60/60 71/71/71 74/74/74
f 60/60/60 74/74/74 61/61/61
f 75/75/75 69/69/69 70/70/70
f 75/75/75 70/70/70 76/76/76
f 77/77/77 75/75/75 76/76/76
f 77/77/77 76/76/76 78/78/78
f 79/79/79 80/80/80 81/81/81
f 79/79/79 81/81/81 82/82/82
f 83/83/83 79/79/79 82/82/82
f 83/83/83 82/82/82 84/84/84
f 85/85/85 86/86/86 87/87/87
f 85/85/85 87/87/87 88/88/88
f 66/66/66 85/85/85 88/88/88
f 66/66/66 88/88/88 67/67/67
f 89/89/89 90/90/90 91/91/91
f 89/89/89 91/91/91 92/92/92
f 80/80/80 89/89/89 92/92/92
f 80/80/80 92/92/92 81/81/81
f 93/93/93 63/63/63 64/64/64
f 93/93/93 64/64/64 94/94/94
f 86/86/86 93/93/93 94/94/94
f 86/86/86 94/94/94 87/87/87
f 62/62/62 61/61/61 95/95/95
f 62/62/62 95/95/95 96/96/96
f 96/96/96 95/95/95 97/97/97
f 96/96/96 97/97/97 98/98/98
f 64/64/64 62/62/62 96/96/96
f 64/64/64 96/96/96 99/99/99
f 99/99/99 96/96/96 98/98/98
f 99/99/99 98/98/98 100/100/100
f 68/68/68 67/67/67 101/101/101
f 68/68/68 101/101/101 102/102/102
f 102/102/102 101/101/101 103/103/103
f 102/102/102 103/103/103 104/104/104
f 70/70/70 68/68/68 102/102/102
f 70/70/70 102/102/102 105/105/105
f 105/105/105 102/102/102 104/104/104
f 105/105/105 104/104/104 106/106/106
f 74/74/74 73/73/73 107/107/107
f 74/74/74 107/107/107 108/108/108
f 108/108/108 107/107/107 109/109/109
f 108/108/108 109/109/109 110/110/110
f 61/61/61 74/74/74 108/108/108
f 61/61/61 108/108/108 95/95/95
f 95/95/95 108/108/108 110/110/110
f 95/95/95 110/110/110 97/97/97
f 76/76/76 70/70/70 105/105/105
f 76/76/76 105/105/105 111/111/111
f 111/111/111 105/105/105 106/106/106
f 111/111/111 106/106/106 112/112/112
f 78/78/78 76/76/76 111/111/111
f 78/78/78 111/111/111 113/113/113
f 113/113/113 111/111/111 112/112/112
f 113/113/113 112/112/112 114/114/114
f 82/82/82 81/81/81 115/115/115
f 82/82/82 115/115/115 116/116/116
f 116/116/116 115/115/115 117/117/117
f 116/116/116 117/117/117 118/118/118
f 84/84/84 82/82/82 116/116/116
f 84/84/84 116/116/116 119/119/119
f 119/119/119 116/116/116 118/118/118
f 119/119/119 118/118/118 120/120/120
f 88/88/88 87/87/87 121/121/121
f 88/88/88 121/121/121 122/122/122
f 122/122/122 121/121/121 123/123/123
f 122/122/122 123/123/123 124/124/124
f 67/67/67 88/88/88 122/122/122
f 67/67/67 122/122/122 101/101/101
f 101/101/101 122/122/122 124/124/124
f 101/101/101 124/124/124 103/103/103
f 92/92/92 91/91/91 125/125/125
f 92/92/92 125/125/125 126/126/126
f 126/126/126 125/125/125 127/127/127
f 126/126/126 127/127/127 128/128/128
f 81/81/81 92/92/92 126/126/126
f 81/81/81 126/126/126 115/115/115
f 115/115/115 126/126/126 128/128/128
f 115/115/115 128/128/128 117/117/117
f 94/94/94 64/64/64 99/99/99
f 94/94/94 99/99/99 129/129/129
f 129/129/129 99/99/99 100/100/100
f 129/129/129 100/100/100 130/130/130
f 87/87/87 94/94/94 129/129/129
f 87/87/87 129/129/129 121/121/121
f 121/121/121 129/129/129 130/130/130
f 121/121/121 130/130/130 123/123/123
