v -2.105836 0.882619 1.205999
v -2.109316 0.882619 1.205999
v -2.109316 1.436737 1.205999
v -2.105836 1.436737 1.205999
v -2.110316 0.882619 1.206999
v -2.110316 0.882619 1.977900
v -2.110316 1.436738 1.977900
v -2.110316 1.436737 1.206999
v -2.105836 1.436738 1.978899
v -2.109316 1.436738 1.978899
v -2.109316 0.882619 1.978899
v -2.105836 0.882619 1.978899
v -2.105836 0.881619 1.977900
v -2.109316 0.881619 1.977900
v -2.109316 0.881619 1.206999
v -2.105836 0.881619 1.206999
v -2.104836 1.436738 1.977900
v -2.104836 0.882619 1.977900
v -2.104836 0.882619 1.206999
v -2.104836 1.436737 1.206999
v -2.109316 1.437737 1.206999
v -2.109316 1.437737 1.977900
v -2.105836 1.437737 1.977900
v -2.105836 1.437737 1.206999
v -2.109316 1.437737 1.977900
v -2.110316 1.436738 1.977900
v -2.109316 1.436738 1.978899
v -2.109316 0.881619 1.977900
v -2.109316 0.882619 1.978899
v -2.110316 0.882619 1.977900
v -2.109316 1.437737 1.206999
v -2.109316 1.436737 1.205999
v -2.110316 1.436737 1.206999
v -2.109316 0.881619 1.206999
v -2.110316 0.882619 1.206999
v -2.109316 0.882619 1.205999
v -2.105836 0.881619 1.206999
v -2.105836 0.882619 1.205999
v -2.104836 0.882619 1.206999
v -2.105836 1.437737 1.206999
v -2.104836 1.436737 1.206999
v -2.105836 1.436737 1.205999
v -2.105836 0.881619 1.977900
v -2.104836 0.882619 1.977900
v -2.105836 0.882619 1.978899
v -2.105836 1.437737 1.977900
v -2.105836 1.436738 1.978899
v -2.104836 1.436738 1.977900
v -2.109316 1.437737 1.206999
v -2.105836 1.437737 1.206999
v -2.105836 1.436737 1.205999
v -2.109316 1.436737 1.205999
v -2.109316 0.882619 1.205999
v -2.105836 0.882619 1.205999
v -2.105836 0.881619 1.206999
v -2.109316 0.881619 1.206999
v -2.109316 1.436738 1.978899
v -2.105836 1.436738 1.978899
v -2.105836 1.437737 1.977900
v -2.109316 1.437737 1.977900
v -2.109316 0.881619 1.977900
v -2.105836 0.881619 1.977900
v -2.105836 0.882619 1.978899
v -2.109316 0.882619 1.978899
v -2.109316 0.882619 1.978899
v -2.109316 1.436738 1.978899
v -2.110316 1.436738 1.977900
v -2.110316 0.882619 1.977900
v -2.109316 1.436737 1.205999
v -2.109316 0.882619 1.205999
v -2.110316 0.882619 1.206999
v -2.110316 1.436737 1.206999
v -2.104836 1.436737 1.206999
v -2.104836 0.882619 1.206999
v -2.105836 0.882619 1.205999
v -2.105836 1.436737 1.205999
v -2.104836 0.882619 1.977900
v -2.104836 1.436738 1.977900
v -2.105836 1.436738 1.978899
v -2.105836 0.882619 1.978899
v -2.109316 0.881619 1.206999
v -2.109316 0.881619 1.977900
v -2.110316 0.882619 1.977900
v -2.110316 0.882619 1.206999
v -2.110316 1.436737 1.206999
v -2.110316 1.436738 1.977900
v -2.109316 1.437737 1.977900
v -2.109316 1.437737 1.206999
v -2.105836 1.437737 1.206999
v -2.105836 1.437737 1.977900
v -2.104836 1.436738 1.977900
v -2.104836 1.436737 1.206999
v -2.104836 0.882619 1.206999
v -2.104836 0.882619 1.977900
v -2.105836 0.881619 1.977900
v -2.105836 0.881619 1.206999
vn 0.000000 0.000000 -1.000000
vn 0.000000 0.000000 -1.000000
vn 0.000000 0.000000 -1.000000
vn 0.000000 0.000000 -1.000000
vn -1.000000 0.000000 0.000000
vn -1.000000 0.000000 0.000000
vn -1.000000 0.000000 0.000000
vn -1.000000 0.000000 0.000000
vn 0.000000 0.000000 1.000000
vn 0.000000 0.000000 1.000000
vn 0.000000 0.000000 1.000000
vn 0.000000 0.000000 1.000000
vn 0.000000 -1.000000 0.000000
vn 0.000000 -1.000000 0.000000
vn 0.000000 -1.000000 0.000000
vn 0.000000 -1.000000 0.000000
vn 1.000000 0.000000 0.000000
vn 1.000000 0.000000 0.000000
vn 1.000000 0.000000 0.000000
vn 1.000000 0.000000 0.000000
vn 0.000000 1.000000 0.000000
vn 0.000000 1.000000 0.000000
vn 0.000000 1.000000 0.000000
vn 0.000000 1.000000 0.000000
vn -0.577300 0.577300 0.577500
vn -0.577300 0.577300 0.577500
vn -0.577300 0.577300 0.577500
vn -0.577300 -0.577300 0.577500
vn -0.577300 -0.577300 0.577500
vn -0.577300 -0.577300 0.577500
vn -0.577300 0.577200 -0.577600
vn -0.577300 0.577200 -0.577600
vn -0.577300 0.577200 -0.577600
vn -0.577400 -0.577300 -0.577300
vn -0.577400 -0.577300 -0.577300
vn -0.577400 -0.577300 -0.577300
vn 0.577300 -0.577200 -0.577400
vn 0.577300 -0.577200 -0.577400
vn 0.577300 -0.577200 -0.577400
vn 0.577300 0.577200 -0.577600
vn 0.577300 0.577200 -0.577600
vn 0.577300 0.577200 -0.577600
vn 0.577300 -0.577300 0.577500
vn 0.577300 -0.577300 0.577500
vn 0.577300 -0.577300 0.577500
vn 0.577300 0.577300 0.577300
vn 0.577300 0.577300 0.577300
vn 0.577300 0.577300 0.577300
vn 0.000000 0.707100 -0.707100
vn 0.000000 0.707100 -0.707100
vn 0.000000 0.707100 -0.707100
vn 0.000000 0.707100 -0.707100
vn 0.000000 -0.707100 -0.707100
vn 0.000000 -0.707100 -0.707100
vn 0.000000 -0.707100 -0.707100
vn 0.000000 -0.707100 -0.707100
vn 0.000000 0.707100 0.707100
vn 0.000000 0.707100 0.707100
vn 0.000000 0.707100 0.707100
vn 0.000000 0.707100 0.707100
vn 0.000000 -0.707100 0.707100
vn 0.000000 -0.707100 0.707100
vn 0.000000 -0.707100 0.707100
vn 0.000000 -0.707100 0.707100
vn -0.707000 0.000000 0.707200
vn -0.707000 0.000000 0.707200
vn -0.707000 0.000000 0.707200
vn -0.707000 0.000000 0.707200
vn -0.707100 0.000000 -0.707100
vn -0.707100 0.000000 -0.707100
vn -0.707100 0.000000 -0.707100
vn -0.707100 0.000000 -0.707100
vn 0.707100 0.000000 -0.707100
vn 0.707100 0.000000 -0.707100
vn 0.707100 0.000000 -0.707100
vn 0.707100 0.000000 -0.707100
vn 0.707100 0.000000 0.707100
vn 0.707100 0.000000 0.707100
vn 0.707100 0.000000 0.707100
vn 0.707100 0.000000 0.707100
vn -0.707100 -0.707100 0.000000
vn -0.707100 -0.707100 0.000000
vn -0.707100 -0.707100 0.000000
vn -0.707100 -0.707100 0.000000
vn -0.707100 0.707100 0.000000
vn -0.707100 0.707100 0.000000
vn -0.707100 0.707100 0.000000
vn -0.707100 0.707100 0.000000
vn 0.707000 0.707200 0.000000
vn 0.707000 0.707200 0.000000
vn 0.707000 0.707200 0.000000
vn 0.707000 0.707200 0.000000
vn 0.707000 -0.707200 0.000000
vn 0.707000 -0.707200 0.000000
vn 0.707000 -0.707200 0.000000
vn 0.707000 -0.707200 0.000000
vt 1.688500 -0.702100
vt 1.685100 -0.702100
vt 1.685100 0.096200
vt 1.688500 0.096200
vt 1.527400 -0.702100
vt 0.793000 -0.702100
vt 0.793000 0.096200
vt 1.527400 0.096200
vt 1.693700 0.096200
vt 1.690400 0.096200
vt 1.690400 -0.702100
vt 1.693700 -0.702100
vt 1.774400 0.099100
vt 1.771100 0.099100
vt 1.771100 1.209700
vt 1.774400 1.209700
vt 0.793000 0.897400
vt 0.793000 0.099100
vt 1.527400 0.099100
vt 1.527400 0.897400
vt 1.765900 1.209700
vt 1.765900 0.099100
vt 1.769200 0.099100
vt 1.769200 1.209700
vt 1.765900 0.099100
vt 1.764900 0.099100
vt 1.765900 0.097700
vt 1.771100 0.099100
vt 1.771100 0.097700
vt 1.770100 0.099100
vt 1.765900 1.209700
vt 1.765900 1.211100
vt 1.764900 1.209700
vt 1.771100 1.209700
vt 1.770100 1.209700
vt 1.771100 1.211100
vt 1.774400 1.209700
vt 1.774400 1.211100
vt 1.775300 1.209700
vt 1.769200 1.209700
vt 1.770100 1.209700
vt 1.769200 1.211100
vt 1.774400 0.099100
vt 1.775300 0.099100
vt 1.774400 0.097700
vt 1.769200 0.099100
vt 1.769200 0.097700
vt 1.770100 0.099100
vt 1.765900 1.209700
vt 1.769200 1.209700
vt 1.769200 1.211100
vt 1.765900 1.211100
vt 1.685100 -0.702100
vt 1.688500 -0.702100
vt 1.688500 -0.703500
vt 1.685100 -0.703500
vt 1.690400 0.096200
vt 1.693700 0.096200
vt 1.693700 0.097700
vt 1.690400 0.097700
vt 1.771100 0.099100
vt 1.774400 0.099100
vt 1.774400 0.097700
vt 1.771100 0.097700
vt 1.690400 -0.702100
vt 1.690400 0.096200
vt 1.689400 0.096200
vt 1.689400 -0.702100
vt 1.685100 0.096200
vt 1.685100 -0.702100
vt 1.684200 -0.702100
vt 1.684200 0.096200
vt 1.527400 0.897400
vt 1.527400 0.099100
vt 1.528300 0.099100
vt 1.528300 0.897400
vt 0.793000 0.099100
vt 0.793000 0.897400
vt 0.792000 0.897400
vt 0.792000 0.099100
vt 1.771100 1.209700
vt 1.771100 0.099100
vt 1.770100 0.099100
vt 1.770100 1.209700
vt 1.527400 0.096200
vt 0.793000 0.096200
vt 0.793000 0.097700
vt 1.527400 0.097700
vt 1.769200 1.209700
vt 1.769200 0.099100
vt 1.770100 0.099100
vt 1.770100 1.209700
vt 1.527400 0.099100
vt 0.793000 0.099100
vt 0.793000 0.097700
vt 1.527400 0.097700
f 1/1/1 2/2/2 3/3/3
f 1/1/1 3/3/3 4/4/4
f 5/5/5 6/6/6 7/7/7
f 5/5/5 7/7/7 8/8/8
f 9/9/9 10/10/10 11/11/11
f 9/9/9 11/11/11 12/12/12
f 13/13/13 14/14/14 15/15/15
f 13/13/13 15/15/15 16/16/16
f 17/17/17 18/18/18 19/19/19
f 17/17/17 19/19/19 20/20/20
f 21/21/21 22/22/22 23/23/23
f 21/21/21 23/23/23 24/24/24
f 25/25/25 26/26/26 27/27/27
f 28/28/28 29/29/29 30/30/30
f 31/31/31 32/32/32 33/33/33
f 34/34/34 35/35/35 36/36/36
f 37/37/37 38/38/38 39/39/39
f 40/40/40 41/41/41 42/42/42
f 43/43/43 44/44/44 45/45/45
f 46/46/46 47/47/47 48/48/48
f 49/49/49 50/50/50 51/51/51
f 49/49/49 51/51/51 52/52/52
f 53/53/53 54/54/54 55/55/55
f 53/53/53 55/55/55 56/56/56
f 57/57/57 58/58/58 59/59/59
f 57/57/57 59/59/59 60/60/60
f 61/61/61 62/62/62 63/63/63
f 61/61/61 63/63/63 64/64/64
f 65/65/65 66/66/66 67/67/67
f 65/65/65 67/67/67 68/68/68
f 69/69/69 70/70/70 71/71/71
f 69/69/69 71/71/71 72/72/72
f 73/73/73 74/74/74 75/75/75
f 73/73/73 75/75/75 76/76/76
f 77/77/77 78/78/78 79/79/79
f 77/77/77 79/79/79 80/80/80
f 81/81/81 82/82/82 83/83/83
f 81/81/81 83/83/83 84/84/84
f 85/85/85 86/86/86 87/87/87
f 85/85/85 87/87/87 88/88/88
f 89/89/89 90/90/90 91/91/91
f 89/89/89 91/91/91 92/92/92
f 93/93/93 94/94/94 95/95/95
f 93/93/93 95/95/95 96/96/96
