v -2.127871 1.828795 0.817158
v -2.127871 1.828795 0.271169
v -2.129957 1.828795 0.271169
v -2.129957 1.828795 0.817158
v -2.126341 1.843049 0.853476
v -2.744441 1.843049 0.853476
v -2.744441 1.843049 -0.872559
v -2.126341 1.843049 -0.872559
v -2.744441 1.841066 -0.874455
v -2.126341 1.841066 -0.874455
v -2.126341 0.045578 -0.874455
v -2.744441 0.045578 -0.874455
v -2.125888 0.059832 -0.281001
v -2.125888 1.826813 -0.281001
v -2.125888 1.826813 0.262146
v -2.125888 0.059832 0.262146
v -2.125888 0.059832 0.817158
v -2.125888 0.059832 0.271169
v -2.125888 1.826813 0.271169
v -2.125888 1.826813 0.817158
v -2.129957 1.826813 0.819054
v -2.129957 0.059832 0.819054
v -2.127871 0.059832 0.819054
v -2.127871 1.826813 0.819054
v -2.746424 0.045578 0.853476
v -2.746424 1.841066 0.853476
v -2.746424 1.841066 0.835039
v -2.746424 0.045578 0.835039
v -2.744441 1.841066 0.855372
v -2.744441 0.045578 0.855372
v -2.126341 0.045578 0.855372
v -2.126341 1.841066 0.855372
v -2.131940 1.826813 -0.290478
v -2.131940 1.826813 -0.836241
v -2.131940 0.059832 -0.836241
v -2.131940 0.059832 -0.290478
v -2.744441 1.865550 -0.872559
v -2.744441 1.865550 0.853476
v -2.126341 1.865550 0.853476
v -2.126341 1.865550 -0.872559
v -2.746424 0.028021 0.853476
v -2.746424 0.041613 0.853476
v -2.746424 0.041613 -0.872559
v -2.746424 0.028021 -0.872559
v -2.127871 0.057849 0.262146
v -2.129957 0.057849 0.262146
v -2.129957 0.057849 -0.281001
v -2.127871 0.057849 -0.281001
v -2.744441 0.043596 0.853476
v -2.126341 0.043596 0.853476
v -2.126341 0.043596 -0.872559
v -2.744441 0.043596 -0.872559
v -2.727229 0.045578 0.833143
v -2.727229 1.841066 0.833143
v -2.744441 1.841066 0.833143
v -2.744441 0.045578 0.833143
v -2.126341 0.028021 -0.874455
v -2.744441 0.028021 -0.874455
v -2.744441 0.041613 -0.874455
v -2.126341 0.041613 -0.874455
v -2.127871 0.059832 0.264042
v -2.127871 1.826813 0.264042
v -2.129957 1.826813 0.264042
v -2.129957 0.059832 0.264042
v -2.125888 1.826813 -0.290478
v -2.125888 0.059832 -0.290478
v -2.125888 0.059832 -0.836241
v -2.125888 1.826813 -0.836241
v -2.129957 1.826813 -0.288582
v -2.129957 0.059832 -0.288582
v -2.127871 0.059832 -0.288582
v -2.127871 1.826813 -0.288582
v -2.744441 0.043596 -0.850331
v -2.727229 0.043596 -0.850331
v -2.727229 0.043596 0.831247
v -2.744441 0.043596 0.831247
v -2.129957 0.059832 0.269273
v -2.129957 1.826813 0.269273
v -2.127871 1.826813 0.269273
v -2.127871 0.059832 0.269273
v -2.131940 1.826813 0.817158
v -2.131940 1.826813 0.271169
v -2.131940 0.059832 0.271169
v -2.131940 0.059832 0.817158
v -2.126341 0.028021 0.855372
v -2.126341 0.041613 0.855372
v -2.744441 0.041613 0.855372
v -2.744441 0.028021 0.855372
v -2.746424 1.845032 -0.872559
v -2.746424 1.845032 0.853476
v -2.746424 1.863568 0.853476
v -2.746424 1.863568 -0.872559
v -2.744441 1.841066 -0.852227
v -2.727229 1.841066 -0.852227
v -2.727229 0.045578 -0.852227
v -2.744441 0.045578 -0.852227
v -2.124358 0.028021 0.853476
v -2.124358 0.028021 -0.872559
v -2.124358 0.041613 -0.872559
v -2.124358 0.041613 0.853476
v -2.126341 1.845032 0.855372
v -2.126341 1.863568 0.855372
v -2.744441 1.863568 0.855372
v -2.744441 1.845032 0.855372
v -2.746424 0.045578 -0.850331
v -2.746424 0.045578 0.831247
v -2.746424 1.841066 0.831247
v -2.746424 1.841066 -0.850331
v -2.744441 0.045578 0.833143
v -2.744441 1.841066 0.833143
v -2.126341 1.841066 0.833144
v -2.126341 0.045578 0.833144
v -2.744441 1.843049 0.853476
v -2.126341 1.843049 0.853476
v -2.126341 1.843049 0.835040
v -2.744441 1.843049 0.835039
v -2.124358 0.045578 -0.854122
v -2.124358 0.045578 -0.872559
v -2.124358 1.841066 -0.872559
v -2.124358 1.841066 -0.854122
v -2.744441 0.043596 0.853476
v -2.744441 0.043596 0.835039
v -2.126341 0.043596 0.835040
v -2.126341 0.043596 0.853476
v -2.129957 0.057849 -0.290478
v -2.129957 0.057849 -0.836241
v -2.127871 0.057849 -0.836241
v -2.127871 0.057849 -0.290478
v -2.744441 1.843049 -0.854123
v -2.126341 1.843049 -0.854122
v -2.126341 1.843049 -0.872559
v -2.744441 1.843049 -0.872559
v -2.744441 1.843049 -0.850331
v -2.744441 1.843049 0.831247
v -2.727229 1.843049 0.831247
v -2.727229 1.843049 -0.850331
v -2.725246 0.045578 0.831247
v -2.725246 0.045578 -0.850331
v -2.725246 1.841066 -0.850331
v -2.725246 1.841066 0.831247
v -2.744441 1.841066 -0.852227
v -2.744441 0.045578 -0.852227
v -2.126341 0.045578 -0.852226
v -2.126341 1.841066 -0.852226
v -2.129957 0.059832 -0.838137
v -2.129957 1.826813 -0.838137
v -2.127871 1.826813 -0.838137
v -2.127871 0.059832 -0.838137
v -2.124358 1.845032 -0.872559
v -2.124358 1.863568 -0.872559
v -2.124358 1.863568 0.853476
v -2.124358 1.845032 0.853476
v -2.126341 0.043596 -0.854122
v -2.744441 0.043596 -0.854123
v -2.744441 0.043596 -0.872559
v -2.126341 0.043596 -0.872559
v -2.129957 1.828795 -0.836241
v -2.129957 1.828795 -0.290478
v -2.127871 1.828795 -0.290478
v -2.127871 1.828795 -0.836241
v -2.131940 0.059832 -0.281001
v -2.131940 0.059832 0.262146
v -2.131940 1.826813 0.262146
v -2.131940 1.826813 -0.281001
v -2.129957 1.826813 -0.282897
v -2.127871 1.826813 -0.282897
v -2.127871 0.059832 -0.282897
v -2.129957 0.059832 -0.282897
v -2.126341 0.026038 0.853476
v -2.744441 0.026038 0.853476
v -2.744441 0.026038 -0.872559
v -2.126341 0.026038 -0.872559
v -2.124358 0.045578 0.853476
v -2.124358 0.045578 0.835040
v -2.124358 1.841066 0.835040
v -2.124358 1.841066 0.853476
v -2.129957 0.057849 0.817158
v -2.129957 0.057849 0.271169
v -2.127871 0.057849 0.271169
v -2.127871 0.057849 0.817158
v -2.126341 1.845032 -0.874455
v -2.744441 1.845032 -0.874455
v -2.744441 1.863568 -0.874455
v -2.126341 1.863568 -0.874455
v -2.129957 1.828795 -0.281001
v -2.129957 1.828795 0.262146
v -2.127871 1.828795 0.262146
v -2.127871 1.828795 -0.281001
v -2.746424 1.841066 -0.854123
v -2.746424 1.841066 -0.872559
v -2.746424 0.045578 -0.872559
v -2.746424 0.045578 -0.854123
v -2.746424 1.845032 0.853476
v -2.744441 1.843049 0.853476
v -2.744441 1.845032 0.855372
v -2.124358 1.845032 0.853476
v -2.126341 1.845032 0.855372
v -2.126341 1.843049 0.853476
v -2.124358 1.845032 -0.872559
v -2.126341 1.843049 -0.872559
v -2.126341 1.845032 -0.874455
v -2.746424 1.845032 -0.872559
v -2.744441 1.845032 -0.874455
v -2.744441 1.843049 -0.872559
v -2.746424 1.863568 -0.872559
v -2.744441 1.865550 -0.872559
v -2.744441 1.863568 -0.874455
v -2.124358 1.863568 -0.872559
v -2.126341 1.863568 -0.874455
v -2.126341 1.865550 -0.872559
v -2.124358 1.863568 0.853476
v -2.126341 1.865550 0.853476
v -2.126341 1.863568 0.855372
v -2.746424 1.863568 0.853476
v -2.744441 1.863568 0.855372
v -2.744441 1.865550 0.853476
v -2.746424 0.041613 0.853476
v -2.744441 0.041613 0.855372
v -2.744441 0.043596 0.853476
v -2.124358 0.041613 0.853476
v -2.126341 0.043596 0.853476
v -2.126341 0.041613 0.855372
v -2.124358 0.041613 -0.872559
v -2.126341 0.041613 -0.874455
v -2.126341 0.043596 -0.872559
v -2.746424 0.041613 -0.872559
v -2.744441 0.043596 -0.872559
v -2.744441 0.041613 -0.874455
v -2.746424 0.028021 -0.872559
v -2.744441 0.028021 -0.874455
v -2.744441 0.026038 -0.872559
v -2.124358 0.028021 -0.872559
v -2.126341 0.026038 -0.872559
v -2.126341 0.028021 -0.874455
v -2.124358 0.028021 0.853476
v -2.126341 0.028021 0.855372
v -2.126341 0.026038 0.853476
v -2.746424 0.028021 0.853476
v -2.744441 0.026038 0.853476
v -2.744441 0.028021 0.855372
v -2.744441 0.043596 -0.854123
v -2.744441 0.045578 -0.852227
v -2.746424 0.045578 -0.854123
v -2.126341 0.043596 -0.854122
v -2.124358 0.045578 -0.854122
v -2.126341 0.045578 -0.852226
v -2.744441 1.843049 -0.854123
v -2.746424 1.841066 -0.854123
v -2.744441 1.841066 -0.852227
v -2.126341 1.843049 -0.854122
v -2.126341 1.841066 -0.852226
v -2.124358 1.841066 -0.854122
v -2.126341 1.843049 -0.872559
v -2.124358 1.841066 -0.872559
v -2.126341 1.841066 -0.874455
v -2.744441 1.843049 -0.872559
v -2.744441 1.841066 -0.874455
v -2.746424 1.841066 -0.872559
v -2.126341 0.043596 -0.872559
v -2.126341 0.045578 -0.874455
v -2.124358 0.045578 -0.872559
v -2.744441 0.043596 -0.872559
v -2.746424 0.045578 -0.872559
v -2.744441 0.045578 -0.874455
v -2.744441 0.043596 0.835039
v -2.746424 0.045578 0.835039
v -2.744441 0.045578 0.833143
v -2.126341 0.043596 0.835040
v -2.126341 0.045578 0.833144
v -2.124358 0.045578 0.835040
v -2.744441 1.843049 0.835039
v -2.744441 1.841066 0.833143
v -2.746424 1.841066 0.835039
v -2.126341 1.843049 0.835040
v -2.124358 1.841066 0.835040
v -2.126341 1.841066 0.833144
v -2.126341 1.843049 0.853476
v -2.126341 1.841066 0.855372
v -2.124358 1.841066 0.853476
v -2.744441 1.843049 0.853476
v -2.746424 1.841066 0.853476
v -2.744441 1.841066 0.855372
v -2.126341 0.043596 0.853476
v -2.124358 0.045578 0.853476
v -2.126341 0.045578 0.855372
v -2.744441 0.043596 0.853476
v -2.744441 0.045578 0.855372
v -2.746424 0.045578 0.853476
v -2.744441 1.843049 0.831247
v -2.746424 1.841066 0.831247
v -2.744441 1.841066 0.833143
v -2.744441 0.043596 0.831247
v -2.744441 0.045578 0.833143
v -2.746424 0.045578 0.831247
v -2.744441 1.843049 -0.850331
v -2.744441 1.841066 -0.852227
v -2.746424 1.841066 -0.850331
v -2.744441 0.043596 -0.850331
v -2.746424 0.045578 -0.850331
v -2.744441 0.045578 -0.852227
v -2.727229 0.043596 -0.850331
v -2.727229 0.045578 -0.852227
v -2.725246 0.045578 -0.850331
v -2.727229 1.843049 -0.850331
v -2.725246 1.841066 -0.850331
v -2.727229 1.841066 -0.852227
v -2.727229 0.043596 0.831247
v -2.725246 0.045578 0.831247
v -2.727229 0.045578 0.833143
v -2.727229 1.843049 0.831247
v -2.727229 1.841066 0.833143
v -2.725246 1.841066 0.831247
v -2.127871 1.828795 -0.836241
v -2.125888 1.826813 -0.836241
v -2.127871 1.826813 -0.838137
v -2.127871 0.057849 -0.836241
v -2.127871 0.059832 -0.838137
v -2.125888 0.059832 -0.836241
v -2.127871 1.828795 0.817158
v -2.127871 1.826813 0.819054
v -2.125888 1.826813 0.817158
v -2.127871 0.057849 0.817158
v -2.125888 0.059832 0.817158
v -2.127871 0.059832 0.819054
v -2.127871 0.057849 -0.281001
v -2.127871 0.059832 -0.282897
v -2.125888 0.059832 -0.281001
v -2.127871 0.057849 0.262146
v -2.125888 0.059832 0.262146
v -2.127871 0.059832 0.264042
v -2.127871 1.828795 -0.281001
v -2.125888 1.826813 -0.281001
v -2.127871 1.826813 -0.282897
v -2.127871 1.828795 0.262146
v -2.127871 1.826813 0.264042
v -2.125888 1.826813 0.262146
v -2.127871 0.057849 0.271169
v -2.127871 0.059832 0.269273
v -2.125888 0.059832 0.271169
v -2.127871 1.828795 0.271169
v -2.125888 1.826813 0.271169
v -2.127871 1.826813 0.269273
v -2.127871 0.057849 -0.290478
v -2.125888 0.059832 -0.290478
v -2.127871 0.059832 -0.288582
v -2.127871 1.828795 -0.290478
v -2.127871 1.826813 -0.288582
v -2.125888 1.826813 -0.290478
v -2.129957 1.828795 -0.290478
v -2.131940 1.826813 -0.290478
v -2.129957 1.826813 -0.288582
v -2.129957 0.057849 -0.290478
v -2.129957 0.059832 -0.288582
v -2.131940 0.059832 -0.290478
v -2.129957 1.828795 0.271169
v -2.129957 1.826813 0.269273
v -2.131940 1.826813 0.271169
v -2.129957 0.057849 0.271169
v -2.131940 0.059832 0.271169
v -2.129957 0.059832 0.269273
v -2.129957 1.828795 0.262146
v -2.131940 1.826813 0.262146
v -2.129957 1.826813 0.264042
v -2.129957 1.828795 -0.281001
v -2.129957 1.826813 -0.282897
v -2.131940 1.826813 -0.281001
v -2.129957 0.057849 0.262146
v -2.129957 0.059832 0.264042
v -2.131940 0.059832 0.262146
v -2.129957 0.057849 -0.281001
v -2.131940 0.059832 -0.281001
v -2.129957 0.059832 -0.282897
v -2.129957 0.057849 0.817158
v -2.129957 0.059832 0.819054
v -2.131940 0.059832 0.817158
v -2.129957 1.828795 0.817158
v -2.131940 1.826813 0.817158
v -2.129957 1.826813 0.819054
v -2.129957 0.057849 -0.836241
v -2.131940 0.059832 -0.836241
v -2.129957 0.059832 -0.838137
v -2.129957 1.828795 -0.836241
v -2.129957 1.826813 -0.838137
v -2.131940 1.826813 -0.836241
v -2.746424 0.041613 -0.872559
v -2.746424 0.041613 0.853476
v -2.744441 0.043596 0.853476
v -2.744441 0.043596 -0.872559
v -2.126341 0.043596 -0.872559
v -2.126341 0.043596 0.853476
v -2.124358 0.041613 0.853476
v -2.124358 0.041613 -0.872559
v -2.124358 0.028021 -0.872559
v -2.124358 0.028021 0.853476
v -2.126341 0.026038 0.853476
v -2.126341 0.026038 -0.872559
v -2.744441 0.026038 -0.872559
v -2.744441 0.026038 0.853476
v -2.746424 0.028021 0.853476
v -2.746424 0.028021 -0.872559
v -2.744441 0.041613 0.855372
v -2.126341 0.041613 0.855372
v -2.126341 0.043596 0.853476
v -2.744441 0.043596 0.853476
v -2.744441 0.043596 -0.872559
v -2.126341 0.043596 -0.872559
v -2.126341 0.041613 -0.874455
v -2.744441 0.041613 -0.874455
v -2.744441 0.028021 -0.874455
v -2.126341 0.028021 -0.874455
v -2.126341 0.026038 -0.872559
v -2.744441 0.026038 -0.872559
v -2.744441 0.026038 0.853476
v -2.126341 0.026038 0.853476
v -2.126341 0.028021 0.855372
v -2.744441 0.028021 0.855372
v -2.746424 0.041613 0.853476
v -2.746424 0.028021 0.853476
v -2.744441 0.028021 0.855372
v -2.744441 0.041613 0.855372
v -2.124358 0.028021 0.853476
v -2.124358 0.041613 0.853476
v -2.126341 0.041613 0.855372
v -2.126341 0.028021 0.855372
v -2.746424 0.028021 -0.872559
v -2.746424 0.041613 -0.872559
v -2.744441 0.041613 -0.874455
v -2.744441 0.028021 -0.874455
v -2.126341 0.028021 -0.874455
v -2.126341 0.041613 -0.874455
v -2.124358 0.041613 -0.872559
v -2.124358 0.028021 -0.872559
v -2.746424 1.845032 0.853476
v -2.746424 1.845032 -0.872559
v -2.744441 1.843049 -0.872559
v -2.744441 1.843049 0.853476
v -2.126341 1.843049 0.853476
v -2.126341 1.843049 -0.872559
v -2.124358 1.845032 -0.872559
v -2.124358 1.845032 0.853476
v -2.124358 1.863568 0.853476
v -2.124358 1.863568 -0.872559
v -2.126341 1.865550 -0.872559
v -2.126341 1.865550 0.853476
v -2.744441 1.865550 0.853476
v -2.744441 1.865550 -0.872559
v -2.746424 1.863568 -0.872559
v -2.746424 1.863568 0.853476
v -2.744441 1.843049 0.853476
v -2.126341 1.843049 0.853476
v -2.126341 1.845032 0.855372
v -2.744441 1.845032 0.855372
v -2.744441 1.845032 -0.874455
v -2.126341 1.845032 -0.874455
v -2.126341 1.843049 -0.872559
v -2.744441 1.843049 -0.872559
v -2.744441 1.865550 -0.872559
v -2.126341 1.865550 -0.872559
v -2.126341 1.863568 -0.874455
v -2.744441 1.863568 -0.874455
v -2.744441 1.863568 0.855372
v -2.126341 1.863568 0.855372
v -2.126341 1.865550 0.853476
v -2.744441 1.865550 0.853476
v -2.124358 1.863568 -0.872559
v -2.124358 1.845032 -0.872559
v -2.126341 1.845032 -0.874455
v -2.126341 1.863568 -0.874455
v -2.744441 1.863568 -0.874455
v -2.744441 1.845032 -0.874455
v -2.746424 1.845032 -0.872559
v -2.746424 1.863568 -0.872559
v -2.126341 1.863568 0.855372
v -2.126341 1.845032 0.855372
v -2.124358 1.845032 0.853476
v -2.124358 1.863568 0.853476
v -2.744441 1.845032 0.855372
v -2.744441 1.863568 0.855372
v -2.746424 1.863568 0.853476
v -2.746424 1.845032 0.853476
v -2.744441 1.843049 0.831247
v -2.744441 1.843049 -0.850331
v -2.746424 1.841066 -0.850331
v -2.746424 1.841066 0.831247
v -2.744441 0.043596 -0.850331
v -2.744441 0.043596 0.831247
v -2.746424 0.045578 0.831247
v -2.746424 0.045578 -0.850331
v -2.725246 0.045578 -0.850331
v -2.725246 0.045578 0.831247
v -2.727229 0.043596 0.831247
v -2.727229 0.043596 -0.850331
v -2.727229 1.843049 -0.850331
v -2.727229 1.843049 0.831247
v -2.725246 1.841066 0.831247
v -2.725246 1.841066 -0.850331
v -2.746424 1.841066 0.831247
v -2.746424 0.045578 0.831247
v -2.744441 0.045578 0.833143
v -2.744441 1.841066 0.833143
v -2.744441 1.841066 -0.852227
v -2.744441 0.045578 -0.852227
v -2.746424 0.045578 -0.850331
v -2.746424 1.841066 -0.850331
v -2.725246 1.841066 -0.850331
v -2.725246 0.045578 -0.850331
v -2.727229 0.045578 -0.852227
v -2.727229 1.841066 -0.852227
v -2.727229 1.841066 0.833143
v -2.727229 0.045578 0.833143
v -2.725246 0.045578 0.831247
v -2.725246 1.841066 0.831247
v -2.727229 0.043596 -0.850331
v -2.744441 0.043596 -0.850331
v -2.744441 0.045578 -0.852227
v -2.727229 0.045578 -0.852227
v -2.744441 0.043596 0.831247
v -2.727229 0.043596 0.831247
v -2.727229 0.045578 0.833143
v -2.744441 0.045578 0.833143
v -2.727229 1.843049 0.831247
v -2.744441 1.843049 0.831247
v -2.744441 1.841066 0.833143
v -2.727229 1.841066 0.833143
v -2.727229 1.841066 -0.852227
v -2.744441 1.841066 -0.852227
v -2.744441 1.843049 -0.850331
v -2.727229 1.843049 -0.850331
v -2.126341 0.043596 0.835040
v -2.744441 0.043596 0.835039
v -2.744441 0.045578 0.833143
v -2.126341 0.045578 0.833144
v -2.126341 1.841066 0.833144
v -2.744441 1.841066 0.833143
v -2.744441 1.843049 0.835039
v -2.126341 1.843049 0.835040
v -2.126341 1.843049 0.853476
v -2.744441 1.843049 0.853476
v -2.744441 1.841066 0.855372
v -2.126341 1.841066 0.855372
v -2.126341 0.045578 0.855372
v -2.744441 0.045578 0.855372
v -2.744441 0.043596 0.853476
v -2.126341 0.043596 0.853476
v -2.744441 1.841066 0.833143
v -2.744441 0.045578 0.833143
v -2.746424 0.045578 0.835039
v -2.746424 1.841066 0.835039
v -2.126341 0.045578 0.833144
v -2.126341 1.841066 0.833144
v -2.124358 1.841066 0.835040
v -2.124358 0.045578 0.835040
v -2.126341 1.841066 0.855372
v -2.126341 0.045578 0.855372
v -2.124358 0.045578 0.853476
v -2.124358 1.841066 0.853476
v -2.744441 0.045578 0.855372
v -2.744441 1.841066 0.855372
v -2.746424 1.841066 0.853476
v -2.746424 0.045578 0.853476
v -2.746424 1.841066 0.835039
v -2.746424 1.841066 0.853476
v -2.744441 1.843049 0.853476
v -2.744441 1.843049 0.835039
v -2.744441 0.043596 0.835039
v -2.744441 0.043596 0.853476
v -2.746424 0.045578 0.853476
v -2.746424 0.045578 0.835039
v -2.124358 0.045578 0.835040
v -2.124358 0.045578 0.853476
v -2.126341 0.043596 0.853476
v -2.126341 0.043596 0.835040
v -2.126341 1.843049 0.835040
v -2.126341 1.843049 0.853476
v -2.124358 1.841066 0.853476
v -2.124358 1.841066 0.835040
v -2.126341 0.045578 -0.852226
v -2.744441 0.045578 -0.852227
v -2.744441 0.043596 -0.854123
v -2.126341 0.043596 -0.854122
v -2.126341 1.843049 -0.854122
v -2.744441 1.843049 -0.854123
v -2.744441 1.841066 -0.852227
v -2.126341 1.841066 -0.852226
v -2.126341 1.841066 -0.874455
v -2.744441 1.841066 -0.874455
v -2.744441 1.843049 -0.872559
v -2.126341 1.843049 -0.872559
v -2.126341 0.043596 -0.872559
v -2.744441 0.043596 -0.872559
v -2.744441 0.045578 -0.874455
v -2.126341 0.045578 -0.874455
v -2.744441 0.045578 -0.852227
v -2.744441 1.841066 -0.852227
v -2.746424 1.841066 -0.854123
v -2.746424 0.045578 -0.854123
v -2.124358 0.045578 -0.854122
v -2.124358 1.841066 -0.854122
v -2.126341 1.841066 -0.852226
v -2.126341 0.045578 -0.852226
v -2.124358 1.841066 -0.872559
v -2.124358 0.045578 -0.872559
v -2.126341 0.045578 -0.874455
v -2.126341 1.841066 -0.874455
v -2.744441 1.841066 -0.874455
v -2.744441 0.045578 -0.874455
v -2.746424 0.045578 -0.872559
v -2.746424 1.841066 -0.872559
v -2.124358 1.841066 -0.854122
v -2.124358 1.841066 -0.872559
v -2.126341 1.843049 -0.872559
v -2.126341 1.843049 -0.854122
v -2.124358 0.045578 -0.872559
v -2.124358 0.045578 -0.854122
v -2.126341 0.043596 -0.854122
v -2.126341 0.043596 -0.872559
v -2.744441 0.043596 -0.872559
v -2.744441 0.043596 -0.854123
v -2.746424 0.045578 -0.854123
v -2.746424 0.045578 -0.872559
v -2.746424 1.841066 -0.872559
v -2.746424 1.841066 -0.854123
v -2.744441 1.843049 -0.854123
v -2.744441 1.843049 -0.872559
v -2.125888 0.059832 0.271169
v -2.125888 0.059832 0.817158
v -2.127871 0.057849 0.817158
v -2.127871 0.057849 0.271169
v -2.127871 1.828795 0.271169
v -2.127871 1.828795 0.817158
v -2.125888 1.826813 0.817158
v -2.125888 1.826813 0.271169
v -2.131940 1.826813 0.271169
v -2.131940 1.826813 0.817158
v -2.129957 1.828795 0.817158
v -2.129957 1.828795 0.271169
v -2.129957 0.057849 0.271169
v -2.129957 0.057849 0.817158
v -2.131940 0.059832 0.817158
v -2.131940 0.059832 0.271169
v -2.125888 0.059832 -0.281001
v -2.125888 0.059832 0.262146
v -2.127871 0.057849 0.262146
v -2.127871 0.057849 -0.281001
v -2.127871 1.828795 -0.281001
v -2.127871 1.828795 0.262146
v -2.125888 1.826813 0.262146
v -2.125888 1.826813 -0.281001
v -2.131940 1.826813 -0.281001
v -2.131940 1.826813 0.262146
v -2.129957 1.828795 0.262146
v -2.129957 1.828795 -0.281001
v -2.129957 0.057849 -0.281001
v -2.129957 0.057849 0.262146
v -2.131940 0.059832 0.262146
v -2.131940 0.059832 -0.281001
v -2.127871 1.828795 -0.836241
v -2.127871 1.828795 -0.290478
v -2.125888 1.826813 -0.290478
v -2.125888 1.826813 -0.836241
v -2.125888 0.059832 -0.836241
v -2.125888 0.059832 -0.290478
v -2.127871 0.057849 -0.290478
v -2.127871 0.057849 -0.836241
v -2.129957 0.057849 -0.836241
v -2.129957 0.057849 -0.290478
v -2.131940 0.059832 -0.290478
v -2.131940 0.059832 -0.836241
v -2.131940 1.826813 -0.836241
v -2.131940 1.826813 -0.290478
v -2.129957 1.828795 -0.290478
v -2.129957 1.828795 -0.836241
v -2.125888 0.059832 0.817158
v -2.125888 1.826813 0.817158
v -2.127871 1.826813 0.819054
v -2.127871 0.059832 0.819054
v -2.127871 0.059832 0.269273
v -2.127871 1.826813 0.269273
v -2.125888 1.826813 0.271169
v -2.125888 0.059832 0.271169
v -2.131940 0.059832 0.271169
v -2.131940 1.826813 0.271169
v -2.129957 1.826813 0.269273
v -2.129957 0.059832 0.269273
v -2.129957 0.059832 0.819054
v -2.129957 1.826813 0.819054
v -2.131940 1.826813 0.817158
v -2.131940 0.059832 0.817158
v -2.125888 1.826813 -0.281001
v -2.125888 0.059832 -0.281001
v -2.127871 0.059832 -0.282897
v -2.127871 1.826813 -0.282897
v -2.127871 1.826813 0.264042
v -2.127871 0.059832 0.264042
v -2.125888 0.059832 0.262146
v -2.125888 1.826813 0.262146
v -2.131940 1.826813 0.262146
v -2.131940 0.059832 0.262146
v -2.129957 0.059832 0.264042
v -2.129957 1.826813 0.264042
v -2.129957 1.826813 -0.282897
v -2.129957 0.059832 -0.282897
v -2.131940 0.059832 -0.281001
v -2.131940 1.826813 -0.281001
v -2.127871 0.059832 -0.838137
v -2.127871 1.826813 -0.838137
v -2.125888 1.826813 -0.836241
v -2.125888 0.059832 -0.836241
v -2.125888 0.059832 -0.290478
v -2.125888 1.826813 -0.290478
v -2.127871 1.826813 -0.288582
v -2.127871 0.059832 -0.288582
v -2.129957 0.059832 -0.288582
v -2.129957 1.826813 -0.288582
v -2.131940 1.826813 -0.290478
v -2.131940 0.059832 -0.290478
v -2.131940 0.059832 -0.836241
v -2.131940 1.826813 -0.836241
v -2.129957 1.826813 -0.838137
v -2.129957 0.059832 -0.838137
v -2.127871 1.826813 0.269273
v -2.129957 1.826813 0.269273
v -2.129957 1.828795 0.271169
v -2.127871 1.828795 0.271169
v -2.127871 0.057849 0.271169
v -2.129957 0.057849 0.271169
v -2.129957 0.059832 0.269273
v -2.127871 0.059832 0.269273
v -2.127871 1.828795 0.817158
v -2.129957 1.828795 0.817158
v -2.129957 1.826813 0.819054
v -2.127871 1.826813 0.819054
v -2.127871 0.059832 0.819054
v -2.129957 0.059832 0.819054
v -2.129957 0.057849 0.817158
v -2.127871 0.057849 0.817158
v -2.127871 0.059832 0.264042
v -2.129957 0.059832 0.264042
v -2.129957 0.057849 0.262146
v -2.127871 0.057849 0.262146
v -2.127871 1.828795 0.262146
v -2.129957 1.828795 0.262146
v -2.129957 1.826813 0.264042
v -2.127871 1.826813 0.264042
v -2.127871 1.826813 -0.282897
v -2.129957 1.826813 -0.282897
v -2.129957 1.828795 -0.281001
v -2.127871 1.828795 -0.281001
v -2.127871 0.057849 -0.281001
v -2.129957 0.057849 -0.281001
v -2.129957 0.059832 -0.282897
v -2.127871 0.059832 -0.282897
v -2.127871 0.057849 -0.836241
v -2.129957 0.057849 -0.836241
v -2.129957 0.059832 -0.838137
v -2.127871 0.059832 -0.838137
v -2.127871 0.059832 -0.288582
v -2.129957 0.059832 -0.288582
v -2.129957 0.057849 -0.290478
v -2.127871 0.057849 -0.290478
v -2.129957 1.826813 -0.288582
v -2.127871 1.826813 -0.288582
v -2.127871 1.828795 -0.290478
v -2.129957 1.828795 -0.290478
v -2.127871 1.826813 -0.838137
v -2.129957 1.826813 -0.838137
v -2.129957 1.828795 -0.836241
v -2.127871 1.828795 -0.836241
vn 0.000000 1.000000 0.000000
vn 0.000000 1.000000 0.000000
vn 0.000000 1.000000 0.000000
vn 0.000000 1.000000 0.000000
vn 0.000000 -1.000000 0.000000
vn 0.000000 -1.000000 0.000000
vn 0.000000 -1.000000 0.000000
vn 0.000000 -1.000000 0.000000
vn 0.000000 0.000000 -1.000000
vn 0.000000 0.000000 -1.000000
vn 0.000000 0.000000 -1.000000
vn 0.000000 0.000000 -1.000000
vn 1.000000 0.000000 0.000000
vn 1.000000 0.000000 0.000000
vn 1.000000 0.000000 0.000000
vn 1.000000 0.000000 0.000000
vn 1.000000 0.000000 0.000000
vn 1.000000 0.000000 0.000000
vn 1.000000 0.000000 0.000000
vn 1.000000 0.000000 0.000000
vn 0.000000 0.000000 1.000000
vn 0.000000 0.000000 1.000000
vn 0.000000 0.000000 1.000000
vn 0.000000 0.000000 1.000000
vn -1.000000 0.000000 0.000000
vn -1.000000 0.000000 0.000000
vn -1.000000 0.000000 0.000000
vn -1.000000 0.000000 0.000000
vn 0.000000 0.000000 1.000000
vn 0.000000 0.000000 1.000000
vn 0.000000 0.000000 1.000000
vn 0.000000 0.000000 1.000000
vn -1.000000 0.000000 0.000000
vn -1.000000 0.000000 0.000000
vn -1.000000 0.000000 0.000000
vn -1.000000 0.000000 0.000000
vn 0.000000 1.000000 0.000000
vn 0.000000 1.000000 0.000000
vn 0.000000 1.000000 0.000000
vn 0.000000 1.000000 0.000000
vn -1.000000 0.000000 0.000000
vn -1.000000 0.000000 0.000000
vn -1.000000 0.000000 0.000000
vn -1.000000 0.000000 0.000000
vn 0.000000 -1.000000 0.000000
vn 0.000000 -1.000000 0.000000
vn 0.000000 -1.000000 0.000000
vn 0.000000 -1.000000 0.000000
vn 0.000000 1.000000 0.000000
vn 0.000000 1.000000 0.000000
vn 0.000000 1.000000 0.000000
vn 0.000000 1.000000 0.000000
vn 0.000000 0.000000 1.000000
vn 0.000000 0.000000 1.000000
vn 0.000000 0.000000 1.000000
vn 0.000000 0.000000 1.000000
vn 0.000000 0.000000 -1.000000
vn 0.000000 0.000000 -1.000000
vn 0.000000 0.000000 -1.000000
vn 0.000000 0.000000 -1.000000
vn 0.000000 0.000000 1.000000
vn 0.000000 0.000000 1.000000
vn 0.000000 0.000000 1.000000
vn 0.000000 0.000000 1.000000
vn 1.000000 0.000000 0.000000
vn 1.000000 0.000000 0.000000
vn 1.000000 0.000000 0.000000
vn 1.000000 0.000000 0.000000
vn 0.000000 0.000000 1.000000
vn 0.000000 0.000000 1.000000
vn 0.000000 0.000000 1.000000
vn 0.000000 0.000000 1.000000
vn 0.000000 -1.000000 0.000000
vn 0.000000 -1.000000 0.000000
vn 0.000000 -1.000000 0.000000
vn 0.000000 -1.000000 0.000000
vn 0.000000 0.000000 -1.000000
vn 0.000000 0.000000 -1.000000
vn 0.000000 0.000000 -1.000000
vn 0.000000 0.000000 -1.000000
vn -1.000000 0.000000 0.000000
vn -1.000000 0.000000 0.000000
vn -1.000000 0.000000 0.000000
vn -1.000000 0.000000 0.000000
vn 0.000000 0.000000 1.000000
vn 0.000000 0.000000 1.000000
vn 0.000000 0.000000 1.000000
vn 0.000000 0.000000 1.000000
vn -1.000000 0.000000 0.000000
vn -1.000000 0.000000 0.000000
vn -1.000000 0.000000 0.000000
vn -1.000000 0.000000 0.000000
vn 0.000000 0.000000 -1.000000
vn 0.000000 0.000000 -1.000000
vn 0.000000 0.000000 -1.000000
vn 0.000000 0.000000 -1.000000
vn 1.000000 0.000000 0.000000
vn 1.000000 0.000000 0.000000
vn 1.000000 0.000000 0.000000
vn 1.000000 0.000000 0.000000
vn 0.000000 0.000000 1.000000
vn 0.000000 0.000000 1.000000
vn 0.000000 0.000000 1.000000
vn 0.000000 0.000000 1.000000
vn -1.000000 0.000000 0.000000
vn -1.000000 0.000000 0.000000
vn -1.000000 0.000000 0.000000
vn -1.000000 0.000000 0.000000
vn 0.000000 0.000000 -1.000000
vn 0.000000 0.000000 -1.000000
vn 0.000000 0.000000 -1.000000
vn 0.000000 0.000000 -1.000000
vn 0.000000 1.000000 0.000000
vn 0.000000 1.000000 0.000000
vn 0.000000 1.000000 0.000000
vn 0.000000 1.000000 0.000000
vn 1.000000 0.000000 0.000000
vn 1.000000 0.000000 0.000000
vn 1.000000 0.000000 0.000000
vn 1.000000 0.000000 0.000000
vn 0.000000 -1.000000 0.000000
vn 0.000000 -1.000000 0.000000
vn 0.000000 -1.000000 0.000000
vn 0.000000 -1.000000 0.000000
vn 0.000000 -1.000000 0.000000
vn 0.000000 -1.000000 0.000000
vn 0.000000 -1.000000 0.000000
vn 0.000000 -1.000000 0.000000
vn 0.000000 1.000000 0.000000
vn 0.000000 1.000000 0.000000
vn 0.000000 1.000000 0.000000
vn 0.000000 1.000000 0.000000
vn 0.000000 1.000000 0.000000
vn 0.000000 1.000000 0.000000
vn 0.000000 1.000000 0.000000
vn 0.000000 1.000000 0.000000
vn 1.000000 0.000000 0.000000
vn 1.000000 0.000000 0.000000
vn 1.000000 0.000000 0.000000
vn 1.000000 0.000000 0.000000
vn 0.000000 0.000000 1.000000
vn 0.000000 0.000000 1.000000
vn 0.000000 0.000000 1.000000
vn 0.000000 0.000000 1.000000
vn 0.000000 0.000000 -1.000000
vn 0.000000 0.000000 -1.000000
vn 0.000000 0.000000 -1.000000
vn 0.000000 0.000000 -1.000000
vn 1.000000 0.000000 0.000000
vn 1.000000 0.000000 0.000000
vn 1.000000 0.000000 0.000000
vn 1.000000 0.000000 0.000000
vn 0.000000 -1.000000 0.000000
vn 0.000000 -1.000000 0.000000
vn 0.000000 -1.000000 0.000000
vn 0.000000 -1.000000 0.000000
vn 0.000000 1.000000 0.000000
vn 0.000000 1.000000 0.000000
vn 0.000000 1.000000 0.000000
vn 0.000000 1.000000 0.000000
vn -1.000000 0.000000 0.000000
vn -1.000000 0.000000 0.000000
vn -1.000000 0.000000 0.000000
vn -1.000000 0.000000 0.000000
vn 0.000000 0.000000 -1.000000
vn 0.000000 0.000000 -1.000000
vn 0.000000 0.000000 -1.000000
vn 0.000000 0.000000 -1.000000
vn 0.000000 -1.000000 0.000000
vn 0.000000 -1.000000 0.000000
vn 0.000000 -1.000000 0.000000
vn 0.000000 -1.000000 0.000000
vn 1.000000 0.000000 0.000000
vn 1.000000 0.000000 0.000000
vn 1.000000 0.000000 0.000000
vn 1.000000 0.000000 0.000000
vn 0.000000 -1.000000 0.000000
vn 0.000000 -1.000000 0.000000
vn 0.000000 -1.000000 0.000000
vn 0.000000 -1.000000 0.000000
vn 0.000000 0.000000 -1.000000
vn 0.000000 0.000000 -1.000000
vn 0.000000 0.000000 -1.000000
vn 0.000000 0.000000 -1.000000
vn 0.000000 1.000000 0.000000
vn 0.000000 1.000000 0.000000
vn 0.000000 1.000000 0.000000
vn 0.000000 1.000000 0.000000
vn -1.000000 0.000000 0.000000
vn -1.000000 0.000000 0.000000
vn -1.000000 0.000000 0.000000
vn -1.000000 0.000000 0.000000
vn -0.568400 -0.568500 0.594700
vn -0.568400 -0.568500 0.594700
vn -0.568400 -0.568500 0.594700
vn 0.568400 -0.568600 0.594600
vn 0.568400 -0.568600 0.594600
vn 0.568400 -0.568600 0.594600
vn 0.568400 -0.568700 -0.594600
vn 0.568400 -0.568700 -0.594600
vn 0.568400 -0.568700 -0.594600
vn -0.568300 -0.568700 -0.594600
vn -0.568300 -0.568700 -0.594600
vn -0.568300 -0.568700 -0.594600
vn -0.568300 0.568700 -0.594600
vn -0.568300 0.568700 -0.594600
vn -0.568300 0.568700 -0.594600
vn 0.568400 0.568700 -0.594600
vn 0.568400 0.568700 -0.594600
vn 0.568400 0.568700 -0.594600
vn 0.568400 0.568600 0.594600
vn 0.568400 0.568600 0.594600
vn 0.568400 0.568600 0.594600
vn -0.568400 0.568500 0.594700
vn -0.568400 0.568500 0.594700
vn -0.568400 0.568500 0.594700
vn -0.568500 0.568500 0.594600
vn -0.568500 0.568500 0.594600
vn -0.568500 0.568500 0.594600
vn 0.568400 0.568600 0.594600
vn 0.568400 0.568600 0.594600
vn 0.568400 0.568600 0.594600
vn 0.568400 0.568700 -0.594600
vn 0.568400 0.568700 -0.594600
vn 0.568400 0.568700 -0.594600
vn -0.568300 0.568700 -0.594600
vn -0.568300 0.568700 -0.594600
vn -0.568300 0.568700 -0.594600
vn -0.568300 -0.568700 -0.594600
vn -0.568300 -0.568700 -0.594600
vn -0.568300 -0.568700 -0.594600
vn 0.568400 -0.568700 -0.594600
vn 0.568400 -0.568700 -0.594600
vn 0.568400 -0.568700 -0.594600
vn 0.568400 -0.568600 0.594600
vn 0.568400 -0.568600 0.594600
vn 0.568400 -0.568600 0.594600
vn -0.568500 -0.568500 0.594600
vn -0.568500 -0.568500 0.594600
vn -0.568500 -0.568500 0.594600
vn -0.568400 -0.568700 0.594500
vn -0.568400 -0.568700 0.594500
vn -0.568400 -0.568700 0.594500
vn 0.568500 -0.568600 0.594600
vn 0.568500 -0.568600 0.594600
vn 0.568500 -0.568600 0.594600
vn -0.568300 0.568700 0.594500
vn -0.568300 0.568700 0.594500
vn -0.568300 0.568700 0.594500
vn 0.568400 0.568600 0.594600
vn 0.568400 0.568600 0.594600
vn 0.568400 0.568600 0.594600
vn 0.568400 0.568700 -0.594500
vn 0.568400 0.568700 -0.594500
vn 0.568400 0.568700 -0.594500
vn -0.568300 0.568700 -0.594500
vn -0.568300 0.568700 -0.594500
vn -0.568300 0.568700 -0.594500
vn 0.568400 -0.568700 -0.594600
vn 0.568400 -0.568700 -0.594600
vn 0.568400 -0.568700 -0.594600
vn -0.568300 -0.568700 -0.594600
vn -0.568300 -0.568700 -0.594600
vn -0.568300 -0.568700 -0.594600
vn -0.568400 -0.568700 -0.594600
vn -0.568400 -0.568700 -0.594600
vn -0.568400 -0.568700 -0.594600
vn 0.568400 -0.568700 -0.594500
vn 0.568400 -0.568700 -0.594500
vn 0.568400 -0.568700 -0.594500
vn -0.568400 0.568700 -0.594500
vn -0.568400 0.568700 -0.594500
vn -0.568400 0.568700 -0.594500
vn 0.568400 0.568700 -0.594500
vn 0.568400 0.568700 -0.594500
vn 0.568400 0.568700 -0.594500
vn 0.568400 0.568600 0.594600
vn 0.568400 0.568600 0.594600
vn 0.568400 0.568600 0.594600
vn -0.568400 0.568700 0.594600
vn -0.568400 0.568700 0.594600
vn -0.568400 0.568700 0.594600
vn 0.568400 -0.568600 0.594600
vn 0.568400 -0.568600 0.594600
vn 0.568400 -0.568600 0.594600
vn -0.568400 -0.568600 0.594600
vn -0.568400 -0.568600 0.594600
vn -0.568400 -0.568600 0.594600
vn -0.568500 0.568600 0.594600
vn -0.568500 0.568600 0.594600
vn -0.568500 0.568600 0.594600
vn -0.568500 -0.568600 0.594600
vn -0.568500 -0.568600 0.594600
vn -0.568500 -0.568600 0.594600
vn -0.568300 0.568700 -0.594500
vn -0.568300 0.568700 -0.594500
vn -0.568300 0.568700 -0.594500
vn -0.568300 -0.568700 -0.594600
vn -0.568300 -0.568700 -0.594600
vn -0.568300 -0.568700 -0.594600
vn 0.568400 -0.568600 -0.594600
vn 0.568400 -0.568600 -0.594600
vn 0.568400 -0.568600 -0.594600
vn 0.568400 0.568700 -0.594600
vn 0.568400 0.568700 -0.594600
vn 0.568400 0.568700 -0.594600
vn 0.568400 -0.568600 0.594600
vn 0.568400 -0.568600 0.594600
vn 0.568400 -0.568600 0.594600
vn 0.568400 0.568700 0.594600
vn 0.568400 0.568700 0.594600
vn 0.568400 0.568700 0.594600
vn 0.568300 0.568700 -0.594500
vn 0.568300 0.568700 -0.594500
vn 0.568300 0.568700 -0.594500
vn 0.568400 -0.568700 -0.594500
vn 0.568400 -0.568700 -0.594500
vn 0.568400 -0.568700 -0.594500
vn 0.568400 0.568700 0.594600
vn 0.568400 0.568700 0.594600
vn 0.568400 0.568700 0.594600
vn 0.568400 -0.568600 0.594600
vn 0.568400 -0.568600 0.594600
vn 0.568400 -0.568600 0.594600
vn 0.568400 -0.568600 -0.594600
vn 0.568400 -0.568600 -0.594600
vn 0.568400 -0.568600 -0.594600
vn 0.568400 -0.568600 0.594600
vn 0.568400 -0.568600 0.594600
vn 0.568400 -0.568600 0.594600
vn 0.568400 0.568700 -0.594600
vn 0.568400 0.568700 -0.594600
vn 0.568400 0.568700 -0.594600
vn 0.568400 0.568700 0.594600
vn 0.568400 0.568700 0.594600
vn 0.568400 0.568700 0.594600
vn 0.568400 -0.568600 -0.594600
vn 0.568400 -0.568600 -0.594600
vn 0.568400 -0.568600 -0.594600
vn 0.568400 0.568700 -0.594600
vn 0.568400 0.568700 -0.594600
vn 0.568400 0.568700 -0.594600
vn 0.568400 -0.568600 0.594600
vn 0.568400 -0.568600 0.594600
vn 0.568400 -0.568600 0.594600
vn 0.568400 0.568700 0.594600
vn 0.568400 0.568700 0.594600
vn 0.568400 0.568700 0.594600
vn -0.568400 0.568700 0.594600
vn -0.568400 0.568700 0.594600
vn -0.568400 0.568700 0.594600
vn -0.568400 -0.568600 0.594600
vn -0.568400 -0.568600 0.594600
vn -0.568400 -0.568600 0.594600
vn -0.568400 0.568700 -0.594600
vn -0.568400 0.568700 -0.594600
vn -0.568400 0.568700 -0.594600
vn -0.568400 -0.568600 -0.594600
vn -0.568400 -0.568600 -0.594600
vn -0.568400 -0.568600 -0.594600
vn -0.568400 0.568700 0.594600
vn -0.568400 0.568700 0.594600
vn -0.568400 0.568700 0.594600
vn -0.568400 0.568700 -0.594600
vn -0.568400 0.568700 -0.594600
vn -0.568400 0.568700 -0.594600
vn -0.568400 -0.568600 0.594600
vn -0.568400 -0.568600 0.594600
vn -0.568400 -0.568600 0.594600
vn -0.568400 -0.568600 -0.594600
vn -0.568400 -0.568600 -0.594600
vn -0.568400 -0.568600 -0.594600
vn -0.568400 -0.568600 0.594600
vn -0.568400 -0.568600 0.594600
vn -0.568400 -0.568600 0.594600
vn -0.568400 0.568700 0.594600
vn -0.568400 0.568700 0.594600
vn -0.568400 0.568700 0.594600
vn -0.568500 -0.568500 -0.594600
vn -0.568500 -0.568500 -0.594600
vn -0.568500 -0.568500 -0.594600
vn -0.568400 0.568600 -0.594600
vn -0.568400 0.568600 -0.594600
vn -0.568400 0.568600 -0.594600
vn -0.706900 0.707300 0.000000
vn -0.706900 0.707300 0.000000
vn -0.706900 0.707300 0.000000
vn -0.706900 0.707300 0.000000
vn 0.707000 0.707200 0.000000
vn 0.707000 0.707200 0.000000
vn 0.707000 0.707200 0.000000
vn 0.707000 0.707200 0.000000
vn 0.707000 -0.707200 0.000000
vn 0.707000 -0.707200 0.000000
vn 0.707000 -0.707200 0.000000
vn 0.707000 -0.707200 0.000000
vn -0.706900 -0.707300 0.000000
vn -0.706900 -0.707300 0.000000
vn -0.706900 -0.707300 0.000000
vn -0.706900 -0.707300 0.000000
vn 0.000000 0.691100 0.722700
vn 0.000000 0.691100 0.722700
vn 0.000000 0.691100 0.722700
vn 0.000000 0.691100 0.722700
vn 0.000000 0.691100 -0.722700
vn 0.000000 0.691100 -0.722700
vn 0.000000 0.691100 -0.722700
vn 0.000000 0.691100 -0.722700
vn 0.000000 -0.691100 -0.722700
vn 0.000000 -0.691100 -0.722700
vn 0.000000 -0.691100 -0.722700
vn 0.000000 -0.691100 -0.722700
vn 0.000000 -0.691100 0.722700
vn 0.000000 -0.691100 0.722700
vn 0.000000 -0.691100 0.722700
vn 0.000000 -0.691100 0.722700
vn -0.691000 0.000000 0.722800
vn -0.691000 0.000000 0.722800
vn -0.691000 0.000000 0.722800
vn -0.691000 0.000000 0.722800
vn 0.691000 0.000000 0.722900
vn 0.691000 0.000000 0.722900
vn 0.691000 0.000000 0.722900
vn 0.691000 0.000000 0.722900
vn -0.691000 0.000000 -0.722900
vn -0.691000 0.000000 -0.722900
vn -0.691000 0.000000 -0.722900
vn -0.691000 0.000000 -0.722900
vn 0.691000 0.000000 -0.722800
vn 0.691000 0.000000 -0.722800
vn 0.691000 0.000000 -0.722800
vn 0.691000 0.000000 -0.722800
vn -0.706900 -0.707200 0.000000
vn -0.706900 -0.707200 0.000000
vn -0.706900 -0.707200 0.000000
vn -0.706900 -0.707200 0.000000
vn 0.707000 -0.707200 0.000000
vn 0.707000 -0.707200 0.000000
vn 0.707000 -0.707200 0.000000
vn 0.707000 -0.707200 0.000000
vn 0.707000 0.707200 0.000000
vn 0.707000 0.707200 0.000000
vn 0.707000 0.707200 0.000000
vn 0.707000 0.707200 0.000000
vn -0.706900 0.707200 0.000000
vn -0.706900 0.707200 0.000000
vn -0.706900 0.707200 0.000000
vn -0.706900 0.707200 0.000000
vn 0.000000 -0.691100 0.722700
vn 0.000000 -0.691100 0.722700
vn 0.000000 -0.691100 0.722700
vn 0.000000 -0.691100 0.722700
vn 0.000000 -0.691100 -0.722700
vn 0.000000 -0.691100 -0.722700
vn 0.000000 -0.691100 -0.722700
vn 0.000000 -0.691100 -0.722700
vn 0.000000 0.691100 -0.722700
vn 0.000000 0.691100 -0.722700
vn 0.000000 0.691100 -0.722700
vn 0.000000 0.691100 -0.722700
vn 0.000000 0.691100 0.722700
vn 0.000000 0.691100 0.722700
vn 0.000000 0.691100 0.722700
vn 0.000000 0.691100 0.722700
vn 0.691000 0.000000 -0.722800
vn 0.691000 0.000000 -0.722800
vn 0.691000 0.000000 -0.722800
vn 0.691000 0.000000 -0.722800
vn -0.691000 0.000000 -0.722800
vn -0.691000 0.000000 -0.722800
vn -0.691000 0.000000 -0.722800
vn -0.691000 0.000000 -0.722800
vn 0.691000 0.000000 0.722800
vn 0.691000 0.000000 0.722800
vn 0.691000 0.000000 0.722800
vn 0.691000 0.000000 0.722800
vn -0.691000 0.000000 0.722800
vn -0.691000 0.000000 0.722800
vn -0.691000 0.000000 0.722800
vn -0.691000 0.000000 0.722800
vn -0.707000 0.707200 0.000000
vn -0.707000 0.707200 0.000000
vn -0.707000 0.707200 0.000000
vn -0.707000 0.707200 0.000000
vn -0.707000 -0.707200 0.000000
vn -0.707000 -0.707200 0.000000
vn -0.707000 -0.707200 0.000000
vn -0.707000 -0.707200 0.000000
vn 0.706900 -0.707200 0.000000
vn 0.706900 -0.707200 0.000000
vn 0.706900 -0.707200 0.000000
vn 0.706900 -0.707200 0.000000
vn 0.706900 0.707300 0.000000
vn 0.706900 0.707300 0.000000
vn 0.706900 0.707300 0.000000
vn 0.706900 0.707300 0.000000
vn -0.691000 0.000000 0.722800
vn -0.691000 0.000000 0.722800
vn -0.691000 0.000000 0.722800
vn -0.691000 0.000000 0.722800
vn -0.691000 0.000000 -0.722900
vn -0.691000 0.000000 -0.722900
vn -0.691000 0.000000 -0.722900
vn -0.691000 0.000000 -0.722900
vn 0.691000 0.000000 -0.722900
vn 0.691000 0.000000 -0.722900
vn 0.691000 0.000000 -0.722900
vn 0.691000 0.000000 -0.722900
vn 0.691000 0.000000 0.722800
vn 0.691000 0.000000 0.722800
vn 0.691000 0.000000 0.722800
vn 0.691000 0.000000 0.722800
vn 0.000000 -0.691100 -0.722700
vn 0.000000 -0.691100 -0.722700
vn 0.000000 -0.691100 -0.722700
vn 0.000000 -0.691100 -0.722700
vn 0.000000 -0.691100 0.722700
vn 0.000000 -0.691100 0.722700
vn 0.000000 -0.691100 0.722700
vn 0.000000 -0.691100 0.722700
vn 0.000000 0.691200 0.722600
vn 0.000000 0.691200 0.722600
vn 0.000000 0.691200 0.722600
vn 0.000000 0.691200 0.722600
vn 0.000000 0.691200 -0.722700
vn 0.000000 0.691200 -0.722700
vn 0.000000 0.691200 -0.722700
vn 0.000000 0.691200 -0.722700
vn 0.000000 -0.691100 -0.722700
vn 0.000000 -0.691100 -0.722700
vn 0.000000 -0.691100 -0.722700
vn 0.000000 -0.691100 -0.722700
vn 0.000000 0.691100 -0.722700
vn 0.000000 0.691100 -0.722700
vn 0.000000 0.691100 -0.722700
vn 0.000000 0.691100 -0.722700
vn 0.000000 0.691100 0.722700
vn 0.000000 0.691100 0.722700
vn 0.000000 0.691100 0.722700
vn 0.000000 0.691100 0.722700
vn 0.000000 -0.691100 0.722700
vn 0.000000 -0.691100 0.722700
vn 0.000000 -0.691100 0.722700
vn 0.000000 -0.691100 0.722700
vn -0.691000 0.000000 -0.722800
vn -0.691000 0.000000 -0.722800
vn -0.691000 0.000000 -0.722800
vn -0.691000 0.000000 -0.722800
vn 0.691000 0.000000 -0.722800
vn 0.691000 0.000000 -0.722800
vn 0.691000 0.000000 -0.722800
vn 0.691000 0.000000 -0.722800
vn 0.691000 0.000000 0.722800
vn 0.691000 0.000000 0.722800
vn 0.691000 0.000000 0.722800
vn 0.691000 0.000000 0.722800
vn -0.691000 0.000000 0.722800
vn -0.691000 0.000000 0.722800
vn -0.691000 0.000000 0.722800
vn -0.691000 0.000000 0.722800
vn -0.707000 0.707200 0.000000
vn -0.707000 0.707200 0.000000
vn -0.707000 0.707200 0.000000
vn -0.707000 0.707200 0.000000
vn -0.707000 -0.707200 0.000000
vn -0.707000 -0.707200 0.000000
vn -0.707000 -0.707200 0.000000
vn -0.707000 -0.707200 0.000000
vn 0.707000 -0.707200 0.000000
vn 0.707000 -0.707200 0.000000
vn 0.707000 -0.707200 0.000000
vn 0.707000 -0.707200 0.000000
vn 0.707000 0.707200 0.000000
vn 0.707000 0.707200 0.000000
vn 0.707000 0.707200 0.000000
vn 0.707000 0.707200 0.000000
vn 0.000000 -0.691100 0.722700
vn 0.000000 -0.691100 0.722700
vn 0.000000 -0.691100 0.722700
vn 0.000000 -0.691100 0.722700
vn 0.000000 0.691100 0.722700
vn 0.000000 0.691100 0.722700
vn 0.000000 0.691100 0.722700
vn 0.000000 0.691100 0.722700
vn 0.000000 0.691100 -0.722700
vn 0.000000 0.691100 -0.722700
vn 0.000000 0.691100 -0.722700
vn 0.000000 0.691100 -0.722700
vn 0.000000 -0.691100 -0.722700
vn 0.000000 -0.691100 -0.722700
vn 0.000000 -0.691100 -0.722700
vn 0.000000 -0.691100 -0.722700
vn -0.691000 0.000000 0.722800
vn -0.691000 0.000000 0.722800
vn -0.691000 0.000000 0.722800
vn -0.691000 0.000000 0.722800
vn 0.691000 0.000000 0.722800
vn 0.691000 0.000000 0.722800
vn 0.691000 0.000000 0.722800
vn 0.691000 0.000000 0.722800
vn 0.691000 0.000000 -0.722800
vn 0.691000 0.000000 -0.722800
vn 0.691000 0.000000 -0.722800
vn 0.691000 0.000000 -0.722800
vn -0.691000 0.000000 -0.722800
vn -0.691000 0.000000 -0.722800
vn -0.691000 0.000000 -0.722800
vn -0.691000 0.000000 -0.722800
vn 0.707000 0.707200 0.000000
vn 0.707000 0.707200 0.000000
vn 0.707000 0.707200 0.000000
vn 0.707000 0.707200 0.000000
vn 0.707000 -0.707200 0.000000
vn 0.707000 -0.707200 0.000000
vn 0.707000 -0.707200 0.000000
vn 0.707000 -0.707200 0.000000
vn -0.707000 -0.707200 0.000000
vn -0.707000 -0.707200 0.000000
vn -0.707000 -0.707200 0.000000
vn -0.707000 -0.707200 0.000000
vn -0.706900 0.707200 0.000000
vn -0.706900 0.707200 0.000000
vn -0.706900 0.707200 0.000000
vn -0.706900 0.707200 0.000000
vn 0.707000 -0.707200 0.000000
vn 0.707000 -0.707200 0.000000
vn 0.707000 -0.707200 0.000000
vn 0.707000 -0.707200 0.000000
vn 0.707000 0.707200 0.000000
vn 0.707000 0.707200 0.000000
vn 0.707000 0.707200 0.000000
vn 0.707000 0.707200 0.000000
vn -0.707000 0.707200 0.000000
vn -0.707000 0.707200 0.000000
vn -0.707000 0.707200 0.000000
vn -0.707000 0.707200 0.000000
vn -0.707000 -0.707200 0.000000
vn -0.707000 -0.707200 0.000000
vn -0.707000 -0.707200 0.000000
vn -0.707000 -0.707200 0.000000
vn 0.707000 -0.707200 0.000000
vn 0.707000 -0.707200 0.000000
vn 0.707000 -0.707200 0.000000
vn 0.707000 -0.707200 0.000000
vn 0.706900 0.707200 0.000000
vn 0.706900 0.707200 0.000000
vn 0.706900 0.707200 0.000000
vn 0.706900 0.707200 0.000000
vn -0.706900 0.707200 0.000000
vn -0.706900 0.707200 0.000000
vn -0.706900 0.707200 0.000000
vn -0.706900 0.707200 0.000000
vn -0.707000 -0.707200 0.000000
vn -0.707000 -0.707200 0.000000
vn -0.707000 -0.707200 0.000000
vn -0.707000 -0.707200 0.000000
vn 0.706900 0.707300 0.000000
vn 0.706900 0.707300 0.000000
vn 0.706900 0.707300 0.000000
vn 0.706900 0.707300 0.000000
vn 0.706900 -0.707200 0.000000
vn 0.706900 -0.707200 0.000000
vn 0.706900 -0.707200 0.000000
vn 0.706900 -0.707200 0.000000
vn -0.706900 -0.707200 0.000000
vn -0.706900 -0.707200 0.000000
vn -0.706900 -0.707200 0.000000
vn -0.706900 -0.707200 0.000000
vn -0.706900 0.707300 0.000000
vn -0.706900 0.707300 0.000000
vn -0.706900 0.707300 0.000000
vn -0.706900 0.707300 0.000000
vn 0.691000 0.000000 0.722800
vn 0.691000 0.000000 0.722800
vn 0.691000 0.000000 0.722800
vn 0.691000 0.000000 0.722800
vn 0.691000 0.000000 -0.722800
vn 0.691000 0.000000 -0.722800
vn 0.691000 0.000000 -0.722800
vn 0.691000 0.000000 -0.722800
vn -0.691000 0.000000 -0.722800
vn -0.691000 0.000000 -0.722800
vn -0.691000 0.000000 -0.722800
vn -0.691000 0.000000 -0.722800
vn -0.691000 0.000000 0.722800
vn -0.691000 0.000000 0.722800
vn -0.691000 0.000000 0.722800
vn -0.691000 0.000000 0.722800
vn 0.691000 0.000000 -0.722800
vn 0.691000 0.000000 -0.722800
vn 0.691000 0.000000 -0.722800
vn 0.691000 0.000000 -0.722800
vn 0.691000 0.000000 0.722800
vn 0.691000 0.000000 0.722800
vn 0.691000 0.000000 0.722800
vn 0.691000 0.000000 0.722800
vn -0.691000 0.000000 0.722800
vn -0.691000 0.000000 0.722800
vn -0.691000 0.000000 0.722800
vn -0.691000 0.000000 0.722800
vn -0.691000 0.000000 -0.722800
vn -0.691000 0.000000 -0.722800
vn -0.691000 0.000000 -0.722800
vn -0.691000 0.000000 -0.722800
vn 0.691000 0.000000 -0.722900
vn 0.691000 0.000000 -0.722900
vn 0.691000 0.000000 -0.722900
vn 0.691000 0.000000 -0.722900
vn 0.691000 0.000000 0.722800
vn 0.691000 0.000000 0.722800
vn 0.691000 0.000000 0.722800
vn 0.691000 0.000000 0.722800
vn -0.691000 0.000000 0.722800
vn -0.691000 0.000000 0.722800
vn -0.691000 0.000000 0.722800
vn -0.691000 0.000000 0.722800
vn -0.691000 0.000000 -0.722900
vn -0.691000 0.000000 -0.722900
vn -0.691000 0.000000 -0.722900
vn -0.691000 0.000000 -0.722900
vn 0.000000 0.691200 -0.722700
vn 0.000000 0.691200 -0.722700
vn 0.000000 0.691200 -0.722700
vn 0.000000 0.691200 -0.722700
vn 0.000000 -0.691100 -0.722700
vn 0.000000 -0.691100 -0.722700
vn 0.000000 -0.691100 -0.722700
vn 0.000000 -0.691100 -0.722700
vn 0.000000 0.691200 0.722700
vn 0.000000 0.691200 0.722700
vn 0.000000 0.691200 0.722700
vn 0.000000 0.691200 0.722700
vn 0.000000 -0.691100 0.722700
vn 0.000000 -0.691100 0.722700
vn 0.000000 -0.691100 0.722700
vn 0.000000 -0.691100 0.722700
vn 0.000000 -0.691100 0.722700
vn 0.000000 -0.691100 0.722700
vn 0.000000 -0.691100 0.722700
vn 0.000000 -0.691100 0.722700
vn 0.000000 0.691200 0.722700
vn 0.000000 0.691200 0.722700
vn 0.000000 0.691200 0.722700
vn 0.000000 0.691200 0.722700
vn 0.000000 0.691200 -0.722700
vn 0.000000 0.691200 -0.722700
vn 0.000000 0.691200 -0.722700
vn 0.000000 0.691200 -0.722700
vn 0.000000 -0.691100 -0.722700
vn 0.000000 -0.691100 -0.722700
vn 0.000000 -0.691100 -0.722700
vn 0.000000 -0.691100 -0.722700
vn 0.000000 -0.691100 -0.722700
vn 0.000000 -0.691100 -0.722700
vn 0.000000 -0.691100 -0.722700
vn 0.000000 -0.691100 -0.722700
vn 0.000000 -0.691100 0.722700
vn 0.000000 -0.691100 0.722700
vn 0.000000 -0.691100 0.722700
vn 0.000000 -0.691100 0.722700
vn 0.000000 0.691200 0.722700
vn 0.000000 0.691200 0.722700
vn 0.000000 0.691200 0.722700
vn 0.000000 0.691200 0.722700
vn 0.000000 0.691200 -0.722700
vn 0.000000 0.691200 -0.722700
vn 0.000000 0.691200 -0.722700
vn 0.000000 0.691200 -0.722700
vt 2.701000 0.716500
vt 2.701000 0.539400
vt 2.703400 0.539400
vt 2.703400 0.716500
vt 1.186100 0.722900
vt 2.029400 0.722900
vt 2.029400 0.267700
vt 1.186100 0.267700
vt -0.689600 0.724000
vt -1.514300 0.724000
vt -1.514300 1.187100
vt -0.689600 1.187100
vt -1.826400 1.191800
vt -1.826400 0.338500
vt -0.929200 0.338500
vt -0.929200 1.191800
vt 1.867400 0.922600
vt 0.965400 0.922600
vt 0.965400 0.069300
vt 1.867400 0.069300
vt 2.660500 -0.249600
vt 2.660500 0.310800
vt 2.658200 0.310800
vt 2.658200 -0.249600
vt 3.899800 0.266700
vt 3.899800 -0.207000
vt 3.874700 -0.207000
vt 3.874700 0.266700
vt -0.689600 0.259800
vt -0.689600 0.722900
vt -1.514300 0.722900
vt -1.514300 0.259800
vt 0.051500 0.087000
vt -0.850100 0.087000
vt -0.850100 0.940200
vt 0.051500 0.940200
vt 3.050900 0.267700
vt 3.050900 0.722900
vt 2.207600 0.722900
vt 2.207600 0.267700
vt -2.503500 -0.464000
vt -2.515800 -0.464000
vt -2.515800 0.224500
vt -2.503500 0.224500
vt 4.010500 0.621600
vt 4.012900 0.621600
vt 4.012900 0.445400
vt 4.010500 0.445400
vt 4.921200 0.722900
vt 4.077900 0.722900
vt 4.077900 0.267700
vt 4.921200 0.267700
vt 3.715900 0.266600
vt 3.715900 -0.302900
vt 3.734600 -0.302900
vt 3.734600 0.266600
vt -1.514300 1.209100
vt -0.689600 1.209100
vt -0.689600 1.205600
vt -1.514300 1.205600
vt 3.018900 0.266600
vt 3.018900 -0.293900
vt 3.021200 -0.293900
vt 3.021200 0.266600
vt 0.959300 0.087000
vt 0.959300 0.940200
vt 0.057700 0.940200
vt 0.057700 0.087000
vt 4.325600 0.178300
vt 4.325600 0.738700
vt 4.323300 0.738700
vt 4.323300 0.178300
vt 1.999600 -0.278800
vt 1.980500 -0.278800
vt 1.980500 0.266600
vt 1.999600 0.266600
vt 2.531800 0.310800
vt 2.531800 -0.249600
vt 2.529500 -0.249600
vt 2.529500 0.310800
vt 0.959200 0.069300
vt 0.057200 0.069300
vt 0.057200 0.922600
vt 0.959200 0.922600
vt -1.514300 1.283200
vt -1.514300 1.279700
vt -0.689600 1.279700
vt -0.689600 1.283200
vt -2.467400 0.224500
vt -2.467400 -0.464000
vt -2.484100 -0.464000
vt -2.484100 0.224500
vt 4.583400 -0.302900
vt 4.564700 -0.302900
vt 4.564700 0.266600
vt 4.583400 0.266600
vt -2.487700 -0.464000
vt -2.487700 0.224500
vt -2.500000 0.224500
vt -2.500000 -0.464000
vt -1.514300 1.289000
vt -1.514300 1.284200
vt -0.689600 1.284200
vt -0.689600 1.289000
vt 1.185500 1.306600
vt 3.051500 1.306600
vt 3.051500 0.724100
vt 1.185500 0.724100
vt -1.519600 0.722900
vt -1.519600 0.259800
vt -2.344300 0.259800
vt -2.344300 0.722900
vt -0.689600 1.300800
vt -1.533000 1.300800
vt -1.533000 1.295900
vt -0.689600 1.295900
vt 4.921300 0.266700
vt 4.896200 0.266700
vt 4.896200 -0.206900
vt 4.921300 -0.206900
vt -0.689600 1.192900
vt -0.689600 1.188100
vt -1.533000 1.188100
vt -1.533000 1.192900
vt 3.453700 1.093800
vt 3.453700 0.916800
vt 3.451400 0.916800
vt 3.451400 1.093800
vt -0.689600 1.198800
vt -1.533000 1.198800
vt -1.533000 1.193900
vt -0.689600 1.193900
vt 2.699000 -0.278800
vt 2.699000 0.266600
vt 2.679900 0.266600
vt 2.679900 -0.278800
vt 4.921800 1.306600
vt 3.055800 1.306600
vt 3.055800 0.724100
vt 4.921800 0.724100
vt -1.519600 0.724000
vt -1.519600 1.187100
vt -2.344300 1.187100
vt -2.344300 0.724000
vt 2.139700 0.738700
vt 2.139700 0.178300
vt 2.137500 0.178300
vt 2.137500 0.738700
vt 3.012300 1.461400
vt 2.995500 1.461400
vt 2.995500 0.772800
vt 3.012300 0.772800
vt -1.533000 1.294900
vt -0.689600 1.294900
vt -0.689600 1.290000
vt -1.533000 1.290000
vt 3.407000 0.916800
vt 3.407000 1.093800
vt 3.404700 1.093800
vt 3.404700 0.916800
vt -0.922900 1.191800
vt -0.025700 1.191800
vt -0.025700 0.338500
vt -0.922900 0.338500
vt 4.590000 -0.293900
vt 4.587700 -0.293900
vt 4.587700 0.266600
vt 4.590000 0.266600
vt 3.056400 0.722900
vt 3.899700 0.722900
vt 3.899700 0.267700
vt 3.056400 0.267700
vt 2.029500 0.266700
vt 2.004400 0.266700
vt 2.004400 -0.207000
vt 2.029500 -0.207000
vt 0.880600 0.767100
vt 0.880600 0.590000
vt 0.878300 0.590000
vt 0.878300 0.767100
vt -1.514300 1.204600
vt -0.689600 1.204600
vt -0.689600 1.199800
vt -1.514300 1.199800
vt 3.979600 0.445400
vt 3.979600 0.621600
vt 3.977300 0.621600
vt 3.977300 0.445400
vt 3.051100 -0.207000
vt 3.025900 -0.207000
vt 3.025900 0.266700
vt 3.051100 0.266700
vt -2.467400 -0.464000
vt -2.465600 -0.464000
vt -2.467400 -0.464800
vt 3.012300 0.772800
vt 3.012300 0.772000
vt 3.014000 0.772800
vt 3.012300 1.461400
vt 3.014000 1.461400
vt 3.012300 1.462100
vt -2.467400 0.224500
vt -2.467400 0.225300
vt -2.465600 0.224500
vt -2.484100 0.224500
vt -2.485900 0.224500
vt -2.484100 0.225300
vt 2.995500 1.461400
vt 2.995500 1.462100
vt 2.993700 1.461400
vt 2.995500 0.772800
vt 2.993700 0.772800
vt 2.995500 0.772000
vt -2.484100 -0.464000
vt -2.484100 -0.464800
vt -2.485900 -0.464000
vt -2.515800 -0.464000
vt -2.515800 -0.464800
vt -2.517600 -0.464000
vt -2.500000 -0.464000
vt -2.501700 -0.464000
vt -2.499900 -0.464800
vt -2.500000 0.224500
vt -2.500000 0.225300
vt -2.501700 0.224500
vt -2.515800 0.224500
vt -2.517600 0.224500
vt -2.515800 0.225300
vt -2.503500 0.224500
vt -2.503500 0.225300
vt -2.501700 0.224500
vt -2.487700 0.224500
vt -2.485900 0.224500
vt -2.487700 0.225300
vt -2.487700 -0.464000
vt -2.487700 -0.464800
vt -2.485900 -0.464000
vt -2.503500 -0.464000
vt -2.501700 -0.464000
vt -2.503500 -0.464800
vt -0.689600 1.294900
vt -0.689600 1.295400
vt -0.686900 1.294900
vt -1.533000 1.294900
vt -1.535700 1.294900
vt -1.533000 1.295400
vt -0.689600 1.198800
vt -0.686900 1.198800
vt -0.689600 1.199300
vt -1.533000 1.198800
vt -1.533000 1.199300
vt -1.535700 1.198800
vt -1.533000 1.193900
vt -1.535700 1.193900
vt -1.533000 1.193400
vt -0.689600 1.193900
vt -0.689600 1.193400
vt -0.686900 1.193900
vt -1.533000 1.290000
vt -1.533000 1.289500
vt -1.535700 1.290000
vt -0.689600 1.290000
vt -0.686900 1.290000
vt -0.689600 1.289500
vt -0.689600 1.188100
vt -0.686900 1.188100
vt -0.689600 1.187600
vt -1.533000 1.188100
vt -1.533000 1.187600
vt -1.535700 1.188100
vt -0.689600 1.295900
vt -0.689600 1.295400
vt -0.686900 1.295900
vt -1.533000 1.295900
vt -1.535700 1.295900
vt -1.533000 1.295400
vt -1.533000 1.300800
vt -1.533000 1.301300
vt -1.535700 1.300800
vt -0.689600 1.300800
vt -0.686900 1.300800
vt -0.689600 1.301300
vt -1.533000 1.192900
vt -1.535700 1.192900
vt -1.533000 1.193400
vt -0.689600 1.192900
vt -0.689600 1.193400
vt -0.686900 1.192900
vt 2.699000 0.266600
vt 2.701200 0.266600
vt 2.699000 0.267200
vt 1.999600 0.266600
vt 1.999600 0.267200
vt 2.001800 0.266600
vt 2.699000 -0.278800
vt 2.699000 -0.279400
vt 2.701200 -0.278800
vt 1.999600 -0.278800
vt 2.001800 -0.278800
vt 1.999600 -0.279400
vt 1.980500 -0.278800
vt 1.980500 -0.279400
vt 1.978300 -0.278800
vt 2.679900 -0.278800
vt 2.677700 -0.278800
vt 2.679900 -0.279400
vt 1.980500 0.266600
vt 1.978300 0.266600
vt 1.980500 0.267200
vt 2.679900 0.266600
vt 2.679900 0.267200
vt 2.677700 0.266600
vt 3.404700 0.916800
vt 3.402500 0.916800
vt 3.404700 0.916100
vt 3.451400 0.916800
vt 3.451400 0.916100
vt 3.449200 0.916800
vt 2.701000 0.716500
vt 2.701000 0.717100
vt 2.698800 0.716500
vt 0.878300 0.767100
vt 0.876100 0.767100
vt 0.878300 0.767700
vt 4.010500 0.445400
vt 4.010500 0.444800
vt 4.008300 0.445400
vt 4.010500 0.621600
vt 4.008300 0.621600
vt 4.010500 0.622200
vt 3.977300 0.445400
vt 3.975100 0.445400
vt 3.977300 0.444800
vt 3.977300 0.621600
vt 3.977300 0.622200
vt 3.975100 0.621600
vt 0.878300 0.590000
vt 0.878300 0.589400
vt 0.876100 0.590000
vt 2.701000 0.539400
vt 2.698800 0.539400
vt 2.701000 0.538800
vt 3.451400 1.093800
vt 3.449200 1.093800
vt 3.451400 1.094400
vt 3.404700 1.093800
vt 3.404700 1.094400
vt 3.402500 1.093800
vt 3.407000 1.093800
vt 3.409200 1.093800
vt 3.407000 1.094400
vt 3.453700 1.093800
vt 3.453700 1.094400
vt 3.455900 1.093800
vt 2.703400 0.539400
vt 2.703400 0.538800
vt 2.705600 0.539400
vt 0.880600 0.590000
vt 0.882800 0.590000
vt 0.880600 0.589400
vt 3.979600 0.621600
vt 3.981800 0.621600
vt 3.979600 0.622200
vt 3.979600 0.445400
vt 3.979600 0.444800
vt 3.981800 0.445400
vt 4.012900 0.621600
vt 4.012900 0.622200
vt 4.015100 0.621600
vt 4.012900 0.445400
vt 4.015100 0.445400
vt 4.012900 0.444800
vt 0.880600 0.767100
vt 0.880600 0.767700
vt 0.882800 0.767100
vt 2.703400 0.716500
vt 2.705600 0.716500
vt 2.703400 0.717100
vt 3.453700 0.916800
vt 3.455900 0.916800
vt 3.453700 0.916100
vt 3.407000 0.916800
vt 3.407000 0.916100
vt 3.409200 0.916800
vt -2.515800 0.224500
vt -2.515800 -0.464000
vt -2.517600 -0.464000
vt -2.517600 0.224500
vt 4.077900 0.267700
vt 4.077900 0.722900
vt 4.075200 0.722900
vt 4.075200 0.267700
vt -2.487700 0.224500
vt -2.487700 -0.464000
vt -2.485900 -0.464000
vt -2.485900 0.224500
vt 3.899700 0.267700
vt 3.899700 0.722900
vt 3.902400 0.722900
vt 3.902400 0.267700
vt -0.689600 1.279700
vt -1.514300 1.279700
vt -1.514300 1.279200
vt -0.689600 1.279200
vt 4.921200 0.267700
vt 4.077900 0.267700
vt 4.077900 0.267200
vt 4.921200 0.267200
vt -0.689600 1.209100
vt -1.514300 1.209100
vt -1.514300 1.209600
vt -0.689600 1.209600
vt 3.899700 0.722900
vt 3.056400 0.722900
vt 3.056400 0.723400
vt 3.899700 0.723400
vt -2.515800 -0.464000
vt -2.503500 -0.464000
vt -2.503500 -0.464800
vt -2.515800 -0.464800
vt -2.487700 -0.464000
vt -2.500000 -0.464000
vt -2.499900 -0.464800
vt -2.487700 -0.464800
vt -2.503500 0.224500
vt -2.515800 0.224500
vt -2.515800 0.225300
vt -2.503500 0.225300
vt -1.514300 1.209100
vt -1.514300 1.205600
vt -1.516900 1.205600
vt -1.516900 1.209100
vt -2.467400 -0.464000
vt -2.467400 0.224500
vt -2.465600 0.224500
vt -2.465600 -0.464000
vt 1.186100 0.722900
vt 1.186100 0.267700
vt 1.183400 0.267700
vt 1.183400 0.722900
vt 2.995500 0.772800
vt 2.995500 1.461400
vt 2.993700 1.461400
vt 2.993700 0.772800
vt 3.050900 0.722900
vt 3.050900 0.267700
vt 3.053700 0.267700
vt 3.053700 0.722900
vt 2.029400 0.722900
vt 1.186100 0.722900
vt 1.186100 0.723400
vt 2.029400 0.723400
vt -0.689600 1.204600
vt -1.514300 1.204600
vt -1.514300 1.205100
vt -0.689600 1.205100
vt 3.050900 0.267700
vt 2.207600 0.267700
vt 2.207600 0.267200
vt 3.050900 0.267200
vt -0.689600 1.284200
vt -1.514300 1.284200
vt -1.514300 1.283700
vt -0.689600 1.283700
vt 2.995500 1.461400
vt 3.012300 1.461400
vt 3.012300 1.462100
vt 2.995500 1.462100
vt -0.689600 1.199800
vt -0.689600 1.204600
vt -0.686900 1.204600
vt -0.686900 1.199800
vt -1.514300 1.284200
vt -1.514300 1.289000
vt -1.517000 1.289000
vt -1.517000 1.284200
vt -0.689600 1.289000
vt -0.689600 1.284200
vt -0.686900 1.284200
vt -0.686900 1.289000
vt 2.699000 0.266600
vt 2.699000 -0.278800
vt 2.701200 -0.278800
vt 2.701200 0.266600
vt 1.999600 -0.278800
vt 1.999600 0.266600
vt 2.001800 0.266600
vt 2.001800 -0.278800
vt 3.055800 1.306600
vt 4.921800 1.306600
vt 4.921800 1.307200
vt 3.055800 1.307200
vt 2.679900 -0.278800
vt 2.679900 0.266600
vt 2.677700 0.266600
vt 2.677700 -0.278800
vt 3.051500 0.724100
vt 3.051500 1.306600
vt 3.053700 1.306600
vt 3.053700 0.724100
vt 4.583400 -0.302900
vt 4.583400 0.266600
vt 4.585500 0.266600
vt 4.585500 -0.302900
vt 3.055800 0.724100
vt 3.055800 1.306600
vt 3.053700 1.306600
vt 3.053700 0.724100
vt 3.715900 -0.302900
vt 3.715900 0.266600
vt 3.713800 0.266600
vt 3.713800 -0.302900
vt 1.980500 -0.278800
vt 1.999600 -0.278800
vt 1.999600 -0.279400
vt 1.980500 -0.279400
vt 1.999600 0.266600
vt 1.980500 0.266600
vt 1.980500 0.267200
vt 1.999600 0.267200
vt 2.679900 0.266600
vt 2.699000 0.266600
vt 2.699000 0.267200
vt 2.679900 0.267200
vt 4.564700 -0.302900
vt 4.583400 -0.302900
vt 4.583400 -0.303500
vt 4.564700 -0.303500
vt -1.533000 1.188100
vt -0.689600 1.188100
vt -0.689600 1.187600
vt -1.533000 1.187600
vt -2.344300 0.259800
vt -1.519600 0.259800
vt -1.519600 0.259300
vt -2.344300 0.259300
vt -1.533000 1.300800
vt -0.689600 1.300800
vt -0.689600 1.301300
vt -1.533000 1.301300
vt -1.514300 0.722900
vt -0.689600 0.722900
vt -0.689600 0.723400
vt -1.514300 0.723400
vt -1.519600 0.259800
vt -1.519600 0.722900
vt -1.516900 0.722900
vt -1.516900 0.259800
vt -2.344300 0.722900
vt -2.344300 0.259800
vt -2.347000 0.259800
vt -2.347000 0.722900
vt -1.514300 0.259800
vt -1.514300 0.722900
vt -1.516900 0.722900
vt -1.516900 0.259800
vt -0.689600 0.722900
vt -0.689600 0.259800
vt -0.686900 0.259800
vt -0.686900 0.722900
vt 3.874700 -0.207000
vt 3.899800 -0.207000
vt 3.899800 -0.207500
vt 3.874700 -0.207500
vt -0.689600 1.188100
vt -0.689600 1.192900
vt -0.686900 1.192900
vt -0.686900 1.188100
vt 2.004400 0.266700
vt 2.029500 0.266700
vt 2.029500 0.267200
vt 2.004400 0.267200
vt -1.533000 1.295900
vt -1.533000 1.300800
vt -1.535700 1.300800
vt -1.535700 1.295900
vt -2.344300 1.187100
vt -1.519600 1.187100
vt -1.519600 1.187600
vt -2.344300 1.187600
vt -1.533000 1.198800
vt -0.689600 1.198800
vt -0.689600 1.199300
vt -1.533000 1.199300
vt -1.514300 0.724000
vt -0.689600 0.724000
vt -0.689600 0.723400
vt -1.514300 0.723400
vt -1.533000 1.290000
vt -0.689600 1.290000
vt -0.689600 1.289500
vt -1.533000 1.289500
vt -1.519600 1.187100
vt -1.519600 0.724000
vt -1.516900 0.724000
vt -1.516900 1.187100
vt 4.921300 0.266700
vt 4.921300 -0.206900
vt 4.923900 -0.206900
vt 4.923900 0.266700
vt 4.896200 -0.206900
vt 4.896200 0.266700
vt 4.893600 0.266700
vt 4.893600 -0.206900
vt -0.689600 0.724000
vt -0.689600 1.187100
vt -0.686900 1.187100
vt -0.686900 0.724000
vt 4.921300 -0.206900
vt 4.896200 -0.206900
vt 4.896200 -0.207500
vt 4.921300 -0.207500
vt 4.896200 0.266700
vt 4.921300 0.266700
vt 4.921300 0.267200
vt 4.896200 0.267200
vt -0.689600 1.290000
vt -0.689600 1.294900
vt -0.686900 1.294900
vt -0.686900 1.290000
vt 3.025900 -0.207000
vt 3.051100 -0.207000
vt 3.051100 -0.207500
vt 3.025900 -0.207500
vt 0.965400 0.922600
vt 1.867400 0.922600
vt 1.867400 0.923500
vt 0.965400 0.923500
vt 2.701000 0.539400
vt 2.701000 0.716500
vt 2.698800 0.716500
vt 2.698800 0.539400
vt 0.057200 0.069300
vt 0.959200 0.069300
vt 0.959200 0.068300
vt 0.057200 0.068300
vt 0.880600 0.590000
vt 0.880600 0.767100
vt 0.882800 0.767100
vt 0.882800 0.590000
vt -1.826400 1.191800
vt -0.929200 1.191800
vt -0.929200 1.192800
vt -1.826400 1.192800
vt 3.977300 0.445400
vt 3.977300 0.621600
vt 3.975100 0.621600
vt 3.975100 0.445400
vt -0.922900 0.338500
vt -0.025700 0.338500
vt -0.025700 0.337600
vt -0.922900 0.337600
vt 4.012900 0.445400
vt 4.012900 0.621600
vt 4.015100 0.621600
vt 4.015100 0.445400
vt 3.404700 0.916800
vt 3.404700 1.093800
vt 3.402500 1.093800
vt 3.402500 0.916800
vt 0.057700 0.940200
vt 0.959300 0.940200
vt 0.959300 0.941200
vt 0.057700 0.941200
vt 3.453700 0.916800
vt 3.453700 1.093800
vt 3.455900 1.093800
vt 3.455900 0.916800
vt -0.850100 0.087000
vt 0.051500 0.087000
vt 0.051500 0.086000
vt -0.850100 0.086000
vt 1.867400 0.922600
vt 1.867400 0.069300
vt 1.870500 0.069300
vt 1.870500 0.922600
vt 2.529500 0.310800
vt 2.529500 -0.249600
vt 2.527400 -0.249600
vt 2.527400 0.310800
vt 0.057200 0.922600
vt 0.057200 0.069300
vt 0.054100 0.069300
vt 0.054100 0.922600
vt 2.660500 0.310800
vt 2.660500 -0.249600
vt 2.662700 -0.249600
vt 2.662700 0.310800
vt -1.826400 0.338500
vt -1.826400 1.191800
vt -1.829500 1.191800
vt -1.829500 0.338500
vt 3.018900 -0.293900
vt 3.018900 0.266600
vt 3.016700 0.266600
vt 3.016700 -0.293900
vt -0.025700 0.338500
vt -0.025700 1.191800
vt -0.022500 1.191800
vt -0.022500 0.338500
vt 4.590000 -0.293900
vt 4.590000 0.266600
vt 4.592100 0.266600
vt 4.592100 -0.293900
vt 2.137500 0.738700
vt 2.137500 0.178300
vt 2.135300 0.178300
vt 2.135300 0.738700
vt 0.959300 0.940200
vt 0.959300 0.087000
vt 0.962400 0.087000
vt 0.962400 0.940200
vt 4.325600 0.738700
vt 4.325600 0.178300
vt 4.327700 0.178300
vt 4.327700 0.738700
vt -0.850100 0.940200
vt -0.850100 0.087000
vt -0.853200 0.087000
vt -0.853200 0.940200
vt 2.529500 -0.249600
vt 2.531800 -0.249600
vt 2.531800 -0.250200
vt 2.529500 -0.250200
vt 0.878300 0.590000
vt 0.880600 0.590000
vt 0.880600 0.589400
vt 0.878300 0.589400
vt 2.701000 0.716500
vt 2.703400 0.716500
vt 2.703400 0.717100
vt 2.701000 0.717100
vt 2.658200 0.310800
vt 2.660500 0.310800
vt 2.660500 0.311500
vt 2.658200 0.311500
vt 3.018900 0.266600
vt 3.021200 0.266600
vt 3.021200 0.267200
vt 3.018900 0.267200
vt 3.977300 0.621600
vt 3.979600 0.621600
vt 3.979600 0.622200
vt 3.977300 0.622200
vt 4.587700 -0.293900
vt 4.590000 -0.293900
vt 4.590000 -0.294500
vt 4.587700 -0.294500
vt 4.010500 0.445400
vt 4.012900 0.445400
vt 4.012900 0.444800
vt 4.010500 0.444800
vt 3.451400 0.916800
vt 3.453700 0.916800
vt 3.453700 0.916100
vt 3.451400 0.916100
vt 4.323300 0.738700
vt 4.325600 0.738700
vt 4.325600 0.739400
vt 4.323300 0.739400
vt 4.325600 0.178300
vt 4.323300 0.178300
vt 4.323300 0.177700
vt 4.325600 0.177700
vt 2.137500 0.178300
vt 2.139700 0.178300
vt 2.139700 0.177700
vt 2.137500 0.177700
f 1/1/1 2/2/2 3/3/3
f 1/1/1 3/3/3 4/4/4
f 5/5/5 6/6/6 7/7/7
f 5/5/5 7/7/7 8/8/8
f 9/9/9 10/10/10 11/11/11
f 9/9/9 11/11/11 12/12/12
f 13/13/13 14/14/14 15/15/15
f 13/13/13 15/15/15 16/16/16
f 17/17/17 18/18/18 19/19/19
f 17/17/17 19/19/19 20/20/20
f 21/21/21 22/22/22 23/23/23
f 21/21/21 23/23/23 24/24/24
f 25/25/25 26/26/26 27/27/27
f 25/25/25 27/27/27 28/28/28
f 29/29/29 30/30/30 31/31/31
f 29/29/29 31/31/31 32/32/32
f 33/33/33 34/34/34 35/35/35
f 33/33/33 35/35/35 36/36/36
f 37/37/37 38/38/38 39/39/39
f 37/37/37 39/39/39 40/40/40
f 41/41/41 42/42/42 43/43/43
f 41/41/41 43/43/43 44/44/44
f 45/45/45 46/46/46 47/47/47
f 45/45/45 47/47/47 48/48/48
f 49/49/49 50/50/50 51/51/51
f 49/49/49 51/51/51 52/52/52
f 53/53/53 54/54/54 55/55/55
f 53/53/53 55/55/55 56/56/56
f 57/57/57 58/58/58 59/59/59
f 57/57/57 59/59/59 60/60/60
f 61/61/61 62/62/62 63/63/63
f 61/61/61 63/63/63 64/64/64
f 65/65/65 66/66/66 67/67/67
f 65/65/65 67/67/67 68/68/68
f 69/69/69 70/70/70 71/71/71
f 69/69/69 71/71/71 72/72/72
f 73/73/73 74/74/74 75/75/75
f 73/73/73 75/75/75 76/76/76
f 77/77/77 78/78/78 79/79/79
f 77/77/77 79/79/79 80/80/80
f 81/81/81 82/82/82 83/83/83
f 81/81/81 83/83/83 84/84/84
f 85/85/85 86/86/86 87/87/87
f 85/85/85 87/87/87 88/88/88
f 89/89/89 90/90/90 91/91/91
f 89/89/89 91/91/91 92/92/92
f 93/93/93 94/94/94 95/95/95
f 93/93/93 95/95/95 96/96/96
f 97/97/97 98/98/98 99/99/99
f 97/97/97 99/99/99 100/100/100
f 101/101/101 102/102/102 103/103/103
f 101/101/101 103/103/103 104/104/104
f 105/105/105 106/106/106 107/107/107
f 105/105/105 107/107/107 108/108/108
f 109/109/109 110/110/110 111/111/111
f 109/109/109 111/111/111 112/112/112
f 113/113/113 114/114/114 115/115/115
f 113/113/113 115/115/115 116/116/116
f 117/117/117 118/118/118 119/119/119
f 117/117/117 119/119/119 120/120/120
f 121/121/121 122/122/122 123/123/123
f 121/121/121 123/123/123 124/124/124
f 125/125/125 126/126/126 127/127/127
f 125/125/125 127/127/127 128/128/128
f 129/129/129 130/130/130 131/131/131
f 129/129/129 131/131/131 132/132/132
f 133/133/133 134/134/134 135/135/135
f 133/133/133 135/135/135 136/136/136
f 137/137/137 138/138/138 139/139/139
f 137/137/137 139/139/139 140/140/140
f 141/141/141 142/142/142 143/143/143
f 141/141/141 143/143/143 144/144/144
f 145/145/145 146/146/146 147/147/147
f 145/145/145 147/147/147 148/148/148
f 149/149/149 150/150/150 151/151/151
f 149/149/149 151/151/151 152/152/152
f 153/153/153 154/154/154 155/155/155
f 153/153/153 155/155/155 156/156/156
f 157/157/157 158/158/158 159/159/159
f 157/157/157 159/159/159 160/160/160
f 161/161/161 162/162/162 163/163/163
f 161/161/161 163/163/163 164/164/164
f 165/165/165 166/166/166 167/167/167
f 165/165/165 167/167/167 168/168/168
f 169/169/169 170/170/170 171/171/171
f 169/169/169 171/171/171 172/172/172
f 173/173/173 174/174/174 175/175/175
f 173/173/173 175/175/175 176/176/176
f 177/177/177 178/178/178 179/179/179
f 177/177/177 179/179/179 180/180/180
f 181/181/181 182/182/182 183/183/183
f 181/181/181 183/183/183 184/184/184
f 185/185/185 186/186/186 187/187/187
f 185/185/185 187/187/187 188/188/188
f 189/189/189 190/190/190 191/191/191
f 189/189/189 191/191/191 192/192/192
f 193/193/193 194/194/194 195/195/195
f 196/196/196 197/197/197 198/198/198
f 199/199/199 200/200/200 201/201/201
f 202/202/202 203/203/203 204/204/204
f 205/205/205 206/206/206 207/207/207
f 208/208/208 209/209/209 210/210/210
f 211/211/211 212/212/212 213/213/213
f 214/214/214 215/215/215 216/216/216
f 217/217/217 218/218/218 219/219/219
f 220/220/220 221/221/221 222/222/222
f 223/223/223 224/224/224 225/225/225
f 226/226/226 227/227/227 228/228/228
f 229/229/229 230/230/230 231/231/231
f 232/232/232 233/233/233 234/234/234
f 235/235/235 236/236/236 237/237/237
f 238/238/238 239/239/239 240/240/240
f 241/241/241 242/242/242 243/243/243
f 244/244/244 245/245/245 246/246/246
f 247/247/247 248/248/248 249/249/249
f 250/250/250 251/251/251 252/252/252
f 253/253/253 254/254/254 255/255/255
f 256/256/256 257/257/257 258/258/258
f 259/259/259 260/260/260 261/261/261
f 262/262/262 263/263/263 264/264/264
f 265/265/265 266/266/266 267/267/267
f 268/268/268 269/269/269 270/270/270
f 271/271/271 272/272/272 273/273/273
f 274/274/274 275/275/275 276/276/276
f 277/277/277 278/278/278 279/279/279
f 280/280/280 281/281/281 282/282/282
f 283/283/283 284/284/284 285/285/285
f 286/286/286 287/287/287 288/288/288
f 289/289/289 290/290/290 291/291/291
f 292/292/292 293/293/293 294/294/294
f 295/295/295 296/296/296 297/297/297
f 298/298/298 299/299/299 300/300/300
f 301/301/301 302/302/302 303/303/303
f 304/304/304 305/305/305 306/306/306
f 307/307/307 308/308/308 309/309/309
f 310/310/310 311/311/311 312/312/312
f 313/313/313 314/314/314 315/315/315
f 316/316/316 317/317/317 318/318/318
f 319/319/319 320/320/320 321/321/321
f 322/322/322 323/323/323 324/324/324
f 325/325/325 326/326/326 327/327/327
f 328/328/328 329/329/329 330/330/330
f 331/331/331 332/332/332 333/333/333
f 334/334/334 335/335/335 336/336/336
f 337/337/337 338/338/338 339/339/339
f 340/340/340 341/341/341 342/342/342
f 343/343/343 344/344/344 345/345/345
f 346/346/346 347/347/347 348/348/348
f 349/349/349 350/350/350 351/351/351
f 352/352/352 353/353/353 354/354/354
f 355/355/355 356/356/356 357/357/357
f 358/358/358 359/359/359 360/360/360
f 361/361/361 362/362/362 363/363/363
f 364/364/364 365/365/365 366/366/366
f 367/367/367 368/368/368 369/369/369
f 370/370/370 371/371/371 372/372/372
f 373/373/373 374/374/374 375/375/375
f 376/376/376 377/377/377 378/378/378
f 379/379/379 380/380/380 381/381/381
f 382/382/382 383/383/383 384/384/384
f 385/385/385 386/386/386 387/387/387
f 385/385/385 387/387/387 388/388/388
f 389/389/389 390/390/390 391/391/391
f 389/389/389 391/391/391 392/392/392
f 393/393/393 394/394/394 395/395/395
f 393/393/393 395/395/395 396/396/396
f 397/397/397 398/398/398 399/399/399
f 397/397/397 399/399/399 400/400/400
f 401/401/401 402/402/402 403/403/403
f 401/401/401 403/403/403 404/404/404
f 405/405/405 406/406/406 407/407/407
f 405/405/405 407/407/407 408/408/408
f 409/409/409 410/410/410 411/411/411
f 409/409/409 411/411/411 412/412/412
f 413/413/413 414/414/414 415/415/415
f 413/413/413 415/415/415 416/416/416
f 417/417/417 418/418/418 419/419/419
f 417/417/417 419/419/419 420/420/420
f 421/421/421 422/422/422 423/423/423
f 421/421/421 423/423/423 424/424/424
f 425/425/425 426/426/426 427/427/427
f 425/425/425 427/427/427 428/428/428
f 429/429/429 430/430/430 431/431/431
f 429/429/429 431/431/431 432/432/432
f 433/433/433 434/434/434 435/435/435
f 433/433/433 435/435/435 436/436/436
f 437/437/437 438/438/438 439/439/439
f 437/437/437 439/439/439 440/440/440
f 441/441/441 442/442/442 443/443/443
f 441/441/441 443/443/443 444/444/444
f 445/445/445 446/446/446 447/447/447
f 445/445/445 447/447/447 448/448/448
f 449/449/449 450/450/450 451/451/451
f 449/449/449 451/451/451 452/452/452
f 453/453/453 454/454/454 455/455/455
f 453/453/453 455/455/455 456/456/456
f 457/457/457 458/458/458 459/459/459
f 457/457/457 459/459/459 460/460/460
f 461/461/461 462/462/462 463/463/463
f 461/461/461 463/463/463 464/464/464
f 465/465/465 466/466/466 467/467/467
f 465/465/465 467/467/467 468/468/468
f 469/469/469 470/470/470 471/471/471
f 469/469/469 471/471/471 472/472/472
f 473/473/473 474/474/474 475/475/475
f 473/473/473 475/475/475 476/476/476
f 477/477/477 478/478/478 479/479/479
f 477/477/477 479/479/479 480/480/480
f 481/481/481 482/482/482 483/483/483
f 481/481/481 483/483/483 484/484/484
f 485/485/485 486/486/486 487/487/487
f 485/485/485 487/487/487 488/488/488
f 489/489/489 490/490/490 491/491/491
f 489/489/489 491/491/491 492/492/492
f 493/493/493 494/494/494 495/495/495
f 493/493/493 495/495/495 496/496/496
f 497/497/497 498/498/498 499/499/499
f 497/497/497 499/499/499 500/500/500
f 501/501/501 502/502/502 503/503/503
f 501/501/501 503/503/503 504/504/504
f 505/505/505 506/506/506 507/507/507
f 505/505/505 507/507/507 508/508/508
f 509/509/509 510/510/510 511/511/511
f 509/509/509 511/511/511 512/512/512
f 513/513/513 514/514/514 515/515/515
f 513/513/513 515/515/515 516/516/516
f 517/517/517 518/518/518 519/519/519
f 517/517/517 519/519/519 520/520/520
f 521/521/521 522/522/522 523/523/523
f 521/521/521 523/523/523 524/524/524
f 525/525/525 526/526/526 527/527/527
f 525/525/525 527/527/527 528/528/528
f 529/529/529 530/530/530 531/531/531
f 529/529/529 531/531/531 532/532/532
f 533/533/533 534/534/534 535/535/535
f 533/533/533 535/535/535 536/536/536
f 537/537/537 538/538/538 539/539/539
f 537/537/537 539/539/539 540/540/540
f 541/541/541 542/542/542 543/543/543
f 541/541/541 543/543/543 544/544/544
f 545/545/545 546/546/546 547/547/547
f 545/545/545 547/547/547 548/548/548
f 549/549/549 550/550/550 551/551/551
f 549/549/549 551/551/551 552/552/552
f 553/553/553 554/554/554 555/555/555
f 553/553/553 555/555/555 556/556/556
f 557/557/557 558/558/558 559/559/559
f 557/557/557 559/559/559 560/560/560
f 561/561/561 562/562/562 563/563/563
f 561/561/561 563/563/563 564/564/564
f 565/565/565 566/566/566 567/567/567
f 565/565/565 567/567/567 568/568/568
f 569/569/569 570/570/570 571/571/571
f 569/569/569 571/571/571 572/572/572
f 573/573/573 574/574/574 575/575/575
f 573/573/573 575/575/575 576/576/576
f 577/577/577 578/578/578 579/579/579
f 577/577/577 579/579/579 580/580/580
f 581/581/581 582/582/582 583/583/583
f 581/581/581 583/583/583 584/584/584
f 585/585/585 586/586/586 587/587/587
f 585/585/585 587/587/587 588/588/588
f 589/589/589 590/590/590 591/591/591
f 589/589/589 591/591/591 592/592/592
f 593/593/593 594/594/594 595/595/595
f 593/593/593 595/595/595 596/596/596
f 597/597/597 598/598/598 599/599/599
f 597/597/597 599/599/599 600/600/600
f 601/601/601 602/602/602 603/603/603
f 601/601/601 603/603/603 604/604/604
f 605/605/605 606/606/606 607/607/607
f 605/605/605 607/607/607 608/608/608
f 609/609/609 610/610/610 611/611/611
f 609/609/609 611/611/611 612/612/612
f 613/613/613 614/614/614 615/615/615
f 613/613/613 615/615/615 616/616/616
f 617/617/617 618/618/618 619/619/619
f 617/617/617 619/619/619 620/620/620
f 621/621/621 622/622/622 623/623/623
f 621/621/621 623/623/623 624/624/624
f 625/625/625 626/626/626 627/627/627
f 625/625/625 627/627/627 628/628/628
f 629/629/629 630/630/630 631/631/631
f 629/629/629 631/631/631 632/632/632
f 633/633/633 634/634/634 635/635/635
f 633/633/633 635/635/635 636/636/636
f 637/637/637 638/638/638 639/639/639
f 637/637/637 639/639/639 640/640/640
f 641/641/641 642/642/642 643/643/643
f 641/641/641 643/643/643 644/644/644
f 645/645/645 646/646/646 647/647/647
f 645/645/645 647/647/647 648/648/648
f 649/649/649 650/650/650 651/651/651
f 649/649/649 651/651/651 652/652/652
f 653/653/653 654/654/654 655/655/655
f 653/653/653 655/655/655 656/656/656
f 657/657/657 658/658/658 659/659/659
f 657/657/657 659/659/659 660/660/660
f 661/661/661 662/662/662 663/663/663
f 661/661/661 663/663/663 664/664/664
f 665/665/665 666/666/666 667/667/667
f 665/665/665 667/667/667 668/668/668
f 669/669/669 670/670/670 671/671/671
f 669/669/669 671/671/671 672/672/672
f 673/673/673 674/674/674 675/675/675
f 673/673/673 675/675/675 676/676/676
f 677/677/677 678/678/678 679/679/679
f 677/677/677 679/679/679 680/680/680
f 681/681/681 682/682/682 683/683/683
f 681/681/681 683/683/683 684/684/684
f 685/685/685 686/686/686 687/687/687
f 685/685/685 687/687/687 688/688/688
f 689/689/689 690/690/690 691/691/691
f 689/689/689 691/691/691 692/692/692
f 693/693/693 694/694/694 695/695/695
f 693/693/693 695/695/695 696/696/696
f 697/697/697 698/698/698 699/699/699
f 697/697/697 699/699/699 700/700/700
f 701/701/701 702/702/702 703/703/703
f 701/701/701 703/703/703 704/704/704
f 705/705/705 706/706/706 707/707/707
f 705/705/705 707/707/707 708/708/708
f 709/709/709 710/710/710 711/711/711
f 709/709/709 711/711/711 712/712/712
f 713/713/713 714/714/714 715/715/715
f 713/713/713 715/715/715 716/716/716
f 717/717/717 718/718/718 719/719/719
f 717/717/717 719/719/719 720/720/720
f 721/721/721 722/722/722 723/723/723
f 721/721/721 723/723/723 724/724/724
f 725/725/725 726/726/726 727/727/727
f 725/725/725 727/727/727 728/728/728
f 729/729/729 730/730/730 731/731/731
f 729/729/729 731/731/731 732/732/732
f 733/733/733 734/734/734 735/735/735
f 733/733/733 735/735/735 736/736/736
f 737/737/737 738/738/738 739/739/739
f 737/737/737 739/739/739 740/740/740
f 741/741/741 742/742/742 743/743/743
f 741/741/741 743/743/743 744/744/744
f 745/745/745 746/746/746 747/747/747
f 745/745/745 747/747/747 748/748/748
f 749/749/749 750/750/750 751/751/751
f 749/749/749 751/751/751 752/752/752
f 753/753/753 754/754/754 755/755/755
f 753/753/753 755/755/755 756/756/756
f 757/757/757 758/758/758 759/759/759
f 757/757/757 759/759/759 760/760/760
f 761/761/761 762/762/762 763/763/763
f 761/761/761 763/763/763 764/764/764
f 765/765/765 766/766/766 767/767/767
f 765/765/765 767/767/767 768/768/768
